<svg width="472" height="66" viewBox="0 0 472 66" fill="none" xmlns="http://www.w3.org/2000/svg">
<g filter="url(#filter0_di_7916_14654)">
<rect x="3" y="2" width="466" height="60" rx="4" fill="white"/>
<path d="M42.476 37.8816L33.585 42.8066C33.06 43.0656 32.942 43.0656 32.417 42.8066L23.527 37.8816C22.363 37.2376 23.332 35.4966 24.497 36.1416L33.001 40.8506L41.506 36.1406C42.67 35.4956 43.639 37.2366 42.476 37.8806V37.8816ZM42.476 32.8816L33.585 37.8066C33.06 38.0656 32.942 38.0656 32.417 37.8066L23.527 32.8816C22.363 32.2376 23.332 30.4966 24.497 31.1416L33.001 35.8506L41.506 31.1406C42.67 30.4956 43.639 32.2376 42.476 32.8816ZM23.516 27.8906C23.3598 27.8042 23.2296 27.6776 23.1389 27.524C23.0482 27.3703 23.0002 27.1951 23 27.0167C22.9998 26.8382 23.0474 26.663 23.1377 26.5091C23.2281 26.3552 23.358 26.2283 23.514 26.1416L32.514 21.1266C32.6629 21.0436 32.8305 21 33.001 21C33.1714 21 33.3391 21.0436 33.488 21.1266L42.488 26.1416C42.6439 26.2284 42.7737 26.3554 42.864 26.5093C42.9543 26.6632 43.0018 26.8385 43.0015 27.017C43.0011 27.1954 42.9531 27.3706 42.8623 27.5242C42.7715 27.6778 42.6412 27.8043 42.485 27.8906L33.478 32.8756C33.3296 32.9579 33.1627 33.0011 32.993 33.0011C32.8233 33.0011 32.6564 32.9579 32.508 32.8756L23.516 27.8906Z" fill="#282828"/>
<path d="M72.7578 25.6328L68.9922 36H67.4531L71.7891 24.625H72.7812L72.7578 25.6328ZM75.9141 36L72.1406 25.6328L72.1172 24.625H73.1094L77.4609 36H75.9141ZM75.7188 31.7891V33.0234H69.3281V31.7891H75.7188ZM84.0938 34.3594V24H85.5469V36H84.2188L84.0938 34.3594ZM78.4062 31.8672V31.7031C78.4062 31.0573 78.4844 30.4714 78.6406 29.9453C78.8021 29.4141 79.0286 28.9583 79.3203 28.5781C79.6172 28.1979 79.9688 27.9062 80.375 27.7031C80.7865 27.4948 81.2448 27.3906 81.75 27.3906C82.2812 27.3906 82.7448 27.4844 83.1406 27.6719C83.5417 27.8542 83.8802 28.1224 84.1562 28.4766C84.4375 28.8255 84.6589 29.2474 84.8203 29.7422C84.9818 30.237 85.0938 30.7969 85.1562 31.4219V32.1406C85.099 32.7604 84.987 33.3177 84.8203 33.8125C84.6589 34.3073 84.4375 34.7292 84.1562 35.0781C83.8802 35.4271 83.5417 35.6953 83.1406 35.8828C82.7396 36.0651 82.2708 36.1562 81.7344 36.1562C81.2396 36.1562 80.7865 36.0495 80.375 35.8359C79.9688 35.6224 79.6172 35.3229 79.3203 34.9375C79.0286 34.5521 78.8021 34.099 78.6406 33.5781C78.4844 33.0521 78.4062 32.4818 78.4062 31.8672ZM79.8594 31.7031V31.8672C79.8594 32.2891 79.901 32.6849 79.9844 33.0547C80.0729 33.4245 80.2083 33.75 80.3906 34.0312C80.5729 34.3125 80.8047 34.5339 81.0859 34.6953C81.3672 34.8516 81.7031 34.9297 82.0938 34.9297C82.5729 34.9297 82.9661 34.8281 83.2734 34.625C83.5859 34.4219 83.8359 34.1536 84.0234 33.8203C84.2109 33.487 84.3568 33.125 84.4609 32.7344V30.8516C84.3984 30.5651 84.3073 30.2891 84.1875 30.0234C84.0729 29.7526 83.9219 29.513 83.7344 29.3047C83.5521 29.0911 83.3255 28.9219 83.0547 28.7969C82.7891 28.6719 82.474 28.6094 82.1094 28.6094C81.7135 28.6094 81.3724 28.6927 81.0859 28.8594C80.8047 29.0208 80.5729 29.2448 80.3906 29.5312C80.2083 29.8125 80.0729 30.1406 79.9844 30.5156C79.901 30.8854 79.8594 31.2812 79.8594 31.7031ZM93.125 34.3594V24H94.5781V36H93.25L93.125 34.3594ZM87.4375 31.8672V31.7031C87.4375 31.0573 87.5156 30.4714 87.6719 29.9453C87.8333 29.4141 88.0599 28.9583 88.3516 28.5781C88.6484 28.1979 89 27.9062 89.4062 27.7031C89.8177 27.4948 90.276 27.3906 90.7812 27.3906C91.3125 27.3906 91.776 27.4844 92.1719 27.6719C92.5729 27.8542 92.9115 28.1224 93.1875 28.4766C93.4688 28.8255 93.6901 29.2474 93.8516 29.7422C94.013 30.237 94.125 30.7969 94.1875 31.4219V32.1406C94.1302 32.7604 94.0182 33.3177 93.8516 33.8125C93.6901 34.3073 93.4688 34.7292 93.1875 35.0781C92.9115 35.4271 92.5729 35.6953 92.1719 35.8828C91.7708 36.0651 91.3021 36.1562 90.7656 36.1562C90.2708 36.1562 89.8177 36.0495 89.4062 35.8359C89 35.6224 88.6484 35.3229 88.3516 34.9375C88.0599 34.5521 87.8333 34.099 87.6719 33.5781C87.5156 33.0521 87.4375 32.4818 87.4375 31.8672ZM88.8906 31.7031V31.8672C88.8906 32.2891 88.9323 32.6849 89.0156 33.0547C89.1042 33.4245 89.2396 33.75 89.4219 34.0312C89.6042 34.3125 89.8359 34.5339 90.1172 34.6953C90.3984 34.8516 90.7344 34.9297 91.125 34.9297C91.6042 34.9297 91.9974 34.8281 92.3047 34.625C92.6172 34.4219 92.8672 34.1536 93.0547 33.8203C93.2422 33.487 93.388 33.125 93.4922 32.7344V30.8516C93.4297 30.5651 93.3385 30.2891 93.2188 30.0234C93.1042 29.7526 92.9531 29.513 92.7656 29.3047C92.5833 29.0911 92.3568 28.9219 92.0859 28.7969C91.8203 28.6719 91.5052 28.6094 91.1406 28.6094C90.7448 28.6094 90.4036 28.6927 90.1172 28.8594C89.8359 29.0208 89.6042 29.2448 89.4219 29.5312C89.2396 29.8125 89.1042 30.1406 89.0156 30.5156C88.9323 30.8854 88.8906 31.2812 88.8906 31.7031ZM105.227 25.6328L101.461 36H99.9219L104.258 24.625H105.25L105.227 25.6328ZM108.383 36L104.609 25.6328L104.586 24.625H105.578L109.93 36H108.383ZM108.188 31.7891V33.0234H101.797V31.7891H108.188ZM113.07 24.625V36H111.562V24.625H113.07ZM118.602 30.5703V31.7578H114.789V30.5703H118.602ZM125.344 34.3594V24H126.797V36H125.469L125.344 34.3594ZM119.656 31.8672V31.7031C119.656 31.0573 119.734 30.4714 119.891 29.9453C120.052 29.4141 120.279 28.9583 120.57 28.5781C120.867 28.1979 121.219 27.9062 121.625 27.7031C122.036 27.4948 122.495 27.3906 123 27.3906C123.531 27.3906 123.995 27.4844 124.391 27.6719C124.792 27.8542 125.13 28.1224 125.406 28.4766C125.688 28.8255 125.909 29.2474 126.07 29.7422C126.232 30.237 126.344 30.7969 126.406 31.4219V32.1406C126.349 32.7604 126.237 33.3177 126.07 33.8125C125.909 34.3073 125.688 34.7292 125.406 35.0781C125.13 35.4271 124.792 35.6953 124.391 35.8828C123.99 36.0651 123.521 36.1562 122.984 36.1562C122.49 36.1562 122.036 36.0495 121.625 35.8359C121.219 35.6224 120.867 35.3229 120.57 34.9375C120.279 34.5521 120.052 34.099 119.891 33.5781C119.734 33.0521 119.656 32.4818 119.656 31.8672ZM121.109 31.7031V31.8672C121.109 32.2891 121.151 32.6849 121.234 33.0547C121.323 33.4245 121.458 33.75 121.641 34.0312C121.823 34.3125 122.055 34.5339 122.336 34.6953C122.617 34.8516 122.953 34.9297 123.344 34.9297C123.823 34.9297 124.216 34.8281 124.523 34.625C124.836 34.4219 125.086 34.1536 125.273 33.8203C125.461 33.487 125.607 33.125 125.711 32.7344V30.8516C125.648 30.5651 125.557 30.2891 125.438 30.0234C125.323 29.7526 125.172 29.513 124.984 29.3047C124.802 29.0911 124.576 28.9219 124.305 28.7969C124.039 28.6719 123.724 28.6094 123.359 28.6094C122.964 28.6094 122.622 28.6927 122.336 28.8594C122.055 29.0208 121.823 29.2448 121.641 29.5312C121.458 29.8125 121.323 30.1406 121.234 30.5156C121.151 30.8854 121.109 31.2812 121.109 31.7031ZM130.492 28.875V36H129.047V27.5469H130.453L130.492 28.875ZM133.133 27.5L133.125 28.8438C133.005 28.8177 132.891 28.8021 132.781 28.7969C132.677 28.7865 132.557 28.7812 132.422 28.7812C132.089 28.7812 131.794 28.8333 131.539 28.9375C131.284 29.0417 131.068 29.1875 130.891 29.375C130.714 29.5625 130.573 29.7865 130.469 30.0469C130.37 30.3021 130.305 30.5833 130.273 30.8906L129.867 31.125C129.867 30.6146 129.917 30.1354 130.016 29.6875C130.12 29.2396 130.279 28.8438 130.492 28.5C130.706 28.151 130.977 27.8802 131.305 27.6875C131.638 27.4896 132.034 27.3906 132.492 27.3906C132.596 27.3906 132.716 27.4036 132.852 27.4297C132.987 27.4505 133.081 27.474 133.133 27.5ZM136.039 27.5469V36H134.586V27.5469H136.039ZM134.477 25.3047C134.477 25.0703 134.547 24.8724 134.688 24.7109C134.833 24.5495 135.047 24.4688 135.328 24.4688C135.604 24.4688 135.815 24.5495 135.961 24.7109C136.112 24.8724 136.188 25.0703 136.188 25.3047C136.188 25.5286 136.112 25.7214 135.961 25.8828C135.815 26.0391 135.604 26.1172 135.328 26.1172C135.047 26.1172 134.833 26.0391 134.688 25.8828C134.547 25.7214 134.477 25.5286 134.477 25.3047ZM140.93 34.6953L143.242 27.5469H144.719L141.68 36H140.711L140.93 34.6953ZM139 27.5469L141.383 34.7344L141.547 36H140.578L137.516 27.5469H139ZM149.508 36.1562C148.919 36.1562 148.385 36.0573 147.906 35.8594C147.432 35.6562 147.023 35.3724 146.68 35.0078C146.341 34.6432 146.081 34.2109 145.898 33.7109C145.716 33.2109 145.625 32.6641 145.625 32.0703V31.7422C145.625 31.0547 145.727 30.4427 145.93 29.9062C146.133 29.3646 146.409 28.9062 146.758 28.5312C147.107 28.1562 147.503 27.8724 147.945 27.6797C148.388 27.487 148.846 27.3906 149.32 27.3906C149.924 27.3906 150.445 27.4948 150.883 27.7031C151.326 27.9115 151.688 28.2031 151.969 28.5781C152.25 28.9479 152.458 29.3854 152.594 29.8906C152.729 30.3906 152.797 30.9375 152.797 31.5312V32.1797H146.484V31H151.352V30.8906C151.331 30.5156 151.253 30.151 151.117 29.7969C150.987 29.4427 150.779 29.151 150.492 28.9219C150.206 28.6927 149.815 28.5781 149.32 28.5781C148.992 28.5781 148.69 28.6484 148.414 28.7891C148.138 28.9245 147.901 29.1276 147.703 29.3984C147.505 29.6693 147.352 30 147.242 30.3906C147.133 30.7812 147.078 31.2318 147.078 31.7422V32.0703C147.078 32.4714 147.133 32.849 147.242 33.2031C147.357 33.5521 147.521 33.8594 147.734 34.125C147.953 34.3906 148.216 34.599 148.523 34.75C148.836 34.901 149.19 34.9766 149.586 34.9766C150.096 34.9766 150.529 34.8724 150.883 34.6641C151.237 34.4557 151.547 34.1771 151.812 33.8281L152.688 34.5234C152.505 34.7995 152.273 35.0625 151.992 35.3125C151.711 35.5625 151.365 35.7656 150.953 35.9219C150.547 36.0781 150.065 36.1562 149.508 36.1562ZM155.93 29.3516V36H154.484V27.5469H155.852L155.93 29.3516ZM155.586 31.4531L154.984 31.4297C154.99 30.8516 155.076 30.3177 155.242 29.8281C155.409 29.3333 155.643 28.9036 155.945 28.5391C156.247 28.1745 156.607 27.8932 157.023 27.6953C157.445 27.4922 157.911 27.3906 158.422 27.3906C158.839 27.3906 159.214 27.4479 159.547 27.5625C159.88 27.6719 160.164 27.849 160.398 28.0938C160.638 28.3385 160.82 28.6562 160.945 29.0469C161.07 29.4323 161.133 29.9036 161.133 30.4609V36H159.68V30.4453C159.68 30.0026 159.615 29.6484 159.484 29.3828C159.354 29.112 159.164 28.9167 158.914 28.7969C158.664 28.6719 158.357 28.6094 157.992 28.6094C157.633 28.6094 157.305 28.6849 157.008 28.8359C156.716 28.987 156.464 29.1953 156.25 29.4609C156.042 29.7266 155.878 30.0312 155.758 30.375C155.643 30.7135 155.586 31.0729 155.586 31.4531ZM169.453 36H168.008V26.6562C168.008 26.0469 168.117 25.5339 168.336 25.1172C168.56 24.6953 168.88 24.3776 169.297 24.1641C169.714 23.9453 170.208 23.8359 170.781 23.8359C170.948 23.8359 171.115 23.8464 171.281 23.8672C171.453 23.888 171.62 23.9193 171.781 23.9609L171.703 25.1406C171.594 25.1146 171.469 25.0964 171.328 25.0859C171.193 25.0755 171.057 25.0703 170.922 25.0703C170.615 25.0703 170.349 25.1328 170.125 25.2578C169.906 25.3776 169.74 25.5547 169.625 25.7891C169.51 26.0234 169.453 26.3125 169.453 26.6562V36ZM171.25 27.5469V28.6562H166.672V27.5469H171.25ZM178.031 34.0469V27.5469H179.484V36H178.102L178.031 34.0469ZM178.305 32.2656L178.906 32.25C178.906 32.8125 178.846 33.3333 178.727 33.8125C178.612 34.2865 178.424 34.6979 178.164 35.0469C177.904 35.3958 177.562 35.6693 177.141 35.8672C176.719 36.0599 176.206 36.1562 175.602 36.1562C175.19 36.1562 174.812 36.0964 174.469 35.9766C174.13 35.8568 173.839 35.6719 173.594 35.4219C173.349 35.1719 173.159 34.8464 173.023 34.4453C172.893 34.0443 172.828 33.5625 172.828 33V27.5469H174.273V33.0156C174.273 33.3958 174.315 33.7109 174.398 33.9609C174.487 34.2057 174.604 34.401 174.75 34.5469C174.901 34.6875 175.068 34.7865 175.25 34.8438C175.438 34.901 175.63 34.9297 175.828 34.9297C176.443 34.9297 176.93 34.8125 177.289 34.5781C177.648 34.3385 177.906 34.0182 178.062 33.6172C178.224 33.2109 178.305 32.7604 178.305 32.2656ZM183.133 29.3516V36H181.688V27.5469H183.055L183.133 29.3516ZM182.789 31.4531L182.188 31.4297C182.193 30.8516 182.279 30.3177 182.445 29.8281C182.612 29.3333 182.846 28.9036 183.148 28.5391C183.451 28.1745 183.81 27.8932 184.227 27.6953C184.648 27.4922 185.115 27.3906 185.625 27.3906C186.042 27.3906 186.417 27.4479 186.75 27.5625C187.083 27.6719 187.367 27.849 187.602 28.0938C187.841 28.3385 188.023 28.6562 188.148 29.0469C188.273 29.4323 188.336 29.9036 188.336 30.4609V36H186.883V30.4453C186.883 30.0026 186.818 29.6484 186.688 29.3828C186.557 29.112 186.367 28.9167 186.117 28.7969C185.867 28.6719 185.56 28.6094 185.195 28.6094C184.836 28.6094 184.508 28.6849 184.211 28.8359C183.919 28.987 183.667 29.1953 183.453 29.4609C183.245 29.7266 183.081 30.0312 182.961 30.375C182.846 30.7135 182.789 31.0729 182.789 31.4531ZM193.914 34.9688C194.258 34.9688 194.576 34.8984 194.867 34.7578C195.159 34.6172 195.398 34.4245 195.586 34.1797C195.773 33.9297 195.88 33.6458 195.906 33.3281H197.281C197.255 33.8281 197.086 34.2943 196.773 34.7266C196.466 35.1536 196.062 35.5 195.562 35.7656C195.062 36.026 194.513 36.1562 193.914 36.1562C193.279 36.1562 192.724 36.0443 192.25 35.8203C191.781 35.5964 191.391 35.2891 191.078 34.8984C190.771 34.5078 190.539 34.0599 190.383 33.5547C190.232 33.0443 190.156 32.5052 190.156 31.9375V31.6094C190.156 31.0417 190.232 30.5052 190.383 30C190.539 29.4896 190.771 29.0391 191.078 28.6484C191.391 28.2578 191.781 27.9505 192.25 27.7266C192.724 27.5026 193.279 27.3906 193.914 27.3906C194.576 27.3906 195.154 27.526 195.648 27.7969C196.143 28.0625 196.531 28.4271 196.812 28.8906C197.099 29.349 197.255 29.8698 197.281 30.4531H195.906C195.88 30.1042 195.781 29.7891 195.609 29.5078C195.443 29.2266 195.214 29.0026 194.922 28.8359C194.635 28.6641 194.299 28.5781 193.914 28.5781C193.471 28.5781 193.099 28.6667 192.797 28.8438C192.5 29.0156 192.263 29.25 192.086 29.5469C191.914 29.8385 191.789 30.1641 191.711 30.5234C191.638 30.8776 191.602 31.2396 191.602 31.6094V31.9375C191.602 32.3073 191.638 32.6719 191.711 33.0312C191.784 33.3906 191.906 33.7161 192.078 34.0078C192.255 34.2995 192.492 34.5339 192.789 34.7109C193.091 34.8828 193.466 34.9688 193.914 34.9688ZM202.445 27.5469V28.6562H197.875V27.5469H202.445ZM199.422 25.4922H200.867V33.9062C200.867 34.1927 200.911 34.4089 201 34.5547C201.089 34.7005 201.203 34.7969 201.344 34.8438C201.484 34.8906 201.635 34.9141 201.797 34.9141C201.917 34.9141 202.042 34.9036 202.172 34.8828C202.307 34.8568 202.409 34.8359 202.477 34.8203L202.484 36C202.37 36.0365 202.219 36.0703 202.031 36.1016C201.849 36.138 201.628 36.1562 201.367 36.1562C201.013 36.1562 200.688 36.0859 200.391 35.9453C200.094 35.8047 199.857 35.5703 199.68 35.2422C199.508 34.9089 199.422 34.4609 199.422 33.8984V25.4922ZM205.711 27.5469V36H204.258V27.5469H205.711ZM204.148 25.3047C204.148 25.0703 204.219 24.8724 204.359 24.7109C204.505 24.5495 204.719 24.4688 205 24.4688C205.276 24.4688 205.487 24.5495 205.633 24.7109C205.784 24.8724 205.859 25.0703 205.859 25.3047C205.859 25.5286 205.784 25.7214 205.633 25.8828C205.487 26.0391 205.276 26.1172 205 26.1172C204.719 26.1172 204.505 26.0391 204.359 25.8828C204.219 25.7214 204.148 25.5286 204.148 25.3047ZM207.648 31.8672V31.6875C207.648 31.0781 207.737 30.513 207.914 29.9922C208.091 29.4661 208.346 29.0104 208.68 28.625C209.013 28.2344 209.417 27.9323 209.891 27.7188C210.365 27.5 210.896 27.3906 211.484 27.3906C212.078 27.3906 212.612 27.5 213.086 27.7188C213.565 27.9323 213.971 28.2344 214.305 28.625C214.643 29.0104 214.901 29.4661 215.078 29.9922C215.255 30.513 215.344 31.0781 215.344 31.6875V31.8672C215.344 32.4766 215.255 33.0417 215.078 33.5625C214.901 34.0833 214.643 34.5391 214.305 34.9297C213.971 35.3151 213.568 35.6172 213.094 35.8359C212.625 36.0495 212.094 36.1562 211.5 36.1562C210.906 36.1562 210.372 36.0495 209.898 35.8359C209.424 35.6172 209.018 35.3151 208.68 34.9297C208.346 34.5391 208.091 34.0833 207.914 33.5625C207.737 33.0417 207.648 32.4766 207.648 31.8672ZM209.094 31.6875V31.8672C209.094 32.2891 209.143 32.6875 209.242 33.0625C209.341 33.4323 209.49 33.7604 209.688 34.0469C209.891 34.3333 210.143 34.5599 210.445 34.7266C210.747 34.888 211.099 34.9688 211.5 34.9688C211.896 34.9688 212.242 34.888 212.539 34.7266C212.841 34.5599 213.091 34.3333 213.289 34.0469C213.487 33.7604 213.635 33.4323 213.734 33.0625C213.839 32.6875 213.891 32.2891 213.891 31.8672V31.6875C213.891 31.2708 213.839 30.8776 213.734 30.5078C213.635 30.1328 213.484 29.8021 213.281 29.5156C213.083 29.224 212.833 28.9948 212.531 28.8281C212.234 28.6615 211.885 28.5781 211.484 28.5781C211.089 28.5781 210.74 28.6615 210.438 28.8281C210.141 28.9948 209.891 29.224 209.688 29.5156C209.49 29.8021 209.341 30.1328 209.242 30.5078C209.143 30.8776 209.094 31.2708 209.094 31.6875ZM218.602 29.3516V36H217.156V27.5469H218.523L218.602 29.3516ZM218.258 31.4531L217.656 31.4297C217.661 30.8516 217.747 30.3177 217.914 29.8281C218.081 29.3333 218.315 28.9036 218.617 28.5391C218.919 28.1745 219.279 27.8932 219.695 27.6953C220.117 27.4922 220.583 27.3906 221.094 27.3906C221.51 27.3906 221.885 27.4479 222.219 27.5625C222.552 27.6719 222.836 27.849 223.07 28.0938C223.31 28.3385 223.492 28.6562 223.617 29.0469C223.742 29.4323 223.805 29.9036 223.805 30.4609V36H222.352V30.4453C222.352 30.0026 222.286 29.6484 222.156 29.3828C222.026 29.112 221.836 28.9167 221.586 28.7969C221.336 28.6719 221.029 28.6094 220.664 28.6094C220.305 28.6094 219.977 28.6849 219.68 28.8359C219.388 28.987 219.135 29.1953 218.922 29.4609C218.714 29.7266 218.549 30.0312 218.43 30.375C218.315 30.7135 218.258 31.0729 218.258 31.4531ZM230.984 34.5547V30.2031C230.984 29.8698 230.917 29.5807 230.781 29.3359C230.651 29.0859 230.453 28.8932 230.188 28.7578C229.922 28.6224 229.594 28.5547 229.203 28.5547C228.839 28.5547 228.518 28.6172 228.242 28.7422C227.971 28.8672 227.758 29.0312 227.602 29.2344C227.451 29.4375 227.375 29.6562 227.375 29.8906H225.93C225.93 29.5885 226.008 29.2891 226.164 28.9922C226.32 28.6953 226.544 28.4271 226.836 28.1875C227.133 27.9427 227.487 27.75 227.898 27.6094C228.315 27.4635 228.779 27.3906 229.289 27.3906C229.904 27.3906 230.445 27.4948 230.914 27.7031C231.388 27.9115 231.758 28.2266 232.023 28.6484C232.294 29.0651 232.43 29.5885 232.43 30.2188V34.1562C232.43 34.4375 232.453 34.737 232.5 35.0547C232.552 35.3724 232.628 35.6458 232.727 35.875V36H231.219C231.146 35.8333 231.089 35.612 231.047 35.3359C231.005 35.0547 230.984 34.7943 230.984 34.5547ZM231.234 30.875L231.25 31.8906H229.789C229.378 31.8906 229.01 31.9245 228.688 31.9922C228.365 32.0547 228.094 32.151 227.875 32.2812C227.656 32.4115 227.49 32.5755 227.375 32.7734C227.26 32.9661 227.203 33.1927 227.203 33.4531C227.203 33.7188 227.263 33.9609 227.383 34.1797C227.503 34.3984 227.682 34.5729 227.922 34.7031C228.167 34.8281 228.466 34.8906 228.82 34.8906C229.263 34.8906 229.654 34.7969 229.992 34.6094C230.331 34.4219 230.599 34.1927 230.797 33.9219C231 33.651 231.109 33.388 231.125 33.1328L231.742 33.8281C231.706 34.0469 231.607 34.2891 231.445 34.5547C231.284 34.8203 231.068 35.0755 230.797 35.3203C230.531 35.5599 230.214 35.7604 229.844 35.9219C229.479 36.0781 229.068 36.1562 228.609 36.1562C228.036 36.1562 227.534 36.0443 227.102 35.8203C226.674 35.5964 226.341 35.2969 226.102 34.9219C225.867 34.5417 225.75 34.1172 225.75 33.6484C225.75 33.1953 225.839 32.7969 226.016 32.4531C226.193 32.1042 226.448 31.8151 226.781 31.5859C227.115 31.3516 227.516 31.1745 227.984 31.0547C228.453 30.9349 228.977 30.875 229.555 30.875H231.234ZM236.273 24V36H234.82V24H236.273ZM240.164 27.5469V36H238.711V27.5469H240.164ZM238.602 25.3047C238.602 25.0703 238.672 24.8724 238.812 24.7109C238.958 24.5495 239.172 24.4688 239.453 24.4688C239.729 24.4688 239.94 24.5495 240.086 24.7109C240.237 24.8724 240.312 25.0703 240.312 25.3047C240.312 25.5286 240.237 25.7214 240.086 25.8828C239.94 26.0391 239.729 26.1172 239.453 26.1172C239.172 26.1172 238.958 26.0391 238.812 25.8828C238.672 25.7214 238.602 25.5286 238.602 25.3047ZM246.023 27.5469V28.6562H241.453V27.5469H246.023ZM243 25.4922H244.445V33.9062C244.445 34.1927 244.49 34.4089 244.578 34.5547C244.667 34.7005 244.781 34.7969 244.922 34.8438C245.062 34.8906 245.214 34.9141 245.375 34.9141C245.495 34.9141 245.62 34.9036 245.75 34.8828C245.885 34.8568 245.987 34.8359 246.055 34.8203L246.062 36C245.948 36.0365 245.797 36.0703 245.609 36.1016C245.427 36.138 245.206 36.1562 244.945 36.1562C244.591 36.1562 244.266 36.0859 243.969 35.9453C243.672 35.8047 243.435 35.5703 243.258 35.2422C243.086 34.9089 243 34.4609 243 33.8984V25.4922ZM250.094 35.125L252.445 27.5469H253.992L250.602 37.3047C250.523 37.513 250.419 37.737 250.289 37.9766C250.164 38.2214 250.003 38.4531 249.805 38.6719C249.607 38.8906 249.367 39.0677 249.086 39.2031C248.81 39.3438 248.479 39.4141 248.094 39.4141C247.979 39.4141 247.833 39.3984 247.656 39.3672C247.479 39.3359 247.354 39.3099 247.281 39.2891L247.273 38.1172C247.315 38.1224 247.38 38.1276 247.469 38.1328C247.562 38.1432 247.628 38.1484 247.664 38.1484C247.992 38.1484 248.271 38.1042 248.5 38.0156C248.729 37.9323 248.922 37.7891 249.078 37.5859C249.24 37.388 249.378 37.1146 249.492 36.7656L250.094 35.125ZM248.367 27.5469L250.562 34.1094L250.938 35.6328L249.898 36.1641L246.789 27.5469H248.367ZM262.805 27.5469V28.6562H258.234V27.5469H262.805ZM259.781 25.4922H261.227V33.9062C261.227 34.1927 261.271 34.4089 261.359 34.5547C261.448 34.7005 261.562 34.7969 261.703 34.8438C261.844 34.8906 261.995 34.9141 262.156 34.9141C262.276 34.9141 262.401 34.9036 262.531 34.8828C262.667 34.8568 262.768 34.8359 262.836 34.8203L262.844 36C262.729 36.0365 262.578 36.0703 262.391 36.1016C262.208 36.138 261.987 36.1562 261.727 36.1562C261.372 36.1562 261.047 36.0859 260.75 35.9453C260.453 35.8047 260.216 35.5703 260.039 35.2422C259.867 34.9089 259.781 34.4609 259.781 33.8984V25.4922ZM263.961 31.8672V31.6875C263.961 31.0781 264.049 30.513 264.227 29.9922C264.404 29.4661 264.659 29.0104 264.992 28.625C265.326 28.2344 265.729 27.9323 266.203 27.7188C266.677 27.5 267.208 27.3906 267.797 27.3906C268.391 27.3906 268.924 27.5 269.398 27.7188C269.878 27.9323 270.284 28.2344 270.617 28.625C270.956 29.0104 271.214 29.4661 271.391 29.9922C271.568 30.513 271.656 31.0781 271.656 31.6875V31.8672C271.656 32.4766 271.568 33.0417 271.391 33.5625C271.214 34.0833 270.956 34.5391 270.617 34.9297C270.284 35.3151 269.88 35.6172 269.406 35.8359C268.938 36.0495 268.406 36.1562 267.812 36.1562C267.219 36.1562 266.685 36.0495 266.211 35.8359C265.737 35.6172 265.331 35.3151 264.992 34.9297C264.659 34.5391 264.404 34.0833 264.227 33.5625C264.049 33.0417 263.961 32.4766 263.961 31.8672ZM265.406 31.6875V31.8672C265.406 32.2891 265.456 32.6875 265.555 33.0625C265.654 33.4323 265.802 33.7604 266 34.0469C266.203 34.3333 266.456 34.5599 266.758 34.7266C267.06 34.888 267.411 34.9688 267.812 34.9688C268.208 34.9688 268.555 34.888 268.852 34.7266C269.154 34.5599 269.404 34.3333 269.602 34.0469C269.799 33.7604 269.948 33.4323 270.047 33.0625C270.151 32.6875 270.203 32.2891 270.203 31.8672V31.6875C270.203 31.2708 270.151 30.8776 270.047 30.5078C269.948 30.1328 269.797 29.8021 269.594 29.5156C269.396 29.224 269.146 28.9948 268.844 28.8281C268.547 28.6615 268.198 28.5781 267.797 28.5781C267.401 28.5781 267.052 28.6615 266.75 28.8281C266.453 28.9948 266.203 29.224 266 29.5156C265.802 29.8021 265.654 30.1328 265.555 30.5078C265.456 30.8776 265.406 31.2708 265.406 31.6875ZM280.82 34.9688C281.164 34.9688 281.482 34.8984 281.773 34.7578C282.065 34.6172 282.305 34.4245 282.492 34.1797C282.68 33.9297 282.786 33.6458 282.812 33.3281H284.188C284.161 33.8281 283.992 34.2943 283.68 34.7266C283.372 35.1536 282.969 35.5 282.469 35.7656C281.969 36.026 281.419 36.1562 280.82 36.1562C280.185 36.1562 279.63 36.0443 279.156 35.8203C278.688 35.5964 278.297 35.2891 277.984 34.8984C277.677 34.5078 277.445 34.0599 277.289 33.5547C277.138 33.0443 277.062 32.5052 277.062 31.9375V31.6094C277.062 31.0417 277.138 30.5052 277.289 30C277.445 29.4896 277.677 29.0391 277.984 28.6484C278.297 28.2578 278.688 27.9505 279.156 27.7266C279.63 27.5026 280.185 27.3906 280.82 27.3906C281.482 27.3906 282.06 27.526 282.555 27.7969C283.049 28.0625 283.438 28.4271 283.719 28.8906C284.005 29.349 284.161 29.8698 284.188 30.4531H282.812C282.786 30.1042 282.688 29.7891 282.516 29.5078C282.349 29.2266 282.12 29.0026 281.828 28.8359C281.542 28.6641 281.206 28.5781 280.82 28.5781C280.378 28.5781 280.005 28.6667 279.703 28.8438C279.406 29.0156 279.169 29.25 278.992 29.5469C278.82 29.8385 278.695 30.1641 278.617 30.5234C278.544 30.8776 278.508 31.2396 278.508 31.6094V31.9375C278.508 32.3073 278.544 32.6719 278.617 33.0312C278.69 33.3906 278.812 33.7161 278.984 34.0078C279.161 34.2995 279.398 34.5339 279.695 34.7109C279.997 34.8828 280.372 34.9688 280.82 34.9688ZM285.43 31.8672V31.6875C285.43 31.0781 285.518 30.513 285.695 29.9922C285.872 29.4661 286.128 29.0104 286.461 28.625C286.794 28.2344 287.198 27.9323 287.672 27.7188C288.146 27.5 288.677 27.3906 289.266 27.3906C289.859 27.3906 290.393 27.5 290.867 27.7188C291.346 27.9323 291.753 28.2344 292.086 28.625C292.424 29.0104 292.682 29.4661 292.859 29.9922C293.036 30.513 293.125 31.0781 293.125 31.6875V31.8672C293.125 32.4766 293.036 33.0417 292.859 33.5625C292.682 34.0833 292.424 34.5391 292.086 34.9297C291.753 35.3151 291.349 35.6172 290.875 35.8359C290.406 36.0495 289.875 36.1562 289.281 36.1562C288.688 36.1562 288.154 36.0495 287.68 35.8359C287.206 35.6172 286.799 35.3151 286.461 34.9297C286.128 34.5391 285.872 34.0833 285.695 33.5625C285.518 33.0417 285.43 32.4766 285.43 31.8672ZM286.875 31.6875V31.8672C286.875 32.2891 286.924 32.6875 287.023 33.0625C287.122 33.4323 287.271 33.7604 287.469 34.0469C287.672 34.3333 287.924 34.5599 288.227 34.7266C288.529 34.888 288.88 34.9688 289.281 34.9688C289.677 34.9688 290.023 34.888 290.32 34.7266C290.622 34.5599 290.872 34.3333 291.07 34.0469C291.268 33.7604 291.417 33.4323 291.516 33.0625C291.62 32.6875 291.672 32.2891 291.672 31.8672V31.6875C291.672 31.2708 291.62 30.8776 291.516 30.5078C291.417 30.1328 291.266 29.8021 291.062 29.5156C290.865 29.224 290.615 28.9948 290.312 28.8281C290.016 28.6615 289.667 28.5781 289.266 28.5781C288.87 28.5781 288.521 28.6615 288.219 28.8281C287.922 28.9948 287.672 29.224 287.469 29.5156C287.271 29.8021 287.122 30.1328 287.023 30.5078C286.924 30.8776 286.875 31.2708 286.875 31.6875ZM296.383 28.875V36H294.938V27.5469H296.344L296.383 28.875ZM299.023 27.5L299.016 28.8438C298.896 28.8177 298.781 28.8021 298.672 28.7969C298.568 28.7865 298.448 28.7812 298.312 28.7812C297.979 28.7812 297.685 28.8333 297.43 28.9375C297.174 29.0417 296.958 29.1875 296.781 29.375C296.604 29.5625 296.464 29.7865 296.359 30.0469C296.26 30.3021 296.195 30.5833 296.164 30.8906L295.758 31.125C295.758 30.6146 295.807 30.1354 295.906 29.6875C296.01 29.2396 296.169 28.8438 296.383 28.5C296.596 28.151 296.867 27.8802 297.195 27.6875C297.529 27.4896 297.924 27.3906 298.383 27.3906C298.487 27.3906 298.607 27.4036 298.742 27.4297C298.878 27.4505 298.971 27.474 299.023 27.5ZM303.711 36.1562C303.122 36.1562 302.589 36.0573 302.109 35.8594C301.635 35.6562 301.227 35.3724 300.883 35.0078C300.544 34.6432 300.284 34.2109 300.102 33.7109C299.919 33.2109 299.828 32.6641 299.828 32.0703V31.7422C299.828 31.0547 299.93 30.4427 300.133 29.9062C300.336 29.3646 300.612 28.9062 300.961 28.5312C301.31 28.1562 301.706 27.8724 302.148 27.6797C302.591 27.487 303.049 27.3906 303.523 27.3906C304.128 27.3906 304.648 27.4948 305.086 27.7031C305.529 27.9115 305.891 28.2031 306.172 28.5781C306.453 28.9479 306.661 29.3854 306.797 29.8906C306.932 30.3906 307 30.9375 307 31.5312V32.1797H300.688V31H305.555V30.8906C305.534 30.5156 305.456 30.151 305.32 29.7969C305.19 29.4427 304.982 29.151 304.695 28.9219C304.409 28.6927 304.018 28.5781 303.523 28.5781C303.195 28.5781 302.893 28.6484 302.617 28.7891C302.341 28.9245 302.104 29.1276 301.906 29.3984C301.708 29.6693 301.555 30 301.445 30.3906C301.336 30.7812 301.281 31.2318 301.281 31.7422V32.0703C301.281 32.4714 301.336 32.849 301.445 33.2031C301.56 33.5521 301.724 33.8594 301.938 34.125C302.156 34.3906 302.419 34.599 302.727 34.75C303.039 34.901 303.393 34.9766 303.789 34.9766C304.299 34.9766 304.732 34.8724 305.086 34.6641C305.44 34.4557 305.75 34.1771 306.016 33.8281L306.891 34.5234C306.708 34.7995 306.477 35.0625 306.195 35.3125C305.914 35.5625 305.568 35.7656 305.156 35.9219C304.75 36.0781 304.268 36.1562 303.711 36.1562ZM314.102 29.1719V39.25H312.648V27.5469H313.977L314.102 29.1719ZM319.797 31.7031V31.8672C319.797 32.4818 319.724 33.0521 319.578 33.5781C319.432 34.099 319.219 34.5521 318.938 34.9375C318.661 35.3229 318.32 35.6224 317.914 35.8359C317.508 36.0495 317.042 36.1562 316.516 36.1562C315.979 36.1562 315.505 36.0677 315.094 35.8906C314.682 35.7135 314.333 35.4557 314.047 35.1172C313.76 34.7786 313.531 34.3724 313.359 33.8984C313.193 33.4245 313.078 32.8906 313.016 32.2969V31.4219C313.078 30.7969 313.195 30.237 313.367 29.7422C313.539 29.2474 313.766 28.8255 314.047 28.4766C314.333 28.1224 314.68 27.8542 315.086 27.6719C315.492 27.4844 315.961 27.3906 316.492 27.3906C317.023 27.3906 317.495 27.4948 317.906 27.7031C318.318 27.9062 318.664 28.1979 318.945 28.5781C319.227 28.9583 319.438 29.4141 319.578 29.9453C319.724 30.4714 319.797 31.0573 319.797 31.7031ZM318.344 31.8672V31.7031C318.344 31.2812 318.299 30.8854 318.211 30.5156C318.122 30.1406 317.984 29.8125 317.797 29.5312C317.615 29.2448 317.38 29.0208 317.094 28.8594C316.807 28.6927 316.466 28.6094 316.07 28.6094C315.706 28.6094 315.388 28.6719 315.117 28.7969C314.852 28.9219 314.625 29.0911 314.438 29.3047C314.25 29.513 314.096 29.7526 313.977 30.0234C313.862 30.2891 313.776 30.5651 313.719 30.8516V32.875C313.823 33.2396 313.969 33.5833 314.156 33.9062C314.344 34.224 314.594 34.4818 314.906 34.6797C315.219 34.8724 315.612 34.9688 316.086 34.9688C316.477 34.9688 316.812 34.888 317.094 34.7266C317.38 34.5599 317.615 34.3333 317.797 34.0469C317.984 33.7604 318.122 33.4323 318.211 33.0625C318.299 32.6875 318.344 32.2891 318.344 31.8672ZM323.211 24V36H321.758V24H323.211ZM330.516 34.5547V30.2031C330.516 29.8698 330.448 29.5807 330.312 29.3359C330.182 29.0859 329.984 28.8932 329.719 28.7578C329.453 28.6224 329.125 28.5547 328.734 28.5547C328.37 28.5547 328.049 28.6172 327.773 28.7422C327.503 28.8672 327.289 29.0312 327.133 29.2344C326.982 29.4375 326.906 29.6562 326.906 29.8906H325.461C325.461 29.5885 325.539 29.2891 325.695 28.9922C325.852 28.6953 326.076 28.4271 326.367 28.1875C326.664 27.9427 327.018 27.75 327.43 27.6094C327.846 27.4635 328.31 27.3906 328.82 27.3906C329.435 27.3906 329.977 27.4948 330.445 27.7031C330.919 27.9115 331.289 28.2266 331.555 28.6484C331.826 29.0651 331.961 29.5885 331.961 30.2188V34.1562C331.961 34.4375 331.984 34.737 332.031 35.0547C332.083 35.3724 332.159 35.6458 332.258 35.875V36H330.75C330.677 35.8333 330.62 35.612 330.578 35.3359C330.536 35.0547 330.516 34.7943 330.516 34.5547ZM330.766 30.875L330.781 31.8906H329.32C328.909 31.8906 328.542 31.9245 328.219 31.9922C327.896 32.0547 327.625 32.151 327.406 32.2812C327.188 32.4115 327.021 32.5755 326.906 32.7734C326.792 32.9661 326.734 33.1927 326.734 33.4531C326.734 33.7188 326.794 33.9609 326.914 34.1797C327.034 34.3984 327.214 34.5729 327.453 34.7031C327.698 34.8281 327.997 34.8906 328.352 34.8906C328.794 34.8906 329.185 34.7969 329.523 34.6094C329.862 34.4219 330.13 34.1927 330.328 33.9219C330.531 33.651 330.641 33.388 330.656 33.1328L331.273 33.8281C331.237 34.0469 331.138 34.2891 330.977 34.5547C330.815 34.8203 330.599 35.0755 330.328 35.3203C330.062 35.5599 329.745 35.7604 329.375 35.9219C329.01 36.0781 328.599 36.1562 328.141 36.1562C327.568 36.1562 327.065 36.0443 326.633 35.8203C326.206 35.5964 325.872 35.2969 325.633 34.9219C325.398 34.5417 325.281 34.1172 325.281 33.6484C325.281 33.1953 325.37 32.7969 325.547 32.4531C325.724 32.1042 325.979 31.8151 326.312 31.5859C326.646 31.3516 327.047 31.1745 327.516 31.0547C327.984 30.9349 328.508 30.875 329.086 30.875H330.766ZM337.773 27.5469V28.6562H333.203V27.5469H337.773ZM334.75 25.4922H336.195V33.9062C336.195 34.1927 336.24 34.4089 336.328 34.5547C336.417 34.7005 336.531 34.7969 336.672 34.8438C336.812 34.8906 336.964 34.9141 337.125 34.9141C337.245 34.9141 337.37 34.9036 337.5 34.8828C337.635 34.8568 337.737 34.8359 337.805 34.8203L337.812 36C337.698 36.0365 337.547 36.0703 337.359 36.1016C337.177 36.138 336.956 36.1562 336.695 36.1562C336.341 36.1562 336.016 36.0859 335.719 35.9453C335.422 35.8047 335.185 35.5703 335.008 35.2422C334.836 34.9089 334.75 34.4609 334.75 33.8984V25.4922ZM341.625 36H340.18V26.6562C340.18 26.0469 340.289 25.5339 340.508 25.1172C340.732 24.6953 341.052 24.3776 341.469 24.1641C341.885 23.9453 342.38 23.8359 342.953 23.8359C343.12 23.8359 343.286 23.8464 343.453 23.8672C343.625 23.888 343.792 23.9193 343.953 23.9609L343.875 25.1406C343.766 25.1146 343.641 25.0964 343.5 25.0859C343.365 25.0755 343.229 25.0703 343.094 25.0703C342.786 25.0703 342.521 25.1328 342.297 25.2578C342.078 25.3776 341.911 25.5547 341.797 25.7891C341.682 26.0234 341.625 26.3125 341.625 26.6562V36ZM343.422 27.5469V28.6562H338.844V27.5469H343.422ZM344.648 31.8672V31.6875C344.648 31.0781 344.737 30.513 344.914 29.9922C345.091 29.4661 345.346 29.0104 345.68 28.625C346.013 28.2344 346.417 27.9323 346.891 27.7188C347.365 27.5 347.896 27.3906 348.484 27.3906C349.078 27.3906 349.612 27.5 350.086 27.7188C350.565 27.9323 350.971 28.2344 351.305 28.625C351.643 29.0104 351.901 29.4661 352.078 29.9922C352.255 30.513 352.344 31.0781 352.344 31.6875V31.8672C352.344 32.4766 352.255 33.0417 352.078 33.5625C351.901 34.0833 351.643 34.5391 351.305 34.9297C350.971 35.3151 350.568 35.6172 350.094 35.8359C349.625 36.0495 349.094 36.1562 348.5 36.1562C347.906 36.1562 347.372 36.0495 346.898 35.8359C346.424 35.6172 346.018 35.3151 345.68 34.9297C345.346 34.5391 345.091 34.0833 344.914 33.5625C344.737 33.0417 344.648 32.4766 344.648 31.8672ZM346.094 31.6875V31.8672C346.094 32.2891 346.143 32.6875 346.242 33.0625C346.341 33.4323 346.49 33.7604 346.688 34.0469C346.891 34.3333 347.143 34.5599 347.445 34.7266C347.747 34.888 348.099 34.9688 348.5 34.9688C348.896 34.9688 349.242 34.888 349.539 34.7266C349.841 34.5599 350.091 34.3333 350.289 34.0469C350.487 33.7604 350.635 33.4323 350.734 33.0625C350.839 32.6875 350.891 32.2891 350.891 31.8672V31.6875C350.891 31.2708 350.839 30.8776 350.734 30.5078C350.635 30.1328 350.484 29.8021 350.281 29.5156C350.083 29.224 349.833 28.9948 349.531 28.8281C349.234 28.6615 348.885 28.5781 348.484 28.5781C348.089 28.5781 347.74 28.6615 347.438 28.8281C347.141 28.9948 346.891 29.224 346.688 29.5156C346.49 29.8021 346.341 30.1328 346.242 30.5078C346.143 30.8776 346.094 31.2708 346.094 31.6875ZM355.602 28.875V36H354.156V27.5469H355.562L355.602 28.875ZM358.242 27.5L358.234 28.8438C358.115 28.8177 358 28.8021 357.891 28.7969C357.786 28.7865 357.667 28.7812 357.531 28.7812C357.198 28.7812 356.904 28.8333 356.648 28.9375C356.393 29.0417 356.177 29.1875 356 29.375C355.823 29.5625 355.682 29.7865 355.578 30.0469C355.479 30.3021 355.414 30.5833 355.383 30.8906L354.977 31.125C354.977 30.6146 355.026 30.1354 355.125 29.6875C355.229 29.2396 355.388 28.8438 355.602 28.5C355.815 28.151 356.086 27.8802 356.414 27.6875C356.747 27.4896 357.143 27.3906 357.602 27.3906C357.706 27.3906 357.826 27.4036 357.961 27.4297C358.096 27.4505 358.19 27.474 358.242 27.5ZM361.016 29.2266V36H359.562V27.5469H360.938L361.016 29.2266ZM360.719 31.4531L360.047 31.4297C360.052 30.8516 360.128 30.3177 360.273 29.8281C360.419 29.3333 360.635 28.9036 360.922 28.5391C361.208 28.1745 361.565 27.8932 361.992 27.6953C362.419 27.4922 362.914 27.3906 363.477 27.3906C363.872 27.3906 364.237 27.4479 364.57 27.5625C364.904 27.6719 365.193 27.8464 365.438 28.0859C365.682 28.3255 365.872 28.6328 366.008 29.0078C366.143 29.3828 366.211 29.8359 366.211 30.3672V36H364.766V30.4375C364.766 29.9948 364.69 29.6406 364.539 29.375C364.393 29.1094 364.185 28.9167 363.914 28.7969C363.643 28.6719 363.326 28.6094 362.961 28.6094C362.534 28.6094 362.177 28.6849 361.891 28.8359C361.604 28.987 361.375 29.1953 361.203 29.4609C361.031 29.7266 360.906 30.0312 360.828 30.375C360.755 30.7135 360.719 31.0729 360.719 31.4531ZM366.195 30.6562L365.227 30.9531C365.232 30.4896 365.307 30.0443 365.453 29.6172C365.604 29.1901 365.82 28.8099 366.102 28.4766C366.388 28.1432 366.74 27.8802 367.156 27.6875C367.573 27.4896 368.049 27.3906 368.586 27.3906C369.039 27.3906 369.44 27.4505 369.789 27.5703C370.143 27.6901 370.44 27.875 370.68 28.125C370.924 28.3698 371.109 28.6849 371.234 29.0703C371.359 29.4557 371.422 29.9141 371.422 30.4453V36H369.969V30.4297C369.969 29.9557 369.893 29.5885 369.742 29.3281C369.596 29.0625 369.388 28.8776 369.117 28.7734C368.852 28.6641 368.534 28.6094 368.164 28.6094C367.846 28.6094 367.565 28.6641 367.32 28.7734C367.076 28.8828 366.87 29.0339 366.703 29.2266C366.536 29.4141 366.409 29.6302 366.32 29.875C366.237 30.1198 366.195 30.3802 366.195 30.6562ZM378.531 33.7578C378.531 33.5495 378.484 33.3568 378.391 33.1797C378.302 32.9974 378.117 32.8333 377.836 32.6875C377.56 32.5365 377.143 32.4062 376.586 32.2969C376.117 32.1979 375.693 32.0807 375.312 31.9453C374.938 31.8099 374.617 31.6458 374.352 31.4531C374.091 31.2604 373.891 31.0339 373.75 30.7734C373.609 30.513 373.539 30.2083 373.539 29.8594C373.539 29.526 373.612 29.2109 373.758 28.9141C373.909 28.6172 374.12 28.3542 374.391 28.125C374.667 27.8958 374.997 27.7161 375.383 27.5859C375.768 27.4557 376.198 27.3906 376.672 27.3906C377.349 27.3906 377.927 27.5104 378.406 27.75C378.885 27.9896 379.253 28.3099 379.508 28.7109C379.763 29.1068 379.891 29.5469 379.891 30.0312H378.445C378.445 29.7969 378.375 29.5703 378.234 29.3516C378.099 29.1276 377.898 28.9427 377.633 28.7969C377.372 28.651 377.052 28.5781 376.672 28.5781C376.271 28.5781 375.945 28.6406 375.695 28.7656C375.451 28.8854 375.271 29.0391 375.156 29.2266C375.047 29.4141 374.992 29.612 374.992 29.8203C374.992 29.9766 375.018 30.1172 375.07 30.2422C375.128 30.362 375.227 30.474 375.367 30.5781C375.508 30.6771 375.706 30.7708 375.961 30.8594C376.216 30.9479 376.542 31.0365 376.938 31.125C377.63 31.2812 378.201 31.4688 378.648 31.6875C379.096 31.9062 379.43 32.1745 379.648 32.4922C379.867 32.8099 379.977 33.1953 379.977 33.6484C379.977 34.0182 379.898 34.3568 379.742 34.6641C379.591 34.9714 379.37 35.237 379.078 35.4609C378.792 35.6797 378.448 35.8516 378.047 35.9766C377.651 36.0964 377.206 36.1562 376.711 36.1562C375.966 36.1562 375.336 36.0234 374.82 35.7578C374.305 35.4922 373.914 35.1484 373.648 34.7266C373.383 34.3047 373.25 33.8594 373.25 33.3906H374.703C374.724 33.7865 374.839 34.1016 375.047 34.3359C375.255 34.5651 375.51 34.7292 375.812 34.8281C376.115 34.9219 376.414 34.9688 376.711 34.9688C377.107 34.9688 377.438 34.9167 377.703 34.8125C377.974 34.7083 378.18 34.5651 378.32 34.3828C378.461 34.2005 378.531 33.9922 378.531 33.7578Z" fill="#2D3139"/>
</g>
<defs>
<filter id="filter0_di_7916_14654" x="0" y="0" width="472" height="66" filterUnits="userSpaceOnUse" color-interpolation-filters="sRGB">
<feFlood flood-opacity="0" result="BackgroundImageFix"/>
<feColorMatrix in="SourceAlpha" type="matrix" values="0 0 0 0 0 0 0 0 0 0 0 0 0 0 0 0 0 0 127 0" result="hardAlpha"/>
<feOffset dy="1"/>
<feGaussianBlur stdDeviation="1.5"/>
<feComposite in2="hardAlpha" operator="out"/>
<feColorMatrix type="matrix" values="0 0 0 0 0.121569 0 0 0 0 0.133333 0 0 0 0 0.160784 0 0 0 0.08 0"/>
<feBlend mode="normal" in2="BackgroundImageFix" result="effect1_dropShadow_7916_14654"/>
<feBlend mode="normal" in="SourceGraphic" in2="effect1_dropShadow_7916_14654" result="shape"/>
<feColorMatrix in="SourceAlpha" type="matrix" values="0 0 0 0 0 0 0 0 0 0 0 0 0 0 0 0 0 0 127 0" result="hardAlpha"/>
<feMorphology radius="1" operator="erode" in="SourceAlpha" result="effect2_innerShadow_7916_14654"/>
<feOffset/>
<feComposite in2="hardAlpha" operator="arithmetic" k2="-1" k3="1"/>
<feColorMatrix type="matrix" values="0 0 0 0 0.882353 0 0 0 0 0.898039 0 0 0 0 0.921569 0 0 0 1 0"/>
<feBlend mode="normal" in2="shape" result="effect2_innerShadow_7916_14654"/>
</filter>
</defs>
</svg>
