<svg width="472" height="66" viewBox="0 0 472 66" fill="none" xmlns="http://www.w3.org/2000/svg">
<g filter="url(#filter0_di_7916_14668)">
<rect x="3" y="2" width="466" height="60" rx="4" fill="white"/>
<path d="M29.8881 38.5004C30.0564 38.025 30.3678 37.6134 30.7796 37.3224C31.1914 37.0313 31.6832 36.875 32.1875 36.875C32.6918 36.875 33.1836 37.0313 33.5954 37.3224C34.0072 37.6134 34.3186 38.025 34.4869 38.5004H42.75V40.1254H34.4869C34.3186 40.6007 34.0072 41.0123 33.5954 41.3034C33.1836 41.5944 32.6918 41.7507 32.1875 41.7507C31.6832 41.7507 31.1914 41.5944 30.7796 41.3034C30.3678 41.0123 30.0564 40.6007 29.8881 40.1254H23.25V38.5004H29.8881ZM34.7631 31.1879C34.9314 30.7125 35.2428 30.3009 35.6546 30.0099C36.0664 29.7188 36.5582 29.5625 37.0625 29.5625C37.5668 29.5625 38.0586 29.7188 38.4704 30.0099C38.8822 30.3009 39.1936 30.7125 39.3619 31.1879H42.75V32.8129H39.3619C39.1936 33.2882 38.8822 33.6998 38.4704 33.9909C38.0586 34.2819 37.5668 34.4382 37.0625 34.4382C36.5582 34.4382 36.0664 34.2819 35.6546 33.9909C35.2428 33.6998 34.9314 33.2882 34.7631 32.8129H23.25V31.1879H34.7631ZM26.6381 23.8754C26.8064 23.4 27.1178 22.9884 27.5296 22.6974C27.9414 22.4063 28.4332 22.25 28.9375 22.25C29.4418 22.25 29.9336 22.4063 30.3454 22.6974C30.7572 22.9884 31.0686 23.4 31.2369 23.8754H42.75V25.5004H31.2369C31.0686 25.9757 30.7572 26.3873 30.3454 26.6784C29.9336 26.9694 29.4418 27.1257 28.9375 27.1257C28.4332 27.1257 27.9414 26.9694 27.5296 26.6784C27.1178 26.3873 26.8064 25.9757 26.6381 25.5004H23.25V23.8754H26.6381Z" fill="#282828"/>
<path d="M72.8281 32.6797H69.9453L69.9297 31.4688H72.5469C72.9792 31.4688 73.3568 31.3958 73.6797 31.25C74.0026 31.1042 74.2526 30.8958 74.4297 30.625C74.612 30.349 74.7031 30.0208 74.7031 29.6406C74.7031 29.224 74.6224 28.8854 74.4609 28.625C74.3047 28.3594 74.0625 28.1667 73.7344 28.0469C73.4115 27.9219 73 27.8594 72.5 27.8594H70.2812V38H68.7734V26.625H72.5C73.0833 26.625 73.6042 26.6849 74.0625 26.8047C74.5208 26.9193 74.9089 27.1016 75.2266 27.3516C75.5495 27.5964 75.7943 27.9089 75.9609 28.2891C76.1276 28.6693 76.2109 29.125 76.2109 29.6562C76.2109 30.125 76.0911 30.5495 75.8516 30.9297C75.612 31.3047 75.2786 31.612 74.8516 31.8516C74.4297 32.0911 73.9349 32.2448 73.3672 32.3125L72.8281 32.6797ZM72.7578 38H69.3516L70.2031 36.7734H72.7578C73.237 36.7734 73.6432 36.6901 73.9766 36.5234C74.3151 36.3568 74.5729 36.1224 74.75 35.8203C74.9271 35.513 75.0156 35.151 75.0156 34.7344C75.0156 34.3125 74.9401 33.9479 74.7891 33.6406C74.638 33.3333 74.401 33.0964 74.0781 32.9297C73.7552 32.763 73.3385 32.6797 72.8281 32.6797H70.6797L70.6953 31.4688H73.6328L73.9531 31.9062C74.5 31.9531 74.9635 32.1094 75.3438 32.375C75.724 32.6354 76.013 32.9688 76.2109 33.375C76.4141 33.7812 76.5156 34.2292 76.5156 34.7188C76.5156 35.4271 76.3594 36.026 76.0469 36.5156C75.7396 37 75.3047 37.3698 74.7422 37.625C74.1797 37.875 73.5182 38 72.7578 38ZM83.6953 36.0469V29.5469H85.1484V38H83.7656L83.6953 36.0469ZM83.9688 34.2656L84.5703 34.25C84.5703 34.8125 84.5104 35.3333 84.3906 35.8125C84.276 36.2865 84.0885 36.6979 83.8281 37.0469C83.5677 37.3958 83.2266 37.6693 82.8047 37.8672C82.3828 38.0599 81.8698 38.1562 81.2656 38.1562C80.8542 38.1562 80.4766 38.0964 80.1328 37.9766C79.7943 37.8568 79.5026 37.6719 79.2578 37.4219C79.013 37.1719 78.8229 36.8464 78.6875 36.4453C78.5573 36.0443 78.4922 35.5625 78.4922 35V29.5469H79.9375V35.0156C79.9375 35.3958 79.9792 35.7109 80.0625 35.9609C80.151 36.2057 80.2682 36.401 80.4141 36.5469C80.5651 36.6875 80.7318 36.7865 80.9141 36.8438C81.1016 36.901 81.2943 36.9297 81.4922 36.9297C82.1068 36.9297 82.5938 36.8125 82.9531 36.5781C83.3125 36.3385 83.5703 36.0182 83.7266 35.6172C83.888 35.2109 83.9688 34.7604 83.9688 34.2656ZM88.9219 29.5469V38H87.4688V29.5469H88.9219ZM87.3594 27.3047C87.3594 27.0703 87.4297 26.8724 87.5703 26.7109C87.7161 26.5495 87.9297 26.4688 88.2109 26.4688C88.487 26.4688 88.6979 26.5495 88.8438 26.7109C88.9948 26.8724 89.0703 27.0703 89.0703 27.3047C89.0703 27.5286 88.9948 27.7214 88.8438 27.8828C88.6979 28.0391 88.487 28.1172 88.2109 28.1172C87.9297 28.1172 87.7161 28.0391 87.5703 27.8828C87.4297 27.7214 87.3594 27.5286 87.3594 27.3047ZM92.8125 26V38H91.3594V26H92.8125ZM100.461 36.3594V26H101.914V38H100.586L100.461 36.3594ZM94.7734 33.8672V33.7031C94.7734 33.0573 94.8516 32.4714 95.0078 31.9453C95.1693 31.4141 95.3958 30.9583 95.6875 30.5781C95.9844 30.1979 96.3359 29.9062 96.7422 29.7031C97.1536 29.4948 97.612 29.3906 98.1172 29.3906C98.6484 29.3906 99.112 29.4844 99.5078 29.6719C99.9089 29.8542 100.247 30.1224 100.523 30.4766C100.805 30.8255 101.026 31.2474 101.188 31.7422C101.349 32.237 101.461 32.7969 101.523 33.4219V34.1406C101.466 34.7604 101.354 35.3177 101.188 35.8125C101.026 36.3073 100.805 36.7292 100.523 37.0781C100.247 37.4271 99.9089 37.6953 99.5078 37.8828C99.1068 38.0651 98.638 38.1562 98.1016 38.1562C97.6068 38.1562 97.1536 38.0495 96.7422 37.8359C96.3359 37.6224 95.9844 37.3229 95.6875 36.9375C95.3958 36.5521 95.1693 36.099 95.0078 35.5781C94.8516 35.0521 94.7734 34.4818 94.7734 33.8672ZM96.2266 33.7031V33.8672C96.2266 34.2891 96.2682 34.6849 96.3516 35.0547C96.4401 35.4245 96.5755 35.75 96.7578 36.0312C96.9401 36.3125 97.1719 36.5339 97.4531 36.6953C97.7344 36.8516 98.0703 36.9297 98.4609 36.9297C98.9401 36.9297 99.3333 36.8281 99.6406 36.625C99.9531 36.4219 100.203 36.1536 100.391 35.8203C100.578 35.487 100.724 35.125 100.828 34.7344V32.8516C100.766 32.5651 100.674 32.2891 100.555 32.0234C100.44 31.7526 100.289 31.513 100.102 31.3047C99.9193 31.0911 99.6927 30.9219 99.4219 30.7969C99.1562 30.6719 98.8411 30.6094 98.4766 30.6094C98.0807 30.6094 97.7396 30.6927 97.4531 30.8594C97.1719 31.0208 96.9401 31.2448 96.7578 31.5312C96.5755 31.8125 96.4401 32.1406 96.3516 32.5156C96.2682 32.8854 96.2266 33.2812 96.2266 33.7031ZM109.703 29.5469V38H108.25V29.5469H109.703ZM108.141 27.3047C108.141 27.0703 108.211 26.8724 108.352 26.7109C108.497 26.5495 108.711 26.4688 108.992 26.4688C109.268 26.4688 109.479 26.5495 109.625 26.7109C109.776 26.8724 109.852 27.0703 109.852 27.3047C109.852 27.5286 109.776 27.7214 109.625 27.8828C109.479 28.0391 109.268 28.1172 108.992 28.1172C108.711 28.1172 108.497 28.0391 108.352 27.8828C108.211 27.7214 108.141 27.5286 108.141 27.3047ZM113.469 31.3516V38H112.023V29.5469H113.391L113.469 31.3516ZM113.125 33.4531L112.523 33.4297C112.529 32.8516 112.615 32.3177 112.781 31.8281C112.948 31.3333 113.182 30.9036 113.484 30.5391C113.786 30.1745 114.146 29.8932 114.562 29.6953C114.984 29.4922 115.451 29.3906 115.961 29.3906C116.378 29.3906 116.753 29.4479 117.086 29.5625C117.419 29.6719 117.703 29.849 117.938 30.0938C118.177 30.3385 118.359 30.6562 118.484 31.0469C118.609 31.4323 118.672 31.9036 118.672 32.4609V38H117.219V32.4453C117.219 32.0026 117.154 31.6484 117.023 31.3828C116.893 31.112 116.703 30.9167 116.453 30.7969C116.203 30.6719 115.896 30.6094 115.531 30.6094C115.172 30.6094 114.844 30.6849 114.547 30.8359C114.255 30.987 114.003 31.1953 113.789 31.4609C113.581 31.7266 113.417 32.0312 113.297 32.375C113.182 32.7135 113.125 33.0729 113.125 33.4531ZM124.406 29.5469V30.6562H119.836V29.5469H124.406ZM121.383 27.4922H122.828V35.9062C122.828 36.1927 122.872 36.4089 122.961 36.5547C123.049 36.7005 123.164 36.7969 123.305 36.8438C123.445 36.8906 123.596 36.9141 123.758 36.9141C123.878 36.9141 124.003 36.9036 124.133 36.8828C124.268 36.8568 124.37 36.8359 124.438 36.8203L124.445 38C124.331 38.0365 124.18 38.0703 123.992 38.1016C123.81 38.138 123.589 38.1562 123.328 38.1562C122.974 38.1562 122.648 38.0859 122.352 37.9453C122.055 37.8047 121.818 37.5703 121.641 37.2422C121.469 36.9089 121.383 36.4609 121.383 35.8984V27.4922ZM129.609 38.1562C129.021 38.1562 128.487 38.0573 128.008 37.8594C127.534 37.6562 127.125 37.3724 126.781 37.0078C126.443 36.6432 126.182 36.2109 126 35.7109C125.818 35.2109 125.727 34.6641 125.727 34.0703V33.7422C125.727 33.0547 125.828 32.4427 126.031 31.9062C126.234 31.3646 126.51 30.9062 126.859 30.5312C127.208 30.1562 127.604 29.8724 128.047 29.6797C128.49 29.487 128.948 29.3906 129.422 29.3906C130.026 29.3906 130.547 29.4948 130.984 29.7031C131.427 29.9115 131.789 30.2031 132.07 30.5781C132.352 30.9479 132.56 31.3854 132.695 31.8906C132.831 32.3906 132.898 32.9375 132.898 33.5312V34.1797H126.586V33H131.453V32.8906C131.432 32.5156 131.354 32.151 131.219 31.7969C131.089 31.4427 130.88 31.151 130.594 30.9219C130.307 30.6927 129.917 30.5781 129.422 30.5781C129.094 30.5781 128.792 30.6484 128.516 30.7891C128.24 30.9245 128.003 31.1276 127.805 31.3984C127.607 31.6693 127.453 32 127.344 32.3906C127.234 32.7812 127.18 33.2318 127.18 33.7422V34.0703C127.18 34.4714 127.234 34.849 127.344 35.2031C127.458 35.5521 127.622 35.8594 127.836 36.125C128.055 36.3906 128.318 36.599 128.625 36.75C128.938 36.901 129.292 36.9766 129.688 36.9766C130.198 36.9766 130.63 36.8724 130.984 36.6641C131.339 36.4557 131.648 36.1771 131.914 35.8281L132.789 36.5234C132.607 36.7995 132.375 37.0625 132.094 37.3125C131.812 37.5625 131.466 37.7656 131.055 37.9219C130.648 38.0781 130.167 38.1562 129.609 38.1562ZM136.156 26V38H134.703V26H136.156ZM140.047 26V38H138.594V26H140.047ZM143.938 29.5469V38H142.484V29.5469H143.938ZM142.375 27.3047C142.375 27.0703 142.445 26.8724 142.586 26.7109C142.732 26.5495 142.945 26.4688 143.227 26.4688C143.503 26.4688 143.714 26.5495 143.859 26.7109C144.01 26.8724 144.086 27.0703 144.086 27.3047C144.086 27.5286 144.01 27.7214 143.859 27.8828C143.714 28.0391 143.503 28.1172 143.227 28.1172C142.945 28.1172 142.732 28.0391 142.586 27.8828C142.445 27.7214 142.375 27.5286 142.375 27.3047ZM151.734 29.5469H153.047V37.8203C153.047 38.5651 152.896 39.2005 152.594 39.7266C152.292 40.2526 151.87 40.651 151.328 40.9219C150.792 41.1979 150.172 41.3359 149.469 41.3359C149.177 41.3359 148.833 41.2891 148.438 41.1953C148.047 41.1068 147.661 40.9531 147.281 40.7344C146.906 40.5208 146.591 40.2318 146.336 39.8672L147.094 39.0078C147.448 39.4349 147.818 39.7318 148.203 39.8984C148.594 40.0651 148.979 40.1484 149.359 40.1484C149.818 40.1484 150.214 40.0625 150.547 39.8906C150.88 39.7188 151.138 39.4635 151.32 39.125C151.508 38.7917 151.602 38.3802 151.602 37.8906V31.4062L151.734 29.5469ZM145.914 33.8672V33.7031C145.914 33.0573 145.99 32.4714 146.141 31.9453C146.297 31.4141 146.518 30.9583 146.805 30.5781C147.096 30.1979 147.448 29.9062 147.859 29.7031C148.271 29.4948 148.734 29.3906 149.25 29.3906C149.781 29.3906 150.245 29.4844 150.641 29.6719C151.042 29.8542 151.38 30.1224 151.656 30.4766C151.938 30.8255 152.159 31.2474 152.32 31.7422C152.482 32.237 152.594 32.7969 152.656 33.4219V34.1406C152.599 34.7604 152.487 35.3177 152.32 35.8125C152.159 36.3073 151.938 36.7292 151.656 37.0781C151.38 37.4271 151.042 37.6953 150.641 37.8828C150.24 38.0651 149.771 38.1562 149.234 38.1562C148.729 38.1562 148.271 38.0495 147.859 37.8359C147.453 37.6224 147.104 37.3229 146.812 36.9375C146.521 36.5521 146.297 36.099 146.141 35.5781C145.99 35.0521 145.914 34.4818 145.914 33.8672ZM147.359 33.7031V33.8672C147.359 34.2891 147.401 34.6849 147.484 35.0547C147.573 35.4245 147.706 35.75 147.883 36.0312C148.065 36.3125 148.297 36.5339 148.578 36.6953C148.859 36.8516 149.195 36.9297 149.586 36.9297C150.065 36.9297 150.461 36.8281 150.773 36.625C151.086 36.4219 151.333 36.1536 151.516 35.8203C151.703 35.487 151.849 35.125 151.953 34.7344V32.8516C151.896 32.5651 151.807 32.2891 151.688 32.0234C151.573 31.7526 151.422 31.513 151.234 31.3047C151.052 31.0911 150.826 30.9219 150.555 30.7969C150.284 30.6719 149.966 30.6094 149.602 30.6094C149.206 30.6094 148.865 30.6927 148.578 30.8594C148.297 31.0208 148.065 31.2448 147.883 31.5312C147.706 31.8125 147.573 32.1406 147.484 32.5156C147.401 32.8854 147.359 33.2812 147.359 33.7031ZM158.75 38.1562C158.161 38.1562 157.628 38.0573 157.148 37.8594C156.674 37.6562 156.266 37.3724 155.922 37.0078C155.583 36.6432 155.323 36.2109 155.141 35.7109C154.958 35.2109 154.867 34.6641 154.867 34.0703V33.7422C154.867 33.0547 154.969 32.4427 155.172 31.9062C155.375 31.3646 155.651 30.9062 156 30.5312C156.349 30.1562 156.745 29.8724 157.188 29.6797C157.63 29.487 158.089 29.3906 158.562 29.3906C159.167 29.3906 159.688 29.4948 160.125 29.7031C160.568 29.9115 160.93 30.2031 161.211 30.5781C161.492 30.9479 161.701 31.3854 161.836 31.8906C161.971 32.3906 162.039 32.9375 162.039 33.5312V34.1797H155.727V33H160.594V32.8906C160.573 32.5156 160.495 32.151 160.359 31.7969C160.229 31.4427 160.021 31.151 159.734 30.9219C159.448 30.6927 159.057 30.5781 158.562 30.5781C158.234 30.5781 157.932 30.6484 157.656 30.7891C157.38 30.9245 157.143 31.1276 156.945 31.3984C156.747 31.6693 156.594 32 156.484 32.3906C156.375 32.7812 156.32 33.2318 156.32 33.7422V34.0703C156.32 34.4714 156.375 34.849 156.484 35.2031C156.599 35.5521 156.763 35.8594 156.977 36.125C157.195 36.3906 157.458 36.599 157.766 36.75C158.078 36.901 158.432 36.9766 158.828 36.9766C159.339 36.9766 159.771 36.8724 160.125 36.6641C160.479 36.4557 160.789 36.1771 161.055 35.8281L161.93 36.5234C161.747 36.7995 161.516 37.0625 161.234 37.3125C160.953 37.5625 160.607 37.7656 160.195 37.9219C159.789 38.0781 159.307 38.1562 158.75 38.1562ZM165.172 31.3516V38H163.727V29.5469H165.094L165.172 31.3516ZM164.828 33.4531L164.227 33.4297C164.232 32.8516 164.318 32.3177 164.484 31.8281C164.651 31.3333 164.885 30.9036 165.188 30.5391C165.49 30.1745 165.849 29.8932 166.266 29.6953C166.688 29.4922 167.154 29.3906 167.664 29.3906C168.081 29.3906 168.456 29.4479 168.789 29.5625C169.122 29.6719 169.406 29.849 169.641 30.0938C169.88 30.3385 170.062 30.6562 170.188 31.0469C170.312 31.4323 170.375 31.9036 170.375 32.4609V38H168.922V32.4453C168.922 32.0026 168.857 31.6484 168.727 31.3828C168.596 31.112 168.406 30.9167 168.156 30.7969C167.906 30.6719 167.599 30.6094 167.234 30.6094C166.875 30.6094 166.547 30.6849 166.25 30.8359C165.958 30.987 165.706 31.1953 165.492 31.4609C165.284 31.7266 165.12 32.0312 165 32.375C164.885 32.7135 164.828 33.0729 164.828 33.4531ZM175.953 36.9688C176.297 36.9688 176.615 36.8984 176.906 36.7578C177.198 36.6172 177.438 36.4245 177.625 36.1797C177.812 35.9297 177.919 35.6458 177.945 35.3281H179.32C179.294 35.8281 179.125 36.2943 178.812 36.7266C178.505 37.1536 178.102 37.5 177.602 37.7656C177.102 38.026 176.552 38.1562 175.953 38.1562C175.318 38.1562 174.763 38.0443 174.289 37.8203C173.82 37.5964 173.43 37.2891 173.117 36.8984C172.81 36.5078 172.578 36.0599 172.422 35.5547C172.271 35.0443 172.195 34.5052 172.195 33.9375V33.6094C172.195 33.0417 172.271 32.5052 172.422 32C172.578 31.4896 172.81 31.0391 173.117 30.6484C173.43 30.2578 173.82 29.9505 174.289 29.7266C174.763 29.5026 175.318 29.3906 175.953 29.3906C176.615 29.3906 177.193 29.526 177.688 29.7969C178.182 30.0625 178.57 30.4271 178.852 30.8906C179.138 31.349 179.294 31.8698 179.32 32.4531H177.945C177.919 32.1042 177.82 31.7891 177.648 31.5078C177.482 31.2266 177.253 31.0026 176.961 30.8359C176.674 30.6641 176.339 30.5781 175.953 30.5781C175.51 30.5781 175.138 30.6667 174.836 30.8438C174.539 31.0156 174.302 31.25 174.125 31.5469C173.953 31.8385 173.828 32.1641 173.75 32.5234C173.677 32.8776 173.641 33.2396 173.641 33.6094V33.9375C173.641 34.3073 173.677 34.6719 173.75 35.0312C173.823 35.3906 173.945 35.7161 174.117 36.0078C174.294 36.2995 174.531 36.5339 174.828 36.7109C175.13 36.8828 175.505 36.9688 175.953 36.9688ZM184.453 38.1562C183.865 38.1562 183.331 38.0573 182.852 37.8594C182.378 37.6562 181.969 37.3724 181.625 37.0078C181.286 36.6432 181.026 36.2109 180.844 35.7109C180.661 35.2109 180.57 34.6641 180.57 34.0703V33.7422C180.57 33.0547 180.672 32.4427 180.875 31.9062C181.078 31.3646 181.354 30.9062 181.703 30.5312C182.052 30.1562 182.448 29.8724 182.891 29.6797C183.333 29.487 183.792 29.3906 184.266 29.3906C184.87 29.3906 185.391 29.4948 185.828 29.7031C186.271 29.9115 186.633 30.2031 186.914 30.5781C187.195 30.9479 187.404 31.3854 187.539 31.8906C187.674 32.3906 187.742 32.9375 187.742 33.5312V34.1797H181.43V33H186.297V32.8906C186.276 32.5156 186.198 32.151 186.062 31.7969C185.932 31.4427 185.724 31.151 185.438 30.9219C185.151 30.6927 184.76 30.5781 184.266 30.5781C183.938 30.5781 183.635 30.6484 183.359 30.7891C183.083 30.9245 182.846 31.1276 182.648 31.3984C182.451 31.6693 182.297 32 182.188 32.3906C182.078 32.7812 182.023 33.2318 182.023 33.7422V34.0703C182.023 34.4714 182.078 34.849 182.188 35.2031C182.302 35.5521 182.466 35.8594 182.68 36.125C182.898 36.3906 183.161 36.599 183.469 36.75C183.781 36.901 184.135 36.9766 184.531 36.9766C185.042 36.9766 185.474 36.8724 185.828 36.6641C186.182 36.4557 186.492 36.1771 186.758 35.8281L187.633 36.5234C187.451 36.7995 187.219 37.0625 186.938 37.3125C186.656 37.5625 186.31 37.7656 185.898 37.9219C185.492 38.0781 185.01 38.1562 184.453 38.1562ZM194.969 29.5469V38H193.516V29.5469H194.969ZM193.406 27.3047C193.406 27.0703 193.477 26.8724 193.617 26.7109C193.763 26.5495 193.977 26.4688 194.258 26.4688C194.534 26.4688 194.745 26.5495 194.891 26.7109C195.042 26.8724 195.117 27.0703 195.117 27.3047C195.117 27.5286 195.042 27.7214 194.891 27.8828C194.745 28.0391 194.534 28.1172 194.258 28.1172C193.977 28.1172 193.763 28.0391 193.617 27.8828C193.477 27.7214 193.406 27.5286 193.406 27.3047ZM198.734 31.3516V38H197.289V29.5469H198.656L198.734 31.3516ZM198.391 33.4531L197.789 33.4297C197.794 32.8516 197.88 32.3177 198.047 31.8281C198.214 31.3333 198.448 30.9036 198.75 30.5391C199.052 30.1745 199.411 29.8932 199.828 29.6953C200.25 29.4922 200.716 29.3906 201.227 29.3906C201.643 29.3906 202.018 29.4479 202.352 29.5625C202.685 29.6719 202.969 29.849 203.203 30.0938C203.443 30.3385 203.625 30.6562 203.75 31.0469C203.875 31.4323 203.938 31.9036 203.938 32.4609V38H202.484V32.4453C202.484 32.0026 202.419 31.6484 202.289 31.3828C202.159 31.112 201.969 30.9167 201.719 30.7969C201.469 30.6719 201.161 30.6094 200.797 30.6094C200.438 30.6094 200.109 30.6849 199.812 30.8359C199.521 30.987 199.268 31.1953 199.055 31.4609C198.846 31.7266 198.682 32.0312 198.562 32.375C198.448 32.7135 198.391 33.0729 198.391 33.4531ZM209.672 29.5469V30.6562H205.102V29.5469H209.672ZM206.648 27.4922H208.094V35.9062C208.094 36.1927 208.138 36.4089 208.227 36.5547C208.315 36.7005 208.43 36.7969 208.57 36.8438C208.711 36.8906 208.862 36.9141 209.023 36.9141C209.143 36.9141 209.268 36.9036 209.398 36.8828C209.534 36.8568 209.635 36.8359 209.703 36.8203L209.711 38C209.596 38.0365 209.445 38.0703 209.258 38.1016C209.076 38.138 208.854 38.1562 208.594 38.1562C208.24 38.1562 207.914 38.0859 207.617 37.9453C207.32 37.8047 207.083 37.5703 206.906 37.2422C206.734 36.9089 206.648 36.4609 206.648 35.8984V27.4922ZM210.828 33.8672V33.6875C210.828 33.0781 210.917 32.513 211.094 31.9922C211.271 31.4661 211.526 31.0104 211.859 30.625C212.193 30.2344 212.596 29.9323 213.07 29.7188C213.544 29.5 214.076 29.3906 214.664 29.3906C215.258 29.3906 215.792 29.5 216.266 29.7188C216.745 29.9323 217.151 30.2344 217.484 30.625C217.823 31.0104 218.081 31.4661 218.258 31.9922C218.435 32.513 218.523 33.0781 218.523 33.6875V33.8672C218.523 34.4766 218.435 35.0417 218.258 35.5625C218.081 36.0833 217.823 36.5391 217.484 36.9297C217.151 37.3151 216.747 37.6172 216.273 37.8359C215.805 38.0495 215.273 38.1562 214.68 38.1562C214.086 38.1562 213.552 38.0495 213.078 37.8359C212.604 37.6172 212.198 37.3151 211.859 36.9297C211.526 36.5391 211.271 36.0833 211.094 35.5625C210.917 35.0417 210.828 34.4766 210.828 33.8672ZM212.273 33.6875V33.8672C212.273 34.2891 212.323 34.6875 212.422 35.0625C212.521 35.4323 212.669 35.7604 212.867 36.0469C213.07 36.3333 213.323 36.5599 213.625 36.7266C213.927 36.888 214.279 36.9688 214.68 36.9688C215.076 36.9688 215.422 36.888 215.719 36.7266C216.021 36.5599 216.271 36.3333 216.469 36.0469C216.667 35.7604 216.815 35.4323 216.914 35.0625C217.018 34.6875 217.07 34.2891 217.07 33.8672V33.6875C217.07 33.2708 217.018 32.8776 216.914 32.5078C216.815 32.1328 216.664 31.8021 216.461 31.5156C216.263 31.224 216.013 30.9948 215.711 30.8281C215.414 30.6615 215.065 30.5781 214.664 30.5781C214.268 30.5781 213.919 30.6615 213.617 30.8281C213.32 30.9948 213.07 31.224 212.867 31.5156C212.669 31.8021 212.521 32.1328 212.422 32.5078C212.323 32.8776 212.273 33.2708 212.273 33.6875ZM231.031 26.625H232.531V34.3203C232.531 35.1745 232.341 35.8854 231.961 36.4531C231.581 37.0208 231.076 37.4479 230.445 37.7344C229.82 38.0156 229.141 38.1562 228.406 38.1562C227.635 38.1562 226.938 38.0156 226.312 37.7344C225.693 37.4479 225.201 37.0208 224.836 36.4531C224.477 35.8854 224.297 35.1745 224.297 34.3203V26.625H225.789V34.3203C225.789 34.9141 225.898 35.4036 226.117 35.7891C226.336 36.1745 226.641 36.4609 227.031 36.6484C227.427 36.8359 227.885 36.9297 228.406 36.9297C228.932 36.9297 229.391 36.8359 229.781 36.6484C230.177 36.4609 230.484 36.1745 230.703 35.7891C230.922 35.4036 231.031 34.9141 231.031 34.3203V26.625ZM235.875 26.625L238.609 30.9844L241.344 26.625H243.102L239.508 32.2578L243.188 38H241.414L238.609 33.5547L235.805 38H234.031L237.711 32.2578L234.117 26.625H235.875ZM246.023 36.2812V37.4453C246.023 37.9193 245.904 38.4193 245.664 38.9453C245.424 39.4766 245.089 39.9193 244.656 40.2734L243.836 39.7031C244.003 39.474 244.143 39.2396 244.258 39C244.372 38.7656 244.458 38.5208 244.516 38.2656C244.578 38.0156 244.609 37.75 244.609 37.4688V36.2812H246.023ZM251.828 26H253.281V36.3594L253.156 38H251.828V26ZM258.992 33.7031V33.8672C258.992 34.4818 258.919 35.0521 258.773 35.5781C258.628 36.099 258.414 36.5521 258.133 36.9375C257.852 37.3229 257.508 37.6224 257.102 37.8359C256.695 38.0495 256.229 38.1562 255.703 38.1562C255.167 38.1562 254.695 38.0651 254.289 37.8828C253.888 37.6953 253.549 37.4271 253.273 37.0781C252.997 36.7292 252.776 36.3073 252.609 35.8125C252.448 35.3177 252.336 34.7604 252.273 34.1406V33.4219C252.336 32.7969 252.448 32.237 252.609 31.7422C252.776 31.2474 252.997 30.8255 253.273 30.4766C253.549 30.1224 253.888 29.8542 254.289 29.6719C254.69 29.4844 255.156 29.3906 255.688 29.3906C256.219 29.3906 256.69 29.4948 257.102 29.7031C257.513 29.9062 257.857 30.1979 258.133 30.5781C258.414 30.9583 258.628 31.4141 258.773 31.9453C258.919 32.4714 258.992 33.0573 258.992 33.7031ZM257.539 33.8672V33.7031C257.539 33.2812 257.5 32.8854 257.422 32.5156C257.344 32.1406 257.219 31.8125 257.047 31.5312C256.875 31.2448 256.648 31.0208 256.367 30.8594C256.086 30.6927 255.74 30.6094 255.328 30.6094C254.964 30.6094 254.646 30.6719 254.375 30.7969C254.109 30.9219 253.883 31.0911 253.695 31.3047C253.508 31.513 253.354 31.7526 253.234 32.0234C253.12 32.2891 253.034 32.5651 252.977 32.8516V34.7344C253.06 35.099 253.195 35.4505 253.383 35.7891C253.576 36.1224 253.831 36.3958 254.148 36.6094C254.471 36.8229 254.87 36.9297 255.344 36.9297C255.734 36.9297 256.068 36.8516 256.344 36.6953C256.625 36.5339 256.852 36.3125 257.023 36.0312C257.201 35.75 257.331 35.4245 257.414 35.0547C257.497 34.6849 257.539 34.2891 257.539 33.8672ZM265.805 36.5547V32.2031C265.805 31.8698 265.737 31.5807 265.602 31.3359C265.471 31.0859 265.273 30.8932 265.008 30.7578C264.742 30.6224 264.414 30.5547 264.023 30.5547C263.659 30.5547 263.339 30.6172 263.062 30.7422C262.792 30.8672 262.578 31.0312 262.422 31.2344C262.271 31.4375 262.195 31.6562 262.195 31.8906H260.75C260.75 31.5885 260.828 31.2891 260.984 30.9922C261.141 30.6953 261.365 30.4271 261.656 30.1875C261.953 29.9427 262.307 29.75 262.719 29.6094C263.135 29.4635 263.599 29.3906 264.109 29.3906C264.724 29.3906 265.266 29.4948 265.734 29.7031C266.208 29.9115 266.578 30.2266 266.844 30.6484C267.115 31.0651 267.25 31.5885 267.25 32.2188V36.1562C267.25 36.4375 267.273 36.737 267.32 37.0547C267.372 37.3724 267.448 37.6458 267.547 37.875V38H266.039C265.966 37.8333 265.909 37.612 265.867 37.3359C265.826 37.0547 265.805 36.7943 265.805 36.5547ZM266.055 32.875L266.07 33.8906H264.609C264.198 33.8906 263.831 33.9245 263.508 33.9922C263.185 34.0547 262.914 34.151 262.695 34.2812C262.477 34.4115 262.31 34.5755 262.195 34.7734C262.081 34.9661 262.023 35.1927 262.023 35.4531C262.023 35.7188 262.083 35.9609 262.203 36.1797C262.323 36.3984 262.503 36.5729 262.742 36.7031C262.987 36.8281 263.286 36.8906 263.641 36.8906C264.083 36.8906 264.474 36.7969 264.812 36.6094C265.151 36.4219 265.419 36.1927 265.617 35.9219C265.82 35.651 265.93 35.388 265.945 35.1328L266.562 35.8281C266.526 36.0469 266.427 36.2891 266.266 36.5547C266.104 36.8203 265.888 37.0755 265.617 37.3203C265.352 37.5599 265.034 37.7604 264.664 37.9219C264.299 38.0781 263.888 38.1562 263.43 38.1562C262.857 38.1562 262.354 38.0443 261.922 37.8203C261.495 37.5964 261.161 37.2969 260.922 36.9219C260.688 36.5417 260.57 36.1172 260.57 35.6484C260.57 35.1953 260.659 34.7969 260.836 34.4531C261.013 34.1042 261.268 33.8151 261.602 33.5859C261.935 33.3516 262.336 33.1745 262.805 33.0547C263.273 32.9349 263.797 32.875 264.375 32.875H266.055ZM272.906 36.9688C273.25 36.9688 273.568 36.8984 273.859 36.7578C274.151 36.6172 274.391 36.4245 274.578 36.1797C274.766 35.9297 274.872 35.6458 274.898 35.3281H276.273C276.247 35.8281 276.078 36.2943 275.766 36.7266C275.458 37.1536 275.055 37.5 274.555 37.7656C274.055 38.026 273.505 38.1562 272.906 38.1562C272.271 38.1562 271.716 38.0443 271.242 37.8203C270.773 37.5964 270.383 37.2891 270.07 36.8984C269.763 36.5078 269.531 36.0599 269.375 35.5547C269.224 35.0443 269.148 34.5052 269.148 33.9375V33.6094C269.148 33.0417 269.224 32.5052 269.375 32C269.531 31.4896 269.763 31.0391 270.07 30.6484C270.383 30.2578 270.773 29.9505 271.242 29.7266C271.716 29.5026 272.271 29.3906 272.906 29.3906C273.568 29.3906 274.146 29.526 274.641 29.7969C275.135 30.0625 275.523 30.4271 275.805 30.8906C276.091 31.349 276.247 31.8698 276.273 32.4531H274.898C274.872 32.1042 274.773 31.7891 274.602 31.5078C274.435 31.2266 274.206 31.0026 273.914 30.8359C273.628 30.6641 273.292 30.5781 272.906 30.5781C272.464 30.5781 272.091 30.6667 271.789 30.8438C271.492 31.0156 271.255 31.25 271.078 31.5469C270.906 31.8385 270.781 32.1641 270.703 32.5234C270.63 32.8776 270.594 33.2396 270.594 33.6094V33.9375C270.594 34.3073 270.63 34.6719 270.703 35.0312C270.776 35.3906 270.898 35.7161 271.07 36.0078C271.247 36.2995 271.484 36.5339 271.781 36.7109C272.083 36.8828 272.458 36.9688 272.906 36.9688ZM279.352 26V38H277.898V26H279.352ZM284.516 29.5469L280.828 33.4922L278.766 35.6328L278.648 34.0938L280.125 32.3281L282.75 29.5469H284.516ZM283.195 38L280.18 33.9688L280.93 32.6797L284.898 38H283.195ZM289.359 38.1562C288.771 38.1562 288.237 38.0573 287.758 37.8594C287.284 37.6562 286.875 37.3724 286.531 37.0078C286.193 36.6432 285.932 36.2109 285.75 35.7109C285.568 35.2109 285.477 34.6641 285.477 34.0703V33.7422C285.477 33.0547 285.578 32.4427 285.781 31.9062C285.984 31.3646 286.26 30.9062 286.609 30.5312C286.958 30.1562 287.354 29.8724 287.797 29.6797C288.24 29.487 288.698 29.3906 289.172 29.3906C289.776 29.3906 290.297 29.4948 290.734 29.7031C291.177 29.9115 291.539 30.2031 291.82 30.5781C292.102 30.9479 292.31 31.3854 292.445 31.8906C292.581 32.3906 292.648 32.9375 292.648 33.5312V34.1797H286.336V33H291.203V32.8906C291.182 32.5156 291.104 32.151 290.969 31.7969C290.839 31.4427 290.63 31.151 290.344 30.9219C290.057 30.6927 289.667 30.5781 289.172 30.5781C288.844 30.5781 288.542 30.6484 288.266 30.7891C287.99 30.9245 287.753 31.1276 287.555 31.3984C287.357 31.6693 287.203 32 287.094 32.3906C286.984 32.7812 286.93 33.2318 286.93 33.7422V34.0703C286.93 34.4714 286.984 34.849 287.094 35.2031C287.208 35.5521 287.372 35.8594 287.586 36.125C287.805 36.3906 288.068 36.599 288.375 36.75C288.688 36.901 289.042 36.9766 289.438 36.9766C289.948 36.9766 290.38 36.8724 290.734 36.6641C291.089 36.4557 291.398 36.1771 291.664 35.8281L292.539 36.5234C292.357 36.7995 292.125 37.0625 291.844 37.3125C291.562 37.5625 291.216 37.7656 290.805 37.9219C290.398 38.0781 289.917 38.1562 289.359 38.1562ZM295.781 31.3516V38H294.336V29.5469H295.703L295.781 31.3516ZM295.438 33.4531L294.836 33.4297C294.841 32.8516 294.927 32.3177 295.094 31.8281C295.26 31.3333 295.495 30.9036 295.797 30.5391C296.099 30.1745 296.458 29.8932 296.875 29.6953C297.297 29.4922 297.763 29.3906 298.273 29.3906C298.69 29.3906 299.065 29.4479 299.398 29.5625C299.732 29.6719 300.016 29.849 300.25 30.0938C300.49 30.3385 300.672 30.6562 300.797 31.0469C300.922 31.4323 300.984 31.9036 300.984 32.4609V38H299.531V32.4453C299.531 32.0026 299.466 31.6484 299.336 31.3828C299.206 31.112 299.016 30.9167 298.766 30.7969C298.516 30.6719 298.208 30.6094 297.844 30.6094C297.484 30.6094 297.156 30.6849 296.859 30.8359C296.568 30.987 296.315 31.1953 296.102 31.4609C295.893 31.7266 295.729 32.0312 295.609 32.375C295.495 32.7135 295.438 33.0729 295.438 33.4531ZM308.508 36.3594V26H309.961V38H308.633L308.508 36.3594ZM302.82 33.8672V33.7031C302.82 33.0573 302.898 32.4714 303.055 31.9453C303.216 31.4141 303.443 30.9583 303.734 30.5781C304.031 30.1979 304.383 29.9062 304.789 29.7031C305.201 29.4948 305.659 29.3906 306.164 29.3906C306.695 29.3906 307.159 29.4844 307.555 29.6719C307.956 29.8542 308.294 30.1224 308.57 30.4766C308.852 30.8255 309.073 31.2474 309.234 31.7422C309.396 32.237 309.508 32.7969 309.57 33.4219V34.1406C309.513 34.7604 309.401 35.3177 309.234 35.8125C309.073 36.3073 308.852 36.7292 308.57 37.0781C308.294 37.4271 307.956 37.6953 307.555 37.8828C307.154 38.0651 306.685 38.1562 306.148 38.1562C305.654 38.1562 305.201 38.0495 304.789 37.8359C304.383 37.6224 304.031 37.3229 303.734 36.9375C303.443 36.5521 303.216 36.099 303.055 35.5781C302.898 35.0521 302.82 34.4818 302.82 33.8672ZM304.273 33.7031V33.8672C304.273 34.2891 304.315 34.6849 304.398 35.0547C304.487 35.4245 304.622 35.75 304.805 36.0312C304.987 36.3125 305.219 36.5339 305.5 36.6953C305.781 36.8516 306.117 36.9297 306.508 36.9297C306.987 36.9297 307.38 36.8281 307.688 36.625C308 36.4219 308.25 36.1536 308.438 35.8203C308.625 35.487 308.771 35.125 308.875 34.7344V32.8516C308.812 32.5651 308.721 32.2891 308.602 32.0234C308.487 31.7526 308.336 31.513 308.148 31.3047C307.966 31.0911 307.74 30.9219 307.469 30.7969C307.203 30.6719 306.888 30.6094 306.523 30.6094C306.128 30.6094 305.786 30.6927 305.5 30.8594C305.219 31.0208 304.987 31.2448 304.805 31.5312C304.622 31.8125 304.487 32.1406 304.398 32.5156C304.315 32.8854 304.273 33.2812 304.273 33.7031ZM313.523 36.2812V37.4453C313.523 37.9193 313.404 38.4193 313.164 38.9453C312.924 39.4766 312.589 39.9193 312.156 40.2734L311.336 39.7031C311.503 39.474 311.643 39.2396 311.758 39C311.872 38.7656 311.958 38.5208 312.016 38.2656C312.078 38.0156 312.109 37.75 312.109 37.4688V36.2812H313.523ZM324.32 36.5547V32.2031C324.32 31.8698 324.253 31.5807 324.117 31.3359C323.987 31.0859 323.789 30.8932 323.523 30.7578C323.258 30.6224 322.93 30.5547 322.539 30.5547C322.174 30.5547 321.854 30.6172 321.578 30.7422C321.307 30.8672 321.094 31.0312 320.938 31.2344C320.786 31.4375 320.711 31.6562 320.711 31.8906H319.266C319.266 31.5885 319.344 31.2891 319.5 30.9922C319.656 30.6953 319.88 30.4271 320.172 30.1875C320.469 29.9427 320.823 29.75 321.234 29.6094C321.651 29.4635 322.115 29.3906 322.625 29.3906C323.24 29.3906 323.781 29.4948 324.25 29.7031C324.724 29.9115 325.094 30.2266 325.359 30.6484C325.63 31.0651 325.766 31.5885 325.766 32.2188V36.1562C325.766 36.4375 325.789 36.737 325.836 37.0547C325.888 37.3724 325.964 37.6458 326.062 37.875V38H324.555C324.482 37.8333 324.424 37.612 324.383 37.3359C324.341 37.0547 324.32 36.7943 324.32 36.5547ZM324.57 32.875L324.586 33.8906H323.125C322.714 33.8906 322.346 33.9245 322.023 33.9922C321.701 34.0547 321.43 34.151 321.211 34.2812C320.992 34.4115 320.826 34.5755 320.711 34.7734C320.596 34.9661 320.539 35.1927 320.539 35.4531C320.539 35.7188 320.599 35.9609 320.719 36.1797C320.839 36.3984 321.018 36.5729 321.258 36.7031C321.503 36.8281 321.802 36.8906 322.156 36.8906C322.599 36.8906 322.99 36.7969 323.328 36.6094C323.667 36.4219 323.935 36.1927 324.133 35.9219C324.336 35.651 324.445 35.388 324.461 35.1328L325.078 35.8281C325.042 36.0469 324.943 36.2891 324.781 36.5547C324.62 36.8203 324.404 37.0755 324.133 37.3203C323.867 37.5599 323.549 37.7604 323.18 37.9219C322.815 38.0781 322.404 38.1562 321.945 38.1562C321.372 38.1562 320.87 38.0443 320.438 37.8203C320.01 37.5964 319.677 37.2969 319.438 36.9219C319.203 36.5417 319.086 36.1172 319.086 35.6484C319.086 35.1953 319.174 34.7969 319.352 34.4531C319.529 34.1042 319.784 33.8151 320.117 33.5859C320.451 33.3516 320.852 33.1745 321.32 33.0547C321.789 32.9349 322.312 32.875 322.891 32.875H324.57ZM329.484 31.3516V38H328.039V29.5469H329.406L329.484 31.3516ZM329.141 33.4531L328.539 33.4297C328.544 32.8516 328.63 32.3177 328.797 31.8281C328.964 31.3333 329.198 30.9036 329.5 30.5391C329.802 30.1745 330.161 29.8932 330.578 29.6953C331 29.4922 331.466 29.3906 331.977 29.3906C332.393 29.3906 332.768 29.4479 333.102 29.5625C333.435 29.6719 333.719 29.849 333.953 30.0938C334.193 30.3385 334.375 30.6562 334.5 31.0469C334.625 31.4323 334.688 31.9036 334.688 32.4609V38H333.234V32.4453C333.234 32.0026 333.169 31.6484 333.039 31.3828C332.909 31.112 332.719 30.9167 332.469 30.7969C332.219 30.6719 331.911 30.6094 331.547 30.6094C331.188 30.6094 330.859 30.6849 330.562 30.8359C330.271 30.987 330.018 31.1953 329.805 31.4609C329.596 31.7266 329.432 32.0312 329.312 32.375C329.198 32.7135 329.141 33.0729 329.141 33.4531ZM342.211 36.3594V26H343.664V38H342.336L342.211 36.3594ZM336.523 33.8672V33.7031C336.523 33.0573 336.602 32.4714 336.758 31.9453C336.919 31.4141 337.146 30.9583 337.438 30.5781C337.734 30.1979 338.086 29.9062 338.492 29.7031C338.904 29.4948 339.362 29.3906 339.867 29.3906C340.398 29.3906 340.862 29.4844 341.258 29.6719C341.659 29.8542 341.997 30.1224 342.273 30.4766C342.555 30.8255 342.776 31.2474 342.938 31.7422C343.099 32.237 343.211 32.7969 343.273 33.4219V34.1406C343.216 34.7604 343.104 35.3177 342.938 35.8125C342.776 36.3073 342.555 36.7292 342.273 37.0781C341.997 37.4271 341.659 37.6953 341.258 37.8828C340.857 38.0651 340.388 38.1562 339.852 38.1562C339.357 38.1562 338.904 38.0495 338.492 37.8359C338.086 37.6224 337.734 37.3229 337.438 36.9375C337.146 36.5521 336.919 36.099 336.758 35.5781C336.602 35.0521 336.523 34.4818 336.523 33.8672ZM337.977 33.7031V33.8672C337.977 34.2891 338.018 34.6849 338.102 35.0547C338.19 35.4245 338.326 35.75 338.508 36.0312C338.69 36.3125 338.922 36.5339 339.203 36.6953C339.484 36.8516 339.82 36.9297 340.211 36.9297C340.69 36.9297 341.083 36.8281 341.391 36.625C341.703 36.4219 341.953 36.1536 342.141 35.8203C342.328 35.487 342.474 35.125 342.578 34.7344V32.8516C342.516 32.5651 342.424 32.2891 342.305 32.0234C342.19 31.7526 342.039 31.513 341.852 31.3047C341.669 31.0911 341.443 30.9219 341.172 30.7969C340.906 30.6719 340.591 30.6094 340.227 30.6094C339.831 30.6094 339.49 30.6927 339.203 30.8594C338.922 31.0208 338.69 31.2448 338.508 31.5312C338.326 31.8125 338.19 32.1406 338.102 32.5156C338.018 32.8854 337.977 33.2812 337.977 33.7031ZM349.5 33.8672V33.6875C349.5 33.0781 349.589 32.513 349.766 31.9922C349.943 31.4661 350.198 31.0104 350.531 30.625C350.865 30.2344 351.268 29.9323 351.742 29.7188C352.216 29.5 352.747 29.3906 353.336 29.3906C353.93 29.3906 354.464 29.5 354.938 29.7188C355.417 29.9323 355.823 30.2344 356.156 30.625C356.495 31.0104 356.753 31.4661 356.93 31.9922C357.107 32.513 357.195 33.0781 357.195 33.6875V33.8672C357.195 34.4766 357.107 35.0417 356.93 35.5625C356.753 36.0833 356.495 36.5391 356.156 36.9297C355.823 37.3151 355.419 37.6172 354.945 37.8359C354.477 38.0495 353.945 38.1562 353.352 38.1562C352.758 38.1562 352.224 38.0495 351.75 37.8359C351.276 37.6172 350.87 37.3151 350.531 36.9297C350.198 36.5391 349.943 36.0833 349.766 35.5625C349.589 35.0417 349.5 34.4766 349.5 33.8672ZM350.945 33.6875V33.8672C350.945 34.2891 350.995 34.6875 351.094 35.0625C351.193 35.4323 351.341 35.7604 351.539 36.0469C351.742 36.3333 351.995 36.5599 352.297 36.7266C352.599 36.888 352.951 36.9688 353.352 36.9688C353.747 36.9688 354.094 36.888 354.391 36.7266C354.693 36.5599 354.943 36.3333 355.141 36.0469C355.339 35.7604 355.487 35.4323 355.586 35.0625C355.69 34.6875 355.742 34.2891 355.742 33.8672V33.6875C355.742 33.2708 355.69 32.8776 355.586 32.5078C355.487 32.1328 355.336 31.8021 355.133 31.5156C354.935 31.224 354.685 30.9948 354.383 30.8281C354.086 30.6615 353.737 30.5781 353.336 30.5781C352.94 30.5781 352.591 30.6615 352.289 30.8281C351.992 30.9948 351.742 31.224 351.539 31.5156C351.341 31.8021 351.193 32.1328 351.094 32.5078C350.995 32.8776 350.945 33.2708 350.945 33.6875ZM360.453 31.1719V41.25H359V29.5469H360.328L360.453 31.1719ZM366.148 33.7031V33.8672C366.148 34.4818 366.076 35.0521 365.93 35.5781C365.784 36.099 365.57 36.5521 365.289 36.9375C365.013 37.3229 364.672 37.6224 364.266 37.8359C363.859 38.0495 363.393 38.1562 362.867 38.1562C362.331 38.1562 361.857 38.0677 361.445 37.8906C361.034 37.7135 360.685 37.4557 360.398 37.1172C360.112 36.7786 359.883 36.3724 359.711 35.8984C359.544 35.4245 359.43 34.8906 359.367 34.2969V33.4219C359.43 32.7969 359.547 32.237 359.719 31.7422C359.891 31.2474 360.117 30.8255 360.398 30.4766C360.685 30.1224 361.031 29.8542 361.438 29.6719C361.844 29.4844 362.312 29.3906 362.844 29.3906C363.375 29.3906 363.846 29.4948 364.258 29.7031C364.669 29.9062 365.016 30.1979 365.297 30.5781C365.578 30.9583 365.789 31.4141 365.93 31.9453C366.076 32.4714 366.148 33.0573 366.148 33.7031ZM364.695 33.8672V33.7031C364.695 33.2812 364.651 32.8854 364.562 32.5156C364.474 32.1406 364.336 31.8125 364.148 31.5312C363.966 31.2448 363.732 31.0208 363.445 30.8594C363.159 30.6927 362.818 30.6094 362.422 30.6094C362.057 30.6094 361.74 30.6719 361.469 30.7969C361.203 30.9219 360.977 31.0911 360.789 31.3047C360.602 31.513 360.448 31.7526 360.328 32.0234C360.214 32.2891 360.128 32.5651 360.07 32.8516V34.875C360.174 35.2396 360.32 35.5833 360.508 35.9062C360.695 36.224 360.945 36.4818 361.258 36.6797C361.57 36.8724 361.964 36.9688 362.438 36.9688C362.828 36.9688 363.164 36.888 363.445 36.7266C363.732 36.5599 363.966 36.3333 364.148 36.0469C364.336 35.7604 364.474 35.4323 364.562 35.0625C364.651 34.6875 364.695 34.2891 364.695 33.8672ZM371.5 38.1562C370.911 38.1562 370.378 38.0573 369.898 37.8594C369.424 37.6562 369.016 37.3724 368.672 37.0078C368.333 36.6432 368.073 36.2109 367.891 35.7109C367.708 35.2109 367.617 34.6641 367.617 34.0703V33.7422C367.617 33.0547 367.719 32.4427 367.922 31.9062C368.125 31.3646 368.401 30.9062 368.75 30.5312C369.099 30.1562 369.495 29.8724 369.938 29.6797C370.38 29.487 370.839 29.3906 371.312 29.3906C371.917 29.3906 372.438 29.4948 372.875 29.7031C373.318 29.9115 373.68 30.2031 373.961 30.5781C374.242 30.9479 374.451 31.3854 374.586 31.8906C374.721 32.3906 374.789 32.9375 374.789 33.5312V34.1797H368.477V33H373.344V32.8906C373.323 32.5156 373.245 32.151 373.109 31.7969C372.979 31.4427 372.771 31.151 372.484 30.9219C372.198 30.6927 371.807 30.5781 371.312 30.5781C370.984 30.5781 370.682 30.6484 370.406 30.7891C370.13 30.9245 369.893 31.1276 369.695 31.3984C369.497 31.6693 369.344 32 369.234 32.3906C369.125 32.7812 369.07 33.2318 369.07 33.7422V34.0703C369.07 34.4714 369.125 34.849 369.234 35.2031C369.349 35.5521 369.513 35.8594 369.727 36.125C369.945 36.3906 370.208 36.599 370.516 36.75C370.828 36.901 371.182 36.9766 371.578 36.9766C372.089 36.9766 372.521 36.8724 372.875 36.6641C373.229 36.4557 373.539 36.1771 373.805 35.8281L374.68 36.5234C374.497 36.7995 374.266 37.0625 373.984 37.3125C373.703 37.5625 373.357 37.7656 372.945 37.9219C372.539 38.0781 372.057 38.1562 371.5 38.1562ZM377.922 30.875V38H376.477V29.5469H377.883L377.922 30.875ZM380.562 29.5L380.555 30.8438C380.435 30.8177 380.32 30.8021 380.211 30.7969C380.107 30.7865 379.987 30.7812 379.852 30.7812C379.518 30.7812 379.224 30.8333 378.969 30.9375C378.714 31.0417 378.497 31.1875 378.32 31.375C378.143 31.5625 378.003 31.7865 377.898 32.0469C377.799 32.3021 377.734 32.5833 377.703 32.8906L377.297 33.125C377.297 32.6146 377.346 32.1354 377.445 31.6875C377.549 31.2396 377.708 30.8438 377.922 30.5C378.135 30.151 378.406 29.8802 378.734 29.6875C379.068 29.4896 379.464 29.3906 379.922 29.3906C380.026 29.3906 380.146 29.4036 380.281 29.4297C380.417 29.4505 380.51 29.474 380.562 29.5ZM386.57 36.5547V32.2031C386.57 31.8698 386.503 31.5807 386.367 31.3359C386.237 31.0859 386.039 30.8932 385.773 30.7578C385.508 30.6224 385.18 30.5547 384.789 30.5547C384.424 30.5547 384.104 30.6172 383.828 30.7422C383.557 30.8672 383.344 31.0312 383.188 31.2344C383.036 31.4375 382.961 31.6562 382.961 31.8906H381.516C381.516 31.5885 381.594 31.2891 381.75 30.9922C381.906 30.6953 382.13 30.4271 382.422 30.1875C382.719 29.9427 383.073 29.75 383.484 29.6094C383.901 29.4635 384.365 29.3906 384.875 29.3906C385.49 29.3906 386.031 29.4948 386.5 29.7031C386.974 29.9115 387.344 30.2266 387.609 30.6484C387.88 31.0651 388.016 31.5885 388.016 32.2188V36.1562C388.016 36.4375 388.039 36.737 388.086 37.0547C388.138 37.3724 388.214 37.6458 388.312 37.875V38H386.805C386.732 37.8333 386.674 37.612 386.633 37.3359C386.591 37.0547 386.57 36.7943 386.57 36.5547ZM386.82 32.875L386.836 33.8906H385.375C384.964 33.8906 384.596 33.9245 384.273 33.9922C383.951 34.0547 383.68 34.151 383.461 34.2812C383.242 34.4115 383.076 34.5755 382.961 34.7734C382.846 34.9661 382.789 35.1927 382.789 35.4531C382.789 35.7188 382.849 35.9609 382.969 36.1797C383.089 36.3984 383.268 36.5729 383.508 36.7031C383.753 36.8281 384.052 36.8906 384.406 36.8906C384.849 36.8906 385.24 36.7969 385.578 36.6094C385.917 36.4219 386.185 36.1927 386.383 35.9219C386.586 35.651 386.695 35.388 386.711 35.1328L387.328 35.8281C387.292 36.0469 387.193 36.2891 387.031 36.5547C386.87 36.8203 386.654 37.0755 386.383 37.3203C386.117 37.5599 385.799 37.7604 385.43 37.9219C385.065 38.0781 384.654 38.1562 384.195 38.1562C383.622 38.1562 383.12 38.0443 382.688 37.8203C382.26 37.5964 381.927 37.2969 381.688 36.9219C381.453 36.5417 381.336 36.1172 381.336 35.6484C381.336 35.1953 381.424 34.7969 381.602 34.4531C381.779 34.1042 382.034 33.8151 382.367 33.5859C382.701 33.3516 383.102 33.1745 383.57 33.0547C384.039 32.9349 384.562 32.875 385.141 32.875H386.82ZM393.828 29.5469V30.6562H389.258V29.5469H393.828ZM390.805 27.4922H392.25V35.9062C392.25 36.1927 392.294 36.4089 392.383 36.5547C392.471 36.7005 392.586 36.7969 392.727 36.8438C392.867 36.8906 393.018 36.9141 393.18 36.9141C393.299 36.9141 393.424 36.9036 393.555 36.8828C393.69 36.8568 393.792 36.8359 393.859 36.8203L393.867 38C393.753 38.0365 393.602 38.0703 393.414 38.1016C393.232 38.138 393.01 38.1562 392.75 38.1562C392.396 38.1562 392.07 38.0859 391.773 37.9453C391.477 37.8047 391.24 37.5703 391.062 37.2422C390.891 36.9089 390.805 36.4609 390.805 35.8984V27.4922ZM397.094 29.5469V38H395.641V29.5469H397.094ZM395.531 27.3047C395.531 27.0703 395.602 26.8724 395.742 26.7109C395.888 26.5495 396.102 26.4688 396.383 26.4688C396.659 26.4688 396.87 26.5495 397.016 26.7109C397.167 26.8724 397.242 27.0703 397.242 27.3047C397.242 27.5286 397.167 27.7214 397.016 27.8828C396.87 28.0391 396.659 28.1172 396.383 28.1172C396.102 28.1172 395.888 28.0391 395.742 27.8828C395.602 27.7214 395.531 27.5286 395.531 27.3047ZM399.031 33.8672V33.6875C399.031 33.0781 399.12 32.513 399.297 31.9922C399.474 31.4661 399.729 31.0104 400.062 30.625C400.396 30.2344 400.799 29.9323 401.273 29.7188C401.747 29.5 402.279 29.3906 402.867 29.3906C403.461 29.3906 403.995 29.5 404.469 29.7188C404.948 29.9323 405.354 30.2344 405.688 30.625C406.026 31.0104 406.284 31.4661 406.461 31.9922C406.638 32.513 406.727 33.0781 406.727 33.6875V33.8672C406.727 34.4766 406.638 35.0417 406.461 35.5625C406.284 36.0833 406.026 36.5391 405.688 36.9297C405.354 37.3151 404.951 37.6172 404.477 37.8359C404.008 38.0495 403.477 38.1562 402.883 38.1562C402.289 38.1562 401.755 38.0495 401.281 37.8359C400.807 37.6172 400.401 37.3151 400.062 36.9297C399.729 36.5391 399.474 36.0833 399.297 35.5625C399.12 35.0417 399.031 34.4766 399.031 33.8672ZM400.477 33.6875V33.8672C400.477 34.2891 400.526 34.6875 400.625 35.0625C400.724 35.4323 400.872 35.7604 401.07 36.0469C401.273 36.3333 401.526 36.5599 401.828 36.7266C402.13 36.888 402.482 36.9688 402.883 36.9688C403.279 36.9688 403.625 36.888 403.922 36.7266C404.224 36.5599 404.474 36.3333 404.672 36.0469C404.87 35.7604 405.018 35.4323 405.117 35.0625C405.221 34.6875 405.273 34.2891 405.273 33.8672V33.6875C405.273 33.2708 405.221 32.8776 405.117 32.5078C405.018 32.1328 404.867 31.8021 404.664 31.5156C404.466 31.224 404.216 30.9948 403.914 30.8281C403.617 30.6615 403.268 30.5781 402.867 30.5781C402.471 30.5781 402.122 30.6615 401.82 30.8281C401.523 30.9948 401.273 31.224 401.07 31.5156C400.872 31.8021 400.724 32.1328 400.625 32.5078C400.526 32.8776 400.477 33.2708 400.477 33.6875ZM409.984 31.3516V38H408.539V29.5469H409.906L409.984 31.3516ZM409.641 33.4531L409.039 33.4297C409.044 32.8516 409.13 32.3177 409.297 31.8281C409.464 31.3333 409.698 30.9036 410 30.5391C410.302 30.1745 410.661 29.8932 411.078 29.6953C411.5 29.4922 411.966 29.3906 412.477 29.3906C412.893 29.3906 413.268 29.4479 413.602 29.5625C413.935 29.6719 414.219 29.849 414.453 30.0938C414.693 30.3385 414.875 30.6562 415 31.0469C415.125 31.4323 415.188 31.9036 415.188 32.4609V38H413.734V32.4453C413.734 32.0026 413.669 31.6484 413.539 31.3828C413.409 31.112 413.219 30.9167 412.969 30.7969C412.719 30.6719 412.411 30.6094 412.047 30.6094C411.688 30.6094 411.359 30.6849 411.062 30.8359C410.771 30.987 410.518 31.1953 410.305 31.4609C410.096 31.7266 409.932 32.0312 409.812 32.375C409.698 32.7135 409.641 33.0729 409.641 33.4531ZM422.305 35.7578C422.305 35.5495 422.258 35.3568 422.164 35.1797C422.076 34.9974 421.891 34.8333 421.609 34.6875C421.333 34.5365 420.917 34.4062 420.359 34.2969C419.891 34.1979 419.466 34.0807 419.086 33.9453C418.711 33.8099 418.391 33.6458 418.125 33.4531C417.865 33.2604 417.664 33.0339 417.523 32.7734C417.383 32.513 417.312 32.2083 417.312 31.8594C417.312 31.526 417.385 31.2109 417.531 30.9141C417.682 30.6172 417.893 30.3542 418.164 30.125C418.44 29.8958 418.771 29.7161 419.156 29.5859C419.542 29.4557 419.971 29.3906 420.445 29.3906C421.122 29.3906 421.701 29.5104 422.18 29.75C422.659 29.9896 423.026 30.3099 423.281 30.7109C423.536 31.1068 423.664 31.5469 423.664 32.0312H422.219C422.219 31.7969 422.148 31.5703 422.008 31.3516C421.872 31.1276 421.672 30.9427 421.406 30.7969C421.146 30.651 420.826 30.5781 420.445 30.5781C420.044 30.5781 419.719 30.6406 419.469 30.7656C419.224 30.8854 419.044 31.0391 418.93 31.2266C418.82 31.4141 418.766 31.612 418.766 31.8203C418.766 31.9766 418.792 32.1172 418.844 32.2422C418.901 32.362 419 32.474 419.141 32.5781C419.281 32.6771 419.479 32.7708 419.734 32.8594C419.99 32.9479 420.315 33.0365 420.711 33.125C421.404 33.2812 421.974 33.4688 422.422 33.6875C422.87 33.9062 423.203 34.1745 423.422 34.4922C423.641 34.8099 423.75 35.1953 423.75 35.6484C423.75 36.0182 423.672 36.3568 423.516 36.6641C423.365 36.9714 423.143 37.237 422.852 37.4609C422.565 37.6797 422.221 37.8516 421.82 37.9766C421.424 38.0964 420.979 38.1562 420.484 38.1562C419.74 38.1562 419.109 38.0234 418.594 37.7578C418.078 37.4922 417.688 37.1484 417.422 36.7266C417.156 36.3047 417.023 35.8594 417.023 35.3906H418.477C418.497 35.7865 418.612 36.1016 418.82 36.3359C419.029 36.5651 419.284 36.7292 419.586 36.8281C419.888 36.9219 420.188 36.9688 420.484 36.9688C420.88 36.9688 421.211 36.9167 421.477 36.8125C421.747 36.7083 421.953 36.5651 422.094 36.3828C422.234 36.2005 422.305 35.9922 422.305 35.7578Z" fill="#2D3139"/>
</g>
<defs>
<filter id="filter0_di_7916_14668" x="0" y="0" width="472" height="66" filterUnits="userSpaceOnUse" color-interpolation-filters="sRGB">
<feFlood flood-opacity="0" result="BackgroundImageFix"/>
<feColorMatrix in="SourceAlpha" type="matrix" values="0 0 0 0 0 0 0 0 0 0 0 0 0 0 0 0 0 0 127 0" result="hardAlpha"/>
<feOffset dy="1"/>
<feGaussianBlur stdDeviation="1.5"/>
<feComposite in2="hardAlpha" operator="out"/>
<feColorMatrix type="matrix" values="0 0 0 0 0.121569 0 0 0 0 0.133333 0 0 0 0 0.160784 0 0 0 0.08 0"/>
<feBlend mode="normal" in2="BackgroundImageFix" result="effect1_dropShadow_7916_14668"/>
<feBlend mode="normal" in="SourceGraphic" in2="effect1_dropShadow_7916_14668" result="shape"/>
<feColorMatrix in="SourceAlpha" type="matrix" values="0 0 0 0 0 0 0 0 0 0 0 0 0 0 0 0 0 0 127 0" result="hardAlpha"/>
<feMorphology radius="1" operator="erode" in="SourceAlpha" result="effect2_innerShadow_7916_14668"/>
<feOffset/>
<feComposite in2="hardAlpha" operator="arithmetic" k2="-1" k3="1"/>
<feColorMatrix type="matrix" values="0 0 0 0 0.882353 0 0 0 0 0.898039 0 0 0 0 0.921569 0 0 0 1 0"/>
<feBlend mode="normal" in2="shape" result="effect2_innerShadow_7916_14668"/>
</filter>
</defs>
</svg>
