<svg width="325" height="357" viewBox="0 0 325 357" fill="none" xmlns="http://www.w3.org/2000/svg">
<rect x="0.5" y="0.5" width="324" height="63" rx="31.5" stroke="url(#paint0_linear_8029_12747)"/>
<rect x="10.1" y="7.1" width="305.8" height="48.8" rx="24.4" fill="white" stroke="#A6A6A6" stroke-width="0.2"/>
<ellipse cx="287.5" cy="32" rx="18.5" ry="17" fill="#4A80FC"/>
<path d="M285.106 25.448C285.704 23.698 288.122 23.645 288.831 25.289L288.891 25.449L289.698 27.809C289.883 28.3502 290.182 28.8455 290.575 29.2614C290.967 29.6773 291.444 30.0042 291.974 30.22L292.191 30.301L294.551 31.107C296.301 31.705 296.354 34.123 294.711 34.832L294.551 34.892L292.191 35.699C291.65 35.8838 291.154 36.1826 290.738 36.5753C290.322 36.9679 289.995 37.4452 289.779 37.975L289.698 38.191L288.892 40.552C288.294 42.302 285.876 42.355 285.168 40.712L285.106 40.552L284.3 38.192C284.115 37.6506 283.816 37.1551 283.424 36.739C283.031 36.3229 282.554 35.9959 282.024 35.78L281.808 35.699L279.448 34.893C277.697 34.295 277.644 31.877 279.288 31.169L279.448 31.107L281.808 30.301C282.349 30.1161 282.845 29.8172 283.261 29.4246C283.676 29.0319 284.003 28.5547 284.219 28.025L284.3 27.809L285.106 25.448ZM286.999 26.094L286.193 28.454C285.912 29.2793 285.453 30.0333 284.851 30.6635C284.248 31.2937 283.515 31.7849 282.703 32.103L282.453 32.194L280.093 33L282.453 33.806C283.278 34.0876 284.032 34.5457 284.663 35.1485C285.293 35.7512 285.784 36.4841 286.102 37.296L286.193 37.546L286.999 39.906L287.805 37.546C288.087 36.7207 288.545 35.9667 289.148 35.3365C289.75 34.7063 290.483 34.2151 291.295 33.897L291.545 33.807L293.905 33L291.545 32.194C290.72 31.9124 289.966 31.4543 289.336 30.8515C288.705 30.2488 288.214 29.5159 287.896 28.704L287.806 28.454L286.999 26.094ZM294.999 22C295.186 22 295.37 22.0525 295.528 22.1515C295.687 22.2505 295.815 22.392 295.897 22.56L295.945 22.677L296.295 23.703L297.322 24.053C297.51 24.1167 297.674 24.2346 297.794 24.3918C297.915 24.549 297.986 24.7384 297.998 24.936C298.011 25.1336 297.965 25.3305 297.865 25.5018C297.766 25.673 297.618 25.8109 297.44 25.898L297.322 25.946L296.296 26.296L295.946 27.323C295.882 27.5104 295.764 27.6747 295.607 27.795C295.45 27.9153 295.26 27.9862 295.063 27.9987C294.865 28.0113 294.668 27.9648 294.497 27.8654C294.326 27.7659 294.188 27.6179 294.101 27.44L294.053 27.323L293.703 26.297L292.676 25.947C292.489 25.8833 292.324 25.7654 292.204 25.6082C292.084 25.451 292.012 25.2616 292 25.064C291.987 24.8664 292.034 24.6695 292.133 24.4982C292.232 24.327 292.38 24.1891 292.558 24.102L292.676 24.054L293.702 23.704L294.052 22.677C294.12 22.4794 294.247 22.3079 294.417 22.1865C294.587 22.0651 294.79 21.9999 294.999 22Z" fill="white"/>
<rect x="0.5" y="87.5" width="324" height="218" rx="7.5" fill="#F5F5F5" stroke="#D8D8D8"/>
<path d="M8 87.5H317C321.142 87.5 324.5 90.8579 324.5 95V121.5H0.5V95C0.5 90.8579 3.85786 87.5 8 87.5Z" fill="white" stroke="#D8D8D8"/>
<ellipse cx="19" cy="104.5" rx="5" ry="4.5" fill="#ECECEC"/>
<ellipse cx="33" cy="104.5" rx="5" ry="4.5" fill="#ECECEC"/>
<ellipse cx="47" cy="104.5" rx="5" ry="4.5" fill="#ECECEC"/>
<rect x="10.25" y="145.25" width="190.5" height="211.5" rx="7.75" fill="white" stroke="#A6A6A6" stroke-width="0.5"/>
<path d="M175.75 153.25C183.229 153.25 189.25 158.756 189.25 165.5C189.25 172.244 183.229 177.75 175.75 177.75C168.271 177.75 162.25 172.244 162.25 165.5C162.25 158.756 168.271 153.25 175.75 153.25Z" fill="#D9D9D9" stroke="#A6A6A6" stroke-width="0.5"/>
<path d="M175.956 158.455C180.268 158.455 183.726 161.628 183.727 165.498C183.727 169.368 180.269 172.542 175.956 172.542C171.644 172.542 168.186 169.368 168.186 165.498C168.186 161.628 171.644 158.455 175.956 158.455Z" fill="#FCFCFC" stroke="#A6A6A6" stroke-width="0.457087"/>
<rect x="209" y="145" width="107" height="51" rx="4" fill="white"/>
<rect x="216" y="154" width="73" height="9" rx="4" fill="#E6E6E6"/>
<rect x="22" y="187" width="129" height="9" rx="4" fill="#E6E6E6"/>
<rect x="22" y="206" width="92" height="9" rx="4" fill="#E6E6E6"/>
<rect x="22" y="230" width="115" height="9" rx="4" fill="#E6E6E6"/>
<rect x="216" y="171" width="50" height="9" rx="4" fill="#E6E6E6"/>
<rect x="22" y="320" width="108" height="22" rx="11" fill="#F5F5F5"/>
<path d="M64.8633 330.168V332.25C64.793 332.354 64.681 332.471 64.5273 332.602C64.3737 332.729 64.1615 332.841 63.8906 332.938C63.6224 333.031 63.276 333.078 62.8516 333.078C62.5052 333.078 62.1862 333.018 61.8945 332.898C61.6055 332.776 61.3542 332.599 61.1406 332.367C60.9297 332.133 60.7656 331.849 60.6484 331.516C60.5339 331.18 60.4766 330.799 60.4766 330.375V329.934C60.4766 329.509 60.526 329.13 60.625 328.797C60.7266 328.464 60.875 328.181 61.0703 327.949C61.2656 327.715 61.5052 327.538 61.7891 327.418C62.0729 327.296 62.3984 327.234 62.7656 327.234C63.2005 327.234 63.5638 327.31 63.8555 327.461C64.1497 327.609 64.3789 327.815 64.543 328.078C64.7096 328.341 64.8164 328.641 64.8633 328.977H64.1094C64.0755 328.771 64.0078 328.583 63.9062 328.414C63.8073 328.245 63.6654 328.109 63.4805 328.008C63.2956 327.904 63.0573 327.852 62.7656 327.852C62.5026 327.852 62.2747 327.9 62.082 327.996C61.8893 328.092 61.7305 328.23 61.6055 328.41C61.4805 328.59 61.3867 328.807 61.3242 329.062C61.2643 329.318 61.2344 329.605 61.2344 329.926V330.375C61.2344 330.703 61.2721 330.996 61.3477 331.254C61.4258 331.512 61.5365 331.732 61.6797 331.914C61.8229 332.094 61.9935 332.23 62.1914 332.324C62.3919 332.418 62.6133 332.465 62.8555 332.465C63.1237 332.465 63.3411 332.443 63.5078 332.398C63.6745 332.352 63.8047 332.297 63.8984 332.234C63.9922 332.169 64.0638 332.108 64.1133 332.051V330.777H62.7969V330.168H64.8633ZM67.7578 333.078C67.4635 333.078 67.1966 333.029 66.957 332.93C66.7201 332.828 66.5156 332.686 66.3438 332.504C66.1745 332.322 66.0443 332.105 65.9531 331.855C65.862 331.605 65.8164 331.332 65.8164 331.035V330.871C65.8164 330.527 65.8672 330.221 65.9688 329.953C66.0703 329.682 66.2083 329.453 66.3828 329.266C66.5573 329.078 66.7552 328.936 66.9766 328.84C67.1979 328.743 67.4271 328.695 67.6641 328.695C67.9661 328.695 68.2266 328.747 68.4453 328.852C68.6667 328.956 68.8477 329.102 68.9883 329.289C69.1289 329.474 69.2331 329.693 69.3008 329.945C69.3685 330.195 69.4023 330.469 69.4023 330.766V331.09H66.2461V330.5H68.6797V330.445C68.6693 330.258 68.6302 330.076 68.5625 329.898C68.4974 329.721 68.3932 329.576 68.25 329.461C68.1068 329.346 67.9115 329.289 67.6641 329.289C67.5 329.289 67.349 329.324 67.2109 329.395C67.0729 329.462 66.9544 329.564 66.8555 329.699C66.7565 329.835 66.6797 330 66.625 330.195C66.5703 330.391 66.543 330.616 66.543 330.871V331.035C66.543 331.236 66.5703 331.424 66.625 331.602C66.6823 331.776 66.7643 331.93 66.8711 332.062C66.9805 332.195 67.112 332.299 67.2656 332.375C67.4219 332.451 67.599 332.488 67.7969 332.488C68.0521 332.488 68.2682 332.436 68.4453 332.332C68.6224 332.228 68.7773 332.089 68.9102 331.914L69.3477 332.262C69.2565 332.4 69.1406 332.531 69 332.656C68.8594 332.781 68.6862 332.883 68.4805 332.961C68.2773 333.039 68.0365 333.078 67.7578 333.078ZM70.9688 329.676V333H70.2461V328.773H70.9297L70.9688 329.676ZM70.7969 330.727L70.4961 330.715C70.4987 330.426 70.5417 330.159 70.625 329.914C70.7083 329.667 70.8255 329.452 70.9766 329.27C71.1276 329.087 71.3073 328.947 71.5156 328.848C71.7266 328.746 71.9596 328.695 72.2148 328.695C72.4232 328.695 72.6107 328.724 72.7773 328.781C72.944 328.836 73.0859 328.924 73.2031 329.047C73.3229 329.169 73.4141 329.328 73.4766 329.523C73.5391 329.716 73.5703 329.952 73.5703 330.23V333H72.8438V330.223C72.8438 330.001 72.8112 329.824 72.7461 329.691C72.681 329.556 72.5859 329.458 72.4609 329.398C72.3359 329.336 72.1823 329.305 72 329.305C71.8203 329.305 71.6562 329.342 71.5078 329.418C71.362 329.493 71.2357 329.598 71.1289 329.73C71.0247 329.863 70.9427 330.016 70.8828 330.188C70.8255 330.357 70.7969 330.536 70.7969 330.727ZM76.4219 333.078C76.1276 333.078 75.8607 333.029 75.6211 332.93C75.3841 332.828 75.1797 332.686 75.0078 332.504C74.8385 332.322 74.7083 332.105 74.6172 331.855C74.526 331.605 74.4805 331.332 74.4805 331.035V330.871C74.4805 330.527 74.5312 330.221 74.6328 329.953C74.7344 329.682 74.8724 329.453 75.0469 329.266C75.2214 329.078 75.4193 328.936 75.6406 328.84C75.862 328.743 76.0911 328.695 76.3281 328.695C76.6302 328.695 76.8906 328.747 77.1094 328.852C77.3307 328.956 77.5117 329.102 77.6523 329.289C77.793 329.474 77.8971 329.693 77.9648 329.945C78.0326 330.195 78.0664 330.469 78.0664 330.766V331.09H74.9102V330.5H77.3438V330.445C77.3333 330.258 77.2943 330.076 77.2266 329.898C77.1615 329.721 77.0573 329.576 76.9141 329.461C76.7708 329.346 76.5755 329.289 76.3281 329.289C76.1641 329.289 76.013 329.324 75.875 329.395C75.737 329.462 75.6185 329.564 75.5195 329.699C75.4206 329.835 75.3438 330 75.2891 330.195C75.2344 330.391 75.207 330.616 75.207 330.871V331.035C75.207 331.236 75.2344 331.424 75.2891 331.602C75.3464 331.776 75.4284 331.93 75.5352 332.062C75.6445 332.195 75.776 332.299 75.9297 332.375C76.0859 332.451 76.263 332.488 76.4609 332.488C76.7161 332.488 76.9323 332.436 77.1094 332.332C77.2865 332.228 77.4414 332.089 77.5742 331.914L78.0117 332.262C77.9206 332.4 77.8047 332.531 77.6641 332.656C77.5234 332.781 77.3503 332.883 77.1445 332.961C76.9414 333.039 76.7005 333.078 76.4219 333.078ZM79.6328 329.438V333H78.9102V328.773H79.6133L79.6328 329.438ZM80.9531 328.75L80.9492 329.422C80.8893 329.409 80.832 329.401 80.7773 329.398C80.7253 329.393 80.6654 329.391 80.5977 329.391C80.431 329.391 80.2839 329.417 80.1562 329.469C80.0286 329.521 79.9206 329.594 79.832 329.688C79.7435 329.781 79.6732 329.893 79.6211 330.023C79.5716 330.151 79.5391 330.292 79.5234 330.445L79.3203 330.562C79.3203 330.307 79.3451 330.068 79.3945 329.844C79.4466 329.62 79.526 329.422 79.6328 329.25C79.7396 329.076 79.875 328.94 80.0391 328.844C80.2057 328.745 80.4036 328.695 80.6328 328.695C80.6849 328.695 80.7448 328.702 80.8125 328.715C80.8802 328.725 80.9271 328.737 80.9531 328.75ZM83.957 332.277V330.102C83.957 329.935 83.9232 329.79 83.8555 329.668C83.7904 329.543 83.6914 329.447 83.5586 329.379C83.4258 329.311 83.2617 329.277 83.0664 329.277C82.8841 329.277 82.724 329.309 82.5859 329.371C82.4505 329.434 82.3438 329.516 82.2656 329.617C82.1901 329.719 82.1523 329.828 82.1523 329.945H81.4297C81.4297 329.794 81.4688 329.645 81.5469 329.496C81.625 329.348 81.737 329.214 81.8828 329.094C82.0312 328.971 82.2083 328.875 82.4141 328.805C82.6224 328.732 82.8542 328.695 83.1094 328.695C83.4167 328.695 83.6875 328.747 83.9219 328.852C84.1589 328.956 84.3438 329.113 84.4766 329.324C84.612 329.533 84.6797 329.794 84.6797 330.109V332.078C84.6797 332.219 84.6914 332.368 84.7148 332.527C84.7409 332.686 84.7786 332.823 84.8281 332.938V333H84.0742C84.0378 332.917 84.0091 332.806 83.9883 332.668C83.9674 332.527 83.957 332.397 83.957 332.277ZM84.082 330.438L84.0898 330.945H83.3594C83.1536 330.945 82.9701 330.962 82.8086 330.996C82.6471 331.027 82.5117 331.076 82.4023 331.141C82.293 331.206 82.2096 331.288 82.1523 331.387C82.0951 331.483 82.0664 331.596 82.0664 331.727C82.0664 331.859 82.0964 331.98 82.1562 332.09C82.2161 332.199 82.306 332.286 82.4258 332.352C82.5482 332.414 82.6979 332.445 82.875 332.445C83.0964 332.445 83.2917 332.398 83.4609 332.305C83.6302 332.211 83.7643 332.096 83.8633 331.961C83.9648 331.826 84.0195 331.694 84.0273 331.566L84.3359 331.914C84.3177 332.023 84.2682 332.145 84.1875 332.277C84.1068 332.41 83.9987 332.538 83.8633 332.66C83.7305 332.78 83.5716 332.88 83.3867 332.961C83.2044 333.039 82.9987 333.078 82.7695 333.078C82.4831 333.078 82.2318 333.022 82.0156 332.91C81.8021 332.798 81.6354 332.648 81.5156 332.461C81.3984 332.271 81.3398 332.059 81.3398 331.824C81.3398 331.598 81.3841 331.398 81.4727 331.227C81.5612 331.052 81.6888 330.908 81.8555 330.793C82.0221 330.676 82.2227 330.587 82.457 330.527C82.6914 330.467 82.9531 330.438 83.2422 330.438H84.082ZM87.5859 328.773V329.328H85.3008V328.773H87.5859ZM86.0742 327.746H86.7969V331.953C86.7969 332.096 86.819 332.204 86.8633 332.277C86.9076 332.35 86.9648 332.398 87.0352 332.422C87.1055 332.445 87.181 332.457 87.2617 332.457C87.3216 332.457 87.3841 332.452 87.4492 332.441C87.5169 332.428 87.5677 332.418 87.6016 332.41L87.6055 333C87.5482 333.018 87.4727 333.035 87.3789 333.051C87.2878 333.069 87.1771 333.078 87.0469 333.078C86.8698 333.078 86.707 333.043 86.5586 332.973C86.4102 332.902 86.2917 332.785 86.2031 332.621C86.1172 332.454 86.0742 332.23 86.0742 331.949V327.746ZM90.1875 333.078C89.8932 333.078 89.6263 333.029 89.3867 332.93C89.1497 332.828 88.9453 332.686 88.7734 332.504C88.6042 332.322 88.474 332.105 88.3828 331.855C88.2917 331.605 88.2461 331.332 88.2461 331.035V330.871C88.2461 330.527 88.2969 330.221 88.3984 329.953C88.5 329.682 88.638 329.453 88.8125 329.266C88.987 329.078 89.1849 328.936 89.4062 328.84C89.6276 328.743 89.8568 328.695 90.0938 328.695C90.3958 328.695 90.6562 328.747 90.875 328.852C91.0964 328.956 91.2773 329.102 91.418 329.289C91.5586 329.474 91.6628 329.693 91.7305 329.945C91.7982 330.195 91.832 330.469 91.832 330.766V331.09H88.6758V330.5H91.1094V330.445C91.099 330.258 91.0599 330.076 90.9922 329.898C90.9271 329.721 90.8229 329.576 90.6797 329.461C90.5365 329.346 90.3411 329.289 90.0938 329.289C89.9297 329.289 89.7786 329.324 89.6406 329.395C89.5026 329.462 89.3841 329.564 89.2852 329.699C89.1862 329.835 89.1094 330 89.0547 330.195C89 330.391 88.9727 330.616 88.9727 330.871V331.035C88.9727 331.236 89 331.424 89.0547 331.602C89.112 331.776 89.194 331.93 89.3008 332.062C89.4102 332.195 89.5417 332.299 89.6953 332.375C89.8516 332.451 90.0286 332.488 90.2266 332.488C90.4818 332.488 90.6979 332.436 90.875 332.332C91.0521 332.228 91.207 332.089 91.3398 331.914L91.7773 332.262C91.6862 332.4 91.5703 332.531 91.4297 332.656C91.2891 332.781 91.1159 332.883 90.9102 332.961C90.707 333.039 90.4661 333.078 90.1875 333.078Z" fill="#0060C7"/>
<defs>
<linearGradient id="paint0_linear_8029_12747" x1="0" y1="32" x2="325" y2="32" gradientUnits="userSpaceOnUse">
<stop stop-color="#F0F0F0"/>
<stop offset="1" stop-color="#0060C7"/>
</linearGradient>
</defs>
</svg>
