<svg width="472" height="66" viewBox="0 0 472 66" fill="none" xmlns="http://www.w3.org/2000/svg">
<g filter="url(#filter0_di_7916_14660)">
<rect x="3" y="2" width="466" height="60" rx="4" fill="white"/>
<g clip-path="url(#clip0_7916_14660)">
<path d="M33.0029 40.6238H45.0743M33.0029 40.6238C33.0029 40.9636 32.936 41.3 32.806 41.6138C32.676 41.9277 32.4854 42.2129 32.2452 42.4531C32.005 42.6933 31.7198 42.8839 31.4059 43.0139C31.092 43.1439 30.7556 43.2108 30.4159 43.2108C30.0762 43.2108 29.7398 43.1439 29.4259 43.0139C29.112 42.8839 28.8268 42.6933 28.5866 42.4531C28.3464 42.2129 28.1558 41.9277 28.0258 41.6138C27.8958 41.3 27.8289 40.9636 27.8289 40.6238C27.8289 40.2841 27.8958 39.9477 28.0258 39.6338C28.1558 39.32 28.3464 39.0348 28.5866 38.7945C28.8268 38.5543 29.112 38.3638 29.4259 38.2338C29.7398 38.1037 30.0762 38.0368 30.4159 38.0368C30.7556 38.0368 31.092 38.1037 31.4059 38.2338C31.7198 38.3638 32.005 38.5543 32.2452 38.7945C32.4854 39.0348 32.676 39.32 32.806 39.6338C32.936 39.9477 33.0029 40.2841 33.0029 40.6238ZM45.0743 40.6238L41.6256 37.1751M45.0743 40.6238L41.6256 44.0725M26.1055 22.5167C26.1055 23.2028 26.378 23.8608 26.8632 24.346C27.3483 24.8311 28.0064 25.1037 28.6925 25.1037C29.3786 25.1037 30.0366 24.8311 30.5218 24.346C31.0069 23.8608 31.2795 23.2028 31.2795 22.5167C31.2795 21.8306 31.0069 21.1726 30.5218 20.6874C30.0366 20.2022 29.3786 19.9297 28.6925 19.9297C28.0064 19.9297 27.3483 20.2022 26.8632 20.6874C26.378 21.1726 26.1055 21.8306 26.1055 22.5167ZM33.0029 31.1394C33.0029 31.8255 33.2755 32.4835 33.7606 32.9687C34.2458 33.4538 34.9038 33.7264 35.5899 33.7264C36.276 33.7264 36.934 33.4538 37.4192 32.9687C37.9043 32.4835 38.1769 31.8255 38.1769 31.1394C38.1769 30.4533 37.9043 29.7953 37.4192 29.3101C36.934 28.825 36.276 28.5524 35.5899 28.5524C34.9038 28.5524 34.2458 28.825 33.7606 29.3101C33.2755 29.7953 33.0029 30.4533 33.0029 31.1394Z" stroke="#282828" stroke-width="1.85714" stroke-linecap="round" stroke-linejoin="round"/>
<path d="M33.0011 31.1383H25.6728C24.4314 31.1629 23.249 31.6733 22.3798 32.56C21.5105 33.4467 21.0235 34.6388 21.0235 35.8806C21.0235 37.1223 21.5105 38.3145 22.3798 39.2011C23.249 40.0878 24.4314 40.5982 25.6728 40.6228H27.8271M38.1751 31.1383H40.7621C41.9056 31.1383 43.0022 30.6841 43.8107 29.8756C44.6192 29.067 45.0735 27.9704 45.0735 26.827C45.0735 25.6835 44.6192 24.5869 43.8107 23.7784C43.0022 22.9699 41.9056 22.5156 40.7621 22.5156H31.274M26.1037 22.5156H20.9297" stroke="#282828" stroke-width="1.85714" stroke-linecap="round" stroke-linejoin="round"/>
</g>
<path d="M70.3203 24.625V36H68.8125V24.625H70.3203ZM74.2891 29.3516V36H72.8438V27.5469H74.2109L74.2891 29.3516ZM73.9453 31.4531L73.3438 31.4297C73.349 30.8516 73.4349 30.3177 73.6016 29.8281C73.7682 29.3333 74.0026 28.9036 74.3047 28.5391C74.6068 28.1745 74.9661 27.8932 75.3828 27.6953C75.8047 27.4922 76.2708 27.3906 76.7812 27.3906C77.1979 27.3906 77.5729 27.4479 77.9062 27.5625C78.2396 27.6719 78.5234 27.849 78.7578 28.0938C78.9974 28.3385 79.1797 28.6562 79.3047 29.0469C79.4297 29.4323 79.4922 29.9036 79.4922 30.4609V36H78.0391V30.4453C78.0391 30.0026 77.974 29.6484 77.8438 29.3828C77.7135 29.112 77.5234 28.9167 77.2734 28.7969C77.0234 28.6719 76.7161 28.6094 76.3516 28.6094C75.9922 28.6094 75.6641 28.6849 75.3672 28.8359C75.0755 28.987 74.8229 29.1953 74.6094 29.4609C74.401 29.7266 74.237 30.0312 74.1172 30.375C74.0026 30.7135 73.9453 31.0729 73.9453 31.4531ZM85.2266 27.5469V28.6562H80.6562V27.5469H85.2266ZM82.2031 25.4922H83.6484V33.9062C83.6484 34.1927 83.6927 34.4089 83.7812 34.5547C83.8698 34.7005 83.9844 34.7969 84.125 34.8438C84.2656 34.8906 84.4167 34.9141 84.5781 34.9141C84.6979 34.9141 84.8229 34.9036 84.9531 34.8828C85.0885 34.8568 85.1901 34.8359 85.2578 34.8203L85.2656 36C85.151 36.0365 85 36.0703 84.8125 36.1016C84.6302 36.138 84.4089 36.1562 84.1484 36.1562C83.7943 36.1562 83.4688 36.0859 83.1719 35.9453C82.875 35.8047 82.638 35.5703 82.4609 35.2422C82.2891 34.9089 82.2031 34.4609 82.2031 33.8984V25.4922ZM90.4297 36.1562C89.8411 36.1562 89.3073 36.0573 88.8281 35.8594C88.3542 35.6562 87.9453 35.3724 87.6016 35.0078C87.263 34.6432 87.0026 34.2109 86.8203 33.7109C86.638 33.2109 86.5469 32.6641 86.5469 32.0703V31.7422C86.5469 31.0547 86.6484 30.4427 86.8516 29.9062C87.0547 29.3646 87.3307 28.9062 87.6797 28.5312C88.0286 28.1562 88.4245 27.8724 88.8672 27.6797C89.3099 27.487 89.7682 27.3906 90.2422 27.3906C90.8464 27.3906 91.3672 27.4948 91.8047 27.7031C92.2474 27.9115 92.6094 28.2031 92.8906 28.5781C93.1719 28.9479 93.3802 29.3854 93.5156 29.8906C93.651 30.3906 93.7188 30.9375 93.7188 31.5312V32.1797H87.4062V31H92.2734V30.8906C92.2526 30.5156 92.1745 30.151 92.0391 29.7969C91.9089 29.4427 91.7005 29.151 91.4141 28.9219C91.1276 28.6927 90.737 28.5781 90.2422 28.5781C89.9141 28.5781 89.612 28.6484 89.3359 28.7891C89.0599 28.9245 88.8229 29.1276 88.625 29.3984C88.4271 29.6693 88.2734 30 88.1641 30.3906C88.0547 30.7812 88 31.2318 88 31.7422V32.0703C88 32.4714 88.0547 32.849 88.1641 33.2031C88.2786 33.5521 88.4427 33.8594 88.6562 34.125C88.875 34.3906 89.138 34.599 89.4453 34.75C89.7578 34.901 90.112 34.9766 90.5078 34.9766C91.0182 34.9766 91.4505 34.8724 91.8047 34.6641C92.1589 34.4557 92.4688 34.1771 92.7344 33.8281L93.6094 34.5234C93.4271 34.7995 93.1953 35.0625 92.9141 35.3125C92.6328 35.5625 92.2865 35.7656 91.875 35.9219C91.4688 36.0781 90.987 36.1562 90.4297 36.1562ZM100.883 27.5469H102.195V35.8203C102.195 36.5651 102.044 37.2005 101.742 37.7266C101.44 38.2526 101.018 38.651 100.477 38.9219C99.9401 39.1979 99.3203 39.3359 98.6172 39.3359C98.3255 39.3359 97.9818 39.2891 97.5859 39.1953C97.1953 39.1068 96.8099 38.9531 96.4297 38.7344C96.0547 38.5208 95.7396 38.2318 95.4844 37.8672L96.2422 37.0078C96.5964 37.4349 96.9661 37.7318 97.3516 37.8984C97.7422 38.0651 98.1276 38.1484 98.5078 38.1484C98.9661 38.1484 99.362 38.0625 99.6953 37.8906C100.029 37.7188 100.286 37.4635 100.469 37.125C100.656 36.7917 100.75 36.3802 100.75 35.8906V29.4062L100.883 27.5469ZM95.0625 31.8672V31.7031C95.0625 31.0573 95.138 30.4714 95.2891 29.9453C95.4453 29.4141 95.6667 28.9583 95.9531 28.5781C96.2448 28.1979 96.5964 27.9062 97.0078 27.7031C97.4193 27.4948 97.8828 27.3906 98.3984 27.3906C98.9297 27.3906 99.3932 27.4844 99.7891 27.6719C100.19 27.8542 100.529 28.1224 100.805 28.4766C101.086 28.8255 101.307 29.2474 101.469 29.7422C101.63 30.237 101.742 30.7969 101.805 31.4219V32.1406C101.747 32.7604 101.635 33.3177 101.469 33.8125C101.307 34.3073 101.086 34.7292 100.805 35.0781C100.529 35.4271 100.19 35.6953 99.7891 35.8828C99.388 36.0651 98.9193 36.1562 98.3828 36.1562C97.8776 36.1562 97.4193 36.0495 97.0078 35.8359C96.6016 35.6224 96.2526 35.3229 95.9609 34.9375C95.6693 34.5521 95.4453 34.099 95.2891 33.5781C95.138 33.0521 95.0625 32.4818 95.0625 31.8672ZM96.5078 31.7031V31.8672C96.5078 32.2891 96.5495 32.6849 96.6328 33.0547C96.7214 33.4245 96.8542 33.75 97.0312 34.0312C97.2135 34.3125 97.4453 34.5339 97.7266 34.6953C98.0078 34.8516 98.3438 34.9297 98.7344 34.9297C99.2135 34.9297 99.6094 34.8281 99.9219 34.625C100.234 34.4219 100.482 34.1536 100.664 33.8203C100.852 33.487 100.997 33.125 101.102 32.7344V30.8516C101.044 30.5651 100.956 30.2891 100.836 30.0234C100.721 29.7526 100.57 29.513 100.383 29.3047C100.201 29.0911 99.974 28.9219 99.7031 28.7969C99.4323 28.6719 99.1146 28.6094 98.75 28.6094C98.3542 28.6094 98.013 28.6927 97.7266 28.8594C97.4453 29.0208 97.2135 29.2448 97.0312 29.5312C96.8542 29.8125 96.7214 30.1406 96.6328 30.5156C96.5495 30.8854 96.5078 31.2812 96.5078 31.7031ZM105.836 28.875V36H104.391V27.5469H105.797L105.836 28.875ZM108.477 27.5L108.469 28.8438C108.349 28.8177 108.234 28.8021 108.125 28.7969C108.021 28.7865 107.901 28.7812 107.766 28.7812C107.432 28.7812 107.138 28.8333 106.883 28.9375C106.628 29.0417 106.411 29.1875 106.234 29.375C106.057 29.5625 105.917 29.7865 105.812 30.0469C105.714 30.3021 105.648 30.5833 105.617 30.8906L105.211 31.125C105.211 30.6146 105.26 30.1354 105.359 29.6875C105.464 29.2396 105.622 28.8438 105.836 28.5C106.049 28.151 106.32 27.8802 106.648 27.6875C106.982 27.4896 107.378 27.3906 107.836 27.3906C107.94 27.3906 108.06 27.4036 108.195 27.4297C108.331 27.4505 108.424 27.474 108.477 27.5ZM114.484 34.5547V30.2031C114.484 29.8698 114.417 29.5807 114.281 29.3359C114.151 29.0859 113.953 28.8932 113.688 28.7578C113.422 28.6224 113.094 28.5547 112.703 28.5547C112.339 28.5547 112.018 28.6172 111.742 28.7422C111.471 28.8672 111.258 29.0312 111.102 29.2344C110.951 29.4375 110.875 29.6562 110.875 29.8906H109.43C109.43 29.5885 109.508 29.2891 109.664 28.9922C109.82 28.6953 110.044 28.4271 110.336 28.1875C110.633 27.9427 110.987 27.75 111.398 27.6094C111.815 27.4635 112.279 27.3906 112.789 27.3906C113.404 27.3906 113.945 27.4948 114.414 27.7031C114.888 27.9115 115.258 28.2266 115.523 28.6484C115.794 29.0651 115.93 29.5885 115.93 30.2188V34.1562C115.93 34.4375 115.953 34.737 116 35.0547C116.052 35.3724 116.128 35.6458 116.227 35.875V36H114.719C114.646 35.8333 114.589 35.612 114.547 35.3359C114.505 35.0547 114.484 34.7943 114.484 34.5547ZM114.734 30.875L114.75 31.8906H113.289C112.878 31.8906 112.51 31.9245 112.188 31.9922C111.865 32.0547 111.594 32.151 111.375 32.2812C111.156 32.4115 110.99 32.5755 110.875 32.7734C110.76 32.9661 110.703 33.1927 110.703 33.4531C110.703 33.7188 110.763 33.9609 110.883 34.1797C111.003 34.3984 111.182 34.5729 111.422 34.7031C111.667 34.8281 111.966 34.8906 112.32 34.8906C112.763 34.8906 113.154 34.7969 113.492 34.6094C113.831 34.4219 114.099 34.1927 114.297 33.9219C114.5 33.651 114.609 33.388 114.625 33.1328L115.242 33.8281C115.206 34.0469 115.107 34.2891 114.945 34.5547C114.784 34.8203 114.568 35.0755 114.297 35.3203C114.031 35.5599 113.714 35.7604 113.344 35.9219C112.979 36.0781 112.568 36.1562 112.109 36.1562C111.536 36.1562 111.034 36.0443 110.602 35.8203C110.174 35.5964 109.841 35.2969 109.602 34.9219C109.367 34.5417 109.25 34.1172 109.25 33.6484C109.25 33.1953 109.339 32.7969 109.516 32.4531C109.693 32.1042 109.948 31.8151 110.281 31.5859C110.615 31.3516 111.016 31.1745 111.484 31.0547C111.953 30.9349 112.477 30.875 113.055 30.875H114.734ZM121.742 27.5469V28.6562H117.172V27.5469H121.742ZM118.719 25.4922H120.164V33.9062C120.164 34.1927 120.208 34.4089 120.297 34.5547C120.385 34.7005 120.5 34.7969 120.641 34.8438C120.781 34.8906 120.932 34.9141 121.094 34.9141C121.214 34.9141 121.339 34.9036 121.469 34.8828C121.604 34.8568 121.706 34.8359 121.773 34.8203L121.781 36C121.667 36.0365 121.516 36.0703 121.328 36.1016C121.146 36.138 120.924 36.1562 120.664 36.1562C120.31 36.1562 119.984 36.0859 119.688 35.9453C119.391 35.8047 119.154 35.5703 118.977 35.2422C118.805 34.9089 118.719 34.4609 118.719 33.8984V25.4922ZM126.945 36.1562C126.357 36.1562 125.823 36.0573 125.344 35.8594C124.87 35.6562 124.461 35.3724 124.117 35.0078C123.779 34.6432 123.518 34.2109 123.336 33.7109C123.154 33.2109 123.062 32.6641 123.062 32.0703V31.7422C123.062 31.0547 123.164 30.4427 123.367 29.9062C123.57 29.3646 123.846 28.9062 124.195 28.5312C124.544 28.1562 124.94 27.8724 125.383 27.6797C125.826 27.487 126.284 27.3906 126.758 27.3906C127.362 27.3906 127.883 27.4948 128.32 27.7031C128.763 27.9115 129.125 28.2031 129.406 28.5781C129.688 28.9479 129.896 29.3854 130.031 29.8906C130.167 30.3906 130.234 30.9375 130.234 31.5312V32.1797H123.922V31H128.789V30.8906C128.768 30.5156 128.69 30.151 128.555 29.7969C128.424 29.4427 128.216 29.151 127.93 28.9219C127.643 28.6927 127.253 28.5781 126.758 28.5781C126.43 28.5781 126.128 28.6484 125.852 28.7891C125.576 28.9245 125.339 29.1276 125.141 29.3984C124.943 29.6693 124.789 30 124.68 30.3906C124.57 30.7812 124.516 31.2318 124.516 31.7422V32.0703C124.516 32.4714 124.57 32.849 124.68 33.2031C124.794 33.5521 124.958 33.8594 125.172 34.125C125.391 34.3906 125.654 34.599 125.961 34.75C126.273 34.901 126.628 34.9766 127.023 34.9766C127.534 34.9766 127.966 34.8724 128.32 34.6641C128.674 34.4557 128.984 34.1771 129.25 33.8281L130.125 34.5234C129.943 34.7995 129.711 35.0625 129.43 35.3125C129.148 35.5625 128.802 35.7656 128.391 35.9219C127.984 36.0781 127.503 36.1562 126.945 36.1562ZM144.516 30.3359V34.5C144.375 34.7083 144.151 34.9427 143.844 35.2031C143.536 35.4583 143.112 35.6823 142.57 35.875C142.034 36.0625 141.341 36.1562 140.492 36.1562C139.799 36.1562 139.161 36.0365 138.578 35.7969C138 35.5521 137.497 35.1979 137.07 34.7344C136.648 34.2656 136.32 33.6979 136.086 33.0312C135.857 32.3594 135.742 31.599 135.742 30.75V29.8672C135.742 29.0182 135.841 28.2604 136.039 27.5938C136.242 26.9271 136.539 26.362 136.93 25.8984C137.32 25.4297 137.799 25.0755 138.367 24.8359C138.935 24.5911 139.586 24.4688 140.32 24.4688C141.19 24.4688 141.917 24.6198 142.5 24.9219C143.089 25.2188 143.547 25.6302 143.875 26.1562C144.208 26.6823 144.422 27.2812 144.516 27.9531H143.008C142.94 27.5417 142.805 27.1667 142.602 26.8281C142.404 26.4896 142.12 26.2188 141.75 26.0156C141.38 25.8073 140.904 25.7031 140.32 25.7031C139.794 25.7031 139.339 25.7995 138.953 25.9922C138.568 26.1849 138.25 26.4609 138 26.8203C137.75 27.1797 137.562 27.6146 137.438 28.125C137.318 28.6354 137.258 29.2109 137.258 29.8516V30.75C137.258 31.4062 137.333 31.9922 137.484 32.5078C137.641 33.0234 137.862 33.4635 138.148 33.8281C138.435 34.1875 138.776 34.4609 139.172 34.6484C139.573 34.8359 140.016 34.9297 140.5 34.9297C141.036 34.9297 141.471 34.8854 141.805 34.7969C142.138 34.7031 142.398 34.5938 142.586 34.4688C142.773 34.3385 142.917 34.2161 143.016 34.1016V31.5547H140.383V30.3359H144.516ZM150.305 36.1562C149.716 36.1562 149.182 36.0573 148.703 35.8594C148.229 35.6562 147.82 35.3724 147.477 35.0078C147.138 34.6432 146.878 34.2109 146.695 33.7109C146.513 33.2109 146.422 32.6641 146.422 32.0703V31.7422C146.422 31.0547 146.523 30.4427 146.727 29.9062C146.93 29.3646 147.206 28.9062 147.555 28.5312C147.904 28.1562 148.299 27.8724 148.742 27.6797C149.185 27.487 149.643 27.3906 150.117 27.3906C150.721 27.3906 151.242 27.4948 151.68 27.7031C152.122 27.9115 152.484 28.2031 152.766 28.5781C153.047 28.9479 153.255 29.3854 153.391 29.8906C153.526 30.3906 153.594 30.9375 153.594 31.5312V32.1797H147.281V31H152.148V30.8906C152.128 30.5156 152.049 30.151 151.914 29.7969C151.784 29.4427 151.576 29.151 151.289 28.9219C151.003 28.6927 150.612 28.5781 150.117 28.5781C149.789 28.5781 149.487 28.6484 149.211 28.7891C148.935 28.9245 148.698 29.1276 148.5 29.3984C148.302 29.6693 148.148 30 148.039 30.3906C147.93 30.7812 147.875 31.2318 147.875 31.7422V32.0703C147.875 32.4714 147.93 32.849 148.039 33.2031C148.154 33.5521 148.318 33.8594 148.531 34.125C148.75 34.3906 149.013 34.599 149.32 34.75C149.633 34.901 149.987 34.9766 150.383 34.9766C150.893 34.9766 151.326 34.8724 151.68 34.6641C152.034 34.4557 152.344 34.1771 152.609 33.8281L153.484 34.5234C153.302 34.7995 153.07 35.0625 152.789 35.3125C152.508 35.5625 152.161 35.7656 151.75 35.9219C151.344 36.0781 150.862 36.1562 150.305 36.1562ZM156.727 29.3516V36H155.281V27.5469H156.648L156.727 29.3516ZM156.383 31.4531L155.781 31.4297C155.786 30.8516 155.872 30.3177 156.039 29.8281C156.206 29.3333 156.44 28.9036 156.742 28.5391C157.044 28.1745 157.404 27.8932 157.82 27.6953C158.242 27.4922 158.708 27.3906 159.219 27.3906C159.635 27.3906 160.01 27.4479 160.344 27.5625C160.677 27.6719 160.961 27.849 161.195 28.0938C161.435 28.3385 161.617 28.6562 161.742 29.0469C161.867 29.4323 161.93 29.9036 161.93 30.4609V36H160.477V30.4453C160.477 30.0026 160.411 29.6484 160.281 29.3828C160.151 29.112 159.961 28.9167 159.711 28.7969C159.461 28.6719 159.154 28.6094 158.789 28.6094C158.43 28.6094 158.102 28.6849 157.805 28.8359C157.513 28.987 157.26 29.1953 157.047 29.4609C156.839 29.7266 156.674 30.0312 156.555 30.375C156.44 30.7135 156.383 31.0729 156.383 31.4531ZM168.555 25.6328L164.789 36H163.25L167.586 24.625H168.578L168.555 25.6328ZM171.711 36L167.938 25.6328L167.914 24.625H168.906L173.258 36H171.711ZM171.516 31.7891V33.0234H165.125V31.7891H171.516ZM176.398 24.625V36H174.891V24.625H176.398ZM184.461 27.5469V36H183.008V27.5469H184.461ZM182.898 25.3047C182.898 25.0703 182.969 24.8724 183.109 24.7109C183.255 24.5495 183.469 24.4688 183.75 24.4688C184.026 24.4688 184.237 24.5495 184.383 24.7109C184.534 24.8724 184.609 25.0703 184.609 25.3047C184.609 25.5286 184.534 25.7214 184.383 25.8828C184.237 26.0391 184.026 26.1172 183.75 26.1172C183.469 26.1172 183.255 26.0391 183.109 25.8828C182.969 25.7214 182.898 25.5286 182.898 25.3047ZM188.227 29.3516V36H186.781V27.5469H188.148L188.227 29.3516ZM187.883 31.4531L187.281 31.4297C187.286 30.8516 187.372 30.3177 187.539 29.8281C187.706 29.3333 187.94 28.9036 188.242 28.5391C188.544 28.1745 188.904 27.8932 189.32 27.6953C189.742 27.4922 190.208 27.3906 190.719 27.3906C191.135 27.3906 191.51 27.4479 191.844 27.5625C192.177 27.6719 192.461 27.849 192.695 28.0938C192.935 28.3385 193.117 28.6562 193.242 29.0469C193.367 29.4323 193.43 29.9036 193.43 30.4609V36H191.977V30.4453C191.977 30.0026 191.911 29.6484 191.781 29.3828C191.651 29.112 191.461 28.9167 191.211 28.7969C190.961 28.6719 190.654 28.6094 190.289 28.6094C189.93 28.6094 189.602 28.6849 189.305 28.8359C189.013 28.987 188.76 29.1953 188.547 29.4609C188.339 29.7266 188.174 30.0312 188.055 30.375C187.94 30.7135 187.883 31.0729 187.883 31.4531ZM199.164 27.5469V28.6562H194.594V27.5469H199.164ZM196.141 25.4922H197.586V33.9062C197.586 34.1927 197.63 34.4089 197.719 34.5547C197.807 34.7005 197.922 34.7969 198.062 34.8438C198.203 34.8906 198.354 34.9141 198.516 34.9141C198.635 34.9141 198.76 34.9036 198.891 34.8828C199.026 34.8568 199.128 34.8359 199.195 34.8203L199.203 36C199.089 36.0365 198.938 36.0703 198.75 36.1016C198.568 36.138 198.346 36.1562 198.086 36.1562C197.732 36.1562 197.406 36.0859 197.109 35.9453C196.812 35.8047 196.576 35.5703 196.398 35.2422C196.227 34.9089 196.141 34.4609 196.141 33.8984V25.4922ZM200.32 31.8672V31.6875C200.32 31.0781 200.409 30.513 200.586 29.9922C200.763 29.4661 201.018 29.0104 201.352 28.625C201.685 28.2344 202.089 27.9323 202.562 27.7188C203.036 27.5 203.568 27.3906 204.156 27.3906C204.75 27.3906 205.284 27.5 205.758 27.7188C206.237 27.9323 206.643 28.2344 206.977 28.625C207.315 29.0104 207.573 29.4661 207.75 29.9922C207.927 30.513 208.016 31.0781 208.016 31.6875V31.8672C208.016 32.4766 207.927 33.0417 207.75 33.5625C207.573 34.0833 207.315 34.5391 206.977 34.9297C206.643 35.3151 206.24 35.6172 205.766 35.8359C205.297 36.0495 204.766 36.1562 204.172 36.1562C203.578 36.1562 203.044 36.0495 202.57 35.8359C202.096 35.6172 201.69 35.3151 201.352 34.9297C201.018 34.5391 200.763 34.0833 200.586 33.5625C200.409 33.0417 200.32 32.4766 200.32 31.8672ZM201.766 31.6875V31.8672C201.766 32.2891 201.815 32.6875 201.914 33.0625C202.013 33.4323 202.161 33.7604 202.359 34.0469C202.562 34.3333 202.815 34.5599 203.117 34.7266C203.419 34.888 203.771 34.9688 204.172 34.9688C204.568 34.9688 204.914 34.888 205.211 34.7266C205.513 34.5599 205.763 34.3333 205.961 34.0469C206.159 33.7604 206.307 33.4323 206.406 33.0625C206.51 32.6875 206.562 32.2891 206.562 31.8672V31.6875C206.562 31.2708 206.51 30.8776 206.406 30.5078C206.307 30.1328 206.156 29.8021 205.953 29.5156C205.755 29.224 205.505 28.9948 205.203 28.8281C204.906 28.6615 204.557 28.5781 204.156 28.5781C203.76 28.5781 203.411 28.6615 203.109 28.8281C202.812 28.9948 202.562 29.224 202.359 29.5156C202.161 29.8021 202.013 30.1328 201.914 30.5078C201.815 30.8776 201.766 31.2708 201.766 31.6875ZM215.242 29.1719V39.25H213.789V27.5469H215.117L215.242 29.1719ZM220.938 31.7031V31.8672C220.938 32.4818 220.865 33.0521 220.719 33.5781C220.573 34.099 220.359 34.5521 220.078 34.9375C219.802 35.3229 219.461 35.6224 219.055 35.8359C218.648 36.0495 218.182 36.1562 217.656 36.1562C217.12 36.1562 216.646 36.0677 216.234 35.8906C215.823 35.7135 215.474 35.4557 215.188 35.1172C214.901 34.7786 214.672 34.3724 214.5 33.8984C214.333 33.4245 214.219 32.8906 214.156 32.2969V31.4219C214.219 30.7969 214.336 30.237 214.508 29.7422C214.68 29.2474 214.906 28.8255 215.188 28.4766C215.474 28.1224 215.82 27.8542 216.227 27.6719C216.633 27.4844 217.102 27.3906 217.633 27.3906C218.164 27.3906 218.635 27.4948 219.047 27.7031C219.458 27.9062 219.805 28.1979 220.086 28.5781C220.367 28.9583 220.578 29.4141 220.719 29.9453C220.865 30.4714 220.938 31.0573 220.938 31.7031ZM219.484 31.8672V31.7031C219.484 31.2812 219.44 30.8854 219.352 30.5156C219.263 30.1406 219.125 29.8125 218.938 29.5312C218.755 29.2448 218.521 29.0208 218.234 28.8594C217.948 28.6927 217.607 28.6094 217.211 28.6094C216.846 28.6094 216.529 28.6719 216.258 28.7969C215.992 28.9219 215.766 29.0911 215.578 29.3047C215.391 29.513 215.237 29.7526 215.117 30.0234C215.003 30.2891 214.917 30.5651 214.859 30.8516V32.875C214.964 33.2396 215.109 33.5833 215.297 33.9062C215.484 34.224 215.734 34.4818 216.047 34.6797C216.359 34.8724 216.753 34.9688 217.227 34.9688C217.617 34.9688 217.953 34.888 218.234 34.7266C218.521 34.5599 218.755 34.3333 218.938 34.0469C219.125 33.7604 219.263 33.4323 219.352 33.0625C219.44 32.6875 219.484 32.2891 219.484 31.8672ZM224.227 28.875V36H222.781V27.5469H224.188L224.227 28.875ZM226.867 27.5L226.859 28.8438C226.74 28.8177 226.625 28.8021 226.516 28.7969C226.411 28.7865 226.292 28.7812 226.156 28.7812C225.823 28.7812 225.529 28.8333 225.273 28.9375C225.018 29.0417 224.802 29.1875 224.625 29.375C224.448 29.5625 224.307 29.7865 224.203 30.0469C224.104 30.3021 224.039 30.5833 224.008 30.8906L223.602 31.125C223.602 30.6146 223.651 30.1354 223.75 29.6875C223.854 29.2396 224.013 28.8438 224.227 28.5C224.44 28.151 224.711 27.8802 225.039 27.6875C225.372 27.4896 225.768 27.3906 226.227 27.3906C226.331 27.3906 226.451 27.4036 226.586 27.4297C226.721 27.4505 226.815 27.474 226.867 27.5ZM227.664 31.8672V31.6875C227.664 31.0781 227.753 30.513 227.93 29.9922C228.107 29.4661 228.362 29.0104 228.695 28.625C229.029 28.2344 229.432 27.9323 229.906 27.7188C230.38 27.5 230.911 27.3906 231.5 27.3906C232.094 27.3906 232.628 27.5 233.102 27.7188C233.581 27.9323 233.987 28.2344 234.32 28.625C234.659 29.0104 234.917 29.4661 235.094 29.9922C235.271 30.513 235.359 31.0781 235.359 31.6875V31.8672C235.359 32.4766 235.271 33.0417 235.094 33.5625C234.917 34.0833 234.659 34.5391 234.32 34.9297C233.987 35.3151 233.583 35.6172 233.109 35.8359C232.641 36.0495 232.109 36.1562 231.516 36.1562C230.922 36.1562 230.388 36.0495 229.914 35.8359C229.44 35.6172 229.034 35.3151 228.695 34.9297C228.362 34.5391 228.107 34.0833 227.93 33.5625C227.753 33.0417 227.664 32.4766 227.664 31.8672ZM229.109 31.6875V31.8672C229.109 32.2891 229.159 32.6875 229.258 33.0625C229.357 33.4323 229.505 33.7604 229.703 34.0469C229.906 34.3333 230.159 34.5599 230.461 34.7266C230.763 34.888 231.115 34.9688 231.516 34.9688C231.911 34.9688 232.258 34.888 232.555 34.7266C232.857 34.5599 233.107 34.3333 233.305 34.0469C233.503 33.7604 233.651 33.4323 233.75 33.0625C233.854 32.6875 233.906 32.2891 233.906 31.8672V31.6875C233.906 31.2708 233.854 30.8776 233.75 30.5078C233.651 30.1328 233.5 29.8021 233.297 29.5156C233.099 29.224 232.849 28.9948 232.547 28.8281C232.25 28.6615 231.901 28.5781 231.5 28.5781C231.104 28.5781 230.755 28.6615 230.453 28.8281C230.156 28.9948 229.906 29.224 229.703 29.5156C229.505 29.8021 229.357 30.1328 229.258 30.5078C229.159 30.8776 229.109 31.2708 229.109 31.6875ZM242.5 34.3594V24H243.953V36H242.625L242.5 34.3594ZM236.812 31.8672V31.7031C236.812 31.0573 236.891 30.4714 237.047 29.9453C237.208 29.4141 237.435 28.9583 237.727 28.5781C238.023 28.1979 238.375 27.9062 238.781 27.7031C239.193 27.4948 239.651 27.3906 240.156 27.3906C240.688 27.3906 241.151 27.4844 241.547 27.6719C241.948 27.8542 242.286 28.1224 242.562 28.4766C242.844 28.8255 243.065 29.2474 243.227 29.7422C243.388 30.237 243.5 30.7969 243.562 31.4219V32.1406C243.505 32.7604 243.393 33.3177 243.227 33.8125C243.065 34.3073 242.844 34.7292 242.562 35.0781C242.286 35.4271 241.948 35.6953 241.547 35.8828C241.146 36.0651 240.677 36.1562 240.141 36.1562C239.646 36.1562 239.193 36.0495 238.781 35.8359C238.375 35.6224 238.023 35.3229 237.727 34.9375C237.435 34.5521 237.208 34.099 237.047 33.5781C236.891 33.0521 236.812 32.4818 236.812 31.8672ZM238.266 31.7031V31.8672C238.266 32.2891 238.307 32.6849 238.391 33.0547C238.479 33.4245 238.615 33.75 238.797 34.0312C238.979 34.3125 239.211 34.5339 239.492 34.6953C239.773 34.8516 240.109 34.9297 240.5 34.9297C240.979 34.9297 241.372 34.8281 241.68 34.625C241.992 34.4219 242.242 34.1536 242.43 33.8203C242.617 33.487 242.763 33.125 242.867 32.7344V30.8516C242.805 30.5651 242.714 30.2891 242.594 30.0234C242.479 29.7526 242.328 29.513 242.141 29.3047C241.958 29.0911 241.732 28.9219 241.461 28.7969C241.195 28.6719 240.88 28.6094 240.516 28.6094C240.12 28.6094 239.779 28.6927 239.492 28.8594C239.211 29.0208 238.979 29.2448 238.797 29.5312C238.615 29.8125 238.479 30.1406 238.391 30.5156C238.307 30.8854 238.266 31.2812 238.266 31.7031ZM251.375 34.0469V27.5469H252.828V36H251.445L251.375 34.0469ZM251.648 32.2656L252.25 32.25C252.25 32.8125 252.19 33.3333 252.07 33.8125C251.956 34.2865 251.768 34.6979 251.508 35.0469C251.247 35.3958 250.906 35.6693 250.484 35.8672C250.062 36.0599 249.549 36.1562 248.945 36.1562C248.534 36.1562 248.156 36.0964 247.812 35.9766C247.474 35.8568 247.182 35.6719 246.938 35.4219C246.693 35.1719 246.503 34.8464 246.367 34.4453C246.237 34.0443 246.172 33.5625 246.172 33V27.5469H247.617V33.0156C247.617 33.3958 247.659 33.7109 247.742 33.9609C247.831 34.2057 247.948 34.401 248.094 34.5469C248.245 34.6875 248.411 34.7865 248.594 34.8438C248.781 34.901 248.974 34.9297 249.172 34.9297C249.786 34.9297 250.273 34.8125 250.633 34.5781C250.992 34.3385 251.25 34.0182 251.406 33.6172C251.568 33.2109 251.648 32.7604 251.648 32.2656ZM258.414 34.9688C258.758 34.9688 259.076 34.8984 259.367 34.7578C259.659 34.6172 259.898 34.4245 260.086 34.1797C260.273 33.9297 260.38 33.6458 260.406 33.3281H261.781C261.755 33.8281 261.586 34.2943 261.273 34.7266C260.966 35.1536 260.562 35.5 260.062 35.7656C259.562 36.026 259.013 36.1562 258.414 36.1562C257.779 36.1562 257.224 36.0443 256.75 35.8203C256.281 35.5964 255.891 35.2891 255.578 34.8984C255.271 34.5078 255.039 34.0599 254.883 33.5547C254.732 33.0443 254.656 32.5052 254.656 31.9375V31.6094C254.656 31.0417 254.732 30.5052 254.883 30C255.039 29.4896 255.271 29.0391 255.578 28.6484C255.891 28.2578 256.281 27.9505 256.75 27.7266C257.224 27.5026 257.779 27.3906 258.414 27.3906C259.076 27.3906 259.654 27.526 260.148 27.7969C260.643 28.0625 261.031 28.4271 261.312 28.8906C261.599 29.349 261.755 29.8698 261.781 30.4531H260.406C260.38 30.1042 260.281 29.7891 260.109 29.5078C259.943 29.2266 259.714 29.0026 259.422 28.8359C259.135 28.6641 258.799 28.5781 258.414 28.5781C257.971 28.5781 257.599 28.6667 257.297 28.8438C257 29.0156 256.763 29.25 256.586 29.5469C256.414 29.8385 256.289 30.1641 256.211 30.5234C256.138 30.8776 256.102 31.2396 256.102 31.6094V31.9375C256.102 32.3073 256.138 32.6719 256.211 33.0312C256.284 33.3906 256.406 33.7161 256.578 34.0078C256.755 34.2995 256.992 34.5339 257.289 34.7109C257.591 34.8828 257.966 34.9688 258.414 34.9688ZM266.945 27.5469V28.6562H262.375V27.5469H266.945ZM263.922 25.4922H265.367V33.9062C265.367 34.1927 265.411 34.4089 265.5 34.5547C265.589 34.7005 265.703 34.7969 265.844 34.8438C265.984 34.8906 266.135 34.9141 266.297 34.9141C266.417 34.9141 266.542 34.9036 266.672 34.8828C266.807 34.8568 266.909 34.8359 266.977 34.8203L266.984 36C266.87 36.0365 266.719 36.0703 266.531 36.1016C266.349 36.138 266.128 36.1562 265.867 36.1562C265.513 36.1562 265.188 36.0859 264.891 35.9453C264.594 35.8047 264.357 35.5703 264.18 35.2422C264.008 34.9089 263.922 34.4609 263.922 33.8984V25.4922ZM274.055 28.875V36H272.609V27.5469H274.016L274.055 28.875ZM276.695 27.5L276.688 28.8438C276.568 28.8177 276.453 28.8021 276.344 28.7969C276.24 28.7865 276.12 28.7812 275.984 28.7812C275.651 28.7812 275.357 28.8333 275.102 28.9375C274.846 29.0417 274.63 29.1875 274.453 29.375C274.276 29.5625 274.135 29.7865 274.031 30.0469C273.932 30.3021 273.867 30.5833 273.836 30.8906L273.43 31.125C273.43 30.6146 273.479 30.1354 273.578 29.6875C273.682 29.2396 273.841 28.8438 274.055 28.5C274.268 28.151 274.539 27.8802 274.867 27.6875C275.201 27.4896 275.596 27.3906 276.055 27.3906C276.159 27.3906 276.279 27.4036 276.414 27.4297C276.549 27.4505 276.643 27.474 276.695 27.5ZM277.492 31.8672V31.6875C277.492 31.0781 277.581 30.513 277.758 29.9922C277.935 29.4661 278.19 29.0104 278.523 28.625C278.857 28.2344 279.26 27.9323 279.734 27.7188C280.208 27.5 280.74 27.3906 281.328 27.3906C281.922 27.3906 282.456 27.5 282.93 27.7188C283.409 27.9323 283.815 28.2344 284.148 28.625C284.487 29.0104 284.745 29.4661 284.922 29.9922C285.099 30.513 285.188 31.0781 285.188 31.6875V31.8672C285.188 32.4766 285.099 33.0417 284.922 33.5625C284.745 34.0833 284.487 34.5391 284.148 34.9297C283.815 35.3151 283.411 35.6172 282.938 35.8359C282.469 36.0495 281.938 36.1562 281.344 36.1562C280.75 36.1562 280.216 36.0495 279.742 35.8359C279.268 35.6172 278.862 35.3151 278.523 34.9297C278.19 34.5391 277.935 34.0833 277.758 33.5625C277.581 33.0417 277.492 32.4766 277.492 31.8672ZM278.938 31.6875V31.8672C278.938 32.2891 278.987 32.6875 279.086 33.0625C279.185 33.4323 279.333 33.7604 279.531 34.0469C279.734 34.3333 279.987 34.5599 280.289 34.7266C280.591 34.888 280.943 34.9688 281.344 34.9688C281.74 34.9688 282.086 34.888 282.383 34.7266C282.685 34.5599 282.935 34.3333 283.133 34.0469C283.331 33.7604 283.479 33.4323 283.578 33.0625C283.682 32.6875 283.734 32.2891 283.734 31.8672V31.6875C283.734 31.2708 283.682 30.8776 283.578 30.5078C283.479 30.1328 283.328 29.8021 283.125 29.5156C282.927 29.224 282.677 28.9948 282.375 28.8281C282.078 28.6615 281.729 28.5781 281.328 28.5781C280.932 28.5781 280.583 28.6615 280.281 28.8281C279.984 28.9948 279.734 29.224 279.531 29.5156C279.333 29.8021 279.185 30.1328 279.086 30.5078C278.987 30.8776 278.938 31.2708 278.938 31.6875ZM291.984 34.5547V30.2031C291.984 29.8698 291.917 29.5807 291.781 29.3359C291.651 29.0859 291.453 28.8932 291.188 28.7578C290.922 28.6224 290.594 28.5547 290.203 28.5547C289.839 28.5547 289.518 28.6172 289.242 28.7422C288.971 28.8672 288.758 29.0312 288.602 29.2344C288.451 29.4375 288.375 29.6562 288.375 29.8906H286.93C286.93 29.5885 287.008 29.2891 287.164 28.9922C287.32 28.6953 287.544 28.4271 287.836 28.1875C288.133 27.9427 288.487 27.75 288.898 27.6094C289.315 27.4635 289.779 27.3906 290.289 27.3906C290.904 27.3906 291.445 27.4948 291.914 27.7031C292.388 27.9115 292.758 28.2266 293.023 28.6484C293.294 29.0651 293.43 29.5885 293.43 30.2188V34.1562C293.43 34.4375 293.453 34.737 293.5 35.0547C293.552 35.3724 293.628 35.6458 293.727 35.875V36H292.219C292.146 35.8333 292.089 35.612 292.047 35.3359C292.005 35.0547 291.984 34.7943 291.984 34.5547ZM292.234 30.875L292.25 31.8906H290.789C290.378 31.8906 290.01 31.9245 289.688 31.9922C289.365 32.0547 289.094 32.151 288.875 32.2812C288.656 32.4115 288.49 32.5755 288.375 32.7734C288.26 32.9661 288.203 33.1927 288.203 33.4531C288.203 33.7188 288.263 33.9609 288.383 34.1797C288.503 34.3984 288.682 34.5729 288.922 34.7031C289.167 34.8281 289.466 34.8906 289.82 34.8906C290.263 34.8906 290.654 34.7969 290.992 34.6094C291.331 34.4219 291.599 34.1927 291.797 33.9219C292 33.651 292.109 33.388 292.125 33.1328L292.742 33.8281C292.706 34.0469 292.607 34.2891 292.445 34.5547C292.284 34.8203 292.068 35.0755 291.797 35.3203C291.531 35.5599 291.214 35.7604 290.844 35.9219C290.479 36.0781 290.068 36.1562 289.609 36.1562C289.036 36.1562 288.534 36.0443 288.102 35.8203C287.674 35.5964 287.341 35.2969 287.102 34.9219C286.867 34.5417 286.75 34.1172 286.75 33.6484C286.75 33.1953 286.839 32.7969 287.016 32.4531C287.193 32.1042 287.448 31.8151 287.781 31.5859C288.115 31.3516 288.516 31.1745 288.984 31.0547C289.453 30.9349 289.977 30.875 290.555 30.875H292.234ZM301.031 34.3594V24H302.484V36H301.156L301.031 34.3594ZM295.344 31.8672V31.7031C295.344 31.0573 295.422 30.4714 295.578 29.9453C295.74 29.4141 295.966 28.9583 296.258 28.5781C296.555 28.1979 296.906 27.9062 297.312 27.7031C297.724 27.4948 298.182 27.3906 298.688 27.3906C299.219 27.3906 299.682 27.4844 300.078 27.6719C300.479 27.8542 300.818 28.1224 301.094 28.4766C301.375 28.8255 301.596 29.2474 301.758 29.7422C301.919 30.237 302.031 30.7969 302.094 31.4219V32.1406C302.036 32.7604 301.924 33.3177 301.758 33.8125C301.596 34.3073 301.375 34.7292 301.094 35.0781C300.818 35.4271 300.479 35.6953 300.078 35.8828C299.677 36.0651 299.208 36.1562 298.672 36.1562C298.177 36.1562 297.724 36.0495 297.312 35.8359C296.906 35.6224 296.555 35.3229 296.258 34.9375C295.966 34.5521 295.74 34.099 295.578 33.5781C295.422 33.0521 295.344 32.4818 295.344 31.8672ZM296.797 31.7031V31.8672C296.797 32.2891 296.839 32.6849 296.922 33.0547C297.01 33.4245 297.146 33.75 297.328 34.0312C297.51 34.3125 297.742 34.5339 298.023 34.6953C298.305 34.8516 298.641 34.9297 299.031 34.9297C299.51 34.9297 299.904 34.8281 300.211 34.625C300.523 34.4219 300.773 34.1536 300.961 33.8203C301.148 33.487 301.294 33.125 301.398 32.7344V30.8516C301.336 30.5651 301.245 30.2891 301.125 30.0234C301.01 29.7526 300.859 29.513 300.672 29.3047C300.49 29.0911 300.263 28.9219 299.992 28.7969C299.727 28.6719 299.411 28.6094 299.047 28.6094C298.651 28.6094 298.31 28.6927 298.023 28.8594C297.742 29.0208 297.51 29.2448 297.328 29.5312C297.146 29.8125 297.01 30.1406 296.922 30.5156C296.839 30.8854 296.797 31.2812 296.797 31.7031ZM306.172 29.2266V36H304.719V27.5469H306.094L306.172 29.2266ZM305.875 31.4531L305.203 31.4297C305.208 30.8516 305.284 30.3177 305.43 29.8281C305.576 29.3333 305.792 28.9036 306.078 28.5391C306.365 28.1745 306.721 27.8932 307.148 27.6953C307.576 27.4922 308.07 27.3906 308.633 27.3906C309.029 27.3906 309.393 27.4479 309.727 27.5625C310.06 27.6719 310.349 27.8464 310.594 28.0859C310.839 28.3255 311.029 28.6328 311.164 29.0078C311.299 29.3828 311.367 29.8359 311.367 30.3672V36H309.922V30.4375C309.922 29.9948 309.846 29.6406 309.695 29.375C309.549 29.1094 309.341 28.9167 309.07 28.7969C308.799 28.6719 308.482 28.6094 308.117 28.6094C307.69 28.6094 307.333 28.6849 307.047 28.8359C306.76 28.987 306.531 29.1953 306.359 29.4609C306.188 29.7266 306.062 30.0312 305.984 30.375C305.911 30.7135 305.875 31.0729 305.875 31.4531ZM311.352 30.6562L310.383 30.9531C310.388 30.4896 310.464 30.0443 310.609 29.6172C310.76 29.1901 310.977 28.8099 311.258 28.4766C311.544 28.1432 311.896 27.8802 312.312 27.6875C312.729 27.4896 313.206 27.3906 313.742 27.3906C314.195 27.3906 314.596 27.4505 314.945 27.5703C315.299 27.6901 315.596 27.875 315.836 28.125C316.081 28.3698 316.266 28.6849 316.391 29.0703C316.516 29.4557 316.578 29.9141 316.578 30.4453V36H315.125V30.4297C315.125 29.9557 315.049 29.5885 314.898 29.3281C314.753 29.0625 314.544 28.8776 314.273 28.7734C314.008 28.6641 313.69 28.6094 313.32 28.6094C313.003 28.6094 312.721 28.6641 312.477 28.7734C312.232 28.8828 312.026 29.0339 311.859 29.2266C311.693 29.4141 311.565 29.6302 311.477 29.875C311.393 30.1198 311.352 30.3802 311.352 30.6562ZM323.75 34.5547V30.2031C323.75 29.8698 323.682 29.5807 323.547 29.3359C323.417 29.0859 323.219 28.8932 322.953 28.7578C322.688 28.6224 322.359 28.5547 321.969 28.5547C321.604 28.5547 321.284 28.6172 321.008 28.7422C320.737 28.8672 320.523 29.0312 320.367 29.2344C320.216 29.4375 320.141 29.6562 320.141 29.8906H318.695C318.695 29.5885 318.773 29.2891 318.93 28.9922C319.086 28.6953 319.31 28.4271 319.602 28.1875C319.898 27.9427 320.253 27.75 320.664 27.6094C321.081 27.4635 321.544 27.3906 322.055 27.3906C322.669 27.3906 323.211 27.4948 323.68 27.7031C324.154 27.9115 324.523 28.2266 324.789 28.6484C325.06 29.0651 325.195 29.5885 325.195 30.2188V34.1562C325.195 34.4375 325.219 34.737 325.266 35.0547C325.318 35.3724 325.393 35.6458 325.492 35.875V36H323.984C323.911 35.8333 323.854 35.612 323.812 35.3359C323.771 35.0547 323.75 34.7943 323.75 34.5547ZM324 30.875L324.016 31.8906H322.555C322.143 31.8906 321.776 31.9245 321.453 31.9922C321.13 32.0547 320.859 32.151 320.641 32.2812C320.422 32.4115 320.255 32.5755 320.141 32.7734C320.026 32.9661 319.969 33.1927 319.969 33.4531C319.969 33.7188 320.029 33.9609 320.148 34.1797C320.268 34.3984 320.448 34.5729 320.688 34.7031C320.932 34.8281 321.232 34.8906 321.586 34.8906C322.029 34.8906 322.419 34.7969 322.758 34.6094C323.096 34.4219 323.365 34.1927 323.562 33.9219C323.766 33.651 323.875 33.388 323.891 33.1328L324.508 33.8281C324.471 34.0469 324.372 34.2891 324.211 34.5547C324.049 34.8203 323.833 35.0755 323.562 35.3203C323.297 35.5599 322.979 35.7604 322.609 35.9219C322.245 36.0781 321.833 36.1562 321.375 36.1562C320.802 36.1562 320.299 36.0443 319.867 35.8203C319.44 35.5964 319.107 35.2969 318.867 34.9219C318.633 34.5417 318.516 34.1172 318.516 33.6484C318.516 33.1953 318.604 32.7969 318.781 32.4531C318.958 32.1042 319.214 31.8151 319.547 31.5859C319.88 31.3516 320.281 31.1745 320.75 31.0547C321.219 30.9349 321.742 30.875 322.32 30.875H324ZM328.914 29.1719V39.25H327.461V27.5469H328.789L328.914 29.1719ZM334.609 31.7031V31.8672C334.609 32.4818 334.536 33.0521 334.391 33.5781C334.245 34.099 334.031 34.5521 333.75 34.9375C333.474 35.3229 333.133 35.6224 332.727 35.8359C332.32 36.0495 331.854 36.1562 331.328 36.1562C330.792 36.1562 330.318 36.0677 329.906 35.8906C329.495 35.7135 329.146 35.4557 328.859 35.1172C328.573 34.7786 328.344 34.3724 328.172 33.8984C328.005 33.4245 327.891 32.8906 327.828 32.2969V31.4219C327.891 30.7969 328.008 30.237 328.18 29.7422C328.352 29.2474 328.578 28.8255 328.859 28.4766C329.146 28.1224 329.492 27.8542 329.898 27.6719C330.305 27.4844 330.773 27.3906 331.305 27.3906C331.836 27.3906 332.307 27.4948 332.719 27.7031C333.13 27.9062 333.477 28.1979 333.758 28.5781C334.039 28.9583 334.25 29.4141 334.391 29.9453C334.536 30.4714 334.609 31.0573 334.609 31.7031ZM333.156 31.8672V31.7031C333.156 31.2812 333.112 30.8854 333.023 30.5156C332.935 30.1406 332.797 29.8125 332.609 29.5312C332.427 29.2448 332.193 29.0208 331.906 28.8594C331.62 28.6927 331.279 28.6094 330.883 28.6094C330.518 28.6094 330.201 28.6719 329.93 28.7969C329.664 28.9219 329.438 29.0911 329.25 29.3047C329.062 29.513 328.909 29.7526 328.789 30.0234C328.674 30.2891 328.589 30.5651 328.531 30.8516V32.875C328.635 33.2396 328.781 33.5833 328.969 33.9062C329.156 34.224 329.406 34.4818 329.719 34.6797C330.031 34.8724 330.424 34.9688 330.898 34.9688C331.289 34.9688 331.625 34.888 331.906 34.7266C332.193 34.5599 332.427 34.3333 332.609 34.0469C332.797 33.7604 332.935 33.4323 333.023 33.0625C333.112 32.6875 333.156 32.2891 333.156 31.8672ZM341.375 33.7578C341.375 33.5495 341.328 33.3568 341.234 33.1797C341.146 32.9974 340.961 32.8333 340.68 32.6875C340.404 32.5365 339.987 32.4062 339.43 32.2969C338.961 32.1979 338.536 32.0807 338.156 31.9453C337.781 31.8099 337.461 31.6458 337.195 31.4531C336.935 31.2604 336.734 31.0339 336.594 30.7734C336.453 30.513 336.383 30.2083 336.383 29.8594C336.383 29.526 336.456 29.2109 336.602 28.9141C336.753 28.6172 336.964 28.3542 337.234 28.125C337.51 27.8958 337.841 27.7161 338.227 27.5859C338.612 27.4557 339.042 27.3906 339.516 27.3906C340.193 27.3906 340.771 27.5104 341.25 27.75C341.729 27.9896 342.096 28.3099 342.352 28.7109C342.607 29.1068 342.734 29.5469 342.734 30.0312H341.289C341.289 29.7969 341.219 29.5703 341.078 29.3516C340.943 29.1276 340.742 28.9427 340.477 28.7969C340.216 28.651 339.896 28.5781 339.516 28.5781C339.115 28.5781 338.789 28.6406 338.539 28.7656C338.294 28.8854 338.115 29.0391 338 29.2266C337.891 29.4141 337.836 29.612 337.836 29.8203C337.836 29.9766 337.862 30.1172 337.914 30.2422C337.971 30.362 338.07 30.474 338.211 30.5781C338.352 30.6771 338.549 30.7708 338.805 30.8594C339.06 30.9479 339.385 31.0365 339.781 31.125C340.474 31.2812 341.044 31.4688 341.492 31.6875C341.94 31.9062 342.273 32.1745 342.492 32.4922C342.711 32.8099 342.82 33.1953 342.82 33.6484C342.82 34.0182 342.742 34.3568 342.586 34.6641C342.435 34.9714 342.214 35.237 341.922 35.4609C341.635 35.6797 341.292 35.8516 340.891 35.9766C340.495 36.0964 340.049 36.1562 339.555 36.1562C338.81 36.1562 338.18 36.0234 337.664 35.7578C337.148 35.4922 336.758 35.1484 336.492 34.7266C336.227 34.3047 336.094 33.8594 336.094 33.3906H337.547C337.568 33.7865 337.682 34.1016 337.891 34.3359C338.099 34.5651 338.354 34.7292 338.656 34.8281C338.958 34.9219 339.258 34.9688 339.555 34.9688C339.951 34.9688 340.281 34.9167 340.547 34.8125C340.818 34.7083 341.023 34.5651 341.164 34.3828C341.305 34.2005 341.375 33.9922 341.375 33.7578Z" fill="#2D3139"/>
</g>
<defs>
<filter id="filter0_di_7916_14660" x="0" y="0" width="472" height="66" filterUnits="userSpaceOnUse" color-interpolation-filters="sRGB">
<feFlood flood-opacity="0" result="BackgroundImageFix"/>
<feColorMatrix in="SourceAlpha" type="matrix" values="0 0 0 0 0 0 0 0 0 0 0 0 0 0 0 0 0 0 127 0" result="hardAlpha"/>
<feOffset dy="1"/>
<feGaussianBlur stdDeviation="1.5"/>
<feComposite in2="hardAlpha" operator="out"/>
<feColorMatrix type="matrix" values="0 0 0 0 0.121569 0 0 0 0 0.133333 0 0 0 0 0.160784 0 0 0 0.08 0"/>
<feBlend mode="normal" in2="BackgroundImageFix" result="effect1_dropShadow_7916_14660"/>
<feBlend mode="normal" in="SourceGraphic" in2="effect1_dropShadow_7916_14660" result="shape"/>
<feColorMatrix in="SourceAlpha" type="matrix" values="0 0 0 0 0 0 0 0 0 0 0 0 0 0 0 0 0 0 127 0" result="hardAlpha"/>
<feMorphology radius="1" operator="erode" in="SourceAlpha" result="effect2_innerShadow_7916_14660"/>
<feOffset/>
<feComposite in2="hardAlpha" operator="arithmetic" k2="-1" k3="1"/>
<feColorMatrix type="matrix" values="0 0 0 0 0.882353 0 0 0 0 0.898039 0 0 0 0 0.921569 0 0 0 1 0"/>
<feBlend mode="normal" in2="shape" result="effect2_innerShadow_7916_14660"/>
</filter>
<clipPath id="clip0_7916_14660">
<rect width="26" height="26" fill="white" transform="translate(20 19)"/>
</clipPath>
</defs>
</svg>
