<svg width="472" height="66" viewBox="0 0 472 66" fill="none" xmlns="http://www.w3.org/2000/svg">
<g filter="url(#filter0_di_7916_14802)">
<rect x="3" y="2" width="466" height="60" rx="4" fill="white"/>
<path d="M26.0166 24.5975L32.0334 28.6091C32.3303 28.8069 32.5737 29.0749 32.7421 29.3894C32.9105 29.7039 32.9986 30.0551 32.9987 30.4118V41.7489C32.9987 41.945 32.9455 42.1375 32.8447 42.3057C32.7439 42.474 32.5994 42.6117 32.4264 42.7042C32.2535 42.7968 32.0587 42.8406 31.8628 42.8311C31.6669 42.8216 31.4773 42.759 31.3141 42.6502L25.2973 38.6397C25.0003 38.4418 24.7568 38.1736 24.5884 37.8589C24.42 37.5442 24.3319 37.1928 24.332 36.8359V25.4989C24.332 25.3027 24.3852 25.1103 24.486 24.942C24.5868 24.7738 24.7314 24.636 24.9043 24.5435C25.0772 24.451 25.272 24.4071 25.4679 24.4166C25.6638 24.4262 25.8535 24.4887 26.0166 24.5975ZM29.2374 22.3767C29.4103 22.2841 29.6052 22.2403 29.8012 22.2498C29.9971 22.2594 30.1868 22.3219 30.3499 22.4309L36.3668 26.4424C36.6636 26.6402 36.9071 26.9083 37.0754 27.2227C37.2438 27.5372 37.332 27.8884 37.332 28.2451V39.5822C37.3321 39.7783 37.2788 39.9708 37.1781 40.139C37.0773 40.3073 36.9327 40.445 36.7598 40.5376C36.5868 40.6301 36.392 40.6739 36.1961 40.6644C36.0002 40.6549 35.8106 40.5924 35.6474 40.4835L34.6237 39.801V30.4118C34.6236 29.7876 34.4694 29.173 34.1748 28.6227C33.8802 28.0724 33.4542 27.6033 32.9348 27.2571L28.6654 24.4101V23.3322C28.6653 23.1361 28.7185 22.9436 28.8192 22.7753C28.9199 22.607 29.0645 22.4693 29.2374 22.3767ZM34.6833 20.2642L40.7001 24.2758C40.997 24.4736 41.2404 24.7416 41.4088 25.0561C41.5772 25.3705 41.6653 25.7217 41.6654 26.0784V37.4155C41.6654 37.6117 41.6122 37.8041 41.5114 37.9724C41.4106 38.1406 41.266 38.2784 41.0931 38.3709C40.9202 38.4634 40.7254 38.5073 40.5295 38.4977C40.3336 38.4882 40.1439 38.4257 39.9808 38.3169L38.957 37.6344V28.2451C38.9569 27.6209 38.8027 27.0063 38.5081 26.456C38.2135 25.9057 37.7876 25.4366 37.2681 25.0904L32.9987 22.2434V21.1655C32.9987 20.9694 33.0519 20.7769 33.1527 20.6087C33.2535 20.4404 33.398 20.3027 33.571 20.2102C33.7439 20.1176 33.9387 20.0738 34.1346 20.0833C34.3305 20.0928 34.5201 20.1553 34.6833 20.2642Z" fill="#282828"/>
<path d="M72.5469 25.6328L68.7812 36H67.2422L71.5781 24.625H72.5703L72.5469 25.6328ZM75.7031 36L71.9297 25.6328L71.9062 24.625H72.8984L77.25 36H75.7031ZM75.5078 31.7891V33.0234H69.1172V31.7891H75.5078ZM80.125 24V36H78.6719V24H80.125ZM84.0156 27.5469V36H82.5625V27.5469H84.0156ZM82.4531 25.3047C82.4531 25.0703 82.5234 24.8724 82.6641 24.7109C82.8099 24.5495 83.0234 24.4688 83.3047 24.4688C83.5807 24.4688 83.7917 24.5495 83.9375 24.7109C84.0885 24.8724 84.1641 25.0703 84.1641 25.3047C84.1641 25.5286 84.0885 25.7214 83.9375 25.8828C83.7917 26.0391 83.5807 26.1172 83.3047 26.1172C83.0234 26.1172 82.8099 26.0391 82.6641 25.8828C82.5234 25.7214 82.4531 25.5286 82.4531 25.3047ZM91.8125 27.5469H93.125V35.8203C93.125 36.5651 92.974 37.2005 92.6719 37.7266C92.3698 38.2526 91.9479 38.651 91.4062 38.9219C90.8698 39.1979 90.25 39.3359 89.5469 39.3359C89.2552 39.3359 88.9115 39.2891 88.5156 39.1953C88.125 39.1068 87.7396 38.9531 87.3594 38.7344C86.9844 38.5208 86.6693 38.2318 86.4141 37.8672L87.1719 37.0078C87.526 37.4349 87.8958 37.7318 88.2812 37.8984C88.6719 38.0651 89.0573 38.1484 89.4375 38.1484C89.8958 38.1484 90.2917 38.0625 90.625 37.8906C90.9583 37.7188 91.2161 37.4635 91.3984 37.125C91.5859 36.7917 91.6797 36.3802 91.6797 35.8906V29.4062L91.8125 27.5469ZM85.9922 31.8672V31.7031C85.9922 31.0573 86.0677 30.4714 86.2188 29.9453C86.375 29.4141 86.5964 28.9583 86.8828 28.5781C87.1745 28.1979 87.526 27.9062 87.9375 27.7031C88.349 27.4948 88.8125 27.3906 89.3281 27.3906C89.8594 27.3906 90.3229 27.4844 90.7188 27.6719C91.1198 27.8542 91.4583 28.1224 91.7344 28.4766C92.0156 28.8255 92.237 29.2474 92.3984 29.7422C92.5599 30.237 92.6719 30.7969 92.7344 31.4219V32.1406C92.6771 32.7604 92.5651 33.3177 92.3984 33.8125C92.237 34.3073 92.0156 34.7292 91.7344 35.0781C91.4583 35.4271 91.1198 35.6953 90.7188 35.8828C90.3177 36.0651 89.849 36.1562 89.3125 36.1562C88.8073 36.1562 88.349 36.0495 87.9375 35.8359C87.5312 35.6224 87.1823 35.3229 86.8906 34.9375C86.599 34.5521 86.375 34.099 86.2188 33.5781C86.0677 33.0521 85.9922 32.4818 85.9922 31.8672ZM87.4375 31.7031V31.8672C87.4375 32.2891 87.4792 32.6849 87.5625 33.0547C87.651 33.4245 87.7839 33.75 87.9609 34.0312C88.1432 34.3125 88.375 34.5339 88.6562 34.6953C88.9375 34.8516 89.2734 34.9297 89.6641 34.9297C90.1432 34.9297 90.5391 34.8281 90.8516 34.625C91.1641 34.4219 91.4115 34.1536 91.5938 33.8203C91.7812 33.487 91.9271 33.125 92.0312 32.7344V30.8516C91.974 30.5651 91.8854 30.2891 91.7656 30.0234C91.651 29.7526 91.5 29.513 91.3125 29.3047C91.1302 29.0911 90.9036 28.9219 90.6328 28.7969C90.362 28.6719 90.0443 28.6094 89.6797 28.6094C89.2839 28.6094 88.9427 28.6927 88.6562 28.8594C88.375 29.0208 88.1432 29.2448 87.9609 29.5312C87.7839 29.8125 87.651 30.1406 87.5625 30.5156C87.4792 30.8854 87.4375 31.2812 87.4375 31.7031ZM96.7656 29.3516V36H95.3203V27.5469H96.6875L96.7656 29.3516ZM96.4219 31.4531L95.8203 31.4297C95.8255 30.8516 95.9115 30.3177 96.0781 29.8281C96.2448 29.3333 96.4792 28.9036 96.7812 28.5391C97.0833 28.1745 97.4427 27.8932 97.8594 27.6953C98.2812 27.4922 98.7474 27.3906 99.2578 27.3906C99.6745 27.3906 100.049 27.4479 100.383 27.5625C100.716 27.6719 101 27.849 101.234 28.0938C101.474 28.3385 101.656 28.6562 101.781 29.0469C101.906 29.4323 101.969 29.9036 101.969 30.4609V36H100.516V30.4453C100.516 30.0026 100.451 29.6484 100.32 29.3828C100.19 29.112 100 28.9167 99.75 28.7969C99.5 28.6719 99.1927 28.6094 98.8281 28.6094C98.4688 28.6094 98.1406 28.6849 97.8438 28.8359C97.5521 28.987 97.2995 29.1953 97.0859 29.4609C96.8776 29.7266 96.7135 30.0312 96.5938 30.375C96.4792 30.7135 96.4219 31.0729 96.4219 31.4531ZM113.461 34.3594V24H114.914V36H113.586L113.461 34.3594ZM107.773 31.8672V31.7031C107.773 31.0573 107.852 30.4714 108.008 29.9453C108.169 29.4141 108.396 28.9583 108.688 28.5781C108.984 28.1979 109.336 27.9062 109.742 27.7031C110.154 27.4948 110.612 27.3906 111.117 27.3906C111.648 27.3906 112.112 27.4844 112.508 27.6719C112.909 27.8542 113.247 28.1224 113.523 28.4766C113.805 28.8255 114.026 29.2474 114.188 29.7422C114.349 30.237 114.461 30.7969 114.523 31.4219V32.1406C114.466 32.7604 114.354 33.3177 114.188 33.8125C114.026 34.3073 113.805 34.7292 113.523 35.0781C113.247 35.4271 112.909 35.6953 112.508 35.8828C112.107 36.0651 111.638 36.1562 111.102 36.1562C110.607 36.1562 110.154 36.0495 109.742 35.8359C109.336 35.6224 108.984 35.3229 108.688 34.9375C108.396 34.5521 108.169 34.099 108.008 33.5781C107.852 33.0521 107.773 32.4818 107.773 31.8672ZM109.227 31.7031V31.8672C109.227 32.2891 109.268 32.6849 109.352 33.0547C109.44 33.4245 109.576 33.75 109.758 34.0312C109.94 34.3125 110.172 34.5339 110.453 34.6953C110.734 34.8516 111.07 34.9297 111.461 34.9297C111.94 34.9297 112.333 34.8281 112.641 34.625C112.953 34.4219 113.203 34.1536 113.391 33.8203C113.578 33.487 113.724 33.125 113.828 32.7344V30.8516C113.766 30.5651 113.674 30.2891 113.555 30.0234C113.44 29.7526 113.289 29.513 113.102 29.3047C112.919 29.0911 112.693 28.9219 112.422 28.7969C112.156 28.6719 111.841 28.6094 111.477 28.6094C111.081 28.6094 110.74 28.6927 110.453 28.8594C110.172 29.0208 109.94 29.2448 109.758 29.5312C109.576 29.8125 109.44 30.1406 109.352 30.5156C109.268 30.8854 109.227 31.2812 109.227 31.7031ZM122.148 34.5547V30.2031C122.148 29.8698 122.081 29.5807 121.945 29.3359C121.815 29.0859 121.617 28.8932 121.352 28.7578C121.086 28.6224 120.758 28.5547 120.367 28.5547C120.003 28.5547 119.682 28.6172 119.406 28.7422C119.135 28.8672 118.922 29.0312 118.766 29.2344C118.615 29.4375 118.539 29.6562 118.539 29.8906H117.094C117.094 29.5885 117.172 29.2891 117.328 28.9922C117.484 28.6953 117.708 28.4271 118 28.1875C118.297 27.9427 118.651 27.75 119.062 27.6094C119.479 27.4635 119.943 27.3906 120.453 27.3906C121.068 27.3906 121.609 27.4948 122.078 27.7031C122.552 27.9115 122.922 28.2266 123.188 28.6484C123.458 29.0651 123.594 29.5885 123.594 30.2188V34.1562C123.594 34.4375 123.617 34.737 123.664 35.0547C123.716 35.3724 123.792 35.6458 123.891 35.875V36H122.383C122.31 35.8333 122.253 35.612 122.211 35.3359C122.169 35.0547 122.148 34.7943 122.148 34.5547ZM122.398 30.875L122.414 31.8906H120.953C120.542 31.8906 120.174 31.9245 119.852 31.9922C119.529 32.0547 119.258 32.151 119.039 32.2812C118.82 32.4115 118.654 32.5755 118.539 32.7734C118.424 32.9661 118.367 33.1927 118.367 33.4531C118.367 33.7188 118.427 33.9609 118.547 34.1797C118.667 34.3984 118.846 34.5729 119.086 34.7031C119.331 34.8281 119.63 34.8906 119.984 34.8906C120.427 34.8906 120.818 34.7969 121.156 34.6094C121.495 34.4219 121.763 34.1927 121.961 33.9219C122.164 33.651 122.273 33.388 122.289 33.1328L122.906 33.8281C122.87 34.0469 122.771 34.2891 122.609 34.5547C122.448 34.8203 122.232 35.0755 121.961 35.3203C121.695 35.5599 121.378 35.7604 121.008 35.9219C120.643 36.0781 120.232 36.1562 119.773 36.1562C119.201 36.1562 118.698 36.0443 118.266 35.8203C117.839 35.5964 117.505 35.2969 117.266 34.9219C117.031 34.5417 116.914 34.1172 116.914 33.6484C116.914 33.1953 117.003 32.7969 117.18 32.4531C117.357 32.1042 117.612 31.8151 117.945 31.5859C118.279 31.3516 118.68 31.1745 119.148 31.0547C119.617 30.9349 120.141 30.875 120.719 30.875H122.398ZM129.406 27.5469V28.6562H124.836V27.5469H129.406ZM126.383 25.4922H127.828V33.9062C127.828 34.1927 127.872 34.4089 127.961 34.5547C128.049 34.7005 128.164 34.7969 128.305 34.8438C128.445 34.8906 128.596 34.9141 128.758 34.9141C128.878 34.9141 129.003 34.9036 129.133 34.8828C129.268 34.8568 129.37 34.8359 129.438 34.8203L129.445 36C129.331 36.0365 129.18 36.0703 128.992 36.1016C128.81 36.138 128.589 36.1562 128.328 36.1562C127.974 36.1562 127.648 36.0859 127.352 35.9453C127.055 35.8047 126.818 35.5703 126.641 35.2422C126.469 34.9089 126.383 34.4609 126.383 33.8984V25.4922ZM136.086 34.5547V30.2031C136.086 29.8698 136.018 29.5807 135.883 29.3359C135.753 29.0859 135.555 28.8932 135.289 28.7578C135.023 28.6224 134.695 28.5547 134.305 28.5547C133.94 28.5547 133.62 28.6172 133.344 28.7422C133.073 28.8672 132.859 29.0312 132.703 29.2344C132.552 29.4375 132.477 29.6562 132.477 29.8906H131.031C131.031 29.5885 131.109 29.2891 131.266 28.9922C131.422 28.6953 131.646 28.4271 131.938 28.1875C132.234 27.9427 132.589 27.75 133 27.6094C133.417 27.4635 133.88 27.3906 134.391 27.3906C135.005 27.3906 135.547 27.4948 136.016 27.7031C136.49 27.9115 136.859 28.2266 137.125 28.6484C137.396 29.0651 137.531 29.5885 137.531 30.2188V34.1562C137.531 34.4375 137.555 34.737 137.602 35.0547C137.654 35.3724 137.729 35.6458 137.828 35.875V36H136.32C136.247 35.8333 136.19 35.612 136.148 35.3359C136.107 35.0547 136.086 34.7943 136.086 34.5547ZM136.336 30.875L136.352 31.8906H134.891C134.479 31.8906 134.112 31.9245 133.789 31.9922C133.466 32.0547 133.195 32.151 132.977 32.2812C132.758 32.4115 132.591 32.5755 132.477 32.7734C132.362 32.9661 132.305 33.1927 132.305 33.4531C132.305 33.7188 132.365 33.9609 132.484 34.1797C132.604 34.3984 132.784 34.5729 133.023 34.7031C133.268 34.8281 133.568 34.8906 133.922 34.8906C134.365 34.8906 134.755 34.7969 135.094 34.6094C135.432 34.4219 135.701 34.1927 135.898 33.9219C136.102 33.651 136.211 33.388 136.227 33.1328L136.844 33.8281C136.807 34.0469 136.708 34.2891 136.547 34.5547C136.385 34.8203 136.169 35.0755 135.898 35.3203C135.633 35.5599 135.315 35.7604 134.945 35.9219C134.581 36.0781 134.169 36.1562 133.711 36.1562C133.138 36.1562 132.635 36.0443 132.203 35.8203C131.776 35.5964 131.443 35.2969 131.203 34.9219C130.969 34.5417 130.852 34.1172 130.852 33.6484C130.852 33.1953 130.94 32.7969 131.117 32.4531C131.294 32.1042 131.549 31.8151 131.883 31.5859C132.216 31.3516 132.617 31.1745 133.086 31.0547C133.555 30.9349 134.078 30.875 134.656 30.875H136.336ZM141.117 34.2812V35.4453C141.117 35.9193 140.997 36.4193 140.758 36.9453C140.518 37.4766 140.182 37.9193 139.75 38.2734L138.93 37.7031C139.096 37.474 139.237 37.2396 139.352 37C139.466 36.7656 139.552 36.5208 139.609 36.2656C139.672 36.0156 139.703 35.75 139.703 35.4688V34.2812H141.117ZM148.5 27.5469V36H147.047V27.5469H148.5ZM146.938 25.3047C146.938 25.0703 147.008 24.8724 147.148 24.7109C147.294 24.5495 147.508 24.4688 147.789 24.4688C148.065 24.4688 148.276 24.5495 148.422 24.7109C148.573 24.8724 148.648 25.0703 148.648 25.3047C148.648 25.5286 148.573 25.7214 148.422 25.8828C148.276 26.0391 148.065 26.1172 147.789 26.1172C147.508 26.1172 147.294 26.0391 147.148 25.8828C147.008 25.7214 146.938 25.5286 146.938 25.3047ZM152.266 29.3516V36H150.82V27.5469H152.188L152.266 29.3516ZM151.922 31.4531L151.32 31.4297C151.326 30.8516 151.411 30.3177 151.578 29.8281C151.745 29.3333 151.979 28.9036 152.281 28.5391C152.583 28.1745 152.943 27.8932 153.359 27.6953C153.781 27.4922 154.247 27.3906 154.758 27.3906C155.174 27.3906 155.549 27.4479 155.883 27.5625C156.216 27.6719 156.5 27.849 156.734 28.0938C156.974 28.3385 157.156 28.6562 157.281 29.0469C157.406 29.4323 157.469 29.9036 157.469 30.4609V36H156.016V30.4453C156.016 30.0026 155.951 29.6484 155.82 29.3828C155.69 29.112 155.5 28.9167 155.25 28.7969C155 28.6719 154.693 28.6094 154.328 28.6094C153.969 28.6094 153.641 28.6849 153.344 28.8359C153.052 28.987 152.799 29.1953 152.586 29.4609C152.378 29.7266 152.214 30.0312 152.094 30.375C151.979 30.7135 151.922 31.0729 151.922 31.4531ZM161.82 36H160.375V26.6562C160.375 26.0469 160.484 25.5339 160.703 25.1172C160.927 24.6953 161.247 24.3776 161.664 24.1641C162.081 23.9453 162.576 23.8359 163.148 23.8359C163.315 23.8359 163.482 23.8464 163.648 23.8672C163.82 23.888 163.987 23.9193 164.148 23.9609L164.07 25.1406C163.961 25.1146 163.836 25.0964 163.695 25.0859C163.56 25.0755 163.424 25.0703 163.289 25.0703C162.982 25.0703 162.716 25.1328 162.492 25.2578C162.273 25.3776 162.107 25.5547 161.992 25.7891C161.878 26.0234 161.82 26.3125 161.82 26.6562V36ZM163.617 27.5469V28.6562H159.039V27.5469H163.617ZM166.672 28.875V36H165.227V27.5469H166.633L166.672 28.875ZM169.312 27.5L169.305 28.8438C169.185 28.8177 169.07 28.8021 168.961 28.7969C168.857 28.7865 168.737 28.7812 168.602 28.7812C168.268 28.7812 167.974 28.8333 167.719 28.9375C167.464 29.0417 167.247 29.1875 167.07 29.375C166.893 29.5625 166.753 29.7865 166.648 30.0469C166.549 30.3021 166.484 30.5833 166.453 30.8906L166.047 31.125C166.047 30.6146 166.096 30.1354 166.195 29.6875C166.299 29.2396 166.458 28.8438 166.672 28.5C166.885 28.151 167.156 27.8802 167.484 27.6875C167.818 27.4896 168.214 27.3906 168.672 27.3906C168.776 27.3906 168.896 27.4036 169.031 27.4297C169.167 27.4505 169.26 27.474 169.312 27.5ZM175.32 34.5547V30.2031C175.32 29.8698 175.253 29.5807 175.117 29.3359C174.987 29.0859 174.789 28.8932 174.523 28.7578C174.258 28.6224 173.93 28.5547 173.539 28.5547C173.174 28.5547 172.854 28.6172 172.578 28.7422C172.307 28.8672 172.094 29.0312 171.938 29.2344C171.786 29.4375 171.711 29.6562 171.711 29.8906H170.266C170.266 29.5885 170.344 29.2891 170.5 28.9922C170.656 28.6953 170.88 28.4271 171.172 28.1875C171.469 27.9427 171.823 27.75 172.234 27.6094C172.651 27.4635 173.115 27.3906 173.625 27.3906C174.24 27.3906 174.781 27.4948 175.25 27.7031C175.724 27.9115 176.094 28.2266 176.359 28.6484C176.63 29.0651 176.766 29.5885 176.766 30.2188V34.1562C176.766 34.4375 176.789 34.737 176.836 35.0547C176.888 35.3724 176.964 35.6458 177.062 35.875V36H175.555C175.482 35.8333 175.424 35.612 175.383 35.3359C175.341 35.0547 175.32 34.7943 175.32 34.5547ZM175.57 30.875L175.586 31.8906H174.125C173.714 31.8906 173.346 31.9245 173.023 31.9922C172.701 32.0547 172.43 32.151 172.211 32.2812C171.992 32.4115 171.826 32.5755 171.711 32.7734C171.596 32.9661 171.539 33.1927 171.539 33.4531C171.539 33.7188 171.599 33.9609 171.719 34.1797C171.839 34.3984 172.018 34.5729 172.258 34.7031C172.503 34.8281 172.802 34.8906 173.156 34.8906C173.599 34.8906 173.99 34.7969 174.328 34.6094C174.667 34.4219 174.935 34.1927 175.133 33.9219C175.336 33.651 175.445 33.388 175.461 33.1328L176.078 33.8281C176.042 34.0469 175.943 34.2891 175.781 34.5547C175.62 34.8203 175.404 35.0755 175.133 35.3203C174.867 35.5599 174.549 35.7604 174.18 35.9219C173.815 36.0781 173.404 36.1562 172.945 36.1562C172.372 36.1562 171.87 36.0443 171.438 35.8203C171.01 35.5964 170.677 35.2969 170.438 34.9219C170.203 34.5417 170.086 34.1172 170.086 33.6484C170.086 33.1953 170.174 32.7969 170.352 32.4531C170.529 32.1042 170.784 31.8151 171.117 31.5859C171.451 31.3516 171.852 31.1745 172.32 31.0547C172.789 30.9349 173.312 30.875 173.891 30.875H175.57ZM183.961 33.7578C183.961 33.5495 183.914 33.3568 183.82 33.1797C183.732 32.9974 183.547 32.8333 183.266 32.6875C182.99 32.5365 182.573 32.4062 182.016 32.2969C181.547 32.1979 181.122 32.0807 180.742 31.9453C180.367 31.8099 180.047 31.6458 179.781 31.4531C179.521 31.2604 179.32 31.0339 179.18 30.7734C179.039 30.513 178.969 30.2083 178.969 29.8594C178.969 29.526 179.042 29.2109 179.188 28.9141C179.339 28.6172 179.549 28.3542 179.82 28.125C180.096 27.8958 180.427 27.7161 180.812 27.5859C181.198 27.4557 181.628 27.3906 182.102 27.3906C182.779 27.3906 183.357 27.5104 183.836 27.75C184.315 27.9896 184.682 28.3099 184.938 28.7109C185.193 29.1068 185.32 29.5469 185.32 30.0312H183.875C183.875 29.7969 183.805 29.5703 183.664 29.3516C183.529 29.1276 183.328 28.9427 183.062 28.7969C182.802 28.651 182.482 28.5781 182.102 28.5781C181.701 28.5781 181.375 28.6406 181.125 28.7656C180.88 28.8854 180.701 29.0391 180.586 29.2266C180.477 29.4141 180.422 29.612 180.422 29.8203C180.422 29.9766 180.448 30.1172 180.5 30.2422C180.557 30.362 180.656 30.474 180.797 30.5781C180.938 30.6771 181.135 30.7708 181.391 30.8594C181.646 30.9479 181.971 31.0365 182.367 31.125C183.06 31.2812 183.63 31.4688 184.078 31.6875C184.526 31.9062 184.859 32.1745 185.078 32.4922C185.297 32.8099 185.406 33.1953 185.406 33.6484C185.406 34.0182 185.328 34.3568 185.172 34.6641C185.021 34.9714 184.799 35.237 184.508 35.4609C184.221 35.6797 183.878 35.8516 183.477 35.9766C183.081 36.0964 182.635 36.1562 182.141 36.1562C181.396 36.1562 180.766 36.0234 180.25 35.7578C179.734 35.4922 179.344 35.1484 179.078 34.7266C178.812 34.3047 178.68 33.8594 178.68 33.3906H180.133C180.154 33.7865 180.268 34.1016 180.477 34.3359C180.685 34.5651 180.94 34.7292 181.242 34.8281C181.544 34.9219 181.844 34.9688 182.141 34.9688C182.536 34.9688 182.867 34.9167 183.133 34.8125C183.404 34.7083 183.609 34.5651 183.75 34.3828C183.891 34.2005 183.961 33.9922 183.961 33.7578ZM190.844 27.5469V28.6562H186.273V27.5469H190.844ZM187.82 25.4922H189.266V33.9062C189.266 34.1927 189.31 34.4089 189.398 34.5547C189.487 34.7005 189.602 34.7969 189.742 34.8438C189.883 34.8906 190.034 34.9141 190.195 34.9141C190.315 34.9141 190.44 34.9036 190.57 34.8828C190.706 34.8568 190.807 34.8359 190.875 34.8203L190.883 36C190.768 36.0365 190.617 36.0703 190.43 36.1016C190.247 36.138 190.026 36.1562 189.766 36.1562C189.411 36.1562 189.086 36.0859 188.789 35.9453C188.492 35.8047 188.255 35.5703 188.078 35.2422C187.906 34.9089 187.82 34.4609 187.82 33.8984V25.4922ZM193.984 28.875V36H192.539V27.5469H193.945L193.984 28.875ZM196.625 27.5L196.617 28.8438C196.497 28.8177 196.383 28.8021 196.273 28.7969C196.169 28.7865 196.049 28.7812 195.914 28.7812C195.581 28.7812 195.286 28.8333 195.031 28.9375C194.776 29.0417 194.56 29.1875 194.383 29.375C194.206 29.5625 194.065 29.7865 193.961 30.0469C193.862 30.3021 193.797 30.5833 193.766 30.8906L193.359 31.125C193.359 30.6146 193.409 30.1354 193.508 29.6875C193.612 29.2396 193.771 28.8438 193.984 28.5C194.198 28.151 194.469 27.8802 194.797 27.6875C195.13 27.4896 195.526 27.3906 195.984 27.3906C196.089 27.3906 196.208 27.4036 196.344 27.4297C196.479 27.4505 196.573 27.474 196.625 27.5ZM203.133 34.0469V27.5469H204.586V36H203.203L203.133 34.0469ZM203.406 32.2656L204.008 32.25C204.008 32.8125 203.948 33.3333 203.828 33.8125C203.714 34.2865 203.526 34.6979 203.266 35.0469C203.005 35.3958 202.664 35.6693 202.242 35.8672C201.82 36.0599 201.307 36.1562 200.703 36.1562C200.292 36.1562 199.914 36.0964 199.57 35.9766C199.232 35.8568 198.94 35.6719 198.695 35.4219C198.451 35.1719 198.26 34.8464 198.125 34.4453C197.995 34.0443 197.93 33.5625 197.93 33V27.5469H199.375V33.0156C199.375 33.3958 199.417 33.7109 199.5 33.9609C199.589 34.2057 199.706 34.401 199.852 34.5469C200.003 34.6875 200.169 34.7865 200.352 34.8438C200.539 34.901 200.732 34.9297 200.93 34.9297C201.544 34.9297 202.031 34.8125 202.391 34.5781C202.75 34.3385 203.008 34.0182 203.164 33.6172C203.326 33.2109 203.406 32.7604 203.406 32.2656ZM210.172 34.9688C210.516 34.9688 210.833 34.8984 211.125 34.7578C211.417 34.6172 211.656 34.4245 211.844 34.1797C212.031 33.9297 212.138 33.6458 212.164 33.3281H213.539C213.513 33.8281 213.344 34.2943 213.031 34.7266C212.724 35.1536 212.32 35.5 211.82 35.7656C211.32 36.026 210.771 36.1562 210.172 36.1562C209.536 36.1562 208.982 36.0443 208.508 35.8203C208.039 35.5964 207.648 35.2891 207.336 34.8984C207.029 34.5078 206.797 34.0599 206.641 33.5547C206.49 33.0443 206.414 32.5052 206.414 31.9375V31.6094C206.414 31.0417 206.49 30.5052 206.641 30C206.797 29.4896 207.029 29.0391 207.336 28.6484C207.648 28.2578 208.039 27.9505 208.508 27.7266C208.982 27.5026 209.536 27.3906 210.172 27.3906C210.833 27.3906 211.411 27.526 211.906 27.7969C212.401 28.0625 212.789 28.4271 213.07 28.8906C213.357 29.349 213.513 29.8698 213.539 30.4531H212.164C212.138 30.1042 212.039 29.7891 211.867 29.5078C211.701 29.2266 211.471 29.0026 211.18 28.8359C210.893 28.6641 210.557 28.5781 210.172 28.5781C209.729 28.5781 209.357 28.6667 209.055 28.8438C208.758 29.0156 208.521 29.25 208.344 29.5469C208.172 29.8385 208.047 30.1641 207.969 30.5234C207.896 30.8776 207.859 31.2396 207.859 31.6094V31.9375C207.859 32.3073 207.896 32.6719 207.969 33.0312C208.042 33.3906 208.164 33.7161 208.336 34.0078C208.513 34.2995 208.75 34.5339 209.047 34.7109C209.349 34.8828 209.724 34.9688 210.172 34.9688ZM218.703 27.5469V28.6562H214.133V27.5469H218.703ZM215.68 25.4922H217.125V33.9062C217.125 34.1927 217.169 34.4089 217.258 34.5547C217.346 34.7005 217.461 34.7969 217.602 34.8438C217.742 34.8906 217.893 34.9141 218.055 34.9141C218.174 34.9141 218.299 34.9036 218.43 34.8828C218.565 34.8568 218.667 34.8359 218.734 34.8203L218.742 36C218.628 36.0365 218.477 36.0703 218.289 36.1016C218.107 36.138 217.885 36.1562 217.625 36.1562C217.271 36.1562 216.945 36.0859 216.648 35.9453C216.352 35.8047 216.115 35.5703 215.938 35.2422C215.766 34.9089 215.68 34.4609 215.68 33.8984V25.4922ZM225.57 34.0469V27.5469H227.023V36H225.641L225.57 34.0469ZM225.844 32.2656L226.445 32.25C226.445 32.8125 226.385 33.3333 226.266 33.8125C226.151 34.2865 225.964 34.6979 225.703 35.0469C225.443 35.3958 225.102 35.6693 224.68 35.8672C224.258 36.0599 223.745 36.1562 223.141 36.1562C222.729 36.1562 222.352 36.0964 222.008 35.9766C221.669 35.8568 221.378 35.6719 221.133 35.4219C220.888 35.1719 220.698 34.8464 220.562 34.4453C220.432 34.0443 220.367 33.5625 220.367 33V27.5469H221.812V33.0156C221.812 33.3958 221.854 33.7109 221.938 33.9609C222.026 34.2057 222.143 34.401 222.289 34.5469C222.44 34.6875 222.607 34.7865 222.789 34.8438C222.977 34.901 223.169 34.9297 223.367 34.9297C223.982 34.9297 224.469 34.8125 224.828 34.5781C225.188 34.3385 225.445 34.0182 225.602 33.6172C225.763 33.2109 225.844 32.7604 225.844 32.2656ZM230.672 28.875V36H229.227V27.5469H230.633L230.672 28.875ZM233.312 27.5L233.305 28.8438C233.185 28.8177 233.07 28.8021 232.961 28.7969C232.857 28.7865 232.737 28.7812 232.602 28.7812C232.268 28.7812 231.974 28.8333 231.719 28.9375C231.464 29.0417 231.247 29.1875 231.07 29.375C230.893 29.5625 230.753 29.7865 230.648 30.0469C230.549 30.3021 230.484 30.5833 230.453 30.8906L230.047 31.125C230.047 30.6146 230.096 30.1354 230.195 29.6875C230.299 29.2396 230.458 28.8438 230.672 28.5C230.885 28.151 231.156 27.8802 231.484 27.6875C231.818 27.4896 232.214 27.3906 232.672 27.3906C232.776 27.3906 232.896 27.4036 233.031 27.4297C233.167 27.4505 233.26 27.474 233.312 27.5ZM238 36.1562C237.411 36.1562 236.878 36.0573 236.398 35.8594C235.924 35.6562 235.516 35.3724 235.172 35.0078C234.833 34.6432 234.573 34.2109 234.391 33.7109C234.208 33.2109 234.117 32.6641 234.117 32.0703V31.7422C234.117 31.0547 234.219 30.4427 234.422 29.9062C234.625 29.3646 234.901 28.9062 235.25 28.5312C235.599 28.1562 235.995 27.8724 236.438 27.6797C236.88 27.487 237.339 27.3906 237.812 27.3906C238.417 27.3906 238.938 27.4948 239.375 27.7031C239.818 27.9115 240.18 28.2031 240.461 28.5781C240.742 28.9479 240.951 29.3854 241.086 29.8906C241.221 30.3906 241.289 30.9375 241.289 31.5312V32.1797H234.977V31H239.844V30.8906C239.823 30.5156 239.745 30.151 239.609 29.7969C239.479 29.4427 239.271 29.151 238.984 28.9219C238.698 28.6927 238.307 28.5781 237.812 28.5781C237.484 28.5781 237.182 28.6484 236.906 28.7891C236.63 28.9245 236.393 29.1276 236.195 29.3984C235.997 29.6693 235.844 30 235.734 30.3906C235.625 30.7812 235.57 31.2318 235.57 31.7422V32.0703C235.57 32.4714 235.625 32.849 235.734 33.2031C235.849 33.5521 236.013 33.8594 236.227 34.125C236.445 34.3906 236.708 34.599 237.016 34.75C237.328 34.901 237.682 34.9766 238.078 34.9766C238.589 34.9766 239.021 34.8724 239.375 34.6641C239.729 34.4557 240.039 34.1771 240.305 33.8281L241.18 34.5234C240.997 34.7995 240.766 35.0625 240.484 35.3125C240.203 35.5625 239.857 35.7656 239.445 35.9219C239.039 36.0781 238.557 36.1562 238 36.1562ZM244.289 34.2812V35.4453C244.289 35.9193 244.169 36.4193 243.93 36.9453C243.69 37.4766 243.354 37.9193 242.922 38.2734L242.102 37.7031C242.268 37.474 242.409 37.2396 242.523 37C242.638 36.7656 242.724 36.5208 242.781 36.2656C242.844 36.0156 242.875 35.75 242.875 35.4688V34.2812H244.289ZM255.086 34.5547V30.2031C255.086 29.8698 255.018 29.5807 254.883 29.3359C254.753 29.0859 254.555 28.8932 254.289 28.7578C254.023 28.6224 253.695 28.5547 253.305 28.5547C252.94 28.5547 252.62 28.6172 252.344 28.7422C252.073 28.8672 251.859 29.0312 251.703 29.2344C251.552 29.4375 251.477 29.6562 251.477 29.8906H250.031C250.031 29.5885 250.109 29.2891 250.266 28.9922C250.422 28.6953 250.646 28.4271 250.938 28.1875C251.234 27.9427 251.589 27.75 252 27.6094C252.417 27.4635 252.88 27.3906 253.391 27.3906C254.005 27.3906 254.547 27.4948 255.016 27.7031C255.49 27.9115 255.859 28.2266 256.125 28.6484C256.396 29.0651 256.531 29.5885 256.531 30.2188V34.1562C256.531 34.4375 256.555 34.737 256.602 35.0547C256.654 35.3724 256.729 35.6458 256.828 35.875V36H255.32C255.247 35.8333 255.19 35.612 255.148 35.3359C255.107 35.0547 255.086 34.7943 255.086 34.5547ZM255.336 30.875L255.352 31.8906H253.891C253.479 31.8906 253.112 31.9245 252.789 31.9922C252.466 32.0547 252.195 32.151 251.977 32.2812C251.758 32.4115 251.591 32.5755 251.477 32.7734C251.362 32.9661 251.305 33.1927 251.305 33.4531C251.305 33.7188 251.365 33.9609 251.484 34.1797C251.604 34.3984 251.784 34.5729 252.023 34.7031C252.268 34.8281 252.568 34.8906 252.922 34.8906C253.365 34.8906 253.755 34.7969 254.094 34.6094C254.432 34.4219 254.701 34.1927 254.898 33.9219C255.102 33.651 255.211 33.388 255.227 33.1328L255.844 33.8281C255.807 34.0469 255.708 34.2891 255.547 34.5547C255.385 34.8203 255.169 35.0755 254.898 35.3203C254.633 35.5599 254.315 35.7604 253.945 35.9219C253.581 36.0781 253.169 36.1562 252.711 36.1562C252.138 36.1562 251.635 36.0443 251.203 35.8203C250.776 35.5964 250.443 35.2969 250.203 34.9219C249.969 34.5417 249.852 34.1172 249.852 33.6484C249.852 33.1953 249.94 32.7969 250.117 32.4531C250.294 32.1042 250.549 31.8151 250.883 31.5859C251.216 31.3516 251.617 31.1745 252.086 31.0547C252.555 30.9349 253.078 30.875 253.656 30.875H255.336ZM260.25 29.3516V36H258.805V27.5469H260.172L260.25 29.3516ZM259.906 31.4531L259.305 31.4297C259.31 30.8516 259.396 30.3177 259.562 29.8281C259.729 29.3333 259.964 28.9036 260.266 28.5391C260.568 28.1745 260.927 27.8932 261.344 27.6953C261.766 27.4922 262.232 27.3906 262.742 27.3906C263.159 27.3906 263.534 27.4479 263.867 27.5625C264.201 27.6719 264.484 27.849 264.719 28.0938C264.958 28.3385 265.141 28.6562 265.266 29.0469C265.391 29.4323 265.453 29.9036 265.453 30.4609V36H264V30.4453C264 30.0026 263.935 29.6484 263.805 29.3828C263.674 29.112 263.484 28.9167 263.234 28.7969C262.984 28.6719 262.677 28.6094 262.312 28.6094C261.953 28.6094 261.625 28.6849 261.328 28.8359C261.036 28.987 260.784 29.1953 260.57 29.4609C260.362 29.7266 260.198 30.0312 260.078 30.375C259.964 30.7135 259.906 31.0729 259.906 31.4531ZM272.977 34.3594V24H274.43V36H273.102L272.977 34.3594ZM267.289 31.8672V31.7031C267.289 31.0573 267.367 30.4714 267.523 29.9453C267.685 29.4141 267.911 28.9583 268.203 28.5781C268.5 28.1979 268.852 27.9062 269.258 27.7031C269.669 27.4948 270.128 27.3906 270.633 27.3906C271.164 27.3906 271.628 27.4844 272.023 27.6719C272.424 27.8542 272.763 28.1224 273.039 28.4766C273.32 28.8255 273.542 29.2474 273.703 29.7422C273.865 30.237 273.977 30.7969 274.039 31.4219V32.1406C273.982 32.7604 273.87 33.3177 273.703 33.8125C273.542 34.3073 273.32 34.7292 273.039 35.0781C272.763 35.4271 272.424 35.6953 272.023 35.8828C271.622 36.0651 271.154 36.1562 270.617 36.1562C270.122 36.1562 269.669 36.0495 269.258 35.8359C268.852 35.6224 268.5 35.3229 268.203 34.9375C267.911 34.5521 267.685 34.099 267.523 33.5781C267.367 33.0521 267.289 32.4818 267.289 31.8672ZM268.742 31.7031V31.8672C268.742 32.2891 268.784 32.6849 268.867 33.0547C268.956 33.4245 269.091 33.75 269.273 34.0312C269.456 34.3125 269.688 34.5339 269.969 34.6953C270.25 34.8516 270.586 34.9297 270.977 34.9297C271.456 34.9297 271.849 34.8281 272.156 34.625C272.469 34.4219 272.719 34.1536 272.906 33.8203C273.094 33.487 273.24 33.125 273.344 32.7344V30.8516C273.281 30.5651 273.19 30.2891 273.07 30.0234C272.956 29.7526 272.805 29.513 272.617 29.3047C272.435 29.0911 272.208 28.9219 271.938 28.7969C271.672 28.6719 271.357 28.6094 270.992 28.6094C270.596 28.6094 270.255 28.6927 269.969 28.8594C269.688 29.0208 269.456 29.2448 269.273 29.5312C269.091 29.8125 268.956 30.1406 268.867 30.5156C268.784 30.8854 268.742 31.2812 268.742 31.7031ZM284.156 36.1562C283.568 36.1562 283.034 36.0573 282.555 35.8594C282.081 35.6562 281.672 35.3724 281.328 35.0078C280.99 34.6432 280.729 34.2109 280.547 33.7109C280.365 33.2109 280.273 32.6641 280.273 32.0703V31.7422C280.273 31.0547 280.375 30.4427 280.578 29.9062C280.781 29.3646 281.057 28.9062 281.406 28.5312C281.755 28.1562 282.151 27.8724 282.594 27.6797C283.036 27.487 283.495 27.3906 283.969 27.3906C284.573 27.3906 285.094 27.4948 285.531 27.7031C285.974 27.9115 286.336 28.2031 286.617 28.5781C286.898 28.9479 287.107 29.3854 287.242 29.8906C287.378 30.3906 287.445 30.9375 287.445 31.5312V32.1797H281.133V31H286V30.8906C285.979 30.5156 285.901 30.151 285.766 29.7969C285.635 29.4427 285.427 29.151 285.141 28.9219C284.854 28.6927 284.464 28.5781 283.969 28.5781C283.641 28.5781 283.339 28.6484 283.062 28.7891C282.786 28.9245 282.549 29.1276 282.352 29.3984C282.154 29.6693 282 30 281.891 30.3906C281.781 30.7812 281.727 31.2318 281.727 31.7422V32.0703C281.727 32.4714 281.781 32.849 281.891 33.2031C282.005 33.5521 282.169 33.8594 282.383 34.125C282.602 34.3906 282.865 34.599 283.172 34.75C283.484 34.901 283.839 34.9766 284.234 34.9766C284.745 34.9766 285.177 34.8724 285.531 34.6641C285.885 34.4557 286.195 34.1771 286.461 33.8281L287.336 34.5234C287.154 34.7995 286.922 35.0625 286.641 35.3125C286.359 35.5625 286.013 35.7656 285.602 35.9219C285.195 36.0781 284.714 36.1562 284.156 36.1562ZM290.109 27.5469L291.961 30.625L293.836 27.5469H295.531L292.766 31.7188L295.617 36H293.945L291.992 32.8281L290.039 36H288.359L291.203 31.7188L288.445 27.5469H290.109ZM298.516 29.1719V39.25H297.062V27.5469H298.391L298.516 29.1719ZM304.211 31.7031V31.8672C304.211 32.4818 304.138 33.0521 303.992 33.5781C303.846 34.099 303.633 34.5521 303.352 34.9375C303.076 35.3229 302.734 35.6224 302.328 35.8359C301.922 36.0495 301.456 36.1562 300.93 36.1562C300.393 36.1562 299.919 36.0677 299.508 35.8906C299.096 35.7135 298.747 35.4557 298.461 35.1172C298.174 34.7786 297.945 34.3724 297.773 33.8984C297.607 33.4245 297.492 32.8906 297.43 32.2969V31.4219C297.492 30.7969 297.609 30.237 297.781 29.7422C297.953 29.2474 298.18 28.8255 298.461 28.4766C298.747 28.1224 299.094 27.8542 299.5 27.6719C299.906 27.4844 300.375 27.3906 300.906 27.3906C301.438 27.3906 301.909 27.4948 302.32 27.7031C302.732 27.9062 303.078 28.1979 303.359 28.5781C303.641 28.9583 303.852 29.4141 303.992 29.9453C304.138 30.4714 304.211 31.0573 304.211 31.7031ZM302.758 31.8672V31.7031C302.758 31.2812 302.714 30.8854 302.625 30.5156C302.536 30.1406 302.398 29.8125 302.211 29.5312C302.029 29.2448 301.794 29.0208 301.508 28.8594C301.221 28.6927 300.88 28.6094 300.484 28.6094C300.12 28.6094 299.802 28.6719 299.531 28.7969C299.266 28.9219 299.039 29.0911 298.852 29.3047C298.664 29.513 298.51 29.7526 298.391 30.0234C298.276 30.2891 298.19 30.5651 298.133 30.8516V32.875C298.237 33.2396 298.383 33.5833 298.57 33.9062C298.758 34.224 299.008 34.4818 299.32 34.6797C299.633 34.8724 300.026 34.9688 300.5 34.9688C300.891 34.9688 301.227 34.888 301.508 34.7266C301.794 34.5599 302.029 34.3333 302.211 34.0469C302.398 33.7604 302.536 33.4323 302.625 33.0625C302.714 32.6875 302.758 32.2891 302.758 31.8672ZM309.562 36.1562C308.974 36.1562 308.44 36.0573 307.961 35.8594C307.487 35.6562 307.078 35.3724 306.734 35.0078C306.396 34.6432 306.135 34.2109 305.953 33.7109C305.771 33.2109 305.68 32.6641 305.68 32.0703V31.7422C305.68 31.0547 305.781 30.4427 305.984 29.9062C306.188 29.3646 306.464 28.9062 306.812 28.5312C307.161 28.1562 307.557 27.8724 308 27.6797C308.443 27.487 308.901 27.3906 309.375 27.3906C309.979 27.3906 310.5 27.4948 310.938 27.7031C311.38 27.9115 311.742 28.2031 312.023 28.5781C312.305 28.9479 312.513 29.3854 312.648 29.8906C312.784 30.3906 312.852 30.9375 312.852 31.5312V32.1797H306.539V31H311.406V30.8906C311.385 30.5156 311.307 30.151 311.172 29.7969C311.042 29.4427 310.833 29.151 310.547 28.9219C310.26 28.6927 309.87 28.5781 309.375 28.5781C309.047 28.5781 308.745 28.6484 308.469 28.7891C308.193 28.9245 307.956 29.1276 307.758 29.3984C307.56 29.6693 307.406 30 307.297 30.3906C307.188 30.7812 307.133 31.2318 307.133 31.7422V32.0703C307.133 32.4714 307.188 32.849 307.297 33.2031C307.411 33.5521 307.576 33.8594 307.789 34.125C308.008 34.3906 308.271 34.599 308.578 34.75C308.891 34.901 309.245 34.9766 309.641 34.9766C310.151 34.9766 310.583 34.8724 310.938 34.6641C311.292 34.4557 311.602 34.1771 311.867 33.8281L312.742 34.5234C312.56 34.7995 312.328 35.0625 312.047 35.3125C311.766 35.5625 311.419 35.7656 311.008 35.9219C310.602 36.0781 310.12 36.1562 309.562 36.1562ZM315.984 28.875V36H314.539V27.5469H315.945L315.984 28.875ZM318.625 27.5L318.617 28.8438C318.497 28.8177 318.383 28.8021 318.273 28.7969C318.169 28.7865 318.049 28.7812 317.914 28.7812C317.581 28.7812 317.286 28.8333 317.031 28.9375C316.776 29.0417 316.56 29.1875 316.383 29.375C316.206 29.5625 316.065 29.7865 315.961 30.0469C315.862 30.3021 315.797 30.5833 315.766 30.8906L315.359 31.125C315.359 30.6146 315.409 30.1354 315.508 29.6875C315.612 29.2396 315.771 28.8438 315.984 28.5C316.198 28.151 316.469 27.8802 316.797 27.6875C317.13 27.4896 317.526 27.3906 317.984 27.3906C318.089 27.3906 318.208 27.4036 318.344 27.4297C318.479 27.4505 318.573 27.474 318.625 27.5ZM321.531 27.5469V36H320.078V27.5469H321.531ZM319.969 25.3047C319.969 25.0703 320.039 24.8724 320.18 24.7109C320.326 24.5495 320.539 24.4688 320.82 24.4688C321.096 24.4688 321.307 24.5495 321.453 24.7109C321.604 24.8724 321.68 25.0703 321.68 25.3047C321.68 25.5286 321.604 25.7214 321.453 25.8828C321.307 26.0391 321.096 26.1172 320.82 26.1172C320.539 26.1172 320.326 26.0391 320.18 25.8828C320.039 25.7214 319.969 25.5286 319.969 25.3047ZM327.359 36.1562C326.771 36.1562 326.237 36.0573 325.758 35.8594C325.284 35.6562 324.875 35.3724 324.531 35.0078C324.193 34.6432 323.932 34.2109 323.75 33.7109C323.568 33.2109 323.477 32.6641 323.477 32.0703V31.7422C323.477 31.0547 323.578 30.4427 323.781 29.9062C323.984 29.3646 324.26 28.9062 324.609 28.5312C324.958 28.1562 325.354 27.8724 325.797 27.6797C326.24 27.487 326.698 27.3906 327.172 27.3906C327.776 27.3906 328.297 27.4948 328.734 27.7031C329.177 27.9115 329.539 28.2031 329.82 28.5781C330.102 28.9479 330.31 29.3854 330.445 29.8906C330.581 30.3906 330.648 30.9375 330.648 31.5312V32.1797H324.336V31H329.203V30.8906C329.182 30.5156 329.104 30.151 328.969 29.7969C328.839 29.4427 328.63 29.151 328.344 28.9219C328.057 28.6927 327.667 28.5781 327.172 28.5781C326.844 28.5781 326.542 28.6484 326.266 28.7891C325.99 28.9245 325.753 29.1276 325.555 29.3984C325.357 29.6693 325.203 30 325.094 30.3906C324.984 30.7812 324.93 31.2318 324.93 31.7422V32.0703C324.93 32.4714 324.984 32.849 325.094 33.2031C325.208 33.5521 325.372 33.8594 325.586 34.125C325.805 34.3906 326.068 34.599 326.375 34.75C326.688 34.901 327.042 34.9766 327.438 34.9766C327.948 34.9766 328.38 34.8724 328.734 34.6641C329.089 34.4557 329.398 34.1771 329.664 33.8281L330.539 34.5234C330.357 34.7995 330.125 35.0625 329.844 35.3125C329.562 35.5625 329.216 35.7656 328.805 35.9219C328.398 36.0781 327.917 36.1562 327.359 36.1562ZM333.781 29.3516V36H332.336V27.5469H333.703L333.781 29.3516ZM333.438 31.4531L332.836 31.4297C332.841 30.8516 332.927 30.3177 333.094 29.8281C333.26 29.3333 333.495 28.9036 333.797 28.5391C334.099 28.1745 334.458 27.8932 334.875 27.6953C335.297 27.4922 335.763 27.3906 336.273 27.3906C336.69 27.3906 337.065 27.4479 337.398 27.5625C337.732 27.6719 338.016 27.849 338.25 28.0938C338.49 28.3385 338.672 28.6562 338.797 29.0469C338.922 29.4323 338.984 29.9036 338.984 30.4609V36H337.531V30.4453C337.531 30.0026 337.466 29.6484 337.336 29.3828C337.206 29.112 337.016 28.9167 336.766 28.7969C336.516 28.6719 336.208 28.6094 335.844 28.6094C335.484 28.6094 335.156 28.6849 334.859 28.8359C334.568 28.987 334.315 29.1953 334.102 29.4609C333.893 29.7266 333.729 30.0312 333.609 30.375C333.495 30.7135 333.438 31.0729 333.438 31.4531ZM344.562 34.9688C344.906 34.9688 345.224 34.8984 345.516 34.7578C345.807 34.6172 346.047 34.4245 346.234 34.1797C346.422 33.9297 346.529 33.6458 346.555 33.3281H347.93C347.904 33.8281 347.734 34.2943 347.422 34.7266C347.115 35.1536 346.711 35.5 346.211 35.7656C345.711 36.026 345.161 36.1562 344.562 36.1562C343.927 36.1562 343.372 36.0443 342.898 35.8203C342.43 35.5964 342.039 35.2891 341.727 34.8984C341.419 34.5078 341.188 34.0599 341.031 33.5547C340.88 33.0443 340.805 32.5052 340.805 31.9375V31.6094C340.805 31.0417 340.88 30.5052 341.031 30C341.188 29.4896 341.419 29.0391 341.727 28.6484C342.039 28.2578 342.43 27.9505 342.898 27.7266C343.372 27.5026 343.927 27.3906 344.562 27.3906C345.224 27.3906 345.802 27.526 346.297 27.7969C346.792 28.0625 347.18 28.4271 347.461 28.8906C347.747 29.349 347.904 29.8698 347.93 30.4531H346.555C346.529 30.1042 346.43 29.7891 346.258 29.5078C346.091 29.2266 345.862 29.0026 345.57 28.8359C345.284 28.6641 344.948 28.5781 344.562 28.5781C344.12 28.5781 343.747 28.6667 343.445 28.8438C343.148 29.0156 342.911 29.25 342.734 29.5469C342.562 29.8385 342.438 30.1641 342.359 30.5234C342.286 30.8776 342.25 31.2396 342.25 31.6094V31.9375C342.25 32.3073 342.286 32.6719 342.359 33.0312C342.432 33.3906 342.555 33.7161 342.727 34.0078C342.904 34.2995 343.141 34.5339 343.438 34.7109C343.74 34.8828 344.115 34.9688 344.562 34.9688ZM353.062 36.1562C352.474 36.1562 351.94 36.0573 351.461 35.8594C350.987 35.6562 350.578 35.3724 350.234 35.0078C349.896 34.6432 349.635 34.2109 349.453 33.7109C349.271 33.2109 349.18 32.6641 349.18 32.0703V31.7422C349.18 31.0547 349.281 30.4427 349.484 29.9062C349.688 29.3646 349.964 28.9062 350.312 28.5312C350.661 28.1562 351.057 27.8724 351.5 27.6797C351.943 27.487 352.401 27.3906 352.875 27.3906C353.479 27.3906 354 27.4948 354.438 27.7031C354.88 27.9115 355.242 28.2031 355.523 28.5781C355.805 28.9479 356.013 29.3854 356.148 29.8906C356.284 30.3906 356.352 30.9375 356.352 31.5312V32.1797H350.039V31H354.906V30.8906C354.885 30.5156 354.807 30.151 354.672 29.7969C354.542 29.4427 354.333 29.151 354.047 28.9219C353.76 28.6927 353.37 28.5781 352.875 28.5781C352.547 28.5781 352.245 28.6484 351.969 28.7891C351.693 28.9245 351.456 29.1276 351.258 29.3984C351.06 29.6693 350.906 30 350.797 30.3906C350.688 30.7812 350.633 31.2318 350.633 31.7422V32.0703C350.633 32.4714 350.688 32.849 350.797 33.2031C350.911 33.5521 351.076 33.8594 351.289 34.125C351.508 34.3906 351.771 34.599 352.078 34.75C352.391 34.901 352.745 34.9766 353.141 34.9766C353.651 34.9766 354.083 34.8724 354.438 34.6641C354.792 34.4557 355.102 34.1771 355.367 33.8281L356.242 34.5234C356.06 34.7995 355.828 35.0625 355.547 35.3125C355.266 35.5625 354.919 35.7656 354.508 35.9219C354.102 36.0781 353.62 36.1562 353.062 36.1562ZM363.578 24V36H362.125V24H363.578ZM370.883 34.5547V30.2031C370.883 29.8698 370.815 29.5807 370.68 29.3359C370.549 29.0859 370.352 28.8932 370.086 28.7578C369.82 28.6224 369.492 28.5547 369.102 28.5547C368.737 28.5547 368.417 28.6172 368.141 28.7422C367.87 28.8672 367.656 29.0312 367.5 29.2344C367.349 29.4375 367.273 29.6562 367.273 29.8906H365.828C365.828 29.5885 365.906 29.2891 366.062 28.9922C366.219 28.6953 366.443 28.4271 366.734 28.1875C367.031 27.9427 367.385 27.75 367.797 27.6094C368.214 27.4635 368.677 27.3906 369.188 27.3906C369.802 27.3906 370.344 27.4948 370.812 27.7031C371.286 27.9115 371.656 28.2266 371.922 28.6484C372.193 29.0651 372.328 29.5885 372.328 30.2188V34.1562C372.328 34.4375 372.352 34.737 372.398 35.0547C372.451 35.3724 372.526 35.6458 372.625 35.875V36H371.117C371.044 35.8333 370.987 35.612 370.945 35.3359C370.904 35.0547 370.883 34.7943 370.883 34.5547ZM371.133 30.875L371.148 31.8906H369.688C369.276 31.8906 368.909 31.9245 368.586 31.9922C368.263 32.0547 367.992 32.151 367.773 32.2812C367.555 32.4115 367.388 32.5755 367.273 32.7734C367.159 32.9661 367.102 33.1927 367.102 33.4531C367.102 33.7188 367.161 33.9609 367.281 34.1797C367.401 34.3984 367.581 34.5729 367.82 34.7031C368.065 34.8281 368.365 34.8906 368.719 34.8906C369.161 34.8906 369.552 34.7969 369.891 34.6094C370.229 34.4219 370.497 34.1927 370.695 33.9219C370.898 33.651 371.008 33.388 371.023 33.1328L371.641 33.8281C371.604 34.0469 371.505 34.2891 371.344 34.5547C371.182 34.8203 370.966 35.0755 370.695 35.3203C370.43 35.5599 370.112 35.7604 369.742 35.9219C369.378 36.0781 368.966 36.1562 368.508 36.1562C367.935 36.1562 367.432 36.0443 367 35.8203C366.573 35.5964 366.24 35.2969 366 34.9219C365.766 34.5417 365.648 34.1172 365.648 33.6484C365.648 33.1953 365.737 32.7969 365.914 32.4531C366.091 32.1042 366.346 31.8151 366.68 31.5859C367.013 31.3516 367.414 31.1745 367.883 31.0547C368.352 30.9349 368.875 30.875 369.453 30.875H371.133ZM376.852 35.125L379.203 27.5469H380.75L377.359 37.3047C377.281 37.513 377.177 37.737 377.047 37.9766C376.922 38.2214 376.76 38.4531 376.562 38.6719C376.365 38.8906 376.125 39.0677 375.844 39.2031C375.568 39.3438 375.237 39.4141 374.852 39.4141C374.737 39.4141 374.591 39.3984 374.414 39.3672C374.237 39.3359 374.112 39.3099 374.039 39.2891L374.031 38.1172C374.073 38.1224 374.138 38.1276 374.227 38.1328C374.32 38.1432 374.385 38.1484 374.422 38.1484C374.75 38.1484 375.029 38.1042 375.258 38.0156C375.487 37.9323 375.68 37.7891 375.836 37.5859C375.997 37.388 376.135 37.1146 376.25 36.7656L376.852 35.125ZM375.125 27.5469L377.32 34.1094L377.695 35.6328L376.656 36.1641L373.547 27.5469H375.125ZM385.453 36.1562C384.865 36.1562 384.331 36.0573 383.852 35.8594C383.378 35.6562 382.969 35.3724 382.625 35.0078C382.286 34.6432 382.026 34.2109 381.844 33.7109C381.661 33.2109 381.57 32.6641 381.57 32.0703V31.7422C381.57 31.0547 381.672 30.4427 381.875 29.9062C382.078 29.3646 382.354 28.9062 382.703 28.5312C383.052 28.1562 383.448 27.8724 383.891 27.6797C384.333 27.487 384.792 27.3906 385.266 27.3906C385.87 27.3906 386.391 27.4948 386.828 27.7031C387.271 27.9115 387.633 28.2031 387.914 28.5781C388.195 28.9479 388.404 29.3854 388.539 29.8906C388.674 30.3906 388.742 30.9375 388.742 31.5312V32.1797H382.43V31H387.297V30.8906C387.276 30.5156 387.198 30.151 387.062 29.7969C386.932 29.4427 386.724 29.151 386.438 28.9219C386.151 28.6927 385.76 28.5781 385.266 28.5781C384.938 28.5781 384.635 28.6484 384.359 28.7891C384.083 28.9245 383.846 29.1276 383.648 29.3984C383.451 29.6693 383.297 30 383.188 30.3906C383.078 30.7812 383.023 31.2318 383.023 31.7422V32.0703C383.023 32.4714 383.078 32.849 383.188 33.2031C383.302 33.5521 383.466 33.8594 383.68 34.125C383.898 34.3906 384.161 34.599 384.469 34.75C384.781 34.901 385.135 34.9766 385.531 34.9766C386.042 34.9766 386.474 34.8724 386.828 34.6641C387.182 34.4557 387.492 34.1771 387.758 33.8281L388.633 34.5234C388.451 34.7995 388.219 35.0625 387.938 35.3125C387.656 35.5625 387.31 35.7656 386.898 35.9219C386.492 36.0781 386.01 36.1562 385.453 36.1562ZM391.875 28.875V36H390.43V27.5469H391.836L391.875 28.875ZM394.516 27.5L394.508 28.8438C394.388 28.8177 394.273 28.8021 394.164 28.7969C394.06 28.7865 393.94 28.7812 393.805 28.7812C393.471 28.7812 393.177 28.8333 392.922 28.9375C392.667 29.0417 392.451 29.1875 392.273 29.375C392.096 29.5625 391.956 29.7865 391.852 30.0469C391.753 30.3021 391.688 30.5833 391.656 30.8906L391.25 31.125C391.25 30.6146 391.299 30.1354 391.398 29.6875C391.503 29.2396 391.661 28.8438 391.875 28.5C392.089 28.151 392.359 27.8802 392.688 27.6875C393.021 27.4896 393.417 27.3906 393.875 27.3906C393.979 27.3906 394.099 27.4036 394.234 27.4297C394.37 27.4505 394.464 27.474 394.516 27.5ZM400.773 33.7578C400.773 33.5495 400.727 33.3568 400.633 33.1797C400.544 32.9974 400.359 32.8333 400.078 32.6875C399.802 32.5365 399.385 32.4062 398.828 32.2969C398.359 32.1979 397.935 32.0807 397.555 31.9453C397.18 31.8099 396.859 31.6458 396.594 31.4531C396.333 31.2604 396.133 31.0339 395.992 30.7734C395.852 30.513 395.781 30.2083 395.781 29.8594C395.781 29.526 395.854 29.2109 396 28.9141C396.151 28.6172 396.362 28.3542 396.633 28.125C396.909 27.8958 397.24 27.7161 397.625 27.5859C398.01 27.4557 398.44 27.3906 398.914 27.3906C399.591 27.3906 400.169 27.5104 400.648 27.75C401.128 27.9896 401.495 28.3099 401.75 28.7109C402.005 29.1068 402.133 29.5469 402.133 30.0312H400.688C400.688 29.7969 400.617 29.5703 400.477 29.3516C400.341 29.1276 400.141 28.9427 399.875 28.7969C399.615 28.651 399.294 28.5781 398.914 28.5781C398.513 28.5781 398.188 28.6406 397.938 28.7656C397.693 28.8854 397.513 29.0391 397.398 29.2266C397.289 29.4141 397.234 29.612 397.234 29.8203C397.234 29.9766 397.26 30.1172 397.312 30.2422C397.37 30.362 397.469 30.474 397.609 30.5781C397.75 30.6771 397.948 30.7708 398.203 30.8594C398.458 30.9479 398.784 31.0365 399.18 31.125C399.872 31.2812 400.443 31.4688 400.891 31.6875C401.339 31.9062 401.672 32.1745 401.891 32.4922C402.109 32.8099 402.219 33.1953 402.219 33.6484C402.219 34.0182 402.141 34.3568 401.984 34.6641C401.833 34.9714 401.612 35.237 401.32 35.4609C401.034 35.6797 400.69 35.8516 400.289 35.9766C399.893 36.0964 399.448 36.1562 398.953 36.1562C398.208 36.1562 397.578 36.0234 397.062 35.7578C396.547 35.4922 396.156 35.1484 395.891 34.7266C395.625 34.3047 395.492 33.8594 395.492 33.3906H396.945C396.966 33.7865 397.081 34.1016 397.289 34.3359C397.497 34.5651 397.753 34.7292 398.055 34.8281C398.357 34.9219 398.656 34.9688 398.953 34.9688C399.349 34.9688 399.68 34.9167 399.945 34.8125C400.216 34.7083 400.422 34.5651 400.562 34.3828C400.703 34.2005 400.773 33.9922 400.773 33.7578Z" fill="#2D3139"/>
</g>
<defs>
<filter id="filter0_di_7916_14802" x="0" y="0" width="472" height="66" filterUnits="userSpaceOnUse" color-interpolation-filters="sRGB">
<feFlood flood-opacity="0" result="BackgroundImageFix"/>
<feColorMatrix in="SourceAlpha" type="matrix" values="0 0 0 0 0 0 0 0 0 0 0 0 0 0 0 0 0 0 127 0" result="hardAlpha"/>
<feOffset dy="1"/>
<feGaussianBlur stdDeviation="1.5"/>
<feComposite in2="hardAlpha" operator="out"/>
<feColorMatrix type="matrix" values="0 0 0 0 0.121569 0 0 0 0 0.133333 0 0 0 0 0.160784 0 0 0 0.08 0"/>
<feBlend mode="normal" in2="BackgroundImageFix" result="effect1_dropShadow_7916_14802"/>
<feBlend mode="normal" in="SourceGraphic" in2="effect1_dropShadow_7916_14802" result="shape"/>
<feColorMatrix in="SourceAlpha" type="matrix" values="0 0 0 0 0 0 0 0 0 0 0 0 0 0 0 0 0 0 127 0" result="hardAlpha"/>
<feMorphology radius="1" operator="erode" in="SourceAlpha" result="effect2_innerShadow_7916_14802"/>
<feOffset/>
<feComposite in2="hardAlpha" operator="arithmetic" k2="-1" k3="1"/>
<feColorMatrix type="matrix" values="0 0 0 0 0.882353 0 0 0 0 0.898039 0 0 0 0 0.921569 0 0 0 1 0"/>
<feBlend mode="normal" in2="shape" result="effect2_innerShadow_7916_14802"/>
</filter>
</defs>
</svg>
