<svg width="472" height="66" viewBox="0 0 472 66" fill="none" xmlns="http://www.w3.org/2000/svg">
<g filter="url(#filter0_di_7916_14796)">
<rect x="3" y="2" width="466" height="60" rx="4" fill="white"/>
<g clip-path="url(#clip0_7916_14796)">
<path fill-rule="evenodd" clip-rule="evenodd" d="M33.3831 19.888C33.2624 19.8331 33.1313 19.8047 32.9987 19.8047C32.866 19.8047 32.7349 19.8331 32.6142 19.888L27.7429 22.1054L32.9949 24.4974L38.2507 22.1036L33.3831 19.888ZM26.8701 29.4189V23.7471L32.0701 26.115V32.3829L27.4105 30.2639C27.2483 30.1901 27.1107 30.0712 27.0142 29.9213C26.9177 29.7715 26.8664 29.5971 26.8664 29.4189H26.8701ZM33.9272 41.884V35.6811L38.8524 37.9246V44.1924L34.1984 42.0734C34.0967 42.0272 34.0061 41.963 33.9272 41.884ZM40.7095 44.1961V37.9246L45.9151 35.5549V41.2284C45.915 41.4066 45.8637 41.5811 45.7672 41.7309C45.6707 41.8807 45.5332 41.9996 45.3709 42.0734L40.7095 44.1961ZM32.0664 35.6811V41.8914C31.9891 41.9671 31.8992 42.0287 31.8008 42.0734L27.1394 44.1961V37.9246L32.0664 35.6811ZM25.2822 37.9246V44.1924L20.6301 42.0734C20.4679 41.9996 20.3303 41.8807 20.2338 41.7309C20.1373 41.5811 20.086 41.4066 20.0859 41.2284V35.5567L25.2859 37.9246H25.2822ZM33.9235 32.3866V26.1131L39.1291 23.7434V29.4189C39.129 29.5971 39.0777 29.7715 38.9812 29.9213C38.8847 30.0712 38.7472 30.1901 38.5849 30.2639L33.9235 32.3866ZM39.3984 31.6994C39.5191 31.6445 39.6502 31.6161 39.7828 31.6161C39.9154 31.6161 40.0465 31.6445 40.1672 31.6994L45.0329 33.9131L39.7772 36.307L34.5308 33.9131L39.4002 31.6957L39.3984 31.6994ZM25.8301 31.6994C25.9508 31.6445 26.0819 31.6161 26.2145 31.6161C26.3471 31.6161 26.4782 31.6445 26.5989 31.6994L31.4647 33.9131L26.2108 36.3089L20.9607 33.9131L25.8301 31.6994Z" fill="#282828"/>
</g>
<path d="M70.125 24.625V36H68.6172V24.625H70.125ZM74.0938 29.3516V36H72.6484V27.5469H74.0156L74.0938 29.3516ZM73.75 31.4531L73.1484 31.4297C73.1536 30.8516 73.2396 30.3177 73.4062 29.8281C73.5729 29.3333 73.8073 28.9036 74.1094 28.5391C74.4115 28.1745 74.7708 27.8932 75.1875 27.6953C75.6094 27.4922 76.0755 27.3906 76.5859 27.3906C77.0026 27.3906 77.3776 27.4479 77.7109 27.5625C78.0443 27.6719 78.3281 27.849 78.5625 28.0938C78.8021 28.3385 78.9844 28.6562 79.1094 29.0469C79.2344 29.4323 79.2969 29.9036 79.2969 30.4609V36H77.8438V30.4453C77.8438 30.0026 77.7786 29.6484 77.6484 29.3828C77.5182 29.112 77.3281 28.9167 77.0781 28.7969C76.8281 28.6719 76.5208 28.6094 76.1562 28.6094C75.7969 28.6094 75.4688 28.6849 75.1719 28.8359C74.8802 28.987 74.6276 29.1953 74.4141 29.4609C74.2057 29.7266 74.0417 30.0312 73.9219 30.375C73.8073 30.7135 73.75 31.0729 73.75 31.4531ZM86.8203 34.3594V24H88.2734V36H86.9453L86.8203 34.3594ZM81.1328 31.8672V31.7031C81.1328 31.0573 81.2109 30.4714 81.3672 29.9453C81.5286 29.4141 81.7552 28.9583 82.0469 28.5781C82.3438 28.1979 82.6953 27.9062 83.1016 27.7031C83.513 27.4948 83.9714 27.3906 84.4766 27.3906C85.0078 27.3906 85.4714 27.4844 85.8672 27.6719C86.2682 27.8542 86.6068 28.1224 86.8828 28.4766C87.1641 28.8255 87.3854 29.2474 87.5469 29.7422C87.7083 30.237 87.8203 30.7969 87.8828 31.4219V32.1406C87.8255 32.7604 87.7135 33.3177 87.5469 33.8125C87.3854 34.3073 87.1641 34.7292 86.8828 35.0781C86.6068 35.4271 86.2682 35.6953 85.8672 35.8828C85.4661 36.0651 84.9974 36.1562 84.4609 36.1562C83.9661 36.1562 83.513 36.0495 83.1016 35.8359C82.6953 35.6224 82.3438 35.3229 82.0469 34.9375C81.7552 34.5521 81.5286 34.099 81.3672 33.5781C81.2109 33.0521 81.1328 32.4818 81.1328 31.8672ZM82.5859 31.7031V31.8672C82.5859 32.2891 82.6276 32.6849 82.7109 33.0547C82.7995 33.4245 82.9349 33.75 83.1172 34.0312C83.2995 34.3125 83.5312 34.5339 83.8125 34.6953C84.0938 34.8516 84.4297 34.9297 84.8203 34.9297C85.2995 34.9297 85.6927 34.8281 86 34.625C86.3125 34.4219 86.5625 34.1536 86.75 33.8203C86.9375 33.487 87.0833 33.125 87.1875 32.7344V30.8516C87.125 30.5651 87.0339 30.2891 86.9141 30.0234C86.7995 29.7526 86.6484 29.513 86.4609 29.3047C86.2786 29.0911 86.0521 28.9219 85.7812 28.7969C85.5156 28.6719 85.2005 28.6094 84.8359 28.6094C84.4401 28.6094 84.099 28.6927 83.8125 28.8594C83.5312 29.0208 83.2995 29.2448 83.1172 29.5312C82.9349 29.8125 82.7995 30.1406 82.7109 30.5156C82.6276 30.8854 82.5859 31.2812 82.5859 31.7031ZM95.6953 34.0469V27.5469H97.1484V36H95.7656L95.6953 34.0469ZM95.9688 32.2656L96.5703 32.25C96.5703 32.8125 96.5104 33.3333 96.3906 33.8125C96.276 34.2865 96.0885 34.6979 95.8281 35.0469C95.5677 35.3958 95.2266 35.6693 94.8047 35.8672C94.3828 36.0599 93.8698 36.1562 93.2656 36.1562C92.8542 36.1562 92.4766 36.0964 92.1328 35.9766C91.7943 35.8568 91.5026 35.6719 91.2578 35.4219C91.013 35.1719 90.8229 34.8464 90.6875 34.4453C90.5573 34.0443 90.4922 33.5625 90.4922 33V27.5469H91.9375V33.0156C91.9375 33.3958 91.9792 33.7109 92.0625 33.9609C92.151 34.2057 92.2682 34.401 92.4141 34.5469C92.5651 34.6875 92.7318 34.7865 92.9141 34.8438C93.1016 34.901 93.2943 34.9297 93.4922 34.9297C94.1068 34.9297 94.5938 34.8125 94.9531 34.5781C95.3125 34.3385 95.5703 34.0182 95.7266 33.6172C95.888 33.2109 95.9688 32.7604 95.9688 32.2656ZM104.273 33.7578C104.273 33.5495 104.227 33.3568 104.133 33.1797C104.044 32.9974 103.859 32.8333 103.578 32.6875C103.302 32.5365 102.885 32.4062 102.328 32.2969C101.859 32.1979 101.435 32.0807 101.055 31.9453C100.68 31.8099 100.359 31.6458 100.094 31.4531C99.8333 31.2604 99.6328 31.0339 99.4922 30.7734C99.3516 30.513 99.2812 30.2083 99.2812 29.8594C99.2812 29.526 99.3542 29.2109 99.5 28.9141C99.651 28.6172 99.862 28.3542 100.133 28.125C100.409 27.8958 100.74 27.7161 101.125 27.5859C101.51 27.4557 101.94 27.3906 102.414 27.3906C103.091 27.3906 103.669 27.5104 104.148 27.75C104.628 27.9896 104.995 28.3099 105.25 28.7109C105.505 29.1068 105.633 29.5469 105.633 30.0312H104.188C104.188 29.7969 104.117 29.5703 103.977 29.3516C103.841 29.1276 103.641 28.9427 103.375 28.7969C103.115 28.651 102.794 28.5781 102.414 28.5781C102.013 28.5781 101.688 28.6406 101.438 28.7656C101.193 28.8854 101.013 29.0391 100.898 29.2266C100.789 29.4141 100.734 29.612 100.734 29.8203C100.734 29.9766 100.76 30.1172 100.812 30.2422C100.87 30.362 100.969 30.474 101.109 30.5781C101.25 30.6771 101.448 30.7708 101.703 30.8594C101.958 30.9479 102.284 31.0365 102.68 31.125C103.372 31.2812 103.943 31.4688 104.391 31.6875C104.839 31.9062 105.172 32.1745 105.391 32.4922C105.609 32.8099 105.719 33.1953 105.719 33.6484C105.719 34.0182 105.641 34.3568 105.484 34.6641C105.333 34.9714 105.112 35.237 104.82 35.4609C104.534 35.6797 104.19 35.8516 103.789 35.9766C103.393 36.0964 102.948 36.1562 102.453 36.1562C101.708 36.1562 101.078 36.0234 100.562 35.7578C100.047 35.4922 99.6562 35.1484 99.3906 34.7266C99.125 34.3047 98.9922 33.8594 98.9922 33.3906H100.445C100.466 33.7865 100.581 34.1016 100.789 34.3359C100.997 34.5651 101.253 34.7292 101.555 34.8281C101.857 34.9219 102.156 34.9688 102.453 34.9688C102.849 34.9688 103.18 34.9167 103.445 34.8125C103.716 34.7083 103.922 34.5651 104.062 34.3828C104.203 34.2005 104.273 33.9922 104.273 33.7578ZM111.156 27.5469V28.6562H106.586V27.5469H111.156ZM108.133 25.4922H109.578V33.9062C109.578 34.1927 109.622 34.4089 109.711 34.5547C109.799 34.7005 109.914 34.7969 110.055 34.8438C110.195 34.8906 110.346 34.9141 110.508 34.9141C110.628 34.9141 110.753 34.9036 110.883 34.8828C111.018 34.8568 111.12 34.8359 111.188 34.8203L111.195 36C111.081 36.0365 110.93 36.0703 110.742 36.1016C110.56 36.138 110.339 36.1562 110.078 36.1562C109.724 36.1562 109.398 36.0859 109.102 35.9453C108.805 35.8047 108.568 35.5703 108.391 35.2422C108.219 34.9089 108.133 34.4609 108.133 33.8984V25.4922ZM114.297 28.875V36H112.852V27.5469H114.258L114.297 28.875ZM116.938 27.5L116.93 28.8438C116.81 28.8177 116.695 28.8021 116.586 28.7969C116.482 28.7865 116.362 28.7812 116.227 28.7812C115.893 28.7812 115.599 28.8333 115.344 28.9375C115.089 29.0417 114.872 29.1875 114.695 29.375C114.518 29.5625 114.378 29.7865 114.273 30.0469C114.174 30.3021 114.109 30.5833 114.078 30.8906L113.672 31.125C113.672 30.6146 113.721 30.1354 113.82 29.6875C113.924 29.2396 114.083 28.8438 114.297 28.5C114.51 28.151 114.781 27.8802 115.109 27.6875C115.443 27.4896 115.839 27.3906 116.297 27.3906C116.401 27.3906 116.521 27.4036 116.656 27.4297C116.792 27.4505 116.885 27.474 116.938 27.5ZM119.844 27.5469V36H118.391V27.5469H119.844ZM118.281 25.3047C118.281 25.0703 118.352 24.8724 118.492 24.7109C118.638 24.5495 118.852 24.4688 119.133 24.4688C119.409 24.4688 119.62 24.5495 119.766 24.7109C119.917 24.8724 119.992 25.0703 119.992 25.3047C119.992 25.5286 119.917 25.7214 119.766 25.8828C119.62 26.0391 119.409 26.1172 119.133 26.1172C118.852 26.1172 118.638 26.0391 118.492 25.8828C118.352 25.7214 118.281 25.5286 118.281 25.3047ZM127.148 34.5547V30.2031C127.148 29.8698 127.081 29.5807 126.945 29.3359C126.815 29.0859 126.617 28.8932 126.352 28.7578C126.086 28.6224 125.758 28.5547 125.367 28.5547C125.003 28.5547 124.682 28.6172 124.406 28.7422C124.135 28.8672 123.922 29.0312 123.766 29.2344C123.615 29.4375 123.539 29.6562 123.539 29.8906H122.094C122.094 29.5885 122.172 29.2891 122.328 28.9922C122.484 28.6953 122.708 28.4271 123 28.1875C123.297 27.9427 123.651 27.75 124.062 27.6094C124.479 27.4635 124.943 27.3906 125.453 27.3906C126.068 27.3906 126.609 27.4948 127.078 27.7031C127.552 27.9115 127.922 28.2266 128.188 28.6484C128.458 29.0651 128.594 29.5885 128.594 30.2188V34.1562C128.594 34.4375 128.617 34.737 128.664 35.0547C128.716 35.3724 128.792 35.6458 128.891 35.875V36H127.383C127.31 35.8333 127.253 35.612 127.211 35.3359C127.169 35.0547 127.148 34.7943 127.148 34.5547ZM127.398 30.875L127.414 31.8906H125.953C125.542 31.8906 125.174 31.9245 124.852 31.9922C124.529 32.0547 124.258 32.151 124.039 32.2812C123.82 32.4115 123.654 32.5755 123.539 32.7734C123.424 32.9661 123.367 33.1927 123.367 33.4531C123.367 33.7188 123.427 33.9609 123.547 34.1797C123.667 34.3984 123.846 34.5729 124.086 34.7031C124.331 34.8281 124.63 34.8906 124.984 34.8906C125.427 34.8906 125.818 34.7969 126.156 34.6094C126.495 34.4219 126.763 34.1927 126.961 33.9219C127.164 33.651 127.273 33.388 127.289 33.1328L127.906 33.8281C127.87 34.0469 127.771 34.2891 127.609 34.5547C127.448 34.8203 127.232 35.0755 126.961 35.3203C126.695 35.5599 126.378 35.7604 126.008 35.9219C125.643 36.0781 125.232 36.1562 124.773 36.1562C124.201 36.1562 123.698 36.0443 123.266 35.8203C122.839 35.5964 122.505 35.2969 122.266 34.9219C122.031 34.5417 121.914 34.1172 121.914 33.6484C121.914 33.1953 122.003 32.7969 122.18 32.4531C122.357 32.1042 122.612 31.8151 122.945 31.5859C123.279 31.3516 123.68 31.1745 124.148 31.0547C124.617 30.9349 125.141 30.875 125.719 30.875H127.398ZM132.438 24V36H130.984V24H132.438ZM136.328 27.5469V36H134.875V27.5469H136.328ZM134.766 25.3047C134.766 25.0703 134.836 24.8724 134.977 24.7109C135.122 24.5495 135.336 24.4688 135.617 24.4688C135.893 24.4688 136.104 24.5495 136.25 24.7109C136.401 24.8724 136.477 25.0703 136.477 25.3047C136.477 25.5286 136.401 25.7214 136.25 25.8828C136.104 26.0391 135.893 26.1172 135.617 26.1172C135.336 26.1172 135.122 26.0391 134.977 25.8828C134.836 25.7214 134.766 25.5286 134.766 25.3047ZM144.945 34.8125V36H138.797V34.8125H144.945ZM144.719 28.5703L139.125 36H138.242V34.9375L143.797 27.5469H144.719V28.5703ZM144.078 27.5469V28.7422H138.305V27.5469H144.078ZM149.969 36.1562C149.38 36.1562 148.846 36.0573 148.367 35.8594C147.893 35.6562 147.484 35.3724 147.141 35.0078C146.802 34.6432 146.542 34.2109 146.359 33.7109C146.177 33.2109 146.086 32.6641 146.086 32.0703V31.7422C146.086 31.0547 146.188 30.4427 146.391 29.9062C146.594 29.3646 146.87 28.9062 147.219 28.5312C147.568 28.1562 147.964 27.8724 148.406 27.6797C148.849 27.487 149.307 27.3906 149.781 27.3906C150.385 27.3906 150.906 27.4948 151.344 27.7031C151.786 27.9115 152.148 28.2031 152.43 28.5781C152.711 28.9479 152.919 29.3854 153.055 29.8906C153.19 30.3906 153.258 30.9375 153.258 31.5312V32.1797H146.945V31H151.812V30.8906C151.792 30.5156 151.714 30.151 151.578 29.7969C151.448 29.4427 151.24 29.151 150.953 28.9219C150.667 28.6927 150.276 28.5781 149.781 28.5781C149.453 28.5781 149.151 28.6484 148.875 28.7891C148.599 28.9245 148.362 29.1276 148.164 29.3984C147.966 29.6693 147.812 30 147.703 30.3906C147.594 30.7812 147.539 31.2318 147.539 31.7422V32.0703C147.539 32.4714 147.594 32.849 147.703 33.2031C147.818 33.5521 147.982 33.8594 148.195 34.125C148.414 34.3906 148.677 34.599 148.984 34.75C149.297 34.901 149.651 34.9766 150.047 34.9766C150.557 34.9766 150.99 34.8724 151.344 34.6641C151.698 34.4557 152.008 34.1771 152.273 33.8281L153.148 34.5234C152.966 34.7995 152.734 35.0625 152.453 35.3125C152.172 35.5625 151.826 35.7656 151.414 35.9219C151.008 36.0781 150.526 36.1562 149.969 36.1562ZM163.344 25.6328L159.578 36H158.039L162.375 24.625H163.367L163.344 25.6328ZM166.5 36L162.727 25.6328L162.703 24.625H163.695L168.047 36H166.5ZM166.305 31.7891V33.0234H159.914V31.7891H166.305ZM171.188 24.625V36H169.68V24.625H171.188ZM182.602 33.7578C182.602 33.5495 182.555 33.3568 182.461 33.1797C182.372 32.9974 182.188 32.8333 181.906 32.6875C181.63 32.5365 181.214 32.4062 180.656 32.2969C180.188 32.1979 179.763 32.0807 179.383 31.9453C179.008 31.8099 178.688 31.6458 178.422 31.4531C178.161 31.2604 177.961 31.0339 177.82 30.7734C177.68 30.513 177.609 30.2083 177.609 29.8594C177.609 29.526 177.682 29.2109 177.828 28.9141C177.979 28.6172 178.19 28.3542 178.461 28.125C178.737 27.8958 179.068 27.7161 179.453 27.5859C179.839 27.4557 180.268 27.3906 180.742 27.3906C181.419 27.3906 181.997 27.5104 182.477 27.75C182.956 27.9896 183.323 28.3099 183.578 28.7109C183.833 29.1068 183.961 29.5469 183.961 30.0312H182.516C182.516 29.7969 182.445 29.5703 182.305 29.3516C182.169 29.1276 181.969 28.9427 181.703 28.7969C181.443 28.651 181.122 28.5781 180.742 28.5781C180.341 28.5781 180.016 28.6406 179.766 28.7656C179.521 28.8854 179.341 29.0391 179.227 29.2266C179.117 29.4141 179.062 29.612 179.062 29.8203C179.062 29.9766 179.089 30.1172 179.141 30.2422C179.198 30.362 179.297 30.474 179.438 30.5781C179.578 30.6771 179.776 30.7708 180.031 30.8594C180.286 30.9479 180.612 31.0365 181.008 31.125C181.701 31.2812 182.271 31.4688 182.719 31.6875C183.167 31.9062 183.5 32.1745 183.719 32.4922C183.938 32.8099 184.047 33.1953 184.047 33.6484C184.047 34.0182 183.969 34.3568 183.812 34.6641C183.661 34.9714 183.44 35.237 183.148 35.4609C182.862 35.6797 182.518 35.8516 182.117 35.9766C181.721 36.0964 181.276 36.1562 180.781 36.1562C180.036 36.1562 179.406 36.0234 178.891 35.7578C178.375 35.4922 177.984 35.1484 177.719 34.7266C177.453 34.3047 177.32 33.8594 177.32 33.3906H178.773C178.794 33.7865 178.909 34.1016 179.117 34.3359C179.326 34.5651 179.581 34.7292 179.883 34.8281C180.185 34.9219 180.484 34.9688 180.781 34.9688C181.177 34.9688 181.508 34.9167 181.773 34.8125C182.044 34.7083 182.25 34.5651 182.391 34.3828C182.531 34.2005 182.602 33.9922 182.602 33.7578ZM185.562 31.8672V31.6875C185.562 31.0781 185.651 30.513 185.828 29.9922C186.005 29.4661 186.26 29.0104 186.594 28.625C186.927 28.2344 187.331 27.9323 187.805 27.7188C188.279 27.5 188.81 27.3906 189.398 27.3906C189.992 27.3906 190.526 27.5 191 27.7188C191.479 27.9323 191.885 28.2344 192.219 28.625C192.557 29.0104 192.815 29.4661 192.992 29.9922C193.169 30.513 193.258 31.0781 193.258 31.6875V31.8672C193.258 32.4766 193.169 33.0417 192.992 33.5625C192.815 34.0833 192.557 34.5391 192.219 34.9297C191.885 35.3151 191.482 35.6172 191.008 35.8359C190.539 36.0495 190.008 36.1562 189.414 36.1562C188.82 36.1562 188.286 36.0495 187.812 35.8359C187.339 35.6172 186.932 35.3151 186.594 34.9297C186.26 34.5391 186.005 34.0833 185.828 33.5625C185.651 33.0417 185.562 32.4766 185.562 31.8672ZM187.008 31.6875V31.8672C187.008 32.2891 187.057 32.6875 187.156 33.0625C187.255 33.4323 187.404 33.7604 187.602 34.0469C187.805 34.3333 188.057 34.5599 188.359 34.7266C188.661 34.888 189.013 34.9688 189.414 34.9688C189.81 34.9688 190.156 34.888 190.453 34.7266C190.755 34.5599 191.005 34.3333 191.203 34.0469C191.401 33.7604 191.549 33.4323 191.648 33.0625C191.753 32.6875 191.805 32.2891 191.805 31.8672V31.6875C191.805 31.2708 191.753 30.8776 191.648 30.5078C191.549 30.1328 191.398 29.8021 191.195 29.5156C190.997 29.224 190.747 28.9948 190.445 28.8281C190.148 28.6615 189.799 28.5781 189.398 28.5781C189.003 28.5781 188.654 28.6615 188.352 28.8281C188.055 28.9948 187.805 29.224 187.602 29.5156C187.404 29.8021 187.255 30.1328 187.156 30.5078C187.057 30.8776 187.008 31.2708 187.008 31.6875ZM196.641 24V36H195.188V24H196.641ZM204.133 34.0469V27.5469H205.586V36H204.203L204.133 34.0469ZM204.406 32.2656L205.008 32.25C205.008 32.8125 204.948 33.3333 204.828 33.8125C204.714 34.2865 204.526 34.6979 204.266 35.0469C204.005 35.3958 203.664 35.6693 203.242 35.8672C202.82 36.0599 202.307 36.1562 201.703 36.1562C201.292 36.1562 200.914 36.0964 200.57 35.9766C200.232 35.8568 199.94 35.6719 199.695 35.4219C199.451 35.1719 199.26 34.8464 199.125 34.4453C198.995 34.0443 198.93 33.5625 198.93 33V27.5469H200.375V33.0156C200.375 33.3958 200.417 33.7109 200.5 33.9609C200.589 34.2057 200.706 34.401 200.852 34.5469C201.003 34.6875 201.169 34.7865 201.352 34.8438C201.539 34.901 201.732 34.9297 201.93 34.9297C202.544 34.9297 203.031 34.8125 203.391 34.5781C203.75 34.3385 204.008 34.0182 204.164 33.6172C204.326 33.2109 204.406 32.7604 204.406 32.2656ZM211.328 27.5469V28.6562H206.758V27.5469H211.328ZM208.305 25.4922H209.75V33.9062C209.75 34.1927 209.794 34.4089 209.883 34.5547C209.971 34.7005 210.086 34.7969 210.227 34.8438C210.367 34.8906 210.518 34.9141 210.68 34.9141C210.799 34.9141 210.924 34.9036 211.055 34.8828C211.19 34.8568 211.292 34.8359 211.359 34.8203L211.367 36C211.253 36.0365 211.102 36.0703 210.914 36.1016C210.732 36.138 210.51 36.1562 210.25 36.1562C209.896 36.1562 209.57 36.0859 209.273 35.9453C208.977 35.8047 208.74 35.5703 208.562 35.2422C208.391 34.9089 208.305 34.4609 208.305 33.8984V25.4922ZM214.594 27.5469V36H213.141V27.5469H214.594ZM213.031 25.3047C213.031 25.0703 213.102 24.8724 213.242 24.7109C213.388 24.5495 213.602 24.4688 213.883 24.4688C214.159 24.4688 214.37 24.5495 214.516 24.7109C214.667 24.8724 214.742 25.0703 214.742 25.3047C214.742 25.5286 214.667 25.7214 214.516 25.8828C214.37 26.0391 214.159 26.1172 213.883 26.1172C213.602 26.1172 213.388 26.0391 213.242 25.8828C213.102 25.7214 213.031 25.5286 213.031 25.3047ZM216.531 31.8672V31.6875C216.531 31.0781 216.62 30.513 216.797 29.9922C216.974 29.4661 217.229 29.0104 217.562 28.625C217.896 28.2344 218.299 27.9323 218.773 27.7188C219.247 27.5 219.779 27.3906 220.367 27.3906C220.961 27.3906 221.495 27.5 221.969 27.7188C222.448 27.9323 222.854 28.2344 223.188 28.625C223.526 29.0104 223.784 29.4661 223.961 29.9922C224.138 30.513 224.227 31.0781 224.227 31.6875V31.8672C224.227 32.4766 224.138 33.0417 223.961 33.5625C223.784 34.0833 223.526 34.5391 223.188 34.9297C222.854 35.3151 222.451 35.6172 221.977 35.8359C221.508 36.0495 220.977 36.1562 220.383 36.1562C219.789 36.1562 219.255 36.0495 218.781 35.8359C218.307 35.6172 217.901 35.3151 217.562 34.9297C217.229 34.5391 216.974 34.0833 216.797 33.5625C216.62 33.0417 216.531 32.4766 216.531 31.8672ZM217.977 31.6875V31.8672C217.977 32.2891 218.026 32.6875 218.125 33.0625C218.224 33.4323 218.372 33.7604 218.57 34.0469C218.773 34.3333 219.026 34.5599 219.328 34.7266C219.63 34.888 219.982 34.9688 220.383 34.9688C220.779 34.9688 221.125 34.888 221.422 34.7266C221.724 34.5599 221.974 34.3333 222.172 34.0469C222.37 33.7604 222.518 33.4323 222.617 33.0625C222.721 32.6875 222.773 32.2891 222.773 31.8672V31.6875C222.773 31.2708 222.721 30.8776 222.617 30.5078C222.518 30.1328 222.367 29.8021 222.164 29.5156C221.966 29.224 221.716 28.9948 221.414 28.8281C221.117 28.6615 220.768 28.5781 220.367 28.5781C219.971 28.5781 219.622 28.6615 219.32 28.8281C219.023 28.9948 218.773 29.224 218.57 29.5156C218.372 29.8021 218.224 30.1328 218.125 30.5078C218.026 30.8776 217.977 31.2708 217.977 31.6875ZM227.484 29.3516V36H226.039V27.5469H227.406L227.484 29.3516ZM227.141 31.4531L226.539 31.4297C226.544 30.8516 226.63 30.3177 226.797 29.8281C226.964 29.3333 227.198 28.9036 227.5 28.5391C227.802 28.1745 228.161 27.8932 228.578 27.6953C229 27.4922 229.466 27.3906 229.977 27.3906C230.393 27.3906 230.768 27.4479 231.102 27.5625C231.435 27.6719 231.719 27.849 231.953 28.0938C232.193 28.3385 232.375 28.6562 232.5 29.0469C232.625 29.4323 232.688 29.9036 232.688 30.4609V36H231.234V30.4453C231.234 30.0026 231.169 29.6484 231.039 29.3828C230.909 29.112 230.719 28.9167 230.469 28.7969C230.219 28.6719 229.911 28.6094 229.547 28.6094C229.188 28.6094 228.859 28.6849 228.562 28.8359C228.271 28.987 228.018 29.1953 227.805 29.4609C227.596 29.7266 227.432 30.0312 227.312 30.375C227.198 30.7135 227.141 31.0729 227.141 31.4531ZM239.805 33.7578C239.805 33.5495 239.758 33.3568 239.664 33.1797C239.576 32.9974 239.391 32.8333 239.109 32.6875C238.833 32.5365 238.417 32.4062 237.859 32.2969C237.391 32.1979 236.966 32.0807 236.586 31.9453C236.211 31.8099 235.891 31.6458 235.625 31.4531C235.365 31.2604 235.164 31.0339 235.023 30.7734C234.883 30.513 234.812 30.2083 234.812 29.8594C234.812 29.526 234.885 29.2109 235.031 28.9141C235.182 28.6172 235.393 28.3542 235.664 28.125C235.94 27.8958 236.271 27.7161 236.656 27.5859C237.042 27.4557 237.471 27.3906 237.945 27.3906C238.622 27.3906 239.201 27.5104 239.68 27.75C240.159 27.9896 240.526 28.3099 240.781 28.7109C241.036 29.1068 241.164 29.5469 241.164 30.0312H239.719C239.719 29.7969 239.648 29.5703 239.508 29.3516C239.372 29.1276 239.172 28.9427 238.906 28.7969C238.646 28.651 238.326 28.5781 237.945 28.5781C237.544 28.5781 237.219 28.6406 236.969 28.7656C236.724 28.8854 236.544 29.0391 236.43 29.2266C236.32 29.4141 236.266 29.612 236.266 29.8203C236.266 29.9766 236.292 30.1172 236.344 30.2422C236.401 30.362 236.5 30.474 236.641 30.5781C236.781 30.6771 236.979 30.7708 237.234 30.8594C237.49 30.9479 237.815 31.0365 238.211 31.125C238.904 31.2812 239.474 31.4688 239.922 31.6875C240.37 31.9062 240.703 32.1745 240.922 32.4922C241.141 32.8099 241.25 33.1953 241.25 33.6484C241.25 34.0182 241.172 34.3568 241.016 34.6641C240.865 34.9714 240.643 35.237 240.352 35.4609C240.065 35.6797 239.721 35.8516 239.32 35.9766C238.924 36.0964 238.479 36.1562 237.984 36.1562C237.24 36.1562 236.609 36.0234 236.094 35.7578C235.578 35.4922 235.188 35.1484 234.922 34.7266C234.656 34.3047 234.523 33.8594 234.523 33.3906H235.977C235.997 33.7865 236.112 34.1016 236.32 34.3359C236.529 34.5651 236.784 34.7292 237.086 34.8281C237.388 34.9219 237.688 34.9688 237.984 34.9688C238.38 34.9688 238.711 34.9167 238.977 34.8125C239.247 34.7083 239.453 34.5651 239.594 34.3828C239.734 34.2005 239.805 33.9922 239.805 33.7578ZM247.109 24H248.562V34.3594L248.438 36H247.109V24ZM254.273 31.7031V31.8672C254.273 32.4818 254.201 33.0521 254.055 33.5781C253.909 34.099 253.695 34.5521 253.414 34.9375C253.133 35.3229 252.789 35.6224 252.383 35.8359C251.977 36.0495 251.51 36.1562 250.984 36.1562C250.448 36.1562 249.977 36.0651 249.57 35.8828C249.169 35.6953 248.831 35.4271 248.555 35.0781C248.279 34.7292 248.057 34.3073 247.891 33.8125C247.729 33.3177 247.617 32.7604 247.555 32.1406V31.4219C247.617 30.7969 247.729 30.237 247.891 29.7422C248.057 29.2474 248.279 28.8255 248.555 28.4766C248.831 28.1224 249.169 27.8542 249.57 27.6719C249.971 27.4844 250.438 27.3906 250.969 27.3906C251.5 27.3906 251.971 27.4948 252.383 27.7031C252.794 27.9062 253.138 28.1979 253.414 28.5781C253.695 28.9583 253.909 29.4141 254.055 29.9453C254.201 30.4714 254.273 31.0573 254.273 31.7031ZM252.82 31.8672V31.7031C252.82 31.2812 252.781 30.8854 252.703 30.5156C252.625 30.1406 252.5 29.8125 252.328 29.5312C252.156 29.2448 251.93 29.0208 251.648 28.8594C251.367 28.6927 251.021 28.6094 250.609 28.6094C250.245 28.6094 249.927 28.6719 249.656 28.7969C249.391 28.9219 249.164 29.0911 248.977 29.3047C248.789 29.513 248.635 29.7526 248.516 30.0234C248.401 30.2891 248.315 30.5651 248.258 30.8516V32.7344C248.341 33.099 248.477 33.4505 248.664 33.7891C248.857 34.1224 249.112 34.3958 249.43 34.6094C249.753 34.8229 250.151 34.9297 250.625 34.9297C251.016 34.9297 251.349 34.8516 251.625 34.6953C251.906 34.5339 252.133 34.3125 252.305 34.0312C252.482 33.75 252.612 33.4245 252.695 33.0547C252.779 32.6849 252.82 32.2891 252.82 31.8672ZM259.609 36.1562C259.021 36.1562 258.487 36.0573 258.008 35.8594C257.534 35.6562 257.125 35.3724 256.781 35.0078C256.443 34.6432 256.182 34.2109 256 33.7109C255.818 33.2109 255.727 32.6641 255.727 32.0703V31.7422C255.727 31.0547 255.828 30.4427 256.031 29.9062C256.234 29.3646 256.51 28.9062 256.859 28.5312C257.208 28.1562 257.604 27.8724 258.047 27.6797C258.49 27.487 258.948 27.3906 259.422 27.3906C260.026 27.3906 260.547 27.4948 260.984 27.7031C261.427 27.9115 261.789 28.2031 262.07 28.5781C262.352 28.9479 262.56 29.3854 262.695 29.8906C262.831 30.3906 262.898 30.9375 262.898 31.5312V32.1797H256.586V31H261.453V30.8906C261.432 30.5156 261.354 30.151 261.219 29.7969C261.089 29.4427 260.88 29.151 260.594 28.9219C260.307 28.6927 259.917 28.5781 259.422 28.5781C259.094 28.5781 258.792 28.6484 258.516 28.7891C258.24 28.9245 258.003 29.1276 257.805 29.3984C257.607 29.6693 257.453 30 257.344 30.3906C257.234 30.7812 257.18 31.2318 257.18 31.7422V32.0703C257.18 32.4714 257.234 32.849 257.344 33.2031C257.458 33.5521 257.622 33.8594 257.836 34.125C258.055 34.3906 258.318 34.599 258.625 34.75C258.938 34.901 259.292 34.9766 259.688 34.9766C260.198 34.9766 260.63 34.8724 260.984 34.6641C261.339 34.4557 261.648 34.1771 261.914 33.8281L262.789 34.5234C262.607 34.7995 262.375 35.0625 262.094 35.3125C261.812 35.5625 261.466 35.7656 261.055 35.9219C260.648 36.0781 260.167 36.1562 259.609 36.1562ZM266.852 35.125L269.203 27.5469H270.75L267.359 37.3047C267.281 37.513 267.177 37.737 267.047 37.9766C266.922 38.2214 266.76 38.4531 266.562 38.6719C266.365 38.8906 266.125 39.0677 265.844 39.2031C265.568 39.3438 265.237 39.4141 264.852 39.4141C264.737 39.4141 264.591 39.3984 264.414 39.3672C264.237 39.3359 264.112 39.3099 264.039 39.2891L264.031 38.1172C264.073 38.1224 264.138 38.1276 264.227 38.1328C264.32 38.1432 264.385 38.1484 264.422 38.1484C264.75 38.1484 265.029 38.1042 265.258 38.0156C265.487 37.9323 265.68 37.7891 265.836 37.5859C265.997 37.388 266.135 37.1146 266.25 36.7656L266.852 35.125ZM265.125 27.5469L267.32 34.1094L267.695 35.6328L266.656 36.1641L263.547 27.5469H265.125ZM271.547 31.8672V31.6875C271.547 31.0781 271.635 30.513 271.812 29.9922C271.99 29.4661 272.245 29.0104 272.578 28.625C272.911 28.2344 273.315 27.9323 273.789 27.7188C274.263 27.5 274.794 27.3906 275.383 27.3906C275.977 27.3906 276.51 27.5 276.984 27.7188C277.464 27.9323 277.87 28.2344 278.203 28.625C278.542 29.0104 278.799 29.4661 278.977 29.9922C279.154 30.513 279.242 31.0781 279.242 31.6875V31.8672C279.242 32.4766 279.154 33.0417 278.977 33.5625C278.799 34.0833 278.542 34.5391 278.203 34.9297C277.87 35.3151 277.466 35.6172 276.992 35.8359C276.523 36.0495 275.992 36.1562 275.398 36.1562C274.805 36.1562 274.271 36.0495 273.797 35.8359C273.323 35.6172 272.917 35.3151 272.578 34.9297C272.245 34.5391 271.99 34.0833 271.812 33.5625C271.635 33.0417 271.547 32.4766 271.547 31.8672ZM272.992 31.6875V31.8672C272.992 32.2891 273.042 32.6875 273.141 33.0625C273.24 33.4323 273.388 33.7604 273.586 34.0469C273.789 34.3333 274.042 34.5599 274.344 34.7266C274.646 34.888 274.997 34.9688 275.398 34.9688C275.794 34.9688 276.141 34.888 276.438 34.7266C276.74 34.5599 276.99 34.3333 277.188 34.0469C277.385 33.7604 277.534 33.4323 277.633 33.0625C277.737 32.6875 277.789 32.2891 277.789 31.8672V31.6875C277.789 31.2708 277.737 30.8776 277.633 30.5078C277.534 30.1328 277.383 29.8021 277.18 29.5156C276.982 29.224 276.732 28.9948 276.43 28.8281C276.133 28.6615 275.784 28.5781 275.383 28.5781C274.987 28.5781 274.638 28.6615 274.336 28.8281C274.039 28.9948 273.789 29.224 273.586 29.5156C273.388 29.8021 273.24 30.1328 273.141 30.5078C273.042 30.8776 272.992 31.2708 272.992 31.6875ZM282.5 29.3516V36H281.055V27.5469H282.422L282.5 29.3516ZM282.156 31.4531L281.555 31.4297C281.56 30.8516 281.646 30.3177 281.812 29.8281C281.979 29.3333 282.214 28.9036 282.516 28.5391C282.818 28.1745 283.177 27.8932 283.594 27.6953C284.016 27.4922 284.482 27.3906 284.992 27.3906C285.409 27.3906 285.784 27.4479 286.117 27.5625C286.451 27.6719 286.734 27.849 286.969 28.0938C287.208 28.3385 287.391 28.6562 287.516 29.0469C287.641 29.4323 287.703 29.9036 287.703 30.4609V36H286.25V30.4453C286.25 30.0026 286.185 29.6484 286.055 29.3828C285.924 29.112 285.734 28.9167 285.484 28.7969C285.234 28.6719 284.927 28.6094 284.562 28.6094C284.203 28.6094 283.875 28.6849 283.578 28.8359C283.286 28.987 283.034 29.1953 282.82 29.4609C282.612 29.7266 282.448 30.0312 282.328 30.375C282.214 30.7135 282.156 31.0729 282.156 31.4531ZM295.227 34.3594V24H296.68V36H295.352L295.227 34.3594ZM289.539 31.8672V31.7031C289.539 31.0573 289.617 30.4714 289.773 29.9453C289.935 29.4141 290.161 28.9583 290.453 28.5781C290.75 28.1979 291.102 27.9062 291.508 27.7031C291.919 27.4948 292.378 27.3906 292.883 27.3906C293.414 27.3906 293.878 27.4844 294.273 27.6719C294.674 27.8542 295.013 28.1224 295.289 28.4766C295.57 28.8255 295.792 29.2474 295.953 29.7422C296.115 30.237 296.227 30.7969 296.289 31.4219V32.1406C296.232 32.7604 296.12 33.3177 295.953 33.8125C295.792 34.3073 295.57 34.7292 295.289 35.0781C295.013 35.4271 294.674 35.6953 294.273 35.8828C293.872 36.0651 293.404 36.1562 292.867 36.1562C292.372 36.1562 291.919 36.0495 291.508 35.8359C291.102 35.6224 290.75 35.3229 290.453 34.9375C290.161 34.5521 289.935 34.099 289.773 33.5781C289.617 33.0521 289.539 32.4818 289.539 31.8672ZM290.992 31.7031V31.8672C290.992 32.2891 291.034 32.6849 291.117 33.0547C291.206 33.4245 291.341 33.75 291.523 34.0312C291.706 34.3125 291.938 34.5339 292.219 34.6953C292.5 34.8516 292.836 34.9297 293.227 34.9297C293.706 34.9297 294.099 34.8281 294.406 34.625C294.719 34.4219 294.969 34.1536 295.156 33.8203C295.344 33.487 295.49 33.125 295.594 32.7344V30.8516C295.531 30.5651 295.44 30.2891 295.32 30.0234C295.206 29.7526 295.055 29.513 294.867 29.3047C294.685 29.0911 294.458 28.9219 294.188 28.7969C293.922 28.6719 293.607 28.6094 293.242 28.6094C292.846 28.6094 292.505 28.6927 292.219 28.8594C291.938 29.0208 291.706 29.2448 291.523 29.5312C291.341 29.8125 291.206 30.1406 291.117 30.5156C291.034 30.8854 290.992 31.2812 290.992 31.7031ZM304.344 29.1719V39.25H302.891V27.5469H304.219L304.344 29.1719ZM310.039 31.7031V31.8672C310.039 32.4818 309.966 33.0521 309.82 33.5781C309.674 34.099 309.461 34.5521 309.18 34.9375C308.904 35.3229 308.562 35.6224 308.156 35.8359C307.75 36.0495 307.284 36.1562 306.758 36.1562C306.221 36.1562 305.747 36.0677 305.336 35.8906C304.924 35.7135 304.576 35.4557 304.289 35.1172C304.003 34.7786 303.773 34.3724 303.602 33.8984C303.435 33.4245 303.32 32.8906 303.258 32.2969V31.4219C303.32 30.7969 303.438 30.237 303.609 29.7422C303.781 29.2474 304.008 28.8255 304.289 28.4766C304.576 28.1224 304.922 27.8542 305.328 27.6719C305.734 27.4844 306.203 27.3906 306.734 27.3906C307.266 27.3906 307.737 27.4948 308.148 27.7031C308.56 27.9062 308.906 28.1979 309.188 28.5781C309.469 28.9583 309.68 29.4141 309.82 29.9453C309.966 30.4714 310.039 31.0573 310.039 31.7031ZM308.586 31.8672V31.7031C308.586 31.2812 308.542 30.8854 308.453 30.5156C308.365 30.1406 308.227 29.8125 308.039 29.5312C307.857 29.2448 307.622 29.0208 307.336 28.8594C307.049 28.6927 306.708 28.6094 306.312 28.6094C305.948 28.6094 305.63 28.6719 305.359 28.7969C305.094 28.9219 304.867 29.0911 304.68 29.3047C304.492 29.513 304.339 29.7526 304.219 30.0234C304.104 30.2891 304.018 30.5651 303.961 30.8516V32.875C304.065 33.2396 304.211 33.5833 304.398 33.9062C304.586 34.224 304.836 34.4818 305.148 34.6797C305.461 34.8724 305.854 34.9688 306.328 34.9688C306.719 34.9688 307.055 34.888 307.336 34.7266C307.622 34.5599 307.857 34.3333 308.039 34.0469C308.227 33.7604 308.365 33.4323 308.453 33.0625C308.542 32.6875 308.586 32.2891 308.586 31.8672ZM313.328 28.875V36H311.883V27.5469H313.289L313.328 28.875ZM315.969 27.5L315.961 28.8438C315.841 28.8177 315.727 28.8021 315.617 28.7969C315.513 28.7865 315.393 28.7812 315.258 28.7812C314.924 28.7812 314.63 28.8333 314.375 28.9375C314.12 29.0417 313.904 29.1875 313.727 29.375C313.549 29.5625 313.409 29.7865 313.305 30.0469C313.206 30.3021 313.141 30.5833 313.109 30.8906L312.703 31.125C312.703 30.6146 312.753 30.1354 312.852 29.6875C312.956 29.2396 313.115 28.8438 313.328 28.5C313.542 28.151 313.812 27.8802 314.141 27.6875C314.474 27.4896 314.87 27.3906 315.328 27.3906C315.432 27.3906 315.552 27.4036 315.688 27.4297C315.823 27.4505 315.917 27.474 315.969 27.5ZM316.766 31.8672V31.6875C316.766 31.0781 316.854 30.513 317.031 29.9922C317.208 29.4661 317.464 29.0104 317.797 28.625C318.13 28.2344 318.534 27.9323 319.008 27.7188C319.482 27.5 320.013 27.3906 320.602 27.3906C321.195 27.3906 321.729 27.5 322.203 27.7188C322.682 27.9323 323.089 28.2344 323.422 28.625C323.76 29.0104 324.018 29.4661 324.195 29.9922C324.372 30.513 324.461 31.0781 324.461 31.6875V31.8672C324.461 32.4766 324.372 33.0417 324.195 33.5625C324.018 34.0833 323.76 34.5391 323.422 34.9297C323.089 35.3151 322.685 35.6172 322.211 35.8359C321.742 36.0495 321.211 36.1562 320.617 36.1562C320.023 36.1562 319.49 36.0495 319.016 35.8359C318.542 35.6172 318.135 35.3151 317.797 34.9297C317.464 34.5391 317.208 34.0833 317.031 33.5625C316.854 33.0417 316.766 32.4766 316.766 31.8672ZM318.211 31.6875V31.8672C318.211 32.2891 318.26 32.6875 318.359 33.0625C318.458 33.4323 318.607 33.7604 318.805 34.0469C319.008 34.3333 319.26 34.5599 319.562 34.7266C319.865 34.888 320.216 34.9688 320.617 34.9688C321.013 34.9688 321.359 34.888 321.656 34.7266C321.958 34.5599 322.208 34.3333 322.406 34.0469C322.604 33.7604 322.753 33.4323 322.852 33.0625C322.956 32.6875 323.008 32.2891 323.008 31.8672V31.6875C323.008 31.2708 322.956 30.8776 322.852 30.5078C322.753 30.1328 322.602 29.8021 322.398 29.5156C322.201 29.224 321.951 28.9948 321.648 28.8281C321.352 28.6615 321.003 28.5781 320.602 28.5781C320.206 28.5781 319.857 28.6615 319.555 28.8281C319.258 28.9948 319.008 29.224 318.805 29.5156C318.607 29.8021 318.458 30.1328 318.359 30.5078C318.26 30.8776 318.211 31.2708 318.211 31.6875ZM325.891 31.8672V31.6875C325.891 31.0781 325.979 30.513 326.156 29.9922C326.333 29.4661 326.589 29.0104 326.922 28.625C327.255 28.2344 327.659 27.9323 328.133 27.7188C328.607 27.5 329.138 27.3906 329.727 27.3906C330.32 27.3906 330.854 27.5 331.328 27.7188C331.807 27.9323 332.214 28.2344 332.547 28.625C332.885 29.0104 333.143 29.4661 333.32 29.9922C333.497 30.513 333.586 31.0781 333.586 31.6875V31.8672C333.586 32.4766 333.497 33.0417 333.32 33.5625C333.143 34.0833 332.885 34.5391 332.547 34.9297C332.214 35.3151 331.81 35.6172 331.336 35.8359C330.867 36.0495 330.336 36.1562 329.742 36.1562C329.148 36.1562 328.615 36.0495 328.141 35.8359C327.667 35.6172 327.26 35.3151 326.922 34.9297C326.589 34.5391 326.333 34.0833 326.156 33.5625C325.979 33.0417 325.891 32.4766 325.891 31.8672ZM327.336 31.6875V31.8672C327.336 32.2891 327.385 32.6875 327.484 33.0625C327.583 33.4323 327.732 33.7604 327.93 34.0469C328.133 34.3333 328.385 34.5599 328.688 34.7266C328.99 34.888 329.341 34.9688 329.742 34.9688C330.138 34.9688 330.484 34.888 330.781 34.7266C331.083 34.5599 331.333 34.3333 331.531 34.0469C331.729 33.7604 331.878 33.4323 331.977 33.0625C332.081 32.6875 332.133 32.2891 332.133 31.8672V31.6875C332.133 31.2708 332.081 30.8776 331.977 30.5078C331.878 30.1328 331.727 29.8021 331.523 29.5156C331.326 29.224 331.076 28.9948 330.773 28.8281C330.477 28.6615 330.128 28.5781 329.727 28.5781C329.331 28.5781 328.982 28.6615 328.68 28.8281C328.383 28.9948 328.133 29.224 327.93 29.5156C327.732 29.8021 327.583 30.1328 327.484 30.5078C327.385 30.8776 327.336 31.2708 327.336 31.6875ZM337.555 36H336.109V26.6562C336.109 26.0469 336.219 25.5339 336.438 25.1172C336.661 24.6953 336.982 24.3776 337.398 24.1641C337.815 23.9453 338.31 23.8359 338.883 23.8359C339.049 23.8359 339.216 23.8464 339.383 23.8672C339.555 23.888 339.721 23.9193 339.883 23.9609L339.805 25.1406C339.695 25.1146 339.57 25.0964 339.43 25.0859C339.294 25.0755 339.159 25.0703 339.023 25.0703C338.716 25.0703 338.451 25.1328 338.227 25.2578C338.008 25.3776 337.841 25.5547 337.727 25.7891C337.612 26.0234 337.555 26.3125 337.555 26.6562V36ZM339.352 27.5469V28.6562H334.773V27.5469H339.352ZM343.969 30.5703V31.7578H340.156V30.5703H343.969ZM345 31.8672V31.6875C345 31.0781 345.089 30.513 345.266 29.9922C345.443 29.4661 345.698 29.0104 346.031 28.625C346.365 28.2344 346.768 27.9323 347.242 27.7188C347.716 27.5 348.247 27.3906 348.836 27.3906C349.43 27.3906 349.964 27.5 350.438 27.7188C350.917 27.9323 351.323 28.2344 351.656 28.625C351.995 29.0104 352.253 29.4661 352.43 29.9922C352.607 30.513 352.695 31.0781 352.695 31.6875V31.8672C352.695 32.4766 352.607 33.0417 352.43 33.5625C352.253 34.0833 351.995 34.5391 351.656 34.9297C351.323 35.3151 350.919 35.6172 350.445 35.8359C349.977 36.0495 349.445 36.1562 348.852 36.1562C348.258 36.1562 347.724 36.0495 347.25 35.8359C346.776 35.6172 346.37 35.3151 346.031 34.9297C345.698 34.5391 345.443 34.0833 345.266 33.5625C345.089 33.0417 345 32.4766 345 31.8672ZM346.445 31.6875V31.8672C346.445 32.2891 346.495 32.6875 346.594 33.0625C346.693 33.4323 346.841 33.7604 347.039 34.0469C347.242 34.3333 347.495 34.5599 347.797 34.7266C348.099 34.888 348.451 34.9688 348.852 34.9688C349.247 34.9688 349.594 34.888 349.891 34.7266C350.193 34.5599 350.443 34.3333 350.641 34.0469C350.839 33.7604 350.987 33.4323 351.086 33.0625C351.19 32.6875 351.242 32.2891 351.242 31.8672V31.6875C351.242 31.2708 351.19 30.8776 351.086 30.5078C350.987 30.1328 350.836 29.8021 350.633 29.5156C350.435 29.224 350.185 28.9948 349.883 28.8281C349.586 28.6615 349.237 28.5781 348.836 28.5781C348.44 28.5781 348.091 28.6615 347.789 28.8281C347.492 28.9948 347.242 29.224 347.039 29.5156C346.841 29.8021 346.693 30.1328 346.594 30.5078C346.495 30.8776 346.445 31.2708 346.445 31.6875ZM356.664 36H355.219V26.6562C355.219 26.0469 355.328 25.5339 355.547 25.1172C355.771 24.6953 356.091 24.3776 356.508 24.1641C356.924 23.9453 357.419 23.8359 357.992 23.8359C358.159 23.8359 358.326 23.8464 358.492 23.8672C358.664 23.888 358.831 23.9193 358.992 23.9609L358.914 25.1406C358.805 25.1146 358.68 25.0964 358.539 25.0859C358.404 25.0755 358.268 25.0703 358.133 25.0703C357.826 25.0703 357.56 25.1328 357.336 25.2578C357.117 25.3776 356.951 25.5547 356.836 25.7891C356.721 26.0234 356.664 26.3125 356.664 26.6562V36ZM358.461 27.5469V28.6562H353.883V27.5469H358.461ZM363.078 30.5703V31.7578H359.266V30.5703H363.078ZM367.875 34.9688C368.219 34.9688 368.536 34.8984 368.828 34.7578C369.12 34.6172 369.359 34.4245 369.547 34.1797C369.734 33.9297 369.841 33.6458 369.867 33.3281H371.242C371.216 33.8281 371.047 34.2943 370.734 34.7266C370.427 35.1536 370.023 35.5 369.523 35.7656C369.023 36.026 368.474 36.1562 367.875 36.1562C367.24 36.1562 366.685 36.0443 366.211 35.8203C365.742 35.5964 365.352 35.2891 365.039 34.8984C364.732 34.5078 364.5 34.0599 364.344 33.5547C364.193 33.0443 364.117 32.5052 364.117 31.9375V31.6094C364.117 31.0417 364.193 30.5052 364.344 30C364.5 29.4896 364.732 29.0391 365.039 28.6484C365.352 28.2578 365.742 27.9505 366.211 27.7266C366.685 27.5026 367.24 27.3906 367.875 27.3906C368.536 27.3906 369.115 27.526 369.609 27.7969C370.104 28.0625 370.492 28.4271 370.773 28.8906C371.06 29.349 371.216 29.8698 371.242 30.4531H369.867C369.841 30.1042 369.742 29.7891 369.57 29.5078C369.404 29.2266 369.174 29.0026 368.883 28.8359C368.596 28.6641 368.26 28.5781 367.875 28.5781C367.432 28.5781 367.06 28.6667 366.758 28.8438C366.461 29.0156 366.224 29.25 366.047 29.5469C365.875 29.8385 365.75 30.1641 365.672 30.5234C365.599 30.8776 365.562 31.2396 365.562 31.6094V31.9375C365.562 32.3073 365.599 32.6719 365.672 33.0312C365.745 33.3906 365.867 33.7161 366.039 34.0078C366.216 34.2995 366.453 34.5339 366.75 34.7109C367.052 34.8828 367.427 34.9688 367.875 34.9688ZM372.484 31.8672V31.6875C372.484 31.0781 372.573 30.513 372.75 29.9922C372.927 29.4661 373.182 29.0104 373.516 28.625C373.849 28.2344 374.253 27.9323 374.727 27.7188C375.201 27.5 375.732 27.3906 376.32 27.3906C376.914 27.3906 377.448 27.5 377.922 27.7188C378.401 27.9323 378.807 28.2344 379.141 28.625C379.479 29.0104 379.737 29.4661 379.914 29.9922C380.091 30.513 380.18 31.0781 380.18 31.6875V31.8672C380.18 32.4766 380.091 33.0417 379.914 33.5625C379.737 34.0833 379.479 34.5391 379.141 34.9297C378.807 35.3151 378.404 35.6172 377.93 35.8359C377.461 36.0495 376.93 36.1562 376.336 36.1562C375.742 36.1562 375.208 36.0495 374.734 35.8359C374.26 35.6172 373.854 35.3151 373.516 34.9297C373.182 34.5391 372.927 34.0833 372.75 33.5625C372.573 33.0417 372.484 32.4766 372.484 31.8672ZM373.93 31.6875V31.8672C373.93 32.2891 373.979 32.6875 374.078 33.0625C374.177 33.4323 374.326 33.7604 374.523 34.0469C374.727 34.3333 374.979 34.5599 375.281 34.7266C375.583 34.888 375.935 34.9688 376.336 34.9688C376.732 34.9688 377.078 34.888 377.375 34.7266C377.677 34.5599 377.927 34.3333 378.125 34.0469C378.323 33.7604 378.471 33.4323 378.57 33.0625C378.674 32.6875 378.727 32.2891 378.727 31.8672V31.6875C378.727 31.2708 378.674 30.8776 378.57 30.5078C378.471 30.1328 378.32 29.8021 378.117 29.5156C377.919 29.224 377.669 28.9948 377.367 28.8281C377.07 28.6615 376.721 28.5781 376.32 28.5781C375.924 28.5781 375.576 28.6615 375.273 28.8281C374.977 28.9948 374.727 29.224 374.523 29.5156C374.326 29.8021 374.177 30.1328 374.078 30.5078C373.979 30.8776 373.93 31.2708 373.93 31.6875ZM383.438 29.3516V36H381.992V27.5469H383.359L383.438 29.3516ZM383.094 31.4531L382.492 31.4297C382.497 30.8516 382.583 30.3177 382.75 29.8281C382.917 29.3333 383.151 28.9036 383.453 28.5391C383.755 28.1745 384.115 27.8932 384.531 27.6953C384.953 27.4922 385.419 27.3906 385.93 27.3906C386.346 27.3906 386.721 27.4479 387.055 27.5625C387.388 27.6719 387.672 27.849 387.906 28.0938C388.146 28.3385 388.328 28.6562 388.453 29.0469C388.578 29.4323 388.641 29.9036 388.641 30.4609V36H387.188V30.4453C387.188 30.0026 387.122 29.6484 386.992 29.3828C386.862 29.112 386.672 28.9167 386.422 28.7969C386.172 28.6719 385.865 28.6094 385.5 28.6094C385.141 28.6094 384.812 28.6849 384.516 28.8359C384.224 28.987 383.971 29.1953 383.758 29.4609C383.549 29.7266 383.385 30.0312 383.266 30.375C383.151 30.7135 383.094 31.0729 383.094 31.4531ZM394.219 34.9688C394.562 34.9688 394.88 34.8984 395.172 34.7578C395.464 34.6172 395.703 34.4245 395.891 34.1797C396.078 33.9297 396.185 33.6458 396.211 33.3281H397.586C397.56 33.8281 397.391 34.2943 397.078 34.7266C396.771 35.1536 396.367 35.5 395.867 35.7656C395.367 36.026 394.818 36.1562 394.219 36.1562C393.583 36.1562 393.029 36.0443 392.555 35.8203C392.086 35.5964 391.695 35.2891 391.383 34.8984C391.076 34.5078 390.844 34.0599 390.688 33.5547C390.536 33.0443 390.461 32.5052 390.461 31.9375V31.6094C390.461 31.0417 390.536 30.5052 390.688 30C390.844 29.4896 391.076 29.0391 391.383 28.6484C391.695 28.2578 392.086 27.9505 392.555 27.7266C393.029 27.5026 393.583 27.3906 394.219 27.3906C394.88 27.3906 395.458 27.526 395.953 27.7969C396.448 28.0625 396.836 28.4271 397.117 28.8906C397.404 29.349 397.56 29.8698 397.586 30.4531H396.211C396.185 30.1042 396.086 29.7891 395.914 29.5078C395.747 29.2266 395.518 29.0026 395.227 28.8359C394.94 28.6641 394.604 28.5781 394.219 28.5781C393.776 28.5781 393.404 28.6667 393.102 28.8438C392.805 29.0156 392.568 29.25 392.391 29.5469C392.219 29.8385 392.094 30.1641 392.016 30.5234C391.943 30.8776 391.906 31.2396 391.906 31.6094V31.9375C391.906 32.3073 391.943 32.6719 392.016 33.0312C392.089 33.3906 392.211 33.7161 392.383 34.0078C392.56 34.2995 392.797 34.5339 393.094 34.7109C393.396 34.8828 393.771 34.9688 394.219 34.9688ZM402.719 36.1562C402.13 36.1562 401.596 36.0573 401.117 35.8594C400.643 35.6562 400.234 35.3724 399.891 35.0078C399.552 34.6432 399.292 34.2109 399.109 33.7109C398.927 33.2109 398.836 32.6641 398.836 32.0703V31.7422C398.836 31.0547 398.938 30.4427 399.141 29.9062C399.344 29.3646 399.62 28.9062 399.969 28.5312C400.318 28.1562 400.714 27.8724 401.156 27.6797C401.599 27.487 402.057 27.3906 402.531 27.3906C403.135 27.3906 403.656 27.4948 404.094 27.7031C404.536 27.9115 404.898 28.2031 405.18 28.5781C405.461 28.9479 405.669 29.3854 405.805 29.8906C405.94 30.3906 406.008 30.9375 406.008 31.5312V32.1797H399.695V31H404.562V30.8906C404.542 30.5156 404.464 30.151 404.328 29.7969C404.198 29.4427 403.99 29.151 403.703 28.9219C403.417 28.6927 403.026 28.5781 402.531 28.5781C402.203 28.5781 401.901 28.6484 401.625 28.7891C401.349 28.9245 401.112 29.1276 400.914 29.3984C400.716 29.6693 400.562 30 400.453 30.3906C400.344 30.7812 400.289 31.2318 400.289 31.7422V32.0703C400.289 32.4714 400.344 32.849 400.453 33.2031C400.568 33.5521 400.732 33.8594 400.945 34.125C401.164 34.3906 401.427 34.599 401.734 34.75C402.047 34.901 402.401 34.9766 402.797 34.9766C403.307 34.9766 403.74 34.8724 404.094 34.6641C404.448 34.4557 404.758 34.1771 405.023 33.8281L405.898 34.5234C405.716 34.7995 405.484 35.0625 405.203 35.3125C404.922 35.5625 404.576 35.7656 404.164 35.9219C403.758 36.0781 403.276 36.1562 402.719 36.1562ZM409.141 29.1719V39.25H407.688V27.5469H409.016L409.141 29.1719ZM414.836 31.7031V31.8672C414.836 32.4818 414.763 33.0521 414.617 33.5781C414.471 34.099 414.258 34.5521 413.977 34.9375C413.701 35.3229 413.359 35.6224 412.953 35.8359C412.547 36.0495 412.081 36.1562 411.555 36.1562C411.018 36.1562 410.544 36.0677 410.133 35.8906C409.721 35.7135 409.372 35.4557 409.086 35.1172C408.799 34.7786 408.57 34.3724 408.398 33.8984C408.232 33.4245 408.117 32.8906 408.055 32.2969V31.4219C408.117 30.7969 408.234 30.237 408.406 29.7422C408.578 29.2474 408.805 28.8255 409.086 28.4766C409.372 28.1224 409.719 27.8542 410.125 27.6719C410.531 27.4844 411 27.3906 411.531 27.3906C412.062 27.3906 412.534 27.4948 412.945 27.7031C413.357 27.9062 413.703 28.1979 413.984 28.5781C414.266 28.9583 414.477 29.4141 414.617 29.9453C414.763 30.4714 414.836 31.0573 414.836 31.7031ZM413.383 31.8672V31.7031C413.383 31.2812 413.339 30.8854 413.25 30.5156C413.161 30.1406 413.023 29.8125 412.836 29.5312C412.654 29.2448 412.419 29.0208 412.133 28.8594C411.846 28.6927 411.505 28.6094 411.109 28.6094C410.745 28.6094 410.427 28.6719 410.156 28.7969C409.891 28.9219 409.664 29.0911 409.477 29.3047C409.289 29.513 409.135 29.7526 409.016 30.0234C408.901 30.2891 408.815 30.5651 408.758 30.8516V32.875C408.862 33.2396 409.008 33.5833 409.195 33.9062C409.383 34.224 409.633 34.4818 409.945 34.6797C410.258 34.8724 410.651 34.9688 411.125 34.9688C411.516 34.9688 411.852 34.888 412.133 34.7266C412.419 34.5599 412.654 34.3333 412.836 34.0469C413.023 33.7604 413.161 33.4323 413.25 33.0625C413.339 32.6875 413.383 32.2891 413.383 31.8672ZM420.219 27.5469V28.6562H415.648V27.5469H420.219ZM417.195 25.4922H418.641V33.9062C418.641 34.1927 418.685 34.4089 418.773 34.5547C418.862 34.7005 418.977 34.7969 419.117 34.8438C419.258 34.8906 419.409 34.9141 419.57 34.9141C419.69 34.9141 419.815 34.9036 419.945 34.8828C420.081 34.8568 420.182 34.8359 420.25 34.8203L420.258 36C420.143 36.0365 419.992 36.0703 419.805 36.1016C419.622 36.138 419.401 36.1562 419.141 36.1562C418.786 36.1562 418.461 36.0859 418.164 35.9453C417.867 35.8047 417.63 35.5703 417.453 35.2422C417.281 34.9089 417.195 34.4609 417.195 33.8984V25.4922Z" fill="#2D3139"/>
</g>
<defs>
<filter id="filter0_di_7916_14796" x="0" y="0" width="472" height="66" filterUnits="userSpaceOnUse" color-interpolation-filters="sRGB">
<feFlood flood-opacity="0" result="BackgroundImageFix"/>
<feColorMatrix in="SourceAlpha" type="matrix" values="0 0 0 0 0 0 0 0 0 0 0 0 0 0 0 0 0 0 127 0" result="hardAlpha"/>
<feOffset dy="1"/>
<feGaussianBlur stdDeviation="1.5"/>
<feComposite in2="hardAlpha" operator="out"/>
<feColorMatrix type="matrix" values="0 0 0 0 0.121569 0 0 0 0 0.133333 0 0 0 0 0.160784 0 0 0 0.08 0"/>
<feBlend mode="normal" in2="BackgroundImageFix" result="effect1_dropShadow_7916_14796"/>
<feBlend mode="normal" in="SourceGraphic" in2="effect1_dropShadow_7916_14796" result="shape"/>
<feColorMatrix in="SourceAlpha" type="matrix" values="0 0 0 0 0 0 0 0 0 0 0 0 0 0 0 0 0 0 127 0" result="hardAlpha"/>
<feMorphology radius="1" operator="erode" in="SourceAlpha" result="effect2_innerShadow_7916_14796"/>
<feOffset/>
<feComposite in2="hardAlpha" operator="arithmetic" k2="-1" k3="1"/>
<feColorMatrix type="matrix" values="0 0 0 0 0.882353 0 0 0 0 0.898039 0 0 0 0 0.921569 0 0 0 1 0"/>
<feBlend mode="normal" in2="shape" result="effect2_innerShadow_7916_14796"/>
</filter>
<clipPath id="clip0_7916_14796">
<rect width="26" height="26" fill="white" transform="translate(20 19)"/>
</clipPath>
</defs>
</svg>
