<svg width="473" height="66" viewBox="0 0 473 66" fill="none" xmlns="http://www.w3.org/2000/svg">
<g filter="url(#filter0_di_7916_14778)">
<rect x="3.9834" y="2" width="466" height="60" rx="4" fill="white"/>
<path d="M43.7334 26.5833C43.7334 28.9775 39.3676 30.9167 33.9834 30.9167C28.5992 30.9167 24.2334 28.9775 24.2334 26.5833M43.7334 26.5833C43.7334 24.1892 39.3676 22.25 33.9834 22.25C28.5992 22.25 24.2334 24.1892 24.2334 26.5833M43.7334 26.5833V32M24.2334 26.5833V32M43.7334 32C43.7334 34.3942 39.3676 36.3333 33.9834 36.3333C28.5992 36.3333 24.2334 34.3942 24.2334 32M43.7334 32V37.4167C43.7334 39.8108 39.3676 41.75 33.9834 41.75C28.5992 41.75 24.2334 39.8108 24.2334 37.4167V32" stroke="#282828" stroke-width="2.16667" stroke-linecap="round" stroke-linejoin="round"/>
<path d="M77.0068 34.7734V36H70.9834V34.7734H77.0068ZM71.2881 24.625V36H69.7803V24.625H71.2881ZM76.21 29.5156V30.7422H70.9834V29.5156H76.21ZM76.9287 24.625V25.8594H70.9834V24.625H76.9287ZM80.1006 29.3516V36H78.6553V27.5469H80.0225L80.1006 29.3516ZM79.7568 31.4531L79.1553 31.4297C79.1605 30.8516 79.2464 30.3177 79.4131 29.8281C79.5798 29.3333 79.8141 28.9036 80.1162 28.5391C80.4183 28.1745 80.7777 27.8932 81.1943 27.6953C81.6162 27.4922 82.0824 27.3906 82.5928 27.3906C83.0094 27.3906 83.3844 27.4479 83.7178 27.5625C84.0511 27.6719 84.335 27.849 84.5693 28.0938C84.8089 28.3385 84.9912 28.6562 85.1162 29.0469C85.2412 29.4323 85.3037 29.9036 85.3037 30.4609V36H83.8506V30.4453C83.8506 30.0026 83.7855 29.6484 83.6553 29.3828C83.5251 29.112 83.335 28.9167 83.085 28.7969C82.835 28.6719 82.5277 28.6094 82.1631 28.6094C81.8037 28.6094 81.4756 28.6849 81.1787 28.8359C80.887 28.987 80.6344 29.1953 80.4209 29.4609C80.2126 29.7266 80.0485 30.0312 79.9287 30.375C79.8141 30.7135 79.7568 31.0729 79.7568 31.4531ZM92.4834 34.5547V30.2031C92.4834 29.8698 92.4157 29.5807 92.2803 29.3359C92.1501 29.0859 91.9521 28.8932 91.6865 28.7578C91.4209 28.6224 91.0928 28.5547 90.7021 28.5547C90.3376 28.5547 90.0173 28.6172 89.7412 28.7422C89.4704 28.8672 89.2568 29.0312 89.1006 29.2344C88.9495 29.4375 88.874 29.6562 88.874 29.8906H87.4287C87.4287 29.5885 87.5068 29.2891 87.6631 28.9922C87.8193 28.6953 88.0433 28.4271 88.335 28.1875C88.6318 27.9427 88.986 27.75 89.3975 27.6094C89.8141 27.4635 90.2777 27.3906 90.7881 27.3906C91.4027 27.3906 91.9443 27.4948 92.4131 27.7031C92.887 27.9115 93.2568 28.2266 93.5225 28.6484C93.7933 29.0651 93.9287 29.5885 93.9287 30.2188V34.1562C93.9287 34.4375 93.9521 34.737 93.999 35.0547C94.0511 35.3724 94.1266 35.6458 94.2256 35.875V36H92.7178C92.6449 35.8333 92.5876 35.612 92.5459 35.3359C92.5042 35.0547 92.4834 34.7943 92.4834 34.5547ZM92.7334 30.875L92.749 31.8906H91.2881C90.8766 31.8906 90.5094 31.9245 90.1865 31.9922C89.8636 32.0547 89.5928 32.151 89.374 32.2812C89.1553 32.4115 88.9886 32.5755 88.874 32.7734C88.7594 32.9661 88.7021 33.1927 88.7021 33.4531C88.7021 33.7188 88.762 33.9609 88.8818 34.1797C89.0016 34.3984 89.1813 34.5729 89.4209 34.7031C89.6657 34.8281 89.9652 34.8906 90.3193 34.8906C90.762 34.8906 91.1527 34.7969 91.4912 34.6094C91.8298 34.4219 92.098 34.1927 92.2959 33.9219C92.499 33.651 92.6084 33.388 92.624 33.1328L93.2412 33.8281C93.2048 34.0469 93.1058 34.2891 92.9443 34.5547C92.7829 34.8203 92.5667 35.0755 92.2959 35.3203C92.0303 35.5599 91.7126 35.7604 91.3428 35.9219C90.9782 36.0781 90.5667 36.1562 90.1084 36.1562C89.5355 36.1562 89.0329 36.0443 88.6006 35.8203C88.1735 35.5964 87.8402 35.2969 87.6006 34.9219C87.3662 34.5417 87.249 34.1172 87.249 33.6484C87.249 33.1953 87.3376 32.7969 87.5146 32.4531C87.6917 32.1042 87.9469 31.8151 88.2803 31.5859C88.6136 31.3516 89.0146 31.1745 89.4834 31.0547C89.9521 30.9349 90.4756 30.875 91.0537 30.875H92.7334ZM96.1943 24H97.6475V34.3594L97.5225 36H96.1943V24ZM103.358 31.7031V31.8672C103.358 32.4818 103.285 33.0521 103.14 33.5781C102.994 34.099 102.78 34.5521 102.499 34.9375C102.218 35.3229 101.874 35.6224 101.468 35.8359C101.062 36.0495 100.595 36.1562 100.069 36.1562C99.5329 36.1562 99.0615 36.0651 98.6553 35.8828C98.2542 35.6953 97.9157 35.4271 97.6396 35.0781C97.3636 34.7292 97.1423 34.3073 96.9756 33.8125C96.8141 33.3177 96.7021 32.7604 96.6396 32.1406V31.4219C96.7021 30.7969 96.8141 30.237 96.9756 29.7422C97.1423 29.2474 97.3636 28.8255 97.6396 28.4766C97.9157 28.1224 98.2542 27.8542 98.6553 27.6719C99.0563 27.4844 99.5225 27.3906 100.054 27.3906C100.585 27.3906 101.056 27.4948 101.468 27.7031C101.879 27.9062 102.223 28.1979 102.499 28.5781C102.78 28.9583 102.994 29.4141 103.14 29.9453C103.285 30.4714 103.358 31.0573 103.358 31.7031ZM101.905 31.8672V31.7031C101.905 31.2812 101.866 30.8854 101.788 30.5156C101.71 30.1406 101.585 29.8125 101.413 29.5312C101.241 29.2448 101.015 29.0208 100.733 28.8594C100.452 28.6927 100.106 28.6094 99.6943 28.6094C99.3298 28.6094 99.012 28.6719 98.7412 28.7969C98.4756 28.9219 98.249 29.0911 98.0615 29.3047C97.874 29.513 97.7204 29.7526 97.6006 30.0234C97.486 30.2891 97.4001 30.5651 97.3428 30.8516V32.7344C97.4261 33.099 97.5615 33.4505 97.749 33.7891C97.9417 34.1224 98.1969 34.3958 98.5146 34.6094C98.8376 34.8229 99.236 34.9297 99.71 34.9297C100.101 34.9297 100.434 34.8516 100.71 34.6953C100.991 34.5339 101.218 34.3125 101.39 34.0312C101.567 33.75 101.697 33.4245 101.78 33.0547C101.864 32.6849 101.905 32.2891 101.905 31.8672ZM106.757 24V36H105.304V24H106.757ZM112.585 36.1562C111.996 36.1562 111.463 36.0573 110.983 35.8594C110.509 35.6562 110.101 35.3724 109.757 35.0078C109.418 34.6432 109.158 34.2109 108.976 33.7109C108.793 33.2109 108.702 32.6641 108.702 32.0703V31.7422C108.702 31.0547 108.804 30.4427 109.007 29.9062C109.21 29.3646 109.486 28.9062 109.835 28.5312C110.184 28.1562 110.58 27.8724 111.022 27.6797C111.465 27.487 111.924 27.3906 112.397 27.3906C113.002 27.3906 113.522 27.4948 113.96 27.7031C114.403 27.9115 114.765 28.2031 115.046 28.5781C115.327 28.9479 115.535 29.3854 115.671 29.8906C115.806 30.3906 115.874 30.9375 115.874 31.5312V32.1797H109.562V31H114.429V30.8906C114.408 30.5156 114.33 30.151 114.194 29.7969C114.064 29.4427 113.856 29.151 113.569 28.9219C113.283 28.6927 112.892 28.5781 112.397 28.5781C112.069 28.5781 111.767 28.6484 111.491 28.7891C111.215 28.9245 110.978 29.1276 110.78 29.3984C110.582 29.6693 110.429 30 110.319 30.3906C110.21 30.7812 110.155 31.2318 110.155 31.7422V32.0703C110.155 32.4714 110.21 32.849 110.319 33.2031C110.434 33.5521 110.598 33.8594 110.812 34.125C111.03 34.3906 111.293 34.599 111.601 34.75C111.913 34.901 112.267 34.9766 112.663 34.9766C113.174 34.9766 113.606 34.8724 113.96 34.6641C114.314 34.4557 114.624 34.1771 114.89 33.8281L115.765 34.5234C115.582 34.7995 115.351 35.0625 115.069 35.3125C114.788 35.5625 114.442 35.7656 114.03 35.9219C113.624 36.0781 113.142 36.1562 112.585 36.1562ZM126.858 34.3594V24H128.312V36H126.983L126.858 34.3594ZM121.171 31.8672V31.7031C121.171 31.0573 121.249 30.4714 121.405 29.9453C121.567 29.4141 121.793 28.9583 122.085 28.5781C122.382 28.1979 122.733 27.9062 123.14 27.7031C123.551 27.4948 124.009 27.3906 124.515 27.3906C125.046 27.3906 125.509 27.4844 125.905 27.6719C126.306 27.8542 126.645 28.1224 126.921 28.4766C127.202 28.8255 127.424 29.2474 127.585 29.7422C127.746 30.237 127.858 30.7969 127.921 31.4219V32.1406C127.864 32.7604 127.752 33.3177 127.585 33.8125C127.424 34.3073 127.202 34.7292 126.921 35.0781C126.645 35.4271 126.306 35.6953 125.905 35.8828C125.504 36.0651 125.035 36.1562 124.499 36.1562C124.004 36.1562 123.551 36.0495 123.14 35.8359C122.733 35.6224 122.382 35.3229 122.085 34.9375C121.793 34.5521 121.567 34.099 121.405 33.5781C121.249 33.0521 121.171 32.4818 121.171 31.8672ZM122.624 31.7031V31.8672C122.624 32.2891 122.666 32.6849 122.749 33.0547C122.838 33.4245 122.973 33.75 123.155 34.0312C123.338 34.3125 123.569 34.5339 123.851 34.6953C124.132 34.8516 124.468 34.9297 124.858 34.9297C125.338 34.9297 125.731 34.8281 126.038 34.625C126.351 34.4219 126.601 34.1536 126.788 33.8203C126.976 33.487 127.121 33.125 127.226 32.7344V30.8516C127.163 30.5651 127.072 30.2891 126.952 30.0234C126.838 29.7526 126.687 29.513 126.499 29.3047C126.317 29.0911 126.09 28.9219 125.819 28.7969C125.554 28.6719 125.239 28.6094 124.874 28.6094C124.478 28.6094 124.137 28.6927 123.851 28.8594C123.569 29.0208 123.338 29.2448 123.155 29.5312C122.973 29.8125 122.838 30.1406 122.749 30.5156C122.666 30.8854 122.624 31.2812 122.624 31.7031ZM135.546 34.5547V30.2031C135.546 29.8698 135.478 29.5807 135.343 29.3359C135.213 29.0859 135.015 28.8932 134.749 28.7578C134.483 28.6224 134.155 28.5547 133.765 28.5547C133.4 28.5547 133.08 28.6172 132.804 28.7422C132.533 28.8672 132.319 29.0312 132.163 29.2344C132.012 29.4375 131.937 29.6562 131.937 29.8906H130.491C130.491 29.5885 130.569 29.2891 130.726 28.9922C130.882 28.6953 131.106 28.4271 131.397 28.1875C131.694 27.9427 132.049 27.75 132.46 27.6094C132.877 27.4635 133.34 27.3906 133.851 27.3906C134.465 27.3906 135.007 27.4948 135.476 27.7031C135.95 27.9115 136.319 28.2266 136.585 28.6484C136.856 29.0651 136.991 29.5885 136.991 30.2188V34.1562C136.991 34.4375 137.015 34.737 137.062 35.0547C137.114 35.3724 137.189 35.6458 137.288 35.875V36H135.78C135.707 35.8333 135.65 35.612 135.608 35.3359C135.567 35.0547 135.546 34.7943 135.546 34.5547ZM135.796 30.875L135.812 31.8906H134.351C133.939 31.8906 133.572 31.9245 133.249 31.9922C132.926 32.0547 132.655 32.151 132.437 32.2812C132.218 32.4115 132.051 32.5755 131.937 32.7734C131.822 32.9661 131.765 33.1927 131.765 33.4531C131.765 33.7188 131.825 33.9609 131.944 34.1797C132.064 34.3984 132.244 34.5729 132.483 34.7031C132.728 34.8281 133.028 34.8906 133.382 34.8906C133.825 34.8906 134.215 34.7969 134.554 34.6094C134.892 34.4219 135.16 34.1927 135.358 33.9219C135.562 33.651 135.671 33.388 135.687 33.1328L136.304 33.8281C136.267 34.0469 136.168 34.2891 136.007 34.5547C135.845 34.8203 135.629 35.0755 135.358 35.3203C135.093 35.5599 134.775 35.7604 134.405 35.9219C134.041 36.0781 133.629 36.1562 133.171 36.1562C132.598 36.1562 132.095 36.0443 131.663 35.8203C131.236 35.5964 130.903 35.2969 130.663 34.9219C130.429 34.5417 130.312 34.1172 130.312 33.6484C130.312 33.1953 130.4 32.7969 130.577 32.4531C130.754 32.1042 131.009 31.8151 131.343 31.5859C131.676 31.3516 132.077 31.1745 132.546 31.0547C133.015 30.9349 133.538 30.875 134.116 30.875H135.796ZM142.804 27.5469V28.6562H138.233V27.5469H142.804ZM139.78 25.4922H141.226V33.9062C141.226 34.1927 141.27 34.4089 141.358 34.5547C141.447 34.7005 141.562 34.7969 141.702 34.8438C141.843 34.8906 141.994 34.9141 142.155 34.9141C142.275 34.9141 142.4 34.9036 142.53 34.8828C142.666 34.8568 142.767 34.8359 142.835 34.8203L142.843 36C142.728 36.0365 142.577 36.0703 142.39 36.1016C142.207 36.138 141.986 36.1562 141.726 36.1562C141.371 36.1562 141.046 36.0859 140.749 35.9453C140.452 35.8047 140.215 35.5703 140.038 35.2422C139.866 34.9089 139.78 34.4609 139.78 33.8984V25.4922ZM149.483 34.5547V30.2031C149.483 29.8698 149.416 29.5807 149.28 29.3359C149.15 29.0859 148.952 28.8932 148.687 28.7578C148.421 28.6224 148.093 28.5547 147.702 28.5547C147.338 28.5547 147.017 28.6172 146.741 28.7422C146.47 28.8672 146.257 29.0312 146.101 29.2344C145.95 29.4375 145.874 29.6562 145.874 29.8906H144.429C144.429 29.5885 144.507 29.2891 144.663 28.9922C144.819 28.6953 145.043 28.4271 145.335 28.1875C145.632 27.9427 145.986 27.75 146.397 27.6094C146.814 27.4635 147.278 27.3906 147.788 27.3906C148.403 27.3906 148.944 27.4948 149.413 27.7031C149.887 27.9115 150.257 28.2266 150.522 28.6484C150.793 29.0651 150.929 29.5885 150.929 30.2188V34.1562C150.929 34.4375 150.952 34.737 150.999 35.0547C151.051 35.3724 151.127 35.6458 151.226 35.875V36H149.718C149.645 35.8333 149.588 35.612 149.546 35.3359C149.504 35.0547 149.483 34.7943 149.483 34.5547ZM149.733 30.875L149.749 31.8906H148.288C147.877 31.8906 147.509 31.9245 147.187 31.9922C146.864 32.0547 146.593 32.151 146.374 32.2812C146.155 32.4115 145.989 32.5755 145.874 32.7734C145.759 32.9661 145.702 33.1927 145.702 33.4531C145.702 33.7188 145.762 33.9609 145.882 34.1797C146.002 34.3984 146.181 34.5729 146.421 34.7031C146.666 34.8281 146.965 34.8906 147.319 34.8906C147.762 34.8906 148.153 34.7969 148.491 34.6094C148.83 34.4219 149.098 34.1927 149.296 33.9219C149.499 33.651 149.608 33.388 149.624 33.1328L150.241 33.8281C150.205 34.0469 150.106 34.2891 149.944 34.5547C149.783 34.8203 149.567 35.0755 149.296 35.3203C149.03 35.5599 148.713 35.7604 148.343 35.9219C147.978 36.0781 147.567 36.1562 147.108 36.1562C146.535 36.1562 146.033 36.0443 145.601 35.8203C145.174 35.5964 144.84 35.2969 144.601 34.9219C144.366 34.5417 144.249 34.1172 144.249 33.6484C144.249 33.1953 144.338 32.7969 144.515 32.4531C144.692 32.1042 144.947 31.8151 145.28 31.5859C145.614 31.3516 146.015 31.1745 146.483 31.0547C146.952 30.9349 147.476 30.875 148.054 30.875H149.733ZM156.21 30.5703V31.7578H152.397V30.5703H156.21ZM161.163 27.5469V28.6562H156.593V27.5469H161.163ZM158.14 25.4922H159.585V33.9062C159.585 34.1927 159.629 34.4089 159.718 34.5547C159.806 34.7005 159.921 34.7969 160.062 34.8438C160.202 34.8906 160.353 34.9141 160.515 34.9141C160.634 34.9141 160.759 34.9036 160.89 34.8828C161.025 34.8568 161.127 34.8359 161.194 34.8203L161.202 36C161.088 36.0365 160.937 36.0703 160.749 36.1016C160.567 36.138 160.345 36.1562 160.085 36.1562C159.731 36.1562 159.405 36.0859 159.108 35.9453C158.812 35.8047 158.575 35.5703 158.397 35.2422C158.226 34.9089 158.14 34.4609 158.14 33.8984V25.4922ZM162.319 31.8672V31.6875C162.319 31.0781 162.408 30.513 162.585 29.9922C162.762 29.4661 163.017 29.0104 163.351 28.625C163.684 28.2344 164.088 27.9323 164.562 27.7188C165.035 27.5 165.567 27.3906 166.155 27.3906C166.749 27.3906 167.283 27.5 167.757 27.7188C168.236 27.9323 168.642 28.2344 168.976 28.625C169.314 29.0104 169.572 29.4661 169.749 29.9922C169.926 30.513 170.015 31.0781 170.015 31.6875V31.8672C170.015 32.4766 169.926 33.0417 169.749 33.5625C169.572 34.0833 169.314 34.5391 168.976 34.9297C168.642 35.3151 168.239 35.6172 167.765 35.8359C167.296 36.0495 166.765 36.1562 166.171 36.1562C165.577 36.1562 165.043 36.0495 164.569 35.8359C164.095 35.6172 163.689 35.3151 163.351 34.9297C163.017 34.5391 162.762 34.0833 162.585 33.5625C162.408 33.0417 162.319 32.4766 162.319 31.8672ZM163.765 31.6875V31.8672C163.765 32.2891 163.814 32.6875 163.913 33.0625C164.012 33.4323 164.16 33.7604 164.358 34.0469C164.562 34.3333 164.814 34.5599 165.116 34.7266C165.418 34.888 165.77 34.9688 166.171 34.9688C166.567 34.9688 166.913 34.888 167.21 34.7266C167.512 34.5599 167.762 34.3333 167.96 34.0469C168.158 33.7604 168.306 33.4323 168.405 33.0625C168.509 32.6875 168.562 32.2891 168.562 31.8672V31.6875C168.562 31.2708 168.509 30.8776 168.405 30.5078C168.306 30.1328 168.155 29.8021 167.952 29.5156C167.754 29.224 167.504 28.9948 167.202 28.8281C166.905 28.6615 166.556 28.5781 166.155 28.5781C165.759 28.5781 165.41 28.6615 165.108 28.8281C164.812 28.9948 164.562 29.224 164.358 29.5156C164.16 29.8021 164.012 30.1328 163.913 30.5078C163.814 30.8776 163.765 31.2708 163.765 31.6875ZM174.835 30.5703V31.7578H171.022V30.5703H174.835ZM181.233 34.5547V30.2031C181.233 29.8698 181.166 29.5807 181.03 29.3359C180.9 29.0859 180.702 28.8932 180.437 28.7578C180.171 28.6224 179.843 28.5547 179.452 28.5547C179.088 28.5547 178.767 28.6172 178.491 28.7422C178.22 28.8672 178.007 29.0312 177.851 29.2344C177.7 29.4375 177.624 29.6562 177.624 29.8906H176.179C176.179 29.5885 176.257 29.2891 176.413 28.9922C176.569 28.6953 176.793 28.4271 177.085 28.1875C177.382 27.9427 177.736 27.75 178.147 27.6094C178.564 27.4635 179.028 27.3906 179.538 27.3906C180.153 27.3906 180.694 27.4948 181.163 27.7031C181.637 27.9115 182.007 28.2266 182.272 28.6484C182.543 29.0651 182.679 29.5885 182.679 30.2188V34.1562C182.679 34.4375 182.702 34.737 182.749 35.0547C182.801 35.3724 182.877 35.6458 182.976 35.875V36H181.468C181.395 35.8333 181.338 35.612 181.296 35.3359C181.254 35.0547 181.233 34.7943 181.233 34.5547ZM181.483 30.875L181.499 31.8906H180.038C179.627 31.8906 179.259 31.9245 178.937 31.9922C178.614 32.0547 178.343 32.151 178.124 32.2812C177.905 32.4115 177.739 32.5755 177.624 32.7734C177.509 32.9661 177.452 33.1927 177.452 33.4531C177.452 33.7188 177.512 33.9609 177.632 34.1797C177.752 34.3984 177.931 34.5729 178.171 34.7031C178.416 34.8281 178.715 34.8906 179.069 34.8906C179.512 34.8906 179.903 34.7969 180.241 34.6094C180.58 34.4219 180.848 34.1927 181.046 33.9219C181.249 33.651 181.358 33.388 181.374 33.1328L181.991 33.8281C181.955 34.0469 181.856 34.2891 181.694 34.5547C181.533 34.8203 181.317 35.0755 181.046 35.3203C180.78 35.5599 180.463 35.7604 180.093 35.9219C179.728 36.0781 179.317 36.1562 178.858 36.1562C178.285 36.1562 177.783 36.0443 177.351 35.8203C176.924 35.5964 176.59 35.2969 176.351 34.9219C176.116 34.5417 175.999 34.1172 175.999 33.6484C175.999 33.1953 176.088 32.7969 176.265 32.4531C176.442 32.1042 176.697 31.8151 177.03 31.5859C177.364 31.3516 177.765 31.1745 178.233 31.0547C178.702 30.9349 179.226 30.875 179.804 30.875H181.483ZM188.335 34.9688C188.679 34.9688 188.996 34.8984 189.288 34.7578C189.58 34.6172 189.819 34.4245 190.007 34.1797C190.194 33.9297 190.301 33.6458 190.327 33.3281H191.702C191.676 33.8281 191.507 34.2943 191.194 34.7266C190.887 35.1536 190.483 35.5 189.983 35.7656C189.483 36.026 188.934 36.1562 188.335 36.1562C187.7 36.1562 187.145 36.0443 186.671 35.8203C186.202 35.5964 185.812 35.2891 185.499 34.8984C185.192 34.5078 184.96 34.0599 184.804 33.5547C184.653 33.0443 184.577 32.5052 184.577 31.9375V31.6094C184.577 31.0417 184.653 30.5052 184.804 30C184.96 29.4896 185.192 29.0391 185.499 28.6484C185.812 28.2578 186.202 27.9505 186.671 27.7266C187.145 27.5026 187.7 27.3906 188.335 27.3906C188.996 27.3906 189.575 27.526 190.069 27.7969C190.564 28.0625 190.952 28.4271 191.233 28.8906C191.52 29.349 191.676 29.8698 191.702 30.4531H190.327C190.301 30.1042 190.202 29.7891 190.03 29.5078C189.864 29.2266 189.634 29.0026 189.343 28.8359C189.056 28.6641 188.72 28.5781 188.335 28.5781C187.892 28.5781 187.52 28.6667 187.218 28.8438C186.921 29.0156 186.684 29.25 186.507 29.5469C186.335 29.8385 186.21 30.1641 186.132 30.5234C186.059 30.8776 186.022 31.2396 186.022 31.6094V31.9375C186.022 32.3073 186.059 32.6719 186.132 33.0312C186.205 33.3906 186.327 33.7161 186.499 34.0078C186.676 34.2995 186.913 34.5339 187.21 34.7109C187.512 34.8828 187.887 34.9688 188.335 34.9688ZM196.866 27.5469V28.6562H192.296V27.5469H196.866ZM193.843 25.4922H195.288V33.9062C195.288 34.1927 195.332 34.4089 195.421 34.5547C195.509 34.7005 195.624 34.7969 195.765 34.8438C195.905 34.8906 196.056 34.9141 196.218 34.9141C196.338 34.9141 196.463 34.9036 196.593 34.8828C196.728 34.8568 196.83 34.8359 196.897 34.8203L196.905 36C196.791 36.0365 196.64 36.0703 196.452 36.1016C196.27 36.138 196.049 36.1562 195.788 36.1562C195.434 36.1562 195.108 36.0859 194.812 35.9453C194.515 35.8047 194.278 35.5703 194.101 35.2422C193.929 34.9089 193.843 34.4609 193.843 33.8984V25.4922ZM200.132 27.5469V36H198.679V27.5469H200.132ZM198.569 25.3047C198.569 25.0703 198.64 24.8724 198.78 24.7109C198.926 24.5495 199.14 24.4688 199.421 24.4688C199.697 24.4688 199.908 24.5495 200.054 24.7109C200.205 24.8724 200.28 25.0703 200.28 25.3047C200.28 25.5286 200.205 25.7214 200.054 25.8828C199.908 26.0391 199.697 26.1172 199.421 26.1172C199.14 26.1172 198.926 26.0391 198.78 25.8828C198.64 25.7214 198.569 25.5286 198.569 25.3047ZM202.069 31.8672V31.6875C202.069 31.0781 202.158 30.513 202.335 29.9922C202.512 29.4661 202.767 29.0104 203.101 28.625C203.434 28.2344 203.838 27.9323 204.312 27.7188C204.785 27.5 205.317 27.3906 205.905 27.3906C206.499 27.3906 207.033 27.5 207.507 27.7188C207.986 27.9323 208.392 28.2344 208.726 28.625C209.064 29.0104 209.322 29.4661 209.499 29.9922C209.676 30.513 209.765 31.0781 209.765 31.6875V31.8672C209.765 32.4766 209.676 33.0417 209.499 33.5625C209.322 34.0833 209.064 34.5391 208.726 34.9297C208.392 35.3151 207.989 35.6172 207.515 35.8359C207.046 36.0495 206.515 36.1562 205.921 36.1562C205.327 36.1562 204.793 36.0495 204.319 35.8359C203.845 35.6172 203.439 35.3151 203.101 34.9297C202.767 34.5391 202.512 34.0833 202.335 33.5625C202.158 33.0417 202.069 32.4766 202.069 31.8672ZM203.515 31.6875V31.8672C203.515 32.2891 203.564 32.6875 203.663 33.0625C203.762 33.4323 203.91 33.7604 204.108 34.0469C204.312 34.3333 204.564 34.5599 204.866 34.7266C205.168 34.888 205.52 34.9688 205.921 34.9688C206.317 34.9688 206.663 34.888 206.96 34.7266C207.262 34.5599 207.512 34.3333 207.71 34.0469C207.908 33.7604 208.056 33.4323 208.155 33.0625C208.259 32.6875 208.312 32.2891 208.312 31.8672V31.6875C208.312 31.2708 208.259 30.8776 208.155 30.5078C208.056 30.1328 207.905 29.8021 207.702 29.5156C207.504 29.224 207.254 28.9948 206.952 28.8281C206.655 28.6615 206.306 28.5781 205.905 28.5781C205.509 28.5781 205.16 28.6615 204.858 28.8281C204.562 28.9948 204.312 29.224 204.108 29.5156C203.91 29.8021 203.762 30.1328 203.663 30.5078C203.564 30.8776 203.515 31.2708 203.515 31.6875ZM213.022 29.3516V36H211.577V27.5469H212.944L213.022 29.3516ZM212.679 31.4531L212.077 31.4297C212.082 30.8516 212.168 30.3177 212.335 29.8281C212.502 29.3333 212.736 28.9036 213.038 28.5391C213.34 28.1745 213.7 27.8932 214.116 27.6953C214.538 27.4922 215.004 27.3906 215.515 27.3906C215.931 27.3906 216.306 27.4479 216.64 27.5625C216.973 27.6719 217.257 27.849 217.491 28.0938C217.731 28.3385 217.913 28.6562 218.038 29.0469C218.163 29.4323 218.226 29.9036 218.226 30.4609V36H216.772V30.4453C216.772 30.0026 216.707 29.6484 216.577 29.3828C216.447 29.112 216.257 28.9167 216.007 28.7969C215.757 28.6719 215.45 28.6094 215.085 28.6094C214.726 28.6094 214.397 28.6849 214.101 28.8359C213.809 28.987 213.556 29.1953 213.343 29.4609C213.134 29.7266 212.97 30.0312 212.851 30.375C212.736 30.7135 212.679 31.0729 212.679 31.4531ZM229.374 34.5547V30.2031C229.374 29.8698 229.306 29.5807 229.171 29.3359C229.041 29.0859 228.843 28.8932 228.577 28.7578C228.312 28.6224 227.983 28.5547 227.593 28.5547C227.228 28.5547 226.908 28.6172 226.632 28.7422C226.361 28.8672 226.147 29.0312 225.991 29.2344C225.84 29.4375 225.765 29.6562 225.765 29.8906H224.319C224.319 29.5885 224.397 29.2891 224.554 28.9922C224.71 28.6953 224.934 28.4271 225.226 28.1875C225.522 27.9427 225.877 27.75 226.288 27.6094C226.705 27.4635 227.168 27.3906 227.679 27.3906C228.293 27.3906 228.835 27.4948 229.304 27.7031C229.778 27.9115 230.147 28.2266 230.413 28.6484C230.684 29.0651 230.819 29.5885 230.819 30.2188V34.1562C230.819 34.4375 230.843 34.737 230.89 35.0547C230.942 35.3724 231.017 35.6458 231.116 35.875V36H229.608C229.535 35.8333 229.478 35.612 229.437 35.3359C229.395 35.0547 229.374 34.7943 229.374 34.5547ZM229.624 30.875L229.64 31.8906H228.179C227.767 31.8906 227.4 31.9245 227.077 31.9922C226.754 32.0547 226.483 32.151 226.265 32.2812C226.046 32.4115 225.879 32.5755 225.765 32.7734C225.65 32.9661 225.593 33.1927 225.593 33.4531C225.593 33.7188 225.653 33.9609 225.772 34.1797C225.892 34.3984 226.072 34.5729 226.312 34.7031C226.556 34.8281 226.856 34.8906 227.21 34.8906C227.653 34.8906 228.043 34.7969 228.382 34.6094C228.72 34.4219 228.989 34.1927 229.187 33.9219C229.39 33.651 229.499 33.388 229.515 33.1328L230.132 33.8281C230.095 34.0469 229.996 34.2891 229.835 34.5547C229.674 34.8203 229.457 35.0755 229.187 35.3203C228.921 35.5599 228.603 35.7604 228.233 35.9219C227.869 36.0781 227.457 36.1562 226.999 36.1562C226.426 36.1562 225.924 36.0443 225.491 35.8203C225.064 35.5964 224.731 35.2969 224.491 34.9219C224.257 34.5417 224.14 34.1172 224.14 33.6484C224.14 33.1953 224.228 32.7969 224.405 32.4531C224.582 32.1042 224.838 31.8151 225.171 31.5859C225.504 31.3516 225.905 31.1745 226.374 31.0547C226.843 30.9349 227.366 30.875 227.944 30.875H229.624ZM238.265 34.0469V27.5469H239.718V36H238.335L238.265 34.0469ZM238.538 32.2656L239.14 32.25C239.14 32.8125 239.08 33.3333 238.96 33.8125C238.845 34.2865 238.658 34.6979 238.397 35.0469C238.137 35.3958 237.796 35.6693 237.374 35.8672C236.952 36.0599 236.439 36.1562 235.835 36.1562C235.424 36.1562 235.046 36.0964 234.702 35.9766C234.364 35.8568 234.072 35.6719 233.827 35.4219C233.582 35.1719 233.392 34.8464 233.257 34.4453C233.127 34.0443 233.062 33.5625 233.062 33V27.5469H234.507V33.0156C234.507 33.3958 234.549 33.7109 234.632 33.9609C234.72 34.2057 234.838 34.401 234.983 34.5469C235.134 34.6875 235.301 34.7865 235.483 34.8438C235.671 34.901 235.864 34.9297 236.062 34.9297C236.676 34.9297 237.163 34.8125 237.522 34.5781C237.882 34.3385 238.14 34.0182 238.296 33.6172C238.457 33.2109 238.538 32.7604 238.538 32.2656ZM245.46 27.5469V28.6562H240.89V27.5469H245.46ZM242.437 25.4922H243.882V33.9062C243.882 34.1927 243.926 34.4089 244.015 34.5547C244.103 34.7005 244.218 34.7969 244.358 34.8438C244.499 34.8906 244.65 34.9141 244.812 34.9141C244.931 34.9141 245.056 34.9036 245.187 34.8828C245.322 34.8568 245.424 34.8359 245.491 34.8203L245.499 36C245.384 36.0365 245.233 36.0703 245.046 36.1016C244.864 36.138 244.642 36.1562 244.382 36.1562C244.028 36.1562 243.702 36.0859 243.405 35.9453C243.108 35.8047 242.871 35.5703 242.694 35.2422C242.522 34.9089 242.437 34.4609 242.437 33.8984V25.4922ZM246.616 31.8672V31.6875C246.616 31.0781 246.705 30.513 246.882 29.9922C247.059 29.4661 247.314 29.0104 247.647 28.625C247.981 28.2344 248.384 27.9323 248.858 27.7188C249.332 27.5 249.864 27.3906 250.452 27.3906C251.046 27.3906 251.58 27.5 252.054 27.7188C252.533 27.9323 252.939 28.2344 253.272 28.625C253.611 29.0104 253.869 29.4661 254.046 29.9922C254.223 30.513 254.312 31.0781 254.312 31.6875V31.8672C254.312 32.4766 254.223 33.0417 254.046 33.5625C253.869 34.0833 253.611 34.5391 253.272 34.9297C252.939 35.3151 252.535 35.6172 252.062 35.8359C251.593 36.0495 251.062 36.1562 250.468 36.1562C249.874 36.1562 249.34 36.0495 248.866 35.8359C248.392 35.6172 247.986 35.3151 247.647 34.9297C247.314 34.5391 247.059 34.0833 246.882 33.5625C246.705 33.0417 246.616 32.4766 246.616 31.8672ZM248.062 31.6875V31.8672C248.062 32.2891 248.111 32.6875 248.21 33.0625C248.309 33.4323 248.457 33.7604 248.655 34.0469C248.858 34.3333 249.111 34.5599 249.413 34.7266C249.715 34.888 250.067 34.9688 250.468 34.9688C250.864 34.9688 251.21 34.888 251.507 34.7266C251.809 34.5599 252.059 34.3333 252.257 34.0469C252.455 33.7604 252.603 33.4323 252.702 33.0625C252.806 32.6875 252.858 32.2891 252.858 31.8672V31.6875C252.858 31.2708 252.806 30.8776 252.702 30.5078C252.603 30.1328 252.452 29.8021 252.249 29.5156C252.051 29.224 251.801 28.9948 251.499 28.8281C251.202 28.6615 250.853 28.5781 250.452 28.5781C250.056 28.5781 249.707 28.6615 249.405 28.8281C249.108 28.9948 248.858 29.224 248.655 29.5156C248.457 29.8021 248.309 30.1328 248.21 30.5078C248.111 30.8776 248.062 31.2708 248.062 31.6875ZM257.562 29.2266V36H256.108V27.5469H257.483L257.562 29.2266ZM257.265 31.4531L256.593 31.4297C256.598 30.8516 256.674 30.3177 256.819 29.8281C256.965 29.3333 257.181 28.9036 257.468 28.5391C257.754 28.1745 258.111 27.8932 258.538 27.6953C258.965 27.4922 259.46 27.3906 260.022 27.3906C260.418 27.3906 260.783 27.4479 261.116 27.5625C261.45 27.6719 261.739 27.8464 261.983 28.0859C262.228 28.3255 262.418 28.6328 262.554 29.0078C262.689 29.3828 262.757 29.8359 262.757 30.3672V36H261.312V30.4375C261.312 29.9948 261.236 29.6406 261.085 29.375C260.939 29.1094 260.731 28.9167 260.46 28.7969C260.189 28.6719 259.871 28.6094 259.507 28.6094C259.08 28.6094 258.723 28.6849 258.437 28.8359C258.15 28.987 257.921 29.1953 257.749 29.4609C257.577 29.7266 257.452 30.0312 257.374 30.375C257.301 30.7135 257.265 31.0729 257.265 31.4531ZM262.741 30.6562L261.772 30.9531C261.778 30.4896 261.853 30.0443 261.999 29.6172C262.15 29.1901 262.366 28.8099 262.647 28.4766C262.934 28.1432 263.285 27.8802 263.702 27.6875C264.119 27.4896 264.595 27.3906 265.132 27.3906C265.585 27.3906 265.986 27.4505 266.335 27.5703C266.689 27.6901 266.986 27.875 267.226 28.125C267.47 28.3698 267.655 28.6849 267.78 29.0703C267.905 29.4557 267.968 29.9141 267.968 30.4453V36H266.515V30.4297C266.515 29.9557 266.439 29.5885 266.288 29.3281C266.142 29.0625 265.934 28.8776 265.663 28.7734C265.397 28.6641 265.08 28.6094 264.71 28.6094C264.392 28.6094 264.111 28.6641 263.866 28.7734C263.621 28.8828 263.416 29.0339 263.249 29.2266C263.082 29.4141 262.955 29.6302 262.866 29.875C262.783 30.1198 262.741 30.3802 262.741 30.6562ZM275.14 34.5547V30.2031C275.14 29.8698 275.072 29.5807 274.937 29.3359C274.806 29.0859 274.608 28.8932 274.343 28.7578C274.077 28.6224 273.749 28.5547 273.358 28.5547C272.994 28.5547 272.674 28.6172 272.397 28.7422C272.127 28.8672 271.913 29.0312 271.757 29.2344C271.606 29.4375 271.53 29.6562 271.53 29.8906H270.085C270.085 29.5885 270.163 29.2891 270.319 28.9922C270.476 28.6953 270.7 28.4271 270.991 28.1875C271.288 27.9427 271.642 27.75 272.054 27.6094C272.47 27.4635 272.934 27.3906 273.444 27.3906C274.059 27.3906 274.601 27.4948 275.069 27.7031C275.543 27.9115 275.913 28.2266 276.179 28.6484C276.45 29.0651 276.585 29.5885 276.585 30.2188V34.1562C276.585 34.4375 276.608 34.737 276.655 35.0547C276.707 35.3724 276.783 35.6458 276.882 35.875V36H275.374C275.301 35.8333 275.244 35.612 275.202 35.3359C275.16 35.0547 275.14 34.7943 275.14 34.5547ZM275.39 30.875L275.405 31.8906H273.944C273.533 31.8906 273.166 31.9245 272.843 31.9922C272.52 32.0547 272.249 32.151 272.03 32.2812C271.812 32.4115 271.645 32.5755 271.53 32.7734C271.416 32.9661 271.358 33.1927 271.358 33.4531C271.358 33.7188 271.418 33.9609 271.538 34.1797C271.658 34.3984 271.838 34.5729 272.077 34.7031C272.322 34.8281 272.621 34.8906 272.976 34.8906C273.418 34.8906 273.809 34.7969 274.147 34.6094C274.486 34.4219 274.754 34.1927 274.952 33.9219C275.155 33.651 275.265 33.388 275.28 33.1328L275.897 33.8281C275.861 34.0469 275.762 34.2891 275.601 34.5547C275.439 34.8203 275.223 35.0755 274.952 35.3203C274.687 35.5599 274.369 35.7604 273.999 35.9219C273.634 36.0781 273.223 36.1562 272.765 36.1562C272.192 36.1562 271.689 36.0443 271.257 35.8203C270.83 35.5964 270.496 35.2969 270.257 34.9219C270.022 34.5417 269.905 34.1172 269.905 33.6484C269.905 33.1953 269.994 32.7969 270.171 32.4531C270.348 32.1042 270.603 31.8151 270.937 31.5859C271.27 31.3516 271.671 31.1745 272.14 31.0547C272.608 30.9349 273.132 30.875 273.71 30.875H275.39ZM282.397 27.5469V28.6562H277.827V27.5469H282.397ZM279.374 25.4922H280.819V33.9062C280.819 34.1927 280.864 34.4089 280.952 34.5547C281.041 34.7005 281.155 34.7969 281.296 34.8438C281.437 34.8906 281.588 34.9141 281.749 34.9141C281.869 34.9141 281.994 34.9036 282.124 34.8828C282.259 34.8568 282.361 34.8359 282.429 34.8203L282.437 36C282.322 36.0365 282.171 36.0703 281.983 36.1016C281.801 36.138 281.58 36.1562 281.319 36.1562C280.965 36.1562 280.64 36.0859 280.343 35.9453C280.046 35.8047 279.809 35.5703 279.632 35.2422C279.46 34.9089 279.374 34.4609 279.374 33.8984V25.4922ZM285.663 27.5469V36H284.21V27.5469H285.663ZM284.101 25.3047C284.101 25.0703 284.171 24.8724 284.312 24.7109C284.457 24.5495 284.671 24.4688 284.952 24.4688C285.228 24.4688 285.439 24.5495 285.585 24.7109C285.736 24.8724 285.812 25.0703 285.812 25.3047C285.812 25.5286 285.736 25.7214 285.585 25.8828C285.439 26.0391 285.228 26.1172 284.952 26.1172C284.671 26.1172 284.457 26.0391 284.312 25.8828C284.171 25.7214 284.101 25.5286 284.101 25.3047ZM287.601 31.8672V31.6875C287.601 31.0781 287.689 30.513 287.866 29.9922C288.043 29.4661 288.299 29.0104 288.632 28.625C288.965 28.2344 289.369 27.9323 289.843 27.7188C290.317 27.5 290.848 27.3906 291.437 27.3906C292.03 27.3906 292.564 27.5 293.038 27.7188C293.517 27.9323 293.924 28.2344 294.257 28.625C294.595 29.0104 294.853 29.4661 295.03 29.9922C295.207 30.513 295.296 31.0781 295.296 31.6875V31.8672C295.296 32.4766 295.207 33.0417 295.03 33.5625C294.853 34.0833 294.595 34.5391 294.257 34.9297C293.924 35.3151 293.52 35.6172 293.046 35.8359C292.577 36.0495 292.046 36.1562 291.452 36.1562C290.858 36.1562 290.325 36.0495 289.851 35.8359C289.377 35.6172 288.97 35.3151 288.632 34.9297C288.299 34.5391 288.043 34.0833 287.866 33.5625C287.689 33.0417 287.601 32.4766 287.601 31.8672ZM289.046 31.6875V31.8672C289.046 32.2891 289.095 32.6875 289.194 33.0625C289.293 33.4323 289.442 33.7604 289.64 34.0469C289.843 34.3333 290.095 34.5599 290.397 34.7266C290.7 34.888 291.051 34.9688 291.452 34.9688C291.848 34.9688 292.194 34.888 292.491 34.7266C292.793 34.5599 293.043 34.3333 293.241 34.0469C293.439 33.7604 293.588 33.4323 293.687 33.0625C293.791 32.6875 293.843 32.2891 293.843 31.8672V31.6875C293.843 31.2708 293.791 30.8776 293.687 30.5078C293.588 30.1328 293.437 29.8021 293.233 29.5156C293.035 29.224 292.785 28.9948 292.483 28.8281C292.187 28.6615 291.838 28.5781 291.437 28.5781C291.041 28.5781 290.692 28.6615 290.39 28.8281C290.093 28.9948 289.843 29.224 289.64 29.5156C289.442 29.8021 289.293 30.1328 289.194 30.5078C289.095 30.8776 289.046 31.2708 289.046 31.6875ZM298.554 29.3516V36H297.108V27.5469H298.476L298.554 29.3516ZM298.21 31.4531L297.608 31.4297C297.614 30.8516 297.7 30.3177 297.866 29.8281C298.033 29.3333 298.267 28.9036 298.569 28.5391C298.871 28.1745 299.231 27.8932 299.647 27.6953C300.069 27.4922 300.535 27.3906 301.046 27.3906C301.463 27.3906 301.838 27.4479 302.171 27.5625C302.504 27.6719 302.788 27.849 303.022 28.0938C303.262 28.3385 303.444 28.6562 303.569 29.0469C303.694 29.4323 303.757 29.9036 303.757 30.4609V36H302.304V30.4453C302.304 30.0026 302.239 29.6484 302.108 29.3828C301.978 29.112 301.788 28.9167 301.538 28.7969C301.288 28.6719 300.981 28.6094 300.616 28.6094C300.257 28.6094 299.929 28.6849 299.632 28.8359C299.34 28.987 299.088 29.1953 298.874 29.4609C298.666 29.7266 298.502 30.0312 298.382 30.375C298.267 30.7135 298.21 31.0729 298.21 31.4531ZM314.905 34.5547V30.2031C314.905 29.8698 314.838 29.5807 314.702 29.3359C314.572 29.0859 314.374 28.8932 314.108 28.7578C313.843 28.6224 313.515 28.5547 313.124 28.5547C312.759 28.5547 312.439 28.6172 312.163 28.7422C311.892 28.8672 311.679 29.0312 311.522 29.2344C311.371 29.4375 311.296 29.6562 311.296 29.8906H309.851C309.851 29.5885 309.929 29.2891 310.085 28.9922C310.241 28.6953 310.465 28.4271 310.757 28.1875C311.054 27.9427 311.408 27.75 311.819 27.6094C312.236 27.4635 312.7 27.3906 313.21 27.3906C313.825 27.3906 314.366 27.4948 314.835 27.7031C315.309 27.9115 315.679 28.2266 315.944 28.6484C316.215 29.0651 316.351 29.5885 316.351 30.2188V34.1562C316.351 34.4375 316.374 34.737 316.421 35.0547C316.473 35.3724 316.549 35.6458 316.647 35.875V36H315.14C315.067 35.8333 315.009 35.612 314.968 35.3359C314.926 35.0547 314.905 34.7943 314.905 34.5547ZM315.155 30.875L315.171 31.8906H313.71C313.299 31.8906 312.931 31.9245 312.608 31.9922C312.285 32.0547 312.015 32.151 311.796 32.2812C311.577 32.4115 311.41 32.5755 311.296 32.7734C311.181 32.9661 311.124 33.1927 311.124 33.4531C311.124 33.7188 311.184 33.9609 311.304 34.1797C311.424 34.3984 311.603 34.5729 311.843 34.7031C312.088 34.8281 312.387 34.8906 312.741 34.8906C313.184 34.8906 313.575 34.7969 313.913 34.6094C314.252 34.4219 314.52 34.1927 314.718 33.9219C314.921 33.651 315.03 33.388 315.046 33.1328L315.663 33.8281C315.627 34.0469 315.528 34.2891 315.366 34.5547C315.205 34.8203 314.989 35.0755 314.718 35.3203C314.452 35.5599 314.134 35.7604 313.765 35.9219C313.4 36.0781 312.989 36.1562 312.53 36.1562C311.957 36.1562 311.455 36.0443 311.022 35.8203C310.595 35.5964 310.262 35.2969 310.022 34.9219C309.788 34.5417 309.671 34.1172 309.671 33.6484C309.671 33.1953 309.759 32.7969 309.937 32.4531C310.114 32.1042 310.369 31.8151 310.702 31.5859C311.035 31.3516 311.437 31.1745 311.905 31.0547C312.374 30.9349 312.897 30.875 313.476 30.875H315.155ZM322.007 34.9688C322.351 34.9688 322.668 34.8984 322.96 34.7578C323.252 34.6172 323.491 34.4245 323.679 34.1797C323.866 33.9297 323.973 33.6458 323.999 33.3281H325.374C325.348 33.8281 325.179 34.2943 324.866 34.7266C324.559 35.1536 324.155 35.5 323.655 35.7656C323.155 36.026 322.606 36.1562 322.007 36.1562C321.371 36.1562 320.817 36.0443 320.343 35.8203C319.874 35.5964 319.483 35.2891 319.171 34.8984C318.864 34.5078 318.632 34.0599 318.476 33.5547C318.325 33.0443 318.249 32.5052 318.249 31.9375V31.6094C318.249 31.0417 318.325 30.5052 318.476 30C318.632 29.4896 318.864 29.0391 319.171 28.6484C319.483 28.2578 319.874 27.9505 320.343 27.7266C320.817 27.5026 321.371 27.3906 322.007 27.3906C322.668 27.3906 323.246 27.526 323.741 27.7969C324.236 28.0625 324.624 28.4271 324.905 28.8906C325.192 29.349 325.348 29.8698 325.374 30.4531H323.999C323.973 30.1042 323.874 29.7891 323.702 29.5078C323.535 29.2266 323.306 29.0026 323.015 28.8359C322.728 28.6641 322.392 28.5781 322.007 28.5781C321.564 28.5781 321.192 28.6667 320.89 28.8438C320.593 29.0156 320.356 29.25 320.179 29.5469C320.007 29.8385 319.882 30.1641 319.804 30.5234C319.731 30.8776 319.694 31.2396 319.694 31.6094V31.9375C319.694 32.3073 319.731 32.6719 319.804 33.0312C319.877 33.3906 319.999 33.7161 320.171 34.0078C320.348 34.2995 320.585 34.5339 320.882 34.7109C321.184 34.8828 321.559 34.9688 322.007 34.9688ZM328.444 28.875V36H326.999V27.5469H328.405L328.444 28.875ZM331.085 27.5L331.077 28.8438C330.957 28.8177 330.843 28.8021 330.733 28.7969C330.629 28.7865 330.509 28.7812 330.374 28.7812C330.041 28.7812 329.746 28.8333 329.491 28.9375C329.236 29.0417 329.02 29.1875 328.843 29.375C328.666 29.5625 328.525 29.7865 328.421 30.0469C328.322 30.3021 328.257 30.5833 328.226 30.8906L327.819 31.125C327.819 30.6146 327.869 30.1354 327.968 29.6875C328.072 29.2396 328.231 28.8438 328.444 28.5C328.658 28.151 328.929 27.8802 329.257 27.6875C329.59 27.4896 329.986 27.3906 330.444 27.3906C330.549 27.3906 330.668 27.4036 330.804 27.4297C330.939 27.4505 331.033 27.474 331.085 27.5ZM331.882 31.8672V31.6875C331.882 31.0781 331.97 30.513 332.147 29.9922C332.325 29.4661 332.58 29.0104 332.913 28.625C333.246 28.2344 333.65 27.9323 334.124 27.7188C334.598 27.5 335.129 27.3906 335.718 27.3906C336.312 27.3906 336.845 27.5 337.319 27.7188C337.799 27.9323 338.205 28.2344 338.538 28.625C338.877 29.0104 339.134 29.4661 339.312 29.9922C339.489 30.513 339.577 31.0781 339.577 31.6875V31.8672C339.577 32.4766 339.489 33.0417 339.312 33.5625C339.134 34.0833 338.877 34.5391 338.538 34.9297C338.205 35.3151 337.801 35.6172 337.327 35.8359C336.858 36.0495 336.327 36.1562 335.733 36.1562C335.14 36.1562 334.606 36.0495 334.132 35.8359C333.658 35.6172 333.252 35.3151 332.913 34.9297C332.58 34.5391 332.325 34.0833 332.147 33.5625C331.97 33.0417 331.882 32.4766 331.882 31.8672ZM333.327 31.6875V31.8672C333.327 32.2891 333.377 32.6875 333.476 33.0625C333.575 33.4323 333.723 33.7604 333.921 34.0469C334.124 34.3333 334.377 34.5599 334.679 34.7266C334.981 34.888 335.332 34.9688 335.733 34.9688C336.129 34.9688 336.476 34.888 336.772 34.7266C337.075 34.5599 337.325 34.3333 337.522 34.0469C337.72 33.7604 337.869 33.4323 337.968 33.0625C338.072 32.6875 338.124 32.2891 338.124 31.8672V31.6875C338.124 31.2708 338.072 30.8776 337.968 30.5078C337.869 30.1328 337.718 29.8021 337.515 29.5156C337.317 29.224 337.067 28.9948 336.765 28.8281C336.468 28.6615 336.119 28.5781 335.718 28.5781C335.322 28.5781 334.973 28.6615 334.671 28.8281C334.374 28.9948 334.124 29.224 333.921 29.5156C333.723 29.8021 333.575 30.1328 333.476 30.5078C333.377 30.8776 333.327 31.2708 333.327 31.6875ZM346.312 33.7578C346.312 33.5495 346.265 33.3568 346.171 33.1797C346.082 32.9974 345.897 32.8333 345.616 32.6875C345.34 32.5365 344.924 32.4062 344.366 32.2969C343.897 32.1979 343.473 32.0807 343.093 31.9453C342.718 31.8099 342.397 31.6458 342.132 31.4531C341.871 31.2604 341.671 31.0339 341.53 30.7734C341.39 30.513 341.319 30.2083 341.319 29.8594C341.319 29.526 341.392 29.2109 341.538 28.9141C341.689 28.6172 341.9 28.3542 342.171 28.125C342.447 27.8958 342.778 27.7161 343.163 27.5859C343.549 27.4557 343.978 27.3906 344.452 27.3906C345.129 27.3906 345.707 27.5104 346.187 27.75C346.666 27.9896 347.033 28.3099 347.288 28.7109C347.543 29.1068 347.671 29.5469 347.671 30.0312H346.226C346.226 29.7969 346.155 29.5703 346.015 29.3516C345.879 29.1276 345.679 28.9427 345.413 28.7969C345.153 28.651 344.832 28.5781 344.452 28.5781C344.051 28.5781 343.726 28.6406 343.476 28.7656C343.231 28.8854 343.051 29.0391 342.937 29.2266C342.827 29.4141 342.772 29.612 342.772 29.8203C342.772 29.9766 342.799 30.1172 342.851 30.2422C342.908 30.362 343.007 30.474 343.147 30.5781C343.288 30.6771 343.486 30.7708 343.741 30.8594C343.996 30.9479 344.322 31.0365 344.718 31.125C345.41 31.2812 345.981 31.4688 346.429 31.6875C346.877 31.9062 347.21 32.1745 347.429 32.4922C347.647 32.8099 347.757 33.1953 347.757 33.6484C347.757 34.0182 347.679 34.3568 347.522 34.6641C347.371 34.9714 347.15 35.237 346.858 35.4609C346.572 35.6797 346.228 35.8516 345.827 35.9766C345.431 36.0964 344.986 36.1562 344.491 36.1562C343.746 36.1562 343.116 36.0234 342.601 35.7578C342.085 35.4922 341.694 35.1484 341.429 34.7266C341.163 34.3047 341.03 33.8594 341.03 33.3906H342.483C342.504 33.7865 342.619 34.1016 342.827 34.3359C343.035 34.5651 343.291 34.7292 343.593 34.8281C343.895 34.9219 344.194 34.9688 344.491 34.9688C344.887 34.9688 345.218 34.9167 345.483 34.8125C345.754 34.7083 345.96 34.5651 346.101 34.3828C346.241 34.2005 346.312 33.9922 346.312 33.7578ZM354.577 33.7578C354.577 33.5495 354.53 33.3568 354.437 33.1797C354.348 32.9974 354.163 32.8333 353.882 32.6875C353.606 32.5365 353.189 32.4062 352.632 32.2969C352.163 32.1979 351.739 32.0807 351.358 31.9453C350.983 31.8099 350.663 31.6458 350.397 31.4531C350.137 31.2604 349.937 31.0339 349.796 30.7734C349.655 30.513 349.585 30.2083 349.585 29.8594C349.585 29.526 349.658 29.2109 349.804 28.9141C349.955 28.6172 350.166 28.3542 350.437 28.125C350.713 27.8958 351.043 27.7161 351.429 27.5859C351.814 27.4557 352.244 27.3906 352.718 27.3906C353.395 27.3906 353.973 27.5104 354.452 27.75C354.931 27.9896 355.299 28.3099 355.554 28.7109C355.809 29.1068 355.937 29.5469 355.937 30.0312H354.491C354.491 29.7969 354.421 29.5703 354.28 29.3516C354.145 29.1276 353.944 28.9427 353.679 28.7969C353.418 28.651 353.098 28.5781 352.718 28.5781C352.317 28.5781 351.991 28.6406 351.741 28.7656C351.496 28.8854 351.317 29.0391 351.202 29.2266C351.093 29.4141 351.038 29.612 351.038 29.8203C351.038 29.9766 351.064 30.1172 351.116 30.2422C351.174 30.362 351.272 30.474 351.413 30.5781C351.554 30.6771 351.752 30.7708 352.007 30.8594C352.262 30.9479 352.588 31.0365 352.983 31.125C353.676 31.2812 354.246 31.4688 354.694 31.6875C355.142 31.9062 355.476 32.1745 355.694 32.4922C355.913 32.8099 356.022 33.1953 356.022 33.6484C356.022 34.0182 355.944 34.3568 355.788 34.6641C355.637 34.9714 355.416 35.237 355.124 35.4609C354.838 35.6797 354.494 35.8516 354.093 35.9766C353.697 36.0964 353.252 36.1562 352.757 36.1562C352.012 36.1562 351.382 36.0234 350.866 35.7578C350.351 35.4922 349.96 35.1484 349.694 34.7266C349.429 34.3047 349.296 33.8594 349.296 33.3906H350.749C350.77 33.7865 350.884 34.1016 351.093 34.3359C351.301 34.5651 351.556 34.7292 351.858 34.8281C352.16 34.9219 352.46 34.9688 352.757 34.9688C353.153 34.9688 353.483 34.9167 353.749 34.8125C354.02 34.7083 354.226 34.5651 354.366 34.3828C354.507 34.2005 354.577 33.9922 354.577 33.7578ZM365.429 27.5469V28.6562H360.858V27.5469H365.429ZM362.405 25.4922H363.851V33.9062C363.851 34.1927 363.895 34.4089 363.983 34.5547C364.072 34.7005 364.187 34.7969 364.327 34.8438C364.468 34.8906 364.619 34.9141 364.78 34.9141C364.9 34.9141 365.025 34.9036 365.155 34.8828C365.291 34.8568 365.392 34.8359 365.46 34.8203L365.468 36C365.353 36.0365 365.202 36.0703 365.015 36.1016C364.832 36.138 364.611 36.1562 364.351 36.1562C363.996 36.1562 363.671 36.0859 363.374 35.9453C363.077 35.8047 362.84 35.5703 362.663 35.2422C362.491 34.9089 362.405 34.4609 362.405 33.8984V25.4922ZM370.632 36.1562C370.043 36.1562 369.509 36.0573 369.03 35.8594C368.556 35.6562 368.147 35.3724 367.804 35.0078C367.465 34.6432 367.205 34.2109 367.022 33.7109C366.84 33.2109 366.749 32.6641 366.749 32.0703V31.7422C366.749 31.0547 366.851 30.4427 367.054 29.9062C367.257 29.3646 367.533 28.9062 367.882 28.5312C368.231 28.1562 368.627 27.8724 369.069 27.6797C369.512 27.487 369.97 27.3906 370.444 27.3906C371.049 27.3906 371.569 27.4948 372.007 27.7031C372.45 27.9115 372.812 28.2031 373.093 28.5781C373.374 28.9479 373.582 29.3854 373.718 29.8906C373.853 30.3906 373.921 30.9375 373.921 31.5312V32.1797H367.608V31H372.476V30.8906C372.455 30.5156 372.377 30.151 372.241 29.7969C372.111 29.4427 371.903 29.151 371.616 28.9219C371.33 28.6927 370.939 28.5781 370.444 28.5781C370.116 28.5781 369.814 28.6484 369.538 28.7891C369.262 28.9245 369.025 29.1276 368.827 29.3984C368.629 29.6693 368.476 30 368.366 30.3906C368.257 30.7812 368.202 31.2318 368.202 31.7422V32.0703C368.202 32.4714 368.257 32.849 368.366 33.2031C368.481 33.5521 368.645 33.8594 368.858 34.125C369.077 34.3906 369.34 34.599 369.647 34.75C369.96 34.901 370.314 34.9766 370.71 34.9766C371.22 34.9766 371.653 34.8724 372.007 34.6641C372.361 34.4557 372.671 34.1771 372.937 33.8281L373.812 34.5234C373.629 34.7995 373.397 35.0625 373.116 35.3125C372.835 35.5625 372.489 35.7656 372.077 35.9219C371.671 36.0781 371.189 36.1562 370.632 36.1562ZM380.593 34.5547V30.2031C380.593 29.8698 380.525 29.5807 380.39 29.3359C380.259 29.0859 380.062 28.8932 379.796 28.7578C379.53 28.6224 379.202 28.5547 378.812 28.5547C378.447 28.5547 378.127 28.6172 377.851 28.7422C377.58 28.8672 377.366 29.0312 377.21 29.2344C377.059 29.4375 376.983 29.6562 376.983 29.8906H375.538C375.538 29.5885 375.616 29.2891 375.772 28.9922C375.929 28.6953 376.153 28.4271 376.444 28.1875C376.741 27.9427 377.095 27.75 377.507 27.6094C377.924 27.4635 378.387 27.3906 378.897 27.3906C379.512 27.3906 380.054 27.4948 380.522 27.7031C380.996 27.9115 381.366 28.2266 381.632 28.6484C381.903 29.0651 382.038 29.5885 382.038 30.2188V34.1562C382.038 34.4375 382.062 34.737 382.108 35.0547C382.16 35.3724 382.236 35.6458 382.335 35.875V36H380.827C380.754 35.8333 380.697 35.612 380.655 35.3359C380.614 35.0547 380.593 34.7943 380.593 34.5547ZM380.843 30.875L380.858 31.8906H379.397C378.986 31.8906 378.619 31.9245 378.296 31.9922C377.973 32.0547 377.702 32.151 377.483 32.2812C377.265 32.4115 377.098 32.5755 376.983 32.7734C376.869 32.9661 376.812 33.1927 376.812 33.4531C376.812 33.7188 376.871 33.9609 376.991 34.1797C377.111 34.3984 377.291 34.5729 377.53 34.7031C377.775 34.8281 378.075 34.8906 378.429 34.8906C378.871 34.8906 379.262 34.7969 379.601 34.6094C379.939 34.4219 380.207 34.1927 380.405 33.9219C380.608 33.651 380.718 33.388 380.733 33.1328L381.351 33.8281C381.314 34.0469 381.215 34.2891 381.054 34.5547C380.892 34.8203 380.676 35.0755 380.405 35.3203C380.14 35.5599 379.822 35.7604 379.452 35.9219C379.088 36.0781 378.676 36.1562 378.218 36.1562C377.645 36.1562 377.142 36.0443 376.71 35.8203C376.283 35.5964 375.95 35.2969 375.71 34.9219C375.476 34.5417 375.358 34.1172 375.358 33.6484C375.358 33.1953 375.447 32.7969 375.624 32.4531C375.801 32.1042 376.056 31.8151 376.39 31.5859C376.723 31.3516 377.124 31.1745 377.593 31.0547C378.062 30.9349 378.585 30.875 379.163 30.875H380.843ZM385.749 29.2266V36H384.296V27.5469H385.671L385.749 29.2266ZM385.452 31.4531L384.78 31.4297C384.785 30.8516 384.861 30.3177 385.007 29.8281C385.153 29.3333 385.369 28.9036 385.655 28.5391C385.942 28.1745 386.299 27.8932 386.726 27.6953C387.153 27.4922 387.647 27.3906 388.21 27.3906C388.606 27.3906 388.97 27.4479 389.304 27.5625C389.637 27.6719 389.926 27.8464 390.171 28.0859C390.416 28.3255 390.606 28.6328 390.741 29.0078C390.877 29.3828 390.944 29.8359 390.944 30.3672V36H389.499V30.4375C389.499 29.9948 389.424 29.6406 389.272 29.375C389.127 29.1094 388.918 28.9167 388.647 28.7969C388.377 28.6719 388.059 28.6094 387.694 28.6094C387.267 28.6094 386.91 28.6849 386.624 28.8359C386.338 28.987 386.108 29.1953 385.937 29.4609C385.765 29.7266 385.64 30.0312 385.562 30.375C385.489 30.7135 385.452 31.0729 385.452 31.4531ZM390.929 30.6562L389.96 30.9531C389.965 30.4896 390.041 30.0443 390.187 29.6172C390.338 29.1901 390.554 28.8099 390.835 28.4766C391.121 28.1432 391.473 27.8802 391.89 27.6875C392.306 27.4896 392.783 27.3906 393.319 27.3906C393.772 27.3906 394.174 27.4505 394.522 27.5703C394.877 27.6901 395.174 27.875 395.413 28.125C395.658 28.3698 395.843 28.6849 395.968 29.0703C396.093 29.4557 396.155 29.9141 396.155 30.4453V36H394.702V30.4297C394.702 29.9557 394.627 29.5885 394.476 29.3281C394.33 29.0625 394.121 28.8776 393.851 28.7734C393.585 28.6641 393.267 28.6094 392.897 28.6094C392.58 28.6094 392.299 28.6641 392.054 28.7734C391.809 28.8828 391.603 29.0339 391.437 29.2266C391.27 29.4141 391.142 29.6302 391.054 29.875C390.97 30.1198 390.929 30.3802 390.929 30.6562ZM403.265 33.7578C403.265 33.5495 403.218 33.3568 403.124 33.1797C403.035 32.9974 402.851 32.8333 402.569 32.6875C402.293 32.5365 401.877 32.4062 401.319 32.2969C400.851 32.1979 400.426 32.0807 400.046 31.9453C399.671 31.8099 399.351 31.6458 399.085 31.4531C398.825 31.2604 398.624 31.0339 398.483 30.7734C398.343 30.513 398.272 30.2083 398.272 29.8594C398.272 29.526 398.345 29.2109 398.491 28.9141C398.642 28.6172 398.853 28.3542 399.124 28.125C399.4 27.8958 399.731 27.7161 400.116 27.5859C400.502 27.4557 400.931 27.3906 401.405 27.3906C402.082 27.3906 402.66 27.5104 403.14 27.75C403.619 27.9896 403.986 28.3099 404.241 28.7109C404.496 29.1068 404.624 29.5469 404.624 30.0312H403.179C403.179 29.7969 403.108 29.5703 402.968 29.3516C402.832 29.1276 402.632 28.9427 402.366 28.7969C402.106 28.651 401.785 28.5781 401.405 28.5781C401.004 28.5781 400.679 28.6406 400.429 28.7656C400.184 28.8854 400.004 29.0391 399.89 29.2266C399.78 29.4141 399.726 29.612 399.726 29.8203C399.726 29.9766 399.752 30.1172 399.804 30.2422C399.861 30.362 399.96 30.474 400.101 30.5781C400.241 30.6771 400.439 30.7708 400.694 30.8594C400.95 30.9479 401.275 31.0365 401.671 31.125C402.364 31.2812 402.934 31.4688 403.382 31.6875C403.83 31.9062 404.163 32.1745 404.382 32.4922C404.601 32.8099 404.71 33.1953 404.71 33.6484C404.71 34.0182 404.632 34.3568 404.476 34.6641C404.325 34.9714 404.103 35.237 403.812 35.4609C403.525 35.6797 403.181 35.8516 402.78 35.9766C402.384 36.0964 401.939 36.1562 401.444 36.1562C400.7 36.1562 400.069 36.0234 399.554 35.7578C399.038 35.4922 398.647 35.1484 398.382 34.7266C398.116 34.3047 397.983 33.8594 397.983 33.3906H399.437C399.457 33.7865 399.572 34.1016 399.78 34.3359C399.989 34.5651 400.244 34.7292 400.546 34.8281C400.848 34.9219 401.147 34.9688 401.444 34.9688C401.84 34.9688 402.171 34.9167 402.437 34.8125C402.707 34.7083 402.913 34.5651 403.054 34.3828C403.194 34.2005 403.265 33.9922 403.265 33.7578Z" fill="#2D3139"/>
</g>
<defs>
<filter id="filter0_di_7916_14778" x="0.983398" y="0" width="472" height="66" filterUnits="userSpaceOnUse" color-interpolation-filters="sRGB">
<feFlood flood-opacity="0" result="BackgroundImageFix"/>
<feColorMatrix in="SourceAlpha" type="matrix" values="0 0 0 0 0 0 0 0 0 0 0 0 0 0 0 0 0 0 127 0" result="hardAlpha"/>
<feOffset dy="1"/>
<feGaussianBlur stdDeviation="1.5"/>
<feComposite in2="hardAlpha" operator="out"/>
<feColorMatrix type="matrix" values="0 0 0 0 0.121569 0 0 0 0 0.133333 0 0 0 0 0.160784 0 0 0 0.08 0"/>
<feBlend mode="normal" in2="BackgroundImageFix" result="effect1_dropShadow_7916_14778"/>
<feBlend mode="normal" in="SourceGraphic" in2="effect1_dropShadow_7916_14778" result="shape"/>
<feColorMatrix in="SourceAlpha" type="matrix" values="0 0 0 0 0 0 0 0 0 0 0 0 0 0 0 0 0 0 127 0" result="hardAlpha"/>
<feMorphology radius="1" operator="erode" in="SourceAlpha" result="effect2_innerShadow_7916_14778"/>
<feOffset/>
<feComposite in2="hardAlpha" operator="arithmetic" k2="-1" k3="1"/>
<feColorMatrix type="matrix" values="0 0 0 0 0.882353 0 0 0 0 0.898039 0 0 0 0 0.921569 0 0 0 1 0"/>
<feBlend mode="normal" in2="shape" result="effect2_innerShadow_7916_14778"/>
</filter>
</defs>
</svg>
