<svg width="472" height="88" viewBox="0 0 472 88" fill="none" xmlns="http://www.w3.org/2000/svg">
<g filter="url(#filter0_di_7916_14810)">
<g clip-path="url(#clip0_7916_14810)">
<rect x="3" y="2" width="466" height="82" rx="4" fill="white"/>
<path d="M36.2494 53.8422H25.4161V51.6756H36.2494V53.8422ZM43.8328 34.3346L38.7032 40.7859L38.4649 41.0784L32.3657 48.8676C32.1644 49.0689 31.9254 49.2285 31.6624 49.3375C31.3994 49.4464 31.1175 49.5025 30.8328 49.5025C30.5481 49.5025 30.2662 49.4464 30.0032 49.3375C29.7401 49.2285 29.5012 49.0689 29.2999 48.8676C29.0985 48.6662 28.9389 48.4273 28.8299 48.1642C28.721 47.9012 28.6649 47.6193 28.6649 47.3346C28.6649 47.0499 28.721 46.768 28.8299 46.505C28.9389 46.242 29.0985 46.003 29.2999 45.8017L43.8328 34.3346ZM22.8649 37.8381C21.2997 40.3444 20.7369 43.3485 21.2886 46.2513H22.1661V45.168C22.1553 43.035 22.7939 40.9493 23.9969 39.188L22.8649 37.8381ZM32.9994 32.168C31.3426 32.1679 29.7041 32.5145 28.1893 33.1856C26.6745 33.8568 25.3169 34.8375 24.2039 36.0647L25.4432 37.5413C26.9139 36.1892 28.835 35.4324 30.8328 35.418C32.8414 35.4318 34.7723 36.1961 36.2462 37.5608L40.092 34.5253C38.044 32.9951 35.556 32.1682 32.9994 32.168ZM40.3986 42.1346L40.1462 42.4456L39.3575 43.4531C39.4502 44.02 39.4977 44.5935 39.4994 45.168V46.2513H44.7103C45.2243 43.5401 44.7707 40.7346 43.4287 38.3235L40.3986 42.1346Z" fill="#282828"/>
<path d="M76.7266 30.3359V34.5C76.5859 34.7083 76.362 34.9427 76.0547 35.2031C75.7474 35.4583 75.3229 35.6823 74.7812 35.875C74.2448 36.0625 73.5521 36.1562 72.7031 36.1562C72.0104 36.1562 71.3724 36.0365 70.7891 35.7969C70.2109 35.5521 69.7083 35.1979 69.2812 34.7344C68.8594 34.2656 68.5312 33.6979 68.2969 33.0312C68.0677 32.3594 67.9531 31.599 67.9531 30.75V29.8672C67.9531 29.0182 68.0521 28.2604 68.25 27.5938C68.4531 26.9271 68.75 26.362 69.1406 25.8984C69.5312 25.4297 70.0104 25.0755 70.5781 24.8359C71.1458 24.5911 71.7969 24.4688 72.5312 24.4688C73.401 24.4688 74.1276 24.6198 74.7109 24.9219C75.2995 25.2188 75.7578 25.6302 76.0859 26.1562C76.4193 26.6823 76.6328 27.2812 76.7266 27.9531H75.2188C75.151 27.5417 75.0156 27.1667 74.8125 26.8281C74.6146 26.4896 74.3307 26.2188 73.9609 26.0156C73.5911 25.8073 73.1146 25.7031 72.5312 25.7031C72.0052 25.7031 71.5495 25.7995 71.1641 25.9922C70.7786 26.1849 70.4609 26.4609 70.2109 26.8203C69.9609 27.1797 69.7734 27.6146 69.6484 28.125C69.5286 28.6354 69.4688 29.2109 69.4688 29.8516V30.75C69.4688 31.4062 69.5443 31.9922 69.6953 32.5078C69.8516 33.0234 70.0729 33.4635 70.3594 33.8281C70.6458 34.1875 70.987 34.4609 71.3828 34.6484C71.7839 34.8359 72.2266 34.9297 72.7109 34.9297C73.2474 34.9297 73.6823 34.8854 74.0156 34.7969C74.349 34.7031 74.6094 34.5938 74.7969 34.4688C74.9844 34.3385 75.1276 34.2161 75.2266 34.1016V31.5547H72.5938V30.3359H76.7266ZM84.1797 34.0469V27.5469H85.6328V36H84.25L84.1797 34.0469ZM84.4531 32.2656L85.0547 32.25C85.0547 32.8125 84.9948 33.3333 84.875 33.8125C84.7604 34.2865 84.5729 34.6979 84.3125 35.0469C84.0521 35.3958 83.7109 35.6693 83.2891 35.8672C82.8672 36.0599 82.3542 36.1562 81.75 36.1562C81.3385 36.1562 80.9609 36.0964 80.6172 35.9766C80.2786 35.8568 79.987 35.6719 79.7422 35.4219C79.4974 35.1719 79.3073 34.8464 79.1719 34.4453C79.0417 34.0443 78.9766 33.5625 78.9766 33V27.5469H80.4219V33.0156C80.4219 33.3958 80.4635 33.7109 80.5469 33.9609C80.6354 34.2057 80.7526 34.401 80.8984 34.5469C81.0495 34.6875 81.2161 34.7865 81.3984 34.8438C81.5859 34.901 81.7786 34.9297 81.9766 34.9297C82.5911 34.9297 83.0781 34.8125 83.4375 34.5781C83.7969 34.3385 84.0547 34.0182 84.2109 33.6172C84.3724 33.2109 84.4531 32.7604 84.4531 32.2656ZM92.8203 34.5547V30.2031C92.8203 29.8698 92.7526 29.5807 92.6172 29.3359C92.487 29.0859 92.2891 28.8932 92.0234 28.7578C91.7578 28.6224 91.4297 28.5547 91.0391 28.5547C90.6745 28.5547 90.3542 28.6172 90.0781 28.7422C89.8073 28.8672 89.5938 29.0312 89.4375 29.2344C89.2865 29.4375 89.2109 29.6562 89.2109 29.8906H87.7656C87.7656 29.5885 87.8438 29.2891 88 28.9922C88.1562 28.6953 88.3802 28.4271 88.6719 28.1875C88.9688 27.9427 89.3229 27.75 89.7344 27.6094C90.151 27.4635 90.6146 27.3906 91.125 27.3906C91.7396 27.3906 92.2812 27.4948 92.75 27.7031C93.224 27.9115 93.5938 28.2266 93.8594 28.6484C94.1302 29.0651 94.2656 29.5885 94.2656 30.2188V34.1562C94.2656 34.4375 94.2891 34.737 94.3359 35.0547C94.388 35.3724 94.4635 35.6458 94.5625 35.875V36H93.0547C92.9818 35.8333 92.9245 35.612 92.8828 35.3359C92.8411 35.0547 92.8203 34.7943 92.8203 34.5547ZM93.0703 30.875L93.0859 31.8906H91.625C91.2135 31.8906 90.8464 31.9245 90.5234 31.9922C90.2005 32.0547 89.9297 32.151 89.7109 32.2812C89.4922 32.4115 89.3255 32.5755 89.2109 32.7734C89.0964 32.9661 89.0391 33.1927 89.0391 33.4531C89.0391 33.7188 89.099 33.9609 89.2188 34.1797C89.3385 34.3984 89.5182 34.5729 89.7578 34.7031C90.0026 34.8281 90.3021 34.8906 90.6562 34.8906C91.099 34.8906 91.4896 34.7969 91.8281 34.6094C92.1667 34.4219 92.4349 34.1927 92.6328 33.9219C92.8359 33.651 92.9453 33.388 92.9609 33.1328L93.5781 33.8281C93.5417 34.0469 93.4427 34.2891 93.2812 34.5547C93.1198 34.8203 92.9036 35.0755 92.6328 35.3203C92.3672 35.5599 92.0495 35.7604 91.6797 35.9219C91.3151 36.0781 90.9036 36.1562 90.4453 36.1562C89.8724 36.1562 89.3698 36.0443 88.9375 35.8203C88.5104 35.5964 88.1771 35.2969 87.9375 34.9219C87.7031 34.5417 87.5859 34.1172 87.5859 33.6484C87.5859 33.1953 87.6745 32.7969 87.8516 32.4531C88.0286 32.1042 88.2839 31.8151 88.6172 31.5859C88.9505 31.3516 89.3516 31.1745 89.8203 31.0547C90.2891 30.9349 90.8125 30.875 91.3906 30.875H93.0703ZM97.9844 28.875V36H96.5391V27.5469H97.9453L97.9844 28.875ZM100.625 27.5L100.617 28.8438C100.497 28.8177 100.383 28.8021 100.273 28.7969C100.169 28.7865 100.049 28.7812 99.9141 28.7812C99.5807 28.7812 99.2865 28.8333 99.0312 28.9375C98.776 29.0417 98.5599 29.1875 98.3828 29.375C98.2057 29.5625 98.0651 29.7865 97.9609 30.0469C97.862 30.3021 97.7969 30.5833 97.7656 30.8906L97.3594 31.125C97.3594 30.6146 97.4089 30.1354 97.5078 29.6875C97.612 29.2396 97.7708 28.8438 97.9844 28.5C98.1979 28.151 98.4688 27.8802 98.7969 27.6875C99.1302 27.4896 99.526 27.3906 99.9844 27.3906C100.089 27.3906 100.208 27.4036 100.344 27.4297C100.479 27.4505 100.573 27.474 100.625 27.5ZM106.633 34.5547V30.2031C106.633 29.8698 106.565 29.5807 106.43 29.3359C106.299 29.0859 106.102 28.8932 105.836 28.7578C105.57 28.6224 105.242 28.5547 104.852 28.5547C104.487 28.5547 104.167 28.6172 103.891 28.7422C103.62 28.8672 103.406 29.0312 103.25 29.2344C103.099 29.4375 103.023 29.6562 103.023 29.8906H101.578C101.578 29.5885 101.656 29.2891 101.812 28.9922C101.969 28.6953 102.193 28.4271 102.484 28.1875C102.781 27.9427 103.135 27.75 103.547 27.6094C103.964 27.4635 104.427 27.3906 104.938 27.3906C105.552 27.3906 106.094 27.4948 106.562 27.7031C107.036 27.9115 107.406 28.2266 107.672 28.6484C107.943 29.0651 108.078 29.5885 108.078 30.2188V34.1562C108.078 34.4375 108.102 34.737 108.148 35.0547C108.201 35.3724 108.276 35.6458 108.375 35.875V36H106.867C106.794 35.8333 106.737 35.612 106.695 35.3359C106.654 35.0547 106.633 34.7943 106.633 34.5547ZM106.883 30.875L106.898 31.8906H105.438C105.026 31.8906 104.659 31.9245 104.336 31.9922C104.013 32.0547 103.742 32.151 103.523 32.2812C103.305 32.4115 103.138 32.5755 103.023 32.7734C102.909 32.9661 102.852 33.1927 102.852 33.4531C102.852 33.7188 102.911 33.9609 103.031 34.1797C103.151 34.3984 103.331 34.5729 103.57 34.7031C103.815 34.8281 104.115 34.8906 104.469 34.8906C104.911 34.8906 105.302 34.7969 105.641 34.6094C105.979 34.4219 106.247 34.1927 106.445 33.9219C106.648 33.651 106.758 33.388 106.773 33.1328L107.391 33.8281C107.354 34.0469 107.255 34.2891 107.094 34.5547C106.932 34.8203 106.716 35.0755 106.445 35.3203C106.18 35.5599 105.862 35.7604 105.492 35.9219C105.128 36.0781 104.716 36.1562 104.258 36.1562C103.685 36.1562 103.182 36.0443 102.75 35.8203C102.323 35.5964 101.99 35.2969 101.75 34.9219C101.516 34.5417 101.398 34.1172 101.398 33.6484C101.398 33.1953 101.487 32.7969 101.664 32.4531C101.841 32.1042 102.096 31.8151 102.43 31.5859C102.763 31.3516 103.164 31.1745 103.633 31.0547C104.102 30.9349 104.625 30.875 105.203 30.875H106.883ZM111.797 29.3516V36H110.352V27.5469H111.719L111.797 29.3516ZM111.453 31.4531L110.852 31.4297C110.857 30.8516 110.943 30.3177 111.109 29.8281C111.276 29.3333 111.51 28.9036 111.812 28.5391C112.115 28.1745 112.474 27.8932 112.891 27.6953C113.312 27.4922 113.779 27.3906 114.289 27.3906C114.706 27.3906 115.081 27.4479 115.414 27.5625C115.747 27.6719 116.031 27.849 116.266 28.0938C116.505 28.3385 116.688 28.6562 116.812 29.0469C116.938 29.4323 117 29.9036 117 30.4609V36H115.547V30.4453C115.547 30.0026 115.482 29.6484 115.352 29.3828C115.221 29.112 115.031 28.9167 114.781 28.7969C114.531 28.6719 114.224 28.6094 113.859 28.6094C113.5 28.6094 113.172 28.6849 112.875 28.8359C112.583 28.987 112.331 29.1953 112.117 29.4609C111.909 29.7266 111.745 30.0312 111.625 30.375C111.51 30.7135 111.453 31.0729 111.453 31.4531ZM122.734 27.5469V28.6562H118.164V27.5469H122.734ZM119.711 25.4922H121.156V33.9062C121.156 34.1927 121.201 34.4089 121.289 34.5547C121.378 34.7005 121.492 34.7969 121.633 34.8438C121.773 34.8906 121.924 34.9141 122.086 34.9141C122.206 34.9141 122.331 34.9036 122.461 34.8828C122.596 34.8568 122.698 34.8359 122.766 34.8203L122.773 36C122.659 36.0365 122.508 36.0703 122.32 36.1016C122.138 36.138 121.917 36.1562 121.656 36.1562C121.302 36.1562 120.977 36.0859 120.68 35.9453C120.383 35.8047 120.146 35.5703 119.969 35.2422C119.797 34.9089 119.711 34.4609 119.711 33.8984V25.4922ZM127.938 36.1562C127.349 36.1562 126.815 36.0573 126.336 35.8594C125.862 35.6562 125.453 35.3724 125.109 35.0078C124.771 34.6432 124.51 34.2109 124.328 33.7109C124.146 33.2109 124.055 32.6641 124.055 32.0703V31.7422C124.055 31.0547 124.156 30.4427 124.359 29.9062C124.562 29.3646 124.839 28.9062 125.188 28.5312C125.536 28.1562 125.932 27.8724 126.375 27.6797C126.818 27.487 127.276 27.3906 127.75 27.3906C128.354 27.3906 128.875 27.4948 129.312 27.7031C129.755 27.9115 130.117 28.2031 130.398 28.5781C130.68 28.9479 130.888 29.3854 131.023 29.8906C131.159 30.3906 131.227 30.9375 131.227 31.5312V32.1797H124.914V31H129.781V30.8906C129.76 30.5156 129.682 30.151 129.547 29.7969C129.417 29.4427 129.208 29.151 128.922 28.9219C128.635 28.6927 128.245 28.5781 127.75 28.5781C127.422 28.5781 127.12 28.6484 126.844 28.7891C126.568 28.9245 126.331 29.1276 126.133 29.3984C125.935 29.6693 125.781 30 125.672 30.3906C125.562 30.7812 125.508 31.2318 125.508 31.7422V32.0703C125.508 32.4714 125.562 32.849 125.672 33.2031C125.786 33.5521 125.951 33.8594 126.164 34.125C126.383 34.3906 126.646 34.599 126.953 34.75C127.266 34.901 127.62 34.9766 128.016 34.9766C128.526 34.9766 128.958 34.8724 129.312 34.6641C129.667 34.4557 129.977 34.1771 130.242 33.8281L131.117 34.5234C130.935 34.7995 130.703 35.0625 130.422 35.3125C130.141 35.5625 129.794 35.7656 129.383 35.9219C128.977 36.0781 128.495 36.1562 127.938 36.1562ZM136.422 36.1562C135.833 36.1562 135.299 36.0573 134.82 35.8594C134.346 35.6562 133.938 35.3724 133.594 35.0078C133.255 34.6432 132.995 34.2109 132.812 33.7109C132.63 33.2109 132.539 32.6641 132.539 32.0703V31.7422C132.539 31.0547 132.641 30.4427 132.844 29.9062C133.047 29.3646 133.323 28.9062 133.672 28.5312C134.021 28.1562 134.417 27.8724 134.859 27.6797C135.302 27.487 135.76 27.3906 136.234 27.3906C136.839 27.3906 137.359 27.4948 137.797 27.7031C138.24 27.9115 138.602 28.2031 138.883 28.5781C139.164 28.9479 139.372 29.3854 139.508 29.8906C139.643 30.3906 139.711 30.9375 139.711 31.5312V32.1797H133.398V31H138.266V30.8906C138.245 30.5156 138.167 30.151 138.031 29.7969C137.901 29.4427 137.693 29.151 137.406 28.9219C137.12 28.6927 136.729 28.5781 136.234 28.5781C135.906 28.5781 135.604 28.6484 135.328 28.7891C135.052 28.9245 134.815 29.1276 134.617 29.3984C134.419 29.6693 134.266 30 134.156 30.3906C134.047 30.7812 133.992 31.2318 133.992 31.7422V32.0703C133.992 32.4714 134.047 32.849 134.156 33.2031C134.271 33.5521 134.435 33.8594 134.648 34.125C134.867 34.3906 135.13 34.599 135.438 34.75C135.75 34.901 136.104 34.9766 136.5 34.9766C137.01 34.9766 137.443 34.8724 137.797 34.6641C138.151 34.4557 138.461 34.1771 138.727 33.8281L139.602 34.5234C139.419 34.7995 139.188 35.0625 138.906 35.3125C138.625 35.5625 138.279 35.7656 137.867 35.9219C137.461 36.0781 136.979 36.1562 136.422 36.1562ZM146.812 29.1719V39.25H145.359V27.5469H146.688L146.812 29.1719ZM152.508 31.7031V31.8672C152.508 32.4818 152.435 33.0521 152.289 33.5781C152.143 34.099 151.93 34.5521 151.648 34.9375C151.372 35.3229 151.031 35.6224 150.625 35.8359C150.219 36.0495 149.753 36.1562 149.227 36.1562C148.69 36.1562 148.216 36.0677 147.805 35.8906C147.393 35.7135 147.044 35.4557 146.758 35.1172C146.471 34.7786 146.242 34.3724 146.07 33.8984C145.904 33.4245 145.789 32.8906 145.727 32.2969V31.4219C145.789 30.7969 145.906 30.237 146.078 29.7422C146.25 29.2474 146.477 28.8255 146.758 28.4766C147.044 28.1224 147.391 27.8542 147.797 27.6719C148.203 27.4844 148.672 27.3906 149.203 27.3906C149.734 27.3906 150.206 27.4948 150.617 27.7031C151.029 27.9062 151.375 28.1979 151.656 28.5781C151.938 28.9583 152.148 29.4141 152.289 29.9453C152.435 30.4714 152.508 31.0573 152.508 31.7031ZM151.055 31.8672V31.7031C151.055 31.2812 151.01 30.8854 150.922 30.5156C150.833 30.1406 150.695 29.8125 150.508 29.5312C150.326 29.2448 150.091 29.0208 149.805 28.8594C149.518 28.6927 149.177 28.6094 148.781 28.6094C148.417 28.6094 148.099 28.6719 147.828 28.7969C147.562 28.9219 147.336 29.0911 147.148 29.3047C146.961 29.513 146.807 29.7526 146.688 30.0234C146.573 30.2891 146.487 30.5651 146.43 30.8516V32.875C146.534 33.2396 146.68 33.5833 146.867 33.9062C147.055 34.224 147.305 34.4818 147.617 34.6797C147.93 34.8724 148.323 34.9688 148.797 34.9688C149.188 34.9688 149.523 34.888 149.805 34.7266C150.091 34.5599 150.326 34.3333 150.508 34.0469C150.695 33.7604 150.833 33.4323 150.922 33.0625C151.01 32.6875 151.055 32.2891 151.055 31.8672ZM155.797 28.875V36H154.352V27.5469H155.758L155.797 28.875ZM158.438 27.5L158.43 28.8438C158.31 28.8177 158.195 28.8021 158.086 28.7969C157.982 28.7865 157.862 28.7812 157.727 28.7812C157.393 28.7812 157.099 28.8333 156.844 28.9375C156.589 29.0417 156.372 29.1875 156.195 29.375C156.018 29.5625 155.878 29.7865 155.773 30.0469C155.674 30.3021 155.609 30.5833 155.578 30.8906L155.172 31.125C155.172 30.6146 155.221 30.1354 155.32 29.6875C155.424 29.2396 155.583 28.8438 155.797 28.5C156.01 28.151 156.281 27.8802 156.609 27.6875C156.943 27.4896 157.339 27.3906 157.797 27.3906C157.901 27.3906 158.021 27.4036 158.156 27.4297C158.292 27.4505 158.385 27.474 158.438 27.5ZM159.234 31.8672V31.6875C159.234 31.0781 159.323 30.513 159.5 29.9922C159.677 29.4661 159.932 29.0104 160.266 28.625C160.599 28.2344 161.003 27.9323 161.477 27.7188C161.951 27.5 162.482 27.3906 163.07 27.3906C163.664 27.3906 164.198 27.5 164.672 27.7188C165.151 27.9323 165.557 28.2344 165.891 28.625C166.229 29.0104 166.487 29.4661 166.664 29.9922C166.841 30.513 166.93 31.0781 166.93 31.6875V31.8672C166.93 32.4766 166.841 33.0417 166.664 33.5625C166.487 34.0833 166.229 34.5391 165.891 34.9297C165.557 35.3151 165.154 35.6172 164.68 35.8359C164.211 36.0495 163.68 36.1562 163.086 36.1562C162.492 36.1562 161.958 36.0495 161.484 35.8359C161.01 35.6172 160.604 35.3151 160.266 34.9297C159.932 34.5391 159.677 34.0833 159.5 33.5625C159.323 33.0417 159.234 32.4766 159.234 31.8672ZM160.68 31.6875V31.8672C160.68 32.2891 160.729 32.6875 160.828 33.0625C160.927 33.4323 161.076 33.7604 161.273 34.0469C161.477 34.3333 161.729 34.5599 162.031 34.7266C162.333 34.888 162.685 34.9688 163.086 34.9688C163.482 34.9688 163.828 34.888 164.125 34.7266C164.427 34.5599 164.677 34.3333 164.875 34.0469C165.073 33.7604 165.221 33.4323 165.32 33.0625C165.424 32.6875 165.477 32.2891 165.477 31.8672V31.6875C165.477 31.2708 165.424 30.8776 165.32 30.5078C165.221 30.1328 165.07 29.8021 164.867 29.5156C164.669 29.224 164.419 28.9948 164.117 28.8281C163.82 28.6615 163.471 28.5781 163.07 28.5781C162.674 28.5781 162.326 28.6615 162.023 28.8281C161.727 28.9948 161.477 29.224 161.273 29.5156C161.076 29.8021 160.927 30.1328 160.828 30.5078C160.729 30.8776 160.68 31.2708 160.68 31.6875ZM174.07 34.3594V24H175.523V36H174.195L174.07 34.3594ZM168.383 31.8672V31.7031C168.383 31.0573 168.461 30.4714 168.617 29.9453C168.779 29.4141 169.005 28.9583 169.297 28.5781C169.594 28.1979 169.945 27.9062 170.352 27.7031C170.763 27.4948 171.221 27.3906 171.727 27.3906C172.258 27.3906 172.721 27.4844 173.117 27.6719C173.518 27.8542 173.857 28.1224 174.133 28.4766C174.414 28.8255 174.635 29.2474 174.797 29.7422C174.958 30.237 175.07 30.7969 175.133 31.4219V32.1406C175.076 32.7604 174.964 33.3177 174.797 33.8125C174.635 34.3073 174.414 34.7292 174.133 35.0781C173.857 35.4271 173.518 35.6953 173.117 35.8828C172.716 36.0651 172.247 36.1562 171.711 36.1562C171.216 36.1562 170.763 36.0495 170.352 35.8359C169.945 35.6224 169.594 35.3229 169.297 34.9375C169.005 34.5521 168.779 34.099 168.617 33.5781C168.461 33.0521 168.383 32.4818 168.383 31.8672ZM169.836 31.7031V31.8672C169.836 32.2891 169.878 32.6849 169.961 33.0547C170.049 33.4245 170.185 33.75 170.367 34.0312C170.549 34.3125 170.781 34.5339 171.062 34.6953C171.344 34.8516 171.68 34.9297 172.07 34.9297C172.549 34.9297 172.943 34.8281 173.25 34.625C173.562 34.4219 173.812 34.1536 174 33.8203C174.188 33.487 174.333 33.125 174.438 32.7344V30.8516C174.375 30.5651 174.284 30.2891 174.164 30.0234C174.049 29.7526 173.898 29.513 173.711 29.3047C173.529 29.0911 173.302 28.9219 173.031 28.7969C172.766 28.6719 172.451 28.6094 172.086 28.6094C171.69 28.6094 171.349 28.6927 171.062 28.8594C170.781 29.0208 170.549 29.2448 170.367 29.5312C170.185 29.8125 170.049 30.1406 169.961 30.5156C169.878 30.8854 169.836 31.2812 169.836 31.7031ZM182.945 34.0469V27.5469H184.398V36H183.016L182.945 34.0469ZM183.219 32.2656L183.82 32.25C183.82 32.8125 183.76 33.3333 183.641 33.8125C183.526 34.2865 183.339 34.6979 183.078 35.0469C182.818 35.3958 182.477 35.6693 182.055 35.8672C181.633 36.0599 181.12 36.1562 180.516 36.1562C180.104 36.1562 179.727 36.0964 179.383 35.9766C179.044 35.8568 178.753 35.6719 178.508 35.4219C178.263 35.1719 178.073 34.8464 177.938 34.4453C177.807 34.0443 177.742 33.5625 177.742 33V27.5469H179.188V33.0156C179.188 33.3958 179.229 33.7109 179.312 33.9609C179.401 34.2057 179.518 34.401 179.664 34.5469C179.815 34.6875 179.982 34.7865 180.164 34.8438C180.352 34.901 180.544 34.9297 180.742 34.9297C181.357 34.9297 181.844 34.8125 182.203 34.5781C182.562 34.3385 182.82 34.0182 182.977 33.6172C183.138 33.2109 183.219 32.7604 183.219 32.2656ZM189.984 34.9688C190.328 34.9688 190.646 34.8984 190.938 34.7578C191.229 34.6172 191.469 34.4245 191.656 34.1797C191.844 33.9297 191.951 33.6458 191.977 33.3281H193.352C193.326 33.8281 193.156 34.2943 192.844 34.7266C192.536 35.1536 192.133 35.5 191.633 35.7656C191.133 36.026 190.583 36.1562 189.984 36.1562C189.349 36.1562 188.794 36.0443 188.32 35.8203C187.852 35.5964 187.461 35.2891 187.148 34.8984C186.841 34.5078 186.609 34.0599 186.453 33.5547C186.302 33.0443 186.227 32.5052 186.227 31.9375V31.6094C186.227 31.0417 186.302 30.5052 186.453 30C186.609 29.4896 186.841 29.0391 187.148 28.6484C187.461 28.2578 187.852 27.9505 188.32 27.7266C188.794 27.5026 189.349 27.3906 189.984 27.3906C190.646 27.3906 191.224 27.526 191.719 27.7969C192.214 28.0625 192.602 28.4271 192.883 28.8906C193.169 29.349 193.326 29.8698 193.352 30.4531H191.977C191.951 30.1042 191.852 29.7891 191.68 29.5078C191.513 29.2266 191.284 29.0026 190.992 28.8359C190.706 28.6641 190.37 28.5781 189.984 28.5781C189.542 28.5781 189.169 28.6667 188.867 28.8438C188.57 29.0156 188.333 29.25 188.156 29.5469C187.984 29.8385 187.859 30.1641 187.781 30.5234C187.708 30.8776 187.672 31.2396 187.672 31.6094V31.9375C187.672 32.3073 187.708 32.6719 187.781 33.0312C187.854 33.3906 187.977 33.7161 188.148 34.0078C188.326 34.2995 188.562 34.5339 188.859 34.7109C189.161 34.8828 189.536 34.9688 189.984 34.9688ZM198.516 27.5469V28.6562H193.945V27.5469H198.516ZM195.492 25.4922H196.938V33.9062C196.938 34.1927 196.982 34.4089 197.07 34.5547C197.159 34.7005 197.273 34.7969 197.414 34.8438C197.555 34.8906 197.706 34.9141 197.867 34.9141C197.987 34.9141 198.112 34.9036 198.242 34.8828C198.378 34.8568 198.479 34.8359 198.547 34.8203L198.555 36C198.44 36.0365 198.289 36.0703 198.102 36.1016C197.919 36.138 197.698 36.1562 197.438 36.1562C197.083 36.1562 196.758 36.0859 196.461 35.9453C196.164 35.8047 195.927 35.5703 195.75 35.2422C195.578 34.9089 195.492 34.4609 195.492 33.8984V25.4922ZM201.781 27.5469V36H200.328V27.5469H201.781ZM200.219 25.3047C200.219 25.0703 200.289 24.8724 200.43 24.7109C200.576 24.5495 200.789 24.4688 201.07 24.4688C201.346 24.4688 201.557 24.5495 201.703 24.7109C201.854 24.8724 201.93 25.0703 201.93 25.3047C201.93 25.5286 201.854 25.7214 201.703 25.8828C201.557 26.0391 201.346 26.1172 201.07 26.1172C200.789 26.1172 200.576 26.0391 200.43 25.8828C200.289 25.7214 200.219 25.5286 200.219 25.3047ZM203.719 31.8672V31.6875C203.719 31.0781 203.807 30.513 203.984 29.9922C204.161 29.4661 204.417 29.0104 204.75 28.625C205.083 28.2344 205.487 27.9323 205.961 27.7188C206.435 27.5 206.966 27.3906 207.555 27.3906C208.148 27.3906 208.682 27.5 209.156 27.7188C209.635 27.9323 210.042 28.2344 210.375 28.625C210.714 29.0104 210.971 29.4661 211.148 29.9922C211.326 30.513 211.414 31.0781 211.414 31.6875V31.8672C211.414 32.4766 211.326 33.0417 211.148 33.5625C210.971 34.0833 210.714 34.5391 210.375 34.9297C210.042 35.3151 209.638 35.6172 209.164 35.8359C208.695 36.0495 208.164 36.1562 207.57 36.1562C206.977 36.1562 206.443 36.0495 205.969 35.8359C205.495 35.6172 205.089 35.3151 204.75 34.9297C204.417 34.5391 204.161 34.0833 203.984 33.5625C203.807 33.0417 203.719 32.4766 203.719 31.8672ZM205.164 31.6875V31.8672C205.164 32.2891 205.214 32.6875 205.312 33.0625C205.411 33.4323 205.56 33.7604 205.758 34.0469C205.961 34.3333 206.214 34.5599 206.516 34.7266C206.818 34.888 207.169 34.9688 207.57 34.9688C207.966 34.9688 208.312 34.888 208.609 34.7266C208.911 34.5599 209.161 34.3333 209.359 34.0469C209.557 33.7604 209.706 33.4323 209.805 33.0625C209.909 32.6875 209.961 32.2891 209.961 31.8672V31.6875C209.961 31.2708 209.909 30.8776 209.805 30.5078C209.706 30.1328 209.555 29.8021 209.352 29.5156C209.154 29.224 208.904 28.9948 208.602 28.8281C208.305 28.6615 207.956 28.5781 207.555 28.5781C207.159 28.5781 206.81 28.6615 206.508 28.8281C206.211 28.9948 205.961 29.224 205.758 29.5156C205.56 29.8021 205.411 30.1328 205.312 30.5078C205.214 30.8776 205.164 31.2708 205.164 31.6875ZM214.672 29.3516V36H213.227V27.5469H214.594L214.672 29.3516ZM214.328 31.4531L213.727 31.4297C213.732 30.8516 213.818 30.3177 213.984 29.8281C214.151 29.3333 214.385 28.9036 214.688 28.5391C214.99 28.1745 215.349 27.8932 215.766 27.6953C216.188 27.4922 216.654 27.3906 217.164 27.3906C217.581 27.3906 217.956 27.4479 218.289 27.5625C218.622 27.6719 218.906 27.849 219.141 28.0938C219.38 28.3385 219.562 28.6562 219.688 29.0469C219.812 29.4323 219.875 29.9036 219.875 30.4609V36H218.422V30.4453C218.422 30.0026 218.357 29.6484 218.227 29.3828C218.096 29.112 217.906 28.9167 217.656 28.7969C217.406 28.6719 217.099 28.6094 216.734 28.6094C216.375 28.6094 216.047 28.6849 215.75 28.8359C215.458 28.987 215.206 29.1953 214.992 29.4609C214.784 29.7266 214.62 30.0312 214.5 30.375C214.385 30.7135 214.328 31.0729 214.328 31.4531ZM225.078 30.5703V31.7578H221.266V30.5703H225.078ZM231.969 27.5469H233.281V35.8203C233.281 36.5651 233.13 37.2005 232.828 37.7266C232.526 38.2526 232.104 38.651 231.562 38.9219C231.026 39.1979 230.406 39.3359 229.703 39.3359C229.411 39.3359 229.068 39.2891 228.672 39.1953C228.281 39.1068 227.896 38.9531 227.516 38.7344C227.141 38.5208 226.826 38.2318 226.57 37.8672L227.328 37.0078C227.682 37.4349 228.052 37.7318 228.438 37.8984C228.828 38.0651 229.214 38.1484 229.594 38.1484C230.052 38.1484 230.448 38.0625 230.781 37.8906C231.115 37.7188 231.372 37.4635 231.555 37.125C231.742 36.7917 231.836 36.3802 231.836 35.8906V29.4062L231.969 27.5469ZM226.148 31.8672V31.7031C226.148 31.0573 226.224 30.4714 226.375 29.9453C226.531 29.4141 226.753 28.9583 227.039 28.5781C227.331 28.1979 227.682 27.9062 228.094 27.7031C228.505 27.4948 228.969 27.3906 229.484 27.3906C230.016 27.3906 230.479 27.4844 230.875 27.6719C231.276 27.8542 231.615 28.1224 231.891 28.4766C232.172 28.8255 232.393 29.2474 232.555 29.7422C232.716 30.237 232.828 30.7969 232.891 31.4219V32.1406C232.833 32.7604 232.721 33.3177 232.555 33.8125C232.393 34.3073 232.172 34.7292 231.891 35.0781C231.615 35.4271 231.276 35.6953 230.875 35.8828C230.474 36.0651 230.005 36.1562 229.469 36.1562C228.964 36.1562 228.505 36.0495 228.094 35.8359C227.688 35.6224 227.339 35.3229 227.047 34.9375C226.755 34.5521 226.531 34.099 226.375 33.5781C226.224 33.0521 226.148 32.4818 226.148 31.8672ZM227.594 31.7031V31.8672C227.594 32.2891 227.635 32.6849 227.719 33.0547C227.807 33.4245 227.94 33.75 228.117 34.0312C228.299 34.3125 228.531 34.5339 228.812 34.6953C229.094 34.8516 229.43 34.9297 229.82 34.9297C230.299 34.9297 230.695 34.8281 231.008 34.625C231.32 34.4219 231.568 34.1536 231.75 33.8203C231.938 33.487 232.083 33.125 232.188 32.7344V30.8516C232.13 30.5651 232.042 30.2891 231.922 30.0234C231.807 29.7526 231.656 29.513 231.469 29.3047C231.286 29.0911 231.06 28.9219 230.789 28.7969C230.518 28.6719 230.201 28.6094 229.836 28.6094C229.44 28.6094 229.099 28.6927 228.812 28.8594C228.531 29.0208 228.299 29.2448 228.117 29.5312C227.94 29.8125 227.807 30.1406 227.719 30.5156C227.635 30.8854 227.594 31.2812 227.594 31.7031ZM236.922 28.875V36H235.477V27.5469H236.883L236.922 28.875ZM239.562 27.5L239.555 28.8438C239.435 28.8177 239.32 28.8021 239.211 28.7969C239.107 28.7865 238.987 28.7812 238.852 28.7812C238.518 28.7812 238.224 28.8333 237.969 28.9375C237.714 29.0417 237.497 29.1875 237.32 29.375C237.143 29.5625 237.003 29.7865 236.898 30.0469C236.799 30.3021 236.734 30.5833 236.703 30.8906L236.297 31.125C236.297 30.6146 236.346 30.1354 236.445 29.6875C236.549 29.2396 236.708 28.8438 236.922 28.5C237.135 28.151 237.406 27.8802 237.734 27.6875C238.068 27.4896 238.464 27.3906 238.922 27.3906C239.026 27.3906 239.146 27.4036 239.281 27.4297C239.417 27.4505 239.51 27.474 239.562 27.5ZM245.57 34.5547V30.2031C245.57 29.8698 245.503 29.5807 245.367 29.3359C245.237 29.0859 245.039 28.8932 244.773 28.7578C244.508 28.6224 244.18 28.5547 243.789 28.5547C243.424 28.5547 243.104 28.6172 242.828 28.7422C242.557 28.8672 242.344 29.0312 242.188 29.2344C242.036 29.4375 241.961 29.6562 241.961 29.8906H240.516C240.516 29.5885 240.594 29.2891 240.75 28.9922C240.906 28.6953 241.13 28.4271 241.422 28.1875C241.719 27.9427 242.073 27.75 242.484 27.6094C242.901 27.4635 243.365 27.3906 243.875 27.3906C244.49 27.3906 245.031 27.4948 245.5 27.7031C245.974 27.9115 246.344 28.2266 246.609 28.6484C246.88 29.0651 247.016 29.5885 247.016 30.2188V34.1562C247.016 34.4375 247.039 34.737 247.086 35.0547C247.138 35.3724 247.214 35.6458 247.312 35.875V36H245.805C245.732 35.8333 245.674 35.612 245.633 35.3359C245.591 35.0547 245.57 34.7943 245.57 34.5547ZM245.82 30.875L245.836 31.8906H244.375C243.964 31.8906 243.596 31.9245 243.273 31.9922C242.951 32.0547 242.68 32.151 242.461 32.2812C242.242 32.4115 242.076 32.5755 241.961 32.7734C241.846 32.9661 241.789 33.1927 241.789 33.4531C241.789 33.7188 241.849 33.9609 241.969 34.1797C242.089 34.3984 242.268 34.5729 242.508 34.7031C242.753 34.8281 243.052 34.8906 243.406 34.8906C243.849 34.8906 244.24 34.7969 244.578 34.6094C244.917 34.4219 245.185 34.1927 245.383 33.9219C245.586 33.651 245.695 33.388 245.711 33.1328L246.328 33.8281C246.292 34.0469 246.193 34.2891 246.031 34.5547C245.87 34.8203 245.654 35.0755 245.383 35.3203C245.117 35.5599 244.799 35.7604 244.43 35.9219C244.065 36.0781 243.654 36.1562 243.195 36.1562C242.622 36.1562 242.12 36.0443 241.688 35.8203C241.26 35.5964 240.927 35.2969 240.688 34.9219C240.453 34.5417 240.336 34.1172 240.336 33.6484C240.336 33.1953 240.424 32.7969 240.602 32.4531C240.779 32.1042 241.034 31.8151 241.367 31.5859C241.701 31.3516 242.102 31.1745 242.57 31.0547C243.039 30.9349 243.562 30.875 244.141 30.875H245.82ZM254.617 34.3594V24H256.07V36H254.742L254.617 34.3594ZM248.93 31.8672V31.7031C248.93 31.0573 249.008 30.4714 249.164 29.9453C249.326 29.4141 249.552 28.9583 249.844 28.5781C250.141 28.1979 250.492 27.9062 250.898 27.7031C251.31 27.4948 251.768 27.3906 252.273 27.3906C252.805 27.3906 253.268 27.4844 253.664 27.6719C254.065 27.8542 254.404 28.1224 254.68 28.4766C254.961 28.8255 255.182 29.2474 255.344 29.7422C255.505 30.237 255.617 30.7969 255.68 31.4219V32.1406C255.622 32.7604 255.51 33.3177 255.344 33.8125C255.182 34.3073 254.961 34.7292 254.68 35.0781C254.404 35.4271 254.065 35.6953 253.664 35.8828C253.263 36.0651 252.794 36.1562 252.258 36.1562C251.763 36.1562 251.31 36.0495 250.898 35.8359C250.492 35.6224 250.141 35.3229 249.844 34.9375C249.552 34.5521 249.326 34.099 249.164 33.5781C249.008 33.0521 248.93 32.4818 248.93 31.8672ZM250.383 31.7031V31.8672C250.383 32.2891 250.424 32.6849 250.508 33.0547C250.596 33.4245 250.732 33.75 250.914 34.0312C251.096 34.3125 251.328 34.5339 251.609 34.6953C251.891 34.8516 252.227 34.9297 252.617 34.9297C253.096 34.9297 253.49 34.8281 253.797 34.625C254.109 34.4219 254.359 34.1536 254.547 33.8203C254.734 33.487 254.88 33.125 254.984 32.7344V30.8516C254.922 30.5651 254.831 30.2891 254.711 30.0234C254.596 29.7526 254.445 29.513 254.258 29.3047C254.076 29.0911 253.849 28.9219 253.578 28.7969C253.312 28.6719 252.997 28.6094 252.633 28.6094C252.237 28.6094 251.896 28.6927 251.609 28.8594C251.328 29.0208 251.096 29.2448 250.914 29.5312C250.732 29.8125 250.596 30.1406 250.508 30.5156C250.424 30.8854 250.383 31.2812 250.383 31.7031ZM261.828 36.1562C261.24 36.1562 260.706 36.0573 260.227 35.8594C259.753 35.6562 259.344 35.3724 259 35.0078C258.661 34.6432 258.401 34.2109 258.219 33.7109C258.036 33.2109 257.945 32.6641 257.945 32.0703V31.7422C257.945 31.0547 258.047 30.4427 258.25 29.9062C258.453 29.3646 258.729 28.9062 259.078 28.5312C259.427 28.1562 259.823 27.8724 260.266 27.6797C260.708 27.487 261.167 27.3906 261.641 27.3906C262.245 27.3906 262.766 27.4948 263.203 27.7031C263.646 27.9115 264.008 28.2031 264.289 28.5781C264.57 28.9479 264.779 29.3854 264.914 29.8906C265.049 30.3906 265.117 30.9375 265.117 31.5312V32.1797H258.805V31H263.672V30.8906C263.651 30.5156 263.573 30.151 263.438 29.7969C263.307 29.4427 263.099 29.151 262.812 28.9219C262.526 28.6927 262.135 28.5781 261.641 28.5781C261.312 28.5781 261.01 28.6484 260.734 28.7891C260.458 28.9245 260.221 29.1276 260.023 29.3984C259.826 29.6693 259.672 30 259.562 30.3906C259.453 30.7812 259.398 31.2318 259.398 31.7422V32.0703C259.398 32.4714 259.453 32.849 259.562 33.2031C259.677 33.5521 259.841 33.8594 260.055 34.125C260.273 34.3906 260.536 34.599 260.844 34.75C261.156 34.901 261.51 34.9766 261.906 34.9766C262.417 34.9766 262.849 34.8724 263.203 34.6641C263.557 34.4557 263.867 34.1771 264.133 33.8281L265.008 34.5234C264.826 34.7995 264.594 35.0625 264.312 35.3125C264.031 35.5625 263.685 35.7656 263.273 35.9219C262.867 36.0781 262.385 36.1562 261.828 36.1562ZM272.219 28.875V36H270.773V27.5469H272.18L272.219 28.875ZM274.859 27.5L274.852 28.8438C274.732 28.8177 274.617 28.8021 274.508 28.7969C274.404 28.7865 274.284 28.7812 274.148 28.7812C273.815 28.7812 273.521 28.8333 273.266 28.9375C273.01 29.0417 272.794 29.1875 272.617 29.375C272.44 29.5625 272.299 29.7865 272.195 30.0469C272.096 30.3021 272.031 30.5833 272 30.8906L271.594 31.125C271.594 30.6146 271.643 30.1354 271.742 29.6875C271.846 29.2396 272.005 28.8438 272.219 28.5C272.432 28.151 272.703 27.8802 273.031 27.6875C273.365 27.4896 273.76 27.3906 274.219 27.3906C274.323 27.3906 274.443 27.4036 274.578 27.4297C274.714 27.4505 274.807 27.474 274.859 27.5ZM279.547 36.1562C278.958 36.1562 278.424 36.0573 277.945 35.8594C277.471 35.6562 277.062 35.3724 276.719 35.0078C276.38 34.6432 276.12 34.2109 275.938 33.7109C275.755 33.2109 275.664 32.6641 275.664 32.0703V31.7422C275.664 31.0547 275.766 30.4427 275.969 29.9062C276.172 29.3646 276.448 28.9062 276.797 28.5312C277.146 28.1562 277.542 27.8724 277.984 27.6797C278.427 27.487 278.885 27.3906 279.359 27.3906C279.964 27.3906 280.484 27.4948 280.922 27.7031C281.365 27.9115 281.727 28.2031 282.008 28.5781C282.289 28.9479 282.497 29.3854 282.633 29.8906C282.768 30.3906 282.836 30.9375 282.836 31.5312V32.1797H276.523V31H281.391V30.8906C281.37 30.5156 281.292 30.151 281.156 29.7969C281.026 29.4427 280.818 29.151 280.531 28.9219C280.245 28.6927 279.854 28.5781 279.359 28.5781C279.031 28.5781 278.729 28.6484 278.453 28.7891C278.177 28.9245 277.94 29.1276 277.742 29.3984C277.544 29.6693 277.391 30 277.281 30.3906C277.172 30.7812 277.117 31.2318 277.117 31.7422V32.0703C277.117 32.4714 277.172 32.849 277.281 33.2031C277.396 33.5521 277.56 33.8594 277.773 34.125C277.992 34.3906 278.255 34.599 278.562 34.75C278.875 34.901 279.229 34.9766 279.625 34.9766C280.135 34.9766 280.568 34.8724 280.922 34.6641C281.276 34.4557 281.586 34.1771 281.852 33.8281L282.727 34.5234C282.544 34.7995 282.312 35.0625 282.031 35.3125C281.75 35.5625 281.404 35.7656 280.992 35.9219C280.586 36.0781 280.104 36.1562 279.547 36.1562ZM286.094 24V36H284.641V24H286.094ZM289.984 27.5469V36H288.531V27.5469H289.984ZM288.422 25.3047C288.422 25.0703 288.492 24.8724 288.633 24.7109C288.779 24.5495 288.992 24.4688 289.273 24.4688C289.549 24.4688 289.76 24.5495 289.906 24.7109C290.057 24.8724 290.133 25.0703 290.133 25.3047C290.133 25.5286 290.057 25.7214 289.906 25.8828C289.76 26.0391 289.549 26.1172 289.273 26.1172C288.992 26.1172 288.779 26.0391 288.633 25.8828C288.492 25.7214 288.422 25.5286 288.422 25.3047ZM297.289 34.5547V30.2031C297.289 29.8698 297.221 29.5807 297.086 29.3359C296.956 29.0859 296.758 28.8932 296.492 28.7578C296.227 28.6224 295.898 28.5547 295.508 28.5547C295.143 28.5547 294.823 28.6172 294.547 28.7422C294.276 28.8672 294.062 29.0312 293.906 29.2344C293.755 29.4375 293.68 29.6562 293.68 29.8906H292.234C292.234 29.5885 292.312 29.2891 292.469 28.9922C292.625 28.6953 292.849 28.4271 293.141 28.1875C293.438 27.9427 293.792 27.75 294.203 27.6094C294.62 27.4635 295.083 27.3906 295.594 27.3906C296.208 27.3906 296.75 27.4948 297.219 27.7031C297.693 27.9115 298.062 28.2266 298.328 28.6484C298.599 29.0651 298.734 29.5885 298.734 30.2188V34.1562C298.734 34.4375 298.758 34.737 298.805 35.0547C298.857 35.3724 298.932 35.6458 299.031 35.875V36H297.523C297.451 35.8333 297.393 35.612 297.352 35.3359C297.31 35.0547 297.289 34.7943 297.289 34.5547ZM297.539 30.875L297.555 31.8906H296.094C295.682 31.8906 295.315 31.9245 294.992 31.9922C294.669 32.0547 294.398 32.151 294.18 32.2812C293.961 32.4115 293.794 32.5755 293.68 32.7734C293.565 32.9661 293.508 33.1927 293.508 33.4531C293.508 33.7188 293.568 33.9609 293.688 34.1797C293.807 34.3984 293.987 34.5729 294.227 34.7031C294.471 34.8281 294.771 34.8906 295.125 34.8906C295.568 34.8906 295.958 34.7969 296.297 34.6094C296.635 34.4219 296.904 34.1927 297.102 33.9219C297.305 33.651 297.414 33.388 297.43 33.1328L298.047 33.8281C298.01 34.0469 297.911 34.2891 297.75 34.5547C297.589 34.8203 297.372 35.0755 297.102 35.3203C296.836 35.5599 296.518 35.7604 296.148 35.9219C295.784 36.0781 295.372 36.1562 294.914 36.1562C294.341 36.1562 293.839 36.0443 293.406 35.8203C292.979 35.5964 292.646 35.2969 292.406 34.9219C292.172 34.5417 292.055 34.1172 292.055 33.6484C292.055 33.1953 292.143 32.7969 292.32 32.4531C292.497 32.1042 292.753 31.8151 293.086 31.5859C293.419 31.3516 293.82 31.1745 294.289 31.0547C294.758 30.9349 295.281 30.875 295.859 30.875H297.539ZM301 24H302.453V34.3594L302.328 36H301V24ZM308.164 31.7031V31.8672C308.164 32.4818 308.091 33.0521 307.945 33.5781C307.799 34.099 307.586 34.5521 307.305 34.9375C307.023 35.3229 306.68 35.6224 306.273 35.8359C305.867 36.0495 305.401 36.1562 304.875 36.1562C304.339 36.1562 303.867 36.0651 303.461 35.8828C303.06 35.6953 302.721 35.4271 302.445 35.0781C302.169 34.7292 301.948 34.3073 301.781 33.8125C301.62 33.3177 301.508 32.7604 301.445 32.1406V31.4219C301.508 30.7969 301.62 30.237 301.781 29.7422C301.948 29.2474 302.169 28.8255 302.445 28.4766C302.721 28.1224 303.06 27.8542 303.461 27.6719C303.862 27.4844 304.328 27.3906 304.859 27.3906C305.391 27.3906 305.862 27.4948 306.273 27.7031C306.685 27.9062 307.029 28.1979 307.305 28.5781C307.586 28.9583 307.799 29.4141 307.945 29.9453C308.091 30.4714 308.164 31.0573 308.164 31.7031ZM306.711 31.8672V31.7031C306.711 31.2812 306.672 30.8854 306.594 30.5156C306.516 30.1406 306.391 29.8125 306.219 29.5312C306.047 29.2448 305.82 29.0208 305.539 28.8594C305.258 28.6927 304.911 28.6094 304.5 28.6094C304.135 28.6094 303.818 28.6719 303.547 28.7969C303.281 28.9219 303.055 29.0911 302.867 29.3047C302.68 29.513 302.526 29.7526 302.406 30.0234C302.292 30.2891 302.206 30.5651 302.148 30.8516V32.7344C302.232 33.099 302.367 33.4505 302.555 33.7891C302.747 34.1224 303.003 34.3958 303.32 34.6094C303.643 34.8229 304.042 34.9297 304.516 34.9297C304.906 34.9297 305.24 34.8516 305.516 34.6953C305.797 34.5339 306.023 34.3125 306.195 34.0312C306.372 33.75 306.503 33.4245 306.586 33.0547C306.669 32.6849 306.711 32.2891 306.711 31.8672ZM311.562 27.5469V36H310.109V27.5469H311.562ZM310 25.3047C310 25.0703 310.07 24.8724 310.211 24.7109C310.357 24.5495 310.57 24.4688 310.852 24.4688C311.128 24.4688 311.339 24.5495 311.484 24.7109C311.635 24.8724 311.711 25.0703 311.711 25.3047C311.711 25.5286 311.635 25.7214 311.484 25.8828C311.339 26.0391 311.128 26.1172 310.852 26.1172C310.57 26.1172 310.357 26.0391 310.211 25.8828C310.07 25.7214 310 25.5286 310 25.3047ZM315.453 24V36H314V24H315.453ZM319.344 27.5469V36H317.891V27.5469H319.344ZM317.781 25.3047C317.781 25.0703 317.852 24.8724 317.992 24.7109C318.138 24.5495 318.352 24.4688 318.633 24.4688C318.909 24.4688 319.12 24.5495 319.266 24.7109C319.417 24.8724 319.492 25.0703 319.492 25.3047C319.492 25.5286 319.417 25.7214 319.266 25.8828C319.12 26.0391 318.909 26.1172 318.633 26.1172C318.352 26.1172 318.138 26.0391 317.992 25.8828C317.852 25.7214 317.781 25.5286 317.781 25.3047ZM325.203 27.5469V28.6562H320.633V27.5469H325.203ZM322.18 25.4922H323.625V33.9062C323.625 34.1927 323.669 34.4089 323.758 34.5547C323.846 34.7005 323.961 34.7969 324.102 34.8438C324.242 34.8906 324.393 34.9141 324.555 34.9141C324.674 34.9141 324.799 34.9036 324.93 34.8828C325.065 34.8568 325.167 34.8359 325.234 34.8203L325.242 36C325.128 36.0365 324.977 36.0703 324.789 36.1016C324.607 36.138 324.385 36.1562 324.125 36.1562C323.771 36.1562 323.445 36.0859 323.148 35.9453C322.852 35.8047 322.615 35.5703 322.438 35.2422C322.266 34.9089 322.18 34.4609 322.18 33.8984V25.4922ZM329.273 35.125L331.625 27.5469H333.172L329.781 37.3047C329.703 37.513 329.599 37.737 329.469 37.9766C329.344 38.2214 329.182 38.4531 328.984 38.6719C328.786 38.8906 328.547 39.0677 328.266 39.2031C327.99 39.3438 327.659 39.4141 327.273 39.4141C327.159 39.4141 327.013 39.3984 326.836 39.3672C326.659 39.3359 326.534 39.3099 326.461 39.2891L326.453 38.1172C326.495 38.1224 326.56 38.1276 326.648 38.1328C326.742 38.1432 326.807 38.1484 326.844 38.1484C327.172 38.1484 327.451 38.1042 327.68 38.0156C327.909 37.9323 328.102 37.7891 328.258 37.5859C328.419 37.388 328.557 37.1146 328.672 36.7656L329.273 35.125ZM327.547 27.5469L329.742 34.1094L330.117 35.6328L329.078 36.1641L325.969 27.5469H327.547ZM334.945 34.2812V35.4453C334.945 35.9193 334.826 36.4193 334.586 36.9453C334.346 37.4766 334.01 37.9193 333.578 38.2734L332.758 37.7031C332.924 37.474 333.065 37.2396 333.18 37C333.294 36.7656 333.38 36.5208 333.438 36.2656C333.5 36.0156 333.531 35.75 333.531 35.4688V34.2812H334.945ZM346.234 27.5469H347.547V35.8203C347.547 36.5651 347.396 37.2005 347.094 37.7266C346.792 38.2526 346.37 38.651 345.828 38.9219C345.292 39.1979 344.672 39.3359 343.969 39.3359C343.677 39.3359 343.333 39.2891 342.938 39.1953C342.547 39.1068 342.161 38.9531 341.781 38.7344C341.406 38.5208 341.091 38.2318 340.836 37.8672L341.594 37.0078C341.948 37.4349 342.318 37.7318 342.703 37.8984C343.094 38.0651 343.479 38.1484 343.859 38.1484C344.318 38.1484 344.714 38.0625 345.047 37.8906C345.38 37.7188 345.638 37.4635 345.82 37.125C346.008 36.7917 346.102 36.3802 346.102 35.8906V29.4062L346.234 27.5469ZM340.414 31.8672V31.7031C340.414 31.0573 340.49 30.4714 340.641 29.9453C340.797 29.4141 341.018 28.9583 341.305 28.5781C341.596 28.1979 341.948 27.9062 342.359 27.7031C342.771 27.4948 343.234 27.3906 343.75 27.3906C344.281 27.3906 344.745 27.4844 345.141 27.6719C345.542 27.8542 345.88 28.1224 346.156 28.4766C346.438 28.8255 346.659 29.2474 346.82 29.7422C346.982 30.237 347.094 30.7969 347.156 31.4219V32.1406C347.099 32.7604 346.987 33.3177 346.82 33.8125C346.659 34.3073 346.438 34.7292 346.156 35.0781C345.88 35.4271 345.542 35.6953 345.141 35.8828C344.74 36.0651 344.271 36.1562 343.734 36.1562C343.229 36.1562 342.771 36.0495 342.359 35.8359C341.953 35.6224 341.604 35.3229 341.312 34.9375C341.021 34.5521 340.797 34.099 340.641 33.5781C340.49 33.0521 340.414 32.4818 340.414 31.8672ZM341.859 31.7031V31.8672C341.859 32.2891 341.901 32.6849 341.984 33.0547C342.073 33.4245 342.206 33.75 342.383 34.0312C342.565 34.3125 342.797 34.5339 343.078 34.6953C343.359 34.8516 343.695 34.9297 344.086 34.9297C344.565 34.9297 344.961 34.8281 345.273 34.625C345.586 34.4219 345.833 34.1536 346.016 33.8203C346.203 33.487 346.349 33.125 346.453 32.7344V30.8516C346.396 30.5651 346.307 30.2891 346.188 30.0234C346.073 29.7526 345.922 29.513 345.734 29.3047C345.552 29.0911 345.326 28.9219 345.055 28.7969C344.784 28.6719 344.466 28.6094 344.102 28.6094C343.706 28.6094 343.365 28.6927 343.078 28.8594C342.797 29.0208 342.565 29.2448 342.383 29.5312C342.206 29.8125 342.073 30.1406 341.984 30.5156C341.901 30.8854 341.859 31.2812 341.859 31.7031ZM349.359 31.8672V31.6875C349.359 31.0781 349.448 30.513 349.625 29.9922C349.802 29.4661 350.057 29.0104 350.391 28.625C350.724 28.2344 351.128 27.9323 351.602 27.7188C352.076 27.5 352.607 27.3906 353.195 27.3906C353.789 27.3906 354.323 27.5 354.797 27.7188C355.276 27.9323 355.682 28.2344 356.016 28.625C356.354 29.0104 356.612 29.4661 356.789 29.9922C356.966 30.513 357.055 31.0781 357.055 31.6875V31.8672C357.055 32.4766 356.966 33.0417 356.789 33.5625C356.612 34.0833 356.354 34.5391 356.016 34.9297C355.682 35.3151 355.279 35.6172 354.805 35.8359C354.336 36.0495 353.805 36.1562 353.211 36.1562C352.617 36.1562 352.083 36.0495 351.609 35.8359C351.135 35.6172 350.729 35.3151 350.391 34.9297C350.057 34.5391 349.802 34.0833 349.625 33.5625C349.448 33.0417 349.359 32.4766 349.359 31.8672ZM350.805 31.6875V31.8672C350.805 32.2891 350.854 32.6875 350.953 33.0625C351.052 33.4323 351.201 33.7604 351.398 34.0469C351.602 34.3333 351.854 34.5599 352.156 34.7266C352.458 34.888 352.81 34.9688 353.211 34.9688C353.607 34.9688 353.953 34.888 354.25 34.7266C354.552 34.5599 354.802 34.3333 355 34.0469C355.198 33.7604 355.346 33.4323 355.445 33.0625C355.549 32.6875 355.602 32.2891 355.602 31.8672V31.6875C355.602 31.2708 355.549 30.8776 355.445 30.5078C355.346 30.1328 355.195 29.8021 354.992 29.5156C354.794 29.224 354.544 28.9948 354.242 28.8281C353.945 28.6615 353.596 28.5781 353.195 28.5781C352.799 28.5781 352.451 28.6615 352.148 28.8281C351.852 28.9948 351.602 29.224 351.398 29.5156C351.201 29.8021 351.052 30.1328 350.953 30.5078C350.854 30.8776 350.805 31.2708 350.805 31.6875ZM361.312 34.6953L363.625 27.5469H365.102L362.062 36H361.094L361.312 34.6953ZM359.383 27.5469L361.766 34.7344L361.93 36H360.961L357.898 27.5469H359.383ZM369.891 36.1562C369.302 36.1562 368.768 36.0573 368.289 35.8594C367.815 35.6562 367.406 35.3724 367.062 35.0078C366.724 34.6432 366.464 34.2109 366.281 33.7109C366.099 33.2109 366.008 32.6641 366.008 32.0703V31.7422C366.008 31.0547 366.109 30.4427 366.312 29.9062C366.516 29.3646 366.792 28.9062 367.141 28.5312C367.49 28.1562 367.885 27.8724 368.328 27.6797C368.771 27.487 369.229 27.3906 369.703 27.3906C370.307 27.3906 370.828 27.4948 371.266 27.7031C371.708 27.9115 372.07 28.2031 372.352 28.5781C372.633 28.9479 372.841 29.3854 372.977 29.8906C373.112 30.3906 373.18 30.9375 373.18 31.5312V32.1797H366.867V31H371.734V30.8906C371.714 30.5156 371.635 30.151 371.5 29.7969C371.37 29.4427 371.161 29.151 370.875 28.9219C370.589 28.6927 370.198 28.5781 369.703 28.5781C369.375 28.5781 369.073 28.6484 368.797 28.7891C368.521 28.9245 368.284 29.1276 368.086 29.3984C367.888 29.6693 367.734 30 367.625 30.3906C367.516 30.7812 367.461 31.2318 367.461 31.7422V32.0703C367.461 32.4714 367.516 32.849 367.625 33.2031C367.74 33.5521 367.904 33.8594 368.117 34.125C368.336 34.3906 368.599 34.599 368.906 34.75C369.219 34.901 369.573 34.9766 369.969 34.9766C370.479 34.9766 370.911 34.8724 371.266 34.6641C371.62 34.4557 371.93 34.1771 372.195 33.8281L373.07 34.5234C372.888 34.7995 372.656 35.0625 372.375 35.3125C372.094 35.5625 371.747 35.7656 371.336 35.9219C370.93 36.0781 370.448 36.1562 369.891 36.1562ZM376.312 28.875V36H374.867V27.5469H376.273L376.312 28.875ZM378.953 27.5L378.945 28.8438C378.826 28.8177 378.711 28.8021 378.602 28.7969C378.497 28.7865 378.378 28.7812 378.242 28.7812C377.909 28.7812 377.615 28.8333 377.359 28.9375C377.104 29.0417 376.888 29.1875 376.711 29.375C376.534 29.5625 376.393 29.7865 376.289 30.0469C376.19 30.3021 376.125 30.5833 376.094 30.8906L375.688 31.125C375.688 30.6146 375.737 30.1354 375.836 29.6875C375.94 29.2396 376.099 28.8438 376.312 28.5C376.526 28.151 376.797 27.8802 377.125 27.6875C377.458 27.4896 377.854 27.3906 378.312 27.3906C378.417 27.3906 378.536 27.4036 378.672 27.4297C378.807 27.4505 378.901 27.474 378.953 27.5ZM381.734 29.3516V36H380.289V27.5469H381.656L381.734 29.3516ZM381.391 31.4531L380.789 31.4297C380.794 30.8516 380.88 30.3177 381.047 29.8281C381.214 29.3333 381.448 28.9036 381.75 28.5391C382.052 28.1745 382.411 27.8932 382.828 27.6953C383.25 27.4922 383.716 27.3906 384.227 27.3906C384.643 27.3906 385.018 27.4479 385.352 27.5625C385.685 27.6719 385.969 27.849 386.203 28.0938C386.443 28.3385 386.625 28.6562 386.75 29.0469C386.875 29.4323 386.938 29.9036 386.938 30.4609V36H385.484V30.4453C385.484 30.0026 385.419 29.6484 385.289 29.3828C385.159 29.112 384.969 28.9167 384.719 28.7969C384.469 28.6719 384.161 28.6094 383.797 28.6094C383.438 28.6094 383.109 28.6849 382.812 28.8359C382.521 28.987 382.268 29.1953 382.055 29.4609C381.846 29.7266 381.682 30.0312 381.562 30.375C381.448 30.7135 381.391 31.0729 381.391 31.4531ZM394.117 34.5547V30.2031C394.117 29.8698 394.049 29.5807 393.914 29.3359C393.784 29.0859 393.586 28.8932 393.32 28.7578C393.055 28.6224 392.727 28.5547 392.336 28.5547C391.971 28.5547 391.651 28.6172 391.375 28.7422C391.104 28.8672 390.891 29.0312 390.734 29.2344C390.583 29.4375 390.508 29.6562 390.508 29.8906H389.062C389.062 29.5885 389.141 29.2891 389.297 28.9922C389.453 28.6953 389.677 28.4271 389.969 28.1875C390.266 27.9427 390.62 27.75 391.031 27.6094C391.448 27.4635 391.911 27.3906 392.422 27.3906C393.036 27.3906 393.578 27.4948 394.047 27.7031C394.521 27.9115 394.891 28.2266 395.156 28.6484C395.427 29.0651 395.562 29.5885 395.562 30.2188V34.1562C395.562 34.4375 395.586 34.737 395.633 35.0547C395.685 35.3724 395.76 35.6458 395.859 35.875V36H394.352C394.279 35.8333 394.221 35.612 394.18 35.3359C394.138 35.0547 394.117 34.7943 394.117 34.5547ZM394.367 30.875L394.383 31.8906H392.922C392.51 31.8906 392.143 31.9245 391.82 31.9922C391.497 32.0547 391.227 32.151 391.008 32.2812C390.789 32.4115 390.622 32.5755 390.508 32.7734C390.393 32.9661 390.336 33.1927 390.336 33.4531C390.336 33.7188 390.396 33.9609 390.516 34.1797C390.635 34.3984 390.815 34.5729 391.055 34.7031C391.299 34.8281 391.599 34.8906 391.953 34.8906C392.396 34.8906 392.786 34.7969 393.125 34.6094C393.464 34.4219 393.732 34.1927 393.93 33.9219C394.133 33.651 394.242 33.388 394.258 33.1328L394.875 33.8281C394.839 34.0469 394.74 34.2891 394.578 34.5547C394.417 34.8203 394.201 35.0755 393.93 35.3203C393.664 35.5599 393.346 35.7604 392.977 35.9219C392.612 36.0781 392.201 36.1562 391.742 36.1562C391.169 36.1562 390.667 36.0443 390.234 35.8203C389.807 35.5964 389.474 35.2969 389.234 34.9219C389 34.5417 388.883 34.1172 388.883 33.6484C388.883 33.1953 388.971 32.7969 389.148 32.4531C389.326 32.1042 389.581 31.8151 389.914 31.5859C390.247 31.3516 390.648 31.1745 391.117 31.0547C391.586 30.9349 392.109 30.875 392.688 30.875H394.367ZM399.281 29.3516V36H397.836V27.5469H399.203L399.281 29.3516ZM398.938 31.4531L398.336 31.4297C398.341 30.8516 398.427 30.3177 398.594 29.8281C398.76 29.3333 398.995 28.9036 399.297 28.5391C399.599 28.1745 399.958 27.8932 400.375 27.6953C400.797 27.4922 401.263 27.3906 401.773 27.3906C402.19 27.3906 402.565 27.4479 402.898 27.5625C403.232 27.6719 403.516 27.849 403.75 28.0938C403.99 28.3385 404.172 28.6562 404.297 29.0469C404.422 29.4323 404.484 29.9036 404.484 30.4609V36H403.031V30.4453C403.031 30.0026 402.966 29.6484 402.836 29.3828C402.706 29.112 402.516 28.9167 402.266 28.7969C402.016 28.6719 401.708 28.6094 401.344 28.6094C400.984 28.6094 400.656 28.6849 400.359 28.8359C400.068 28.987 399.815 29.1953 399.602 29.4609C399.393 29.7266 399.229 30.0312 399.109 30.375C398.995 30.7135 398.938 31.0729 398.938 31.4531ZM410.062 34.9688C410.406 34.9688 410.724 34.8984 411.016 34.7578C411.307 34.6172 411.547 34.4245 411.734 34.1797C411.922 33.9297 412.029 33.6458 412.055 33.3281H413.43C413.404 33.8281 413.234 34.2943 412.922 34.7266C412.615 35.1536 412.211 35.5 411.711 35.7656C411.211 36.026 410.661 36.1562 410.062 36.1562C409.427 36.1562 408.872 36.0443 408.398 35.8203C407.93 35.5964 407.539 35.2891 407.227 34.8984C406.919 34.5078 406.688 34.0599 406.531 33.5547C406.38 33.0443 406.305 32.5052 406.305 31.9375V31.6094C406.305 31.0417 406.38 30.5052 406.531 30C406.688 29.4896 406.919 29.0391 407.227 28.6484C407.539 28.2578 407.93 27.9505 408.398 27.7266C408.872 27.5026 409.427 27.3906 410.062 27.3906C410.724 27.3906 411.302 27.526 411.797 27.7969C412.292 28.0625 412.68 28.4271 412.961 28.8906C413.247 29.349 413.404 29.8698 413.43 30.4531H412.055C412.029 30.1042 411.93 29.7891 411.758 29.5078C411.591 29.2266 411.362 29.0026 411.07 28.8359C410.784 28.6641 410.448 28.5781 410.062 28.5781C409.62 28.5781 409.247 28.6667 408.945 28.8438C408.648 29.0156 408.411 29.25 408.234 29.5469C408.062 29.8385 407.938 30.1641 407.859 30.5234C407.786 30.8776 407.75 31.2396 407.75 31.6094V31.9375C407.75 32.3073 407.786 32.6719 407.859 33.0312C407.932 33.3906 408.055 33.7161 408.227 34.0078C408.404 34.2995 408.641 34.5339 408.938 34.7109C409.24 34.8828 409.615 34.9688 410.062 34.9688ZM418.562 36.1562C417.974 36.1562 417.44 36.0573 416.961 35.8594C416.487 35.6562 416.078 35.3724 415.734 35.0078C415.396 34.6432 415.135 34.2109 414.953 33.7109C414.771 33.2109 414.68 32.6641 414.68 32.0703V31.7422C414.68 31.0547 414.781 30.4427 414.984 29.9062C415.188 29.3646 415.464 28.9062 415.812 28.5312C416.161 28.1562 416.557 27.8724 417 27.6797C417.443 27.487 417.901 27.3906 418.375 27.3906C418.979 27.3906 419.5 27.4948 419.938 27.7031C420.38 27.9115 420.742 28.2031 421.023 28.5781C421.305 28.9479 421.513 29.3854 421.648 29.8906C421.784 30.3906 421.852 30.9375 421.852 31.5312V32.1797H415.539V31H420.406V30.8906C420.385 30.5156 420.307 30.151 420.172 29.7969C420.042 29.4427 419.833 29.151 419.547 28.9219C419.26 28.6927 418.87 28.5781 418.375 28.5781C418.047 28.5781 417.745 28.6484 417.469 28.7891C417.193 28.9245 416.956 29.1276 416.758 29.3984C416.56 29.6693 416.406 30 416.297 30.3906C416.188 30.7812 416.133 31.2318 416.133 31.7422V32.0703C416.133 32.4714 416.188 32.849 416.297 33.2031C416.411 33.5521 416.576 33.8594 416.789 34.125C417.008 34.3906 417.271 34.599 417.578 34.75C417.891 34.901 418.245 34.9766 418.641 34.9766C419.151 34.9766 419.583 34.8724 419.938 34.6641C420.292 34.4557 420.602 34.1771 420.867 33.8281L421.742 34.5234C421.56 34.7995 421.328 35.0625 421.047 35.3125C420.766 35.5625 420.419 35.7656 420.008 35.9219C419.602 36.0781 419.12 36.1562 418.562 36.1562ZM424.852 34.2812V35.4453C424.852 35.9193 424.732 36.4193 424.492 36.9453C424.253 37.4766 423.917 37.9193 423.484 38.2734L422.664 37.7031C422.831 37.474 422.971 37.2396 423.086 37C423.201 36.7656 423.286 36.5208 423.344 36.2656C423.406 36.0156 423.438 35.75 423.438 35.4688V34.2812H424.852ZM435.648 34.5547V30.2031C435.648 29.8698 435.581 29.5807 435.445 29.3359C435.315 29.0859 435.117 28.8932 434.852 28.7578C434.586 28.6224 434.258 28.5547 433.867 28.5547C433.503 28.5547 433.182 28.6172 432.906 28.7422C432.635 28.8672 432.422 29.0312 432.266 29.2344C432.115 29.4375 432.039 29.6562 432.039 29.8906H430.594C430.594 29.5885 430.672 29.2891 430.828 28.9922C430.984 28.6953 431.208 28.4271 431.5 28.1875C431.797 27.9427 432.151 27.75 432.562 27.6094C432.979 27.4635 433.443 27.3906 433.953 27.3906C434.568 27.3906 435.109 27.4948 435.578 27.7031C436.052 27.9115 436.422 28.2266 436.688 28.6484C436.958 29.0651 437.094 29.5885 437.094 30.2188V34.1562C437.094 34.4375 437.117 34.737 437.164 35.0547C437.216 35.3724 437.292 35.6458 437.391 35.875V36H435.883C435.81 35.8333 435.753 35.612 435.711 35.3359C435.669 35.0547 435.648 34.7943 435.648 34.5547ZM435.898 30.875L435.914 31.8906H434.453C434.042 31.8906 433.674 31.9245 433.352 31.9922C433.029 32.0547 432.758 32.151 432.539 32.2812C432.32 32.4115 432.154 32.5755 432.039 32.7734C431.924 32.9661 431.867 33.1927 431.867 33.4531C431.867 33.7188 431.927 33.9609 432.047 34.1797C432.167 34.3984 432.346 34.5729 432.586 34.7031C432.831 34.8281 433.13 34.8906 433.484 34.8906C433.927 34.8906 434.318 34.7969 434.656 34.6094C434.995 34.4219 435.263 34.1927 435.461 33.9219C435.664 33.651 435.773 33.388 435.789 33.1328L436.406 33.8281C436.37 34.0469 436.271 34.2891 436.109 34.5547C435.948 34.8203 435.732 35.0755 435.461 35.3203C435.195 35.5599 434.878 35.7604 434.508 35.9219C434.143 36.0781 433.732 36.1562 433.273 36.1562C432.701 36.1562 432.198 36.0443 431.766 35.8203C431.339 35.5964 431.005 35.2969 430.766 34.9219C430.531 34.5417 430.414 34.1172 430.414 33.6484C430.414 33.1953 430.503 32.7969 430.68 32.4531C430.857 32.1042 431.112 31.8151 431.445 31.5859C431.779 31.3516 432.18 31.1745 432.648 31.0547C433.117 30.9349 433.641 30.875 434.219 30.875H435.898ZM440.812 29.3516V36H439.367V27.5469H440.734L440.812 29.3516ZM440.469 31.4531L439.867 31.4297C439.872 30.8516 439.958 30.3177 440.125 29.8281C440.292 29.3333 440.526 28.9036 440.828 28.5391C441.13 28.1745 441.49 27.8932 441.906 27.6953C442.328 27.4922 442.794 27.3906 443.305 27.3906C443.721 27.3906 444.096 27.4479 444.43 27.5625C444.763 27.6719 445.047 27.849 445.281 28.0938C445.521 28.3385 445.703 28.6562 445.828 29.0469C445.953 29.4323 446.016 29.9036 446.016 30.4609V36H444.562V30.4453C444.562 30.0026 444.497 29.6484 444.367 29.3828C444.237 29.112 444.047 28.9167 443.797 28.7969C443.547 28.6719 443.24 28.6094 442.875 28.6094C442.516 28.6094 442.188 28.6849 441.891 28.8359C441.599 28.987 441.346 29.1953 441.133 29.4609C440.924 29.7266 440.76 30.0312 440.641 30.375C440.526 30.7135 440.469 31.0729 440.469 31.4531ZM453.539 34.3594V24H454.992V36H453.664L453.539 34.3594ZM447.852 31.8672V31.7031C447.852 31.0573 447.93 30.4714 448.086 29.9453C448.247 29.4141 448.474 28.9583 448.766 28.5781C449.062 28.1979 449.414 27.9062 449.82 27.7031C450.232 27.4948 450.69 27.3906 451.195 27.3906C451.727 27.3906 452.19 27.4844 452.586 27.6719C452.987 27.8542 453.326 28.1224 453.602 28.4766C453.883 28.8255 454.104 29.2474 454.266 29.7422C454.427 30.237 454.539 30.7969 454.602 31.4219V32.1406C454.544 32.7604 454.432 33.3177 454.266 33.8125C454.104 34.3073 453.883 34.7292 453.602 35.0781C453.326 35.4271 452.987 35.6953 452.586 35.8828C452.185 36.0651 451.716 36.1562 451.18 36.1562C450.685 36.1562 450.232 36.0495 449.82 35.8359C449.414 35.6224 449.062 35.3229 448.766 34.9375C448.474 34.5521 448.247 34.099 448.086 33.5781C447.93 33.0521 447.852 32.4818 447.852 31.8672ZM449.305 31.7031V31.8672C449.305 32.2891 449.346 32.6849 449.43 33.0547C449.518 33.4245 449.654 33.75 449.836 34.0312C450.018 34.3125 450.25 34.5339 450.531 34.6953C450.812 34.8516 451.148 34.9297 451.539 34.9297C452.018 34.9297 452.411 34.8281 452.719 34.625C453.031 34.4219 453.281 34.1536 453.469 33.8203C453.656 33.487 453.802 33.125 453.906 32.7344V30.8516C453.844 30.5651 453.753 30.2891 453.633 30.0234C453.518 29.7526 453.367 29.513 453.18 29.3047C452.997 29.0911 452.771 28.9219 452.5 28.7969C452.234 28.6719 451.919 28.6094 451.555 28.6094C451.159 28.6094 450.818 28.6927 450.531 28.8594C450.25 29.0208 450.018 29.2448 449.836 29.5312C449.654 29.8125 449.518 30.1406 449.43 30.5156C449.346 30.8854 449.305 31.2812 449.305 31.7031ZM69.5469 53.1719V63.25H68.0938V51.5469H69.4219L69.5469 53.1719ZM75.2422 55.7031V55.8672C75.2422 56.4818 75.1693 57.0521 75.0234 57.5781C74.8776 58.099 74.6641 58.5521 74.3828 58.9375C74.1068 59.3229 73.7656 59.6224 73.3594 59.8359C72.9531 60.0495 72.487 60.1562 71.9609 60.1562C71.4245 60.1562 70.9505 60.0677 70.5391 59.8906C70.1276 59.7135 69.7786 59.4557 69.4922 59.1172C69.2057 58.7786 68.9766 58.3724 68.8047 57.8984C68.638 57.4245 68.5234 56.8906 68.4609 56.2969V55.4219C68.5234 54.7969 68.6406 54.237 68.8125 53.7422C68.9844 53.2474 69.2109 52.8255 69.4922 52.4766C69.7786 52.1224 70.125 51.8542 70.5312 51.6719C70.9375 51.4844 71.4062 51.3906 71.9375 51.3906C72.4688 51.3906 72.9401 51.4948 73.3516 51.7031C73.763 51.9062 74.1094 52.1979 74.3906 52.5781C74.6719 52.9583 74.8828 53.4141 75.0234 53.9453C75.1693 54.4714 75.2422 55.0573 75.2422 55.7031ZM73.7891 55.8672V55.7031C73.7891 55.2812 73.7448 54.8854 73.6562 54.5156C73.5677 54.1406 73.4297 53.8125 73.2422 53.5312C73.0599 53.2448 72.8255 53.0208 72.5391 52.8594C72.2526 52.6927 71.9115 52.6094 71.5156 52.6094C71.151 52.6094 70.8333 52.6719 70.5625 52.7969C70.2969 52.9219 70.0703 53.0911 69.8828 53.3047C69.6953 53.513 69.5417 53.7526 69.4219 54.0234C69.3073 54.2891 69.2214 54.5651 69.1641 54.8516V56.875C69.2682 57.2396 69.4141 57.5833 69.6016 57.9062C69.7891 58.224 70.0391 58.4818 70.3516 58.6797C70.6641 58.8724 71.0573 58.9688 71.5312 58.9688C71.9219 58.9688 72.2578 58.888 72.5391 58.7266C72.8255 58.5599 73.0599 58.3333 73.2422 58.0469C73.4297 57.7604 73.5677 57.4323 73.6562 57.0625C73.7448 56.6875 73.7891 56.2891 73.7891 55.8672ZM80.5938 60.1562C80.0052 60.1562 79.4714 60.0573 78.9922 59.8594C78.5182 59.6562 78.1094 59.3724 77.7656 59.0078C77.4271 58.6432 77.1667 58.2109 76.9844 57.7109C76.8021 57.2109 76.7109 56.6641 76.7109 56.0703V55.7422C76.7109 55.0547 76.8125 54.4427 77.0156 53.9062C77.2188 53.3646 77.4948 52.9062 77.8438 52.5312C78.1927 52.1562 78.5885 51.8724 79.0312 51.6797C79.474 51.487 79.9323 51.3906 80.4062 51.3906C81.0104 51.3906 81.5312 51.4948 81.9688 51.7031C82.4115 51.9115 82.7734 52.2031 83.0547 52.5781C83.3359 52.9479 83.5443 53.3854 83.6797 53.8906C83.8151 54.3906 83.8828 54.9375 83.8828 55.5312V56.1797H77.5703V55H82.4375V54.8906C82.4167 54.5156 82.3385 54.151 82.2031 53.7969C82.0729 53.4427 81.8646 53.151 81.5781 52.9219C81.2917 52.6927 80.901 52.5781 80.4062 52.5781C80.0781 52.5781 79.776 52.6484 79.5 52.7891C79.224 52.9245 78.987 53.1276 78.7891 53.3984C78.5911 53.6693 78.4375 54 78.3281 54.3906C78.2188 54.7812 78.1641 55.2318 78.1641 55.7422V56.0703C78.1641 56.4714 78.2188 56.849 78.3281 57.2031C78.4427 57.5521 78.6068 57.8594 78.8203 58.125C79.0391 58.3906 79.3021 58.599 79.6094 58.75C79.9219 58.901 80.276 58.9766 80.6719 58.9766C81.1823 58.9766 81.6146 58.8724 81.9688 58.6641C82.3229 58.4557 82.6328 58.1771 82.8984 57.8281L83.7734 58.5234C83.5911 58.7995 83.3594 59.0625 83.0781 59.3125C82.7969 59.5625 82.4505 59.7656 82.0391 59.9219C81.6328 60.0781 81.151 60.1562 80.5938 60.1562ZM87.0156 52.875V60H85.5703V51.5469H86.9766L87.0156 52.875ZM89.6562 51.5L89.6484 52.8438C89.5286 52.8177 89.4141 52.8021 89.3047 52.7969C89.2005 52.7865 89.0807 52.7812 88.9453 52.7812C88.612 52.7812 88.3177 52.8333 88.0625 52.9375C87.8073 53.0417 87.5911 53.1875 87.4141 53.375C87.237 53.5625 87.0964 53.7865 86.9922 54.0469C86.8932 54.3021 86.8281 54.5833 86.7969 54.8906L86.3906 55.125C86.3906 54.6146 86.4401 54.1354 86.5391 53.6875C86.6432 53.2396 86.8021 52.8438 87.0156 52.5C87.2292 52.151 87.5 51.8802 87.8281 51.6875C88.1615 51.4896 88.5573 51.3906 89.0156 51.3906C89.1198 51.3906 89.2396 51.4036 89.375 51.4297C89.5104 51.4505 89.6042 51.474 89.6562 51.5ZM93.2734 60H91.8281V50.6562C91.8281 50.0469 91.9375 49.5339 92.1562 49.1172C92.3802 48.6953 92.7005 48.3776 93.1172 48.1641C93.5339 47.9453 94.0286 47.8359 94.6016 47.8359C94.7682 47.8359 94.9349 47.8464 95.1016 47.8672C95.2734 47.888 95.4401 47.9193 95.6016 47.9609L95.5234 49.1406C95.4141 49.1146 95.2891 49.0964 95.1484 49.0859C95.013 49.0755 94.8776 49.0703 94.7422 49.0703C94.4349 49.0703 94.1693 49.1328 93.9453 49.2578C93.7266 49.3776 93.5599 49.5547 93.4453 49.7891C93.3307 50.0234 93.2734 50.3125 93.2734 50.6562V60ZM95.0703 51.5469V52.6562H90.4922V51.5469H95.0703ZM96.2969 55.8672V55.6875C96.2969 55.0781 96.3854 54.513 96.5625 53.9922C96.7396 53.4661 96.9948 53.0104 97.3281 52.625C97.6615 52.2344 98.0651 51.9323 98.5391 51.7188C99.013 51.5 99.5443 51.3906 100.133 51.3906C100.727 51.3906 101.26 51.5 101.734 51.7188C102.214 51.9323 102.62 52.2344 102.953 52.625C103.292 53.0104 103.549 53.4661 103.727 53.9922C103.904 54.513 103.992 55.0781 103.992 55.6875V55.8672C103.992 56.4766 103.904 57.0417 103.727 57.5625C103.549 58.0833 103.292 58.5391 102.953 58.9297C102.62 59.3151 102.216 59.6172 101.742 59.8359C101.273 60.0495 100.742 60.1562 100.148 60.1562C99.5547 60.1562 99.0208 60.0495 98.5469 59.8359C98.0729 59.6172 97.6667 59.3151 97.3281 58.9297C96.9948 58.5391 96.7396 58.0833 96.5625 57.5625C96.3854 57.0417 96.2969 56.4766 96.2969 55.8672ZM97.7422 55.6875V55.8672C97.7422 56.2891 97.7917 56.6875 97.8906 57.0625C97.9896 57.4323 98.138 57.7604 98.3359 58.0469C98.5391 58.3333 98.7917 58.5599 99.0938 58.7266C99.3958 58.888 99.7474 58.9688 100.148 58.9688C100.544 58.9688 100.891 58.888 101.188 58.7266C101.49 58.5599 101.74 58.3333 101.938 58.0469C102.135 57.7604 102.284 57.4323 102.383 57.0625C102.487 56.6875 102.539 56.2891 102.539 55.8672V55.6875C102.539 55.2708 102.487 54.8776 102.383 54.5078C102.284 54.1328 102.133 53.8021 101.93 53.5156C101.732 53.224 101.482 52.9948 101.18 52.8281C100.883 52.6615 100.534 52.5781 100.133 52.5781C99.737 52.5781 99.388 52.6615 99.0859 52.8281C98.7891 52.9948 98.5391 53.224 98.3359 53.5156C98.138 53.8021 97.9896 54.1328 97.8906 54.5078C97.7917 54.8776 97.7422 55.2708 97.7422 55.6875ZM107.25 52.875V60H105.805V51.5469H107.211L107.25 52.875ZM109.891 51.5L109.883 52.8438C109.763 52.8177 109.648 52.8021 109.539 52.7969C109.435 52.7865 109.315 52.7812 109.18 52.7812C108.846 52.7812 108.552 52.8333 108.297 52.9375C108.042 53.0417 107.826 53.1875 107.648 53.375C107.471 53.5625 107.331 53.7865 107.227 54.0469C107.128 54.3021 107.062 54.5833 107.031 54.8906L106.625 55.125C106.625 54.6146 106.674 54.1354 106.773 53.6875C106.878 53.2396 107.036 52.8438 107.25 52.5C107.464 52.151 107.734 51.8802 108.062 51.6875C108.396 51.4896 108.792 51.3906 109.25 51.3906C109.354 51.3906 109.474 51.4036 109.609 51.4297C109.745 51.4505 109.839 51.474 109.891 51.5ZM112.664 53.2266V60H111.211V51.5469H112.586L112.664 53.2266ZM112.367 55.4531L111.695 55.4297C111.701 54.8516 111.776 54.3177 111.922 53.8281C112.068 53.3333 112.284 52.9036 112.57 52.5391C112.857 52.1745 113.214 51.8932 113.641 51.6953C114.068 51.4922 114.562 51.3906 115.125 51.3906C115.521 51.3906 115.885 51.4479 116.219 51.5625C116.552 51.6719 116.841 51.8464 117.086 52.0859C117.331 52.3255 117.521 52.6328 117.656 53.0078C117.792 53.3828 117.859 53.8359 117.859 54.3672V60H116.414V54.4375C116.414 53.9948 116.339 53.6406 116.188 53.375C116.042 53.1094 115.833 52.9167 115.562 52.7969C115.292 52.6719 114.974 52.6094 114.609 52.6094C114.182 52.6094 113.826 52.6849 113.539 52.8359C113.253 52.987 113.023 53.1953 112.852 53.4609C112.68 53.7266 112.555 54.0312 112.477 54.375C112.404 54.7135 112.367 55.0729 112.367 55.4531ZM117.844 54.6562L116.875 54.9531C116.88 54.4896 116.956 54.0443 117.102 53.6172C117.253 53.1901 117.469 52.8099 117.75 52.4766C118.036 52.1432 118.388 51.8802 118.805 51.6875C119.221 51.4896 119.698 51.3906 120.234 51.3906C120.688 51.3906 121.089 51.4505 121.438 51.5703C121.792 51.6901 122.089 51.875 122.328 52.125C122.573 52.3698 122.758 52.6849 122.883 53.0703C123.008 53.4557 123.07 53.9141 123.07 54.4453V60H121.617V54.4297C121.617 53.9557 121.542 53.5885 121.391 53.3281C121.245 53.0625 121.036 52.8776 120.766 52.7734C120.5 52.6641 120.182 52.6094 119.812 52.6094C119.495 52.6094 119.214 52.6641 118.969 52.7734C118.724 52.8828 118.518 53.0339 118.352 53.2266C118.185 53.4141 118.057 53.6302 117.969 53.875C117.885 54.1198 117.844 54.3802 117.844 54.6562ZM130.242 58.5547V54.2031C130.242 53.8698 130.174 53.5807 130.039 53.3359C129.909 53.0859 129.711 52.8932 129.445 52.7578C129.18 52.6224 128.852 52.5547 128.461 52.5547C128.096 52.5547 127.776 52.6172 127.5 52.7422C127.229 52.8672 127.016 53.0312 126.859 53.2344C126.708 53.4375 126.633 53.6562 126.633 53.8906H125.188C125.188 53.5885 125.266 53.2891 125.422 52.9922C125.578 52.6953 125.802 52.4271 126.094 52.1875C126.391 51.9427 126.745 51.75 127.156 51.6094C127.573 51.4635 128.036 51.3906 128.547 51.3906C129.161 51.3906 129.703 51.4948 130.172 51.7031C130.646 51.9115 131.016 52.2266 131.281 52.6484C131.552 53.0651 131.688 53.5885 131.688 54.2188V58.1562C131.688 58.4375 131.711 58.737 131.758 59.0547C131.81 59.3724 131.885 59.6458 131.984 59.875V60H130.477C130.404 59.8333 130.346 59.612 130.305 59.3359C130.263 59.0547 130.242 58.7943 130.242 58.5547ZM130.492 54.875L130.508 55.8906H129.047C128.635 55.8906 128.268 55.9245 127.945 55.9922C127.622 56.0547 127.352 56.151 127.133 56.2812C126.914 56.4115 126.747 56.5755 126.633 56.7734C126.518 56.9661 126.461 57.1927 126.461 57.4531C126.461 57.7188 126.521 57.9609 126.641 58.1797C126.76 58.3984 126.94 58.5729 127.18 58.7031C127.424 58.8281 127.724 58.8906 128.078 58.8906C128.521 58.8906 128.911 58.7969 129.25 58.6094C129.589 58.4219 129.857 58.1927 130.055 57.9219C130.258 57.651 130.367 57.388 130.383 57.1328L131 57.8281C130.964 58.0469 130.865 58.2891 130.703 58.5547C130.542 58.8203 130.326 59.0755 130.055 59.3203C129.789 59.5599 129.471 59.7604 129.102 59.9219C128.737 60.0781 128.326 60.1562 127.867 60.1562C127.294 60.1562 126.792 60.0443 126.359 59.8203C125.932 59.5964 125.599 59.2969 125.359 58.9219C125.125 58.5417 125.008 58.1172 125.008 57.6484C125.008 57.1953 125.096 56.7969 125.273 56.4531C125.451 56.1042 125.706 55.8151 126.039 55.5859C126.372 55.3516 126.773 55.1745 127.242 55.0547C127.711 54.9349 128.234 54.875 128.812 54.875H130.492ZM135.406 53.3516V60H133.961V51.5469H135.328L135.406 53.3516ZM135.062 55.4531L134.461 55.4297C134.466 54.8516 134.552 54.3177 134.719 53.8281C134.885 53.3333 135.12 52.9036 135.422 52.5391C135.724 52.1745 136.083 51.8932 136.5 51.6953C136.922 51.4922 137.388 51.3906 137.898 51.3906C138.315 51.3906 138.69 51.4479 139.023 51.5625C139.357 51.6719 139.641 51.849 139.875 52.0938C140.115 52.3385 140.297 52.6562 140.422 53.0469C140.547 53.4323 140.609 53.9036 140.609 54.4609V60H139.156V54.4453C139.156 54.0026 139.091 53.6484 138.961 53.3828C138.831 53.112 138.641 52.9167 138.391 52.7969C138.141 52.6719 137.833 52.6094 137.469 52.6094C137.109 52.6094 136.781 52.6849 136.484 52.8359C136.193 52.987 135.94 53.1953 135.727 53.4609C135.518 53.7266 135.354 54.0312 135.234 54.375C135.12 54.7135 135.062 55.0729 135.062 55.4531ZM146.188 58.9688C146.531 58.9688 146.849 58.8984 147.141 58.7578C147.432 58.6172 147.672 58.4245 147.859 58.1797C148.047 57.9297 148.154 57.6458 148.18 57.3281H149.555C149.529 57.8281 149.359 58.2943 149.047 58.7266C148.74 59.1536 148.336 59.5 147.836 59.7656C147.336 60.026 146.786 60.1562 146.188 60.1562C145.552 60.1562 144.997 60.0443 144.523 59.8203C144.055 59.5964 143.664 59.2891 143.352 58.8984C143.044 58.5078 142.812 58.0599 142.656 57.5547C142.505 57.0443 142.43 56.5052 142.43 55.9375V55.6094C142.43 55.0417 142.505 54.5052 142.656 54C142.812 53.4896 143.044 53.0391 143.352 52.6484C143.664 52.2578 144.055 51.9505 144.523 51.7266C144.997 51.5026 145.552 51.3906 146.188 51.3906C146.849 51.3906 147.427 51.526 147.922 51.7969C148.417 52.0625 148.805 52.4271 149.086 52.8906C149.372 53.349 149.529 53.8698 149.555 54.4531H148.18C148.154 54.1042 148.055 53.7891 147.883 53.5078C147.716 53.2266 147.487 53.0026 147.195 52.8359C146.909 52.6641 146.573 52.5781 146.188 52.5781C145.745 52.5781 145.372 52.6667 145.07 52.8438C144.773 53.0156 144.536 53.25 144.359 53.5469C144.188 53.8385 144.062 54.1641 143.984 54.5234C143.911 54.8776 143.875 55.2396 143.875 55.6094V55.9375C143.875 56.3073 143.911 56.6719 143.984 57.0312C144.057 57.3906 144.18 57.7161 144.352 58.0078C144.529 58.2995 144.766 58.5339 145.062 58.7109C145.365 58.8828 145.74 58.9688 146.188 58.9688ZM154.688 60.1562C154.099 60.1562 153.565 60.0573 153.086 59.8594C152.612 59.6562 152.203 59.3724 151.859 59.0078C151.521 58.6432 151.26 58.2109 151.078 57.7109C150.896 57.2109 150.805 56.6641 150.805 56.0703V55.7422C150.805 55.0547 150.906 54.4427 151.109 53.9062C151.312 53.3646 151.589 52.9062 151.938 52.5312C152.286 52.1562 152.682 51.8724 153.125 51.6797C153.568 51.487 154.026 51.3906 154.5 51.3906C155.104 51.3906 155.625 51.4948 156.062 51.7031C156.505 51.9115 156.867 52.2031 157.148 52.5781C157.43 52.9479 157.638 53.3854 157.773 53.8906C157.909 54.3906 157.977 54.9375 157.977 55.5312V56.1797H151.664V55H156.531V54.8906C156.51 54.5156 156.432 54.151 156.297 53.7969C156.167 53.4427 155.958 53.151 155.672 52.9219C155.385 52.6927 154.995 52.5781 154.5 52.5781C154.172 52.5781 153.87 52.6484 153.594 52.7891C153.318 52.9245 153.081 53.1276 152.883 53.3984C152.685 53.6693 152.531 54 152.422 54.3906C152.312 54.7812 152.258 55.2318 152.258 55.7422V56.0703C152.258 56.4714 152.312 56.849 152.422 57.2031C152.536 57.5521 152.701 57.8594 152.914 58.125C153.133 58.3906 153.396 58.599 153.703 58.75C154.016 58.901 154.37 58.9766 154.766 58.9766C155.276 58.9766 155.708 58.8724 156.062 58.6641C156.417 58.4557 156.727 58.1771 156.992 57.8281L157.867 58.5234C157.685 58.7995 157.453 59.0625 157.172 59.3125C156.891 59.5625 156.544 59.7656 156.133 59.9219C155.727 60.0781 155.245 60.1562 154.688 60.1562ZM159.688 59.2344C159.688 58.9896 159.763 58.7839 159.914 58.6172C160.07 58.4453 160.294 58.3594 160.586 58.3594C160.878 58.3594 161.099 58.4453 161.25 58.6172C161.406 58.7839 161.484 58.9896 161.484 59.2344C161.484 59.474 161.406 59.6771 161.25 59.8438C161.099 60.0104 160.878 60.0938 160.586 60.0938C160.294 60.0938 160.07 60.0104 159.914 59.8438C159.763 59.6771 159.688 59.474 159.688 59.2344Z" fill="#2D3139"/>
</g>
</g>
<defs>
<filter id="filter0_di_7916_14810" x="0" y="0" width="472" height="88" filterUnits="userSpaceOnUse" color-interpolation-filters="sRGB">
<feFlood flood-opacity="0" result="BackgroundImageFix"/>
<feColorMatrix in="SourceAlpha" type="matrix" values="0 0 0 0 0 0 0 0 0 0 0 0 0 0 0 0 0 0 127 0" result="hardAlpha"/>
<feOffset dy="1"/>
<feGaussianBlur stdDeviation="1.5"/>
<feComposite in2="hardAlpha" operator="out"/>
<feColorMatrix type="matrix" values="0 0 0 0 0.121569 0 0 0 0 0.133333 0 0 0 0 0.160784 0 0 0 0.08 0"/>
<feBlend mode="normal" in2="BackgroundImageFix" result="effect1_dropShadow_7916_14810"/>
<feBlend mode="normal" in="SourceGraphic" in2="effect1_dropShadow_7916_14810" result="shape"/>
<feColorMatrix in="SourceAlpha" type="matrix" values="0 0 0 0 0 0 0 0 0 0 0 0 0 0 0 0 0 0 127 0" result="hardAlpha"/>
<feMorphology radius="1" operator="erode" in="SourceAlpha" result="effect2_innerShadow_7916_14810"/>
<feOffset/>
<feComposite in2="hardAlpha" operator="arithmetic" k2="-1" k3="1"/>
<feColorMatrix type="matrix" values="0 0 0 0 0.882353 0 0 0 0 0.898039 0 0 0 0 0.921569 0 0 0 1 0"/>
<feBlend mode="normal" in2="shape" result="effect2_innerShadow_7916_14810"/>
</filter>
<clipPath id="clip0_7916_14810">
<rect x="3" y="2" width="466" height="82" rx="4" fill="white"/>
</clipPath>
</defs>
</svg>
