<svg width="473" height="66" viewBox="0 0 473 66" fill="none" xmlns="http://www.w3.org/2000/svg">
<g filter="url(#filter0_di_7916_14772)">
<rect x="3.9834" y="2" width="466" height="60" rx="4" fill="white"/>
<path d="M33.9834 42.8346V37.418M30.7334 27.668V21.168M37.2334 27.668V21.168M40.4834 27.668V33.0846C40.4834 34.2339 40.0269 35.3361 39.2142 36.1488C38.4015 36.9614 37.2993 37.418 36.1501 37.418H31.8167C30.6675 37.418 29.5653 36.9614 28.7526 36.1488C27.9399 35.3361 27.4834 34.2339 27.4834 33.0846V27.668H40.4834Z" stroke="#282828" stroke-width="2.16667" stroke-linecap="round" stroke-linejoin="round"/>
<path d="M73.7412 31.5391H70.7021V30.3125H73.7412C74.3298 30.3125 74.8063 30.2188 75.1709 30.0312C75.5355 29.8438 75.8011 29.5833 75.9678 29.25C76.1396 28.9167 76.2256 28.5365 76.2256 28.1094C76.2256 27.7188 76.1396 27.3516 75.9678 27.0078C75.8011 26.6641 75.5355 26.388 75.1709 26.1797C74.8063 25.9661 74.3298 25.8594 73.7412 25.8594H71.0537V36H69.5459V24.625H73.7412C74.6006 24.625 75.3271 24.7734 75.9209 25.0703C76.5146 25.3672 76.9652 25.7786 77.2725 26.3047C77.5798 26.8255 77.7334 27.4219 77.7334 28.0938C77.7334 28.8229 77.5798 29.4453 77.2725 29.9609C76.9652 30.4766 76.5146 30.8698 75.9209 31.1406C75.3271 31.4062 74.6006 31.5391 73.7412 31.5391ZM80.9912 24V36H79.5381V24H80.9912ZM88.4834 34.0469V27.5469H89.9365V36H88.5537L88.4834 34.0469ZM88.7568 32.2656L89.3584 32.25C89.3584 32.8125 89.2985 33.3333 89.1787 33.8125C89.0641 34.2865 88.8766 34.6979 88.6162 35.0469C88.3558 35.3958 88.0146 35.6693 87.5928 35.8672C87.1709 36.0599 86.6579 36.1562 86.0537 36.1562C85.6423 36.1562 85.2646 36.0964 84.9209 35.9766C84.5824 35.8568 84.2907 35.6719 84.0459 35.4219C83.8011 35.1719 83.611 34.8464 83.4756 34.4453C83.3454 34.0443 83.2803 33.5625 83.2803 33V27.5469H84.7256V33.0156C84.7256 33.3958 84.7673 33.7109 84.8506 33.9609C84.9391 34.2057 85.0563 34.401 85.2021 34.5469C85.3532 34.6875 85.5199 34.7865 85.7021 34.8438C85.8896 34.901 86.0824 34.9297 86.2803 34.9297C86.8949 34.9297 87.3818 34.8125 87.7412 34.5781C88.1006 34.3385 88.3584 34.0182 88.5146 33.6172C88.6761 33.2109 88.7568 32.7604 88.7568 32.2656ZM97.6162 27.5469H98.9287V35.8203C98.9287 36.5651 98.7777 37.2005 98.4756 37.7266C98.1735 38.2526 97.7516 38.651 97.21 38.9219C96.6735 39.1979 96.0537 39.3359 95.3506 39.3359C95.0589 39.3359 94.7152 39.2891 94.3193 39.1953C93.9287 39.1068 93.5433 38.9531 93.1631 38.7344C92.7881 38.5208 92.473 38.2318 92.2178 37.8672L92.9756 37.0078C93.3298 37.4349 93.6995 37.7318 94.085 37.8984C94.4756 38.0651 94.861 38.1484 95.2412 38.1484C95.6995 38.1484 96.0954 38.0625 96.4287 37.8906C96.762 37.7188 97.0199 37.4635 97.2021 37.125C97.3896 36.7917 97.4834 36.3802 97.4834 35.8906V29.4062L97.6162 27.5469ZM91.7959 31.8672V31.7031C91.7959 31.0573 91.8714 30.4714 92.0225 29.9453C92.1787 29.4141 92.4001 28.9583 92.6865 28.5781C92.9782 28.1979 93.3298 27.9062 93.7412 27.7031C94.1527 27.4948 94.6162 27.3906 95.1318 27.3906C95.6631 27.3906 96.1266 27.4844 96.5225 27.6719C96.9235 27.8542 97.262 28.1224 97.5381 28.4766C97.8193 28.8255 98.0407 29.2474 98.2021 29.7422C98.3636 30.237 98.4756 30.7969 98.5381 31.4219V32.1406C98.4808 32.7604 98.3688 33.3177 98.2021 33.8125C98.0407 34.3073 97.8193 34.7292 97.5381 35.0781C97.262 35.4271 96.9235 35.6953 96.5225 35.8828C96.1214 36.0651 95.6527 36.1562 95.1162 36.1562C94.611 36.1562 94.1527 36.0495 93.7412 35.8359C93.335 35.6224 92.986 35.3229 92.6943 34.9375C92.4027 34.5521 92.1787 34.099 92.0225 33.5781C91.8714 33.0521 91.7959 32.4818 91.7959 31.8672ZM93.2412 31.7031V31.8672C93.2412 32.2891 93.2829 32.6849 93.3662 33.0547C93.4548 33.4245 93.5876 33.75 93.7646 34.0312C93.9469 34.3125 94.1787 34.5339 94.46 34.6953C94.7412 34.8516 95.0771 34.9297 95.4678 34.9297C95.9469 34.9297 96.3428 34.8281 96.6553 34.625C96.9678 34.4219 97.2152 34.1536 97.3975 33.8203C97.585 33.487 97.7308 33.125 97.835 32.7344V30.8516C97.7777 30.5651 97.6891 30.2891 97.5693 30.0234C97.4548 29.7526 97.3037 29.513 97.1162 29.3047C96.9339 29.0911 96.7074 28.9219 96.4365 28.7969C96.1657 28.6719 95.848 28.6094 95.4834 28.6094C95.0876 28.6094 94.7464 28.6927 94.46 28.8594C94.1787 29.0208 93.9469 29.2448 93.7646 29.5312C93.5876 29.8125 93.4548 30.1406 93.3662 30.5156C93.2829 30.8854 93.2412 31.2812 93.2412 31.7031ZM109.522 25.6328L105.757 36H104.218L108.554 24.625H109.546L109.522 25.6328ZM112.679 36L108.905 25.6328L108.882 24.625H109.874L114.226 36H112.679ZM112.483 31.7891V33.0234H106.093V31.7891H112.483ZM117.366 24.625V36H115.858V24.625H117.366ZM125.429 27.5469V36H123.976V27.5469H125.429ZM123.866 25.3047C123.866 25.0703 123.937 24.8724 124.077 24.7109C124.223 24.5495 124.437 24.4688 124.718 24.4688C124.994 24.4688 125.205 24.5495 125.351 24.7109C125.502 24.8724 125.577 25.0703 125.577 25.3047C125.577 25.5286 125.502 25.7214 125.351 25.8828C125.205 26.0391 124.994 26.1172 124.718 26.1172C124.437 26.1172 124.223 26.0391 124.077 25.8828C123.937 25.7214 123.866 25.5286 123.866 25.3047ZM129.194 29.3516V36H127.749V27.5469H129.116L129.194 29.3516ZM128.851 31.4531L128.249 31.4297C128.254 30.8516 128.34 30.3177 128.507 29.8281C128.674 29.3333 128.908 28.9036 129.21 28.5391C129.512 28.1745 129.871 27.8932 130.288 27.6953C130.71 27.4922 131.176 27.3906 131.687 27.3906C132.103 27.3906 132.478 27.4479 132.812 27.5625C133.145 27.6719 133.429 27.849 133.663 28.0938C133.903 28.3385 134.085 28.6562 134.21 29.0469C134.335 29.4323 134.397 29.9036 134.397 30.4609V36H132.944V30.4453C132.944 30.0026 132.879 29.6484 132.749 29.3828C132.619 29.112 132.429 28.9167 132.179 28.7969C131.929 28.6719 131.621 28.6094 131.257 28.6094C130.897 28.6094 130.569 28.6849 130.272 28.8359C129.981 28.987 129.728 29.1953 129.515 29.4609C129.306 29.7266 129.142 30.0312 129.022 30.375C128.908 30.7135 128.851 31.0729 128.851 31.4531ZM140.132 27.5469V28.6562H135.562V27.5469H140.132ZM137.108 25.4922H138.554V33.9062C138.554 34.1927 138.598 34.4089 138.687 34.5547C138.775 34.7005 138.89 34.7969 139.03 34.8438C139.171 34.8906 139.322 34.9141 139.483 34.9141C139.603 34.9141 139.728 34.9036 139.858 34.8828C139.994 34.8568 140.095 34.8359 140.163 34.8203L140.171 36C140.056 36.0365 139.905 36.0703 139.718 36.1016C139.535 36.138 139.314 36.1562 139.054 36.1562C138.7 36.1562 138.374 36.0859 138.077 35.9453C137.78 35.8047 137.543 35.5703 137.366 35.2422C137.194 34.9089 137.108 34.4609 137.108 33.8984V25.4922ZM141.288 31.8672V31.6875C141.288 31.0781 141.377 30.513 141.554 29.9922C141.731 29.4661 141.986 29.0104 142.319 28.625C142.653 28.2344 143.056 27.9323 143.53 27.7188C144.004 27.5 144.535 27.3906 145.124 27.3906C145.718 27.3906 146.252 27.5 146.726 27.7188C147.205 27.9323 147.611 28.2344 147.944 28.625C148.283 29.0104 148.541 29.4661 148.718 29.9922C148.895 30.513 148.983 31.0781 148.983 31.6875V31.8672C148.983 32.4766 148.895 33.0417 148.718 33.5625C148.541 34.0833 148.283 34.5391 147.944 34.9297C147.611 35.3151 147.207 35.6172 146.733 35.8359C146.265 36.0495 145.733 36.1562 145.14 36.1562C144.546 36.1562 144.012 36.0495 143.538 35.8359C143.064 35.6172 142.658 35.3151 142.319 34.9297C141.986 34.5391 141.731 34.0833 141.554 33.5625C141.377 33.0417 141.288 32.4766 141.288 31.8672ZM142.733 31.6875V31.8672C142.733 32.2891 142.783 32.6875 142.882 33.0625C142.981 33.4323 143.129 33.7604 143.327 34.0469C143.53 34.3333 143.783 34.5599 144.085 34.7266C144.387 34.888 144.739 34.9688 145.14 34.9688C145.535 34.9688 145.882 34.888 146.179 34.7266C146.481 34.5599 146.731 34.3333 146.929 34.0469C147.127 33.7604 147.275 33.4323 147.374 33.0625C147.478 32.6875 147.53 32.2891 147.53 31.8672V31.6875C147.53 31.2708 147.478 30.8776 147.374 30.5078C147.275 30.1328 147.124 29.8021 146.921 29.5156C146.723 29.224 146.473 28.9948 146.171 28.8281C145.874 28.6615 145.525 28.5781 145.124 28.5781C144.728 28.5781 144.379 28.6615 144.077 28.8281C143.78 28.9948 143.53 29.224 143.327 29.5156C143.129 29.8021 142.981 30.1328 142.882 30.5078C142.783 30.8776 142.733 31.2708 142.733 31.6875ZM156.335 24V36H154.882V24H156.335ZM160.226 27.5469V36H158.772V27.5469H160.226ZM158.663 25.3047C158.663 25.0703 158.733 24.8724 158.874 24.7109C159.02 24.5495 159.233 24.4688 159.515 24.4688C159.791 24.4688 160.002 24.5495 160.147 24.7109C160.299 24.8724 160.374 25.0703 160.374 25.3047C160.374 25.5286 160.299 25.7214 160.147 25.8828C160.002 26.0391 159.791 26.1172 159.515 26.1172C159.233 26.1172 159.02 26.0391 158.874 25.8828C158.733 25.7214 158.663 25.5286 158.663 25.3047ZM165.116 34.6953L167.429 27.5469H168.905L165.866 36H164.897L165.116 34.6953ZM163.187 27.5469L165.569 34.7344L165.733 36H164.765L161.702 27.5469H163.187ZM173.694 36.1562C173.106 36.1562 172.572 36.0573 172.093 35.8594C171.619 35.6562 171.21 35.3724 170.866 35.0078C170.528 34.6432 170.267 34.2109 170.085 33.7109C169.903 33.2109 169.812 32.6641 169.812 32.0703V31.7422C169.812 31.0547 169.913 30.4427 170.116 29.9062C170.319 29.3646 170.595 28.9062 170.944 28.5312C171.293 28.1562 171.689 27.8724 172.132 27.6797C172.575 27.487 173.033 27.3906 173.507 27.3906C174.111 27.3906 174.632 27.4948 175.069 27.7031C175.512 27.9115 175.874 28.2031 176.155 28.5781C176.437 28.9479 176.645 29.3854 176.78 29.8906C176.916 30.3906 176.983 30.9375 176.983 31.5312V32.1797H170.671V31H175.538V30.8906C175.517 30.5156 175.439 30.151 175.304 29.7969C175.174 29.4427 174.965 29.151 174.679 28.9219C174.392 28.6927 174.002 28.5781 173.507 28.5781C173.179 28.5781 172.877 28.6484 172.601 28.7891C172.325 28.9245 172.088 29.1276 171.89 29.3984C171.692 29.6693 171.538 30 171.429 30.3906C171.319 30.7812 171.265 31.2318 171.265 31.7422V32.0703C171.265 32.4714 171.319 32.849 171.429 33.2031C171.543 33.5521 171.707 33.8594 171.921 34.125C172.14 34.3906 172.403 34.599 172.71 34.75C173.022 34.901 173.377 34.9766 173.772 34.9766C174.283 34.9766 174.715 34.8724 175.069 34.6641C175.424 34.4557 175.733 34.1771 175.999 33.8281L176.874 34.5234C176.692 34.7995 176.46 35.0625 176.179 35.3125C175.897 35.5625 175.551 35.7656 175.14 35.9219C174.733 36.0781 174.252 36.1562 173.694 36.1562ZM184.78 34.5L186.952 27.5469H187.905L187.718 28.9297L185.507 36H184.577L184.78 34.5ZM183.319 27.5469L185.171 34.5781L185.304 36H184.327L181.874 27.5469H183.319ZM189.983 34.5234L191.749 27.5469H193.187L190.733 36H189.765L189.983 34.5234ZM188.116 27.5469L190.241 34.3828L190.483 36H189.562L187.288 28.9141L187.101 27.5469H188.116ZM194.288 31.8672V31.6875C194.288 31.0781 194.377 30.513 194.554 29.9922C194.731 29.4661 194.986 29.0104 195.319 28.625C195.653 28.2344 196.056 27.9323 196.53 27.7188C197.004 27.5 197.535 27.3906 198.124 27.3906C198.718 27.3906 199.252 27.5 199.726 27.7188C200.205 27.9323 200.611 28.2344 200.944 28.625C201.283 29.0104 201.541 29.4661 201.718 29.9922C201.895 30.513 201.983 31.0781 201.983 31.6875V31.8672C201.983 32.4766 201.895 33.0417 201.718 33.5625C201.541 34.0833 201.283 34.5391 200.944 34.9297C200.611 35.3151 200.207 35.6172 199.733 35.8359C199.265 36.0495 198.733 36.1562 198.14 36.1562C197.546 36.1562 197.012 36.0495 196.538 35.8359C196.064 35.6172 195.658 35.3151 195.319 34.9297C194.986 34.5391 194.731 34.0833 194.554 33.5625C194.377 33.0417 194.288 32.4766 194.288 31.8672ZM195.733 31.6875V31.8672C195.733 32.2891 195.783 32.6875 195.882 33.0625C195.981 33.4323 196.129 33.7604 196.327 34.0469C196.53 34.3333 196.783 34.5599 197.085 34.7266C197.387 34.888 197.739 34.9688 198.14 34.9688C198.535 34.9688 198.882 34.888 199.179 34.7266C199.481 34.5599 199.731 34.3333 199.929 34.0469C200.127 33.7604 200.275 33.4323 200.374 33.0625C200.478 32.6875 200.53 32.2891 200.53 31.8672V31.6875C200.53 31.2708 200.478 30.8776 200.374 30.5078C200.275 30.1328 200.124 29.8021 199.921 29.5156C199.723 29.224 199.473 28.9948 199.171 28.8281C198.874 28.6615 198.525 28.5781 198.124 28.5781C197.728 28.5781 197.379 28.6615 197.077 28.8281C196.78 28.9948 196.53 29.224 196.327 29.5156C196.129 29.8021 195.981 30.1328 195.882 30.5078C195.783 30.8776 195.733 31.2708 195.733 31.6875ZM205.241 28.875V36H203.796V27.5469H205.202L205.241 28.875ZM207.882 27.5L207.874 28.8438C207.754 28.8177 207.64 28.8021 207.53 28.7969C207.426 28.7865 207.306 28.7812 207.171 28.7812C206.838 28.7812 206.543 28.8333 206.288 28.9375C206.033 29.0417 205.817 29.1875 205.64 29.375C205.463 29.5625 205.322 29.7865 205.218 30.0469C205.119 30.3021 205.054 30.5833 205.022 30.8906L204.616 31.125C204.616 30.6146 204.666 30.1354 204.765 29.6875C204.869 29.2396 205.028 28.8438 205.241 28.5C205.455 28.151 205.726 27.8802 206.054 27.6875C206.387 27.4896 206.783 27.3906 207.241 27.3906C207.345 27.3906 207.465 27.4036 207.601 27.4297C207.736 27.4505 207.83 27.474 207.882 27.5ZM210.671 24V36H209.218V24H210.671ZM215.835 27.5469L212.147 31.4922L210.085 33.6328L209.968 32.0938L211.444 30.3281L214.069 27.5469H215.835ZM214.515 36L211.499 31.9688L212.249 30.6797L216.218 36H214.515ZM219.483 36H218.038V26.6562C218.038 26.0469 218.15 25.5339 218.374 25.1172C218.603 24.6953 218.931 24.3776 219.358 24.1641C219.791 23.9453 220.314 23.8359 220.929 23.8359C221.158 23.8359 221.444 23.8594 221.788 23.9062C222.137 23.9531 222.507 24.013 222.897 24.0859C223.293 24.1589 223.679 24.2344 224.054 24.3125L223.382 25.3594C222.887 25.2656 222.442 25.1953 222.046 25.1484C221.65 25.0964 221.314 25.0703 221.038 25.0703C220.7 25.0703 220.413 25.1328 220.179 25.2578C219.95 25.3776 219.775 25.5547 219.655 25.7891C219.541 26.0234 219.483 26.3125 219.483 26.6562V36ZM222.608 36V24.3125H224.054V36H222.608ZM221.28 27.5469V28.6562H216.702V27.5469H221.28ZM226.038 31.8672V31.6875C226.038 31.0781 226.127 30.513 226.304 29.9922C226.481 29.4661 226.736 29.0104 227.069 28.625C227.403 28.2344 227.806 27.9323 228.28 27.7188C228.754 27.5 229.285 27.3906 229.874 27.3906C230.468 27.3906 231.002 27.5 231.476 27.7188C231.955 27.9323 232.361 28.2344 232.694 28.625C233.033 29.0104 233.291 29.4661 233.468 29.9922C233.645 30.513 233.733 31.0781 233.733 31.6875V31.8672C233.733 32.4766 233.645 33.0417 233.468 33.5625C233.291 34.0833 233.033 34.5391 232.694 34.9297C232.361 35.3151 231.957 35.6172 231.483 35.8359C231.015 36.0495 230.483 36.1562 229.89 36.1562C229.296 36.1562 228.762 36.0495 228.288 35.8359C227.814 35.6172 227.408 35.3151 227.069 34.9297C226.736 34.5391 226.481 34.0833 226.304 33.5625C226.127 33.0417 226.038 32.4766 226.038 31.8672ZM227.483 31.6875V31.8672C227.483 32.2891 227.533 32.6875 227.632 33.0625C227.731 33.4323 227.879 33.7604 228.077 34.0469C228.28 34.3333 228.533 34.5599 228.835 34.7266C229.137 34.888 229.489 34.9688 229.89 34.9688C230.285 34.9688 230.632 34.888 230.929 34.7266C231.231 34.5599 231.481 34.3333 231.679 34.0469C231.877 33.7604 232.025 33.4323 232.124 33.0625C232.228 32.6875 232.28 32.2891 232.28 31.8672V31.6875C232.28 31.2708 232.228 30.8776 232.124 30.5078C232.025 30.1328 231.874 29.8021 231.671 29.5156C231.473 29.224 231.223 28.9948 230.921 28.8281C230.624 28.6615 230.275 28.5781 229.874 28.5781C229.478 28.5781 229.129 28.6615 228.827 28.8281C228.53 28.9948 228.28 29.224 228.077 29.5156C227.879 29.8021 227.731 30.1328 227.632 30.5078C227.533 30.8776 227.483 31.2708 227.483 31.6875ZM237.687 34.5L239.858 27.5469H240.812L240.624 28.9297L238.413 36H237.483L237.687 34.5ZM236.226 27.5469L238.077 34.5781L238.21 36H237.233L234.78 27.5469H236.226ZM242.89 34.5234L244.655 27.5469H246.093L243.64 36H242.671L242.89 34.5234ZM241.022 27.5469L243.147 34.3828L243.39 36H242.468L240.194 28.9141L240.007 27.5469H241.022ZM252.499 33.7578C252.499 33.5495 252.452 33.3568 252.358 33.1797C252.27 32.9974 252.085 32.8333 251.804 32.6875C251.528 32.5365 251.111 32.4062 250.554 32.2969C250.085 32.1979 249.66 32.0807 249.28 31.9453C248.905 31.8099 248.585 31.6458 248.319 31.4531C248.059 31.2604 247.858 31.0339 247.718 30.7734C247.577 30.513 247.507 30.2083 247.507 29.8594C247.507 29.526 247.58 29.2109 247.726 28.9141C247.877 28.6172 248.088 28.3542 248.358 28.125C248.634 27.8958 248.965 27.7161 249.351 27.5859C249.736 27.4557 250.166 27.3906 250.64 27.3906C251.317 27.3906 251.895 27.5104 252.374 27.75C252.853 27.9896 253.22 28.3099 253.476 28.7109C253.731 29.1068 253.858 29.5469 253.858 30.0312H252.413C252.413 29.7969 252.343 29.5703 252.202 29.3516C252.067 29.1276 251.866 28.9427 251.601 28.7969C251.34 28.651 251.02 28.5781 250.64 28.5781C250.239 28.5781 249.913 28.6406 249.663 28.7656C249.418 28.8854 249.239 29.0391 249.124 29.2266C249.015 29.4141 248.96 29.612 248.96 29.8203C248.96 29.9766 248.986 30.1172 249.038 30.2422C249.095 30.362 249.194 30.474 249.335 30.5781C249.476 30.6771 249.674 30.7708 249.929 30.8594C250.184 30.9479 250.509 31.0365 250.905 31.125C251.598 31.2812 252.168 31.4688 252.616 31.6875C253.064 31.9062 253.397 32.1745 253.616 32.4922C253.835 32.8099 253.944 33.1953 253.944 33.6484C253.944 34.0182 253.866 34.3568 253.71 34.6641C253.559 34.9714 253.338 35.237 253.046 35.4609C252.759 35.6797 252.416 35.8516 252.015 35.9766C251.619 36.0964 251.174 36.1562 250.679 36.1562C249.934 36.1562 249.304 36.0234 248.788 35.7578C248.272 35.4922 247.882 35.1484 247.616 34.7266C247.351 34.3047 247.218 33.8594 247.218 33.3906H248.671C248.692 33.7865 248.806 34.1016 249.015 34.3359C249.223 34.5651 249.478 34.7292 249.78 34.8281C250.082 34.9219 250.382 34.9688 250.679 34.9688C251.075 34.9688 251.405 34.9167 251.671 34.8125C251.942 34.7083 252.147 34.5651 252.288 34.3828C252.429 34.2005 252.499 33.9922 252.499 33.7578ZM257.155 34.2812V35.4453C257.155 35.9193 257.035 36.4193 256.796 36.9453C256.556 37.4766 256.22 37.9193 255.788 38.2734L254.968 37.7031C255.134 37.474 255.275 37.2396 255.39 37C255.504 36.7656 255.59 36.5208 255.647 36.2656C255.71 36.0156 255.741 35.75 255.741 35.4688V34.2812H257.155ZM264.413 29.3516V36H262.968V27.5469H264.335L264.413 29.3516ZM264.069 31.4531L263.468 31.4297C263.473 30.8516 263.559 30.3177 263.726 29.8281C263.892 29.3333 264.127 28.9036 264.429 28.5391C264.731 28.1745 265.09 27.8932 265.507 27.6953C265.929 27.4922 266.395 27.3906 266.905 27.3906C267.322 27.3906 267.697 27.4479 268.03 27.5625C268.364 27.6719 268.647 27.849 268.882 28.0938C269.121 28.3385 269.304 28.6562 269.429 29.0469C269.554 29.4323 269.616 29.9036 269.616 30.4609V36H268.163V30.4453C268.163 30.0026 268.098 29.6484 267.968 29.3828C267.838 29.112 267.647 28.9167 267.397 28.7969C267.147 28.6719 266.84 28.6094 266.476 28.6094C266.116 28.6094 265.788 28.6849 265.491 28.8359C265.2 28.987 264.947 29.1953 264.733 29.4609C264.525 29.7266 264.361 30.0312 264.241 30.375C264.127 30.7135 264.069 31.0729 264.069 31.4531ZM271.429 31.8672V31.6875C271.429 31.0781 271.517 30.513 271.694 29.9922C271.871 29.4661 272.127 29.0104 272.46 28.625C272.793 28.2344 273.197 27.9323 273.671 27.7188C274.145 27.5 274.676 27.3906 275.265 27.3906C275.858 27.3906 276.392 27.5 276.866 27.7188C277.345 27.9323 277.752 28.2344 278.085 28.625C278.424 29.0104 278.681 29.4661 278.858 29.9922C279.035 30.513 279.124 31.0781 279.124 31.6875V31.8672C279.124 32.4766 279.035 33.0417 278.858 33.5625C278.681 34.0833 278.424 34.5391 278.085 34.9297C277.752 35.3151 277.348 35.6172 276.874 35.8359C276.405 36.0495 275.874 36.1562 275.28 36.1562C274.687 36.1562 274.153 36.0495 273.679 35.8359C273.205 35.6172 272.799 35.3151 272.46 34.9297C272.127 34.5391 271.871 34.0833 271.694 33.5625C271.517 33.0417 271.429 32.4766 271.429 31.8672ZM272.874 31.6875V31.8672C272.874 32.2891 272.924 32.6875 273.022 33.0625C273.121 33.4323 273.27 33.7604 273.468 34.0469C273.671 34.3333 273.924 34.5599 274.226 34.7266C274.528 34.888 274.879 34.9688 275.28 34.9688C275.676 34.9688 276.022 34.888 276.319 34.7266C276.621 34.5599 276.871 34.3333 277.069 34.0469C277.267 33.7604 277.416 33.4323 277.515 33.0625C277.619 32.6875 277.671 32.2891 277.671 31.8672V31.6875C277.671 31.2708 277.619 30.8776 277.515 30.5078C277.416 30.1328 277.265 29.8021 277.062 29.5156C276.864 29.224 276.614 28.9948 276.312 28.8281C276.015 28.6615 275.666 28.5781 275.265 28.5781C274.869 28.5781 274.52 28.6615 274.218 28.8281C273.921 28.9948 273.671 29.224 273.468 29.5156C273.27 29.8021 273.121 30.1328 273.022 30.5078C272.924 30.8776 272.874 31.2708 272.874 31.6875ZM284.476 27.5469V28.6562H279.905V27.5469H284.476ZM281.452 25.4922H282.897V33.9062C282.897 34.1927 282.942 34.4089 283.03 34.5547C283.119 34.7005 283.233 34.7969 283.374 34.8438C283.515 34.8906 283.666 34.9141 283.827 34.9141C283.947 34.9141 284.072 34.9036 284.202 34.8828C284.338 34.8568 284.439 34.8359 284.507 34.8203L284.515 36C284.4 36.0365 284.249 36.0703 284.062 36.1016C283.879 36.138 283.658 36.1562 283.397 36.1562C283.043 36.1562 282.718 36.0859 282.421 35.9453C282.124 35.8047 281.887 35.5703 281.71 35.2422C281.538 34.9089 281.452 34.4609 281.452 33.8984V25.4922ZM295.062 33.7578C295.062 33.5495 295.015 33.3568 294.921 33.1797C294.832 32.9974 294.647 32.8333 294.366 32.6875C294.09 32.5365 293.674 32.4062 293.116 32.2969C292.647 32.1979 292.223 32.0807 291.843 31.9453C291.468 31.8099 291.147 31.6458 290.882 31.4531C290.621 31.2604 290.421 31.0339 290.28 30.7734C290.14 30.513 290.069 30.2083 290.069 29.8594C290.069 29.526 290.142 29.2109 290.288 28.9141C290.439 28.6172 290.65 28.3542 290.921 28.125C291.197 27.8958 291.528 27.7161 291.913 27.5859C292.299 27.4557 292.728 27.3906 293.202 27.3906C293.879 27.3906 294.457 27.5104 294.937 27.75C295.416 27.9896 295.783 28.3099 296.038 28.7109C296.293 29.1068 296.421 29.5469 296.421 30.0312H294.976C294.976 29.7969 294.905 29.5703 294.765 29.3516C294.629 29.1276 294.429 28.9427 294.163 28.7969C293.903 28.651 293.582 28.5781 293.202 28.5781C292.801 28.5781 292.476 28.6406 292.226 28.7656C291.981 28.8854 291.801 29.0391 291.687 29.2266C291.577 29.4141 291.522 29.612 291.522 29.8203C291.522 29.9766 291.549 30.1172 291.601 30.2422C291.658 30.362 291.757 30.474 291.897 30.5781C292.038 30.6771 292.236 30.7708 292.491 30.8594C292.746 30.9479 293.072 31.0365 293.468 31.125C294.16 31.2812 294.731 31.4688 295.179 31.6875C295.627 31.9062 295.96 32.1745 296.179 32.4922C296.397 32.8099 296.507 33.1953 296.507 33.6484C296.507 34.0182 296.429 34.3568 296.272 34.6641C296.121 34.9714 295.9 35.237 295.608 35.4609C295.322 35.6797 294.978 35.8516 294.577 35.9766C294.181 36.0964 293.736 36.1562 293.241 36.1562C292.496 36.1562 291.866 36.0234 291.351 35.7578C290.835 35.4922 290.444 35.1484 290.179 34.7266C289.913 34.3047 289.78 33.8594 289.78 33.3906H291.233C291.254 33.7865 291.369 34.1016 291.577 34.3359C291.785 34.5651 292.041 34.7292 292.343 34.8281C292.645 34.9219 292.944 34.9688 293.241 34.9688C293.637 34.9688 293.968 34.9167 294.233 34.8125C294.504 34.7083 294.71 34.5651 294.851 34.3828C294.991 34.2005 295.062 33.9922 295.062 33.7578ZM299.976 27.5469V36H298.522V27.5469H299.976ZM298.413 25.3047C298.413 25.0703 298.483 24.8724 298.624 24.7109C298.77 24.5495 298.983 24.4688 299.265 24.4688C299.541 24.4688 299.752 24.5495 299.897 24.7109C300.049 24.8724 300.124 25.0703 300.124 25.3047C300.124 25.5286 300.049 25.7214 299.897 25.8828C299.752 26.0391 299.541 26.1172 299.265 26.1172C298.983 26.1172 298.77 26.0391 298.624 25.8828C298.483 25.7214 298.413 25.5286 298.413 25.3047ZM307.624 34.3594V24H309.077V36H307.749L307.624 34.3594ZM301.937 31.8672V31.7031C301.937 31.0573 302.015 30.4714 302.171 29.9453C302.332 29.4141 302.559 28.9583 302.851 28.5781C303.147 28.1979 303.499 27.9062 303.905 27.7031C304.317 27.4948 304.775 27.3906 305.28 27.3906C305.812 27.3906 306.275 27.4844 306.671 27.6719C307.072 27.8542 307.41 28.1224 307.687 28.4766C307.968 28.8255 308.189 29.2474 308.351 29.7422C308.512 30.237 308.624 30.7969 308.687 31.4219V32.1406C308.629 32.7604 308.517 33.3177 308.351 33.8125C308.189 34.3073 307.968 34.7292 307.687 35.0781C307.41 35.4271 307.072 35.6953 306.671 35.8828C306.27 36.0651 305.801 36.1562 305.265 36.1562C304.77 36.1562 304.317 36.0495 303.905 35.8359C303.499 35.6224 303.147 35.3229 302.851 34.9375C302.559 34.5521 302.332 34.099 302.171 33.5781C302.015 33.0521 301.937 32.4818 301.937 31.8672ZM303.39 31.7031V31.8672C303.39 32.2891 303.431 32.6849 303.515 33.0547C303.603 33.4245 303.739 33.75 303.921 34.0312C304.103 34.3125 304.335 34.5339 304.616 34.6953C304.897 34.8516 305.233 34.9297 305.624 34.9297C306.103 34.9297 306.496 34.8281 306.804 34.625C307.116 34.4219 307.366 34.1536 307.554 33.8203C307.741 33.487 307.887 33.125 307.991 32.7344V30.8516C307.929 30.5651 307.838 30.2891 307.718 30.0234C307.603 29.7526 307.452 29.513 307.265 29.3047C307.082 29.0911 306.856 28.9219 306.585 28.7969C306.319 28.6719 306.004 28.6094 305.64 28.6094C305.244 28.6094 304.903 28.6927 304.616 28.8594C304.335 29.0208 304.103 29.2448 303.921 29.5312C303.739 29.8125 303.603 30.1406 303.515 30.5156C303.431 30.8854 303.39 31.2812 303.39 31.7031ZM314.835 36.1562C314.246 36.1562 313.713 36.0573 313.233 35.8594C312.759 35.6562 312.351 35.3724 312.007 35.0078C311.668 34.6432 311.408 34.2109 311.226 33.7109C311.043 33.2109 310.952 32.6641 310.952 32.0703V31.7422C310.952 31.0547 311.054 30.4427 311.257 29.9062C311.46 29.3646 311.736 28.9062 312.085 28.5312C312.434 28.1562 312.83 27.8724 313.272 27.6797C313.715 27.487 314.174 27.3906 314.647 27.3906C315.252 27.3906 315.772 27.4948 316.21 27.7031C316.653 27.9115 317.015 28.2031 317.296 28.5781C317.577 28.9479 317.785 29.3854 317.921 29.8906C318.056 30.3906 318.124 30.9375 318.124 31.5312V32.1797H311.812V31H316.679V30.8906C316.658 30.5156 316.58 30.151 316.444 29.7969C316.314 29.4427 316.106 29.151 315.819 28.9219C315.533 28.6927 315.142 28.5781 314.647 28.5781C314.319 28.5781 314.017 28.6484 313.741 28.7891C313.465 28.9245 313.228 29.1276 313.03 29.3984C312.832 29.6693 312.679 30 312.569 30.3906C312.46 30.7812 312.405 31.2318 312.405 31.7422V32.0703C312.405 32.4714 312.46 32.849 312.569 33.2031C312.684 33.5521 312.848 33.8594 313.062 34.125C313.28 34.3906 313.543 34.599 313.851 34.75C314.163 34.901 314.517 34.9766 314.913 34.9766C315.424 34.9766 315.856 34.8724 316.21 34.6641C316.564 34.4557 316.874 34.1771 317.14 33.8281L318.015 34.5234C317.832 34.7995 317.601 35.0625 317.319 35.3125C317.038 35.5625 316.692 35.7656 316.28 35.9219C315.874 36.0781 315.392 36.1562 314.835 36.1562ZM327.288 36.1562C326.7 36.1562 326.166 36.0573 325.687 35.8594C325.213 35.6562 324.804 35.3724 324.46 35.0078C324.121 34.6432 323.861 34.2109 323.679 33.7109C323.496 33.2109 323.405 32.6641 323.405 32.0703V31.7422C323.405 31.0547 323.507 30.4427 323.71 29.9062C323.913 29.3646 324.189 28.9062 324.538 28.5312C324.887 28.1562 325.283 27.8724 325.726 27.6797C326.168 27.487 326.627 27.3906 327.101 27.3906C327.705 27.3906 328.226 27.4948 328.663 27.7031C329.106 27.9115 329.468 28.2031 329.749 28.5781C330.03 28.9479 330.239 29.3854 330.374 29.8906C330.509 30.3906 330.577 30.9375 330.577 31.5312V32.1797H324.265V31H329.132V30.8906C329.111 30.5156 329.033 30.151 328.897 29.7969C328.767 29.4427 328.559 29.151 328.272 28.9219C327.986 28.6927 327.595 28.5781 327.101 28.5781C326.772 28.5781 326.47 28.6484 326.194 28.7891C325.918 28.9245 325.681 29.1276 325.483 29.3984C325.285 29.6693 325.132 30 325.022 30.3906C324.913 30.7812 324.858 31.2318 324.858 31.7422V32.0703C324.858 32.4714 324.913 32.849 325.022 33.2031C325.137 33.5521 325.301 33.8594 325.515 34.125C325.733 34.3906 325.996 34.599 326.304 34.75C326.616 34.901 326.97 34.9766 327.366 34.9766C327.877 34.9766 328.309 34.8724 328.663 34.6641C329.017 34.4557 329.327 34.1771 329.593 33.8281L330.468 34.5234C330.285 34.7995 330.054 35.0625 329.772 35.3125C329.491 35.5625 329.145 35.7656 328.733 35.9219C328.327 36.0781 327.845 36.1562 327.288 36.1562ZM333.241 27.5469L335.093 30.625L336.968 27.5469H338.663L335.897 31.7188L338.749 36H337.077L335.124 32.8281L333.171 36H331.491L334.335 31.7188L331.577 27.5469H333.241ZM341.647 29.1719V39.25H340.194V27.5469H341.522L341.647 29.1719ZM347.343 31.7031V31.8672C347.343 32.4818 347.27 33.0521 347.124 33.5781C346.978 34.099 346.765 34.5521 346.483 34.9375C346.207 35.3229 345.866 35.6224 345.46 35.8359C345.054 36.0495 344.588 36.1562 344.062 36.1562C343.525 36.1562 343.051 36.0677 342.64 35.8906C342.228 35.7135 341.879 35.4557 341.593 35.1172C341.306 34.7786 341.077 34.3724 340.905 33.8984C340.739 33.4245 340.624 32.8906 340.562 32.2969V31.4219C340.624 30.7969 340.741 30.237 340.913 29.7422C341.085 29.2474 341.312 28.8255 341.593 28.4766C341.879 28.1224 342.226 27.8542 342.632 27.6719C343.038 27.4844 343.507 27.3906 344.038 27.3906C344.569 27.3906 345.041 27.4948 345.452 27.7031C345.864 27.9062 346.21 28.1979 346.491 28.5781C346.772 28.9583 346.983 29.4141 347.124 29.9453C347.27 30.4714 347.343 31.0573 347.343 31.7031ZM345.89 31.8672V31.7031C345.89 31.2812 345.845 30.8854 345.757 30.5156C345.668 30.1406 345.53 29.8125 345.343 29.5312C345.16 29.2448 344.926 29.0208 344.64 28.8594C344.353 28.6927 344.012 28.6094 343.616 28.6094C343.252 28.6094 342.934 28.6719 342.663 28.7969C342.397 28.9219 342.171 29.0911 341.983 29.3047C341.796 29.513 341.642 29.7526 341.522 30.0234C341.408 30.2891 341.322 30.5651 341.265 30.8516V32.875C341.369 33.2396 341.515 33.5833 341.702 33.9062C341.89 34.224 342.14 34.4818 342.452 34.6797C342.765 34.8724 343.158 34.9688 343.632 34.9688C344.022 34.9688 344.358 34.888 344.64 34.7266C344.926 34.5599 345.16 34.3333 345.343 34.0469C345.53 33.7604 345.668 33.4323 345.757 33.0625C345.845 32.6875 345.89 32.2891 345.89 31.8672ZM352.694 36.1562C352.106 36.1562 351.572 36.0573 351.093 35.8594C350.619 35.6562 350.21 35.3724 349.866 35.0078C349.528 34.6432 349.267 34.2109 349.085 33.7109C348.903 33.2109 348.812 32.6641 348.812 32.0703V31.7422C348.812 31.0547 348.913 30.4427 349.116 29.9062C349.319 29.3646 349.595 28.9062 349.944 28.5312C350.293 28.1562 350.689 27.8724 351.132 27.6797C351.575 27.487 352.033 27.3906 352.507 27.3906C353.111 27.3906 353.632 27.4948 354.069 27.7031C354.512 27.9115 354.874 28.2031 355.155 28.5781C355.437 28.9479 355.645 29.3854 355.78 29.8906C355.916 30.3906 355.983 30.9375 355.983 31.5312V32.1797H349.671V31H354.538V30.8906C354.517 30.5156 354.439 30.151 354.304 29.7969C354.174 29.4427 353.965 29.151 353.679 28.9219C353.392 28.6927 353.002 28.5781 352.507 28.5781C352.179 28.5781 351.877 28.6484 351.601 28.7891C351.325 28.9245 351.088 29.1276 350.89 29.3984C350.692 29.6693 350.538 30 350.429 30.3906C350.319 30.7812 350.265 31.2318 350.265 31.7422V32.0703C350.265 32.4714 350.319 32.849 350.429 33.2031C350.543 33.5521 350.707 33.8594 350.921 34.125C351.14 34.3906 351.403 34.599 351.71 34.75C352.022 34.901 352.377 34.9766 352.772 34.9766C353.283 34.9766 353.715 34.8724 354.069 34.6641C354.424 34.4557 354.733 34.1771 354.999 33.8281L355.874 34.5234C355.692 34.7995 355.46 35.0625 355.179 35.3125C354.897 35.5625 354.551 35.7656 354.14 35.9219C353.733 36.0781 353.252 36.1562 352.694 36.1562ZM359.116 28.875V36H357.671V27.5469H359.077L359.116 28.875ZM361.757 27.5L361.749 28.8438C361.629 28.8177 361.515 28.8021 361.405 28.7969C361.301 28.7865 361.181 28.7812 361.046 28.7812C360.713 28.7812 360.418 28.8333 360.163 28.9375C359.908 29.0417 359.692 29.1875 359.515 29.375C359.338 29.5625 359.197 29.7865 359.093 30.0469C358.994 30.3021 358.929 30.5833 358.897 30.8906L358.491 31.125C358.491 30.6146 358.541 30.1354 358.64 29.6875C358.744 29.2396 358.903 28.8438 359.116 28.5C359.33 28.151 359.601 27.8802 359.929 27.6875C360.262 27.4896 360.658 27.3906 361.116 27.3906C361.22 27.3906 361.34 27.4036 361.476 27.4297C361.611 27.4505 361.705 27.474 361.757 27.5ZM364.663 27.5469V36H363.21V27.5469H364.663ZM363.101 25.3047C363.101 25.0703 363.171 24.8724 363.312 24.7109C363.457 24.5495 363.671 24.4688 363.952 24.4688C364.228 24.4688 364.439 24.5495 364.585 24.7109C364.736 24.8724 364.812 25.0703 364.812 25.3047C364.812 25.5286 364.736 25.7214 364.585 25.8828C364.439 26.0391 364.228 26.1172 363.952 26.1172C363.671 26.1172 363.457 26.0391 363.312 25.8828C363.171 25.7214 363.101 25.5286 363.101 25.3047ZM368.421 29.2266V36H366.968V27.5469H368.343L368.421 29.2266ZM368.124 31.4531L367.452 31.4297C367.457 30.8516 367.533 30.3177 367.679 29.8281C367.825 29.3333 368.041 28.9036 368.327 28.5391C368.614 28.1745 368.97 27.8932 369.397 27.6953C369.825 27.4922 370.319 27.3906 370.882 27.3906C371.278 27.3906 371.642 27.4479 371.976 27.5625C372.309 27.6719 372.598 27.8464 372.843 28.0859C373.088 28.3255 373.278 28.6328 373.413 29.0078C373.549 29.3828 373.616 29.8359 373.616 30.3672V36H372.171V30.4375C372.171 29.9948 372.095 29.6406 371.944 29.375C371.799 29.1094 371.59 28.9167 371.319 28.7969C371.049 28.6719 370.731 28.6094 370.366 28.6094C369.939 28.6094 369.582 28.6849 369.296 28.8359C369.009 28.987 368.78 29.1953 368.608 29.4609C368.437 29.7266 368.312 30.0312 368.233 30.375C368.16 30.7135 368.124 31.0729 368.124 31.4531ZM373.601 30.6562L372.632 30.9531C372.637 30.4896 372.713 30.0443 372.858 29.6172C373.009 29.1901 373.226 28.8099 373.507 28.4766C373.793 28.1432 374.145 27.8802 374.562 27.6875C374.978 27.4896 375.455 27.3906 375.991 27.3906C376.444 27.3906 376.845 27.4505 377.194 27.5703C377.549 27.6901 377.845 27.875 378.085 28.125C378.33 28.3698 378.515 28.6849 378.64 29.0703C378.765 29.4557 378.827 29.9141 378.827 30.4453V36H377.374V30.4297C377.374 29.9557 377.299 29.5885 377.147 29.3281C377.002 29.0625 376.793 28.8776 376.522 28.7734C376.257 28.6641 375.939 28.6094 375.569 28.6094C375.252 28.6094 374.97 28.6641 374.726 28.7734C374.481 28.8828 374.275 29.0339 374.108 29.2266C373.942 29.4141 373.814 29.6302 373.726 29.875C373.642 30.1198 373.601 30.3802 373.601 30.6562ZM384.522 36.1562C383.934 36.1562 383.4 36.0573 382.921 35.8594C382.447 35.6562 382.038 35.3724 381.694 35.0078C381.356 34.6432 381.095 34.2109 380.913 33.7109C380.731 33.2109 380.64 32.6641 380.64 32.0703V31.7422C380.64 31.0547 380.741 30.4427 380.944 29.9062C381.147 29.3646 381.424 28.9062 381.772 28.5312C382.121 28.1562 382.517 27.8724 382.96 27.6797C383.403 27.487 383.861 27.3906 384.335 27.3906C384.939 27.3906 385.46 27.4948 385.897 27.7031C386.34 27.9115 386.702 28.2031 386.983 28.5781C387.265 28.9479 387.473 29.3854 387.608 29.8906C387.744 30.3906 387.812 30.9375 387.812 31.5312V32.1797H381.499V31H386.366V30.8906C386.345 30.5156 386.267 30.151 386.132 29.7969C386.002 29.4427 385.793 29.151 385.507 28.9219C385.22 28.6927 384.83 28.5781 384.335 28.5781C384.007 28.5781 383.705 28.6484 383.429 28.7891C383.153 28.9245 382.916 29.1276 382.718 29.3984C382.52 29.6693 382.366 30 382.257 30.3906C382.147 30.7812 382.093 31.2318 382.093 31.7422V32.0703C382.093 32.4714 382.147 32.849 382.257 33.2031C382.371 33.5521 382.535 33.8594 382.749 34.125C382.968 34.3906 383.231 34.599 383.538 34.75C383.851 34.901 384.205 34.9766 384.601 34.9766C385.111 34.9766 385.543 34.8724 385.897 34.6641C386.252 34.4557 386.562 34.1771 386.827 33.8281L387.702 34.5234C387.52 34.7995 387.288 35.0625 387.007 35.3125C386.726 35.5625 386.379 35.7656 385.968 35.9219C385.562 36.0781 385.08 36.1562 384.522 36.1562ZM390.944 29.3516V36H389.499V27.5469H390.866L390.944 29.3516ZM390.601 31.4531L389.999 31.4297C390.004 30.8516 390.09 30.3177 390.257 29.8281C390.424 29.3333 390.658 28.9036 390.96 28.5391C391.262 28.1745 391.621 27.8932 392.038 27.6953C392.46 27.4922 392.926 27.3906 393.437 27.3906C393.853 27.3906 394.228 27.4479 394.562 27.5625C394.895 27.6719 395.179 27.849 395.413 28.0938C395.653 28.3385 395.835 28.6562 395.96 29.0469C396.085 29.4323 396.147 29.9036 396.147 30.4609V36H394.694V30.4453C394.694 30.0026 394.629 29.6484 394.499 29.3828C394.369 29.112 394.179 28.9167 393.929 28.7969C393.679 28.6719 393.371 28.6094 393.007 28.6094C392.647 28.6094 392.319 28.6849 392.022 28.8359C391.731 28.987 391.478 29.1953 391.265 29.4609C391.056 29.7266 390.892 30.0312 390.772 30.375C390.658 30.7135 390.601 31.0729 390.601 31.4531ZM401.882 27.5469V28.6562H397.312V27.5469H401.882ZM398.858 25.4922H400.304V33.9062C400.304 34.1927 400.348 34.4089 400.437 34.5547C400.525 34.7005 400.64 34.7969 400.78 34.8438C400.921 34.8906 401.072 34.9141 401.233 34.9141C401.353 34.9141 401.478 34.9036 401.608 34.8828C401.744 34.8568 401.845 34.8359 401.913 34.8203L401.921 36C401.806 36.0365 401.655 36.0703 401.468 36.1016C401.285 36.138 401.064 36.1562 400.804 36.1562C400.45 36.1562 400.124 36.0859 399.827 35.9453C399.53 35.8047 399.293 35.5703 399.116 35.2422C398.944 34.9089 398.858 34.4609 398.858 33.8984V25.4922ZM408.499 33.7578C408.499 33.5495 408.452 33.3568 408.358 33.1797C408.27 32.9974 408.085 32.8333 407.804 32.6875C407.528 32.5365 407.111 32.4062 406.554 32.2969C406.085 32.1979 405.66 32.0807 405.28 31.9453C404.905 31.8099 404.585 31.6458 404.319 31.4531C404.059 31.2604 403.858 31.0339 403.718 30.7734C403.577 30.513 403.507 30.2083 403.507 29.8594C403.507 29.526 403.58 29.2109 403.726 28.9141C403.877 28.6172 404.088 28.3542 404.358 28.125C404.634 27.8958 404.965 27.7161 405.351 27.5859C405.736 27.4557 406.166 27.3906 406.64 27.3906C407.317 27.3906 407.895 27.5104 408.374 27.75C408.853 27.9896 409.22 28.3099 409.476 28.7109C409.731 29.1068 409.858 29.5469 409.858 30.0312H408.413C408.413 29.7969 408.343 29.5703 408.202 29.3516C408.067 29.1276 407.866 28.9427 407.601 28.7969C407.34 28.651 407.02 28.5781 406.64 28.5781C406.239 28.5781 405.913 28.6406 405.663 28.7656C405.418 28.8854 405.239 29.0391 405.124 29.2266C405.015 29.4141 404.96 29.612 404.96 29.8203C404.96 29.9766 404.986 30.1172 405.038 30.2422C405.095 30.362 405.194 30.474 405.335 30.5781C405.476 30.6771 405.674 30.7708 405.929 30.8594C406.184 30.9479 406.509 31.0365 406.905 31.125C407.598 31.2812 408.168 31.4688 408.616 31.6875C409.064 31.9062 409.397 32.1745 409.616 32.4922C409.835 32.8099 409.944 33.1953 409.944 33.6484C409.944 34.0182 409.866 34.3568 409.71 34.6641C409.559 34.9714 409.338 35.237 409.046 35.4609C408.759 35.6797 408.416 35.8516 408.015 35.9766C407.619 36.0964 407.174 36.1562 406.679 36.1562C405.934 36.1562 405.304 36.0234 404.788 35.7578C404.272 35.4922 403.882 35.1484 403.616 34.7266C403.351 34.3047 403.218 33.8594 403.218 33.3906H404.671C404.692 33.7865 404.806 34.1016 405.015 34.3359C405.223 34.5651 405.478 34.7292 405.78 34.8281C406.082 34.9219 406.382 34.9688 406.679 34.9688C407.075 34.9688 407.405 34.9167 407.671 34.8125C407.942 34.7083 408.147 34.5651 408.288 34.3828C408.429 34.2005 408.499 33.9922 408.499 33.7578Z" fill="#2D3139"/>
</g>
<defs>
<filter id="filter0_di_7916_14772" x="0.983398" y="0" width="472" height="66" filterUnits="userSpaceOnUse" color-interpolation-filters="sRGB">
<feFlood flood-opacity="0" result="BackgroundImageFix"/>
<feColorMatrix in="SourceAlpha" type="matrix" values="0 0 0 0 0 0 0 0 0 0 0 0 0 0 0 0 0 0 127 0" result="hardAlpha"/>
<feOffset dy="1"/>
<feGaussianBlur stdDeviation="1.5"/>
<feComposite in2="hardAlpha" operator="out"/>
<feColorMatrix type="matrix" values="0 0 0 0 0.121569 0 0 0 0 0.133333 0 0 0 0 0.160784 0 0 0 0.08 0"/>
<feBlend mode="normal" in2="BackgroundImageFix" result="effect1_dropShadow_7916_14772"/>
<feBlend mode="normal" in="SourceGraphic" in2="effect1_dropShadow_7916_14772" result="shape"/>
<feColorMatrix in="SourceAlpha" type="matrix" values="0 0 0 0 0 0 0 0 0 0 0 0 0 0 0 0 0 0 127 0" result="hardAlpha"/>
<feMorphology radius="1" operator="erode" in="SourceAlpha" result="effect2_innerShadow_7916_14772"/>
<feOffset/>
<feComposite in2="hardAlpha" operator="arithmetic" k2="-1" k3="1"/>
<feColorMatrix type="matrix" values="0 0 0 0 0.882353 0 0 0 0 0.898039 0 0 0 0 0.921569 0 0 0 1 0"/>
<feBlend mode="normal" in2="shape" result="effect2_innerShadow_7916_14772"/>
</filter>
</defs>
</svg>
