<svg width="473" height="66" viewBox="0 0 473 66" fill="none" xmlns="http://www.w3.org/2000/svg">
<g filter="url(#filter0_di_7916_14784)">
<rect x="3.9834" y="2" width="466" height="60" rx="4" fill="white"/>
<g clip-path="url(#clip0_7916_14784)">
<path d="M26.3988 41.75H45.8988V28.75H26.3988M41.5654 35.25H22.0654V22.25H41.5654" stroke="#282828" stroke-width="2.16667"/>
</g>
<path d="M72.3975 38H70.0225L70.0381 36.7734H72.3975C73.21 36.7734 73.887 36.6042 74.4287 36.2656C74.9704 35.9219 75.3766 35.4427 75.6475 34.8281C75.9235 34.2083 76.0615 33.4844 76.0615 32.6562V31.9609C76.0615 31.3099 75.9834 30.7318 75.8271 30.2266C75.6709 29.7161 75.4417 29.2865 75.1396 28.9375C74.8376 28.5833 74.4678 28.3151 74.0303 28.1328C73.598 27.9505 73.1006 27.8594 72.5381 27.8594H69.9756V26.625H72.5381C73.2829 26.625 73.9626 26.75 74.5771 27C75.1917 27.2448 75.7204 27.6016 76.1631 28.0703C76.611 28.5339 76.9548 29.0964 77.1943 29.7578C77.4339 30.4141 77.5537 31.1536 77.5537 31.9766V32.6562C77.5537 33.4792 77.4339 34.2214 77.1943 34.8828C76.9548 35.5391 76.6084 36.099 76.1553 36.5625C75.7074 37.026 75.1657 37.3828 74.5303 37.6328C73.9001 37.8776 73.1891 38 72.3975 38ZM70.8271 26.625V38H69.3193V26.625H70.8271ZM81.0459 30.875V38H79.6006V29.5469H81.0068L81.0459 30.875ZM83.6865 29.5L83.6787 30.8438C83.5589 30.8177 83.4443 30.8021 83.335 30.7969C83.2308 30.7865 83.111 30.7812 82.9756 30.7812C82.6423 30.7812 82.348 30.8333 82.0928 30.9375C81.8376 31.0417 81.6214 31.1875 81.4443 31.375C81.2673 31.5625 81.1266 31.7865 81.0225 32.0469C80.9235 32.3021 80.8584 32.5833 80.8271 32.8906L80.4209 33.125C80.4209 32.6146 80.4704 32.1354 80.5693 31.6875C80.6735 31.2396 80.8324 30.8438 81.0459 30.5C81.2594 30.151 81.5303 29.8802 81.8584 29.6875C82.1917 29.4896 82.5876 29.3906 83.0459 29.3906C83.1501 29.3906 83.2699 29.4036 83.4053 29.4297C83.5407 29.4505 83.6344 29.474 83.6865 29.5ZM86.5928 29.5469V38H85.1396V29.5469H86.5928ZM85.0303 27.3047C85.0303 27.0703 85.1006 26.8724 85.2412 26.7109C85.387 26.5495 85.6006 26.4688 85.8818 26.4688C86.1579 26.4688 86.3688 26.5495 86.5146 26.7109C86.6657 26.8724 86.7412 27.0703 86.7412 27.3047C86.7412 27.5286 86.6657 27.7214 86.5146 27.8828C86.3688 28.0391 86.1579 28.1172 85.8818 28.1172C85.6006 28.1172 85.387 28.0391 85.2412 27.8828C85.1006 27.7214 85.0303 27.5286 85.0303 27.3047ZM91.4834 36.6953L93.7959 29.5469H95.2725L92.2334 38H91.2646L91.4834 36.6953ZM89.5537 29.5469L91.9365 36.7344L92.1006 38H91.1318L88.0693 29.5469H89.5537ZM100.062 38.1562C99.473 38.1562 98.9391 38.0573 98.46 37.8594C97.986 37.6562 97.5771 37.3724 97.2334 37.0078C96.8949 36.6432 96.6344 36.2109 96.4521 35.7109C96.2699 35.2109 96.1787 34.6641 96.1787 34.0703V33.7422C96.1787 33.0547 96.2803 32.4427 96.4834 31.9062C96.6865 31.3646 96.9626 30.9062 97.3115 30.5312C97.6605 30.1562 98.0563 29.8724 98.499 29.6797C98.9417 29.487 99.4001 29.3906 99.874 29.3906C100.478 29.3906 100.999 29.4948 101.437 29.7031C101.879 29.9115 102.241 30.2031 102.522 30.5781C102.804 30.9479 103.012 31.3854 103.147 31.8906C103.283 32.3906 103.351 32.9375 103.351 33.5312V34.1797H97.0381V33H101.905V32.8906C101.884 32.5156 101.806 32.151 101.671 31.7969C101.541 31.4427 101.332 31.151 101.046 30.9219C100.759 30.6927 100.369 30.5781 99.874 30.5781C99.5459 30.5781 99.2438 30.6484 98.9678 30.7891C98.6917 30.9245 98.4548 31.1276 98.2568 31.3984C98.0589 31.6693 97.9053 32 97.7959 32.3906C97.6865 32.7812 97.6318 33.2318 97.6318 33.7422V34.0703C97.6318 34.4714 97.6865 34.849 97.7959 35.2031C97.9105 35.5521 98.0745 35.8594 98.2881 36.125C98.5068 36.3906 98.7699 36.599 99.0771 36.75C99.3896 36.901 99.7438 36.9766 100.14 36.9766C100.65 36.9766 101.082 36.8724 101.437 36.6641C101.791 36.4557 102.101 36.1771 102.366 35.8281L103.241 36.5234C103.059 36.7995 102.827 37.0625 102.546 37.3125C102.265 37.5625 101.918 37.7656 101.507 37.9219C101.101 38.0781 100.619 38.1562 100.062 38.1562ZM113.991 36.5547V32.2031C113.991 31.8698 113.924 31.5807 113.788 31.3359C113.658 31.0859 113.46 30.8932 113.194 30.7578C112.929 30.6224 112.601 30.5547 112.21 30.5547C111.845 30.5547 111.525 30.6172 111.249 30.7422C110.978 30.8672 110.765 31.0312 110.608 31.2344C110.457 31.4375 110.382 31.6562 110.382 31.8906H108.937C108.937 31.5885 109.015 31.2891 109.171 30.9922C109.327 30.6953 109.551 30.4271 109.843 30.1875C110.14 29.9427 110.494 29.75 110.905 29.6094C111.322 29.4635 111.785 29.3906 112.296 29.3906C112.91 29.3906 113.452 29.4948 113.921 29.7031C114.395 29.9115 114.765 30.2266 115.03 30.6484C115.301 31.0651 115.437 31.5885 115.437 32.2188V36.1562C115.437 36.4375 115.46 36.737 115.507 37.0547C115.559 37.3724 115.634 37.6458 115.733 37.875V38H114.226C114.153 37.8333 114.095 37.612 114.054 37.3359C114.012 37.0547 113.991 36.7943 113.991 36.5547ZM114.241 32.875L114.257 33.8906H112.796C112.384 33.8906 112.017 33.9245 111.694 33.9922C111.371 34.0547 111.101 34.151 110.882 34.2812C110.663 34.4115 110.496 34.5755 110.382 34.7734C110.267 34.9661 110.21 35.1927 110.21 35.4531C110.21 35.7188 110.27 35.9609 110.39 36.1797C110.509 36.3984 110.689 36.5729 110.929 36.7031C111.174 36.8281 111.473 36.8906 111.827 36.8906C112.27 36.8906 112.66 36.7969 112.999 36.6094C113.338 36.4219 113.606 36.1927 113.804 35.9219C114.007 35.651 114.116 35.388 114.132 35.1328L114.749 35.8281C114.713 36.0469 114.614 36.2891 114.452 36.5547C114.291 36.8203 114.075 37.0755 113.804 37.3203C113.538 37.5599 113.22 37.7604 112.851 37.9219C112.486 38.0781 112.075 38.1562 111.616 38.1562C111.043 38.1562 110.541 38.0443 110.108 37.8203C109.681 37.5964 109.348 37.2969 109.108 36.9219C108.874 36.5417 108.757 36.1172 108.757 35.6484C108.757 35.1953 108.845 34.7969 109.022 34.4531C109.2 34.1042 109.455 33.8151 109.788 33.5859C110.121 33.3516 110.522 33.1745 110.991 33.0547C111.46 32.9349 111.983 32.875 112.562 32.875H114.241ZM123.038 36.3594V26H124.491V38H123.163L123.038 36.3594ZM117.351 33.8672V33.7031C117.351 33.0573 117.429 32.4714 117.585 31.9453C117.746 31.4141 117.973 30.9583 118.265 30.5781C118.562 30.1979 118.913 29.9062 119.319 29.7031C119.731 29.4948 120.189 29.3906 120.694 29.3906C121.226 29.3906 121.689 29.4844 122.085 29.6719C122.486 29.8542 122.825 30.1224 123.101 30.4766C123.382 30.8255 123.603 31.2474 123.765 31.7422C123.926 32.237 124.038 32.7969 124.101 33.4219V34.1406C124.043 34.7604 123.931 35.3177 123.765 35.8125C123.603 36.3073 123.382 36.7292 123.101 37.0781C122.825 37.4271 122.486 37.6953 122.085 37.8828C121.684 38.0651 121.215 38.1562 120.679 38.1562C120.184 38.1562 119.731 38.0495 119.319 37.8359C118.913 37.6224 118.562 37.3229 118.265 36.9375C117.973 36.5521 117.746 36.099 117.585 35.5781C117.429 35.0521 117.351 34.4818 117.351 33.8672ZM118.804 33.7031V33.8672C118.804 34.2891 118.845 34.6849 118.929 35.0547C119.017 35.4245 119.153 35.75 119.335 36.0312C119.517 36.3125 119.749 36.5339 120.03 36.6953C120.312 36.8516 120.647 36.9297 121.038 36.9297C121.517 36.9297 121.91 36.8281 122.218 36.625C122.53 36.4219 122.78 36.1536 122.968 35.8203C123.155 35.487 123.301 35.125 123.405 34.7344V32.8516C123.343 32.5651 123.252 32.2891 123.132 32.0234C123.017 31.7526 122.866 31.513 122.679 31.3047C122.496 31.0911 122.27 30.9219 121.999 30.7969C121.733 30.6719 121.418 30.6094 121.054 30.6094C120.658 30.6094 120.317 30.6927 120.03 30.8594C119.749 31.0208 119.517 31.2448 119.335 31.5312C119.153 31.8125 119.017 32.1406 118.929 32.5156C118.845 32.8854 118.804 33.2812 118.804 33.7031ZM126.358 33.8672V33.6875C126.358 33.0781 126.447 32.513 126.624 31.9922C126.801 31.4661 127.056 31.0104 127.39 30.625C127.723 30.2344 128.127 29.9323 128.601 29.7188C129.075 29.5 129.606 29.3906 130.194 29.3906C130.788 29.3906 131.322 29.5 131.796 29.7188C132.275 29.9323 132.681 30.2344 133.015 30.625C133.353 31.0104 133.611 31.4661 133.788 31.9922C133.965 32.513 134.054 33.0781 134.054 33.6875V33.8672C134.054 34.4766 133.965 35.0417 133.788 35.5625C133.611 36.0833 133.353 36.5391 133.015 36.9297C132.681 37.3151 132.278 37.6172 131.804 37.8359C131.335 38.0495 130.804 38.1562 130.21 38.1562C129.616 38.1562 129.082 38.0495 128.608 37.8359C128.134 37.6172 127.728 37.3151 127.39 36.9297C127.056 36.5391 126.801 36.0833 126.624 35.5625C126.447 35.0417 126.358 34.4766 126.358 33.8672ZM127.804 33.6875V33.8672C127.804 34.2891 127.853 34.6875 127.952 35.0625C128.051 35.4323 128.2 35.7604 128.397 36.0469C128.601 36.3333 128.853 36.5599 129.155 36.7266C129.457 36.888 129.809 36.9688 130.21 36.9688C130.606 36.9688 130.952 36.888 131.249 36.7266C131.551 36.5599 131.801 36.3333 131.999 36.0469C132.197 35.7604 132.345 35.4323 132.444 35.0625C132.549 34.6875 132.601 34.2891 132.601 33.8672V33.6875C132.601 33.2708 132.549 32.8776 132.444 32.5078C132.345 32.1328 132.194 31.8021 131.991 31.5156C131.793 31.224 131.543 30.9948 131.241 30.8281C130.944 30.6615 130.595 30.5781 130.194 30.5781C129.799 30.5781 129.45 30.6615 129.147 30.8281C128.851 30.9948 128.601 31.224 128.397 31.5156C128.2 31.8021 128.051 32.1328 127.952 32.5078C127.853 32.8776 127.804 33.2708 127.804 33.6875ZM137.312 31.1719V41.25H135.858V29.5469H137.187L137.312 31.1719ZM143.007 33.7031V33.8672C143.007 34.4818 142.934 35.0521 142.788 35.5781C142.642 36.099 142.429 36.5521 142.147 36.9375C141.871 37.3229 141.53 37.6224 141.124 37.8359C140.718 38.0495 140.252 38.1562 139.726 38.1562C139.189 38.1562 138.715 38.0677 138.304 37.8906C137.892 37.7135 137.543 37.4557 137.257 37.1172C136.97 36.7786 136.741 36.3724 136.569 35.8984C136.403 35.4245 136.288 34.8906 136.226 34.2969V33.4219C136.288 32.7969 136.405 32.237 136.577 31.7422C136.749 31.2474 136.976 30.8255 137.257 30.4766C137.543 30.1224 137.89 29.8542 138.296 29.6719C138.702 29.4844 139.171 29.3906 139.702 29.3906C140.233 29.3906 140.705 29.4948 141.116 29.7031C141.528 29.9062 141.874 30.1979 142.155 30.5781C142.437 30.9583 142.647 31.4141 142.788 31.9453C142.934 32.4714 143.007 33.0573 143.007 33.7031ZM141.554 33.8672V33.7031C141.554 33.2812 141.509 32.8854 141.421 32.5156C141.332 32.1406 141.194 31.8125 141.007 31.5312C140.825 31.2448 140.59 31.0208 140.304 30.8594C140.017 30.6927 139.676 30.6094 139.28 30.6094C138.916 30.6094 138.598 30.6719 138.327 30.7969C138.062 30.9219 137.835 31.0911 137.647 31.3047C137.46 31.513 137.306 31.7526 137.187 32.0234C137.072 32.2891 136.986 32.5651 136.929 32.8516V34.875C137.033 35.2396 137.179 35.5833 137.366 35.9062C137.554 36.224 137.804 36.4818 138.116 36.6797C138.429 36.8724 138.822 36.9688 139.296 36.9688C139.687 36.9688 140.022 36.888 140.304 36.7266C140.59 36.5599 140.825 36.3333 141.007 36.0469C141.194 35.7604 141.332 35.4323 141.421 35.0625C141.509 34.6875 141.554 34.2891 141.554 33.8672ZM148.39 29.5469V30.6562H143.819V29.5469H148.39ZM145.366 27.4922H146.812V35.9062C146.812 36.1927 146.856 36.4089 146.944 36.5547C147.033 36.7005 147.147 36.7969 147.288 36.8438C147.429 36.8906 147.58 36.9141 147.741 36.9141C147.861 36.9141 147.986 36.9036 148.116 36.8828C148.252 36.8568 148.353 36.8359 148.421 36.8203L148.429 38C148.314 38.0365 148.163 38.0703 147.976 38.1016C147.793 38.138 147.572 38.1562 147.312 38.1562C146.957 38.1562 146.632 38.0859 146.335 37.9453C146.038 37.8047 145.801 37.5703 145.624 37.2422C145.452 36.9089 145.366 36.4609 145.366 35.8984V27.4922ZM151.655 29.5469V38H150.202V29.5469H151.655ZM150.093 27.3047C150.093 27.0703 150.163 26.8724 150.304 26.7109C150.45 26.5495 150.663 26.4688 150.944 26.4688C151.22 26.4688 151.431 26.5495 151.577 26.7109C151.728 26.8724 151.804 27.0703 151.804 27.3047C151.804 27.5286 151.728 27.7214 151.577 27.8828C151.431 28.0391 151.22 28.1172 150.944 28.1172C150.663 28.1172 150.45 28.0391 150.304 27.8828C150.163 27.7214 150.093 27.5286 150.093 27.3047ZM153.593 33.8672V33.6875C153.593 33.0781 153.681 32.513 153.858 31.9922C154.035 31.4661 154.291 31.0104 154.624 30.625C154.957 30.2344 155.361 29.9323 155.835 29.7188C156.309 29.5 156.84 29.3906 157.429 29.3906C158.022 29.3906 158.556 29.5 159.03 29.7188C159.509 29.9323 159.916 30.2344 160.249 30.625C160.588 31.0104 160.845 31.4661 161.022 31.9922C161.2 32.513 161.288 33.0781 161.288 33.6875V33.8672C161.288 34.4766 161.2 35.0417 161.022 35.5625C160.845 36.0833 160.588 36.5391 160.249 36.9297C159.916 37.3151 159.512 37.6172 159.038 37.8359C158.569 38.0495 158.038 38.1562 157.444 38.1562C156.851 38.1562 156.317 38.0495 155.843 37.8359C155.369 37.6172 154.963 37.3151 154.624 36.9297C154.291 36.5391 154.035 36.0833 153.858 35.5625C153.681 35.0417 153.593 34.4766 153.593 33.8672ZM155.038 33.6875V33.8672C155.038 34.2891 155.088 34.6875 155.187 35.0625C155.285 35.4323 155.434 35.7604 155.632 36.0469C155.835 36.3333 156.088 36.5599 156.39 36.7266C156.692 36.888 157.043 36.9688 157.444 36.9688C157.84 36.9688 158.187 36.888 158.483 36.7266C158.785 36.5599 159.035 36.3333 159.233 36.0469C159.431 35.7604 159.58 35.4323 159.679 35.0625C159.783 34.6875 159.835 34.2891 159.835 33.8672V33.6875C159.835 33.2708 159.783 32.8776 159.679 32.5078C159.58 32.1328 159.429 31.8021 159.226 31.5156C159.028 31.224 158.778 30.9948 158.476 30.8281C158.179 30.6615 157.83 30.5781 157.429 30.5781C157.033 30.5781 156.684 30.6615 156.382 30.8281C156.085 30.9948 155.835 31.224 155.632 31.5156C155.434 31.8021 155.285 32.1328 155.187 32.5078C155.088 32.8776 155.038 33.2708 155.038 33.6875ZM164.546 31.3516V38H163.101V29.5469H164.468L164.546 31.3516ZM164.202 33.4531L163.601 33.4297C163.606 32.8516 163.692 32.3177 163.858 31.8281C164.025 31.3333 164.259 30.9036 164.562 30.5391C164.864 30.1745 165.223 29.8932 165.64 29.6953C166.062 29.4922 166.528 29.3906 167.038 29.3906C167.455 29.3906 167.83 29.4479 168.163 29.5625C168.496 29.6719 168.78 29.849 169.015 30.0938C169.254 30.3385 169.437 30.6562 169.562 31.0469C169.687 31.4323 169.749 31.9036 169.749 32.4609V38H168.296V32.4453C168.296 32.0026 168.231 31.6484 168.101 31.3828C167.97 31.112 167.78 30.9167 167.53 30.7969C167.28 30.6719 166.973 30.6094 166.608 30.6094C166.249 30.6094 165.921 30.6849 165.624 30.8359C165.332 30.987 165.08 31.1953 164.866 31.4609C164.658 31.7266 164.494 32.0312 164.374 32.375C164.259 32.7135 164.202 33.0729 164.202 33.4531ZM179.452 29.5469V30.6562H174.882V29.5469H179.452ZM176.429 27.4922H177.874V35.9062C177.874 36.1927 177.918 36.4089 178.007 36.5547C178.095 36.7005 178.21 36.7969 178.351 36.8438C178.491 36.8906 178.642 36.9141 178.804 36.9141C178.924 36.9141 179.049 36.9036 179.179 36.8828C179.314 36.8568 179.416 36.8359 179.483 36.8203L179.491 38C179.377 38.0365 179.226 38.0703 179.038 38.1016C178.856 38.138 178.634 38.1562 178.374 38.1562C178.02 38.1562 177.694 38.0859 177.397 37.9453C177.101 37.8047 176.864 37.5703 176.687 37.2422C176.515 36.9089 176.429 36.4609 176.429 35.8984V27.4922ZM182.593 26V38H181.147V26H182.593ZM182.249 33.4531L181.647 33.4297C181.653 32.8516 181.739 32.3177 181.905 31.8281C182.072 31.3333 182.306 30.9036 182.608 30.5391C182.91 30.1745 183.27 29.8932 183.687 29.6953C184.108 29.4922 184.575 29.3906 185.085 29.3906C185.502 29.3906 185.877 29.4479 186.21 29.5625C186.543 29.6719 186.827 29.849 187.062 30.0938C187.301 30.3385 187.483 30.6562 187.608 31.0469C187.733 31.4323 187.796 31.9036 187.796 32.4609V38H186.343V32.4453C186.343 32.0026 186.278 31.6484 186.147 31.3828C186.017 31.112 185.827 30.9167 185.577 30.7969C185.327 30.6719 185.02 30.6094 184.655 30.6094C184.296 30.6094 183.968 30.6849 183.671 30.8359C183.379 30.987 183.127 31.1953 182.913 31.4609C182.705 31.7266 182.541 32.0312 182.421 32.375C182.306 32.7135 182.249 33.0729 182.249 33.4531ZM191.405 30.875V38H189.96V29.5469H191.366L191.405 30.875ZM194.046 29.5L194.038 30.8438C193.918 30.8177 193.804 30.8021 193.694 30.7969C193.59 30.7865 193.47 30.7812 193.335 30.7812C193.002 30.7812 192.707 30.8333 192.452 30.9375C192.197 31.0417 191.981 31.1875 191.804 31.375C191.627 31.5625 191.486 31.7865 191.382 32.0469C191.283 32.3021 191.218 32.5833 191.187 32.8906L190.78 33.125C190.78 32.6146 190.83 32.1354 190.929 31.6875C191.033 31.2396 191.192 30.8438 191.405 30.5C191.619 30.151 191.89 29.8802 192.218 29.6875C192.551 29.4896 192.947 29.3906 193.405 29.3906C193.509 29.3906 193.629 29.4036 193.765 29.4297C193.9 29.4505 193.994 29.474 194.046 29.5ZM194.843 33.8672V33.6875C194.843 33.0781 194.931 32.513 195.108 31.9922C195.285 31.4661 195.541 31.0104 195.874 30.625C196.207 30.2344 196.611 29.9323 197.085 29.7188C197.559 29.5 198.09 29.3906 198.679 29.3906C199.272 29.3906 199.806 29.5 200.28 29.7188C200.759 29.9323 201.166 30.2344 201.499 30.625C201.838 31.0104 202.095 31.4661 202.272 31.9922C202.45 32.513 202.538 33.0781 202.538 33.6875V33.8672C202.538 34.4766 202.45 35.0417 202.272 35.5625C202.095 36.0833 201.838 36.5391 201.499 36.9297C201.166 37.3151 200.762 37.6172 200.288 37.8359C199.819 38.0495 199.288 38.1562 198.694 38.1562C198.101 38.1562 197.567 38.0495 197.093 37.8359C196.619 37.6172 196.213 37.3151 195.874 36.9297C195.541 36.5391 195.285 36.0833 195.108 35.5625C194.931 35.0417 194.843 34.4766 194.843 33.8672ZM196.288 33.6875V33.8672C196.288 34.2891 196.338 34.6875 196.437 35.0625C196.535 35.4323 196.684 35.7604 196.882 36.0469C197.085 36.3333 197.338 36.5599 197.64 36.7266C197.942 36.888 198.293 36.9688 198.694 36.9688C199.09 36.9688 199.437 36.888 199.733 36.7266C200.035 36.5599 200.285 36.3333 200.483 36.0469C200.681 35.7604 200.83 35.4323 200.929 35.0625C201.033 34.6875 201.085 34.2891 201.085 33.8672V33.6875C201.085 33.2708 201.033 32.8776 200.929 32.5078C200.83 32.1328 200.679 31.8021 200.476 31.5156C200.278 31.224 200.028 30.9948 199.726 30.8281C199.429 30.6615 199.08 30.5781 198.679 30.5781C198.283 30.5781 197.934 30.6615 197.632 30.8281C197.335 30.9948 197.085 31.224 196.882 31.5156C196.684 31.8021 196.535 32.1328 196.437 32.5078C196.338 32.8776 196.288 33.2708 196.288 33.6875ZM209.522 36.0469V29.5469H210.976V38H209.593L209.522 36.0469ZM209.796 34.2656L210.397 34.25C210.397 34.8125 210.338 35.3333 210.218 35.8125C210.103 36.2865 209.916 36.6979 209.655 37.0469C209.395 37.3958 209.054 37.6693 208.632 37.8672C208.21 38.0599 207.697 38.1562 207.093 38.1562C206.681 38.1562 206.304 38.0964 205.96 37.9766C205.621 37.8568 205.33 37.6719 205.085 37.4219C204.84 37.1719 204.65 36.8464 204.515 36.4453C204.384 36.0443 204.319 35.5625 204.319 35V29.5469H205.765V35.0156C205.765 35.3958 205.806 35.7109 205.89 35.9609C205.978 36.2057 206.095 36.401 206.241 36.5469C206.392 36.6875 206.559 36.7865 206.741 36.8438C206.929 36.901 207.121 36.9297 207.319 36.9297C207.934 36.9297 208.421 36.8125 208.78 36.5781C209.14 36.3385 209.397 36.0182 209.554 35.6172C209.715 35.2109 209.796 34.7604 209.796 34.2656ZM218.655 29.5469H219.968V37.8203C219.968 38.5651 219.817 39.2005 219.515 39.7266C219.213 40.2526 218.791 40.651 218.249 40.9219C217.713 41.1979 217.093 41.3359 216.39 41.3359C216.098 41.3359 215.754 41.2891 215.358 41.1953C214.968 41.1068 214.582 40.9531 214.202 40.7344C213.827 40.5208 213.512 40.2318 213.257 39.8672L214.015 39.0078C214.369 39.4349 214.739 39.7318 215.124 39.8984C215.515 40.0651 215.9 40.1484 216.28 40.1484C216.739 40.1484 217.134 40.0625 217.468 39.8906C217.801 39.7188 218.059 39.4635 218.241 39.125C218.429 38.7917 218.522 38.3802 218.522 37.8906V31.4062L218.655 29.5469ZM212.835 33.8672V33.7031C212.835 33.0573 212.91 32.4714 213.062 31.9453C213.218 31.4141 213.439 30.9583 213.726 30.5781C214.017 30.1979 214.369 29.9062 214.78 29.7031C215.192 29.4948 215.655 29.3906 216.171 29.3906C216.702 29.3906 217.166 29.4844 217.562 29.6719C217.963 29.8542 218.301 30.1224 218.577 30.4766C218.858 30.8255 219.08 31.2474 219.241 31.7422C219.403 32.237 219.515 32.7969 219.577 33.4219V34.1406C219.52 34.7604 219.408 35.3177 219.241 35.8125C219.08 36.3073 218.858 36.7292 218.577 37.0781C218.301 37.4271 217.963 37.6953 217.562 37.8828C217.16 38.0651 216.692 38.1562 216.155 38.1562C215.65 38.1562 215.192 38.0495 214.78 37.8359C214.374 37.6224 214.025 37.3229 213.733 36.9375C213.442 36.5521 213.218 36.099 213.062 35.5781C212.91 35.0521 212.835 34.4818 212.835 33.8672ZM214.28 33.7031V33.8672C214.28 34.2891 214.322 34.6849 214.405 35.0547C214.494 35.4245 214.627 35.75 214.804 36.0312C214.986 36.3125 215.218 36.5339 215.499 36.6953C215.78 36.8516 216.116 36.9297 216.507 36.9297C216.986 36.9297 217.382 36.8281 217.694 36.625C218.007 36.4219 218.254 36.1536 218.437 35.8203C218.624 35.487 218.77 35.125 218.874 34.7344V32.8516C218.817 32.5651 218.728 32.2891 218.608 32.0234C218.494 31.7526 218.343 31.513 218.155 31.3047C217.973 31.0911 217.746 30.9219 217.476 30.7969C217.205 30.6719 216.887 30.6094 216.522 30.6094C216.127 30.6094 215.785 30.6927 215.499 30.8594C215.218 31.0208 214.986 31.2448 214.804 31.5312C214.627 31.8125 214.494 32.1406 214.405 32.5156C214.322 32.8854 214.28 33.2812 214.28 33.7031ZM223.608 26V38H222.163V26H223.608ZM223.265 33.4531L222.663 33.4297C222.668 32.8516 222.754 32.3177 222.921 31.8281C223.088 31.3333 223.322 30.9036 223.624 30.5391C223.926 30.1745 224.285 29.8932 224.702 29.6953C225.124 29.4922 225.59 29.3906 226.101 29.3906C226.517 29.3906 226.892 29.4479 227.226 29.5625C227.559 29.6719 227.843 29.849 228.077 30.0938C228.317 30.3385 228.499 30.6562 228.624 31.0469C228.749 31.4323 228.812 31.9036 228.812 32.4609V38H227.358V32.4453C227.358 32.0026 227.293 31.6484 227.163 31.3828C227.033 31.112 226.843 30.9167 226.593 30.7969C226.343 30.6719 226.035 30.6094 225.671 30.6094C225.312 30.6094 224.983 30.6849 224.687 30.8359C224.395 30.987 224.142 31.1953 223.929 31.4609C223.72 31.7266 223.556 32.0312 223.437 32.375C223.322 32.7135 223.265 33.0729 223.265 33.4531ZM236.515 26V38H235.062V26H236.515ZM238.452 33.8672V33.6875C238.452 33.0781 238.541 32.513 238.718 31.9922C238.895 31.4661 239.15 31.0104 239.483 30.625C239.817 30.2344 240.22 29.9323 240.694 29.7188C241.168 29.5 241.7 29.3906 242.288 29.3906C242.882 29.3906 243.416 29.5 243.89 29.7188C244.369 29.9323 244.775 30.2344 245.108 30.625C245.447 31.0104 245.705 31.4661 245.882 31.9922C246.059 32.513 246.147 33.0781 246.147 33.6875V33.8672C246.147 34.4766 246.059 35.0417 245.882 35.5625C245.705 36.0833 245.447 36.5391 245.108 36.9297C244.775 37.3151 244.371 37.6172 243.897 37.8359C243.429 38.0495 242.897 38.1562 242.304 38.1562C241.71 38.1562 241.176 38.0495 240.702 37.8359C240.228 37.6172 239.822 37.3151 239.483 36.9297C239.15 36.5391 238.895 36.0833 238.718 35.5625C238.541 35.0417 238.452 34.4766 238.452 33.8672ZM239.897 33.6875V33.8672C239.897 34.2891 239.947 34.6875 240.046 35.0625C240.145 35.4323 240.293 35.7604 240.491 36.0469C240.694 36.3333 240.947 36.5599 241.249 36.7266C241.551 36.888 241.903 36.9688 242.304 36.9688C242.7 36.9688 243.046 36.888 243.343 36.7266C243.645 36.5599 243.895 36.3333 244.093 36.0469C244.291 35.7604 244.439 35.4323 244.538 35.0625C244.642 34.6875 244.694 34.2891 244.694 33.8672V33.6875C244.694 33.2708 244.642 32.8776 244.538 32.5078C244.439 32.1328 244.288 31.8021 244.085 31.5156C243.887 31.224 243.637 30.9948 243.335 30.8281C243.038 30.6615 242.689 30.5781 242.288 30.5781C241.892 30.5781 241.543 30.6615 241.241 30.8281C240.944 30.9948 240.694 31.224 240.491 31.5156C240.293 31.8021 240.145 32.1328 240.046 32.5078C239.947 32.8776 239.897 33.2708 239.897 33.6875ZM250.101 36.5L252.272 29.5469H253.226L253.038 30.9297L250.827 38H249.897L250.101 36.5ZM248.64 29.5469L250.491 36.5781L250.624 38H249.647L247.194 29.5469H248.64ZM255.304 36.5234L257.069 29.5469H258.507L256.054 38H255.085L255.304 36.5234ZM253.437 29.5469L255.562 36.3828L255.804 38H254.882L252.608 30.9141L252.421 29.5469H253.437ZM262.999 32.5703V33.7578H259.187V32.5703H262.999ZM266.569 38H265.124V28.6562C265.124 28.0469 265.233 27.5339 265.452 27.1172C265.676 26.6953 265.996 26.3776 266.413 26.1641C266.83 25.9453 267.325 25.8359 267.897 25.8359C268.064 25.8359 268.231 25.8464 268.397 25.8672C268.569 25.888 268.736 25.9193 268.897 25.9609L268.819 27.1406C268.71 27.1146 268.585 27.0964 268.444 27.0859C268.309 27.0755 268.174 27.0703 268.038 27.0703C267.731 27.0703 267.465 27.1328 267.241 27.2578C267.022 27.3776 266.856 27.5547 266.741 27.7891C266.627 28.0234 266.569 28.3125 266.569 28.6562V38ZM268.366 29.5469V30.6562H263.788V29.5469H268.366ZM271.421 30.875V38H269.976V29.5469H271.382L271.421 30.875ZM274.062 29.5L274.054 30.8438C273.934 30.8177 273.819 30.8021 273.71 30.7969C273.606 30.7865 273.486 30.7812 273.351 30.7812C273.017 30.7812 272.723 30.8333 272.468 30.9375C272.213 31.0417 271.996 31.1875 271.819 31.375C271.642 31.5625 271.502 31.7865 271.397 32.0469C271.299 32.3021 271.233 32.5833 271.202 32.8906L270.796 33.125C270.796 32.6146 270.845 32.1354 270.944 31.6875C271.049 31.2396 271.207 30.8438 271.421 30.5C271.634 30.151 271.905 29.8802 272.233 29.6875C272.567 29.4896 272.963 29.3906 273.421 29.3906C273.525 29.3906 273.645 29.4036 273.78 29.4297C273.916 29.4505 274.009 29.474 274.062 29.5ZM276.968 29.5469V38H275.515V29.5469H276.968ZM275.405 27.3047C275.405 27.0703 275.476 26.8724 275.616 26.7109C275.762 26.5495 275.976 26.4688 276.257 26.4688C276.533 26.4688 276.744 26.5495 276.89 26.7109C277.041 26.8724 277.116 27.0703 277.116 27.3047C277.116 27.5286 277.041 27.7214 276.89 27.8828C276.744 28.0391 276.533 28.1172 276.257 28.1172C275.976 28.1172 275.762 28.0391 275.616 27.8828C275.476 27.7214 275.405 27.5286 275.405 27.3047ZM282.671 36.9688C283.015 36.9688 283.332 36.8984 283.624 36.7578C283.916 36.6172 284.155 36.4245 284.343 36.1797C284.53 35.9297 284.637 35.6458 284.663 35.3281H286.038C286.012 35.8281 285.843 36.2943 285.53 36.7266C285.223 37.1536 284.819 37.5 284.319 37.7656C283.819 38.026 283.27 38.1562 282.671 38.1562C282.035 38.1562 281.481 38.0443 281.007 37.8203C280.538 37.5964 280.147 37.2891 279.835 36.8984C279.528 36.5078 279.296 36.0599 279.14 35.5547C278.989 35.0443 278.913 34.5052 278.913 33.9375V33.6094C278.913 33.0417 278.989 32.5052 279.14 32C279.296 31.4896 279.528 31.0391 279.835 30.6484C280.147 30.2578 280.538 29.9505 281.007 29.7266C281.481 29.5026 282.035 29.3906 282.671 29.3906C283.332 29.3906 283.91 29.526 284.405 29.7969C284.9 30.0625 285.288 30.4271 285.569 30.8906C285.856 31.349 286.012 31.8698 286.038 32.4531H284.663C284.637 32.1042 284.538 31.7891 284.366 31.5078C284.2 31.2266 283.97 31.0026 283.679 30.8359C283.392 30.6641 283.056 30.5781 282.671 30.5781C282.228 30.5781 281.856 30.6667 281.554 30.8438C281.257 31.0156 281.02 31.25 280.843 31.5469C280.671 31.8385 280.546 32.1641 280.468 32.5234C280.395 32.8776 280.358 33.2396 280.358 33.6094V33.9375C280.358 34.3073 280.395 34.6719 280.468 35.0312C280.541 35.3906 280.663 35.7161 280.835 36.0078C281.012 36.2995 281.249 36.5339 281.546 36.7109C281.848 36.8828 282.223 36.9688 282.671 36.9688ZM291.202 29.5469V30.6562H286.632V29.5469H291.202ZM288.179 27.4922H289.624V35.9062C289.624 36.1927 289.668 36.4089 289.757 36.5547C289.845 36.7005 289.96 36.7969 290.101 36.8438C290.241 36.8906 290.392 36.9141 290.554 36.9141C290.674 36.9141 290.799 36.9036 290.929 36.8828C291.064 36.8568 291.166 36.8359 291.233 36.8203L291.241 38C291.127 38.0365 290.976 38.0703 290.788 38.1016C290.606 38.138 290.384 38.1562 290.124 38.1562C289.77 38.1562 289.444 38.0859 289.147 37.9453C288.851 37.8047 288.614 37.5703 288.437 37.2422C288.265 36.9089 288.179 36.4609 288.179 35.8984V27.4922ZM294.468 29.5469V38H293.015V29.5469H294.468ZM292.905 27.3047C292.905 27.0703 292.976 26.8724 293.116 26.7109C293.262 26.5495 293.476 26.4688 293.757 26.4688C294.033 26.4688 294.244 26.5495 294.39 26.7109C294.541 26.8724 294.616 27.0703 294.616 27.3047C294.616 27.5286 294.541 27.7214 294.39 27.8828C294.244 28.0391 294.033 28.1172 293.757 28.1172C293.476 28.1172 293.262 28.0391 293.116 27.8828C292.976 27.7214 292.905 27.5286 292.905 27.3047ZM296.405 33.8672V33.6875C296.405 33.0781 296.494 32.513 296.671 31.9922C296.848 31.4661 297.103 31.0104 297.437 30.625C297.77 30.2344 298.174 29.9323 298.647 29.7188C299.121 29.5 299.653 29.3906 300.241 29.3906C300.835 29.3906 301.369 29.5 301.843 29.7188C302.322 29.9323 302.728 30.2344 303.062 30.625C303.4 31.0104 303.658 31.4661 303.835 31.9922C304.012 32.513 304.101 33.0781 304.101 33.6875V33.8672C304.101 34.4766 304.012 35.0417 303.835 35.5625C303.658 36.0833 303.4 36.5391 303.062 36.9297C302.728 37.3151 302.325 37.6172 301.851 37.8359C301.382 38.0495 300.851 38.1562 300.257 38.1562C299.663 38.1562 299.129 38.0495 298.655 37.8359C298.181 37.6172 297.775 37.3151 297.437 36.9297C297.103 36.5391 296.848 36.0833 296.671 35.5625C296.494 35.0417 296.405 34.4766 296.405 33.8672ZM297.851 33.6875V33.8672C297.851 34.2891 297.9 34.6875 297.999 35.0625C298.098 35.4323 298.246 35.7604 298.444 36.0469C298.647 36.3333 298.9 36.5599 299.202 36.7266C299.504 36.888 299.856 36.9688 300.257 36.9688C300.653 36.9688 300.999 36.888 301.296 36.7266C301.598 36.5599 301.848 36.3333 302.046 36.0469C302.244 35.7604 302.392 35.4323 302.491 35.0625C302.595 34.6875 302.647 34.2891 302.647 33.8672V33.6875C302.647 33.2708 302.595 32.8776 302.491 32.5078C302.392 32.1328 302.241 31.8021 302.038 31.5156C301.84 31.224 301.59 30.9948 301.288 30.8281C300.991 30.6615 300.642 30.5781 300.241 30.5781C299.845 30.5781 299.496 30.6615 299.194 30.8281C298.897 30.9948 298.647 31.224 298.444 31.5156C298.246 31.8021 298.098 32.1328 297.999 32.5078C297.9 32.8776 297.851 33.2708 297.851 33.6875ZM307.358 31.3516V38H305.913V29.5469H307.28L307.358 31.3516ZM307.015 33.4531L306.413 33.4297C306.418 32.8516 306.504 32.3177 306.671 31.8281C306.838 31.3333 307.072 30.9036 307.374 30.5391C307.676 30.1745 308.035 29.8932 308.452 29.6953C308.874 29.4922 309.34 29.3906 309.851 29.3906C310.267 29.3906 310.642 29.4479 310.976 29.5625C311.309 29.6719 311.593 29.849 311.827 30.0938C312.067 30.3385 312.249 30.6562 312.374 31.0469C312.499 31.4323 312.562 31.9036 312.562 32.4609V38H311.108V32.4453C311.108 32.0026 311.043 31.6484 310.913 31.3828C310.783 31.112 310.593 30.9167 310.343 30.7969C310.093 30.6719 309.785 30.6094 309.421 30.6094C309.062 30.6094 308.733 30.6849 308.437 30.8359C308.145 30.987 307.892 31.1953 307.679 31.4609C307.47 31.7266 307.306 32.0312 307.187 32.375C307.072 32.7135 307.015 33.0729 307.015 33.4531ZM320.296 29.5469V38H318.843V29.5469H320.296ZM318.733 27.3047C318.733 27.0703 318.804 26.8724 318.944 26.7109C319.09 26.5495 319.304 26.4688 319.585 26.4688C319.861 26.4688 320.072 26.5495 320.218 26.7109C320.369 26.8724 320.444 27.0703 320.444 27.3047C320.444 27.5286 320.369 27.7214 320.218 27.8828C320.072 28.0391 319.861 28.1172 319.585 28.1172C319.304 28.1172 319.09 28.0391 318.944 27.8828C318.804 27.7214 318.733 27.5286 318.733 27.3047ZM324.062 31.3516V38H322.616V29.5469H323.983L324.062 31.3516ZM323.718 33.4531L323.116 33.4297C323.121 32.8516 323.207 32.3177 323.374 31.8281C323.541 31.3333 323.775 30.9036 324.077 30.5391C324.379 30.1745 324.739 29.8932 325.155 29.6953C325.577 29.4922 326.043 29.3906 326.554 29.3906C326.97 29.3906 327.345 29.4479 327.679 29.5625C328.012 29.6719 328.296 29.849 328.53 30.0938C328.77 30.3385 328.952 30.6562 329.077 31.0469C329.202 31.4323 329.265 31.9036 329.265 32.4609V38H327.812V32.4453C327.812 32.0026 327.746 31.6484 327.616 31.3828C327.486 31.112 327.296 30.9167 327.046 30.7969C326.796 30.6719 326.489 30.6094 326.124 30.6094C325.765 30.6094 325.437 30.6849 325.14 30.8359C324.848 30.987 324.595 31.1953 324.382 31.4609C324.174 31.7266 324.009 32.0312 323.89 32.375C323.775 32.7135 323.718 33.0729 323.718 33.4531ZM334.999 29.5469V30.6562H330.429V29.5469H334.999ZM331.976 27.4922H333.421V35.9062C333.421 36.1927 333.465 36.4089 333.554 36.5547C333.642 36.7005 333.757 36.7969 333.897 36.8438C334.038 36.8906 334.189 36.9141 334.351 36.9141C334.47 36.9141 334.595 36.9036 334.726 36.8828C334.861 36.8568 334.963 36.8359 335.03 36.8203L335.038 38C334.924 38.0365 334.772 38.0703 334.585 38.1016C334.403 38.138 334.181 38.1562 333.921 38.1562C333.567 38.1562 333.241 38.0859 332.944 37.9453C332.647 37.8047 332.41 37.5703 332.233 37.2422C332.062 36.9089 331.976 36.4609 331.976 35.8984V27.4922ZM340.202 38.1562C339.614 38.1562 339.08 38.0573 338.601 37.8594C338.127 37.6562 337.718 37.3724 337.374 37.0078C337.035 36.6432 336.775 36.2109 336.593 35.7109C336.41 35.2109 336.319 34.6641 336.319 34.0703V33.7422C336.319 33.0547 336.421 32.4427 336.624 31.9062C336.827 31.3646 337.103 30.9062 337.452 30.5312C337.801 30.1562 338.197 29.8724 338.64 29.6797C339.082 29.487 339.541 29.3906 340.015 29.3906C340.619 29.3906 341.14 29.4948 341.577 29.7031C342.02 29.9115 342.382 30.2031 342.663 30.5781C342.944 30.9479 343.153 31.3854 343.288 31.8906C343.424 32.3906 343.491 32.9375 343.491 33.5312V34.1797H337.179V33H342.046V32.8906C342.025 32.5156 341.947 32.151 341.812 31.7969C341.681 31.4427 341.473 31.151 341.187 30.9219C340.9 30.6927 340.509 30.5781 340.015 30.5781C339.687 30.5781 339.384 30.6484 339.108 30.7891C338.832 30.9245 338.595 31.1276 338.397 31.3984C338.2 31.6693 338.046 32 337.937 32.3906C337.827 32.7812 337.772 33.2318 337.772 33.7422V34.0703C337.772 34.4714 337.827 34.849 337.937 35.2031C338.051 35.5521 338.215 35.8594 338.429 36.125C338.647 36.3906 338.91 36.599 339.218 36.75C339.53 36.901 339.884 36.9766 340.28 36.9766C340.791 36.9766 341.223 36.8724 341.577 36.6641C341.931 36.4557 342.241 36.1771 342.507 35.8281L343.382 36.5234C343.2 36.7995 342.968 37.0625 342.687 37.3125C342.405 37.5625 342.059 37.7656 341.647 37.9219C341.241 38.0781 340.759 38.1562 340.202 38.1562ZM350.655 29.5469H351.968V37.8203C351.968 38.5651 351.817 39.2005 351.515 39.7266C351.213 40.2526 350.791 40.651 350.249 40.9219C349.713 41.1979 349.093 41.3359 348.39 41.3359C348.098 41.3359 347.754 41.2891 347.358 41.1953C346.968 41.1068 346.582 40.9531 346.202 40.7344C345.827 40.5208 345.512 40.2318 345.257 39.8672L346.015 39.0078C346.369 39.4349 346.739 39.7318 347.124 39.8984C347.515 40.0651 347.9 40.1484 348.28 40.1484C348.739 40.1484 349.134 40.0625 349.468 39.8906C349.801 39.7188 350.059 39.4635 350.241 39.125C350.429 38.7917 350.522 38.3802 350.522 37.8906V31.4062L350.655 29.5469ZM344.835 33.8672V33.7031C344.835 33.0573 344.91 32.4714 345.062 31.9453C345.218 31.4141 345.439 30.9583 345.726 30.5781C346.017 30.1979 346.369 29.9062 346.78 29.7031C347.192 29.4948 347.655 29.3906 348.171 29.3906C348.702 29.3906 349.166 29.4844 349.562 29.6719C349.963 29.8542 350.301 30.1224 350.577 30.4766C350.858 30.8255 351.08 31.2474 351.241 31.7422C351.403 32.237 351.515 32.7969 351.577 33.4219V34.1406C351.52 34.7604 351.408 35.3177 351.241 35.8125C351.08 36.3073 350.858 36.7292 350.577 37.0781C350.301 37.4271 349.963 37.6953 349.562 37.8828C349.16 38.0651 348.692 38.1562 348.155 38.1562C347.65 38.1562 347.192 38.0495 346.78 37.8359C346.374 37.6224 346.025 37.3229 345.733 36.9375C345.442 36.5521 345.218 36.099 345.062 35.5781C344.91 35.0521 344.835 34.4818 344.835 33.8672ZM346.28 33.7031V33.8672C346.28 34.2891 346.322 34.6849 346.405 35.0547C346.494 35.4245 346.627 35.75 346.804 36.0312C346.986 36.3125 347.218 36.5339 347.499 36.6953C347.78 36.8516 348.116 36.9297 348.507 36.9297C348.986 36.9297 349.382 36.8281 349.694 36.625C350.007 36.4219 350.254 36.1536 350.437 35.8203C350.624 35.487 350.77 35.125 350.874 34.7344V32.8516C350.817 32.5651 350.728 32.2891 350.608 32.0234C350.494 31.7526 350.343 31.513 350.155 31.3047C349.973 31.0911 349.746 30.9219 349.476 30.7969C349.205 30.6719 348.887 30.6094 348.522 30.6094C348.127 30.6094 347.785 30.6927 347.499 30.8594C347.218 31.0208 346.986 31.2448 346.804 31.5312C346.627 31.8125 346.494 32.1406 346.405 32.5156C346.322 32.8854 346.28 33.2812 346.28 33.7031ZM355.608 30.875V38H354.163V29.5469H355.569L355.608 30.875ZM358.249 29.5L358.241 30.8438C358.121 30.8177 358.007 30.8021 357.897 30.7969C357.793 30.7865 357.674 30.7812 357.538 30.7812C357.205 30.7812 356.91 30.8333 356.655 30.9375C356.4 31.0417 356.184 31.1875 356.007 31.375C355.83 31.5625 355.689 31.7865 355.585 32.0469C355.486 32.3021 355.421 32.5833 355.39 32.8906L354.983 33.125C354.983 32.6146 355.033 32.1354 355.132 31.6875C355.236 31.2396 355.395 30.8438 355.608 30.5C355.822 30.151 356.093 29.8802 356.421 29.6875C356.754 29.4896 357.15 29.3906 357.608 29.3906C357.713 29.3906 357.832 29.4036 357.968 29.4297C358.103 29.4505 358.197 29.474 358.249 29.5ZM364.257 36.5547V32.2031C364.257 31.8698 364.189 31.5807 364.054 31.3359C363.924 31.0859 363.726 30.8932 363.46 30.7578C363.194 30.6224 362.866 30.5547 362.476 30.5547C362.111 30.5547 361.791 30.6172 361.515 30.7422C361.244 30.8672 361.03 31.0312 360.874 31.2344C360.723 31.4375 360.647 31.6562 360.647 31.8906H359.202C359.202 31.5885 359.28 31.2891 359.437 30.9922C359.593 30.6953 359.817 30.4271 360.108 30.1875C360.405 29.9427 360.759 29.75 361.171 29.6094C361.588 29.4635 362.051 29.3906 362.562 29.3906C363.176 29.3906 363.718 29.4948 364.187 29.7031C364.66 29.9115 365.03 30.2266 365.296 30.6484C365.567 31.0651 365.702 31.5885 365.702 32.2188V36.1562C365.702 36.4375 365.726 36.737 365.772 37.0547C365.825 37.3724 365.9 37.6458 365.999 37.875V38H364.491C364.418 37.8333 364.361 37.612 364.319 37.3359C364.278 37.0547 364.257 36.7943 364.257 36.5547ZM364.507 32.875L364.522 33.8906H363.062C362.65 33.8906 362.283 33.9245 361.96 33.9922C361.637 34.0547 361.366 34.151 361.147 34.2812C360.929 34.4115 360.762 34.5755 360.647 34.7734C360.533 34.9661 360.476 35.1927 360.476 35.4531C360.476 35.7188 360.535 35.9609 360.655 36.1797C360.775 36.3984 360.955 36.5729 361.194 36.7031C361.439 36.8281 361.739 36.8906 362.093 36.8906C362.535 36.8906 362.926 36.7969 363.265 36.6094C363.603 36.4219 363.871 36.1927 364.069 35.9219C364.272 35.651 364.382 35.388 364.397 35.1328L365.015 35.8281C364.978 36.0469 364.879 36.2891 364.718 36.5547C364.556 36.8203 364.34 37.0755 364.069 37.3203C363.804 37.5599 363.486 37.7604 363.116 37.9219C362.752 38.0781 362.34 38.1562 361.882 38.1562C361.309 38.1562 360.806 38.0443 360.374 37.8203C359.947 37.5964 359.614 37.2969 359.374 36.9219C359.14 36.5417 359.022 36.1172 359.022 35.6484C359.022 35.1953 359.111 34.7969 359.288 34.4531C359.465 34.1042 359.72 33.8151 360.054 33.5859C360.387 33.3516 360.788 33.1745 361.257 33.0547C361.726 32.9349 362.249 32.875 362.827 32.875H364.507ZM371.515 29.5469V30.6562H366.944V29.5469H371.515ZM368.491 27.4922H369.937V35.9062C369.937 36.1927 369.981 36.4089 370.069 36.5547C370.158 36.7005 370.272 36.7969 370.413 36.8438C370.554 36.8906 370.705 36.9141 370.866 36.9141C370.986 36.9141 371.111 36.9036 371.241 36.8828C371.377 36.8568 371.478 36.8359 371.546 36.8203L371.554 38C371.439 38.0365 371.288 38.0703 371.101 38.1016C370.918 38.138 370.697 38.1562 370.437 38.1562C370.082 38.1562 369.757 38.0859 369.46 37.9453C369.163 37.8047 368.926 37.5703 368.749 37.2422C368.577 36.9089 368.491 36.4609 368.491 35.8984V27.4922ZM374.78 29.5469V38H373.327V29.5469H374.78ZM373.218 27.3047C373.218 27.0703 373.288 26.8724 373.429 26.7109C373.575 26.5495 373.788 26.4688 374.069 26.4688C374.345 26.4688 374.556 26.5495 374.702 26.7109C374.853 26.8724 374.929 27.0703 374.929 27.3047C374.929 27.5286 374.853 27.7214 374.702 27.8828C374.556 28.0391 374.345 28.1172 374.069 28.1172C373.788 28.1172 373.575 28.0391 373.429 27.8828C373.288 27.7214 373.218 27.5286 373.218 27.3047ZM376.718 33.8672V33.6875C376.718 33.0781 376.806 32.513 376.983 31.9922C377.16 31.4661 377.416 31.0104 377.749 30.625C378.082 30.2344 378.486 29.9323 378.96 29.7188C379.434 29.5 379.965 29.3906 380.554 29.3906C381.147 29.3906 381.681 29.5 382.155 29.7188C382.634 29.9323 383.041 30.2344 383.374 30.625C383.713 31.0104 383.97 31.4661 384.147 31.9922C384.325 32.513 384.413 33.0781 384.413 33.6875V33.8672C384.413 34.4766 384.325 35.0417 384.147 35.5625C383.97 36.0833 383.713 36.5391 383.374 36.9297C383.041 37.3151 382.637 37.6172 382.163 37.8359C381.694 38.0495 381.163 38.1562 380.569 38.1562C379.976 38.1562 379.442 38.0495 378.968 37.8359C378.494 37.6172 378.088 37.3151 377.749 36.9297C377.416 36.5391 377.16 36.0833 376.983 35.5625C376.806 35.0417 376.718 34.4766 376.718 33.8672ZM378.163 33.6875V33.8672C378.163 34.2891 378.213 34.6875 378.312 35.0625C378.41 35.4323 378.559 35.7604 378.757 36.0469C378.96 36.3333 379.213 36.5599 379.515 36.7266C379.817 36.888 380.168 36.9688 380.569 36.9688C380.965 36.9688 381.312 36.888 381.608 36.7266C381.91 36.5599 382.16 36.3333 382.358 36.0469C382.556 35.7604 382.705 35.4323 382.804 35.0625C382.908 34.6875 382.96 34.2891 382.96 33.8672V33.6875C382.96 33.2708 382.908 32.8776 382.804 32.5078C382.705 32.1328 382.554 31.8021 382.351 31.5156C382.153 31.224 381.903 30.9948 381.601 30.8281C381.304 30.6615 380.955 30.5781 380.554 30.5781C380.158 30.5781 379.809 30.6615 379.507 30.8281C379.21 30.9948 378.96 31.224 378.757 31.5156C378.559 31.8021 378.41 32.1328 378.312 32.5078C378.213 32.8776 378.163 33.2708 378.163 33.6875ZM387.671 31.3516V38H386.226V29.5469H387.593L387.671 31.3516ZM387.327 33.4531L386.726 33.4297C386.731 32.8516 386.817 32.3177 386.983 31.8281C387.15 31.3333 387.384 30.9036 387.687 30.5391C387.989 30.1745 388.348 29.8932 388.765 29.6953C389.187 29.4922 389.653 29.3906 390.163 29.3906C390.58 29.3906 390.955 29.4479 391.288 29.5625C391.621 29.6719 391.905 29.849 392.14 30.0938C392.379 30.3385 392.562 30.6562 392.687 31.0469C392.812 31.4323 392.874 31.9036 392.874 32.4609V38H391.421V32.4453C391.421 32.0026 391.356 31.6484 391.226 31.3828C391.095 31.112 390.905 30.9167 390.655 30.7969C390.405 30.6719 390.098 30.6094 389.733 30.6094C389.374 30.6094 389.046 30.6849 388.749 30.8359C388.457 30.987 388.205 31.1953 387.991 31.4609C387.783 31.7266 387.619 32.0312 387.499 32.375C387.384 32.7135 387.327 33.0729 387.327 33.4531Z" fill="#2D3139"/>
</g>
<defs>
<filter id="filter0_di_7916_14784" x="0.983398" y="0" width="472" height="66" filterUnits="userSpaceOnUse" color-interpolation-filters="sRGB">
<feFlood flood-opacity="0" result="BackgroundImageFix"/>
<feColorMatrix in="SourceAlpha" type="matrix" values="0 0 0 0 0 0 0 0 0 0 0 0 0 0 0 0 0 0 127 0" result="hardAlpha"/>
<feOffset dy="1"/>
<feGaussianBlur stdDeviation="1.5"/>
<feComposite in2="hardAlpha" operator="out"/>
<feColorMatrix type="matrix" values="0 0 0 0 0.121569 0 0 0 0 0.133333 0 0 0 0 0.160784 0 0 0 0.08 0"/>
<feBlend mode="normal" in2="BackgroundImageFix" result="effect1_dropShadow_7916_14784"/>
<feBlend mode="normal" in="SourceGraphic" in2="effect1_dropShadow_7916_14784" result="shape"/>
<feColorMatrix in="SourceAlpha" type="matrix" values="0 0 0 0 0 0 0 0 0 0 0 0 0 0 0 0 0 0 127 0" result="hardAlpha"/>
<feMorphology radius="1" operator="erode" in="SourceAlpha" result="effect2_innerShadow_7916_14784"/>
<feOffset/>
<feComposite in2="hardAlpha" operator="arithmetic" k2="-1" k3="1"/>
<feColorMatrix type="matrix" values="0 0 0 0 0.882353 0 0 0 0 0.898039 0 0 0 0 0.921569 0 0 0 1 0"/>
<feBlend mode="normal" in2="shape" result="effect2_innerShadow_7916_14784"/>
</filter>
<clipPath id="clip0_7916_14784">
<rect width="26" height="26" fill="white" transform="translate(20.9834 19)"/>
</clipPath>
</defs>
</svg>
