<svg width="248" height="68" viewBox="0 0 248 68" fill="none" xmlns="http://www.w3.org/2000/svg">
<g filter="url(#filter0_dddd_7916_14610)">
<rect x="9" y="2" width="230" height="34" rx="4" fill="white"/>
<path d="M35.5 23.5V22.5H34.45C34.4 22.2 34.25 21.9 34.1 21.6L34.85 20.85L34.15 20.15L33.4 20.9C33.15 20.75 32.85 20.6 32.5 20.55V19.5H31.5V20.55C31.2 20.6 30.9 20.75 30.6 20.9L29.85 20.15L29.15 20.85L29.9 21.6C29.75 21.85 29.6 22.15 29.55 22.5H28.5V23.5H29.55C29.6 23.8 29.75 24.1 29.9 24.4L29.15 25.15L29.85 25.85L30.6 25.1C30.85 25.25 31.15 25.4 31.5 25.45V26.5H32.5V25.45C32.8 25.4 33.1 25.25 33.4 25.1L34.15 25.85L34.85 25.15L34.1 24.4C34.25 24.15 34.4 23.85 34.45 23.5H35.5ZM32 24.5C31.15 24.5 30.5 23.85 30.5 23C30.5 22.15 31.15 21.5 32 21.5C32.85 21.5 33.5 22.15 33.5 23C33.5 23.85 32.85 24.5 32 24.5ZM31.2425 14.563L26.7425 12.063C26.6683 12.0218 26.5848 12.0002 26.5 12.0002C26.4152 12.0002 26.3317 12.0218 26.2575 12.063L21.7575 14.563C21.6795 14.6062 21.6145 14.6696 21.5692 14.7464C21.5239 14.8232 21.5 14.9108 21.5 15V20C21.5 20.0891 21.5238 20.1766 21.569 20.2535C21.6142 20.3303 21.6791 20.3937 21.757 20.437L26.257 22.937C26.3331 22.9793 26.419 23.001 26.506 23C26.5931 22.9989 26.6784 22.9751 26.7535 22.931C26.8286 22.8868 26.8908 22.8238 26.934 22.7483C26.9773 22.6727 27 22.5871 27 22.5V17.794L30.5 15.85V18H31.5V15C31.5 14.9108 31.4761 14.8232 31.4308 14.7464C31.3855 14.6696 31.3205 14.6062 31.2425 14.563ZM26.5 13.072L29.9705 15L26.5 16.928L23.03 15L26.5 13.072ZM22.5 19.7055V15.85L26 17.795V21.65L22.5 19.7055Z" fill="black" fill-opacity="0.7"/>
<path d="M51.6605 23.572C51.0285 23.572 50.4445 23.468 49.9085 23.26C49.3725 23.044 48.9085 22.744 48.5165 22.36C48.1245 21.976 47.8165 21.524 47.5925 21.004C47.3765 20.484 47.2685 19.916 47.2685 19.3C47.2685 18.684 47.3765 18.116 47.5925 17.596C47.8165 17.076 48.1245 16.624 48.5165 16.24C48.9165 15.856 49.3845 15.56 49.9205 15.352C50.4565 15.136 51.0405 15.028 51.6725 15.028C52.2805 15.028 52.8525 15.132 53.3885 15.34C53.9245 15.54 54.3765 15.844 54.7445 16.252L54.1805 16.816C53.8365 16.464 53.4565 16.212 53.0405 16.06C52.6245 15.9 52.1765 15.82 51.6965 15.82C51.1925 15.82 50.7245 15.908 50.2925 16.084C49.8605 16.252 49.4845 16.496 49.1645 16.816C48.8445 17.128 48.5925 17.496 48.4085 17.92C48.2325 18.336 48.1445 18.796 48.1445 19.3C48.1445 19.804 48.2325 20.268 48.4085 20.692C48.5925 21.108 48.8445 21.476 49.1645 21.796C49.4845 22.108 49.8605 22.352 50.2925 22.528C50.7245 22.696 51.1925 22.78 51.6965 22.78C52.1765 22.78 52.6245 22.7 53.0405 22.54C53.4565 22.38 53.8365 22.124 54.1805 21.772L54.7445 22.336C54.3765 22.744 53.9245 23.052 53.3885 23.26C52.8525 23.468 52.2765 23.572 51.6605 23.572ZM58.7443 23.56C58.1363 23.56 57.5883 23.424 57.1003 23.152C56.6203 22.872 56.2403 22.492 55.9603 22.012C55.6803 21.524 55.5403 20.968 55.5403 20.344C55.5403 19.712 55.6803 19.156 55.9603 18.676C56.2403 18.196 56.6203 17.82 57.1003 17.548C57.5803 17.276 58.1283 17.14 58.7443 17.14C59.3683 17.14 59.9203 17.276 60.4003 17.548C60.8883 17.82 61.2683 18.196 61.5403 18.676C61.8203 19.156 61.9603 19.712 61.9603 20.344C61.9603 20.968 61.8203 21.524 61.5403 22.012C61.2683 22.492 60.8883 22.872 60.4003 23.152C59.9123 23.424 59.3603 23.56 58.7443 23.56ZM58.7443 22.804C59.2003 22.804 59.6043 22.704 59.9563 22.504C60.3083 22.296 60.5843 22.008 60.7843 21.64C60.9923 21.264 61.0963 20.832 61.0963 20.344C61.0963 19.848 60.9923 19.416 60.7843 19.048C60.5843 18.68 60.3083 18.396 59.9563 18.196C59.6043 17.988 59.2043 17.884 58.7563 17.884C58.3083 17.884 57.9083 17.988 57.5563 18.196C57.2043 18.396 56.9243 18.68 56.7163 19.048C56.5083 19.416 56.4043 19.848 56.4043 20.344C56.4043 20.832 56.5083 21.264 56.7163 21.64C56.9243 22.008 57.2043 22.296 57.5563 22.504C57.9083 22.704 58.3043 22.804 58.7443 22.804ZM63.3489 20.62V19.876H66.4929V20.62H63.3489ZM68.5789 23.5V15.1H72.2029C73.1389 15.1 73.8629 15.288 74.3749 15.664C74.8949 16.04 75.1549 16.572 75.1549 17.26C75.1549 17.716 75.0469 18.1 74.8309 18.412C74.6229 18.724 74.3349 18.96 73.9669 19.12C73.6069 19.28 73.2109 19.36 72.7789 19.36L72.9829 19.072C73.5189 19.072 73.9789 19.156 74.3629 19.324C74.7549 19.484 75.0589 19.728 75.2749 20.056C75.4909 20.376 75.5989 20.776 75.5989 21.256C75.5989 21.968 75.3349 22.52 74.8069 22.912C74.2869 23.304 73.4989 23.5 72.4429 23.5H68.5789ZM69.4669 22.768H72.4309C73.1669 22.768 73.7309 22.644 74.1229 22.396C74.5149 22.14 74.7109 21.736 74.7109 21.184C74.7109 20.64 74.5149 20.244 74.1229 19.996C73.7309 19.74 73.1669 19.612 72.4309 19.612H69.3709V18.88H72.1429C72.8149 18.88 73.3349 18.752 73.7029 18.496C74.0789 18.24 74.2669 17.86 74.2669 17.356C74.2669 16.844 74.0789 16.464 73.7029 16.216C73.3349 15.96 72.8149 15.832 72.1429 15.832H69.4669V22.768ZM80.0498 23.56C79.5138 23.56 79.0458 23.46 78.6458 23.26C78.2458 23.06 77.9338 22.76 77.7098 22.36C77.4938 21.96 77.3858 21.46 77.3858 20.86V17.2H78.2378V20.764C78.2378 21.436 78.4018 21.944 78.7298 22.288C79.0658 22.624 79.5338 22.792 80.1338 22.792C80.5738 22.792 80.9538 22.704 81.2738 22.528C81.6018 22.344 81.8498 22.08 82.0178 21.736C82.1938 21.392 82.2818 20.98 82.2818 20.5V17.2H83.1338V23.5H82.3178V21.772L82.4498 22.084C82.2498 22.548 81.9378 22.912 81.5138 23.176C81.0978 23.432 80.6098 23.56 80.0498 23.56ZM85.5083 23.5V17.2H86.3603V23.5H85.5083ZM85.9403 15.808C85.7643 15.808 85.6163 15.748 85.4963 15.628C85.3763 15.508 85.3163 15.364 85.3163 15.196C85.3163 15.028 85.3763 14.888 85.4963 14.776C85.6163 14.656 85.7643 14.596 85.9403 14.596C86.1163 14.596 86.2643 14.652 86.3843 14.764C86.5043 14.876 86.5643 15.016 86.5643 15.184C86.5643 15.36 86.5043 15.508 86.3843 15.628C86.2723 15.748 86.1243 15.808 85.9403 15.808ZM88.731 23.5V14.596H89.583V23.5H88.731ZM94.4616 23.56C93.8616 23.56 93.3216 23.424 92.8416 23.152C92.3696 22.88 91.9976 22.504 91.7256 22.024C91.4536 21.536 91.3176 20.976 91.3176 20.344C91.3176 19.704 91.4536 19.144 91.7256 18.664C91.9976 18.184 92.3696 17.812 92.8416 17.548C93.3216 17.276 93.8616 17.14 94.4616 17.14C95.0136 17.14 95.5056 17.264 95.9376 17.512C96.3776 17.76 96.7256 18.124 96.9816 18.604C97.2456 19.076 97.3776 19.656 97.3776 20.344C97.3776 21.024 97.2496 21.604 96.9936 22.084C96.7376 22.564 96.3896 22.932 95.9496 23.188C95.5176 23.436 95.0216 23.56 94.4616 23.56ZM94.5216 22.804C94.9696 22.804 95.3696 22.704 95.7216 22.504C96.0816 22.296 96.3616 22.008 96.5616 21.64C96.7696 21.264 96.8736 20.832 96.8736 20.344C96.8736 19.848 96.7696 19.416 96.5616 19.048C96.3616 18.68 96.0816 18.396 95.7216 18.196C95.3696 17.988 94.9696 17.884 94.5216 17.884C94.0816 17.884 93.6856 17.988 93.3336 18.196C92.9816 18.396 92.7016 18.68 92.4936 19.048C92.2856 19.416 92.1816 19.848 92.1816 20.344C92.1816 20.832 92.2856 21.264 92.4936 21.64C92.7016 22.008 92.9816 22.296 93.3336 22.504C93.6856 22.704 94.0816 22.804 94.5216 22.804ZM96.8976 23.5V21.604L96.9816 20.332L96.8616 19.06V14.596H97.7136V23.5H96.8976ZM103.407 23.5V15.1H106.551C107.263 15.1 107.875 15.216 108.387 15.448C108.899 15.672 109.291 16 109.563 16.432C109.843 16.856 109.983 17.372 109.983 17.98C109.983 18.572 109.843 19.084 109.563 19.516C109.291 19.94 108.899 20.268 108.387 20.5C107.875 20.732 107.263 20.848 106.551 20.848H103.899L104.295 20.428V23.5H103.407ZM104.295 20.5L103.899 20.068H106.527C107.367 20.068 108.003 19.888 108.435 19.528C108.875 19.16 109.095 18.644 109.095 17.98C109.095 17.308 108.875 16.788 108.435 16.42C108.003 16.052 107.367 15.868 106.527 15.868H103.899L104.295 15.448V20.5ZM111.571 23.5V17.2H112.387V18.916L112.303 18.616C112.479 18.136 112.775 17.772 113.191 17.524C113.607 17.268 114.123 17.14 114.739 17.14V17.968C114.707 17.968 114.675 17.968 114.643 17.968C114.611 17.96 114.579 17.956 114.547 17.956C113.883 17.956 113.363 18.16 112.987 18.568C112.611 18.968 112.423 19.54 112.423 20.284V23.5H111.571ZM118.803 23.56C118.195 23.56 117.647 23.424 117.159 23.152C116.679 22.872 116.299 22.492 116.019 22.012C115.739 21.524 115.599 20.968 115.599 20.344C115.599 19.712 115.739 19.156 116.019 18.676C116.299 18.196 116.679 17.82 117.159 17.548C117.639 17.276 118.187 17.14 118.803 17.14C119.427 17.14 119.979 17.276 120.459 17.548C120.947 17.82 121.327 18.196 121.599 18.676C121.879 19.156 122.019 19.712 122.019 20.344C122.019 20.968 121.879 21.524 121.599 22.012C121.327 22.492 120.947 22.872 120.459 23.152C119.971 23.424 119.419 23.56 118.803 23.56ZM118.803 22.804C119.259 22.804 119.663 22.704 120.015 22.504C120.367 22.296 120.643 22.008 120.843 21.64C121.051 21.264 121.155 20.832 121.155 20.344C121.155 19.848 121.051 19.416 120.843 19.048C120.643 18.68 120.367 18.396 120.015 18.196C119.663 17.988 119.263 17.884 118.815 17.884C118.367 17.884 117.967 17.988 117.615 18.196C117.263 18.396 116.983 18.68 116.775 19.048C116.567 19.416 116.463 19.848 116.463 20.344C116.463 20.832 116.567 21.264 116.775 21.64C116.983 22.008 117.263 22.296 117.615 22.504C117.967 22.704 118.363 22.804 118.803 22.804ZM126.266 23.56C125.666 23.56 125.126 23.424 124.646 23.152C124.174 22.88 123.802 22.504 123.53 22.024C123.258 21.536 123.122 20.976 123.122 20.344C123.122 19.704 123.258 19.144 123.53 18.664C123.802 18.184 124.174 17.812 124.646 17.548C125.126 17.276 125.666 17.14 126.266 17.14C126.818 17.14 127.31 17.264 127.742 17.512C128.182 17.76 128.53 18.124 128.786 18.604C129.05 19.076 129.182 19.656 129.182 20.344C129.182 21.024 129.054 21.604 128.798 22.084C128.542 22.564 128.194 22.932 127.754 23.188C127.322 23.436 126.826 23.56 126.266 23.56ZM126.326 22.804C126.774 22.804 127.174 22.704 127.526 22.504C127.886 22.296 128.166 22.008 128.366 21.64C128.574 21.264 128.678 20.832 128.678 20.344C128.678 19.848 128.574 19.416 128.366 19.048C128.166 18.68 127.886 18.396 127.526 18.196C127.174 17.988 126.774 17.884 126.326 17.884C125.886 17.884 125.49 17.988 125.138 18.196C124.786 18.396 124.506 18.68 124.298 19.048C124.09 19.416 123.986 19.848 123.986 20.344C123.986 20.832 124.09 21.264 124.298 21.64C124.506 22.008 124.786 22.296 125.138 22.504C125.49 22.704 125.886 22.804 126.326 22.804ZM128.702 23.5V21.604L128.786 20.332L128.666 19.06V14.596H129.518V23.5H128.702ZM134.495 23.56C133.959 23.56 133.491 23.46 133.091 23.26C132.691 23.06 132.379 22.76 132.155 22.36C131.939 21.96 131.831 21.46 131.831 20.86V17.2H132.683V20.764C132.683 21.436 132.847 21.944 133.175 22.288C133.511 22.624 133.979 22.792 134.579 22.792C135.019 22.792 135.399 22.704 135.719 22.528C136.047 22.344 136.295 22.08 136.463 21.736C136.639 21.392 136.727 20.98 136.727 20.5V17.2H137.579V23.5H136.763V21.772L136.895 22.084C136.695 22.548 136.383 22.912 135.959 23.176C135.543 23.432 135.055 23.56 134.495 23.56ZM142.57 23.56C141.946 23.56 141.386 23.424 140.89 23.152C140.402 22.872 140.018 22.492 139.738 22.012C139.458 21.524 139.318 20.968 139.318 20.344C139.318 19.712 139.458 19.156 139.738 18.676C140.018 18.196 140.402 17.82 140.89 17.548C141.386 17.276 141.946 17.14 142.57 17.14C143.106 17.14 143.59 17.244 144.022 17.452C144.454 17.66 144.794 17.972 145.042 18.388L144.406 18.82C144.19 18.5 143.922 18.264 143.602 18.112C143.282 17.96 142.934 17.884 142.558 17.884C142.11 17.884 141.706 17.988 141.346 18.196C140.986 18.396 140.702 18.68 140.494 19.048C140.286 19.416 140.182 19.848 140.182 20.344C140.182 20.84 140.286 21.272 140.494 21.64C140.702 22.008 140.986 22.296 141.346 22.504C141.706 22.704 142.11 22.804 142.558 22.804C142.934 22.804 143.282 22.728 143.602 22.576C143.922 22.424 144.19 22.192 144.406 21.88L145.042 22.312C144.794 22.72 144.454 23.032 144.022 23.248C143.59 23.456 143.106 23.56 142.57 23.56ZM148.778 23.56C148.186 23.56 147.73 23.4 147.41 23.08C147.09 22.76 146.93 22.308 146.93 21.724V15.808H147.782V21.676C147.782 22.044 147.874 22.328 148.058 22.528C148.25 22.728 148.522 22.828 148.874 22.828C149.25 22.828 149.562 22.72 149.81 22.504L150.11 23.116C149.942 23.268 149.738 23.38 149.498 23.452C149.266 23.524 149.026 23.56 148.778 23.56ZM145.802 17.908V17.2H149.702V17.908H145.802ZM151.661 23.5V17.2H152.513V23.5H151.661ZM152.093 15.808C151.917 15.808 151.769 15.748 151.649 15.628C151.529 15.508 151.469 15.364 151.469 15.196C151.469 15.028 151.529 14.888 151.649 14.776C151.769 14.656 151.917 14.596 152.093 14.596C152.269 14.596 152.417 14.652 152.537 14.764C152.657 14.876 152.717 15.016 152.717 15.184C152.717 15.36 152.657 15.508 152.537 15.628C152.425 15.748 152.277 15.808 152.093 15.808ZM157.451 23.56C156.843 23.56 156.295 23.424 155.807 23.152C155.327 22.872 154.947 22.492 154.667 22.012C154.387 21.524 154.247 20.968 154.247 20.344C154.247 19.712 154.387 19.156 154.667 18.676C154.947 18.196 155.327 17.82 155.807 17.548C156.287 17.276 156.835 17.14 157.451 17.14C158.075 17.14 158.627 17.276 159.107 17.548C159.595 17.82 159.975 18.196 160.247 18.676C160.527 19.156 160.667 19.712 160.667 20.344C160.667 20.968 160.527 21.524 160.247 22.012C159.975 22.492 159.595 22.872 159.107 23.152C158.619 23.424 158.067 23.56 157.451 23.56ZM157.451 22.804C157.907 22.804 158.311 22.704 158.663 22.504C159.015 22.296 159.291 22.008 159.491 21.64C159.699 21.264 159.803 20.832 159.803 20.344C159.803 19.848 159.699 19.416 159.491 19.048C159.291 18.68 159.015 18.396 158.663 18.196C158.311 17.988 157.911 17.884 157.463 17.884C157.015 17.884 156.615 17.988 156.263 18.196C155.911 18.396 155.631 18.68 155.423 19.048C155.215 19.416 155.111 19.848 155.111 20.344C155.111 20.832 155.215 21.264 155.423 21.64C155.631 22.008 155.911 22.296 156.263 22.504C156.615 22.704 157.011 22.804 157.451 22.804ZM165.623 17.14C166.135 17.14 166.583 17.24 166.967 17.44C167.359 17.632 167.663 17.928 167.879 18.328C168.103 18.728 168.215 19.232 168.215 19.84V23.5H167.363V19.924C167.363 19.26 167.195 18.76 166.859 18.424C166.531 18.08 166.067 17.908 165.467 17.908C165.019 17.908 164.627 18 164.291 18.184C163.963 18.36 163.707 18.62 163.523 18.964C163.347 19.3 163.259 19.708 163.259 20.188V23.5H162.407V17.2H163.223V18.928L163.091 18.604C163.291 18.148 163.611 17.792 164.051 17.536C164.491 17.272 165.015 17.14 165.623 17.14ZM170.048 20.62V19.876H173.192V20.62H170.048ZM179.056 23.572C178.416 23.572 177.824 23.468 177.28 23.26C176.744 23.044 176.276 22.744 175.876 22.36C175.484 21.976 175.176 21.524 174.952 21.004C174.736 20.484 174.628 19.916 174.628 19.3C174.628 18.684 174.736 18.116 174.952 17.596C175.176 17.076 175.488 16.624 175.888 16.24C176.288 15.856 176.756 15.56 177.292 15.352C177.836 15.136 178.428 15.028 179.068 15.028C179.708 15.028 180.292 15.128 180.82 15.328C181.356 15.528 181.812 15.832 182.188 16.24L181.636 16.804C181.284 16.452 180.896 16.2 180.472 16.048C180.048 15.896 179.592 15.82 179.104 15.82C178.584 15.82 178.104 15.908 177.664 16.084C177.232 16.252 176.852 16.496 176.524 16.816C176.204 17.128 175.952 17.496 175.768 17.92C175.592 18.336 175.504 18.796 175.504 19.3C175.504 19.796 175.592 20.256 175.768 20.68C175.952 21.104 176.204 21.476 176.524 21.796C176.852 22.108 177.232 22.352 177.664 22.528C178.104 22.696 178.58 22.78 179.092 22.78C179.572 22.78 180.024 22.708 180.448 22.564C180.88 22.42 181.276 22.176 181.636 21.832L182.14 22.504C181.74 22.856 181.272 23.124 180.736 23.308C180.2 23.484 179.64 23.572 179.056 23.572ZM181.288 22.396V19.3H182.14V22.504L181.288 22.396ZM184.473 23.5V17.2H185.289V18.916L185.205 18.616C185.381 18.136 185.677 17.772 186.093 17.524C186.509 17.268 187.025 17.14 187.641 17.14V17.968C187.609 17.968 187.577 17.968 187.545 17.968C187.513 17.96 187.481 17.956 187.449 17.956C186.785 17.956 186.265 18.16 185.889 18.568C185.513 18.968 185.325 19.54 185.325 20.284V23.5H184.473ZM192.675 23.5V22.108L192.639 21.88V19.552C192.639 19.016 192.487 18.604 192.183 18.316C191.887 18.028 191.443 17.884 190.851 17.884C190.443 17.884 190.055 17.952 189.687 18.088C189.319 18.224 189.007 18.404 188.751 18.628L188.367 17.992C188.687 17.72 189.071 17.512 189.519 17.368C189.967 17.216 190.439 17.14 190.935 17.14C191.751 17.14 192.379 17.344 192.819 17.752C193.267 18.152 193.491 18.764 193.491 19.588V23.5H192.675ZM190.503 23.56C190.031 23.56 189.619 23.484 189.267 23.332C188.923 23.172 188.659 22.956 188.475 22.684C188.291 22.404 188.199 22.084 188.199 21.724C188.199 21.396 188.275 21.1 188.427 20.836C188.587 20.564 188.843 20.348 189.195 20.188C189.555 20.02 190.035 19.936 190.635 19.936H192.807V20.572H190.659C190.051 20.572 189.627 20.68 189.387 20.896C189.155 21.112 189.039 21.38 189.039 21.7C189.039 22.06 189.179 22.348 189.459 22.564C189.739 22.78 190.131 22.888 190.635 22.888C191.115 22.888 191.527 22.78 191.871 22.564C192.223 22.34 192.479 22.02 192.639 21.604L192.831 22.192C192.671 22.608 192.391 22.94 191.991 23.188C191.599 23.436 191.103 23.56 190.503 23.56ZM198.313 23.56C197.713 23.56 197.173 23.424 196.693 23.152C196.221 22.88 195.849 22.504 195.577 22.024C195.305 21.536 195.169 20.976 195.169 20.344C195.169 19.704 195.305 19.144 195.577 18.664C195.849 18.184 196.221 17.812 196.693 17.548C197.173 17.276 197.713 17.14 198.313 17.14C198.865 17.14 199.357 17.264 199.789 17.512C200.229 17.76 200.577 18.124 200.833 18.604C201.097 19.076 201.229 19.656 201.229 20.344C201.229 21.024 201.101 21.604 200.845 22.084C200.589 22.564 200.241 22.932 199.801 23.188C199.369 23.436 198.873 23.56 198.313 23.56ZM198.373 22.804C198.821 22.804 199.221 22.704 199.573 22.504C199.933 22.296 200.213 22.008 200.413 21.64C200.621 21.264 200.725 20.832 200.725 20.344C200.725 19.848 200.621 19.416 200.413 19.048C200.213 18.68 199.933 18.396 199.573 18.196C199.221 17.988 198.821 17.884 198.373 17.884C197.933 17.884 197.537 17.988 197.185 18.196C196.833 18.396 196.553 18.68 196.345 19.048C196.137 19.416 196.033 19.848 196.033 20.344C196.033 20.832 196.137 21.264 196.345 21.64C196.553 22.008 196.833 22.296 197.185 22.504C197.537 22.704 197.933 22.804 198.373 22.804ZM200.749 23.5V21.604L200.833 20.332L200.713 19.06V14.596H201.565V23.5H200.749ZM206.614 23.56C205.958 23.56 205.382 23.424 204.886 23.152C204.39 22.872 204.002 22.492 203.722 22.012C203.442 21.524 203.302 20.968 203.302 20.344C203.302 19.72 203.434 19.168 203.698 18.688C203.97 18.208 204.338 17.832 204.802 17.56C205.274 17.28 205.802 17.14 206.386 17.14C206.978 17.14 207.502 17.276 207.958 17.548C208.422 17.812 208.786 18.188 209.05 18.676C209.314 19.156 209.446 19.712 209.446 20.344C209.446 20.384 209.442 20.428 209.434 20.476C209.434 20.516 209.434 20.56 209.434 20.608H203.95V19.972H208.978L208.642 20.224C208.642 19.768 208.542 19.364 208.342 19.012C208.15 18.652 207.886 18.372 207.55 18.172C207.214 17.972 206.826 17.872 206.386 17.872C205.954 17.872 205.566 17.972 205.222 18.172C204.878 18.372 204.61 18.652 204.418 19.012C204.226 19.372 204.13 19.784 204.13 20.248V20.38C204.13 20.86 204.234 21.284 204.442 21.652C204.658 22.012 204.954 22.296 205.33 22.504C205.714 22.704 206.15 22.804 206.638 22.804C207.022 22.804 207.378 22.736 207.706 22.6C208.042 22.464 208.33 22.256 208.57 21.976L209.05 22.528C208.77 22.864 208.418 23.12 207.994 23.296C207.578 23.472 207.118 23.56 206.614 23.56ZM213.157 23.5L216.997 15.1H217.873L221.713 23.5H220.777L217.249 15.616H217.609L214.081 23.5H213.157ZM214.669 21.256L214.933 20.536H219.817L220.081 21.256H214.669ZM223.102 23.5V15.1H223.99V23.5H223.102Z" fill="black" fill-opacity="0.7"/>
</g>
<defs>
<filter id="filter0_dddd_7916_14610" x="0" y="0" width="248" height="68" filterUnits="userSpaceOnUse" color-interpolation-filters="sRGB">
<feFlood flood-opacity="0" result="BackgroundImageFix"/>
<feColorMatrix in="SourceAlpha" type="matrix" values="0 0 0 0 0 0 0 0 0 0 0 0 0 0 0 0 0 0 127 0" result="hardAlpha"/>
<feOffset dy="1"/>
<feGaussianBlur stdDeviation="1.5"/>
<feColorMatrix type="matrix" values="0 0 0 0 0.882353 0 0 0 0 0.647059 0 0 0 0 0.992157 0 0 0 0.1 0"/>
<feBlend mode="normal" in2="BackgroundImageFix" result="effect1_dropShadow_7916_14610"/>
<feColorMatrix in="SourceAlpha" type="matrix" values="0 0 0 0 0 0 0 0 0 0 0 0 0 0 0 0 0 0 127 0" result="hardAlpha"/>
<feOffset dy="6"/>
<feGaussianBlur stdDeviation="3"/>
<feColorMatrix type="matrix" values="0 0 0 0 0.882353 0 0 0 0 0.647059 0 0 0 0 0.992157 0 0 0 0.09 0"/>
<feBlend mode="normal" in2="effect1_dropShadow_7916_14610" result="effect2_dropShadow_7916_14610"/>
<feColorMatrix in="SourceAlpha" type="matrix" values="0 0 0 0 0 0 0 0 0 0 0 0 0 0 0 0 0 0 127 0" result="hardAlpha"/>
<feOffset dy="13"/>
<feGaussianBlur stdDeviation="4"/>
<feColorMatrix type="matrix" values="0 0 0 0 0.882353 0 0 0 0 0.647059 0 0 0 0 0.992157 0 0 0 0.05 0"/>
<feBlend mode="normal" in2="effect2_dropShadow_7916_14610" result="effect3_dropShadow_7916_14610"/>
<feColorMatrix in="SourceAlpha" type="matrix" values="0 0 0 0 0 0 0 0 0 0 0 0 0 0 0 0 0 0 127 0" result="hardAlpha"/>
<feOffset dy="23"/>
<feGaussianBlur stdDeviation="4.5"/>
<feColorMatrix type="matrix" values="0 0 0 0 0.882353 0 0 0 0 0.647059 0 0 0 0 0.992157 0 0 0 0.01 0"/>
<feBlend mode="normal" in2="effect3_dropShadow_7916_14610" result="effect4_dropShadow_7916_14610"/>
<feBlend mode="normal" in="SourceGraphic" in2="effect4_dropShadow_7916_14610" result="shape"/>
</filter>
</defs>
</svg>
