<svg width="539" height="326" viewBox="0 0 539 326" fill="none" xmlns="http://www.w3.org/2000/svg">
<rect x="70.4844" y="105.711" width="401.017" height="219.237" rx="8.26272" stroke="#A6A6A6" stroke-width="1.1017"/>
<g filter="url(#filter0_ddd_7916_14706)">
<ellipse cx="270.439" cy="44.5678" rx="38.5593" ry="37.4576" fill="#EEF2F3"/>
</g>
<path d="M271.2 1.05078C296.278 1.05078 316.581 20.7954 316.581 45.1182C316.581 69.4412 296.278 89.1865 271.2 89.1865C246.122 89.1864 225.82 69.4411 225.82 45.1182C225.821 20.7955 246.123 1.05094 271.2 1.05078Z" stroke="url(#paint0_linear_7916_14706)" stroke-width="1.1017"/>
<g filter="url(#filter1_i_7916_14706)">
<ellipse cx="185.382" cy="45.6676" rx="30.6206" ry="29.7458" fill="#EEF2F3"/>
</g>
<g filter="url(#filter2_i_7916_14706)">
<ellipse cx="435.468" cy="45.6676" rx="30.6206" ry="29.7458" fill="#EEF2F3"/>
</g>
<line x1="272.094" y1="89.7383" x2="272.094" y2="124.993" stroke="#0060C7" stroke-width="1.1017" stroke-dasharray="2.2 2.2"/>
<line x1="185.885" y1="75.4141" x2="185.885" y2="124.99" stroke="#A6A6A6" stroke-width="0.550848" stroke-dasharray="2.2 2.2"/>
<line x1="357.752" y1="75.4141" x2="357.752" y2="124.99" stroke="#A6A6A6" stroke-width="0.550848" stroke-dasharray="2.2 2.2"/>
<line x1="107.666" y1="75.4141" x2="107.666" y2="227.448" stroke="url(#paint1_linear_7916_14706)" stroke-width="0.550848" stroke-dasharray="2.2 2.2"/>
<line x1="435.971" y1="75.4141" x2="435.971" y2="227.448" stroke="url(#paint2_linear_7916_14706)" stroke-width="0.550848" stroke-dasharray="2.2 2.2"/>
<g clip-path="url(#clip0_7916_14706)">
<path d="M257.27 52.4716L266.155 47.5052L266.304 47.0723L266.155 46.8331H265.72L264.234 46.7421L259.157 46.6053L254.754 46.4231L250.488 46.1953L249.413 45.9673L248.407 44.646L248.51 43.9853L249.413 43.3818L250.706 43.4957L253.564 43.6892L257.853 43.9853L260.963 44.1676L265.572 44.646H266.304L266.406 44.3498L266.155 44.1676L265.961 43.9853L261.523 40.9896L256.721 37.8229L254.205 36.0003L252.844 35.0776L252.158 34.212L251.861 32.3212L253.096 30.9656L254.754 31.0797L255.177 31.1936L256.858 32.4806L260.449 35.2488L265.137 38.6885L265.823 39.258L266.098 39.0643L266.132 38.9278L265.823 38.4151L263.273 33.8247L260.551 29.1544L259.339 27.218L259.019 26.0562C258.905 25.5776 258.825 25.179 258.825 24.6892L260.231 22.787L261.009 22.5365L262.884 22.7871L263.673 23.4705L264.84 26.1246L266.727 30.3051L269.654 35.9891L270.512 37.675L270.969 39.2355L271.141 39.7139H271.438V39.4404L271.678 36.2397L272.124 32.3098L272.559 27.2522L272.707 25.8286L273.416 24.1199L274.823 23.1972L275.921 23.7211L276.824 25.0083L276.698 25.8397L276.161 29.314L275.109 34.759L274.423 38.404H274.823L275.28 37.9483L277.133 35.4993L280.243 31.6263L281.615 30.0886L283.216 28.3913L284.246 27.5827H286.19L287.619 29.7014L286.979 31.8883L284.977 34.4171L283.319 36.5586L280.941 39.748L279.454 42.2996L279.591 42.5046L279.946 42.4705L285.32 41.3314L288.225 40.8073L291.69 40.215L293.257 40.944L293.428 41.6845L292.81 43.1995L289.105 44.1106L284.76 44.9764L278.288 46.5029L278.208 46.5598L278.299 46.6737L281.215 46.947L282.462 47.0154H285.515L291.198 47.4368L292.685 48.4165L293.577 49.6125L293.428 50.5237L291.141 51.6856L288.054 50.9565L280.849 49.248L278.379 48.6329H278.036V48.838L280.095 50.8427L283.868 54.2372L288.591 58.6113L288.831 59.6934L288.225 60.5476L287.585 60.4566L283.434 57.3469L281.833 55.9458L278.208 52.9045H277.968V53.2233L278.802 54.4422L283.216 61.0489L283.445 63.0764L283.125 63.7372L281.981 64.1358L280.723 63.9079L278.139 60.2971L275.475 56.2305L273.325 52.5855L273.062 52.7336L271.792 66.3456L271.198 67.0404L269.826 67.5643L268.682 66.6987L268.076 65.2976L268.682 62.5296L269.414 58.9189L270.008 56.0482L270.546 52.483L270.866 51.2984L270.843 51.2186L270.58 51.2527L267.882 54.9434L263.776 60.468L260.529 63.9307L259.751 64.2383L258.402 63.5434L258.527 62.3018L259.282 61.197L263.776 55.5016L266.486 51.9703L268.236 49.9315L268.225 49.6352H268.122L256.183 57.3583L254.056 57.6316L253.141 56.7774L253.256 55.3763L253.69 54.9206L257.281 52.4601L257.27 52.4716Z" fill="#D97757"/>
</g>
<g filter="url(#filter3_i_7916_14706)">
<ellipse cx="107.164" cy="45.6676" rx="30.6206" ry="29.7458" fill="#EEF2F3"/>
</g>
<path d="M116.817 43.6115C117.061 42.8684 117.145 42.0824 117.065 41.3045C116.986 40.5266 116.744 39.7741 116.355 39.0957C115.157 37.0014 112.737 35.9404 110.37 36.4296C109.336 35.2607 107.813 34.6074 106.234 34.6074C105.059 34.6075 103.914 34.9782 102.962 35.6667C102.01 36.3553 101.299 37.3266 100.931 38.4424C100.164 38.6004 99.4404 38.9199 98.807 39.3796C98.1737 39.8393 97.6455 40.4287 97.2578 41.1085C96.6741 42.1263 96.4258 43.3021 96.548 44.469C96.6702 45.636 97.1568 46.7348 97.9387 47.6096C97.6985 48.3546 97.6179 49.1419 97.7022 49.9202C97.7865 50.6984 98.0337 51.4502 98.4278 52.1265C99.0119 53.1498 99.9072 53.9599 100.984 54.4392C102.06 54.9185 103.261 55.0419 104.412 54.7915C104.934 55.3715 105.572 55.8358 106.284 56.1543C106.996 56.4729 107.767 56.6388 108.547 56.6413C109.722 56.6414 110.867 56.2708 111.82 55.5823C112.772 54.8937 113.483 53.9223 113.852 52.8063C114.618 52.6482 115.342 52.3286 115.975 51.8689C116.608 51.4092 117.136 50.8199 117.524 50.1402C118.11 49.1167 118.358 47.9338 118.231 46.7609C118.104 45.5881 117.61 44.4856 116.817 43.6115ZM108.547 55.1992C107.582 55.2079 106.646 54.8701 105.908 54.2473C105.936 54.2198 106.017 54.1922 106.045 54.1658L110.424 51.6363C110.533 51.5724 110.623 51.4809 110.685 51.371C110.747 51.2611 110.779 51.1367 110.778 51.0105V44.8355L112.628 45.8965C112.655 45.8965 112.655 45.9229 112.655 45.9515V51.0645C112.661 51.6068 112.558 52.1447 112.354 52.647C112.15 53.1494 111.848 53.6061 111.466 53.9908C111.083 54.3755 110.628 54.6804 110.127 54.8878C109.626 55.0953 109.089 55.2011 108.547 55.1992ZM99.6783 51.4182C99.1891 50.5754 99.0261 49.5959 99.1891 48.6441C99.2166 48.6705 99.2717 48.6992 99.3257 48.7256L103.705 51.2551C103.811 51.3221 103.933 51.3577 104.059 51.3577C104.184 51.3577 104.306 51.3221 104.412 51.2551L109.771 48.1538V50.3021C109.771 50.3308 109.771 50.3572 109.744 50.3572L105.31 52.9143C103.351 54.0567 100.821 53.377 99.6783 51.4182ZM98.538 41.8444C99.0276 41.0117 99.7849 40.3694 100.686 40.0222V45.2443C100.686 45.4899 100.823 45.7345 101.04 45.87L106.4 48.9713L104.549 50.0322C104.522 50.0322 104.495 50.0598 104.495 50.0322L100.061 47.4741C99.5875 47.2076 99.1723 46.8497 98.839 46.4211C98.5057 45.9926 98.261 45.502 98.1192 44.9779C97.9773 44.4538 97.9413 43.9068 98.013 43.3686C98.0847 42.8305 98.2628 42.312 98.5369 41.8433M113.77 45.3798L108.411 42.2785L110.261 41.2176C110.288 41.2176 110.316 41.19 110.316 41.2176L114.749 43.7735C115.219 44.0437 115.63 44.4041 115.96 44.8339C116.289 45.2637 116.531 45.7545 116.67 46.278C116.809 46.8015 116.843 47.3473 116.77 47.8841C116.697 48.4208 116.519 48.9378 116.246 49.4054C115.762 50.2376 115.002 50.8733 114.097 51.2011V46.0055C114.106 45.8811 114.08 45.7567 114.022 45.6462C113.965 45.5357 113.877 45.4434 113.77 45.3798ZM115.592 42.6046C115.551 42.571 115.506 42.5436 115.457 42.5231L111.077 39.9936C110.972 39.9266 110.849 39.891 110.724 39.891C110.599 39.891 110.476 39.9266 110.37 39.9936L105.01 43.0948V40.9454C105.01 40.9179 105.01 40.8904 105.038 40.8904L109.472 38.3344C109.941 38.0628 110.46 37.8867 110.997 37.8163C111.535 37.7458 112.081 37.7824 112.604 37.9239C113.127 38.0655 113.617 38.3091 114.046 38.6409C114.475 38.9726 114.834 39.3859 115.102 39.857C115.592 40.6733 115.755 41.6527 115.592 42.6046ZM104.005 46.4132L102.154 45.3522C102.127 45.3522 102.127 45.3247 102.127 45.2971V40.1853C102.127 39.6422 102.234 39.1043 102.441 38.6025C102.649 38.1007 102.953 37.6447 103.337 37.2607C103.721 36.8766 104.177 36.5721 104.679 36.3645C105.181 36.1568 105.719 36.0502 106.262 36.0506C107.227 36.0419 108.163 36.3796 108.901 37.0025C108.86 37.036 108.814 37.0635 108.765 37.084L104.386 39.6124C104.277 39.6763 104.187 39.7678 104.125 39.8777C104.063 39.9876 104.031 40.1119 104.032 40.2382V46.4132H104.005ZM105.01 44.2373L107.404 42.8492L109.798 44.2373V46.9838L107.404 48.372L105.01 46.9838V44.2373Z" fill="#1E1E1E"/>
<g filter="url(#filter4_i_7916_14706)">
<ellipse cx="357.25" cy="45.6676" rx="30.6206" ry="29.7458" fill="#EEF2F3"/>
</g>
<path d="M370.007 45.6914C366.755 45.8911 363.689 47.2728 361.385 49.5764C359.082 51.88 357.7 54.9465 357.5 58.1981H357.45C357.251 54.9463 355.869 51.8797 353.565 49.576C351.262 47.2723 348.195 45.8907 344.943 45.6914V45.6413C348.195 45.442 351.262 44.0604 353.565 41.7567C355.869 39.453 357.251 36.3864 357.45 33.1346H357.5C357.7 36.3862 359.082 39.4527 361.385 41.7563C363.689 44.0599 366.755 45.4417 370.007 45.6413V45.6914Z" fill="#448AFF"/>
<line x1="69.9336" y1="151.984" x2="472.052" y2="151.984" stroke="#A6A6A6" stroke-width="1.1017" stroke-dasharray="1.1 1.1"/>
<line x1="69.9336" y1="268.762" x2="472.052" y2="268.762" stroke="#A6A6A6" stroke-width="1.1017" stroke-dasharray="1.1 1.1"/>
<line x1="4.81567e-08" y1="209.949" x2="270" y2="209.949" stroke="url(#paint3_linear_7916_14706)" stroke-width="1.1017" stroke-dasharray="1.1 1.1"/>
<line x1="539" y1="211.051" x2="252" y2="211.051" stroke="url(#paint4_linear_7916_14706)" stroke-width="1.1017" stroke-dasharray="1.1 1.1"/>
<rect x="116.754" y="125.543" width="308.475" height="179.576" rx="8.26272" fill="#F5F5F5" stroke="#BCBCBC" stroke-width="1.1017"/>
<g filter="url(#filter5_dddd_7916_14706)">
<rect x="256.117" y="133.805" width="160.847" height="161.949" rx="7.01015" fill="#F5F5F5"/>
</g>
<rect x="266.031" y="150.332" width="77.1186" height="6.61017" rx="3.30508" fill="#D9D9D9"/>
<rect x="266.031" y="163.551" width="107.966" height="6.61017" rx="3.30508" fill="#D9D9D9"/>
<rect x="266.031" y="176.773" width="44.0678" height="6.61017" rx="3.30508" fill="#D9D9D9"/>
<rect x="266.031" y="194.398" width="53.9831" height="27.5424" rx="4.40678" fill="#D9D9D9"/>
<rect x="333.234" y="194.398" width="53.9831" height="27.5424" rx="4.40678" fill="#D9D9D9"/>
<rect x="266.281" y="269.566" width="141.619" height="17.1271" rx="8.56356" fill="#ECECEC" stroke="#A6A6A6" stroke-width="0.5"/>
<rect x="271.539" y="275.926" width="77.1186" height="4.40678" rx="2.20339" fill="#D9D9D9"/>
<path d="M395.481 272.731C398.777 272.732 401.431 275.158 401.431 278.13C401.43 281.101 398.777 283.528 395.481 283.528C392.186 283.528 389.532 281.101 389.532 278.13C389.532 275.158 392.186 272.731 395.481 272.731Z" fill="#D9D9D9" stroke="#A6A6A6" stroke-width="0.220339"/>
<path d="M395.48 274.935C397.559 274.935 399.227 276.465 399.227 278.33C399.226 280.195 397.559 281.725 395.48 281.725C393.402 281.724 391.736 280.195 391.735 278.33C391.735 276.465 393.402 274.935 395.48 274.935Z" fill="#FCFCFC" stroke="#A6A6A6" stroke-width="0.220339"/>
<circle cx="132.727" cy="159.516" r="3.30508" fill="#01A35A"/>
<path d="M147.001 156.25V162.516H146.468L142.866 157.162V162.516H142.336V156.25H142.866L146.476 161.603V156.25H147.001ZM150.28 162.602C149.976 162.602 149.697 162.546 149.441 162.434C149.189 162.322 148.968 162.164 148.779 161.96C148.592 161.757 148.447 161.516 148.344 161.237C148.243 160.956 148.193 160.649 148.193 160.317V160.131C148.193 159.773 148.246 159.449 148.352 159.159C148.459 158.869 148.605 158.621 148.791 158.414C148.978 158.208 149.19 158.05 149.428 157.941C149.669 157.829 149.922 157.773 150.186 157.773C150.481 157.773 150.744 157.826 150.973 157.932C151.203 158.036 151.395 158.183 151.55 158.376C151.708 158.565 151.827 158.79 151.907 159.051C151.988 159.31 152.028 159.595 152.028 159.908V160.222H148.503V159.783H151.516V159.723C151.51 159.462 151.457 159.218 151.356 158.991C151.259 158.762 151.112 158.575 150.917 158.432C150.722 158.288 150.478 158.216 150.186 158.216C149.968 158.216 149.767 158.262 149.583 158.354C149.403 158.446 149.246 158.578 149.114 158.75C148.985 158.919 148.885 159.122 148.813 159.357C148.744 159.589 148.71 159.847 148.71 160.131V160.317C148.71 160.575 148.747 160.816 148.822 161.04C148.899 161.26 149.008 161.456 149.149 161.625C149.292 161.794 149.461 161.926 149.656 162.021C149.852 162.115 150.067 162.163 150.302 162.163C150.577 162.163 150.821 162.113 151.034 162.012C151.246 161.909 151.437 161.747 151.606 161.526L151.929 161.775C151.828 161.925 151.702 162.062 151.55 162.189C151.401 162.315 151.221 162.415 151.012 162.49C150.803 162.564 150.559 162.602 150.28 162.602ZM154.334 161.427L155.458 157.859H155.819L155.604 158.819L154.429 162.516H154.068L154.334 161.427ZM153.168 157.859L154.154 161.448L154.364 162.516H153.99L152.639 157.859H153.168ZM157.218 161.435L158.177 157.859H158.707L157.355 162.516H156.985L157.218 161.435ZM155.892 157.859L156.998 161.397L157.278 162.516H156.916L155.716 158.815L155.514 157.859H155.892ZM165.872 160.562H166.401C166.358 160.984 166.242 161.348 166.053 161.655C165.863 161.959 165.605 162.193 165.278 162.356C164.951 162.52 164.557 162.602 164.095 162.602C163.739 162.602 163.416 162.534 163.126 162.399C162.839 162.265 162.593 162.074 162.386 161.827C162.18 161.577 162.02 161.279 161.909 160.932C161.797 160.585 161.741 160.199 161.741 159.774V158.991C161.741 158.566 161.797 158.182 161.909 157.838C162.02 157.491 162.181 157.192 162.39 156.943C162.6 156.693 162.851 156.501 163.144 156.366C163.436 156.231 163.766 156.164 164.133 156.164C164.578 156.164 164.963 156.245 165.287 156.409C165.611 156.57 165.866 156.802 166.053 157.106C166.242 157.41 166.358 157.777 166.401 158.208H165.872C165.832 157.869 165.743 157.582 165.605 157.347C165.467 157.112 165.277 156.933 165.033 156.809C164.792 156.683 164.492 156.62 164.133 156.62C163.841 156.62 163.58 156.676 163.35 156.788C163.121 156.9 162.926 157.06 162.765 157.27C162.604 157.476 162.481 157.724 162.395 158.014C162.312 158.304 162.27 158.627 162.27 158.982V159.774C162.27 160.119 162.31 160.436 162.39 160.725C162.471 161.015 162.588 161.266 162.743 161.478C162.901 161.691 163.093 161.856 163.32 161.973C163.547 162.091 163.805 162.15 164.095 162.15C164.465 162.15 164.773 162.091 165.02 161.973C165.27 161.853 165.463 161.675 165.601 161.44C165.739 161.204 165.829 160.912 165.872 160.562ZM168.084 155.905V162.516H167.572V155.905H168.084ZM167.968 159.899L167.74 159.77C167.757 159.495 167.813 159.236 167.908 158.995C168.002 158.754 168.13 158.542 168.291 158.358C168.454 158.175 168.645 158.031 168.863 157.928C169.084 157.825 169.328 157.773 169.595 157.773C169.827 157.773 170.035 157.805 170.219 157.868C170.402 157.931 170.559 158.031 170.688 158.169C170.817 158.307 170.914 158.483 170.98 158.698C171.049 158.914 171.084 159.176 171.084 159.486V162.516H170.567V159.482C170.567 159.16 170.523 158.909 170.434 158.729C170.345 158.545 170.219 158.414 170.055 158.337C169.891 158.259 169.698 158.221 169.474 158.221C169.227 158.221 169.011 158.275 168.824 158.384C168.641 158.49 168.486 158.63 168.359 158.802C168.236 158.971 168.141 159.153 168.075 159.348C168.009 159.54 167.974 159.724 167.968 159.899ZM175.241 161.681V159.279C175.241 159.058 175.195 158.868 175.103 158.707C175.011 158.546 174.876 158.423 174.698 158.337C174.521 158.251 174.301 158.208 174.04 158.208C173.799 158.208 173.584 158.251 173.395 158.337C173.208 158.42 173.06 158.533 172.951 158.677C172.845 158.817 172.792 158.974 172.792 159.146L172.276 159.142C172.276 158.967 172.319 158.797 172.405 158.634C172.491 158.47 172.613 158.324 172.771 158.195C172.928 158.066 173.116 157.964 173.334 157.889C173.555 157.812 173.798 157.773 174.062 157.773C174.394 157.773 174.687 157.829 174.939 157.941C175.195 158.053 175.394 158.221 175.538 158.445C175.681 158.668 175.753 158.949 175.753 159.288V161.539C175.753 161.699 175.764 161.866 175.787 162.038C175.813 162.21 175.849 162.352 175.895 162.464V162.516H175.348C175.314 162.412 175.287 162.283 175.267 162.128C175.249 161.971 175.241 161.821 175.241 161.681ZM175.361 159.804L175.37 160.2H174.359C174.095 160.2 173.858 160.225 173.648 160.274C173.442 160.319 173.267 160.388 173.123 160.48C172.98 160.569 172.87 160.677 172.792 160.803C172.717 160.929 172.68 161.073 172.68 161.233C172.68 161.4 172.722 161.552 172.805 161.689C172.891 161.827 173.012 161.938 173.166 162.021C173.324 162.101 173.511 162.141 173.726 162.141C174.013 162.141 174.265 162.088 174.483 161.982C174.704 161.876 174.886 161.737 175.03 161.565C175.173 161.392 175.269 161.204 175.318 161.001L175.542 161.298C175.505 161.441 175.436 161.589 175.335 161.741C175.238 161.89 175.11 162.031 174.952 162.163C174.795 162.292 174.608 162.398 174.393 162.481C174.181 162.562 173.94 162.602 173.67 162.602C173.366 162.602 173.1 162.544 172.874 162.43C172.65 162.315 172.475 162.158 172.349 161.96C172.225 161.76 172.164 161.533 172.164 161.281C172.164 161.051 172.213 160.846 172.31 160.665C172.408 160.482 172.548 160.327 172.732 160.2C172.918 160.071 173.142 159.974 173.403 159.908C173.667 159.839 173.963 159.804 174.29 159.804H175.361ZM178.894 157.859V158.281H176.562V157.859H178.894ZM177.418 156.663H177.93V161.384C177.93 161.599 177.959 161.761 178.016 161.87C178.074 161.979 178.148 162.052 178.24 162.09C178.332 162.127 178.431 162.146 178.537 162.146C178.615 162.146 178.689 162.141 178.761 162.133C178.833 162.121 178.897 162.11 178.955 162.098L178.976 162.533C178.913 162.553 178.831 162.569 178.731 162.58C178.63 162.595 178.53 162.602 178.43 162.602C178.232 162.602 178.057 162.566 177.905 162.494C177.753 162.42 177.633 162.293 177.547 162.115C177.461 161.935 177.418 161.689 177.418 161.38V156.663Z" fill="black"/>
<circle cx="132.727" cy="189.634" r="3.30508" fill="#D9D9D9"/>
<rect x="142.643" y="186.329" width="44.0678" height="6.61017" rx="3.30508" fill="#D9D9D9"/>
<circle cx="132.727" cy="210.566" r="3.30508" fill="#D9D9D9"/>
<rect x="142.643" y="207.261" width="44.0678" height="6.61017" rx="3.30508" fill="#D9D9D9"/>
<circle cx="132.727" cy="231.499" r="3.30508" fill="#D9D9D9"/>
<rect x="142.643" y="228.194" width="44.0678" height="6.61017" rx="3.30508" fill="#D9D9D9"/>
<rect x="129.422" y="275.922" width="17.6271" height="17.6271" rx="8.81356" fill="#4A80FC"/>
<path d="M135.297 284.735H138.235M138.235 284.735H141.173M138.235 284.735V281.797M138.235 284.735V287.673" stroke="white" stroke-width="0.550848" stroke-linecap="round" stroke-linejoin="round"/>
<defs>
<filter id="filter0_ddd_7916_14706" x="228.575" y="7.11017" width="80.4233" height="79.322" filterUnits="userSpaceOnUse" color-interpolation-filters="sRGB">
<feFlood flood-opacity="0" result="BackgroundImageFix"/>
<feColorMatrix in="SourceAlpha" type="matrix" values="0 0 0 0 0 0 0 0 0 0 0 0 0 0 0 0 0 0 127 0" result="hardAlpha"/>
<feOffset dx="-1.1017" dy="1.1017"/>
<feGaussianBlur stdDeviation="0.550848"/>
<feColorMatrix type="matrix" values="0 0 0 0 0 0 0 0 0 0 0 0 0 0 0 0 0 0 0.09 0"/>
<feBlend mode="normal" in2="BackgroundImageFix" result="effect1_dropShadow_7916_14706"/>
<feColorMatrix in="SourceAlpha" type="matrix" values="0 0 0 0 0 0 0 0 0 0 0 0 0 0 0 0 0 0 127 0" result="hardAlpha"/>
<feOffset dx="-1.1017" dy="2.20339"/>
<feGaussianBlur stdDeviation="0.550848"/>
<feColorMatrix type="matrix" values="0 0 0 0 0 0 0 0 0 0 0 0 0 0 0 0 0 0 0.05 0"/>
<feBlend mode="normal" in2="effect1_dropShadow_7916_14706" result="effect2_dropShadow_7916_14706"/>
<feColorMatrix in="SourceAlpha" type="matrix" values="0 0 0 0 0 0 0 0 0 0 0 0 0 0 0 0 0 0 127 0" result="hardAlpha"/>
<feOffset dx="-2.20339" dy="3.30509"/>
<feGaussianBlur stdDeviation="0.550848"/>
<feColorMatrix type="matrix" values="0 0 0 0 0 0 0 0 0 0 0 0 0 0 0 0 0 0 0.01 0"/>
<feBlend mode="normal" in2="effect2_dropShadow_7916_14706" result="effect3_dropShadow_7916_14706"/>
<feBlend mode="normal" in="SourceGraphic" in2="effect3_dropShadow_7916_14706" result="shape"/>
</filter>
<filter id="filter1_i_7916_14706" x="154.762" y="15.9219" width="63.4446" height="61.6949" filterUnits="userSpaceOnUse" color-interpolation-filters="sRGB">
<feFlood flood-opacity="0" result="BackgroundImageFix"/>
<feBlend mode="normal" in="SourceGraphic" in2="BackgroundImageFix" result="shape"/>
<feColorMatrix in="SourceAlpha" type="matrix" values="0 0 0 0 0 0 0 0 0 0 0 0 0 0 0 0 0 0 127 0" result="hardAlpha"/>
<feOffset dx="2.20339" dy="2.20339"/>
<feGaussianBlur stdDeviation="2.20339"/>
<feComposite in2="hardAlpha" operator="arithmetic" k2="-1" k3="1"/>
<feColorMatrix type="matrix" values="0 0 0 0 0 0 0 0 0 0 0 0 0 0 0 0 0 0 0.25 0"/>
<feBlend mode="normal" in2="shape" result="effect1_innerShadow_7916_14706"/>
</filter>
<filter id="filter2_i_7916_14706" x="404.848" y="15.9219" width="63.4446" height="61.6949" filterUnits="userSpaceOnUse" color-interpolation-filters="sRGB">
<feFlood flood-opacity="0" result="BackgroundImageFix"/>
<feBlend mode="normal" in="SourceGraphic" in2="BackgroundImageFix" result="shape"/>
<feColorMatrix in="SourceAlpha" type="matrix" values="0 0 0 0 0 0 0 0 0 0 0 0 0 0 0 0 0 0 127 0" result="hardAlpha"/>
<feOffset dx="2.20339" dy="2.20339"/>
<feGaussianBlur stdDeviation="2.20339"/>
<feComposite in2="hardAlpha" operator="arithmetic" k2="-1" k3="1"/>
<feColorMatrix type="matrix" values="0 0 0 0 0 0 0 0 0 0 0 0 0 0 0 0 0 0 0.25 0"/>
<feBlend mode="normal" in2="shape" result="effect1_innerShadow_7916_14706"/>
</filter>
<filter id="filter3_i_7916_14706" x="76.543" y="15.9219" width="63.4446" height="61.6949" filterUnits="userSpaceOnUse" color-interpolation-filters="sRGB">
<feFlood flood-opacity="0" result="BackgroundImageFix"/>
<feBlend mode="normal" in="SourceGraphic" in2="BackgroundImageFix" result="shape"/>
<feColorMatrix in="SourceAlpha" type="matrix" values="0 0 0 0 0 0 0 0 0 0 0 0 0 0 0 0 0 0 127 0" result="hardAlpha"/>
<feOffset dx="2.20339" dy="2.20339"/>
<feGaussianBlur stdDeviation="2.20339"/>
<feComposite in2="hardAlpha" operator="arithmetic" k2="-1" k3="1"/>
<feColorMatrix type="matrix" values="0 0 0 0 0 0 0 0 0 0 0 0 0 0 0 0 0 0 0.25 0"/>
<feBlend mode="normal" in2="shape" result="effect1_innerShadow_7916_14706"/>
</filter>
<filter id="filter4_i_7916_14706" x="326.629" y="15.9219" width="63.4446" height="61.6949" filterUnits="userSpaceOnUse" color-interpolation-filters="sRGB">
<feFlood flood-opacity="0" result="BackgroundImageFix"/>
<feBlend mode="normal" in="SourceGraphic" in2="BackgroundImageFix" result="shape"/>
<feColorMatrix in="SourceAlpha" type="matrix" values="0 0 0 0 0 0 0 0 0 0 0 0 0 0 0 0 0 0 127 0" result="hardAlpha"/>
<feOffset dx="2.20339" dy="2.20339"/>
<feGaussianBlur stdDeviation="2.20339"/>
<feComposite in2="hardAlpha" operator="arithmetic" k2="-1" k3="1"/>
<feColorMatrix type="matrix" values="0 0 0 0 0 0 0 0 0 0 0 0 0 0 0 0 0 0 0.25 0"/>
<feBlend mode="normal" in2="shape" result="effect1_innerShadow_7916_14706"/>
</filter>
<filter id="filter5_dddd_7916_14706" x="248.405" y="132.703" width="169.661" height="172.966" filterUnits="userSpaceOnUse" color-interpolation-filters="sRGB">
<feFlood flood-opacity="0" result="BackgroundImageFix"/>
<feColorMatrix in="SourceAlpha" type="matrix" values="0 0 0 0 0 0 0 0 0 0 0 0 0 0 0 0 0 0 127 0" result="hardAlpha"/>
<feOffset/>
<feGaussianBlur stdDeviation="0.550848"/>
<feColorMatrix type="matrix" values="0 0 0 0 0 0 0 0 0 0 0 0 0 0 0 0 0 0 0.1 0"/>
<feBlend mode="normal" in2="BackgroundImageFix" result="effect1_dropShadow_7916_14706"/>
<feColorMatrix in="SourceAlpha" type="matrix" values="0 0 0 0 0 0 0 0 0 0 0 0 0 0 0 0 0 0 127 0" result="hardAlpha"/>
<feOffset dx="-1.1017" dy="1.1017"/>
<feGaussianBlur stdDeviation="1.1017"/>
<feColorMatrix type="matrix" values="0 0 0 0 0 0 0 0 0 0 0 0 0 0 0 0 0 0 0.09 0"/>
<feBlend mode="normal" in2="effect1_dropShadow_7916_14706" result="effect2_dropShadow_7916_14706"/>
<feColorMatrix in="SourceAlpha" type="matrix" values="0 0 0 0 0 0 0 0 0 0 0 0 0 0 0 0 0 0 127 0" result="hardAlpha"/>
<feOffset dx="-2.20339" dy="3.30509"/>
<feGaussianBlur stdDeviation="1.1017"/>
<feColorMatrix type="matrix" values="0 0 0 0 0 0 0 0 0 0 0 0 0 0 0 0 0 0 0.05 0"/>
<feBlend mode="normal" in2="effect2_dropShadow_7916_14706" result="effect3_dropShadow_7916_14706"/>
<feColorMatrix in="SourceAlpha" type="matrix" values="0 0 0 0 0 0 0 0 0 0 0 0 0 0 0 0 0 0 127 0" result="hardAlpha"/>
<feOffset dx="-4.40678" dy="6.61017"/>
<feGaussianBlur stdDeviation="1.65254"/>
<feColorMatrix type="matrix" values="0 0 0 0 0 0 0 0 0 0 0 0 0 0 0 0 0 0 0.01 0"/>
<feBlend mode="normal" in2="effect3_dropShadow_7916_14706" result="effect4_dropShadow_7916_14706"/>
<feBlend mode="normal" in="SourceGraphic" in2="effect4_dropShadow_7916_14706" result="shape"/>
</filter>
<linearGradient id="paint0_linear_7916_14706" x1="271.2" y1="0.5" x2="271.2" y2="89.7373" gradientUnits="userSpaceOnUse">
<stop stop-color="#D7D7D7"/>
<stop offset="1" stop-color="#0060C7"/>
</linearGradient>
<linearGradient id="paint1_linear_7916_14706" x1="106.891" y1="75.4141" x2="106.891" y2="227.448" gradientUnits="userSpaceOnUse">
<stop stop-color="#A6A6A6"/>
<stop offset="1" stop-color="white"/>
</linearGradient>
<linearGradient id="paint2_linear_7916_14706" x1="435.195" y1="75.4141" x2="435.195" y2="227.448" gradientUnits="userSpaceOnUse">
<stop stop-color="#A6A6A6"/>
<stop offset="1" stop-color="white"/>
</linearGradient>
<linearGradient id="paint3_linear_7916_14706" x1="-4.37114e-08" y1="211" x2="115.5" y2="211" gradientUnits="userSpaceOnUse">
<stop stop-color="white"/>
<stop offset="1" stop-color="#404040"/>
</linearGradient>
<linearGradient id="paint4_linear_7916_14706" x1="539" y1="210" x2="416.228" y2="210" gradientUnits="userSpaceOnUse">
<stop stop-color="white"/>
<stop offset="1" stop-color="#404040"/>
</linearGradient>
<clipPath id="clip0_7916_14706">
<rect width="45.0816" height="45.2577" fill="white" transform="translate(248.406 22.5352)"/>
</clipPath>
</defs>
</svg>
