<svg width="542" height="263" viewBox="0 0 542 263" fill="none" xmlns="http://www.w3.org/2000/svg">
<path d="M93.6445 157.088V137.433L115.023 123.633L136.402 137.433V157.088L115.023 168.379L93.6445 157.088Z" stroke="#9600FF" stroke-opacity="0.5" stroke-width="0.994355"/>
<line x1="114.623" y1="168.375" x2="114.623" y2="201.189" stroke="#7F7F7F" stroke-width="0.198871" stroke-dasharray="0.4 0.4"/>
<path d="M115.023 94.7969L115.023 123.136" stroke="#7F7F7F" stroke-width="0.198871" stroke-dasharray="0.4 0.4"/>
<line x1="51.8828" y1="206.065" x2="175.183" y2="206.065" stroke="black" stroke-opacity="0.5" stroke-width="0.198871"/>
<rect x="32.9922" y="187.27" width="47.7036" height="37.4382" rx="3.97742" fill="url(#paint0_linear_7916_14816)"/>
<rect x="31" y="84.8516" width="168.046" height="30.825" rx="3.97742" fill="url(#paint1_linear_7916_14816)"/>
<rect x="339.25" y="6.29688" width="57.6726" height="15.9097" rx="3.97742" fill="url(#paint2_linear_7916_14816)"/>
<rect x="35.4462" y="187.739" width="44.801" height="33.8631" rx="3.50775" fill="#EAEAEA" fill-opacity="0.84" stroke="#E8E8E8" stroke-width="0.939335"/>
<rect x="92.1641" y="187.27" width="47.7036" height="37.4382" rx="3.97742" fill="url(#paint3_linear_7916_14816)"/>
<rect x="95.1103" y="187.739" width="43.8067" height="33.8631" rx="3.50775" fill="#EAEAEA" fill-opacity="0.84" stroke="#E8E8E8" stroke-width="0.939335"/>
<rect x="151.344" y="187.27" width="47.7036" height="37.4382" rx="3.97742" fill="url(#paint4_linear_7916_14816)"/>
<rect x="153.774" y="187.739" width="44.801" height="33.8631" rx="3.50775" fill="#EAEAEA" fill-opacity="0.84" stroke="#E8E8E8" stroke-width="0.939335"/>
<rect x="35.4462" y="85.3212" width="163.129" height="25.9083" rx="3.50775" fill="#EAEAEA" fill-opacity="0.84" stroke="#E8E8E8" stroke-width="0.939335"/>
<rect x="112.539" y="175.336" width="4.54563" height="3.97742" fill="#D9D9D9"/>
<path d="M114.523 83.8558V37.1211C114.523 32.1786 118.53 28.1719 123.473 28.1719H228.874" stroke="#7F7F7F" stroke-width="0.198871"/>
<rect x="199.295" y="5.55328" width="59.1642" height="50.215" fill="white" stroke="url(#paint5_linear_7916_14816)" stroke-width="0.497178"/>
<path d="M201.531 100.266H234.842C239.785 100.266 243.791 104.272 243.791 109.215V137.554" stroke="#7F7F7F" stroke-width="0.198871"/>
<rect x="214.21" y="124.874" width="59.1642" height="50.215" fill="white" stroke="url(#paint6_linear_7916_14816)" stroke-width="0.497178"/>
<path d="M244.289 175.336C244.289 176.323 244.289 197.356 244.289 213.127C244.289 218.07 248.296 222.071 253.238 222.071H338.753" stroke="#7F7F7F" stroke-width="0.198871"/>
<ellipse cx="429.737" cy="12.8736" rx="9.94355" ry="9.56111" fill="url(#paint7_linear_7916_14816)"/>
<path d="M396.922 12.7617H419.792" stroke="#7F7F7F" stroke-width="0.198871"/>
<path d="M369.078 20.2188L368.084 185.282" stroke="#7F7F7F" stroke-width="0.198871"/>
<g filter="url(#filter0_dddd_7916_14816)">
<mask id="path-23-inside-1_7916_14816" fill="white">
<path d="M326.32 118.66H410.841V169.372H326.32V118.66Z"/>
</mask>
<path d="M326.32 118.66H410.841V169.372H326.32V118.66Z" fill="white"/>
<path d="M326.32 169.372H328.309V118.66H326.32H324.332V169.372H326.32Z" fill="url(#paint8_linear_7916_14816)" mask="url(#path-23-inside-1_7916_14816)"/>
</g>
<rect x="341.242" y="5.30469" width="55.6839" height="14.9153" rx="3.97742" fill="white"/>
<g filter="url(#filter1_dddd_7916_14816)">
<mask id="path-26-inside-2_7916_14816" fill="white">
<path d="M326.32 52.0391H410.841V102.751H326.32V52.0391Z"/>
</mask>
<path d="M326.32 52.0391H410.841V102.751H326.32V52.0391Z" fill="white"/>
<path d="M326.32 102.751H328.309V52.0391H326.32H324.332V102.751H326.32Z" fill="url(#paint9_linear_7916_14816)" mask="url(#path-26-inside-2_7916_14816)"/>
</g>
<path d="M439.68 13.2585C443.166 12.9416 460.981 13.0246 474.114 13.1553C479.008 13.2039 482.934 17.1904 482.934 22.0845V178.819" stroke="#7F7F7F" stroke-width="0.198871"/>
<g filter="url(#filter2_dddd_7916_14816)">
<rect x="461.555" y="47.0664" width="37.7855" height="27.842" fill="#EAEAEA" fill-opacity="0.84"/>
<rect x="462.024" y="47.5361" width="36.8462" height="26.9026" stroke="#E8E8E8" stroke-width="0.939335"/>
</g>
<path d="M482.932 178.82V212.628C482.932 217.571 478.925 221.578 473.982 221.578H410.344" stroke="#7F7F7F" stroke-width="0.198871"/>
<g filter="url(#filter3_dddd_7916_14816)">
<mask id="path-32-inside-3_7916_14816" fill="white">
<path d="M326.32 185.281H410.841V235.993H326.32V185.281Z"/>
</mask>
<path d="M326.32 185.281H410.841V235.993H326.32V185.281Z" fill="white"/>
<path d="M326.32 235.993H328.309V185.281H326.32H324.332V235.993H326.32Z" fill="url(#paint10_linear_7916_14816)" mask="url(#path-32-inside-3_7916_14816)"/>
</g>
<path d="M484.923 110.952C498.809 110.952 510.03 121.321 510.03 134.07C510.03 146.82 498.809 157.189 484.923 157.189C471.037 157.189 459.815 146.82 459.815 134.07C459.816 121.321 471.037 110.952 484.923 110.952Z" fill="white" stroke="url(#paint11_linear_7916_14816)" stroke-width="0.497178"/>
<circle cx="172.198" cy="28.1749" r="4.97178" fill="#9600FF"/>
<circle cx="446.644" cy="222.073" r="4.97178" fill="#9600FF"/>
<path d="M241.305 196.219H247.271V201.191H241.305V196.219Z" fill="#9600FF"/>
<path d="M464.043 10.2734L460.562 13.2565L464.043 16.2396L467.523 13.2565L464.043 10.2734Z" fill="#9600FF"/>
<rect x="347.203" y="8.28516" width="10.9379" height="8.9492" rx="0.994355" fill="#0060C7"/>
<path d="M349.766 12.8663L351.525 14.6258L355.044 10.8555" stroke="white" stroke-width="0.754065" stroke-linecap="round" stroke-linejoin="round"/>
<path d="M364.957 15.329C364.639 15.329 364.334 15.2812 364.044 15.1858C363.754 15.0864 363.525 14.9591 363.358 14.804L363.579 14.3386C363.738 14.4778 363.941 14.5932 364.187 14.6846C364.434 14.7761 364.69 14.8219 364.957 14.8219C365.199 14.8219 365.396 14.794 365.547 14.7383C365.699 14.6826 365.81 14.6071 365.882 14.5116C365.953 14.4122 365.989 14.3008 365.989 14.1775C365.989 14.0343 365.941 13.919 365.846 13.8315C365.754 13.744 365.633 13.6744 365.482 13.6227C365.335 13.567 365.172 13.5193 364.993 13.4795C364.814 13.4397 364.633 13.394 364.45 13.3423C364.271 13.2866 364.106 13.217 363.955 13.1334C363.807 13.0499 363.688 12.9385 363.597 12.7993C363.505 12.6562 363.459 12.4732 363.459 12.2505C363.459 12.0357 363.515 11.8388 363.626 11.6598C363.742 11.4768 363.917 11.3317 364.151 11.2243C364.39 11.1129 364.692 11.0572 365.058 11.0572C365.301 11.0572 365.541 11.089 365.78 11.1527C366.019 11.2163 366.226 11.3078 366.401 11.4271L366.204 11.9044C366.025 11.7851 365.836 11.6996 365.637 11.6479C365.438 11.5922 365.245 11.5643 365.058 11.5643C364.824 11.5643 364.631 11.5942 364.48 11.6538C364.328 11.7135 364.217 11.7931 364.145 11.8925C364.078 11.9919 364.044 12.1033 364.044 12.2266C364.044 12.3738 364.09 12.4911 364.181 12.5786C364.277 12.6661 364.398 12.7357 364.545 12.7874C364.696 12.8391 364.861 12.8868 365.04 12.9306C365.219 12.9704 365.398 13.0161 365.577 13.0678C365.76 13.1195 365.925 13.1871 366.072 13.2707C366.224 13.3542 366.345 13.4656 366.436 13.6048C366.528 13.744 366.574 13.923 366.574 14.1417C366.574 14.3525 366.516 14.5494 366.401 14.7324C366.285 14.9113 366.106 15.0565 365.864 15.1679C365.625 15.2753 365.323 15.329 364.957 15.329ZM368.692 15.317C368.422 15.317 368.183 15.2673 367.976 15.1679C367.773 15.0685 367.614 14.9173 367.499 14.7145C367.388 14.5076 367.332 14.2491 367.332 13.9389V12.1192H367.905V13.8732C367.905 14.1835 367.978 14.4162 368.125 14.5713C368.277 14.7264 368.487 14.804 368.758 14.804C368.957 14.804 369.13 14.7642 369.277 14.6846C369.424 14.6011 369.537 14.4818 369.617 14.3267C369.696 14.1676 369.736 13.9767 369.736 13.7539V12.1192H370.309V15.2812H369.766V14.4281L369.856 14.6548C369.752 14.8656 369.597 15.0287 369.39 15.144C369.183 15.2594 368.951 15.317 368.692 15.317ZM372.778 15.317C372.455 15.317 372.167 15.2474 371.912 15.1082C371.662 14.969 371.465 14.7781 371.322 14.5355C371.179 14.2929 371.107 14.0144 371.107 13.7002C371.107 13.386 371.179 13.1076 371.322 12.865C371.465 12.6223 371.662 12.4334 371.912 12.2982C372.167 12.159 372.455 12.0894 372.778 12.0894C373.064 12.0894 373.318 12.147 373.541 12.2624C373.768 12.3738 373.943 12.5408 374.066 12.7635L373.631 13.044C373.527 12.8888 373.4 12.7755 373.249 12.7039C373.102 12.6283 372.943 12.5905 372.772 12.5905C372.565 12.5905 372.38 12.6363 372.217 12.7277C372.054 12.8192 371.924 12.9485 371.829 13.1155C371.733 13.2786 371.686 13.4735 371.686 13.7002C371.686 13.9269 371.733 14.1238 371.829 14.2909C371.924 14.4579 372.054 14.5872 372.217 14.6787C372.38 14.7702 372.565 14.8159 372.772 14.8159C372.943 14.8159 373.102 14.7801 373.249 14.7085C373.4 14.6329 373.527 14.5176 373.631 14.3625L374.066 14.6369C373.943 14.8557 373.768 15.0247 373.541 15.144C373.318 15.2594 373.064 15.317 372.778 15.317ZM376.139 15.317C375.817 15.317 375.529 15.2474 375.274 15.1082C375.024 14.969 374.827 14.7781 374.684 14.5355C374.54 14.2929 374.469 14.0144 374.469 13.7002C374.469 13.386 374.54 13.1076 374.684 12.865C374.827 12.6223 375.024 12.4334 375.274 12.2982C375.529 12.159 375.817 12.0894 376.139 12.0894C376.426 12.0894 376.68 12.147 376.903 12.2624C377.13 12.3738 377.305 12.5408 377.428 12.7635L376.992 13.044C376.889 12.8888 376.762 12.7755 376.611 12.7039C376.463 12.6283 376.304 12.5905 376.133 12.5905C375.927 12.5905 375.742 12.6363 375.578 12.7277C375.415 12.8192 375.286 12.9485 375.191 13.1155C375.095 13.2786 375.048 13.4735 375.048 13.7002C375.048 13.9269 375.095 14.1238 375.191 14.2909C375.286 14.4579 375.415 14.5872 375.578 14.6787C375.742 14.7702 375.927 14.8159 376.133 14.8159C376.304 14.8159 376.463 14.7801 376.611 14.7085C376.762 14.6329 376.889 14.5176 376.992 14.3625L377.428 14.6369C377.305 14.8557 377.13 15.0247 376.903 15.144C376.68 15.2594 376.426 15.317 376.139 15.317ZM379.531 15.317C379.193 15.317 378.895 15.2474 378.636 15.1082C378.381 14.969 378.183 14.7781 378.039 14.5355C377.9 14.2929 377.831 14.0144 377.831 13.7002C377.831 13.386 377.898 13.1076 378.033 12.865C378.173 12.6223 378.362 12.4334 378.6 12.2982C378.843 12.159 379.115 12.0894 379.418 12.0894C379.724 12.0894 379.994 12.157 380.229 12.2922C380.464 12.4274 380.647 12.6184 380.778 12.865C380.913 13.1076 380.981 13.392 380.981 13.7181C380.981 13.742 380.979 13.7698 380.975 13.8016C380.975 13.8335 380.973 13.8633 380.969 13.8911H378.278V13.4795H380.67L380.438 13.6227C380.442 13.4198 380.4 13.2388 380.312 13.0797C380.225 12.9207 380.104 12.7974 379.949 12.7098C379.797 12.6184 379.62 12.5726 379.418 12.5726C379.219 12.5726 379.042 12.6184 378.887 12.7098C378.731 12.7974 378.61 12.9226 378.523 13.0857C378.435 13.2448 378.391 13.4278 378.391 13.6346V13.7301C378.391 13.9409 378.439 14.1298 378.535 14.2968C378.634 14.4599 378.771 14.5872 378.946 14.6787C379.121 14.7702 379.322 14.8159 379.549 14.8159C379.736 14.8159 379.905 14.7841 380.056 14.7204C380.211 14.6568 380.346 14.5613 380.462 14.4341L380.778 14.804C380.635 14.971 380.456 15.0983 380.241 15.1858C380.03 15.2733 379.793 15.317 379.531 15.317ZM382.683 15.317C382.42 15.317 382.17 15.2812 381.931 15.2097C381.696 15.1381 381.511 15.0506 381.376 14.9471L381.615 14.4937C381.75 14.5852 381.917 14.6628 382.116 14.7264C382.315 14.79 382.518 14.8219 382.725 14.8219C382.991 14.8219 383.182 14.7841 383.297 14.7085C383.417 14.6329 383.476 14.5275 383.476 14.3923C383.476 14.2929 383.441 14.2153 383.369 14.1596C383.297 14.1039 383.202 14.0622 383.083 14.0343C382.967 14.0065 382.838 13.9826 382.695 13.9627C382.552 13.9389 382.408 13.911 382.265 13.8792C382.122 13.8434 381.991 13.7957 381.871 13.736C381.752 13.6724 381.657 13.5869 381.585 13.4795C381.513 13.3681 381.478 13.2209 381.478 13.038C381.478 12.8471 381.531 12.68 381.639 12.5368C381.746 12.3936 381.897 12.2843 382.092 12.2087C382.291 12.1291 382.526 12.0894 382.796 12.0894C383.003 12.0894 383.212 12.1152 383.423 12.1669C383.637 12.2147 383.812 12.2843 383.948 12.3757L383.703 12.8292C383.56 12.7337 383.411 12.6681 383.256 12.6323C383.1 12.5965 382.945 12.5786 382.79 12.5786C382.54 12.5786 382.353 12.6204 382.229 12.7039C382.106 12.7834 382.044 12.8868 382.044 13.0141C382.044 13.1215 382.08 13.205 382.152 13.2647C382.227 13.3204 382.323 13.3641 382.438 13.396C382.558 13.4278 382.689 13.4556 382.832 13.4795C382.975 13.4994 383.118 13.5272 383.262 13.563C383.405 13.5948 383.534 13.6406 383.649 13.7002C383.769 13.7599 383.864 13.8434 383.936 13.9508C384.011 14.0582 384.049 14.2014 384.049 14.3804C384.049 14.5713 383.993 14.7363 383.882 14.8756C383.771 15.0148 383.614 15.1241 383.411 15.2037C383.208 15.2793 382.965 15.317 382.683 15.317ZM385.672 15.317C385.409 15.317 385.159 15.2812 384.92 15.2097C384.685 15.1381 384.5 15.0506 384.365 14.9471L384.604 14.4937C384.739 14.5852 384.906 14.6628 385.105 14.7264C385.304 14.79 385.507 14.8219 385.714 14.8219C385.98 14.8219 386.171 14.7841 386.286 14.7085C386.406 14.6329 386.465 14.5275 386.465 14.3923C386.465 14.2929 386.429 14.2153 386.358 14.1596C386.286 14.1039 386.191 14.0622 386.071 14.0343C385.956 14.0065 385.827 13.9826 385.684 13.9627C385.54 13.9389 385.397 13.911 385.254 13.8792C385.111 13.8434 384.98 13.7957 384.86 13.736C384.741 13.6724 384.646 13.5869 384.574 13.4795C384.502 13.3681 384.467 13.2209 384.467 13.038C384.467 12.8471 384.52 12.68 384.628 12.5368C384.735 12.3936 384.886 12.2843 385.081 12.2087C385.28 12.1291 385.515 12.0894 385.785 12.0894C385.992 12.0894 386.201 12.1152 386.412 12.1669C386.626 12.2147 386.801 12.2843 386.937 12.3757L386.692 12.8292C386.549 12.7337 386.4 12.6681 386.244 12.6323C386.089 12.5965 385.934 12.5786 385.779 12.5786C385.529 12.5786 385.342 12.6204 385.218 12.7039C385.095 12.7834 385.033 12.8868 385.033 13.0141C385.033 13.1215 385.069 13.205 385.141 13.2647C385.216 13.3204 385.312 13.3641 385.427 13.396C385.546 13.4278 385.678 13.4556 385.821 13.4795C385.964 13.4994 386.107 13.5272 386.25 13.563C386.394 13.5948 386.523 13.6406 386.638 13.7002C386.758 13.7599 386.853 13.8434 386.925 13.9508C387 14.0582 387.038 14.2014 387.038 14.3804C387.038 14.5713 386.982 14.7363 386.871 14.8756C386.76 15.0148 386.602 15.1241 386.4 15.2037C386.197 15.2793 385.954 15.317 385.672 15.317Z" fill="#7F7F7F"/>
<path d="M470.504 60.4872C470.229 60.4872 470.007 60.7098 470.007 60.9844C470.007 61.259 470.229 61.4816 470.504 61.4816V60.4872ZM491.737 61.3359C491.931 61.1418 491.931 60.827 491.737 60.6328L488.573 57.4688C488.379 57.2746 488.064 57.2746 487.87 57.4688C487.676 57.663 487.676 57.9778 487.87 58.1719L490.682 60.9844L487.87 63.7968C487.676 63.991 487.676 64.3058 487.87 64.5C488.064 64.6941 488.379 64.6941 488.573 64.5L491.737 61.3359ZM470.504 60.9844V61.4816L491.385 61.4816V60.9844V60.4872L470.504 60.4872V60.9844Z" fill="#7F7F7F"/>
<path d="M60.8363 208.151C58.5573 214.117 52.1775 208.151 49.8984 214.117M63.3222 208.151H64.8148C67.1585 208.151 68.3308 208.151 69.0587 207.423C69.7865 206.695 69.7865 205.523 69.7865 203.179V201.191C69.7865 198.847 69.7865 197.674 69.0587 196.947C68.3308 196.219 67.1604 196.219 64.8148 196.219H60.8373C58.4936 196.219 57.3223 196.219 56.5944 196.947C55.9779 197.563 55.8825 198.499 55.8685 200.196" stroke="#7F7F7F" stroke-width="1.49153" stroke-linecap="round" stroke-linejoin="round"/>
<path d="M55.3687 208.151C56.7416 208.151 57.8546 207.038 57.8546 205.666C57.8546 204.293 56.7416 203.18 55.3687 203.18C53.9958 203.18 52.8828 204.293 52.8828 205.666C52.8828 207.038 53.9958 208.151 55.3687 208.151Z" stroke="#7F7F7F" stroke-width="1.49153" stroke-linecap="round" stroke-linejoin="round"/>
<path d="M59.8438 200.195H65.8099M65.8099 204.173H62.8268" stroke="#7F7F7F" stroke-width="1.49153" stroke-linecap="round" stroke-linejoin="round"/>
<g clip-path="url(#clip0_7916_14816)">
<path d="M121.199 202.315L120.954 202.878C120.916 202.97 120.852 203.048 120.769 203.103C120.686 203.158 120.589 203.188 120.49 203.188C120.391 203.188 120.294 203.158 120.211 203.103C120.128 203.048 120.064 202.97 120.026 202.878L119.781 202.315C119.351 201.32 118.563 200.522 117.574 200.078L116.819 199.741C116.727 199.699 116.65 199.631 116.595 199.547C116.541 199.462 116.512 199.363 116.512 199.262C116.512 199.161 116.541 199.063 116.595 198.978C116.65 198.893 116.727 198.826 116.819 198.783L117.532 198.466C118.546 198.01 119.348 197.182 119.77 196.153L120.022 195.546C120.059 195.452 120.123 195.371 120.207 195.314C120.29 195.257 120.389 195.227 120.49 195.227C120.591 195.227 120.69 195.257 120.773 195.314C120.857 195.371 120.921 195.452 120.958 195.546L121.21 196.152C121.632 197.182 122.433 198.01 123.447 198.466L124.161 198.784C124.252 198.827 124.33 198.894 124.384 198.979C124.438 199.064 124.467 199.162 124.467 199.263C124.467 199.363 124.438 199.462 124.384 199.547C124.33 199.631 124.252 199.699 124.161 199.741L123.405 200.077C122.416 200.521 121.629 201.32 121.199 202.315ZM106.398 204.177L110.617 208.396L109.211 209.802L103.586 204.177L109.211 198.552L110.616 199.958L106.398 204.177ZM121.825 209.802L127.45 204.177L124.636 201.365L123.23 202.771L124.637 204.177L120.419 208.396L121.825 209.802Z" fill="#7F7F7F"/>
</g>
<g clip-path="url(#clip1_7916_14816)">
<path d="M184.129 197.215H173.191C172.098 197.215 171.203 198.11 171.203 199.204V213.125L175.18 209.147H184.129C185.223 209.147 186.118 208.252 186.118 207.158V199.204C186.118 198.11 185.223 197.215 184.129 197.215ZM184.129 207.158H174.385L173.191 208.352V199.204H184.129V207.158ZM167.225 199.204C166.629 199.204 166.231 199.601 166.231 200.198C166.231 200.795 166.629 201.192 167.225 201.192H169.214V199.204H167.225ZM166.231 203.181C165.634 203.181 165.237 203.579 165.237 204.175C165.237 204.772 165.634 205.17 166.231 205.17H169.214V203.181H166.231ZM165.237 207.158C164.64 207.158 164.242 207.556 164.242 208.153C164.242 208.749 164.64 209.147 165.237 209.147H169.214V207.158H165.237Z" fill="#7F7F7F"/>
</g>
<g clip-path="url(#clip2_7916_14816)">
<path d="M484.499 140.457C484.499 140.882 484.535 141.295 484.595 141.707H477.853C476.04 141.707 474.457 141.082 473.152 139.745C471.86 138.432 471.207 136.82 471.207 134.932C471.207 133.307 471.678 131.857 472.621 130.582C474.035 128.67 474.832 128.495 476.342 128.145C476.85 126.232 477.853 124.682 479.363 123.495C480.874 122.307 482.59 121.707 484.499 121.707C486.855 121.707 488.849 122.557 490.492 124.257C492.135 125.957 492.957 128.02 492.957 130.457C494.347 130.62 495.495 131.245 496.413 132.332C496.485 132.395 496.534 132.495 496.582 132.57C495.495 132.02 494.262 131.707 492.957 131.707C488.281 131.707 484.499 135.62 484.499 140.457ZM498.793 142.507L497.585 144.67C497.5 144.832 497.343 144.832 497.186 144.832L495.7 144.207C495.374 144.432 495.047 144.632 494.685 144.795L494.455 146.445C494.431 146.595 494.298 146.707 494.165 146.707H491.749C491.58 146.707 491.459 146.595 491.435 146.445L491.205 144.795C490.83 144.645 490.492 144.432 490.178 144.207L488.68 144.832C488.535 144.832 488.377 144.832 488.305 144.67L487.097 142.507C487.063 142.442 487.052 142.367 487.065 142.294C487.078 142.221 487.115 142.155 487.169 142.107L488.45 141.082C488.402 140.667 488.402 140.247 488.45 139.832L487.169 138.807C487.113 138.76 487.075 138.694 487.061 138.621C487.048 138.548 487.061 138.472 487.097 138.407L488.305 136.245C488.39 136.082 488.547 136.082 488.68 136.082L490.178 136.707C490.492 136.482 490.842 136.282 491.205 136.12L491.435 134.47C491.449 134.395 491.488 134.327 491.545 134.279C491.603 134.231 491.675 134.206 491.749 134.207H494.165C494.298 134.207 494.431 134.32 494.443 134.47L494.673 136.12C495.047 136.27 495.374 136.482 495.7 136.707L497.186 136.082C497.343 136.082 497.5 136.082 497.573 136.245L498.781 138.407C498.854 138.545 498.817 138.707 498.709 138.807L497.428 139.832C497.464 140.045 497.476 140.245 497.476 140.457C497.476 140.67 497.452 140.87 497.428 141.082L498.721 142.107C498.83 142.207 498.866 142.37 498.793 142.507ZM494.77 140.457C494.77 139.42 493.948 138.582 492.957 138.582C491.966 138.582 491.145 139.42 491.145 140.457C491.145 141.495 491.942 142.332 492.957 142.332C493.972 142.332 494.77 141.495 494.77 140.457Z" fill="url(#paint12_linear_7916_14816)"/>
</g>
<path d="M244.317 131.586C233.552 131.586 224.705 138.87 223.843 148.157H221.685C221.351 148.157 221.025 148.245 220.747 148.409C220.47 148.574 220.254 148.808 220.127 149.081C220 149.355 219.967 149.655 220.034 149.945C220.1 150.235 220.262 150.501 220.499 150.709L224.272 154.022C224.587 154.299 225.013 154.454 225.457 154.454C225.901 154.454 226.328 154.299 226.643 154.022L230.415 150.709C230.653 150.501 230.815 150.235 230.881 149.945C230.948 149.655 230.915 149.355 230.788 149.081C230.661 148.808 230.445 148.574 230.168 148.409C229.89 148.245 229.564 148.157 229.23 148.157H227.225C228.078 140.539 235.394 134.569 244.317 134.569C247.26 134.564 250.154 135.227 252.724 136.496C255.294 137.764 257.453 139.595 258.996 141.814C259.109 141.986 259.26 142.136 259.439 142.256C259.619 142.376 259.824 142.462 260.042 142.511C260.26 142.56 260.487 142.569 260.709 142.539C260.931 142.508 261.144 142.439 261.335 142.335C261.527 142.23 261.693 142.093 261.823 141.931C261.954 141.769 262.047 141.586 262.096 141.391C262.145 141.197 262.15 140.996 262.11 140.8C262.07 140.604 261.987 140.417 261.864 140.25C260.02 137.598 257.439 135.409 254.367 133.893C251.296 132.376 247.834 131.581 244.317 131.586ZM263.993 147.927C263.677 147.651 263.252 147.496 262.809 147.496C262.366 147.496 261.941 147.651 261.626 147.927L257.838 151.24C257.6 151.448 257.437 151.713 257.37 152.003C257.303 152.293 257.335 152.594 257.462 152.868C257.589 153.142 257.805 153.376 258.083 153.541C258.36 153.705 258.687 153.793 259.021 153.793H261.04C260.182 161.41 252.841 167.382 243.875 167.382C240.924 167.388 238.02 166.726 235.439 165.457C232.859 164.189 230.688 162.357 229.133 160.135C229.017 159.968 228.865 159.823 228.686 159.709C228.506 159.594 228.303 159.512 228.088 159.467C227.872 159.421 227.649 159.414 227.431 159.446C227.212 159.477 227.003 159.546 226.815 159.649C226.435 159.857 226.163 160.19 226.06 160.575C225.957 160.96 226.031 161.365 226.266 161.702C228.122 164.357 230.715 166.546 233.797 168.063C236.88 169.579 240.349 170.371 243.875 170.365C254.671 170.365 263.557 163.086 264.421 153.793H266.595C266.929 153.793 267.256 153.705 267.534 153.541C267.811 153.376 268.027 153.142 268.154 152.868C268.281 152.594 268.313 152.293 268.246 152.003C268.179 151.713 268.016 151.448 267.779 151.24L263.993 147.927Z" fill="url(#paint13_linear_7916_14816)"/>
<path d="M252.103 142.706C251.657 142.311 251.053 142.09 250.423 142.09C249.793 142.09 249.189 142.311 248.743 142.706L246.003 145.127C245.886 144.659 245.592 144.241 245.17 143.941C244.748 143.641 244.224 143.478 243.683 143.478H238.928C238.298 143.478 237.693 143.699 237.247 144.094C236.801 144.489 236.551 145.025 236.551 145.583V156.812C236.551 157.527 236.955 158.159 237.571 158.539C237.957 158.778 238.427 158.918 238.933 158.918H251.612C252.242 158.918 252.847 158.697 253.293 158.302C253.739 157.907 253.989 157.371 253.989 156.813V152.602C253.989 152.136 253.814 151.682 253.491 151.313C253.168 150.944 252.716 150.681 252.206 150.564L254.908 148.165C255.354 147.771 255.604 147.235 255.604 146.677C255.604 146.119 255.354 145.583 254.908 145.188L252.103 142.706ZM246.06 148.278L248.564 150.495H246.06V148.278ZM244.475 150.495H238.136V145.583C238.136 145.397 238.219 145.218 238.368 145.087C238.516 144.955 238.718 144.881 238.928 144.881H243.683C243.893 144.881 244.094 144.955 244.243 145.087C244.392 145.218 244.475 145.397 244.475 145.583V150.495ZM238.475 157.387C238.371 157.322 238.286 157.236 238.228 157.135C238.17 157.035 238.14 156.924 238.14 156.812V151.899H244.475V157.513H238.928C238.766 157.513 238.608 157.469 238.475 157.387ZM246.06 157.513V151.899H251.612C251.822 151.899 252.024 151.973 252.172 152.105C252.321 152.236 252.404 152.415 252.404 152.601V156.812C252.404 156.998 252.321 157.176 252.172 157.308C252.024 157.439 251.822 157.513 251.612 157.513H246.06Z" fill="black" fill-opacity="0.7"/>
<path d="M234.842 27.6758C237.318 27.6758 239.301 25.6771 239.301 23.2012C239.301 20.7252 237.318 18.7266 234.842 18.7266C232.366 18.7266 230.367 20.7252 230.367 23.2012C230.367 25.6771 232.366 27.6758 234.842 27.6758ZM222.909 27.6758C225.385 27.6758 227.369 25.6771 227.369 23.2012C227.369 20.7252 225.385 18.7266 222.909 18.7266C220.434 18.7266 218.435 20.7252 218.435 23.2012C218.435 25.6771 220.434 27.6758 222.909 27.6758ZM222.909 30.6588C219.434 30.6588 212.469 32.4039 212.469 35.8792V38.1165C212.469 38.9368 213.14 39.608 213.96 39.608H231.859C232.679 39.608 233.35 38.9368 233.35 38.1165V35.8792C233.35 32.4039 226.385 30.6588 222.909 30.6588ZM234.842 30.6588C234.409 30.6588 233.917 30.6887 233.395 30.7334C233.425 30.7483 233.44 30.7782 233.455 30.7931C235.155 32.031 236.333 33.6866 236.333 35.8792V38.1165C236.333 38.6385 236.229 39.1457 236.065 39.608H243.791C244.611 39.608 245.282 38.9368 245.282 38.1165V35.8792C245.282 32.4039 238.317 30.6588 234.842 30.6588Z" fill="#7F7F7F"/>
<path d="M120.053 142.648C119.599 142.648 119.149 142.742 118.732 142.922C118.315 143.102 117.939 143.366 117.628 143.696L114.976 142.224C115 142.088 115.018 141.951 115.018 141.809C115.018 140.421 113.89 139.292 112.501 139.292C111.113 139.292 109.985 140.421 109.985 141.809C109.986 142.243 110.1 142.67 110.316 143.048C110.532 143.425 110.842 143.739 111.216 143.961L110.464 147.718C109.867 147.803 109.32 148.101 108.924 148.556C108.528 149.012 108.309 149.595 108.307 150.199C108.307 151.586 109.437 152.716 110.824 152.716C112.212 152.716 113.341 151.586 113.341 150.199C113.341 150.126 113.326 150.058 113.319 149.986L117.457 148.104C118.073 148.865 119.001 149.36 120.053 149.36C121.904 149.36 123.409 147.854 123.409 146.004C123.409 144.153 121.904 142.648 120.053 142.648ZM112.501 140.97C112.612 140.97 112.721 140.992 112.823 141.034C112.925 141.076 113.017 141.138 113.095 141.216C113.173 141.294 113.235 141.387 113.277 141.489C113.319 141.59 113.341 141.7 113.341 141.81C113.341 141.92 113.319 142.029 113.277 142.131C113.235 142.233 113.173 142.326 113.095 142.404C113.017 142.482 112.924 142.543 112.822 142.586C112.72 142.628 112.611 142.649 112.501 142.649C112.278 142.649 112.064 142.561 111.907 142.403C111.749 142.246 111.661 142.032 111.661 141.81C111.661 141.587 111.749 141.373 111.907 141.216C112.064 141.058 112.279 140.97 112.501 140.97ZM110.823 151.038C110.671 151.038 110.522 150.997 110.392 150.919C110.262 150.841 110.155 150.73 110.083 150.596C110.011 150.462 109.977 150.312 109.984 150.16C109.991 150.009 110.039 149.862 110.122 149.736C110.206 149.609 110.323 149.508 110.459 149.442C110.596 149.376 110.748 149.349 110.899 149.363C111.05 149.377 111.195 149.432 111.317 149.521C111.439 149.611 111.535 149.732 111.595 149.871L111.595 149.873C111.638 149.974 111.661 150.082 111.662 150.199C111.662 150.421 111.573 150.635 111.416 150.792C111.259 150.949 111.045 151.038 110.823 151.038ZM112.632 148.455C112.476 148.296 112.3 148.159 112.108 148.047L112.861 144.29C113.356 144.217 113.8 144.004 114.158 143.689L116.817 145.165C116.742 145.438 116.702 145.72 116.697 146.004C116.697 146.201 116.722 146.391 116.756 146.58L112.632 148.455ZM120.055 147.682C119.129 147.682 118.377 146.929 118.377 146.004C118.377 145.078 119.129 144.326 120.055 144.326C120.98 144.326 121.733 145.079 121.733 146.004C121.733 146.928 120.98 147.682 120.055 147.682ZM124.324 142.151C124.842 143.401 125.09 144.71 125.087 146.004C125.084 147.312 124.827 148.608 124.332 149.819L125.835 150.571C126.445 149.125 126.761 147.573 126.765 146.004C126.768 144.461 126.466 142.934 125.875 141.509C124.005 136.995 119.627 134.264 115.019 134.258C113.476 134.255 111.947 134.559 110.522 135.152L111.165 136.703C112.386 136.194 113.696 135.934 115.019 135.936C118.968 135.941 122.722 138.282 124.324 142.151ZM118.873 155.306C117.612 155.827 116.305 156.073 115.018 156.071C111.069 156.066 107.317 153.725 105.714 149.856C105.207 148.635 104.948 147.326 104.951 146.004C104.954 144.692 105.214 143.396 105.707 142.189L104.202 141.436C103.593 142.882 103.277 144.435 103.273 146.004C103.27 148.327 103.958 150.599 105.249 152.53C106.54 154.461 108.377 155.965 110.525 156.85C111.95 157.44 113.477 157.746 115.019 157.749C116.52 157.751 118.045 157.464 119.516 156.855L118.873 155.306ZM122.57 151.877C121.63 151.877 120.892 152.615 120.892 153.555C120.892 154.494 121.63 155.233 122.57 155.233C123.51 155.233 124.248 154.494 124.248 153.555C124.248 152.615 123.51 151.877 122.57 151.877ZM107.468 136.775C106.529 136.775 105.79 137.513 105.79 138.453C105.79 139.392 106.529 140.131 107.468 140.131C108.408 140.131 109.146 139.392 109.146 138.453C109.146 137.513 108.408 136.775 107.468 136.775Z" fill="#7F7F7F"/>
<rect x="335.273" y="56.0156" width="61.65" height="15.9097" fill="#D9D9D9"/>
<rect x="335.273" y="124.625" width="61.65" height="15.9097" fill="#D9D9D9"/>
<rect x="335.273" y="191.25" width="61.65" height="15.9097" fill="#D9D9D9"/>
<rect x="335.273" y="75.9023" width="61.65" height="8.9492" fill="#D9D9D9"/>
<rect x="335.273" y="144.512" width="61.65" height="8.9492" fill="#D9D9D9"/>
<rect x="335.273" y="211.133" width="61.65" height="8.9492" fill="#D9D9D9"/>
<rect x="335.273" y="86.8398" width="61.65" height="8.9492" fill="#D9D9D9"/>
<rect x="335.273" y="155.449" width="61.65" height="8.9492" fill="#D9D9D9"/>
<rect x="335.273" y="222.07" width="61.65" height="8.9492" fill="#D9D9D9"/>
<path d="M429.715 3.31641C432.325 3.31641 434.828 4.31165 436.673 6.08319C438.518 7.85472 439.555 10.2574 439.555 12.7628C439.555 15.2681 438.518 17.6708 436.673 19.4424C434.828 21.2139 432.325 22.2092 429.715 22.2092C427.105 22.2092 424.602 21.2139 422.757 19.4424C420.912 17.6708 419.875 15.2681 419.875 12.7628C419.875 10.2574 420.912 7.85472 422.757 6.08319C424.602 4.31165 427.105 3.31641 429.715 3.31641ZM429.715 4.31076C427.38 4.31076 425.141 5.20124 423.489 6.7863C421.838 8.37136 420.911 10.5212 420.911 12.7628C420.911 15.0044 421.838 17.1542 423.489 18.7393C425.141 20.3243 427.38 21.2148 429.715 21.2148C430.871 21.2148 432.016 20.9962 433.084 20.5714C434.152 20.1467 435.123 19.5241 435.94 18.7393C436.758 17.9544 437.407 17.0227 437.849 15.9972C438.291 14.9718 438.519 13.8727 438.519 12.7628C438.519 10.5212 437.592 8.37136 435.94 6.7863C434.289 5.20124 432.05 4.31076 429.715 4.31076ZM429.197 7.29383H430.233V12.6832L435.101 15.3779L434.583 16.243L429.197 13.26V7.29383Z" fill="#7F7F7F"/>
<path d="M55.9113 102.805V95.8442H56.9056V102.805H55.9113ZM61.6643 97.4849C62.0952 97.4849 62.473 97.5677 62.7979 97.7335C63.1293 97.8992 63.3879 98.1511 63.5735 98.4892C63.7591 98.8273 63.8519 99.2548 63.8519 99.7719V102.805H62.8973V99.8813C62.8973 99.3708 62.7714 98.9864 62.5195 98.7278C62.2742 98.4693 61.9262 98.34 61.4754 98.34C61.1373 98.34 60.8423 98.4063 60.5904 98.5389C60.3385 98.6715 60.1429 98.867 60.0037 99.1256C59.8712 99.3841 59.8049 99.7056 59.8049 100.09V102.805H58.8503V97.5346H59.7651V98.9565L59.6159 98.5787C59.7883 98.234 60.0535 97.9655 60.4114 97.7732C60.7694 97.581 61.187 97.4849 61.6643 97.4849ZM68.4126 102.864C67.9751 102.864 67.5741 102.765 67.2095 102.566C66.8515 102.361 66.5631 102.059 66.3444 101.661C66.1323 101.263 66.0262 100.766 66.0262 100.17C66.0262 99.573 66.1289 99.0759 66.3344 98.6781C66.5466 98.2804 66.8316 97.9821 67.1896 97.7832C67.5542 97.5843 67.9619 97.4849 68.4126 97.4849C68.9297 97.4849 69.3871 97.5976 69.7848 97.823C70.1826 98.0484 70.4975 98.3632 70.7295 98.7676C70.9615 99.1653 71.0775 99.6327 71.0775 100.17C71.0775 100.707 70.9615 101.177 70.7295 101.582C70.4975 101.986 70.1826 102.301 69.7848 102.526C69.3871 102.752 68.9297 102.864 68.4126 102.864ZM65.6185 104.734V97.5346H66.5333V98.9565L66.4736 100.18L66.5731 101.403V104.734H65.6185ZM68.3331 102.029C68.6712 102.029 68.9728 101.953 69.238 101.8C69.5097 101.648 69.7219 101.432 69.8743 101.154C70.0334 100.869 70.113 100.541 70.113 100.17C70.113 99.7918 70.0334 99.467 69.8743 99.1952C69.7219 98.9168 69.5097 98.7013 69.238 98.5488C68.9728 98.3964 68.6712 98.3201 68.3331 98.3201C68.0016 98.3201 67.7 98.3964 67.4282 98.5488C67.1631 98.7013 66.9509 98.9168 66.7918 99.1952C66.6394 99.467 66.5631 99.7918 66.5631 100.17C66.5631 100.541 66.6394 100.869 66.7918 101.154C66.9509 101.432 67.1631 101.648 67.4282 101.8C67.7 101.953 68.0016 102.029 68.3331 102.029ZM74.6138 102.864C74.1631 102.864 73.7653 102.781 73.4206 102.616C73.0825 102.45 72.8174 102.198 72.6251 101.86C72.4395 101.515 72.3467 101.084 72.3467 100.567V97.5346H73.3013V100.458C73.3013 100.975 73.4239 101.363 73.6692 101.621C73.9211 101.88 74.2724 102.009 74.7232 102.009C75.0547 102.009 75.343 101.943 75.5883 101.81C75.8336 101.671 76.0225 101.472 76.1551 101.214C76.2877 100.949 76.354 100.63 76.354 100.259V97.5346H77.3085V102.805H76.4037V101.383L76.5528 101.761C76.3805 102.112 76.1219 102.384 75.7772 102.576C75.4325 102.768 75.0447 102.864 74.6138 102.864ZM80.9355 102.864C80.4052 102.864 79.9942 102.722 79.7025 102.437C79.4109 102.152 79.265 101.744 79.265 101.214V96.3812H80.2196V101.174C80.2196 101.459 80.2892 101.678 80.4284 101.83C80.5743 101.983 80.7798 102.059 81.0449 102.059C81.3432 102.059 81.5918 101.976 81.7907 101.81L82.089 102.496C81.9431 102.622 81.7675 102.715 81.562 102.775C81.3631 102.835 81.1543 102.864 80.9355 102.864ZM78.3701 98.3201V97.5346H81.731V98.3201H78.3701ZM94.0638 102.805V95.8442H96.7784C97.3883 95.8442 97.9087 95.9403 98.3396 96.1326C98.7704 96.3248 99.1019 96.6032 99.3339 96.9678C99.5659 97.3324 99.6819 97.7666 99.6819 98.2704C99.6819 98.7742 99.5659 99.2084 99.3339 99.573C99.1019 99.931 98.7704 100.209 98.3396 100.408C97.9087 100.601 97.3883 100.697 96.7784 100.697H94.6107L95.0582 100.229V102.805H94.0638ZM95.0582 100.329L94.6107 99.8316H96.7486C97.385 99.8316 97.8656 99.6957 98.1904 99.4239C98.5218 99.1521 98.6876 98.7676 98.6876 98.2704C98.6876 97.7732 98.5218 97.3888 98.1904 97.117C97.8656 96.8452 97.385 96.7093 96.7486 96.7093H94.6107L95.0582 96.2121V100.329ZM100.906 102.805V97.5346H101.821V98.9665L101.732 98.6085C101.878 98.2439 102.123 97.9655 102.468 97.7732C102.812 97.581 103.237 97.4849 103.74 97.4849V98.4096C103.701 98.403 103.661 98.3997 103.621 98.3997C103.588 98.3997 103.555 98.3997 103.522 98.3997C103.011 98.3997 102.607 98.5522 102.309 98.8571C102.01 99.162 101.861 99.6029 101.861 100.18V102.805H100.906ZM107.126 102.864C106.595 102.864 106.125 102.748 105.714 102.516C105.303 102.284 104.978 101.966 104.739 101.562C104.5 101.151 104.381 100.687 104.381 100.17C104.381 99.646 104.5 99.1819 104.739 98.7775C104.978 98.3732 105.303 98.0583 105.714 97.8329C106.125 97.6009 106.595 97.4849 107.126 97.4849C107.649 97.4849 108.117 97.6009 108.528 97.8329C108.945 98.0583 109.27 98.3732 109.502 98.7775C109.741 99.1753 109.86 99.6393 109.86 100.17C109.86 100.693 109.741 101.157 109.502 101.562C109.27 101.966 108.945 102.284 108.528 102.516C108.117 102.748 107.649 102.864 107.126 102.864ZM107.126 102.029C107.464 102.029 107.765 101.953 108.03 101.8C108.302 101.648 108.514 101.432 108.667 101.154C108.819 100.869 108.895 100.541 108.895 100.17C108.895 99.7918 108.819 99.467 108.667 99.1952C108.514 98.9168 108.302 98.7013 108.03 98.5488C107.765 98.3964 107.464 98.3201 107.126 98.3201C106.787 98.3201 106.486 98.3964 106.221 98.5488C105.956 98.7013 105.743 98.9168 105.584 99.1952C105.425 99.467 105.346 99.7918 105.346 100.17C105.346 100.541 105.425 100.869 105.584 101.154C105.743 101.432 105.956 101.648 106.221 101.8C106.486 101.953 106.787 102.029 107.126 102.029ZM113.477 102.864C112.94 102.864 112.46 102.748 112.035 102.516C111.618 102.284 111.29 101.966 111.051 101.562C110.812 101.157 110.693 100.693 110.693 100.17C110.693 99.646 110.812 99.1819 111.051 98.7775C111.29 98.3732 111.618 98.0583 112.035 97.8329C112.46 97.6009 112.94 97.4849 113.477 97.4849C113.954 97.4849 114.379 97.581 114.75 97.7732C115.128 97.9589 115.419 98.2373 115.625 98.6085L114.899 99.0759C114.727 98.8173 114.515 98.6284 114.263 98.5091C114.017 98.3831 113.752 98.3201 113.467 98.3201C113.122 98.3201 112.814 98.3964 112.542 98.5488C112.271 98.7013 112.055 98.9168 111.896 99.1952C111.737 99.467 111.657 99.7918 111.657 100.17C111.657 100.548 111.737 100.876 111.896 101.154C112.055 101.432 112.271 101.648 112.542 101.8C112.814 101.953 113.122 102.029 113.467 102.029C113.752 102.029 114.017 101.969 114.263 101.85C114.515 101.724 114.727 101.532 114.899 101.273L115.625 101.731C115.419 102.095 115.128 102.377 114.75 102.576C114.379 102.768 113.954 102.864 113.477 102.864ZM119.13 102.864C118.566 102.864 118.069 102.748 117.638 102.516C117.214 102.284 116.883 101.966 116.644 101.562C116.412 101.157 116.296 100.693 116.296 100.17C116.296 99.646 116.409 99.1819 116.634 98.7775C116.866 98.3732 117.181 98.0583 117.579 97.8329C117.983 97.6009 118.437 97.4849 118.941 97.4849C119.451 97.4849 119.902 97.5976 120.293 97.823C120.684 98.0484 120.989 98.3665 121.208 98.7775C121.433 99.1819 121.546 99.6559 121.546 100.199C121.546 100.239 121.543 100.286 121.536 100.339C121.536 100.392 121.533 100.441 121.526 100.488H117.042V99.8017H121.029L120.641 100.04C120.648 99.7023 120.578 99.4007 120.432 99.1355C120.287 98.8704 120.084 98.6649 119.826 98.519C119.574 98.3665 119.279 98.2903 118.941 98.2903C118.609 98.2903 118.314 98.3665 118.056 98.519C117.797 98.6649 117.595 98.8737 117.449 99.1455C117.304 99.4106 117.231 99.7156 117.231 100.06V100.219C117.231 100.571 117.31 100.886 117.469 101.164C117.635 101.436 117.864 101.648 118.155 101.8C118.447 101.953 118.782 102.029 119.16 102.029C119.471 102.029 119.753 101.976 120.005 101.87C120.263 101.764 120.489 101.605 120.681 101.393L121.208 102.009C120.969 102.288 120.671 102.5 120.313 102.646C119.962 102.791 119.567 102.864 119.13 102.864ZM124.383 102.864C123.946 102.864 123.528 102.805 123.13 102.685C122.739 102.566 122.431 102.42 122.205 102.248L122.603 101.492C122.829 101.645 123.107 101.774 123.438 101.88C123.77 101.986 124.108 102.039 124.453 102.039C124.897 102.039 125.215 101.976 125.407 101.85C125.606 101.724 125.706 101.548 125.706 101.323C125.706 101.157 125.646 101.028 125.527 100.935C125.407 100.842 125.248 100.773 125.049 100.726C124.857 100.68 124.642 100.64 124.403 100.607C124.164 100.567 123.926 100.521 123.687 100.468C123.448 100.408 123.23 100.329 123.031 100.229C122.832 100.123 122.673 99.9807 122.553 99.8017C122.434 99.6161 122.374 99.3708 122.374 99.0659C122.374 98.7477 122.464 98.4693 122.643 98.2307C122.822 97.992 123.074 97.8097 123.399 97.6838C123.73 97.5512 124.121 97.4849 124.572 97.4849C124.917 97.4849 125.265 97.528 125.616 97.6142C125.974 97.6937 126.266 97.8097 126.491 97.9622L126.083 98.7179C125.845 98.5588 125.596 98.4494 125.338 98.3897C125.079 98.3301 124.821 98.3003 124.562 98.3003C124.144 98.3003 123.833 98.3699 123.627 98.5091C123.422 98.6417 123.319 98.814 123.319 99.0261C123.319 99.2051 123.379 99.3443 123.498 99.4438C123.624 99.5366 123.783 99.6095 123.975 99.6625C124.174 99.7156 124.393 99.762 124.632 99.8017C124.87 99.8349 125.109 99.8813 125.348 99.9409C125.586 99.994 125.802 100.07 125.994 100.17C126.193 100.269 126.352 100.408 126.471 100.587C126.597 100.766 126.66 101.005 126.66 101.303C126.66 101.621 126.567 101.897 126.382 102.129C126.196 102.361 125.934 102.543 125.596 102.675C125.258 102.801 124.854 102.864 124.383 102.864ZM129.365 102.864C128.927 102.864 128.509 102.805 128.112 102.685C127.721 102.566 127.412 102.42 127.187 102.248L127.585 101.492C127.81 101.645 128.088 101.774 128.42 101.88C128.751 101.986 129.089 102.039 129.434 102.039C129.878 102.039 130.196 101.976 130.389 101.85C130.588 101.724 130.687 101.548 130.687 101.323C130.687 101.157 130.627 101.028 130.508 100.935C130.389 100.842 130.23 100.773 130.031 100.726C129.839 100.68 129.623 100.64 129.384 100.607C129.146 100.567 128.907 100.521 128.668 100.468C128.43 100.408 128.211 100.329 128.012 100.229C127.813 100.123 127.654 99.9807 127.535 99.8017C127.416 99.6161 127.356 99.3708 127.356 99.0659C127.356 98.7477 127.445 98.4693 127.624 98.2307C127.803 97.992 128.055 97.8097 128.38 97.6838C128.712 97.5512 129.103 97.4849 129.553 97.4849C129.898 97.4849 130.246 97.528 130.598 97.6142C130.955 97.6937 131.247 97.8097 131.473 97.9622L131.065 98.7179C130.826 98.5588 130.578 98.4494 130.319 98.3897C130.061 98.3301 129.802 98.3003 129.544 98.3003C129.126 98.3003 128.814 98.3699 128.609 98.5091C128.403 98.6417 128.301 98.814 128.301 99.0261C128.301 99.2051 128.36 99.3443 128.48 99.4438C128.606 99.5366 128.765 99.6095 128.957 99.6625C129.156 99.7156 129.374 99.762 129.613 99.8017C129.852 99.8349 130.09 99.8813 130.329 99.9409C130.568 99.994 130.783 100.07 130.975 100.17C131.174 100.269 131.333 100.408 131.453 100.587C131.579 100.766 131.642 101.005 131.642 101.303C131.642 101.621 131.549 101.897 131.363 102.129C131.178 102.361 130.916 102.543 130.578 102.675C130.24 102.801 129.835 102.864 129.365 102.864ZM146.798 102.884C146.267 102.884 145.773 102.795 145.316 102.616C144.865 102.437 144.474 102.188 144.143 101.87C143.811 101.545 143.553 101.167 143.367 100.736C143.181 100.306 143.089 99.8349 143.089 99.3244C143.089 98.814 143.181 98.3433 143.367 97.9125C143.553 97.4816 143.811 97.107 144.143 96.7888C144.474 96.464 144.865 96.2121 145.316 96.0331C145.767 95.8541 146.261 95.7647 146.798 95.7647C147.328 95.7647 147.815 95.8541 148.259 96.0331C148.71 96.2055 149.101 96.4541 149.433 96.7789C149.771 97.0971 150.029 97.4716 150.208 97.9025C150.394 98.3334 150.487 98.8074 150.487 99.3244C150.487 99.8415 150.394 100.315 150.208 100.746C150.029 101.177 149.771 101.555 149.433 101.88C149.101 102.198 148.71 102.447 148.259 102.626C147.815 102.798 147.328 102.884 146.798 102.884ZM146.798 101.999C147.182 101.999 147.537 101.933 147.861 101.8C148.193 101.668 148.478 101.482 148.717 101.244C148.962 100.998 149.151 100.713 149.283 100.388C149.423 100.064 149.492 99.7089 149.492 99.3244C149.492 98.94 149.423 98.5853 149.283 98.2605C149.151 97.9357 148.962 97.6539 148.717 97.4153C148.478 97.17 148.193 96.9811 147.861 96.8485C147.537 96.7159 147.182 96.6496 146.798 96.6496C146.406 96.6496 146.045 96.7159 145.714 96.8485C145.389 96.9811 145.104 97.17 144.859 97.4153C144.613 97.6539 144.421 97.9357 144.282 98.2605C144.149 98.5853 144.083 98.94 144.083 99.3244C144.083 99.7089 144.149 100.064 144.282 100.388C144.421 100.713 144.613 100.998 144.859 101.244C145.104 101.482 145.389 101.668 145.714 101.8C146.045 101.933 146.406 101.999 146.798 101.999ZM154.085 102.864C153.634 102.864 153.236 102.781 152.891 102.616C152.553 102.45 152.288 102.198 152.096 101.86C151.91 101.515 151.817 101.084 151.817 100.567V97.5346H152.772V100.458C152.772 100.975 152.895 101.363 153.14 101.621C153.392 101.88 153.743 102.009 154.194 102.009C154.525 102.009 154.814 101.943 155.059 101.81C155.304 101.671 155.493 101.472 155.626 101.214C155.758 100.949 155.825 100.63 155.825 100.259V97.5346H156.779V102.805H155.874V101.383L156.024 101.761C155.851 102.112 155.593 102.384 155.248 102.576C154.903 102.768 154.515 102.864 154.085 102.864ZM160.406 102.864C159.876 102.864 159.465 102.722 159.173 102.437C158.882 102.152 158.736 101.744 158.736 101.214V96.3812H159.69V101.174C159.69 101.459 159.76 101.678 159.899 101.83C160.045 101.983 160.25 102.059 160.516 102.059C160.814 102.059 161.063 101.976 161.261 101.81L161.56 102.496C161.414 102.622 161.238 102.715 161.033 102.775C160.834 102.835 160.625 102.864 160.406 102.864ZM157.841 98.3201V97.5346H161.202V98.3201H157.841ZM165.508 102.864C165.07 102.864 164.669 102.765 164.305 102.566C163.947 102.361 163.658 102.059 163.44 101.661C163.228 101.263 163.121 100.766 163.121 100.17C163.121 99.573 163.224 99.0759 163.43 98.6781C163.642 98.2804 163.927 97.9821 164.285 97.7832C164.649 97.5843 165.057 97.4849 165.508 97.4849C166.025 97.4849 166.482 97.5976 166.88 97.823C167.278 98.0484 167.593 98.3632 167.825 98.7676C168.057 99.1653 168.173 99.6327 168.173 100.17C168.173 100.707 168.057 101.177 167.825 101.582C167.593 101.986 167.278 102.301 166.88 102.526C166.482 102.752 166.025 102.864 165.508 102.864ZM162.714 104.734V97.5346H163.629V98.9565L163.569 100.18L163.668 101.403V104.734H162.714ZM165.428 102.029C165.766 102.029 166.068 101.953 166.333 101.8C166.605 101.648 166.817 101.432 166.97 101.154C167.129 100.869 167.208 100.541 167.208 100.17C167.208 99.7918 167.129 99.467 166.97 99.1952C166.817 98.9168 166.605 98.7013 166.333 98.5488C166.068 98.3964 165.766 98.3201 165.428 98.3201C165.097 98.3201 164.795 98.3964 164.524 98.5488C164.258 98.7013 164.046 98.9168 163.887 99.1952C163.735 99.467 163.658 99.7918 163.658 100.17C163.658 100.541 163.735 100.869 163.887 101.154C164.046 101.432 164.258 101.648 164.524 101.8C164.795 101.953 165.097 102.029 165.428 102.029ZM171.709 102.864C171.258 102.864 170.861 102.781 170.516 102.616C170.178 102.45 169.913 102.198 169.72 101.86C169.535 101.515 169.442 101.084 169.442 100.567V97.5346H170.397V100.458C170.397 100.975 170.519 101.363 170.765 101.621C171.016 101.88 171.368 102.009 171.819 102.009C172.15 102.009 172.438 101.943 172.684 101.81C172.929 101.671 173.118 101.472 173.25 101.214C173.383 100.949 173.449 100.63 173.449 100.259V97.5346H174.404V102.805H173.499V101.383L173.648 101.761C173.476 102.112 173.217 102.384 172.873 102.576C172.528 102.768 172.14 102.864 171.709 102.864ZM178.031 102.864C177.501 102.864 177.09 102.722 176.798 102.437C176.506 102.152 176.36 101.744 176.36 101.214V96.3812H177.315V101.174C177.315 101.459 177.385 101.678 177.524 101.83C177.67 101.983 177.875 102.059 178.14 102.059C178.439 102.059 178.687 101.976 178.886 101.81L179.184 102.496C179.038 102.622 178.863 102.715 178.657 102.775C178.458 102.835 178.25 102.864 178.031 102.864ZM175.465 98.3201V97.5346H178.826V98.3201H175.465Z" fill="#696868"/>
<path d="M90.34 99.9414C90.4371 99.8443 90.4371 99.6869 90.34 99.5898L88.758 98.0078C88.661 97.9108 88.5036 97.9108 88.4065 98.0078C88.3094 98.1049 88.3094 98.2623 88.4065 98.3594L89.8127 99.7656L88.4065 101.172C88.3094 101.269 88.3094 101.426 88.4065 101.523C88.5036 101.62 88.661 101.62 88.758 101.523L90.34 99.9414ZM84.6953 99.7656V100.014H90.1643V99.7656V99.517H84.6953V99.7656Z" fill="#7F7F7F"/>
<path d="M139.067 99.9414C139.164 99.8443 139.164 99.6869 139.067 99.5898L137.485 98.0078C137.388 97.9108 137.23 97.9108 137.133 98.0078C137.036 98.1049 137.036 98.2623 137.133 98.3594L138.539 99.7656L137.133 101.172C137.036 101.269 137.036 101.426 137.133 101.523C137.23 101.62 137.388 101.62 137.485 101.523L139.067 99.9414ZM133.422 99.7656V100.014H138.891V99.7656V99.517H133.422V99.7656Z" fill="#7F7F7F"/>
<defs>
<filter id="filter0_dddd_7916_14816" x="319.36" y="117.666" width="98.4415" height="76.5654" filterUnits="userSpaceOnUse" color-interpolation-filters="sRGB">
<feFlood flood-opacity="0" result="BackgroundImageFix"/>
<feColorMatrix in="SourceAlpha" type="matrix" values="0 0 0 0 0 0 0 0 0 0 0 0 0 0 0 0 0 0 127 0" result="hardAlpha"/>
<feOffset dy="0.994355"/>
<feGaussianBlur stdDeviation="0.994355"/>
<feColorMatrix type="matrix" values="0 0 0 0 0 0 0 0 0 0 0 0 0 0 0 0 0 0 0.1 0"/>
<feBlend mode="normal" in2="BackgroundImageFix" result="effect1_dropShadow_7916_14816"/>
<feColorMatrix in="SourceAlpha" type="matrix" values="0 0 0 0 0 0 0 0 0 0 0 0 0 0 0 0 0 0 127 0" result="hardAlpha"/>
<feOffset dy="3.97742"/>
<feGaussianBlur stdDeviation="1.98871"/>
<feColorMatrix type="matrix" values="0 0 0 0 0 0 0 0 0 0 0 0 0 0 0 0 0 0 0.09 0"/>
<feBlend mode="normal" in2="effect1_dropShadow_7916_14816" result="effect2_dropShadow_7916_14816"/>
<feColorMatrix in="SourceAlpha" type="matrix" values="0 0 0 0 0 0 0 0 0 0 0 0 0 0 0 0 0 0 127 0" result="hardAlpha"/>
<feOffset dy="9.94355"/>
<feGaussianBlur stdDeviation="2.98307"/>
<feColorMatrix type="matrix" values="0 0 0 0 0 0 0 0 0 0 0 0 0 0 0 0 0 0 0.05 0"/>
<feBlend mode="normal" in2="effect2_dropShadow_7916_14816" result="effect3_dropShadow_7916_14816"/>
<feColorMatrix in="SourceAlpha" type="matrix" values="0 0 0 0 0 0 0 0 0 0 0 0 0 0 0 0 0 0 127 0" result="hardAlpha"/>
<feOffset dy="17.8984"/>
<feGaussianBlur stdDeviation="3.48024"/>
<feColorMatrix type="matrix" values="0 0 0 0 0 0 0 0 0 0 0 0 0 0 0 0 0 0 0.01 0"/>
<feBlend mode="normal" in2="effect3_dropShadow_7916_14816" result="effect4_dropShadow_7916_14816"/>
<feBlend mode="normal" in="SourceGraphic" in2="effect4_dropShadow_7916_14816" result="shape"/>
</filter>
<filter id="filter1_dddd_7916_14816" x="319.36" y="51.0447" width="98.4415" height="74.5767" filterUnits="userSpaceOnUse" color-interpolation-filters="sRGB">
<feFlood flood-opacity="0" result="BackgroundImageFix"/>
<feColorMatrix in="SourceAlpha" type="matrix" values="0 0 0 0 0 0 0 0 0 0 0 0 0 0 0 0 0 0 127 0" result="hardAlpha"/>
<feOffset dy="0.994355"/>
<feGaussianBlur stdDeviation="0.994355"/>
<feColorMatrix type="matrix" values="0 0 0 0 0 0 0 0 0 0 0 0 0 0 0 0 0 0 0.1 0"/>
<feBlend mode="normal" in2="BackgroundImageFix" result="effect1_dropShadow_7916_14816"/>
<feColorMatrix in="SourceAlpha" type="matrix" values="0 0 0 0 0 0 0 0 0 0 0 0 0 0 0 0 0 0 127 0" result="hardAlpha"/>
<feOffset dy="3.97742"/>
<feGaussianBlur stdDeviation="1.98871"/>
<feColorMatrix type="matrix" values="0 0 0 0 0 0 0 0 0 0 0 0 0 0 0 0 0 0 0.09 0"/>
<feBlend mode="normal" in2="effect1_dropShadow_7916_14816" result="effect2_dropShadow_7916_14816"/>
<feColorMatrix in="SourceAlpha" type="matrix" values="0 0 0 0 0 0 0 0 0 0 0 0 0 0 0 0 0 0 127 0" result="hardAlpha"/>
<feOffset dy="8.9492"/>
<feGaussianBlur stdDeviation="2.98307"/>
<feColorMatrix type="matrix" values="0 0 0 0 0 0 0 0 0 0 0 0 0 0 0 0 0 0 0.05 0"/>
<feBlend mode="normal" in2="effect2_dropShadow_7916_14816" result="effect3_dropShadow_7916_14816"/>
<feColorMatrix in="SourceAlpha" type="matrix" values="0 0 0 0 0 0 0 0 0 0 0 0 0 0 0 0 0 0 127 0" result="hardAlpha"/>
<feOffset dy="15.9097"/>
<feGaussianBlur stdDeviation="3.48024"/>
<feColorMatrix type="matrix" values="0 0 0 0 0 0 0 0 0 0 0 0 0 0 0 0 0 0 0.01 0"/>
<feBlend mode="normal" in2="effect3_dropShadow_7916_14816" result="effect4_dropShadow_7916_14816"/>
<feBlend mode="normal" in="SourceGraphic" in2="effect4_dropShadow_7916_14816" result="shape"/>
</filter>
<filter id="filter2_dddd_7916_14816" x="457.706" y="46.5166" width="45.4826" height="42.1373" filterUnits="userSpaceOnUse" color-interpolation-filters="sRGB">
<feFlood flood-opacity="0" result="BackgroundImageFix"/>
<feColorMatrix in="SourceAlpha" type="matrix" values="0 0 0 0 0 0 0 0 0 0 0 0 0 0 0 0 0 0 127 0" result="hardAlpha"/>
<feOffset dy="0.54982"/>
<feGaussianBlur stdDeviation="0.54982"/>
<feColorMatrix type="matrix" values="0 0 0 0 0 0 0 0 0 0 0 0 0 0 0 0 0 0 0.1 0"/>
<feBlend mode="normal" in2="BackgroundImageFix" result="effect1_dropShadow_7916_14816"/>
<feColorMatrix in="SourceAlpha" type="matrix" values="0 0 0 0 0 0 0 0 0 0 0 0 0 0 0 0 0 0 127 0" result="hardAlpha"/>
<feOffset dy="2.19928"/>
<feGaussianBlur stdDeviation="1.09964"/>
<feColorMatrix type="matrix" values="0 0 0 0 0 0 0 0 0 0 0 0 0 0 0 0 0 0 0.09 0"/>
<feBlend mode="normal" in2="effect1_dropShadow_7916_14816" result="effect2_dropShadow_7916_14816"/>
<feColorMatrix in="SourceAlpha" type="matrix" values="0 0 0 0 0 0 0 0 0 0 0 0 0 0 0 0 0 0 127 0" result="hardAlpha"/>
<feOffset dy="5.4982"/>
<feGaussianBlur stdDeviation="1.64946"/>
<feColorMatrix type="matrix" values="0 0 0 0 0 0 0 0 0 0 0 0 0 0 0 0 0 0 0.05 0"/>
<feBlend mode="normal" in2="effect2_dropShadow_7916_14816" result="effect3_dropShadow_7916_14816"/>
<feColorMatrix in="SourceAlpha" type="matrix" values="0 0 0 0 0 0 0 0 0 0 0 0 0 0 0 0 0 0 127 0" result="hardAlpha"/>
<feOffset dy="9.89676"/>
<feGaussianBlur stdDeviation="1.92437"/>
<feColorMatrix type="matrix" values="0 0 0 0 0 0 0 0 0 0 0 0 0 0 0 0 0 0 0.01 0"/>
<feBlend mode="normal" in2="effect3_dropShadow_7916_14816" result="effect4_dropShadow_7916_14816"/>
<feBlend mode="normal" in="SourceGraphic" in2="effect4_dropShadow_7916_14816" result="shape"/>
</filter>
<filter id="filter3_dddd_7916_14816" x="318.365" y="183.293" width="100.43" height="79.5485" filterUnits="userSpaceOnUse" color-interpolation-filters="sRGB">
<feFlood flood-opacity="0" result="BackgroundImageFix"/>
<feColorMatrix in="SourceAlpha" type="matrix" values="0 0 0 0 0 0 0 0 0 0 0 0 0 0 0 0 0 0 127 0" result="hardAlpha"/>
<feOffset dy="0.994355"/>
<feGaussianBlur stdDeviation="1.49153"/>
<feColorMatrix type="matrix" values="0 0 0 0 0 0 0 0 0 0 0 0 0 0 0 0 0 0 0.1 0"/>
<feBlend mode="normal" in2="BackgroundImageFix" result="effect1_dropShadow_7916_14816"/>
<feColorMatrix in="SourceAlpha" type="matrix" values="0 0 0 0 0 0 0 0 0 0 0 0 0 0 0 0 0 0 127 0" result="hardAlpha"/>
<feOffset dy="4.97178"/>
<feGaussianBlur stdDeviation="2.48589"/>
<feColorMatrix type="matrix" values="0 0 0 0 0 0 0 0 0 0 0 0 0 0 0 0 0 0 0.09 0"/>
<feBlend mode="normal" in2="effect1_dropShadow_7916_14816" result="effect2_dropShadow_7916_14816"/>
<feColorMatrix in="SourceAlpha" type="matrix" values="0 0 0 0 0 0 0 0 0 0 0 0 0 0 0 0 0 0 127 0" result="hardAlpha"/>
<feOffset dy="10.9379"/>
<feGaussianBlur stdDeviation="2.98307"/>
<feColorMatrix type="matrix" values="0 0 0 0 0 0 0 0 0 0 0 0 0 0 0 0 0 0 0.05 0"/>
<feBlend mode="normal" in2="effect2_dropShadow_7916_14816" result="effect3_dropShadow_7916_14816"/>
<feColorMatrix in="SourceAlpha" type="matrix" values="0 0 0 0 0 0 0 0 0 0 0 0 0 0 0 0 0 0 127 0" result="hardAlpha"/>
<feOffset dy="18.8928"/>
<feGaussianBlur stdDeviation="3.97742"/>
<feColorMatrix type="matrix" values="0 0 0 0 0 0 0 0 0 0 0 0 0 0 0 0 0 0 0.01 0"/>
<feBlend mode="normal" in2="effect3_dropShadow_7916_14816" result="effect4_dropShadow_7916_14816"/>
<feBlend mode="normal" in="SourceGraphic" in2="effect4_dropShadow_7916_14816" result="shape"/>
</filter>
<linearGradient id="paint0_linear_7916_14816" x1="56.844" y1="187.27" x2="56.844" y2="224.708" gradientUnits="userSpaceOnUse">
<stop stop-color="#F8F8F8"/>
<stop offset="1" stop-color="#DBECFF" stop-opacity="0.7"/>
</linearGradient>
<linearGradient id="paint1_linear_7916_14816" x1="115.023" y1="84.8516" x2="115.023" y2="115.677" gradientUnits="userSpaceOnUse">
<stop stop-color="#F8F8F8"/>
<stop offset="1" stop-color="#DBECFF" stop-opacity="0.7"/>
</linearGradient>
<linearGradient id="paint2_linear_7916_14816" x1="368.086" y1="6.29688" x2="368.086" y2="22.2066" gradientUnits="userSpaceOnUse">
<stop stop-color="#F8F8F8"/>
<stop offset="1" stop-color="#DBECFF" stop-opacity="0.7"/>
</linearGradient>
<linearGradient id="paint3_linear_7916_14816" x1="116.016" y1="187.27" x2="116.016" y2="224.708" gradientUnits="userSpaceOnUse">
<stop stop-color="#F8F8F8"/>
<stop offset="1" stop-color="#DBECFF" stop-opacity="0.7"/>
</linearGradient>
<linearGradient id="paint4_linear_7916_14816" x1="175.196" y1="187.27" x2="175.196" y2="224.708" gradientUnits="userSpaceOnUse">
<stop stop-color="#F8F8F8"/>
<stop offset="1" stop-color="#DBECFF" stop-opacity="0.7"/>
</linearGradient>
<linearGradient id="paint5_linear_7916_14816" x1="228.878" y1="5.30469" x2="228.878" y2="56.0168" gradientUnits="userSpaceOnUse">
<stop stop-color="#9600FF" stop-opacity="0.88"/>
<stop offset="1" stop-color="#0060C7"/>
</linearGradient>
<linearGradient id="paint6_linear_7916_14816" x1="243.792" y1="124.625" x2="243.792" y2="175.337" gradientUnits="userSpaceOnUse">
<stop stop-color="#9600FF" stop-opacity="0.88"/>
<stop offset="1" stop-color="#0060C7"/>
</linearGradient>
<linearGradient id="paint7_linear_7916_14816" x1="429.737" y1="3.3125" x2="429.737" y2="22.4347" gradientUnits="userSpaceOnUse">
<stop stop-color="#9600FF" stop-opacity="0.88"/>
<stop offset="1" stop-color="#0060C7"/>
</linearGradient>
<linearGradient id="paint8_linear_7916_14816" x1="368.58" y1="118.66" x2="368.58" y2="169.372" gradientUnits="userSpaceOnUse">
<stop stop-color="#9600FF" stop-opacity="0.88"/>
<stop offset="1" stop-color="#0060C7"/>
</linearGradient>
<linearGradient id="paint9_linear_7916_14816" x1="368.58" y1="52.0391" x2="368.58" y2="102.751" gradientUnits="userSpaceOnUse">
<stop stop-color="#9600FF" stop-opacity="0.88"/>
<stop offset="1" stop-color="#0060C7"/>
</linearGradient>
<linearGradient id="paint10_linear_7916_14816" x1="368.58" y1="185.281" x2="368.58" y2="235.993" gradientUnits="userSpaceOnUse">
<stop stop-color="#9600FF" stop-opacity="0.88"/>
<stop offset="1" stop-color="#0060C7"/>
</linearGradient>
<linearGradient id="paint11_linear_7916_14816" x1="484.922" y1="110.703" x2="484.922" y2="157.438" gradientUnits="userSpaceOnUse">
<stop stop-color="#9600FF" stop-opacity="0.88"/>
<stop offset="1" stop-color="#0060C7"/>
</linearGradient>
<linearGradient id="paint12_linear_7916_14816" x1="485.019" y1="121.707" x2="485.019" y2="146.707" gradientUnits="userSpaceOnUse">
<stop stop-color="#9600FF" stop-opacity="0.7"/>
<stop offset="1" stop-color="#0060C7" stop-opacity="0.7"/>
</linearGradient>
<linearGradient id="paint13_linear_7916_14816" x1="244.14" y1="131.586" x2="244.14" y2="170.365" gradientUnits="userSpaceOnUse">
<stop stop-color="#0060C7" stop-opacity="0.7"/>
<stop offset="1" stop-color="#9600FF" stop-opacity="0.7"/>
</linearGradient>
<clipPath id="clip0_7916_14816">
<rect width="23.8645" height="23.8645" fill="white" transform="translate(103.586 192.242)"/>
</clipPath>
<clipPath id="clip1_7916_14816">
<rect width="23.8645" height="23.8645" fill="white" transform="translate(164.242 192.242)"/>
</clipPath>
<clipPath id="clip2_7916_14816">
<rect width="29" height="30" fill="white" transform="translate(470 116.711)"/>
</clipPath>
</defs>
</svg>
