<svg width="1628" height="708" viewBox="0 0 1628 708" fill="none" xmlns="http://www.w3.org/2000/svg">
<g opacity="0.08" clip-path="url(#clip0_8267_12951)">
<path d="M1706.15 208.315L1571.53 210.098" stroke="#132E65" stroke-width="1.56946"/>
<path d="M1706.15 208.316L1395.28 40.6342" stroke="#132E65" stroke-width="1.56946"/>
<path d="M1706.15 208.314L1365.43 223.625" stroke="#132E65" stroke-width="1.56946"/>
<path d="M1706.15 208.316L1516.84 -182.146" stroke="#132E65" stroke-width="1.56946"/>
<path d="M1706.15 208.316L1390.65 -160.084" stroke="#132E65" stroke-width="1.56946"/>
<path d="M1571.53 210.097L1365.43 223.625" stroke="#132E65" stroke-width="1.56946"/>
<path d="M1365.43 223.625L1395.28 40.6323" stroke="#132E65" stroke-width="1.56946"/>
<path d="M1365.43 223.625L1204.55 188.617" stroke="#132E65" stroke-width="1.56946"/>
<path d="M1365.43 223.627L1065.1 241.719" stroke="#132E65" stroke-width="1.56946"/>
<path d="M1365.43 223.625L1390.66 -160.086" stroke="#132E65" stroke-width="1.56946"/>
<path d="M1395.28 40.6328L1390.66 -160.085" stroke="#132E65" stroke-width="1.56946"/>
<path d="M1395.28 40.6328L1516.84 -182.147" stroke="#132E65" stroke-width="1.56946"/>
<path d="M1395.28 40.6328L1571.53 210.098" stroke="#132E65" stroke-width="1.56946"/>
<path d="M1204.55 188.619L1065.1 241.719" stroke="#132E65" stroke-width="1.56946"/>
<path d="M1204.55 188.617L1074.08 86.4882" stroke="#132E65" stroke-width="1.56946"/>
<path d="M1204.55 188.617L1395.28 40.6325" stroke="#132E65" stroke-width="1.56946"/>
<path d="M1204.55 188.618L934.37 270.531" stroke="#132E65" stroke-width="1.56946"/>
<path d="M1204.55 188.617L949.41 25.5749" stroke="#132E65" stroke-width="1.56946"/>
<path d="M1242.86 -179.543L1395.28 40.6328" stroke="#132E65" stroke-width="1.56946"/>
<path d="M1065.1 241.719L1074.07 86.4898" stroke="#132E65" stroke-width="1.56946"/>
<path d="M1065.09 241.718L934.363 270.531" stroke="#132E65" stroke-width="1.56946"/>
<path d="M1065.09 241.719L949.403 25.5764" stroke="#132E65" stroke-width="1.56946"/>
<path d="M1074.07 86.4883L949.404 25.575" stroke="#132E65" stroke-width="1.56946"/>
<path d="M934.367 270.531L822.856 212.741" stroke="#132E65" stroke-width="1.56946"/>
<path d="M949.409 25.5742L975.156 -136.887" stroke="#132E65" stroke-width="1.56946"/>
<path d="M949.406 25.5758L765.66 64.5664" stroke="#132E65" stroke-width="1.56946"/>
<path d="M949.406 25.5773L822.856 212.742" stroke="#132E65" stroke-width="1.56946"/>
<path d="M949.406 25.5759L934.367 270.531" stroke="#132E65" stroke-width="1.56946"/>
<path d="M975.151 -136.886L1074.07 86.4883" stroke="#132E65" stroke-width="1.56946"/>
<path d="M776.031 439.07L661.065 418.993" stroke="#132E65" stroke-width="1.56946"/>
<path d="M776.031 439.07L822.852 212.738" stroke="#132E65" stroke-width="1.56946"/>
<path d="M776.031 439.074L668.54 645.898" stroke="#132E65" stroke-width="1.56946"/>
<path d="M776.036 439.07L934.367 270.528" stroke="#132E65" stroke-width="1.56946"/>
<path d="M776.031 439.07L646.57 189.69" stroke="#132E65" stroke-width="1.56946"/>
<path d="M822.852 212.742L765.656 64.5679" stroke="#132E65" stroke-width="1.56946"/>
<path d="M822.852 212.742L646.57 189.694" stroke="#132E65" stroke-width="1.56946"/>
<path d="M822.852 212.741L661.065 418.996" stroke="#132E65" stroke-width="1.56946"/>
<path d="M765.656 64.5651L646.57 189.691" stroke="#132E65" stroke-width="1.56946"/>
<path d="M660.722 841.926L668.539 645.898" stroke="#132E65" stroke-width="1.56946"/>
<path d="M660.727 841.926L466.635 639.45" stroke="#132E65" stroke-width="1.56946"/>
<path d="M668.539 645.898L661.065 418.997" stroke="#132E65" stroke-width="1.56946"/>
<path d="M668.539 645.898L466.631 639.451" stroke="#132E65" stroke-width="1.56946"/>
<path d="M661.07 418.996L646.575 189.693" stroke="#132E65" stroke-width="1.56946"/>
<path d="M661.07 418.996L507.846 219.365" stroke="#132E65" stroke-width="1.56946"/>
<path d="M646.57 189.694L507.842 219.367" stroke="#132E65" stroke-width="1.56946"/>
<path d="M646.57 189.691L482.225 10.8456" stroke="#132E65" stroke-width="1.56946"/>
<path d="M657.067 -160.021L765.656 64.5664" stroke="#132E65" stroke-width="1.56946"/>
<path d="M657.07 -160.021L482.229 10.8477" stroke="#132E65" stroke-width="1.56946"/>
<path d="M657.07 -160.023L646.574 189.691" stroke="#132E65" stroke-width="1.56946"/>
<path d="M456.086 767.344L466.633 639.449" stroke="#132E65" stroke-width="1.56946"/>
<path d="M456.086 767.344L308.825 628.095" stroke="#132E65" stroke-width="1.56946"/>
<path d="M456.084 767.344L668.539 645.896" stroke="#132E65" stroke-width="1.56946"/>
<path d="M466.633 639.449L308.825 628.096" stroke="#132E65" stroke-width="1.56946"/>
<path d="M466.633 639.448L342.369 832.707" stroke="#132E65" stroke-width="1.56946"/>
<path d="M507.844 219.367L482.227 10.8485" stroke="#132E65" stroke-width="1.56946"/>
<path d="M507.844 219.367L328.197 191.667" stroke="#132E65" stroke-width="1.56946"/>
<path d="M482.227 10.8477L448.874 -133.723" stroke="#132E65" stroke-width="1.56946"/>
<path d="M482.227 10.8479L328.851 57.0195" stroke="#132E65" stroke-width="1.56946"/>
<path d="M482.227 10.8459L328.197 191.664" stroke="#132E65" stroke-width="1.56946"/>
<path d="M448.875 -133.723L328.852 57.0195" stroke="#132E65" stroke-width="1.56946"/>
<path d="M342.367 832.707L308.823 628.095" stroke="#132E65" stroke-width="1.56946"/>
<path d="M308.826 628.094L323.734 414.24" stroke="#132E65" stroke-width="1.56946"/>
<path d="M308.828 628.094L174.683 761.375" stroke="#132E65" stroke-width="1.56946"/>
<path d="M323.734 414.242L203.853 408.338" stroke="#132E65" stroke-width="1.56946"/>
<path d="M323.733 414.242L328.195 191.665" stroke="#132E65" stroke-width="1.56946"/>
<path d="M323.734 414.242L466.633 639.449" stroke="#132E65" stroke-width="1.56946"/>
<path d="M323.734 414.242L173.824 195.255" stroke="#132E65" stroke-width="1.56946"/>
<path d="M323.735 414.242L507.844 219.365" stroke="#132E65" stroke-width="1.56946"/>
<path d="M328.197 191.664L328.852 57.0176" stroke="#132E65" stroke-width="1.56946"/>
<path d="M174.68 761.375L21.8082 643.518" stroke="#132E65" stroke-width="1.56946"/>
<path d="M174.679 761.375L203.852 408.336" stroke="#132E65" stroke-width="1.56946"/>
<path d="M174.68 761.375L7.83657 451.928" stroke="#132E65" stroke-width="1.56946"/>
<path d="M203.852 408.336L173.823 195.253" stroke="#132E65" stroke-width="1.56946"/>
<path d="M203.852 408.337L7.8364 451.93" stroke="#132E65" stroke-width="1.56946"/>
<path d="M173.823 195.254L328.195 191.663" stroke="#132E65" stroke-width="1.56946"/>
<path d="M173.828 195.254L17.4814 193.092" stroke="#132E65" stroke-width="1.56946"/>
<path d="M173.828 195.254L44.4172 51.9472" stroke="#132E65" stroke-width="1.56946"/>
<path d="M173.824 195.254L328.852 57.0169" stroke="#132E65" stroke-width="1.56946"/>
<path d="M158.516 -170.388L44.416 51.9492" stroke="#132E65" stroke-width="1.56946"/>
<path d="M158.513 -170.388L328.852 57.0195" stroke="#132E65" stroke-width="1.56946"/>
<path d="M21.8125 643.52L7.84092 451.93" stroke="#132E65" stroke-width="1.56946"/>
<path d="M21.808 643.52L203.852 408.337" stroke="#132E65" stroke-width="1.56946"/>
<path d="M7.83652 451.93L17.4766 193.093" stroke="#132E65" stroke-width="1.56946"/>
<path d="M17.4782 193.094L44.4141 51.9489" stroke="#132E65" stroke-width="1.56946"/>
<path d="M17.4766 193.094L16.641 -99.0954" stroke="#132E65" stroke-width="1.56946"/>
<path d="M17.4764 193.091L203.852 408.336" stroke="#132E65" stroke-width="1.56946"/>
<path d="M17.4762 193.094L328.195 191.665" stroke="#132E65" stroke-width="1.56946"/>
<path d="M44.4141 51.9492L16.6422 -99.095" stroke="#132E65" stroke-width="1.56946"/>
<path d="M1571.53 203.775C1568.74 203.775 1566.49 206.605 1566.49 210.097C1566.49 213.588 1568.74 216.418 1571.53 216.418C1574.31 216.418 1576.56 213.588 1576.56 210.097C1576.56 206.605 1574.31 203.775 1571.53 203.775Z" fill="#132E65"/>
<path d="M1365.42 217.302C1362.64 217.302 1360.39 220.133 1360.39 223.624C1360.39 227.115 1362.64 229.945 1365.42 229.945C1368.21 229.945 1370.46 227.115 1370.46 223.624C1370.46 220.133 1368.21 217.302 1365.42 217.302Z" fill="#132E65"/>
<path d="M1395.28 34.3103C1392.49 34.3103 1390.24 37.1405 1390.24 40.6317C1390.24 44.1229 1392.49 46.9531 1395.28 46.9531C1398.06 46.9531 1400.31 44.1229 1400.31 40.6317C1400.31 37.1405 1398.06 34.3103 1395.28 34.3103Z" fill="#132E65"/>
<path d="M1204.55 182.295C1201.77 182.295 1199.51 185.125 1199.51 188.616C1199.51 192.107 1201.77 194.938 1204.55 194.938C1207.33 194.938 1209.59 192.107 1209.59 188.616C1209.59 185.125 1207.33 182.295 1204.55 182.295Z" fill="#132E65"/>
<path d="M1065.1 235.396C1062.31 235.396 1060.06 238.226 1060.06 241.718C1060.06 245.209 1062.31 248.039 1065.1 248.039C1067.88 248.039 1070.13 245.209 1070.13 241.718C1070.13 238.226 1067.88 235.396 1065.1 235.396Z" fill="#132E65"/>
<path d="M1074.07 80.1657C1071.29 80.1657 1069.04 82.9959 1069.04 86.4872C1069.04 89.9784 1071.29 92.8086 1074.07 92.8086C1076.85 92.8086 1079.11 89.9784 1079.11 86.4872C1079.11 82.9959 1076.85 80.1657 1074.07 80.1657Z" fill="#132E65"/>
<path d="M934.37 264.209C931.588 264.209 929.333 267.039 929.333 270.53C929.333 274.021 931.588 276.852 934.37 276.852C937.151 276.852 939.406 274.021 939.406 270.53C939.406 267.039 937.151 264.209 934.37 264.209Z" fill="#132E65"/>
<path d="M949.409 19.2556C946.627 19.2556 944.372 22.0858 944.372 25.577C944.372 29.0682 946.627 31.8984 949.409 31.8984C952.19 31.8984 954.445 29.0682 954.445 25.577C954.445 22.0858 952.19 19.2556 949.409 19.2556Z" fill="#132E65"/>
<path d="M776.034 432.752C773.252 432.752 770.997 435.582 770.997 439.073C770.997 442.564 773.252 445.395 776.034 445.395C778.815 445.395 781.07 442.564 781.07 439.073C781.07 435.582 778.815 432.752 776.034 432.752Z" fill="#132E65"/>
<path d="M822.854 206.42C820.072 206.42 817.817 209.25 817.817 212.741C817.817 216.232 820.072 219.062 822.854 219.062C825.636 219.062 827.891 216.232 827.891 212.741C827.891 209.25 825.636 206.42 822.854 206.42Z" fill="#132E65"/>
<path d="M765.659 58.2439C762.877 58.2439 760.622 61.0741 760.622 64.5653C760.622 68.0565 762.877 70.8867 765.659 70.8867C768.44 70.8867 770.695 68.0565 770.695 64.5653C770.695 61.0741 768.44 58.2439 765.659 58.2439Z" fill="#132E65"/>
<path d="M668.542 639.576C665.76 639.576 663.505 642.406 663.505 645.897C663.505 649.388 665.76 652.219 668.542 652.219C671.323 652.219 673.578 649.388 673.578 645.897C673.578 642.406 671.323 639.576 668.542 639.576Z" fill="#132E65"/>
<path d="M661.065 412.674C658.283 412.674 656.028 415.504 656.028 418.995C656.028 422.486 658.283 425.316 661.065 425.316C663.847 425.316 666.102 422.486 666.102 418.995C666.102 415.504 663.847 412.674 661.065 412.674Z" fill="#132E65"/>
<path d="M646.573 183.373C643.791 183.373 641.536 186.203 641.536 189.694C641.536 193.185 643.791 196.016 646.573 196.016C649.354 196.016 651.609 193.185 651.609 189.694C651.609 186.203 649.354 183.373 646.573 183.373Z" fill="#132E65"/>
<path d="M466.635 633.127C463.854 633.127 461.599 635.957 461.599 639.448C461.599 642.939 463.854 645.77 466.635 645.77C469.417 645.77 471.672 642.939 471.672 639.448C471.672 635.957 469.417 633.127 466.635 633.127Z" fill="#132E65"/>
<path d="M507.846 213.045C505.065 213.045 502.81 215.875 502.81 219.366C502.81 222.857 505.065 225.688 507.846 225.688C510.628 225.688 512.883 222.857 512.883 219.366C512.883 215.875 510.628 213.045 507.846 213.045Z" fill="#132E65"/>
<path d="M482.229 4.52511C479.447 4.52511 477.192 7.35531 477.192 10.8465C477.192 14.3378 479.447 17.168 482.229 17.168C485.011 17.168 487.266 14.3378 487.266 10.8465C487.266 7.35531 485.011 4.52511 482.229 4.52511Z" fill="#132E65"/>
<path d="M308.823 621.775C306.041 621.775 303.786 624.605 303.786 628.097C303.786 631.588 306.041 634.418 308.823 634.418C311.604 634.418 313.859 631.588 313.859 628.097C313.859 624.605 311.604 621.775 308.823 621.775Z" fill="#132E65"/>
<path d="M323.737 407.92C320.955 407.92 318.7 410.75 318.7 414.241C318.7 417.732 320.955 420.562 323.737 420.562C326.518 420.562 328.773 417.732 328.773 414.241C328.773 410.75 326.518 407.92 323.737 407.92Z" fill="#132E65"/>
<path d="M328.198 185.342C325.416 185.342 323.161 188.172 323.161 191.663C323.161 195.154 325.416 197.984 328.198 197.984C330.979 197.984 333.234 195.154 333.234 191.663C333.234 188.172 330.979 185.342 328.198 185.342Z" fill="#132E65"/>
<path d="M328.854 50.6969C326.072 50.6969 323.817 53.5271 323.817 57.0184C323.817 60.5096 326.072 63.3398 328.854 63.3398C331.636 63.3398 333.891 60.5096 333.891 57.0184C333.891 53.5271 331.636 50.6969 328.854 50.6969Z" fill="#132E65"/>
<path d="M203.854 402.017C201.072 402.017 198.817 404.848 198.817 408.339C198.817 411.83 201.072 414.66 203.854 414.66C206.636 414.66 208.891 411.83 208.891 408.339C208.891 404.848 206.636 402.017 203.854 402.017Z" fill="#132E65"/>
<path d="M173.823 188.935C171.041 188.935 168.786 191.765 168.786 195.257C168.786 198.748 171.041 201.578 173.823 201.578C176.604 201.578 178.859 198.748 178.859 195.257C178.859 191.765 176.604 188.935 173.823 188.935Z" fill="#132E65"/>
<path d="M21.8149 637.201C19.0333 637.201 16.7783 640.031 16.7783 643.522C16.7783 647.014 19.0333 649.844 21.8149 649.844C24.5966 649.844 26.8516 647.014 26.8516 643.522C26.8516 640.031 24.5966 637.201 21.8149 637.201Z" fill="#132E65"/>
<path d="M7.83838 445.607C5.05673 445.607 2.80176 448.437 2.80176 451.929C2.80176 455.42 5.05673 458.25 7.83838 458.25C10.62 458.25 12.875 455.42 12.875 451.929C12.875 448.437 10.62 445.607 7.83838 445.607Z" fill="#132E65"/>
<path d="M17.479 186.771C14.6974 186.771 12.4424 189.601 12.4424 193.093C12.4424 196.584 14.6974 199.414 17.479 199.414C20.2607 199.414 22.5156 196.584 22.5156 193.093C22.5156 189.601 20.2607 186.771 17.479 186.771Z" fill="#132E65"/>
<path d="M44.4165 45.6267C41.6349 45.6267 39.3799 48.4569 39.3799 51.9481C39.3799 55.4393 41.6349 58.2695 44.4165 58.2695C47.1982 58.2695 49.4531 55.4393 49.4531 51.9481C49.4531 48.4569 47.1982 45.6267 44.4165 45.6267Z" fill="#132E65"/>
<path d="M1663.66 25.5876L1576.66 49.7734" stroke="#2448E3" stroke-width="1.56946"/>
<path d="M1663.66 25.5859L1550.86 -190.784" stroke="#2448E3" stroke-width="1.56946"/>
<path d="M1663.66 25.5881L1366.2 61.418" stroke="#2448E3" stroke-width="1.56946"/>
<path d="M1663.66 25.5859L1376.72 -132.247" stroke="#2448E3" stroke-width="1.56946"/>
<path d="M1663.66 25.5859L1276.01 -104.8" stroke="#2448E3" stroke-width="1.56946"/>
<path d="M1550.86 -190.782L1576.66 49.7734" stroke="#2448E3" stroke-width="1.56946"/>
<path d="M1366.2 61.418L1376.72 -132.245" stroke="#2448E3" stroke-width="1.56946"/>
<path d="M1366.2 61.4177L1276.01 -104.798" stroke="#2448E3" stroke-width="1.56946"/>
<path d="M1366.2 61.418L1576.66 49.7739" stroke="#2448E3" stroke-width="1.56946"/>
<path d="M1366.21 61.418L1550.86 -190.782" stroke="#2448E3" stroke-width="1.56946"/>
<path d="M1366.2 61.4189L1076.48 79.3086" stroke="#2448E3" stroke-width="1.56946"/>
<path d="M1376.72 -132.246L1576.66 49.7734" stroke="#2448E3" stroke-width="1.56946"/>
<path d="M347.949 380.676L483.484 412.84" stroke="#2448E3" stroke-width="1.56946"/>
<path d="M347.953 380.676L336.359 201.918" stroke="#2448E3" stroke-width="1.56946"/>
<path d="M347.953 380.675L182.289 428.301" stroke="#2448E3" stroke-width="1.56946"/>
<path d="M347.947 380.676L520.773 274.64" stroke="#2448E3" stroke-width="1.56946"/>
<path d="M347.953 380.676L308.416 636.176" stroke="#2448E3" stroke-width="1.56946"/>
<path d="M306.141 -191.4L203.786 36.4492" stroke="#2448E3" stroke-width="1.56946"/>
<path d="M220.384 622.863L308.414 636.176" stroke="#2448E3" stroke-width="1.56946"/>
<path d="M220.383 622.863L68.2365 632.598" stroke="#2448E3" stroke-width="1.56946"/>
<path d="M220.383 622.86L151.039 793.602" stroke="#2448E3" stroke-width="1.56946"/>
<path d="M220.383 622.863L182.286 428.302" stroke="#2448E3" stroke-width="1.56946"/>
<path d="M220.386 622.862L362.258 786.41" stroke="#2448E3" stroke-width="1.56946"/>
<path d="M1276.01 -104.797L1076.48 79.3086" stroke="#2448E3" stroke-width="1.56946"/>
<path d="M1076.48 79.3086L968.713 46.0073" stroke="#2448E3" stroke-width="1.56946"/>
<path d="M1076.48 79.3086L1073.22 -189.554" stroke="#2448E3" stroke-width="1.56946"/>
<path d="M1076.48 79.3086L934.746 -160.463" stroke="#2448E3" stroke-width="1.56946"/>
<path d="M968.719 46.0078L934.752 -160.463" stroke="#2448E3" stroke-width="1.56946"/>
<path d="M968.719 46.0066L772.965 52.0625" stroke="#2448E3" stroke-width="1.56946"/>
<path d="M968.717 46.0078L1073.23 -189.554" stroke="#2448E3" stroke-width="1.56946"/>
<path d="M968.719 46.0065L800.848 218.695" stroke="#2448E3" stroke-width="1.56946"/>
<path d="M800.844 218.695L772.961 52.0624" stroke="#2448E3" stroke-width="1.56946"/>
<path d="M800.844 218.695L671.453 49.2558" stroke="#2448E3" stroke-width="1.56946"/>
<path d="M772.961 52.0625L671.453 49.2558" stroke="#2448E3" stroke-width="1.56946"/>
<path d="M772.966 52.0625L776.562 -173.044" stroke="#2448E3" stroke-width="1.56946"/>
<path d="M776.562 -173.042L671.458 49.2578" stroke="#2448E3" stroke-width="1.56946"/>
<path d="M776.562 -173.042L968.719 46.0078" stroke="#2448E3" stroke-width="1.56946"/>
<path d="M609.164 405.76L483.49 412.84" stroke="#2448E3" stroke-width="1.56946"/>
<path d="M609.164 405.758L520.781 274.639" stroke="#2448E3" stroke-width="1.56946"/>
<path d="M609.159 405.758L611.828 202.107" stroke="#2448E3" stroke-width="1.56946"/>
<path d="M609.16 405.758L800.844 218.694" stroke="#2448E3" stroke-width="1.56946"/>
<path d="M609.164 405.758L461.339 654.582" stroke="#2448E3" stroke-width="1.56946"/>
<path d="M609.164 405.758L347.955 380.674" stroke="#2448E3" stroke-width="1.56946"/>
<path d="M611.828 202.109L520.776 274.641" stroke="#2448E3" stroke-width="1.56946"/>
<path d="M611.83 202.109L671.453 49.2573" stroke="#2448E3" stroke-width="1.56946"/>
<path d="M611.83 202.108L800.844 218.695" stroke="#2448E3" stroke-width="1.56946"/>
<path d="M671.453 49.2578L491.908 11.8349" stroke="#2448E3" stroke-width="1.56946"/>
<path d="M671.453 49.2578L610.621 -191.26" stroke="#2448E3" stroke-width="1.56946"/>
<path d="M610.617 -191.263L491.904 11.832" stroke="#2448E3" stroke-width="1.56946"/>
<path d="M461.336 654.583L362.256 786.41" stroke="#2448E3" stroke-width="1.56946"/>
<path d="M461.336 654.582L308.414 636.174" stroke="#2448E3" stroke-width="1.56946"/>
<path d="M483.482 412.84L520.773 274.641" stroke="#2448E3" stroke-width="1.56946"/>
<path d="M520.773 274.641L336.353 201.919" stroke="#2448E3" stroke-width="1.56946"/>
<path d="M520.773 274.641L491.903 11.8335" stroke="#2448E3" stroke-width="1.56946"/>
<path d="M491.906 11.8344L611.828 202.109" stroke="#2448E3" stroke-width="1.56946"/>
<path d="M491.906 11.8314L303.456 87.2461" stroke="#2448E3" stroke-width="1.56946"/>
<path d="M362.258 786.41L308.416 636.175" stroke="#2448E3" stroke-width="1.56946"/>
<path d="M362.258 786.41L68.24 632.597" stroke="#2448E3" stroke-width="1.56946"/>
<path d="M308.414 636.177L151.04 793.605" stroke="#2448E3" stroke-width="1.56946"/>
<path d="M336.359 201.918L303.46 87.2473" stroke="#2448E3" stroke-width="1.56946"/>
<path d="M336.359 201.919L190.982 210.352" stroke="#2448E3" stroke-width="1.56946"/>
<path d="M303.461 87.2461L203.786 36.4471" stroke="#2448E3" stroke-width="1.56946"/>
<path d="M303.461 87.2481L190.983 210.352" stroke="#2448E3" stroke-width="1.56946"/>
<path d="M151.039 793.602L68.2371 632.595" stroke="#2448E3" stroke-width="1.56946"/>
<path d="M182.289 428.301L67.7362 403.672" stroke="#2448E3" stroke-width="1.56946"/>
<path d="M190.978 210.352L203.781 36.4491" stroke="#2448E3" stroke-width="1.56946"/>
<path d="M203.781 36.4485L39.5874 55.8047" stroke="#2448E3" stroke-width="1.56946"/>
<path d="M25.8663 819.637L68.2344 632.598" stroke="#2448E3" stroke-width="1.56946"/>
<path d="M25.8684 819.637L220.383 622.863" stroke="#2448E3" stroke-width="1.56946"/>
<path d="M25.8697 819.637L308.414 636.176" stroke="#2448E3" stroke-width="1.56946"/>
<path d="M25.8699 819.637L67.7344 403.674" stroke="#2448E3" stroke-width="1.56946"/>
<path d="M68.2344 632.598L67.7307 403.673" stroke="#2448E3" stroke-width="1.56946"/>
<path d="M68.2399 632.598L182.289 428.302" stroke="#2448E3" stroke-width="1.56946"/>
<path d="M67.7344 403.672L-4.67208 252.236" stroke="#2448E3" stroke-width="1.56946"/>
<path d="M-4.66801 252.234L39.5938 55.8023" stroke="#2448E3" stroke-width="1.56946"/>
<path d="M-4.66814 252.234L190.984 210.349" stroke="#2448E3" stroke-width="1.56946"/>
<path d="M39.5876 55.8047L51.1719 -132.157" stroke="#2448E3" stroke-width="1.56946"/>
<path d="M39.5936 55.8053L190.984 210.352" stroke="#2448E3" stroke-width="1.56946"/>
<path d="M39.5933 55.8047L190.672 -192.64" stroke="#2448E3" stroke-width="1.56946"/>
<path d="M1366.21 29.8092C1352.3 29.8092 1341.02 43.9601 1341.02 61.4163C1341.02 78.8724 1352.3 93.0234 1366.21 93.0234C1380.12 93.0234 1391.39 78.8724 1391.39 61.4163C1391.39 43.9601 1380.12 29.8092 1366.21 29.8092Z" fill="url(#paint0_radial_8267_12951)"/>
<path d="M347.95 349.067C334.041 349.067 322.767 363.218 322.767 380.674C322.767 398.13 334.041 412.281 347.95 412.281C361.858 412.281 373.133 398.13 373.133 380.674C373.133 363.218 361.858 349.067 347.95 349.067Z" fill="url(#paint1_radial_8267_12951)"/>
<path d="M220.379 591.254C206.471 591.254 195.196 605.405 195.196 622.862C195.196 640.318 206.471 654.469 220.379 654.469C234.288 654.469 245.562 640.318 245.562 622.862C245.562 605.405 234.288 591.254 220.379 591.254Z" fill="url(#paint2_radial_8267_12951)"/>
<path d="M1576.67 43.4509C1573.88 43.4509 1571.63 46.2811 1571.63 49.7723C1571.63 53.2636 1573.88 56.0938 1576.67 56.0938C1579.45 56.0938 1581.7 53.2636 1581.7 49.7723C1581.7 46.2811 1579.45 43.4509 1576.67 43.4509Z" fill="#8B9AD9"/>
<path d="M1076.48 72.9861C1073.7 72.9861 1071.44 75.8163 1071.44 79.3075C1071.44 82.7987 1073.7 85.6289 1076.48 85.6289C1079.26 85.6289 1081.52 82.7987 1081.52 79.3075C1081.52 75.8163 1079.26 72.9861 1076.48 72.9861Z" fill="#8B9AD9"/>
<path d="M968.713 39.6853C965.932 39.6853 963.677 42.5155 963.677 46.0067C963.677 49.4979 965.932 52.3281 968.713 52.3281C971.495 52.3281 973.75 49.4979 973.75 46.0067C973.75 42.5155 971.495 39.6853 968.713 39.6853Z" fill="#8B9AD9"/>
<path d="M800.846 212.373C798.065 212.373 795.81 215.203 795.81 218.694C795.81 222.185 798.065 225.016 800.846 225.016C803.628 225.016 805.883 222.185 805.883 218.694C805.883 215.203 803.628 212.373 800.846 212.373Z" fill="#8B9AD9"/>
<path d="M772.963 45.74C770.182 45.74 767.927 48.5702 767.927 52.0614C767.927 55.5526 770.182 58.3828 772.963 58.3828C775.745 58.3828 778 55.5526 778 52.0614C778 48.5702 775.745 45.74 772.963 45.74Z" fill="#8B9AD9"/>
<path d="M609.159 399.435C606.377 399.435 604.122 402.265 604.122 405.757C604.122 409.248 606.377 412.078 609.159 412.078C611.94 412.078 614.195 409.248 614.195 405.757C614.195 402.265 611.94 399.435 609.159 399.435Z" fill="#8B9AD9"/>
<path d="M611.831 195.787C609.049 195.787 606.794 198.617 606.794 202.108C606.794 205.599 609.049 208.43 611.831 208.43C614.612 208.43 616.867 205.599 616.867 202.108C616.867 198.617 614.612 195.787 611.831 195.787Z" fill="#8B9AD9"/>
<path d="M671.456 42.9353C668.674 42.9353 666.419 45.7655 666.419 49.2567C666.419 52.7479 668.674 55.5781 671.456 55.5781C674.237 55.5781 676.492 52.7479 676.492 49.2567C676.492 45.7655 674.237 42.9353 671.456 42.9353Z" fill="#8B9AD9"/>
<path d="M461.338 648.263C458.557 648.263 456.302 651.094 456.302 654.585C456.302 658.076 458.557 660.906 461.338 660.906C464.12 660.906 466.375 658.076 466.375 654.585C466.375 651.094 464.12 648.263 461.338 648.263Z" fill="#8B9AD9"/>
<path d="M483.487 406.517C480.705 406.517 478.45 409.348 478.45 412.839C478.45 416.33 480.705 419.16 483.487 419.16C486.268 419.16 488.523 416.33 488.523 412.839C488.523 409.348 486.268 406.517 483.487 406.517Z" fill="#8B9AD9"/>
<path d="M520.776 268.318C517.994 268.318 515.739 271.148 515.739 274.64C515.739 278.131 517.994 280.961 520.776 280.961C523.558 280.961 525.812 278.131 525.812 274.64C525.812 271.148 523.558 268.318 520.776 268.318Z" fill="#8B9AD9"/>
<path d="M491.909 5.5134C489.127 5.5134 486.872 8.34359 486.872 11.8348C486.872 15.3261 489.127 18.1562 491.909 18.1562C494.69 18.1562 496.945 15.3261 496.945 11.8348C496.945 8.34359 494.69 5.5134 491.909 5.5134Z" fill="#8B9AD9"/>
<path d="M308.417 629.853C305.635 629.853 303.38 632.683 303.38 636.175C303.38 639.666 305.635 642.496 308.417 642.496C311.198 642.496 313.453 639.666 313.453 636.175C313.453 632.683 311.198 629.853 308.417 629.853Z" fill="#8B9AD9"/>
<path d="M336.354 195.595C333.572 195.595 331.317 198.426 331.317 201.917C331.317 205.408 333.572 208.238 336.354 208.238C339.136 208.238 341.391 205.408 341.391 201.917C341.391 198.426 339.136 195.595 336.354 195.595Z" fill="#8B9AD9"/>
<path d="M303.456 80.9275C300.674 80.9275 298.419 83.7577 298.419 87.2489C298.419 90.7401 300.674 93.5703 303.456 93.5703C306.237 93.5703 308.492 90.7401 308.492 87.2489C308.492 83.7577 306.237 80.9275 303.456 80.9275Z" fill="#8B9AD9"/>
<path d="M182.284 421.978C179.502 421.978 177.247 424.808 177.247 428.3C177.247 431.791 179.502 434.621 182.284 434.621C185.065 434.621 187.32 431.791 187.32 428.3C187.32 424.808 185.065 421.978 182.284 421.978Z" fill="#8B9AD9"/>
<path d="M190.979 204.029C188.197 204.029 185.942 206.859 185.942 210.35C185.942 213.842 188.197 216.672 190.979 216.672C193.761 216.672 196.016 213.842 196.016 210.35C196.016 206.859 193.761 204.029 190.979 204.029Z" fill="#8B9AD9"/>
<path d="M203.784 30.1267C201.002 30.1267 198.747 32.9569 198.747 36.4481C198.747 39.9393 201.002 42.7695 203.784 42.7695C206.565 42.7695 208.82 39.9393 208.82 36.4481C208.82 32.9569 206.565 30.1267 203.784 30.1267Z" fill="#8B9AD9"/>
<path d="M68.2368 626.275C65.4552 626.275 63.2002 629.105 63.2002 632.597C63.2002 636.088 65.4552 638.918 68.2368 638.918C71.0185 638.918 73.2734 636.088 73.2734 632.597C73.2734 629.105 71.0185 626.275 68.2368 626.275Z" fill="#8B9AD9"/>
<path d="M67.7368 397.349C64.9552 397.349 62.7002 400.18 62.7002 403.671C62.7002 407.162 64.9552 409.992 67.7368 409.992C70.5185 409.992 72.7734 407.162 72.7734 403.671C72.7734 400.18 70.5185 397.349 67.7368 397.349Z" fill="#8B9AD9"/>
<path d="M-4.66943 245.916C-7.45108 245.916 -9.70605 248.746 -9.70605 252.237C-9.70605 255.728 -7.45108 258.559 -4.66943 258.559C-1.88778 258.559 0.367188 255.728 0.367188 252.237C0.367188 248.746 -1.88778 245.916 -4.66943 245.916Z" fill="#8B9AD9"/>
<path d="M39.5884 49.4821C36.8067 49.4821 34.5518 52.3123 34.5518 55.8036C34.5518 59.2948 36.8067 62.125 39.5884 62.125C42.37 62.125 44.625 59.2948 44.625 55.8036C44.625 52.3123 42.37 49.4821 39.5884 49.4821Z" fill="#8B9AD9"/>
</g>
<defs>
<radialGradient id="paint0_radial_8267_12951" cx="0" cy="0" r="1" gradientUnits="userSpaceOnUse" gradientTransform="translate(1366.21 61.4163) rotate(180) scale(25.1831 31.6071)">
<stop offset="0.1" stop-color="white"/>
<stop offset="0.2" stop-color="#1735B3"/>
<stop offset="1" stop-color="#1735B3" stop-opacity="0"/>
</radialGradient>
<radialGradient id="paint1_radial_8267_12951" cx="0" cy="0" r="1" gradientUnits="userSpaceOnUse" gradientTransform="translate(347.95 380.674) rotate(180) scale(25.1831 31.6071)">
<stop offset="0.1" stop-color="white"/>
<stop offset="0.2" stop-color="#1735B3"/>
<stop offset="1" stop-color="#1735B3" stop-opacity="0"/>
</radialGradient>
<radialGradient id="paint2_radial_8267_12951" cx="0" cy="0" r="1" gradientUnits="userSpaceOnUse" gradientTransform="translate(220.379 622.862) rotate(180) scale(25.1831 31.6071)">
<stop offset="0.1" stop-color="white"/>
<stop offset="0.2" stop-color="#1735B3"/>
<stop offset="1" stop-color="#1735B3" stop-opacity="0"/>
</radialGradient>
<clipPath id="clip0_8267_12951">
<rect width="1628" height="708" fill="white" transform="matrix(-1 0 0 -1 1628 708)"/>
</clipPath>
</defs>
</svg>
