<svg width="27" height="27" viewBox="0 0 27 27" fill="none" xmlns="http://www.w3.org/2000/svg">
<g id="carbon:development">
<path id="Vector" d="M6.75 3.375V6.75H3.375V3.375H6.75ZM1.6875 1.6875V8.4375H8.4375V1.6875H1.6875ZM15.1875 5.90625V9.28125H11.8125V5.90625H15.1875ZM10.125 4.21875V10.9688H16.875V4.21875H10.125ZM6.75 13.5V16.875H3.375V13.5H6.75ZM1.6875 11.8125V18.5625H8.4375V11.8125H1.6875Z" fill="#0060C7"/>
<path id="Vector_2" d="M18.5625 8.4375V13.5H13.5V18.5625H8.4375V25.3125H25.3125V8.4375H18.5625ZM15.1875 15.1875H18.5625V18.5625H15.1875V15.1875ZM13.5 23.625H10.125V20.25H13.5V23.625ZM18.5625 23.625H15.1875V20.25H18.5625V23.625ZM23.625 23.625H20.25V20.25H23.625V23.625ZM23.625 18.5625H20.25V15.1875H23.625V18.5625ZM20.25 13.5V10.125H23.625V13.5H20.25Z" fill="#0060C7"/>
</g>
</svg>
