<svg width="33" height="34" viewBox="0 0 33 34" fill="none" xmlns="http://www.w3.org/2000/svg">
<g id="Group 1000001999">
<path id="Vector" d="M12.063 8.83881H3.99925C3.38821 8.83881 2.80219 9.08135 2.37012 9.51307C1.93805 9.94479 1.69531 10.5303 1.69531 11.1409V29.5574C1.69531 30.168 1.93805 30.7535 2.37012 31.1852C2.80219 31.617 3.38821 31.8595 3.99925 31.8595H24.7347C25.3457 31.8595 25.9317 31.617 26.3638 31.1852C26.7959 30.7535 27.0386 30.168 27.0386 29.5574V20.3492M1.69531 14.594H16.6709" stroke="currentColor" stroke-width="2.30692" stroke-linecap="round" stroke-linejoin="round"/>
<path id="Vector_2" d="M7.45508 26.1044L10.911 22.6513L7.45508 19.1982M14.3669 26.1044H17.8228M17.5371 9.90704C16.7307 9.76662 16.7307 8.60638 17.5371 8.46595C18.9689 8.2162 20.294 7.54658 21.3439 6.54225C22.3937 5.53793 23.1209 4.24429 23.4329 2.82588L23.479 2.60258C23.6564 1.80376 24.7922 1.79685 24.9765 2.59567L25.0341 2.85581C25.3561 4.26873 26.0892 5.5549 27.1412 6.55237C28.1932 7.54985 29.517 8.21405 30.946 8.46135C31.757 8.60177 31.757 9.76892 30.946 9.91165C29.517 10.1589 28.1932 10.8231 27.1412 11.8206C26.0892 12.8181 25.3561 14.1043 25.0341 15.5172L24.9742 15.775C24.7922 16.5715 23.6564 16.5669 23.4813 15.7681L23.4329 15.5494C23.1209 14.131 22.3937 12.8374 21.3439 11.833C20.294 10.8287 18.9689 10.1591 17.5371 9.90935V9.90704Z" stroke="currentColor" stroke-width="2.30692" stroke-linecap="round" stroke-linejoin="round"/>
</g>
</svg>
