<svg width="17" height="17" viewBox="0 0 17 17" fill="none" xmlns="http://www.w3.org/2000/svg">
<g id="SVG">
<path id="Vector" fill-rule="evenodd" clip-rule="evenodd" d="M10.6025 10.3181L7.93591 12.4359V13.4789C7.93591 13.6054 8.07132 13.6858 8.18238 13.6252L10.1683 12.542C10.436 12.396 10.6025 12.1154 10.6025 11.8104V10.3181ZM6.93591 12.4016L4.63621 10.102H3.55894C2.67337 10.102 2.11067 9.15411 2.53473 8.37667L3.61794 6.39077C3.93921 5.80179 4.55652 5.43533 5.22742 5.43533H7.53724C9.27663 3.58432 11.2189 2.32802 13.7301 2.1295C14.4037 2.07625 14.9616 2.63422 14.9084 3.30778C14.7098 5.819 13.4535 7.76128 11.6025 9.50066V11.8104C11.6025 12.4813 11.2361 13.0987 10.6471 13.4199L8.66124 14.5031C7.8838 14.9272 6.93591 14.3645 6.93591 13.4789V12.4016ZM6.71976 6.43533H5.22742C4.92247 6.43533 4.64187 6.6019 4.49584 6.86962L3.41262 8.85552C3.35204 8.96659 3.43243 9.102 3.55894 9.102H4.60191L6.71976 6.43533Z" fill="#1F2937"/>
<path id="Vector_2" d="M1.60156 13.5666C1.60156 12.5337 2.43895 11.6963 3.47193 11.6963C4.50491 11.6963 5.3423 12.5337 5.3423 13.5666C5.3423 14.5996 4.50491 15.437 3.47193 15.437H2.10156C1.82542 15.437 1.60156 15.2132 1.60156 14.937V13.5666Z" fill="#1F2937"/>
</g>
</svg>
