<svg width="31" height="30" viewBox="0 0 31 30" fill="none" xmlns="http://www.w3.org/2000/svg">
<path id="Vector" d="M29.4196 15.6529L23.1641 12.3982V4.77688C23.1639 4.55512 23.1045 4.33779 22.9923 4.1492C22.8801 3.96061 22.7197 3.80822 22.529 3.7091L15.6384 0.125966C15.4789 0.0431259 15.3032 0 15.125 0C14.9468 0 14.7711 0.0431259 14.6116 0.125966L7.72102 3.7091C7.53029 3.80822 7.36986 3.96061 7.25769 4.1492C7.14552 4.33779 7.08605 4.55512 7.08594 4.77688V12.3994L0.830399 15.6517C0.639491 15.7509 0.478941 15.9035 0.366762 16.0923C0.254583 16.2811 0.195213 16.4987 0.195313 16.7207V25.0813C0.195213 25.3033 0.254583 25.5208 0.366762 25.7097C0.478941 25.8985 0.639491 26.0511 0.830399 26.1503L7.72102 29.7334C7.88043 29.8162 8.05618 29.8594 8.23438 29.8594C8.41257 29.8594 8.58832 29.8162 8.74773 29.7334L15.125 26.4166L21.5023 29.7334C21.6617 29.8162 21.8374 29.8594 22.0156 29.8594C22.1938 29.8594 22.3696 29.8162 22.529 29.7334L29.4196 26.1503C29.6105 26.0511 29.7711 25.8985 29.8832 25.7097C29.9954 25.5208 30.0548 25.3033 30.0547 25.0813V16.7207C30.0548 16.4987 29.9954 16.2811 29.8832 16.0923C29.7711 15.9035 29.6105 15.7509 29.4196 15.6517M20.8672 12.3982L16.2734 14.787V9.09694L20.8672 6.70818V12.3982ZM15.125 2.52786L19.4477 4.77688L15.125 7.02469L10.8023 4.77688L15.125 2.52786ZM9.38281 6.70818L13.9766 9.09694V14.787L9.38281 12.3982V6.70818ZM7.08594 26.7319L2.49219 24.3432V18.6532L7.08594 21.0419V26.7319ZM8.23438 18.9685L3.91166 16.7207L8.23438 14.4728L12.5571 16.7207L8.23438 18.9685ZM9.38281 21.0419L13.9766 18.6532V24.3432L9.38281 26.7319V21.0419ZM20.8672 26.7319L16.2734 24.3432V18.6532L20.8672 21.0419V26.7319ZM22.0156 18.9685L17.6929 16.7207L22.0156 14.4728L26.3383 16.7207L22.0156 18.9685ZM27.7578 24.3432L23.1641 26.7319V21.0419L27.7578 18.6532V24.3432Z" fill="currentColor"/>
</svg>
