<svg width="32" height="32" viewBox="0 0 32 32" fill="none" xmlns="http://www.w3.org/2000/svg">
<g id="ic:round-link">
<path id="Vector" d="M22.668 9.33203H18.668C17.9346 9.33203 17.3346 9.93203 17.3346 10.6654C17.3346 11.3987 17.9346 11.9987 18.668 11.9987H22.668C24.868 11.9987 26.668 13.7987 26.668 15.9987C26.668 18.1987 24.868 19.9987 22.668 19.9987H18.668C17.9346 19.9987 17.3346 20.5987 17.3346 21.332C17.3346 22.0654 17.9346 22.6654 18.668 22.6654H22.668C26.348 22.6654 29.3346 19.6787 29.3346 15.9987C29.3346 12.3187 26.348 9.33203 22.668 9.33203ZM10.668 15.9987C10.668 16.732 11.268 17.332 12.0013 17.332H20.0013C20.7346 17.332 21.3346 16.732 21.3346 15.9987C21.3346 15.2654 20.7346 14.6654 20.0013 14.6654H12.0013C11.268 14.6654 10.668 15.2654 10.668 15.9987ZM13.3346 19.9987H9.33463C7.13463 19.9987 5.33464 18.1987 5.33464 15.9987C5.33464 13.7987 7.13463 11.9987 9.33463 11.9987H13.3346C14.068 11.9987 14.668 11.3987 14.668 10.6654C14.668 9.93203 14.068 9.33203 13.3346 9.33203H9.33463C5.65464 9.33203 2.66797 12.3187 2.66797 15.9987C2.66797 19.6787 5.65464 22.6654 9.33463 22.6654H13.3346C14.068 22.6654 14.668 22.0654 14.668 21.332C14.668 20.5987 14.068 19.9987 13.3346 19.9987Z" fill="#0060C7"/>
</g>
</svg>
