<svg width="109" height="109" viewBox="0 0 109 109" fill="none" xmlns="http://www.w3.org/2000/svg">
<g opacity="0.2" filter="url(#filter0_f_8468_1425)">
<circle cx="54.5" cy="54.5" r="30.5" fill="#0060C7"/>
</g>
<path d="M28 59V30.5L52.4881 16.5426C53.0811 16.2046 53.8056 16.1923 54.4097 16.5102L81 30.5V59L54.4355 73.4582C53.818 73.7943 53.0693 73.7814 52.4636 73.4243L28 59Z" fill="white"/>
<path d="M61.668 38.332H57.668C56.9346 38.332 56.3346 38.932 56.3346 39.6654C56.3346 40.3987 56.9346 40.9987 57.668 40.9987H61.668C63.868 40.9987 65.668 42.7987 65.668 44.9987C65.668 47.1987 63.868 48.9987 61.668 48.9987H57.668C56.9346 48.9987 56.3346 49.5987 56.3346 50.332C56.3346 51.0654 56.9346 51.6654 57.668 51.6654H61.668C65.348 51.6654 68.3346 48.6787 68.3346 44.9987C68.3346 41.3187 65.348 38.332 61.668 38.332ZM49.668 44.9987C49.668 45.732 50.268 46.332 51.0013 46.332H59.0013C59.7346 46.332 60.3346 45.732 60.3346 44.9987C60.3346 44.2654 59.7346 43.6654 59.0013 43.6654H51.0013C50.268 43.6654 49.668 44.2654 49.668 44.9987ZM52.3346 48.9987H48.3346C46.1346 48.9987 44.3346 47.1987 44.3346 44.9987C44.3346 42.7987 46.1346 40.9987 48.3346 40.9987H52.3346C53.068 40.9987 53.668 40.3987 53.668 39.6654C53.668 38.932 53.068 38.332 52.3346 38.332H48.3346C44.6546 38.332 41.668 41.3187 41.668 44.9987C41.668 48.6787 44.6546 51.6654 48.3346 51.6654H52.3346C53.068 51.6654 53.668 51.0654 53.668 50.332C53.668 49.5987 53.068 48.9987 52.3346 48.9987Z" fill="#0060C7"/>
<defs>
<filter id="filter0_f_8468_1425" x="0.53846" y="0.53846" width="107.923" height="107.923" filterUnits="userSpaceOnUse" color-interpolation-filters="sRGB">
<feFlood flood-opacity="0" result="BackgroundImageFix"/>
<feBlend mode="normal" in="SourceGraphic" in2="BackgroundImageFix" result="shape"/>
<feGaussianBlur stdDeviation="11.7308" result="effect1_foregroundBlur_8468_1425"/>
</filter>
</defs>
</svg>
