<svg width="109" height="109" viewBox="0 0 109 109" fill="none" xmlns="http://www.w3.org/2000/svg">
<g opacity="0.2" filter="url(#filter0_f_8461_1120)">
<circle cx="54.5" cy="54.5" r="30.5" fill="#0060C7"/>
</g>
<path d="M32 59V30.5L56.4881 16.5426C57.0811 16.2046 57.8056 16.1923 58.4097 16.5102L85 30.5V59L58.4355 73.4582C57.818 73.7943 57.0693 73.7814 56.4636 73.4243L32 59Z" fill="white"/>
<path d="M51.75 34.375V37.75H48.375V34.375H51.75ZM46.6875 32.6875V39.4375H53.4375V32.6875H46.6875ZM60.1875 36.9062V40.2812H56.8125V36.9062H60.1875ZM55.125 35.2188V41.9688H61.875V35.2188H55.125ZM51.75 44.5V47.875H48.375V44.5H51.75ZM46.6875 42.8125V49.5625H53.4375V42.8125H46.6875Z" fill="#0060C7"/>
<path d="M63.5625 39.4375V44.5H58.5V49.5625H53.4375V56.3125H70.3125V39.4375H63.5625ZM60.1875 46.1875H63.5625V49.5625H60.1875V46.1875ZM58.5 54.625H55.125V51.25H58.5V54.625ZM63.5625 54.625H60.1875V51.25H63.5625V54.625ZM68.625 54.625H65.25V51.25H68.625V54.625ZM68.625 49.5625H65.25V46.1875H68.625V49.5625ZM65.25 44.5V41.125H68.625V44.5H65.25Z" fill="#0060C7"/>
<defs>
<filter id="filter0_f_8461_1120" x="0.53846" y="0.53846" width="107.923" height="107.923" filterUnits="userSpaceOnUse" color-interpolation-filters="sRGB">
<feFlood flood-opacity="0" result="BackgroundImageFix"/>
<feBlend mode="normal" in="SourceGraphic" in2="BackgroundImageFix" result="shape"/>
<feGaussianBlur stdDeviation="11.7308" result="effect1_foregroundBlur_8461_1120"/>
</filter>
</defs>
</svg>
