<svg width="113" height="113" viewBox="0 0 113 113" fill="none" xmlns="http://www.w3.org/2000/svg">
<g id="carbon:port-output">
<path id="Vector" d="M105.5 56.7424L81 32.2424L76.051 37.1914L92.102 53.2424H32V60.2424H92.102L76.051 76.2934L81 81.2424L105.5 56.7424Z" fill="#1E1E1E"/>
<path id="Vector_2" d="M49.5 98.7424C26.3405 98.7424 7.5 79.9019 7.5 56.7424C7.5 33.5829 26.3405 14.7424 49.5 14.7424C57.6725 14.7424 65.5965 17.0909 72.411 21.5359L68.589 27.4019C62.9115 23.6998 56.2779 21.7331 49.5 21.7424C30.201 21.7424 14.5 37.4434 14.5 56.7424C14.5 76.0414 30.201 91.7424 49.5 91.7424C56.2779 91.7518 62.9115 89.7851 68.589 86.0829L72.411 91.9489C65.5972 96.3934 57.6352 98.7543 49.5 98.7424Z" fill="#1E1E1E"/>
</g>
</svg>
