<svg width="113" height="113" viewBox="0 0 113 113" fill="none" xmlns="http://www.w3.org/2000/svg">
<g id="fluent:arrow-growth-24-regular">
<path id="Vector" d="M78.6611 10.0758H99.9131L100.38 10.1411L100.842 10.2718L101.122 10.3931C101.495 10.5549 101.836 10.7882 102.144 11.0931L102.33 11.2985L102.536 11.5645L102.788 11.9845L102.97 12.4045L103.058 12.7031L103.124 13.0018L103.166 13.4451V34.5945C103.165 35.4812 102.829 36.3349 102.223 36.9828C101.618 37.6308 100.789 38.0248 99.9043 38.0853C99.0196 38.1457 98.1449 37.8681 97.457 37.3085C96.7691 36.7488 96.3193 35.949 96.1984 35.0705L96.1658 34.5945V22.0178L66.1124 52.0711C65.5198 52.6639 64.7341 53.0243 63.8983 53.0868C63.0625 53.1493 62.2319 52.9098 61.5577 52.4118L61.1657 52.0758L47.0258 38.4958L20.4724 65.0445C19.8479 65.6707 19.0095 66.0373 18.1257 66.0705C17.2419 66.1038 16.3783 65.8012 15.7085 65.2236C15.0387 64.646 14.6124 63.8363 14.5153 62.9573C14.4182 62.0782 14.6575 61.195 15.1851 60.4851L15.5258 60.0931L44.5524 31.0665C45.1456 30.4744 45.9316 30.1149 46.7674 30.0532C47.6032 29.9916 48.4334 30.2319 49.1071 30.7305L49.4991 31.0665L63.6391 44.6465L91.2098 17.0758H78.6564C77.8114 17.0746 76.9954 16.7678 76.359 16.212C75.7225 15.6562 75.3087 14.8889 75.1938 14.0518L75.1611 13.5758C75.1611 12.73 75.4674 11.9129 76.0233 11.2755C76.5792 10.638 77.3472 10.2235 78.1851 10.1085L78.6611 10.0758ZM17.9991 80.0758C18.9273 80.0758 19.8176 80.4445 20.474 81.1009C21.1303 81.7573 21.4991 82.6475 21.4991 83.5758V99.9091C21.4991 100.837 21.1303 101.728 20.474 102.384C19.8176 103.04 18.9273 103.409 17.9991 103.409C17.0708 103.409 16.1806 103.04 15.5242 102.384C14.8678 101.728 14.4991 100.837 14.4991 99.9091V83.5758C14.4991 82.6475 14.8678 81.7573 15.5242 81.1009C16.1806 80.4445 17.0708 80.0758 17.9991 80.0758ZM44.8324 64.9091C44.8324 63.9809 44.4637 63.0906 43.8073 62.4343C43.1509 61.7779 42.2607 61.4091 41.3324 61.4091C40.4042 61.4091 39.5139 61.7779 38.8575 62.4343C38.2012 63.0906 37.8324 63.9809 37.8324 64.9091V99.9091C37.8324 100.837 38.2012 101.728 38.8575 102.384C39.5139 103.04 40.4042 103.409 41.3324 103.409C42.2607 103.409 43.1509 103.04 43.8073 102.384C44.4637 101.728 44.8324 100.837 44.8324 99.9091V64.9091ZM64.6657 70.7425C65.594 70.7425 66.4842 71.1112 67.1406 71.7676C67.797 72.424 68.1657 73.3142 68.1657 74.2425V99.9091C68.1657 100.837 67.797 101.728 67.1406 102.384C66.4842 103.04 65.594 103.409 64.6657 103.409C63.7375 103.409 62.8473 103.04 62.1909 102.384C61.5345 101.728 61.1657 100.837 61.1657 99.9091V74.2425C61.1657 73.3142 61.5345 72.424 62.1909 71.7676C62.8473 71.1112 63.7375 70.7425 64.6657 70.7425ZM91.4991 50.9091C91.4991 49.9809 91.1303 49.0906 90.474 48.4343C89.8176 47.7779 88.9273 47.4091 87.9991 47.4091C87.0708 47.4091 86.1806 47.7779 85.5242 48.4343C84.8678 49.0906 84.4991 49.9809 84.4991 50.9091V99.9091C84.4991 100.837 84.8678 101.728 85.5242 102.384C86.1806 103.04 87.0708 103.409 87.9991 103.409C88.9273 103.409 89.8176 103.04 90.474 102.384C91.1303 101.728 91.4991 100.837 91.4991 99.9091V50.9091Z" fill="#1E1E1E"/>
</g>
</svg>
