<svg width="105" height="105" viewBox="0 0 105 105" fill="none" xmlns="http://www.w3.org/2000/svg">
<g id="streamline:ai-technology-spark" clip-path="url(#clip0_7916_24248)">
<g id="Group">
<path id="Vector" d="M62.9454 59.9462C60.078 63.2148 56.5866 65.889 52.6569 67.8279V78.9708C52.6569 79.9559 52.2655 80.9006 51.569 81.5972C50.8724 82.2937 49.9277 82.685 48.9426 82.685H26.6569C25.6718 82.685 24.727 82.2937 24.0305 81.5972C23.3339 80.9006 22.9426 79.9559 22.9426 78.9708V67.8279C15.1154 63.921 9.13168 57.1015 6.27541 48.8329C3.41914 40.5643 3.91796 31.5055 7.66484 23.6005C11.4117 15.6955 18.1081 9.57426 26.3168 6.55037C34.5256 3.52647 43.5927 3.84091 51.5723 7.42619M22.9426 101.026H52.6569" stroke="#1E1E1E" stroke-width="7.42857" stroke-linecap="round" stroke-linejoin="round"/>
<path id="Vector_2" d="M55.436 29.9661C52.8286 29.513 52.8286 25.769 55.436 25.3158C60.0512 24.5086 64.3221 22.3472 67.7057 19.1064C71.0893 15.8656 73.4329 11.6919 74.4383 7.11583L74.5943 6.38783C75.1589 3.81012 78.8286 3.79526 79.4155 6.36555L79.6086 7.20498C80.6462 11.7633 83.009 15.913 86.3995 19.1316C89.79 22.3503 94.0568 24.4942 98.6629 25.2935C101.285 25.7541 101.285 29.513 98.6629 29.9735C94.0581 30.7742 89.7929 32.9187 86.4039 36.1373C83.0148 39.3559 80.6531 43.5048 79.616 48.0621L79.4229 48.9015C78.836 51.4718 75.1663 51.457 74.6018 48.8793L74.4532 48.1587C73.4467 43.5806 71.101 39.4054 67.7145 36.1644C64.328 32.9235 60.0539 30.7707 55.436 29.9661Z" stroke="#1E1E1E" stroke-width="7.42857" stroke-linecap="round" stroke-linejoin="round"/>
</g>
</g>
<defs>
<clipPath id="clip0_7916_24248">
<rect width="104" height="104" fill="white" transform="translate(0.5 0.742432)"/>
</clipPath>
</defs>
</svg>
