<svg width="1804" height="708" viewBox="0 0 1804 708" fill="none" xmlns="http://www.w3.org/2000/svg">
<g opacity="0.05" clip-path="url(#clip0_8461_1121)">
<path d="M1882.15 208.315L1747.53 210.098" stroke="#132E65" stroke-width="1.56946"/>
<path d="M1882.15 208.316L1571.28 40.6342" stroke="#132E65" stroke-width="1.56946"/>
<path d="M1882.15 208.314L1541.43 223.625" stroke="#132E65" stroke-width="1.56946"/>
<path d="M1882.15 208.316L1692.84 -182.146" stroke="#132E65" stroke-width="1.56946"/>
<path d="M1882.15 208.316L1566.65 -160.084" stroke="#132E65" stroke-width="1.56946"/>
<path d="M1747.53 210.097L1541.43 223.625" stroke="#132E65" stroke-width="1.56946"/>
<path d="M1541.43 223.625L1571.28 40.6323" stroke="#132E65" stroke-width="1.56946"/>
<path d="M1541.43 223.625L1380.55 188.617" stroke="#132E65" stroke-width="1.56946"/>
<path d="M1541.43 223.627L1241.1 241.719" stroke="#132E65" stroke-width="1.56946"/>
<path d="M1541.43 223.625L1566.66 -160.086" stroke="#132E65" stroke-width="1.56946"/>
<path d="M1571.28 40.6328L1566.66 -160.085" stroke="#132E65" stroke-width="1.56946"/>
<path d="M1571.28 40.6328L1692.84 -182.147" stroke="#132E65" stroke-width="1.56946"/>
<path d="M1571.28 40.6328L1747.53 210.098" stroke="#132E65" stroke-width="1.56946"/>
<path d="M1380.55 188.619L1241.1 241.719" stroke="#132E65" stroke-width="1.56946"/>
<path d="M1380.55 188.617L1250.08 86.4882" stroke="#132E65" stroke-width="1.56946"/>
<path d="M1380.55 188.617L1571.28 40.6325" stroke="#132E65" stroke-width="1.56946"/>
<path d="M1380.55 188.618L1110.37 270.531" stroke="#132E65" stroke-width="1.56946"/>
<path d="M1380.55 188.617L1125.41 25.5749" stroke="#132E65" stroke-width="1.56946"/>
<path d="M1418.86 -179.543L1571.28 40.6328" stroke="#132E65" stroke-width="1.56946"/>
<path d="M1241.1 241.719L1250.07 86.4898" stroke="#132E65" stroke-width="1.56946"/>
<path d="M1241.09 241.718L1110.36 270.531" stroke="#132E65" stroke-width="1.56946"/>
<path d="M1241.09 241.719L1125.4 25.5764" stroke="#132E65" stroke-width="1.56946"/>
<path d="M1250.07 86.4883L1125.4 25.575" stroke="#132E65" stroke-width="1.56946"/>
<path d="M1110.37 270.531L998.856 212.741" stroke="#132E65" stroke-width="1.56946"/>
<path d="M1125.41 25.5742L1151.16 -136.887" stroke="#132E65" stroke-width="1.56946"/>
<path d="M1125.41 25.5758L941.66 64.5664" stroke="#132E65" stroke-width="1.56946"/>
<path d="M1125.41 25.5773L998.856 212.742" stroke="#132E65" stroke-width="1.56946"/>
<path d="M1125.41 25.5759L1110.37 270.531" stroke="#132E65" stroke-width="1.56946"/>
<path d="M1151.15 -136.886L1250.07 86.4883" stroke="#132E65" stroke-width="1.56946"/>
<path d="M952.031 439.07L837.065 418.993" stroke="#132E65" stroke-width="1.56946"/>
<path d="M952.031 439.07L998.852 212.738" stroke="#132E65" stroke-width="1.56946"/>
<path d="M952.031 439.074L844.54 645.898" stroke="#132E65" stroke-width="1.56946"/>
<path d="M952.036 439.07L1110.37 270.528" stroke="#132E65" stroke-width="1.56946"/>
<path d="M952.031 439.07L822.57 189.69" stroke="#132E65" stroke-width="1.56946"/>
<path d="M998.852 212.742L941.656 64.5679" stroke="#132E65" stroke-width="1.56946"/>
<path d="M998.852 212.742L822.57 189.694" stroke="#132E65" stroke-width="1.56946"/>
<path d="M998.852 212.741L837.065 418.996" stroke="#132E65" stroke-width="1.56946"/>
<path d="M941.656 64.5651L822.57 189.691" stroke="#132E65" stroke-width="1.56946"/>
<path d="M836.722 841.926L844.539 645.898" stroke="#132E65" stroke-width="1.56946"/>
<path d="M836.727 841.926L642.635 639.45" stroke="#132E65" stroke-width="1.56946"/>
<path d="M844.539 645.898L837.065 418.997" stroke="#132E65" stroke-width="1.56946"/>
<path d="M844.539 645.898L642.631 639.451" stroke="#132E65" stroke-width="1.56946"/>
<path d="M837.07 418.996L822.575 189.693" stroke="#132E65" stroke-width="1.56946"/>
<path d="M837.07 418.996L683.846 219.365" stroke="#132E65" stroke-width="1.56946"/>
<path d="M822.57 189.694L683.842 219.367" stroke="#132E65" stroke-width="1.56946"/>
<path d="M822.57 189.691L658.225 10.8456" stroke="#132E65" stroke-width="1.56946"/>
<path d="M833.067 -160.021L941.656 64.5664" stroke="#132E65" stroke-width="1.56946"/>
<path d="M833.07 -160.021L658.229 10.8477" stroke="#132E65" stroke-width="1.56946"/>
<path d="M833.07 -160.023L822.574 189.691" stroke="#132E65" stroke-width="1.56946"/>
<path d="M632.086 767.344L642.633 639.449" stroke="#132E65" stroke-width="1.56946"/>
<path d="M632.086 767.344L484.825 628.095" stroke="#132E65" stroke-width="1.56946"/>
<path d="M632.084 767.344L844.539 645.896" stroke="#132E65" stroke-width="1.56946"/>
<path d="M642.633 639.449L484.825 628.096" stroke="#132E65" stroke-width="1.56946"/>
<path d="M642.633 639.448L518.369 832.707" stroke="#132E65" stroke-width="1.56946"/>
<path d="M683.844 219.367L658.227 10.8485" stroke="#132E65" stroke-width="1.56946"/>
<path d="M683.844 219.367L504.197 191.667" stroke="#132E65" stroke-width="1.56946"/>
<path d="M658.227 10.8477L624.874 -133.723" stroke="#132E65" stroke-width="1.56946"/>
<path d="M658.227 10.8479L504.851 57.0195" stroke="#132E65" stroke-width="1.56946"/>
<path d="M658.227 10.8459L504.197 191.664" stroke="#132E65" stroke-width="1.56946"/>
<path d="M624.875 -133.723L504.852 57.0195" stroke="#132E65" stroke-width="1.56946"/>
<path d="M518.367 832.707L484.823 628.095" stroke="#132E65" stroke-width="1.56946"/>
<path d="M484.826 628.094L499.734 414.24" stroke="#132E65" stroke-width="1.56946"/>
<path d="M484.828 628.094L350.683 761.375" stroke="#132E65" stroke-width="1.56946"/>
<path d="M499.734 414.242L379.853 408.338" stroke="#132E65" stroke-width="1.56946"/>
<path d="M499.733 414.242L504.195 191.665" stroke="#132E65" stroke-width="1.56946"/>
<path d="M499.734 414.242L642.633 639.449" stroke="#132E65" stroke-width="1.56946"/>
<path d="M499.734 414.242L349.824 195.255" stroke="#132E65" stroke-width="1.56946"/>
<path d="M499.735 414.242L683.844 219.365" stroke="#132E65" stroke-width="1.56946"/>
<path d="M504.197 191.664L504.852 57.0176" stroke="#132E65" stroke-width="1.56946"/>
<path d="M350.68 761.375L197.808 643.518" stroke="#132E65" stroke-width="1.56946"/>
<path d="M350.679 761.375L379.852 408.336" stroke="#132E65" stroke-width="1.56946"/>
<path d="M350.68 761.375L183.837 451.928" stroke="#132E65" stroke-width="1.56946"/>
<path d="M379.852 408.336L349.823 195.253" stroke="#132E65" stroke-width="1.56946"/>
<path d="M379.852 408.337L183.836 451.93" stroke="#132E65" stroke-width="1.56946"/>
<path d="M349.823 195.254L504.195 191.663" stroke="#132E65" stroke-width="1.56946"/>
<path d="M349.828 195.254L193.481 193.092" stroke="#132E65" stroke-width="1.56946"/>
<path d="M349.828 195.254L220.417 51.9472" stroke="#132E65" stroke-width="1.56946"/>
<path d="M349.824 195.254L504.852 57.0169" stroke="#132E65" stroke-width="1.56946"/>
<path d="M334.516 -170.388L220.416 51.9492" stroke="#132E65" stroke-width="1.56946"/>
<path d="M334.513 -170.388L504.852 57.0195" stroke="#132E65" stroke-width="1.56946"/>
<path d="M197.812 643.52L183.841 451.93" stroke="#132E65" stroke-width="1.56946"/>
<path d="M197.808 643.52L379.852 408.337" stroke="#132E65" stroke-width="1.56946"/>
<path d="M183.837 451.93L193.477 193.093" stroke="#132E65" stroke-width="1.56946"/>
<path d="M193.478 193.094L220.414 51.9489" stroke="#132E65" stroke-width="1.56946"/>
<path d="M193.477 193.094L192.641 -99.0954" stroke="#132E65" stroke-width="1.56946"/>
<path d="M193.476 193.091L379.852 408.336" stroke="#132E65" stroke-width="1.56946"/>
<path d="M193.476 193.094L504.195 191.665" stroke="#132E65" stroke-width="1.56946"/>
<path d="M220.414 51.9492L192.642 -99.095" stroke="#132E65" stroke-width="1.56946"/>
<path d="M1747.53 203.775C1744.74 203.775 1742.49 206.605 1742.49 210.097C1742.49 213.588 1744.74 216.418 1747.53 216.418C1750.31 216.418 1752.56 213.588 1752.56 210.097C1752.56 206.605 1750.31 203.775 1747.53 203.775Z" fill="#132E65"/>
<path d="M1541.42 217.302C1538.64 217.302 1536.39 220.133 1536.39 223.624C1536.39 227.115 1538.64 229.945 1541.42 229.945C1544.21 229.945 1546.46 227.115 1546.46 223.624C1546.46 220.133 1544.21 217.302 1541.42 217.302Z" fill="#132E65"/>
<path d="M1571.28 34.3103C1568.49 34.3103 1566.24 37.1405 1566.24 40.6317C1566.24 44.1229 1568.49 46.9531 1571.28 46.9531C1574.06 46.9531 1576.31 44.1229 1576.31 40.6317C1576.31 37.1405 1574.06 34.3103 1571.28 34.3103Z" fill="#132E65"/>
<path d="M1380.55 182.295C1377.77 182.295 1375.51 185.125 1375.51 188.616C1375.51 192.107 1377.77 194.938 1380.55 194.938C1383.33 194.938 1385.59 192.107 1385.59 188.616C1385.59 185.125 1383.33 182.295 1380.55 182.295Z" fill="#132E65"/>
<path d="M1241.1 235.396C1238.31 235.396 1236.06 238.226 1236.06 241.718C1236.06 245.209 1238.31 248.039 1241.1 248.039C1243.88 248.039 1246.13 245.209 1246.13 241.718C1246.13 238.226 1243.88 235.396 1241.1 235.396Z" fill="#132E65"/>
<path d="M1250.07 80.1657C1247.29 80.1657 1245.04 82.9959 1245.04 86.4872C1245.04 89.9784 1247.29 92.8086 1250.07 92.8086C1252.85 92.8086 1255.11 89.9784 1255.11 86.4872C1255.11 82.9959 1252.85 80.1657 1250.07 80.1657Z" fill="#132E65"/>
<path d="M1110.37 264.209C1107.59 264.209 1105.33 267.039 1105.33 270.53C1105.33 274.021 1107.59 276.852 1110.37 276.852C1113.15 276.852 1115.41 274.021 1115.41 270.53C1115.41 267.039 1113.15 264.209 1110.37 264.209Z" fill="#132E65"/>
<path d="M1125.41 19.2556C1122.63 19.2556 1120.37 22.0858 1120.37 25.577C1120.37 29.0682 1122.63 31.8984 1125.41 31.8984C1128.19 31.8984 1130.45 29.0682 1130.45 25.577C1130.45 22.0858 1128.19 19.2556 1125.41 19.2556Z" fill="#132E65"/>
<path d="M952.034 432.752C949.252 432.752 946.997 435.582 946.997 439.073C946.997 442.564 949.252 445.395 952.034 445.395C954.815 445.395 957.07 442.564 957.07 439.073C957.07 435.582 954.815 432.752 952.034 432.752Z" fill="#132E65"/>
<path d="M998.854 206.42C996.072 206.42 993.817 209.25 993.817 212.741C993.817 216.232 996.072 219.062 998.854 219.062C1001.64 219.062 1003.89 216.232 1003.89 212.741C1003.89 209.25 1001.64 206.42 998.854 206.42Z" fill="#132E65"/>
<path d="M941.659 58.2439C938.877 58.2439 936.622 61.0741 936.622 64.5653C936.622 68.0565 938.877 70.8867 941.659 70.8867C944.44 70.8867 946.695 68.0565 946.695 64.5653C946.695 61.0741 944.44 58.2439 941.659 58.2439Z" fill="#132E65"/>
<path d="M844.542 639.576C841.76 639.576 839.505 642.406 839.505 645.897C839.505 649.388 841.76 652.219 844.542 652.219C847.323 652.219 849.578 649.388 849.578 645.897C849.578 642.406 847.323 639.576 844.542 639.576Z" fill="#132E65"/>
<path d="M837.065 412.674C834.283 412.674 832.028 415.504 832.028 418.995C832.028 422.486 834.283 425.316 837.065 425.316C839.847 425.316 842.102 422.486 842.102 418.995C842.102 415.504 839.847 412.674 837.065 412.674Z" fill="#132E65"/>
<path d="M822.573 183.373C819.791 183.373 817.536 186.203 817.536 189.694C817.536 193.185 819.791 196.016 822.573 196.016C825.354 196.016 827.609 193.185 827.609 189.694C827.609 186.203 825.354 183.373 822.573 183.373Z" fill="#132E65"/>
<path d="M642.635 633.127C639.854 633.127 637.599 635.957 637.599 639.448C637.599 642.939 639.854 645.77 642.635 645.77C645.417 645.77 647.672 642.939 647.672 639.448C647.672 635.957 645.417 633.127 642.635 633.127Z" fill="#132E65"/>
<path d="M683.846 213.045C681.065 213.045 678.81 215.875 678.81 219.366C678.81 222.857 681.065 225.688 683.846 225.688C686.628 225.688 688.883 222.857 688.883 219.366C688.883 215.875 686.628 213.045 683.846 213.045Z" fill="#132E65"/>
<path d="M658.229 4.52511C655.447 4.52511 653.192 7.35531 653.192 10.8465C653.192 14.3378 655.447 17.168 658.229 17.168C661.011 17.168 663.266 14.3378 663.266 10.8465C663.266 7.35531 661.011 4.52511 658.229 4.52511Z" fill="#132E65"/>
<path d="M484.823 621.775C482.041 621.775 479.786 624.605 479.786 628.097C479.786 631.588 482.041 634.418 484.823 634.418C487.604 634.418 489.859 631.588 489.859 628.097C489.859 624.605 487.604 621.775 484.823 621.775Z" fill="#132E65"/>
<path d="M499.737 407.92C496.955 407.92 494.7 410.75 494.7 414.241C494.7 417.732 496.955 420.562 499.737 420.562C502.518 420.562 504.773 417.732 504.773 414.241C504.773 410.75 502.518 407.92 499.737 407.92Z" fill="#132E65"/>
<path d="M504.198 185.342C501.416 185.342 499.161 188.172 499.161 191.663C499.161 195.154 501.416 197.984 504.198 197.984C506.979 197.984 509.234 195.154 509.234 191.663C509.234 188.172 506.979 185.342 504.198 185.342Z" fill="#132E65"/>
<path d="M504.854 50.6969C502.072 50.6969 499.817 53.5271 499.817 57.0184C499.817 60.5096 502.072 63.3398 504.854 63.3398C507.636 63.3398 509.891 60.5096 509.891 57.0184C509.891 53.5271 507.636 50.6969 504.854 50.6969Z" fill="#132E65"/>
<path d="M379.854 402.017C377.072 402.017 374.817 404.848 374.817 408.339C374.817 411.83 377.072 414.66 379.854 414.66C382.636 414.66 384.891 411.83 384.891 408.339C384.891 404.848 382.636 402.017 379.854 402.017Z" fill="#132E65"/>
<path d="M349.823 188.935C347.041 188.935 344.786 191.765 344.786 195.257C344.786 198.748 347.041 201.578 349.823 201.578C352.604 201.578 354.859 198.748 354.859 195.257C354.859 191.765 352.604 188.935 349.823 188.935Z" fill="#132E65"/>
<path d="M197.815 637.201C195.033 637.201 192.778 640.031 192.778 643.522C192.778 647.014 195.033 649.844 197.815 649.844C200.597 649.844 202.852 647.014 202.852 643.522C202.852 640.031 200.597 637.201 197.815 637.201Z" fill="#132E65"/>
<path d="M183.838 445.607C181.057 445.607 178.802 448.437 178.802 451.929C178.802 455.42 181.057 458.25 183.838 458.25C186.62 458.25 188.875 455.42 188.875 451.929C188.875 448.437 186.62 445.607 183.838 445.607Z" fill="#132E65"/>
<path d="M193.479 186.771C190.697 186.771 188.442 189.601 188.442 193.093C188.442 196.584 190.697 199.414 193.479 199.414C196.261 199.414 198.516 196.584 198.516 193.093C198.516 189.601 196.261 186.771 193.479 186.771Z" fill="#132E65"/>
<path d="M220.417 45.6267C217.635 45.6267 215.38 48.4569 215.38 51.9481C215.38 55.4393 217.635 58.2695 220.417 58.2695C223.198 58.2695 225.453 55.4393 225.453 51.9481C225.453 48.4569 223.198 45.6267 220.417 45.6267Z" fill="#132E65"/>
<path d="M1839.66 25.5876L1752.66 49.7734" stroke="#2448E3" stroke-width="1.56946"/>
<path d="M1839.66 25.5859L1726.86 -190.784" stroke="#2448E3" stroke-width="1.56946"/>
<path d="M1839.66 25.5881L1542.2 61.418" stroke="#2448E3" stroke-width="1.56946"/>
<path d="M1839.66 25.5859L1552.72 -132.247" stroke="#2448E3" stroke-width="1.56946"/>
<path d="M1839.66 25.5859L1452.01 -104.8" stroke="#2448E3" stroke-width="1.56946"/>
<path d="M1726.86 -190.782L1752.66 49.7734" stroke="#2448E3" stroke-width="1.56946"/>
<path d="M1542.2 61.418L1552.72 -132.245" stroke="#2448E3" stroke-width="1.56946"/>
<path d="M1542.2 61.4177L1452.01 -104.798" stroke="#2448E3" stroke-width="1.56946"/>
<path d="M1542.2 61.418L1752.66 49.7739" stroke="#2448E3" stroke-width="1.56946"/>
<path d="M1542.21 61.418L1726.86 -190.782" stroke="#2448E3" stroke-width="1.56946"/>
<path d="M1542.2 61.4189L1252.48 79.3086" stroke="#2448E3" stroke-width="1.56946"/>
<path d="M1552.72 -132.246L1752.66 49.7734" stroke="#2448E3" stroke-width="1.56946"/>
<path d="M523.949 380.676L659.484 412.84" stroke="#2448E3" stroke-width="1.56946"/>
<path d="M523.953 380.676L512.359 201.918" stroke="#2448E3" stroke-width="1.56946"/>
<path d="M523.953 380.675L358.289 428.301" stroke="#2448E3" stroke-width="1.56946"/>
<path d="M523.947 380.676L696.773 274.64" stroke="#2448E3" stroke-width="1.56946"/>
<path d="M523.953 380.676L484.416 636.176" stroke="#2448E3" stroke-width="1.56946"/>
<path d="M482.141 -191.4L379.786 36.4492" stroke="#2448E3" stroke-width="1.56946"/>
<path d="M396.384 622.863L484.414 636.176" stroke="#2448E3" stroke-width="1.56946"/>
<path d="M396.383 622.863L244.237 632.598" stroke="#2448E3" stroke-width="1.56946"/>
<path d="M396.383 622.86L327.039 793.602" stroke="#2448E3" stroke-width="1.56946"/>
<path d="M396.383 622.863L358.286 428.302" stroke="#2448E3" stroke-width="1.56946"/>
<path d="M396.386 622.862L538.258 786.41" stroke="#2448E3" stroke-width="1.56946"/>
<path d="M1452.01 -104.797L1252.48 79.3086" stroke="#2448E3" stroke-width="1.56946"/>
<path d="M1252.48 79.3086L1144.71 46.0073" stroke="#2448E3" stroke-width="1.56946"/>
<path d="M1252.48 79.3086L1249.22 -189.554" stroke="#2448E3" stroke-width="1.56946"/>
<path d="M1252.48 79.3086L1110.75 -160.463" stroke="#2448E3" stroke-width="1.56946"/>
<path d="M1144.72 46.0078L1110.75 -160.463" stroke="#2448E3" stroke-width="1.56946"/>
<path d="M1144.72 46.0066L948.965 52.0625" stroke="#2448E3" stroke-width="1.56946"/>
<path d="M1144.72 46.0078L1249.23 -189.554" stroke="#2448E3" stroke-width="1.56946"/>
<path d="M1144.72 46.0065L976.848 218.695" stroke="#2448E3" stroke-width="1.56946"/>
<path d="M976.844 218.695L948.961 52.0624" stroke="#2448E3" stroke-width="1.56946"/>
<path d="M976.844 218.695L847.453 49.2558" stroke="#2448E3" stroke-width="1.56946"/>
<path d="M948.961 52.0625L847.453 49.2558" stroke="#2448E3" stroke-width="1.56946"/>
<path d="M948.966 52.0625L952.562 -173.044" stroke="#2448E3" stroke-width="1.56946"/>
<path d="M952.562 -173.042L847.458 49.2578" stroke="#2448E3" stroke-width="1.56946"/>
<path d="M952.562 -173.042L1144.72 46.0078" stroke="#2448E3" stroke-width="1.56946"/>
<path d="M785.164 405.76L659.49 412.84" stroke="#2448E3" stroke-width="1.56946"/>
<path d="M785.164 405.758L696.781 274.639" stroke="#2448E3" stroke-width="1.56946"/>
<path d="M785.159 405.758L787.828 202.107" stroke="#2448E3" stroke-width="1.56946"/>
<path d="M785.16 405.758L976.844 218.694" stroke="#2448E3" stroke-width="1.56946"/>
<path d="M785.164 405.758L637.339 654.582" stroke="#2448E3" stroke-width="1.56946"/>
<path d="M785.164 405.758L523.955 380.674" stroke="#2448E3" stroke-width="1.56946"/>
<path d="M787.828 202.109L696.776 274.641" stroke="#2448E3" stroke-width="1.56946"/>
<path d="M787.83 202.109L847.453 49.2573" stroke="#2448E3" stroke-width="1.56946"/>
<path d="M787.83 202.108L976.844 218.695" stroke="#2448E3" stroke-width="1.56946"/>
<path d="M847.453 49.2578L667.908 11.8349" stroke="#2448E3" stroke-width="1.56946"/>
<path d="M847.453 49.2578L786.621 -191.26" stroke="#2448E3" stroke-width="1.56946"/>
<path d="M786.617 -191.263L667.904 11.832" stroke="#2448E3" stroke-width="1.56946"/>
<path d="M637.336 654.583L538.256 786.41" stroke="#2448E3" stroke-width="1.56946"/>
<path d="M637.336 654.582L484.414 636.174" stroke="#2448E3" stroke-width="1.56946"/>
<path d="M659.482 412.84L696.773 274.641" stroke="#2448E3" stroke-width="1.56946"/>
<path d="M696.773 274.641L512.353 201.919" stroke="#2448E3" stroke-width="1.56946"/>
<path d="M696.773 274.641L667.903 11.8335" stroke="#2448E3" stroke-width="1.56946"/>
<path d="M667.906 11.8344L787.828 202.109" stroke="#2448E3" stroke-width="1.56946"/>
<path d="M667.906 11.8314L479.456 87.2461" stroke="#2448E3" stroke-width="1.56946"/>
<path d="M538.258 786.41L484.416 636.175" stroke="#2448E3" stroke-width="1.56946"/>
<path d="M538.258 786.41L244.24 632.597" stroke="#2448E3" stroke-width="1.56946"/>
<path d="M484.414 636.177L327.04 793.605" stroke="#2448E3" stroke-width="1.56946"/>
<path d="M512.359 201.918L479.46 87.2473" stroke="#2448E3" stroke-width="1.56946"/>
<path d="M512.359 201.919L366.982 210.352" stroke="#2448E3" stroke-width="1.56946"/>
<path d="M479.461 87.2461L379.786 36.4471" stroke="#2448E3" stroke-width="1.56946"/>
<path d="M479.461 87.2481L366.983 210.352" stroke="#2448E3" stroke-width="1.56946"/>
<path d="M327.039 793.602L244.237 632.595" stroke="#2448E3" stroke-width="1.56946"/>
<path d="M358.289 428.301L243.736 403.672" stroke="#2448E3" stroke-width="1.56946"/>
<path d="M366.978 210.352L379.781 36.4491" stroke="#2448E3" stroke-width="1.56946"/>
<path d="M379.781 36.4485L215.587 55.8047" stroke="#2448E3" stroke-width="1.56946"/>
<path d="M201.866 819.637L244.234 632.598" stroke="#2448E3" stroke-width="1.56946"/>
<path d="M201.868 819.637L396.383 622.863" stroke="#2448E3" stroke-width="1.56946"/>
<path d="M201.87 819.637L484.414 636.176" stroke="#2448E3" stroke-width="1.56946"/>
<path d="M201.87 819.637L243.734 403.674" stroke="#2448E3" stroke-width="1.56946"/>
<path d="M244.234 632.598L243.731 403.673" stroke="#2448E3" stroke-width="1.56946"/>
<path d="M244.24 632.598L358.289 428.302" stroke="#2448E3" stroke-width="1.56946"/>
<path d="M243.734 403.672L171.328 252.236" stroke="#2448E3" stroke-width="1.56946"/>
<path d="M171.332 252.234L215.594 55.8023" stroke="#2448E3" stroke-width="1.56946"/>
<path d="M171.332 252.234L366.984 210.349" stroke="#2448E3" stroke-width="1.56946"/>
<path d="M215.588 55.8047L227.172 -132.157" stroke="#2448E3" stroke-width="1.56946"/>
<path d="M215.594 55.8053L366.984 210.352" stroke="#2448E3" stroke-width="1.56946"/>
<path d="M215.593 55.8047L366.672 -192.64" stroke="#2448E3" stroke-width="1.56946"/>
<path d="M1542.21 29.8092C1528.3 29.8092 1517.02 43.9601 1517.02 61.4163C1517.02 78.8724 1528.3 93.0234 1542.21 93.0234C1556.12 93.0234 1567.39 78.8724 1567.39 61.4163C1567.39 43.9601 1556.12 29.8092 1542.21 29.8092Z" fill="url(#paint0_radial_8461_1121)"/>
<path d="M523.95 349.067C510.041 349.067 498.767 363.218 498.767 380.674C498.767 398.13 510.041 412.281 523.95 412.281C537.858 412.281 549.133 398.13 549.133 380.674C549.133 363.218 537.858 349.067 523.95 349.067Z" fill="url(#paint1_radial_8461_1121)"/>
<path d="M396.379 591.254C382.471 591.254 371.196 605.405 371.196 622.862C371.196 640.318 382.471 654.469 396.379 654.469C410.288 654.469 421.562 640.318 421.562 622.862C421.562 605.405 410.288 591.254 396.379 591.254Z" fill="url(#paint2_radial_8461_1121)"/>
<path d="M1752.67 43.4509C1749.88 43.4509 1747.63 46.2811 1747.63 49.7723C1747.63 53.2636 1749.88 56.0938 1752.67 56.0938C1755.45 56.0938 1757.7 53.2636 1757.7 49.7723C1757.7 46.2811 1755.45 43.4509 1752.67 43.4509Z" fill="#8B9AD9"/>
<path d="M1252.48 72.9861C1249.7 72.9861 1247.44 75.8163 1247.44 79.3075C1247.44 82.7987 1249.7 85.6289 1252.48 85.6289C1255.26 85.6289 1257.52 82.7987 1257.52 79.3075C1257.52 75.8163 1255.26 72.9861 1252.48 72.9861Z" fill="#8B9AD9"/>
<path d="M1144.71 39.6853C1141.93 39.6853 1139.68 42.5155 1139.68 46.0067C1139.68 49.4979 1141.93 52.3281 1144.71 52.3281C1147.5 52.3281 1149.75 49.4979 1149.75 46.0067C1149.75 42.5155 1147.5 39.6853 1144.71 39.6853Z" fill="#8B9AD9"/>
<path d="M976.846 212.373C974.065 212.373 971.81 215.203 971.81 218.694C971.81 222.185 974.065 225.016 976.846 225.016C979.628 225.016 981.883 222.185 981.883 218.694C981.883 215.203 979.628 212.373 976.846 212.373Z" fill="#8B9AD9"/>
<path d="M948.963 45.74C946.182 45.74 943.927 48.5702 943.927 52.0614C943.927 55.5526 946.182 58.3828 948.963 58.3828C951.745 58.3828 954 55.5526 954 52.0614C954 48.5702 951.745 45.74 948.963 45.74Z" fill="#8B9AD9"/>
<path d="M785.159 399.435C782.377 399.435 780.122 402.265 780.122 405.757C780.122 409.248 782.377 412.078 785.159 412.078C787.94 412.078 790.195 409.248 790.195 405.757C790.195 402.265 787.94 399.435 785.159 399.435Z" fill="#8B9AD9"/>
<path d="M787.831 195.787C785.049 195.787 782.794 198.617 782.794 202.108C782.794 205.599 785.049 208.43 787.831 208.43C790.612 208.43 792.867 205.599 792.867 202.108C792.867 198.617 790.612 195.787 787.831 195.787Z" fill="#8B9AD9"/>
<path d="M847.456 42.9353C844.674 42.9353 842.419 45.7655 842.419 49.2567C842.419 52.7479 844.674 55.5781 847.456 55.5781C850.237 55.5781 852.492 52.7479 852.492 49.2567C852.492 45.7655 850.237 42.9353 847.456 42.9353Z" fill="#8B9AD9"/>
<path d="M637.338 648.263C634.557 648.263 632.302 651.094 632.302 654.585C632.302 658.076 634.557 660.906 637.338 660.906C640.12 660.906 642.375 658.076 642.375 654.585C642.375 651.094 640.12 648.263 637.338 648.263Z" fill="#8B9AD9"/>
<path d="M659.487 406.517C656.705 406.517 654.45 409.348 654.45 412.839C654.45 416.33 656.705 419.16 659.487 419.16C662.268 419.16 664.523 416.33 664.523 412.839C664.523 409.348 662.268 406.517 659.487 406.517Z" fill="#8B9AD9"/>
<path d="M696.776 268.318C693.994 268.318 691.739 271.148 691.739 274.64C691.739 278.131 693.994 280.961 696.776 280.961C699.558 280.961 701.812 278.131 701.812 274.64C701.812 271.148 699.558 268.318 696.776 268.318Z" fill="#8B9AD9"/>
<path d="M667.909 5.5134C665.127 5.5134 662.872 8.34359 662.872 11.8348C662.872 15.3261 665.127 18.1562 667.909 18.1562C670.69 18.1562 672.945 15.3261 672.945 11.8348C672.945 8.34359 670.69 5.5134 667.909 5.5134Z" fill="#8B9AD9"/>
<path d="M484.417 629.853C481.635 629.853 479.38 632.683 479.38 636.175C479.38 639.666 481.635 642.496 484.417 642.496C487.198 642.496 489.453 639.666 489.453 636.175C489.453 632.683 487.198 629.853 484.417 629.853Z" fill="#8B9AD9"/>
<path d="M512.354 195.595C509.572 195.595 507.317 198.426 507.317 201.917C507.317 205.408 509.572 208.238 512.354 208.238C515.136 208.238 517.391 205.408 517.391 201.917C517.391 198.426 515.136 195.595 512.354 195.595Z" fill="#8B9AD9"/>
<path d="M479.456 80.9275C476.674 80.9275 474.419 83.7577 474.419 87.2489C474.419 90.7401 476.674 93.5703 479.456 93.5703C482.237 93.5703 484.492 90.7401 484.492 87.2489C484.492 83.7577 482.237 80.9275 479.456 80.9275Z" fill="#8B9AD9"/>
<path d="M358.284 421.978C355.502 421.978 353.247 424.808 353.247 428.3C353.247 431.791 355.502 434.621 358.284 434.621C361.065 434.621 363.32 431.791 363.32 428.3C363.32 424.808 361.065 421.978 358.284 421.978Z" fill="#8B9AD9"/>
<path d="M366.979 204.029C364.197 204.029 361.942 206.859 361.942 210.35C361.942 213.842 364.197 216.672 366.979 216.672C369.761 216.672 372.016 213.842 372.016 210.35C372.016 206.859 369.761 204.029 366.979 204.029Z" fill="#8B9AD9"/>
<path d="M379.784 30.1267C377.002 30.1267 374.747 32.9569 374.747 36.4481C374.747 39.9393 377.002 42.7695 379.784 42.7695C382.565 42.7695 384.82 39.9393 384.82 36.4481C384.82 32.9569 382.565 30.1267 379.784 30.1267Z" fill="#8B9AD9"/>
<path d="M244.237 626.275C241.455 626.275 239.2 629.105 239.2 632.597C239.2 636.088 241.455 638.918 244.237 638.918C247.018 638.918 249.273 636.088 249.273 632.597C249.273 629.105 247.018 626.275 244.237 626.275Z" fill="#8B9AD9"/>
<path d="M243.737 397.349C240.955 397.349 238.7 400.18 238.7 403.671C238.7 407.162 240.955 409.992 243.737 409.992C246.518 409.992 248.773 407.162 248.773 403.671C248.773 400.18 246.518 397.349 243.737 397.349Z" fill="#8B9AD9"/>
<path d="M171.331 245.916C168.549 245.916 166.294 248.746 166.294 252.237C166.294 255.728 168.549 258.559 171.331 258.559C174.112 258.559 176.367 255.728 176.367 252.237C176.367 248.746 174.112 245.916 171.331 245.916Z" fill="#8B9AD9"/>
<path d="M215.588 49.4821C212.807 49.4821 210.552 52.3123 210.552 55.8036C210.552 59.2948 212.807 62.125 215.588 62.125C218.37 62.125 220.625 59.2948 220.625 55.8036C220.625 52.3123 218.37 49.4821 215.588 49.4821Z" fill="#8B9AD9"/>
<g filter="url(#filter0_f_8461_1121)">
<ellipse cx="747.5" cy="707" rx="788.5" ry="55" fill="white"/>
</g>
<g filter="url(#filter1_f_8461_1121)">
<ellipse cx="775.5" cy="-2" rx="845.5" ry="63" fill="white"/>
</g>
</g>
<defs>
<filter id="filter0_f_8461_1121" x="-111.4" y="581.6" width="1717.8" height="250.8" filterUnits="userSpaceOnUse" color-interpolation-filters="sRGB">
<feFlood flood-opacity="0" result="BackgroundImageFix"/>
<feBlend mode="normal" in="SourceGraphic" in2="BackgroundImageFix" result="shape"/>
<feGaussianBlur stdDeviation="35.2" result="effect1_foregroundBlur_8461_1121"/>
</filter>
<filter id="filter1_f_8461_1121" x="-140.4" y="-135.4" width="1831.8" height="266.8" filterUnits="userSpaceOnUse" color-interpolation-filters="sRGB">
<feFlood flood-opacity="0" result="BackgroundImageFix"/>
<feBlend mode="normal" in="SourceGraphic" in2="BackgroundImageFix" result="shape"/>
<feGaussianBlur stdDeviation="35.2" result="effect1_foregroundBlur_8461_1121"/>
</filter>
<radialGradient id="paint0_radial_8461_1121" cx="0" cy="0" r="1" gradientUnits="userSpaceOnUse" gradientTransform="translate(1542.21 61.4163) rotate(180) scale(25.1831 31.6071)">
<stop offset="0.1" stop-color="white"/>
<stop offset="0.2" stop-color="#1735B3"/>
<stop offset="1" stop-color="#1735B3" stop-opacity="0"/>
</radialGradient>
<radialGradient id="paint1_radial_8461_1121" cx="0" cy="0" r="1" gradientUnits="userSpaceOnUse" gradientTransform="translate(523.95 380.674) rotate(180) scale(25.1831 31.6071)">
<stop offset="0.1" stop-color="white"/>
<stop offset="0.2" stop-color="#1735B3"/>
<stop offset="1" stop-color="#1735B3" stop-opacity="0"/>
</radialGradient>
<radialGradient id="paint2_radial_8461_1121" cx="0" cy="0" r="1" gradientUnits="userSpaceOnUse" gradientTransform="translate(396.379 622.862) rotate(180) scale(25.1831 31.6071)">
<stop offset="0.1" stop-color="white"/>
<stop offset="0.2" stop-color="#1735B3"/>
<stop offset="1" stop-color="#1735B3" stop-opacity="0"/>
</radialGradient>
<clipPath id="clip0_8461_1121">
<rect width="1804" height="708" fill="white" transform="matrix(-1 0 0 -1 1804 708)"/>
</clipPath>
</defs>
</svg>
