<svg width="44" height="44" viewBox="0 0 44 44" fill="none" xmlns="http://www.w3.org/2000/svg">
<g filter="url(#filter0_di_8299_1020)">
<rect x="3" width="38" height="38" rx="19" fill="white" shape-rendering="crispEdges"/>
<rect x="3.7451" y="0.745098" width="36.5098" height="36.5098" rx="18.2549" stroke="#BBD3F8" stroke-width="1.4902" shape-rendering="crispEdges"/>
<path d="M13.2549 27C13.2549 27.4115 13.5885 27.7451 14 27.7451L20.7059 27.7451C21.1174 27.7451 21.451 27.4115 21.451 27C21.451 26.5885 21.1174 26.2549 20.7059 26.2549L14.7451 26.2549L14.7451 20.2941C14.7451 19.8826 14.4115 19.549 14 19.549C13.5885 19.549 13.2549 19.8826 13.2549 20.2941L13.2549 27ZM30 11L29.4731 10.4731L13.4731 26.4731L14 27L14.5269 27.5269L30.5269 11.5269L30 11Z" fill="#0060C7"/>
</g>
<defs>
<filter id="filter0_di_8299_1020" x="0.0196078" y="0" width="43.9608" height="43.9608" filterUnits="userSpaceOnUse" color-interpolation-filters="sRGB">
<feFlood flood-opacity="0" result="BackgroundImageFix"/>
<feColorMatrix in="SourceAlpha" type="matrix" values="0 0 0 0 0 0 0 0 0 0 0 0 0 0 0 0 0 0 127 0" result="hardAlpha"/>
<feOffset dy="2.98039"/>
<feGaussianBlur stdDeviation="1.4902"/>
<feComposite in2="hardAlpha" operator="out"/>
<feColorMatrix type="matrix" values="0 0 0 0 0 0 0 0 0 0 0 0 0 0 0 0 0 0 0.25 0"/>
<feBlend mode="normal" in2="BackgroundImageFix" result="effect1_dropShadow_8299_1020"/>
<feBlend mode="normal" in="SourceGraphic" in2="effect1_dropShadow_8299_1020" result="shape"/>
<feColorMatrix in="SourceAlpha" type="matrix" values="0 0 0 0 0 0 0 0 0 0 0 0 0 0 0 0 0 0 127 0" result="hardAlpha"/>
<feOffset dx="1" dy="2.98039"/>
<feGaussianBlur stdDeviation="1.4902"/>
<feComposite in2="hardAlpha" operator="arithmetic" k2="-1" k3="1"/>
<feColorMatrix type="matrix" values="0 0 0 0 0 0 0 0 0 0 0 0 0 0 0 0 0 0 0.25 0"/>
<feBlend mode="normal" in2="shape" result="effect2_innerShadow_8299_1020"/>
</filter>
</defs>
</svg>
