<svg width="35" height="35" viewBox="0 0 35 35" fill="none" xmlns="http://www.w3.org/2000/svg">
<rect width="35" height="35" rx="8" fill="#E9EEFC"/>
<path d="M6.78897 10.392C6.26204 9.90288 6 9.29748 6 8.57717C6 7.85685 6.26345 7.22482 6.78897 6.73433C7.31589 6.24524 7.99417 6 8.8252 6C9.65622 6 10.3079 6.24524 10.8334 6.73433C11.3603 7.22342 11.6224 7.83863 11.6224 8.57717C11.6224 9.3157 11.3589 9.90288 10.8334 10.392C10.3065 10.8811 9.63801 11.1263 8.8252 11.1263C8.01239 11.1263 7.31589 10.8811 6.78897 10.392ZM11.1795 13.1976V28.1925H6.44143V13.1976H11.1795Z" fill="black"/>
<path d="M26.9547 14.6785C27.9876 15.7996 28.5033 17.3384 28.5033 19.2975V27.9273H24.0034V19.9057C24.0034 18.9177 23.747 18.1498 23.2355 17.6032C22.724 17.0567 22.0345 16.782 21.1712 16.782C20.308 16.782 19.6184 17.0553 19.1069 17.6032C18.5954 18.1498 18.339 18.9177 18.339 19.9057V27.9273H13.8125V13.1552H18.339V15.1143C18.7972 14.4613 19.4153 13.9456 20.1916 13.5658C20.968 13.186 21.8411 12.9968 22.8122 12.9968C24.5416 12.9968 25.9233 13.5574 26.9547 14.6771V14.6785Z" fill="black"/>
</svg>
