<svg width="613" height="165" viewBox="0 0 613 165" fill="none" xmlns="http://www.w3.org/2000/svg">
<path d="M180.901 164.588H158.704C156.934 164.588 155.3 163.64 154.42 162.104L94.0642 56.6623C93.4962 55.6701 94.4663 54.5058 95.5447 54.8852L131.963 67.6989C133.072 68.0893 134.006 68.863 134.595 69.8806L185.172 157.178C187.078 160.468 184.704 164.588 180.901 164.588Z" fill="url(#paint0_linear_7916_19051)"/>
<path d="M5.42761 164.589H32.7936L70.6413 98.232C71.6082 96.5368 74.0671 96.5815 74.9718 98.3107L109.648 164.589L138.939 164.589C142.727 164.589 145.103 160.498 143.226 157.207L87.5753 59.6457C86.396 57.5783 83.9093 56.6469 81.6621 57.4308L54.4182 66.9345C53.2979 67.3253 52.3559 68.1065 51.7646 69.1352L1.14829 157.193C-0.743169 160.484 1.63214 164.589 5.42761 164.589Z" fill="url(#paint1_linear_7916_19051)"/>
<path d="M95.3204 1.72243L125.068 53.4576C126.203 55.431 124.288 57.7576 122.133 57.0241L93.2297 47.1845C92.7032 47.0053 92.1316 47.0092 91.6076 47.1955L64.328 56.8949C62.1676 57.663 60.2188 55.327 61.3617 53.3394L91.0414 1.72243C91.9904 0.0720969 94.3715 0.0720974 95.3204 1.72243Z" fill="#32CCF2"/>
<path d="M265.688 155.6C265.218 155.6 264.87 155.54 264.643 155.419C264.431 155.282 264.325 155.093 264.325 154.851V140.558C264.325 139.952 264.605 139.65 265.165 139.65H272.459C272.898 139.65 273.118 140.028 273.118 140.786V141.49C273.118 142.247 272.898 142.626 272.459 142.626H267.847V146.602H272.255C272.694 146.602 272.914 146.981 272.914 147.739V148.443C272.914 149.2 272.694 149.579 272.255 149.579H267.847V154.851C267.847 155.093 267.74 155.282 267.528 155.419C267.316 155.54 266.968 155.6 266.483 155.6H265.688ZM279.575 155.737C278.454 155.737 277.621 155.449 277.075 154.873C276.53 154.283 276.257 153.374 276.257 152.147V144.376C276.257 144.133 276.363 143.952 276.576 143.83C276.803 143.694 277.159 143.626 277.643 143.626H278.28C278.764 143.626 279.113 143.694 279.325 143.83C279.552 143.952 279.666 144.133 279.666 144.376V151.647C279.666 152.056 279.757 152.381 279.938 152.624C280.135 152.851 280.453 152.965 280.893 152.965C281.15 152.965 281.408 152.912 281.665 152.806C281.923 152.684 282.158 152.525 282.37 152.328C282.597 152.132 282.771 151.904 282.892 151.647V144.376C282.892 144.133 282.998 143.952 283.21 143.83C283.438 143.694 283.794 143.626 284.278 143.626H284.915C285.399 143.626 285.748 143.694 285.96 143.83C286.187 143.952 286.301 144.133 286.301 144.376V151.601C286.301 152.268 286.316 152.798 286.346 153.192C286.391 153.586 286.429 153.904 286.46 154.146C286.505 154.373 286.528 154.57 286.528 154.737C286.528 154.919 286.414 155.07 286.187 155.191C285.975 155.297 285.71 155.381 285.392 155.441C285.089 155.487 284.793 155.525 284.506 155.555C284.233 155.57 284.036 155.578 283.915 155.578C283.733 155.578 283.597 155.54 283.506 155.464C283.415 155.373 283.339 155.214 283.279 154.987C283.218 154.76 283.142 154.434 283.051 154.01C282.839 154.298 282.551 154.578 282.188 154.851C281.839 155.108 281.438 155.32 280.984 155.487C280.544 155.653 280.075 155.737 279.575 155.737ZM293.245 155.737C292.518 155.737 291.905 155.608 291.405 155.35C290.92 155.093 290.557 154.714 290.314 154.214C290.072 153.699 289.951 153.071 289.951 152.328V139.172C289.951 138.93 290.057 138.748 290.269 138.627C290.496 138.491 290.852 138.423 291.337 138.423H291.973C292.458 138.423 292.806 138.491 293.018 138.627C293.245 138.748 293.359 138.93 293.359 139.172V152.101C293.359 152.434 293.412 152.677 293.518 152.828C293.639 152.965 293.844 153.033 294.132 153.033C294.389 153.033 294.586 153.003 294.722 152.942C294.874 152.866 295.003 152.828 295.109 152.828C295.199 152.828 295.283 152.904 295.359 153.056C295.434 153.207 295.495 153.396 295.54 153.624C295.601 153.836 295.646 154.048 295.677 154.26C295.707 154.457 295.722 154.608 295.722 154.714C295.722 154.896 295.593 155.07 295.336 155.237C295.078 155.388 294.76 155.51 294.381 155.6C294.003 155.691 293.624 155.737 293.245 155.737ZM300.9 155.737C300.173 155.737 299.559 155.608 299.059 155.35C298.575 155.093 298.211 154.714 297.969 154.214C297.726 153.699 297.605 153.071 297.605 152.328V139.172C297.605 138.93 297.711 138.748 297.923 138.627C298.151 138.491 298.507 138.423 298.991 138.423H299.627C300.112 138.423 300.461 138.491 300.673 138.627C300.9 138.748 301.014 138.93 301.014 139.172V152.101C301.014 152.434 301.067 152.677 301.173 152.828C301.294 152.965 301.498 153.033 301.786 153.033C302.044 153.033 302.241 153.003 302.377 152.942C302.528 152.866 302.657 152.828 302.763 152.828C302.854 152.828 302.937 152.904 303.013 153.056C303.089 153.207 303.149 153.396 303.195 153.624C303.255 153.836 303.301 154.048 303.331 154.26C303.361 154.457 303.377 154.608 303.377 154.714C303.377 154.896 303.248 155.07 302.99 155.237C302.733 155.388 302.415 155.51 302.036 155.6C301.657 155.691 301.279 155.737 300.9 155.737ZM305.305 150.738C304.851 150.738 304.623 150.359 304.623 149.602V149.443C304.623 148.685 304.851 148.307 305.305 148.307H309.622C310.077 148.307 310.304 148.685 310.304 149.443V149.602C310.304 150.359 310.077 150.738 309.622 150.738H305.305ZM317.809 155.737C317.052 155.737 316.37 155.676 315.764 155.555C315.174 155.449 314.666 155.305 314.242 155.123C313.818 154.941 313.469 154.767 313.197 154.601C312.985 154.464 312.811 154.336 312.674 154.214C312.538 154.078 312.47 153.919 312.47 153.737C312.47 153.555 312.492 153.351 312.538 153.124C312.598 152.881 312.674 152.647 312.765 152.419C312.871 152.192 312.977 152.003 313.083 151.851C313.204 151.7 313.326 151.624 313.447 151.624C313.583 151.624 313.848 151.723 314.242 151.919C314.651 152.101 315.128 152.291 315.674 152.488C316.234 152.669 316.817 152.76 317.423 152.76C317.862 152.76 318.218 152.707 318.491 152.601C318.779 152.495 318.991 152.328 319.127 152.101C319.279 151.874 319.355 151.586 319.355 151.238C319.355 150.874 319.248 150.571 319.036 150.329C318.839 150.087 318.574 149.874 318.241 149.693C317.908 149.496 317.529 149.322 317.105 149.17C316.696 149.003 316.279 148.822 315.855 148.625C315.461 148.443 315.083 148.231 314.719 147.989C314.356 147.746 314.022 147.451 313.719 147.102C313.432 146.754 313.204 146.33 313.038 145.83C312.871 145.33 312.788 144.739 312.788 144.058C312.788 143.24 312.939 142.543 313.242 141.967C313.56 141.376 313.977 140.899 314.492 140.536C315.007 140.172 315.583 139.907 316.219 139.74C316.855 139.559 317.506 139.468 318.173 139.468C318.658 139.468 319.127 139.506 319.582 139.581C320.051 139.657 320.475 139.763 320.854 139.899C321.233 140.021 321.536 140.165 321.763 140.331C321.93 140.437 322.066 140.551 322.172 140.672C322.278 140.793 322.331 140.914 322.331 141.036C322.331 141.187 322.301 141.384 322.24 141.626C322.195 141.854 322.127 142.081 322.036 142.308C321.96 142.535 321.862 142.725 321.74 142.876C321.619 143.028 321.49 143.103 321.354 143.103C321.172 143.103 320.93 143.05 320.627 142.944C320.339 142.823 319.991 142.709 319.582 142.603C319.188 142.482 318.741 142.422 318.241 142.422C317.817 142.422 317.461 142.475 317.173 142.581C316.885 142.687 316.666 142.846 316.514 143.058C316.378 143.255 316.31 143.512 316.31 143.83C316.31 144.209 316.423 144.527 316.651 144.785C316.878 145.027 317.181 145.239 317.559 145.421C317.953 145.588 318.37 145.769 318.809 145.966C319.279 146.163 319.756 146.383 320.241 146.625C320.725 146.868 321.172 147.171 321.581 147.534C321.99 147.882 322.316 148.329 322.558 148.875C322.816 149.405 322.945 150.071 322.945 150.874C322.945 151.768 322.793 152.525 322.49 153.146C322.202 153.768 321.808 154.267 321.309 154.646C320.809 155.025 320.256 155.305 319.65 155.487C319.044 155.653 318.43 155.737 317.809 155.737ZM329.375 155.737C328.648 155.737 328.034 155.608 327.534 155.35C327.05 155.093 326.686 154.714 326.444 154.214C326.201 153.699 326.08 153.071 326.08 152.328V146.33H325.353C324.899 146.33 324.671 145.951 324.671 145.194V144.807C324.671 144.05 324.899 143.671 325.353 143.671H326.08L326.444 141.513C326.489 141.27 326.603 141.089 326.785 140.967C326.982 140.846 327.254 140.786 327.603 140.786H328.352C328.746 140.786 329.034 140.846 329.216 140.967C329.398 141.089 329.489 141.27 329.489 141.513V143.671H330.875C331.329 143.671 331.556 144.05 331.556 144.807V145.194C331.556 145.951 331.329 146.33 330.875 146.33H329.489V152.101C329.489 152.434 329.542 152.677 329.648 152.828C329.769 152.965 329.973 153.033 330.261 153.033C330.519 153.033 330.716 153.003 330.852 152.942C331.003 152.866 331.132 152.828 331.238 152.828C331.329 152.828 331.412 152.904 331.488 153.056C331.564 153.207 331.624 153.396 331.67 153.624C331.73 153.836 331.776 154.048 331.806 154.26C331.837 154.457 331.852 154.608 331.852 154.714C331.852 154.896 331.723 155.07 331.465 155.237C331.208 155.388 330.89 155.51 330.511 155.6C330.132 155.691 329.754 155.737 329.375 155.737ZM337.278 155.737C336.051 155.737 335.18 155.419 334.665 154.782C334.165 154.131 333.915 153.343 333.915 152.419C333.915 151.95 333.983 151.473 334.119 150.988C334.271 150.488 334.566 150.026 335.005 149.602C335.445 149.178 336.096 148.837 336.96 148.579C337.838 148.322 338.997 148.193 340.436 148.193V147.511C340.436 147.193 340.375 146.936 340.254 146.739C340.133 146.542 339.944 146.398 339.686 146.307C339.429 146.201 339.088 146.148 338.664 146.148C338.118 146.148 337.626 146.209 337.187 146.33C336.763 146.436 336.399 146.549 336.096 146.671C335.808 146.792 335.589 146.852 335.437 146.852C335.331 146.852 335.225 146.784 335.119 146.648C335.013 146.496 334.915 146.322 334.824 146.125C334.748 145.913 334.687 145.709 334.642 145.512C334.596 145.315 334.574 145.163 334.574 145.057C334.574 144.845 334.702 144.648 334.96 144.467C335.217 144.285 335.558 144.118 335.982 143.967C336.407 143.815 336.876 143.702 337.391 143.626C337.906 143.535 338.414 143.49 338.914 143.49C339.807 143.49 340.565 143.588 341.186 143.785C341.807 143.967 342.307 144.232 342.685 144.58C343.079 144.913 343.36 145.315 343.526 145.784C343.708 146.239 343.799 146.739 343.799 147.284V151.556C343.799 152.344 343.822 152.95 343.867 153.374C343.912 153.783 343.958 154.093 344.003 154.305C344.049 154.502 344.072 154.684 344.072 154.851C344.072 154.987 343.966 155.101 343.753 155.191C343.557 155.282 343.307 155.358 343.004 155.419C342.716 155.479 342.428 155.525 342.14 155.555C341.867 155.57 341.663 155.578 341.527 155.578C341.284 155.578 341.103 155.494 340.981 155.328C340.875 155.146 340.8 154.934 340.754 154.692C340.709 154.434 340.663 154.207 340.618 154.01C340.572 154.101 340.413 154.29 340.141 154.578C339.883 154.851 339.512 155.116 339.027 155.373C338.558 155.616 337.974 155.737 337.278 155.737ZM338.391 153.078C338.679 153.078 338.951 153.018 339.209 152.897C339.482 152.775 339.724 152.609 339.936 152.397C340.148 152.169 340.315 151.919 340.436 151.647V150.397C339.891 150.397 339.421 150.435 339.027 150.511C338.633 150.586 338.3 150.692 338.027 150.829C337.77 150.965 337.573 151.139 337.437 151.351C337.316 151.563 337.255 151.806 337.255 152.079C337.255 152.366 337.346 152.609 337.528 152.806C337.725 152.987 338.012 153.078 338.391 153.078ZM352.818 155.737C350.818 155.737 349.379 155.237 348.501 154.237C347.637 153.237 347.205 151.723 347.205 149.693C347.205 147.663 347.667 146.125 348.591 145.08C349.531 144.02 351.015 143.49 353.045 143.49C353.454 143.49 353.878 143.535 354.317 143.626C354.757 143.702 355.166 143.815 355.544 143.967C355.923 144.118 356.226 144.285 356.453 144.467C356.696 144.648 356.817 144.845 356.817 145.057C356.817 145.194 356.764 145.406 356.658 145.694C356.552 145.966 356.423 146.224 356.272 146.466C356.12 146.693 355.969 146.807 355.817 146.807C355.666 146.807 355.469 146.754 355.226 146.648C354.984 146.527 354.681 146.413 354.317 146.307C353.954 146.201 353.515 146.148 353 146.148C352.166 146.148 351.568 146.421 351.205 146.966C350.841 147.511 350.659 148.39 350.659 149.602C350.659 150.829 350.841 151.715 351.205 152.26C351.568 152.806 352.166 153.078 353 153.078C353.53 153.078 353.992 153.018 354.386 152.897C354.779 152.76 355.113 152.631 355.385 152.51C355.658 152.374 355.87 152.306 356.022 152.306C356.173 152.306 356.309 152.419 356.431 152.647C356.567 152.874 356.673 153.131 356.749 153.419C356.84 153.692 356.885 153.904 356.885 154.055C356.885 154.283 356.749 154.495 356.476 154.692C356.219 154.888 355.878 155.07 355.454 155.237C355.045 155.388 354.605 155.51 354.136 155.6C353.666 155.691 353.227 155.737 352.818 155.737ZM360.892 155.6C360.407 155.6 360.051 155.54 359.824 155.419C359.612 155.282 359.506 155.093 359.506 154.851V139.172C359.506 138.93 359.612 138.748 359.824 138.627C360.051 138.491 360.407 138.423 360.892 138.423H361.528C362.013 138.423 362.361 138.491 362.574 138.627C362.801 138.748 362.914 138.93 362.914 139.172V148.148H363.028L365.664 144.148C365.755 143.997 365.861 143.891 365.982 143.83C366.103 143.755 366.262 143.702 366.459 143.671C366.671 143.641 366.959 143.626 367.322 143.626H368.05C368.459 143.626 368.762 143.649 368.958 143.694C369.171 143.724 369.277 143.823 369.277 143.989C369.277 144.065 369.246 144.164 369.186 144.285C369.125 144.406 369.034 144.55 368.913 144.717L365.664 149.352V148.329L369.436 154.623C369.511 154.745 369.572 154.858 369.617 154.964C369.663 155.055 369.686 155.138 369.686 155.214C369.686 155.381 369.572 155.487 369.345 155.532C369.133 155.578 368.83 155.6 368.436 155.6H367.709C367.148 155.6 366.739 155.555 366.482 155.464C366.224 155.358 366.012 155.161 365.846 154.873L363.028 149.965H362.914V154.851C362.914 155.093 362.801 155.282 362.574 155.419C362.361 155.54 362.013 155.6 361.528 155.6H360.892ZM385.812 155.737C383.267 155.737 381.381 155.078 380.154 153.76C378.942 152.427 378.336 150.359 378.336 147.557C378.336 144.845 378.973 142.823 380.245 141.49C381.517 140.142 383.411 139.468 385.925 139.468C386.289 139.468 386.66 139.49 387.039 139.536C387.433 139.566 387.819 139.619 388.198 139.695C388.576 139.771 388.925 139.862 389.243 139.968C389.576 140.074 389.856 140.195 390.084 140.331C390.265 140.437 390.409 140.551 390.515 140.672C390.621 140.793 390.674 140.922 390.674 141.058C390.674 141.21 390.629 141.407 390.538 141.649C390.462 141.876 390.356 142.104 390.22 142.331C390.099 142.558 389.962 142.747 389.811 142.899C389.659 143.05 389.516 143.126 389.379 143.126C389.197 143.126 389.001 143.096 388.788 143.035C388.576 142.959 388.334 142.884 388.061 142.808C387.789 142.717 387.471 142.641 387.107 142.581C386.759 142.505 386.342 142.467 385.857 142.467C384.524 142.467 383.532 142.891 382.881 143.739C382.245 144.588 381.926 145.868 381.926 147.58C381.926 148.867 382.07 149.89 382.358 150.647C382.646 151.404 383.078 151.95 383.653 152.283C384.229 152.601 384.948 152.76 385.812 152.76C386.221 152.76 386.622 152.73 387.016 152.669C387.41 152.609 387.774 152.525 388.107 152.419C388.455 152.313 388.728 152.2 388.925 152.079L387.811 153.76V149.17H385.471C385.017 149.17 384.789 148.791 384.789 148.034V147.375C384.789 146.618 385.017 146.239 385.471 146.239H390.334C390.894 146.239 391.174 146.542 391.174 147.148V153.919C391.174 154.116 391.114 154.298 390.993 154.464C390.886 154.616 390.712 154.752 390.47 154.873C390.167 155.04 389.758 155.191 389.243 155.328C388.728 155.449 388.167 155.547 387.561 155.623C386.971 155.699 386.387 155.737 385.812 155.737ZM400.374 155.737C398.314 155.737 396.807 155.191 395.852 154.101C394.913 152.995 394.443 151.526 394.443 149.693C394.443 148.193 394.678 146.989 395.148 146.08C395.617 145.171 396.269 144.512 397.102 144.103C397.935 143.694 398.889 143.49 399.965 143.49C401.162 143.49 402.116 143.762 402.828 144.308C403.54 144.838 404.055 145.542 404.373 146.421C404.706 147.284 404.873 148.223 404.873 149.238C404.873 149.435 404.797 149.647 404.646 149.874C404.509 150.102 404.343 150.299 404.146 150.465C403.949 150.617 403.767 150.692 403.6 150.692H397.897C397.927 151.601 398.185 152.23 398.67 152.578C399.17 152.912 399.791 153.078 400.533 153.078C401.048 153.078 401.502 153.01 401.896 152.874C402.305 152.722 402.646 152.578 402.919 152.442C403.207 152.306 403.426 152.238 403.578 152.238C403.729 152.238 403.881 152.351 404.032 152.578C404.184 152.806 404.312 153.063 404.418 153.351C404.524 153.624 404.577 153.836 404.577 153.987C404.577 154.214 404.426 154.434 404.123 154.646C403.835 154.858 403.464 155.048 403.01 155.214C402.555 155.381 402.093 155.51 401.624 155.6C401.154 155.691 400.737 155.737 400.374 155.737ZM397.852 148.443H401.669C401.669 147.686 401.518 147.118 401.215 146.739C400.912 146.345 400.45 146.148 399.829 146.148C399.556 146.148 399.268 146.201 398.965 146.307C398.662 146.413 398.405 146.633 398.193 146.966C397.981 147.284 397.867 147.776 397.852 148.443ZM409.351 155.6C408.866 155.6 408.51 155.54 408.283 155.419C408.071 155.282 407.965 155.093 407.965 154.851V147.625C407.965 146.958 407.942 146.428 407.896 146.034C407.866 145.625 407.828 145.307 407.783 145.08C407.752 144.853 407.737 144.656 407.737 144.489C407.737 144.323 407.843 144.186 408.055 144.08C408.283 143.974 408.548 143.899 408.851 143.853C409.169 143.793 409.464 143.755 409.737 143.739C410.025 143.709 410.229 143.694 410.35 143.694C410.532 143.694 410.668 143.739 410.759 143.83C410.85 143.906 410.926 144.05 410.987 144.262C411.062 144.474 411.138 144.792 411.214 145.216C411.441 144.929 411.721 144.656 412.054 144.398C412.403 144.126 412.789 143.906 413.213 143.739C413.653 143.573 414.115 143.49 414.599 143.49C415.372 143.49 416.008 143.626 416.508 143.899C417.023 144.156 417.402 144.557 417.644 145.103C417.886 145.633 418.008 146.322 418.008 147.171V154.851C418.008 155.093 417.894 155.282 417.667 155.419C417.455 155.54 417.106 155.6 416.622 155.6H415.985C415.501 155.6 415.145 155.54 414.917 155.419C414.705 155.282 414.599 155.093 414.599 154.851V147.67C414.599 147.231 414.501 146.89 414.304 146.648C414.107 146.39 413.766 146.262 413.281 146.262C413.039 146.262 412.789 146.322 412.532 146.443C412.289 146.549 412.062 146.701 411.85 146.898C411.653 147.095 411.494 147.322 411.373 147.58V154.851C411.373 155.093 411.259 155.282 411.032 155.419C410.82 155.54 410.472 155.6 409.987 155.6H409.351ZM421.59 155.6C421.12 155.6 420.772 155.555 420.544 155.464C420.317 155.373 420.204 155.252 420.204 155.101C420.204 155.04 420.211 154.979 420.226 154.919C420.257 154.843 420.279 154.767 420.294 154.692L425.293 140.081C425.354 139.915 425.49 139.793 425.702 139.718C425.914 139.642 426.21 139.604 426.588 139.604H427.77C428.164 139.604 428.459 139.642 428.656 139.718C428.868 139.793 429.005 139.915 429.065 140.081L434.064 154.692C434.094 154.767 434.109 154.843 434.109 154.919C434.125 154.979 434.132 155.04 434.132 155.101C434.132 155.252 434.041 155.373 433.86 155.464C433.678 155.555 433.39 155.6 432.996 155.6H431.996C431.663 155.6 431.383 155.57 431.156 155.51C430.928 155.434 430.784 155.305 430.724 155.123L427.543 145.307C427.467 145.065 427.399 144.823 427.338 144.58C427.293 144.338 427.247 144.095 427.202 143.853H427.111C427.066 144.095 427.013 144.338 426.952 144.58C426.907 144.823 426.846 145.065 426.77 145.307L423.544 155.123C423.483 155.29 423.362 155.411 423.18 155.487C422.998 155.563 422.771 155.6 422.498 155.6H421.59ZM423.294 152.215V149.465H431.065V152.215H423.294ZM437.888 155.6C437.418 155.6 437.07 155.54 436.843 155.419C436.63 155.282 436.524 155.093 436.524 154.851V140.354C436.524 140.112 436.63 139.93 436.843 139.809C437.07 139.672 437.418 139.604 437.888 139.604H438.683C439.168 139.604 439.516 139.672 439.728 139.809C439.94 139.93 440.046 140.112 440.046 140.354V154.851C440.046 155.093 439.94 155.282 439.728 155.419C439.516 155.54 439.168 155.6 438.683 155.6H437.888ZM457.257 155.737C454.712 155.737 452.826 155.078 451.599 153.76C450.387 152.427 449.781 150.359 449.781 147.557C449.781 144.845 450.418 142.823 451.69 141.49C452.962 140.142 454.856 139.468 457.371 139.468C457.855 139.468 458.355 139.506 458.87 139.581C459.4 139.642 459.9 139.74 460.37 139.877C460.839 139.998 461.226 140.149 461.529 140.331C461.71 140.437 461.854 140.551 461.96 140.672C462.066 140.793 462.119 140.922 462.119 141.058C462.119 141.21 462.082 141.407 462.006 141.649C461.945 141.876 461.862 142.104 461.756 142.331C461.65 142.558 461.529 142.747 461.392 142.899C461.256 143.05 461.12 143.126 460.983 143.126C460.802 143.126 460.544 143.073 460.211 142.967C459.878 142.846 459.469 142.732 458.984 142.626C458.514 142.52 457.954 142.467 457.302 142.467C456.409 142.467 455.666 142.656 455.076 143.035C454.5 143.414 454.068 143.982 453.78 144.739C453.508 145.497 453.371 146.443 453.371 147.58C453.371 148.716 453.515 149.67 453.803 150.443C454.091 151.2 454.523 151.776 455.098 152.169C455.674 152.563 456.393 152.76 457.257 152.76C457.802 152.76 458.295 152.715 458.734 152.624C459.173 152.533 459.559 152.427 459.893 152.306C460.226 152.185 460.506 152.079 460.733 151.988C460.961 151.897 461.127 151.851 461.233 151.851C461.415 151.851 461.574 151.935 461.71 152.101C461.847 152.268 461.96 152.465 462.051 152.692C462.142 152.919 462.21 153.146 462.256 153.374C462.301 153.586 462.324 153.737 462.324 153.828C462.324 154.086 462.263 154.275 462.142 154.396C462.021 154.517 461.786 154.676 461.438 154.873C461.074 155.07 460.642 155.237 460.143 155.373C459.658 155.494 459.158 155.585 458.643 155.646C458.143 155.706 457.681 155.737 457.257 155.737ZM470.212 155.737C468.409 155.737 467.038 155.207 466.099 154.146C465.16 153.086 464.69 151.571 464.69 149.602C464.69 147.617 465.16 146.103 466.099 145.057C467.038 144.012 468.409 143.49 470.212 143.49C472.014 143.49 473.378 144.012 474.302 145.057C475.241 146.103 475.71 147.617 475.71 149.602C475.71 151.571 475.241 153.086 474.302 154.146C473.378 155.207 472.014 155.737 470.212 155.737ZM470.212 153.078C470.924 153.078 471.439 152.783 471.757 152.192C472.09 151.601 472.257 150.738 472.257 149.602C472.257 148.466 472.09 147.61 471.757 147.034C471.439 146.443 470.924 146.148 470.212 146.148C469.5 146.148 468.977 146.443 468.644 147.034C468.311 147.61 468.144 148.466 468.144 149.602C468.144 150.738 468.311 151.601 468.644 152.192C468.977 152.783 469.5 153.078 470.212 153.078ZM480.285 155.6C479.8 155.6 479.445 155.54 479.217 155.419C479.005 155.282 478.899 155.093 478.899 154.851V147.625C478.899 146.958 478.876 146.428 478.831 146.034C478.801 145.625 478.763 145.307 478.717 145.08C478.687 144.853 478.672 144.656 478.672 144.489C478.672 144.323 478.778 144.186 478.99 144.08C479.217 143.974 479.482 143.899 479.785 143.853C480.103 143.793 480.399 143.755 480.672 143.739C480.959 143.709 481.164 143.694 481.285 143.694C481.467 143.694 481.603 143.739 481.694 143.83C481.785 143.906 481.861 144.05 481.921 144.262C481.997 144.474 482.073 144.792 482.148 145.216C482.361 144.929 482.633 144.656 482.966 144.398C483.315 144.126 483.701 143.906 484.125 143.739C484.565 143.573 485.027 143.49 485.511 143.49C486.072 143.49 486.564 143.565 486.988 143.717C487.428 143.853 487.784 144.065 488.056 144.353C488.344 144.626 488.549 144.974 488.67 145.398C488.867 145.08 489.132 144.777 489.465 144.489C489.813 144.202 490.215 143.967 490.669 143.785C491.124 143.588 491.608 143.49 492.123 143.49C492.911 143.49 493.555 143.626 494.055 143.899C494.57 144.156 494.949 144.557 495.191 145.103C495.448 145.633 495.577 146.322 495.577 147.171V154.851C495.577 155.093 495.464 155.282 495.236 155.419C495.024 155.54 494.676 155.6 494.191 155.6H493.555C493.07 155.6 492.714 155.54 492.487 155.419C492.275 155.282 492.169 155.093 492.169 154.851V147.67C492.169 147.231 492.063 146.89 491.851 146.648C491.654 146.39 491.305 146.262 490.806 146.262C490.624 146.262 490.434 146.3 490.238 146.375C490.056 146.436 489.874 146.534 489.692 146.671C489.51 146.807 489.329 146.981 489.147 147.193C488.98 147.39 488.829 147.625 488.692 147.898L488.715 146.057C488.791 146.254 488.844 146.443 488.874 146.625C488.92 146.807 488.942 146.996 488.942 147.193V154.851C488.942 155.093 488.829 155.282 488.602 155.419C488.389 155.54 488.041 155.6 487.556 155.6H486.92C486.435 155.6 486.079 155.54 485.852 155.419C485.64 155.282 485.534 155.093 485.534 154.851V147.67C485.534 147.231 485.428 146.89 485.216 146.648C485.019 146.39 484.671 146.262 484.171 146.262C483.928 146.262 483.686 146.322 483.444 146.443C483.201 146.549 482.982 146.701 482.785 146.898C482.588 147.095 482.429 147.322 482.307 147.58V154.851C482.307 155.093 482.194 155.282 481.967 155.419C481.755 155.54 481.406 155.6 480.921 155.6H480.285ZM500.455 160.236C499.97 160.236 499.614 160.168 499.387 160.031C499.175 159.91 499.069 159.728 499.069 159.486V147.625C499.069 146.958 499.046 146.428 499 146.034C498.97 145.625 498.932 145.307 498.887 145.08C498.857 144.853 498.841 144.656 498.841 144.489C498.841 144.323 498.947 144.186 499.159 144.08C499.387 143.974 499.652 143.899 499.955 143.853C500.273 143.793 500.568 143.755 500.841 143.739C501.129 143.709 501.333 143.694 501.454 143.694C501.636 143.694 501.773 143.739 501.863 143.83C501.954 143.906 502.03 144.05 502.091 144.262C502.166 144.474 502.242 144.792 502.318 145.216C502.5 144.883 502.742 144.588 503.045 144.33C503.363 144.073 503.727 143.868 504.136 143.717C504.545 143.565 504.984 143.49 505.453 143.49C506.302 143.49 507.052 143.724 507.703 144.194C508.354 144.664 508.869 145.36 509.248 146.284C509.627 147.193 509.816 148.307 509.816 149.625C509.816 150.852 509.627 151.927 509.248 152.851C508.869 153.76 508.309 154.472 507.567 154.987C506.84 155.487 505.953 155.737 504.908 155.737C504.529 155.737 504.189 155.699 503.886 155.623C503.583 155.563 503.31 155.479 503.068 155.373C502.84 155.252 502.644 155.138 502.477 155.032V159.486C502.477 159.728 502.363 159.91 502.136 160.031C501.924 160.168 501.576 160.236 501.091 160.236H500.455ZM504.181 153.078C504.923 153.078 505.469 152.79 505.817 152.215C506.181 151.624 506.362 150.761 506.362 149.625C506.362 148.519 506.203 147.678 505.885 147.102C505.582 146.527 505.105 146.239 504.454 146.239C503.999 146.239 503.605 146.375 503.272 146.648C502.954 146.921 502.689 147.231 502.477 147.58V152.647C502.674 152.753 502.909 152.851 503.181 152.942C503.469 153.033 503.802 153.078 504.181 153.078ZM516.002 155.737C514.775 155.737 513.904 155.419 513.389 154.782C512.889 154.131 512.639 153.343 512.639 152.419C512.639 151.95 512.707 151.473 512.844 150.988C512.995 150.488 513.291 150.026 513.73 149.602C514.169 149.178 514.821 148.837 515.684 148.579C516.563 148.322 517.721 148.193 519.16 148.193V147.511C519.16 147.193 519.1 146.936 518.979 146.739C518.857 146.542 518.668 146.398 518.411 146.307C518.153 146.201 517.812 146.148 517.388 146.148C516.843 146.148 516.35 146.209 515.911 146.33C515.487 146.436 515.123 146.549 514.821 146.671C514.533 146.792 514.313 146.852 514.162 146.852C514.056 146.852 513.949 146.784 513.843 146.648C513.737 146.496 513.639 146.322 513.548 146.125C513.472 145.913 513.412 145.709 513.366 145.512C513.321 145.315 513.298 145.163 513.298 145.057C513.298 144.845 513.427 144.648 513.684 144.467C513.942 144.285 514.283 144.118 514.707 143.967C515.131 143.815 515.601 143.702 516.116 143.626C516.631 143.535 517.138 143.49 517.638 143.49C518.532 143.49 519.289 143.588 519.91 143.785C520.531 143.967 521.031 144.232 521.41 144.58C521.804 144.913 522.084 145.315 522.251 145.784C522.432 146.239 522.523 146.739 522.523 147.284V151.556C522.523 152.344 522.546 152.95 522.591 153.374C522.637 153.783 522.682 154.093 522.728 154.305C522.773 154.502 522.796 154.684 522.796 154.851C522.796 154.987 522.69 155.101 522.478 155.191C522.281 155.282 522.031 155.358 521.728 155.419C521.44 155.479 521.152 155.525 520.865 155.555C520.592 155.57 520.387 155.578 520.251 155.578C520.009 155.578 519.827 155.494 519.706 155.328C519.6 155.146 519.524 154.934 519.479 154.692C519.433 154.434 519.388 154.207 519.342 154.01C519.297 154.101 519.138 154.29 518.865 154.578C518.608 154.851 518.236 155.116 517.752 155.373C517.282 155.616 516.699 155.737 516.002 155.737ZM517.115 153.078C517.403 153.078 517.676 153.018 517.933 152.897C518.206 152.775 518.448 152.609 518.661 152.397C518.873 152.169 519.039 151.919 519.16 151.647V150.397C518.615 150.397 518.146 150.435 517.752 150.511C517.358 150.586 517.025 150.692 516.752 150.829C516.494 150.965 516.297 151.139 516.161 151.351C516.04 151.563 515.979 151.806 515.979 152.079C515.979 152.366 516.07 152.609 516.252 152.806C516.449 152.987 516.737 153.078 517.115 153.078ZM527.679 155.6C527.195 155.6 526.839 155.54 526.612 155.419C526.399 155.282 526.293 155.093 526.293 154.851V147.625C526.293 146.958 526.271 146.428 526.225 146.034C526.195 145.625 526.157 145.307 526.112 145.08C526.081 144.853 526.066 144.656 526.066 144.489C526.066 144.323 526.172 144.186 526.384 144.08C526.612 143.974 526.877 143.899 527.18 143.853C527.498 143.793 527.793 143.755 528.066 143.739C528.354 143.709 528.558 143.694 528.679 143.694C528.861 143.694 528.997 143.739 529.088 143.83C529.179 143.906 529.255 144.05 529.315 144.262C529.391 144.474 529.467 144.792 529.543 145.216C529.77 144.929 530.05 144.656 530.383 144.398C530.732 144.126 531.118 143.906 531.542 143.739C531.982 143.573 532.444 143.49 532.928 143.49C533.701 143.49 534.337 143.626 534.837 143.899C535.352 144.156 535.731 144.557 535.973 145.103C536.215 145.633 536.337 146.322 536.337 147.171V154.851C536.337 155.093 536.223 155.282 535.996 155.419C535.784 155.54 535.435 155.6 534.951 155.6H534.314C533.83 155.6 533.474 155.54 533.246 155.419C533.034 155.282 532.928 155.093 532.928 154.851V147.67C532.928 147.231 532.83 146.89 532.633 146.648C532.436 146.39 532.095 146.262 531.61 146.262C531.368 146.262 531.118 146.322 530.861 146.443C530.618 146.549 530.391 146.701 530.179 146.898C529.982 147.095 529.823 147.322 529.702 147.58V154.851C529.702 155.093 529.588 155.282 529.361 155.419C529.149 155.54 528.8 155.6 528.316 155.6H527.679ZM542.441 160.236C541.971 160.236 541.623 160.19 541.395 160.099C541.183 160.024 541.077 159.91 541.077 159.759C541.077 159.698 541.085 159.63 541.1 159.554C541.115 159.493 541.138 159.425 541.168 159.35L543.009 154.328L543.054 156.827L538.805 144.535C538.79 144.459 538.767 144.391 538.737 144.33C538.722 144.255 538.714 144.186 538.714 144.126C538.714 143.959 538.828 143.838 539.055 143.762C539.282 143.671 539.631 143.626 540.1 143.626H540.85C541.183 143.626 541.464 143.664 541.691 143.739C541.918 143.8 542.062 143.921 542.123 144.103L544.122 151.283H544.213L546.167 144.103C546.228 143.921 546.372 143.8 546.599 143.739C546.826 143.664 547.106 143.626 547.44 143.626H548.008C548.492 143.626 548.841 143.671 549.053 143.762C549.265 143.838 549.371 143.959 549.371 144.126C549.371 144.186 549.363 144.255 549.348 144.33C549.348 144.391 549.333 144.459 549.303 144.535L544.099 159.759C544.039 159.94 543.895 160.062 543.668 160.122C543.44 160.198 543.16 160.236 542.827 160.236H542.441Z" fill="black"/>
<path d="M285.821 127.35H264.235V126.823V57.6822H245.805C242.859 57.6822 241.387 55.3817 241.387 50.7805V45.6042C241.387 41.0852 242.859 38.8257 245.805 38.8257H304.251C307.197 38.8257 308.669 41.0852 308.669 45.6042V50.7805C308.669 55.3817 307.197 57.6822 304.251 57.6822H285.821V126.823V127.35Z" fill="black"/>
<path d="M334.459 127.35C331.429 127.35 313.504 127.35 313.504 127.35V127.085V43.2779C313.504 41.7168 314.177 40.5665 315.523 39.827C316.954 39.0054 319.184 38.5946 322.214 38.5946H325.622C328.652 38.5946 330.84 39.0054 332.186 39.827C333.617 40.5665 334.332 41.7168 334.332 43.2779V74.7055C335.763 72.98 337.446 71.5011 339.382 70.2686C341.401 68.954 343.589 67.927 345.946 67.1875C348.386 66.448 350.911 66.0783 353.52 66.0783C357.559 66.0783 360.926 66.7767 363.619 68.1735C366.312 69.5702 368.331 71.6654 369.678 74.459C371.108 77.1704 371.824 80.5391 371.824 84.5651V127.085V127.35H350.869V127.085V89.1252C350.869 87.0711 350.364 85.51 349.354 84.4418C348.428 83.3737 346.829 82.8397 344.557 82.8397C343.379 82.8397 342.159 83.0862 340.897 83.5791C339.634 83.99 338.456 84.6062 337.362 85.4278C336.268 86.1673 335.3 87.0711 334.459 88.1392V127.085V127.35Z" fill="black"/>
<path d="M384.88 127.35V70.7616C384.88 69.447 385.553 68.461 386.9 67.8037C388.331 67.1464 390.561 66.8178 393.59 66.8178H397.125C400.154 66.8178 402.342 67.1464 403.689 67.8037C405.12 68.461 405.835 69.447 405.835 70.7616V127.35H384.88ZM395.358 60.7787C391.571 60.7787 388.835 60.409 387.152 59.6695C385.469 58.8479 384.628 57.6976 384.628 56.2187V47.838C384.628 46.359 385.469 45.2498 387.152 44.5104C388.835 43.6887 391.571 43.2779 395.358 43.2779C399.145 43.2779 401.88 43.6887 403.563 44.5104C405.246 45.2498 406.087 46.359 406.087 47.838V56.2187C406.087 57.6976 405.246 58.8479 403.563 59.6695C401.88 60.409 399.145 60.7787 395.358 60.7787Z" fill="black"/>
<path d="M418.288 127.35V127.085V88.509C418.288 84.6473 418.161 81.6894 417.909 79.6353C417.741 77.5812 417.53 76.0201 417.278 74.952C417.11 73.8838 417.025 72.8979 417.025 71.9941C417.025 71.0081 417.572 70.1865 418.666 69.5292C419.76 68.8719 421.107 68.3789 422.706 68.0502C424.389 67.7216 426.072 67.5162 427.755 67.434C429.438 67.2697 430.911 67.1875 432.173 67.1875C433.772 67.1875 434.909 67.434 435.582 67.927C436.339 68.3378 436.886 69.1594 437.223 70.3919C437.644 71.5422 438.022 73.2265 438.359 75.4449C439.958 73.6373 441.767 72.0351 443.787 70.6384C445.891 69.1594 448.163 68.0502 450.604 67.3107C453.044 66.4891 455.611 66.0783 458.304 66.0783C462.343 66.0783 465.71 66.7767 468.403 68.1735C471.096 69.5702 473.115 71.6654 474.462 74.459C475.892 77.1704 476.608 80.5391 476.608 84.5651V127.35H455.653V89.1252C455.653 87.0711 455.148 85.51 454.138 84.4418C453.212 83.3737 451.613 82.8397 449.341 82.8397C448.163 82.8397 446.943 83.0862 445.681 83.5791C444.418 83.99 443.24 84.6062 442.146 85.4278C441.052 86.1673 440.084 87.0711 439.243 88.1392V127.35H418.288Z" fill="black"/>
<path d="M509.509 127.35H488.555V43.1547C488.555 41.6757 489.228 40.5254 490.574 39.7038C492.005 38.8821 494.235 38.4713 497.265 38.4713H500.799C503.829 38.4713 506.017 38.8821 507.363 39.7038C508.794 40.5254 509.509 41.6757 509.509 43.1547V90.9739H510.141L523.521 70.1454C524.111 69.2416 524.784 68.5843 525.541 68.1735C526.299 67.6805 527.266 67.3518 528.445 67.1875C529.623 66.941 531.18 66.8178 533.115 66.8178H538.543C540.815 66.8178 542.457 66.9821 543.466 67.3107C544.56 67.5572 545.107 68.1324 545.107 69.0362C545.107 69.447 544.939 69.9811 544.603 70.6384C544.35 71.2135 543.929 71.953 543.34 72.8568L524.658 100.587V90.6041L546.37 125.976C546.791 126.715 546.62 126.775 546.873 127.35C543.591 127.35 524.782 127.35 524.782 127.35L524.531 127.208L510.141 102.929H509.509V127.35Z" fill="black"/>
<path d="M561.127 57.7409C559.259 57.7409 557.896 57.5437 557.037 57.1493C556.23 56.755 555.826 56.1634 555.826 55.3746V47.0925H536.133C535.729 47.0925 535.35 46.6735 534.997 45.8354C534.644 44.9973 534.366 44.036 534.164 42.9515C534.012 41.8669 533.937 41.0042 533.937 40.3633C533.937 40.1661 533.962 39.9689 534.012 39.7717C534.063 39.5252 534.164 39.3034 534.315 39.1062L552.796 7.6047C553.301 6.76663 554.008 6.24901 554.917 6.05181C555.826 5.80532 557.517 5.68208 559.991 5.68208H563.248C565.015 5.68208 566.328 5.87927 567.187 6.27366C568.095 6.66804 568.55 7.25962 568.55 8.04839V37.7012H570.671C572.185 37.7012 572.943 38.9337 572.943 41.3986V43.3952C572.943 44.6769 572.766 45.6136 572.413 46.2052C572.059 46.7967 571.479 47.0925 570.671 47.0925H568.55V55.3746C568.55 56.1634 568.121 56.755 567.262 57.1493C566.454 57.5437 565.116 57.7409 563.248 57.7409H561.127ZM543.859 42.0641L540.829 37.7012H555.826V27.0528C555.826 25.919 555.901 24.6865 556.053 23.3555C556.255 22.0244 556.457 20.9645 556.659 20.1757L552.872 19.0665L558.477 16.4784L543.859 42.0641Z" fill="url(#paint2_linear_7916_19051)"/>
<path d="M580.983 57.593C578.963 57.593 577.954 56.1141 577.954 53.1562V50.4201C577.954 47.4623 578.963 45.9833 580.983 45.9833H588.179V11.45L594.768 18.1052L580.756 20.1018C579.847 20.2004 579.165 19.8799 578.711 19.1405C578.257 18.3517 577.954 17.3657 577.802 16.1826C577.651 14.9501 577.575 13.767 577.575 12.6331C577.575 11.4007 577.752 10.5133 578.105 9.97101C578.509 9.37944 579.241 8.98505 580.302 8.78786L598.555 5.53418C599.161 5.53418 599.817 5.75602 600.524 6.1997C601.282 6.59409 601.66 7.21032 601.66 8.04839V45.9833H608.856C610.875 45.9833 611.885 47.4623 611.885 50.4201V53.1562C611.885 56.1141 610.875 57.593 608.856 57.593H580.983Z" fill="url(#paint3_linear_7916_19051)"/>
<defs>
<linearGradient id="paint0_linear_7916_19051" x1="93.1644" y1="0.48468" x2="93.1644" y2="164.589" gradientUnits="userSpaceOnUse">
<stop stop-color="#1D72D1"/>
<stop offset="1" stop-color="#6D3BF5"/>
</linearGradient>
<linearGradient id="paint1_linear_7916_19051" x1="93.1644" y1="0.48468" x2="93.1644" y2="164.589" gradientUnits="userSpaceOnUse">
<stop stop-color="#1D72D1"/>
<stop offset="1" stop-color="#6D3BF5"/>
</linearGradient>
<linearGradient id="paint2_linear_7916_19051" x1="426.636" y1="5.53418" x2="426.636" y2="127.35" gradientUnits="userSpaceOnUse">
<stop stop-color="#025FC8"/>
<stop offset="1" stop-color="#5A26E9"/>
</linearGradient>
<linearGradient id="paint3_linear_7916_19051" x1="426.636" y1="5.53418" x2="426.636" y2="127.35" gradientUnits="userSpaceOnUse">
<stop stop-color="#025FC8"/>
<stop offset="1" stop-color="#5A26E9"/>
</linearGradient>
</defs>
</svg>
