<svg width="701" height="254" viewBox="0 0 701 254" fill="none" xmlns="http://www.w3.org/2000/svg">
<path d="M224.901 208.588H202.704C200.934 208.588 199.3 207.64 198.42 206.104L138.064 100.662C137.496 99.6701 138.466 98.5058 139.545 98.8852L175.963 111.699C177.072 112.089 178.006 112.863 178.595 113.881L229.172 201.178C231.078 204.468 228.704 208.588 224.901 208.588Z" fill="url(#paint0_linear_7916_19050)"/>
<path d="M49.4276 208.589H76.7936L114.641 142.232C115.608 140.537 118.067 140.582 118.972 142.311L153.648 208.589L182.939 208.589C186.727 208.589 189.103 204.498 187.226 201.207L131.575 103.646C130.396 101.578 127.909 100.647 125.662 101.431L98.4182 110.934C97.2979 111.325 96.3559 112.107 95.7646 113.135L45.1483 201.193C43.2568 204.484 45.6321 208.589 49.4276 208.589Z" fill="url(#paint1_linear_7916_19050)"/>
<path d="M139.32 45.7224L169.068 97.4576C170.203 99.431 168.288 101.758 166.133 101.024L137.23 91.1845C136.703 91.0053 136.132 91.0092 135.608 91.1955L108.328 100.895C106.168 101.663 104.219 99.327 105.362 97.3394L135.041 45.7224C135.99 44.0721 138.371 44.0721 139.32 45.7224Z" fill="#32CCF2"/>
<path d="M309.688 199.6C309.218 199.6 308.87 199.54 308.643 199.419C308.431 199.282 308.325 199.093 308.325 198.851V184.558C308.325 183.952 308.605 183.65 309.165 183.65H316.459C316.898 183.65 317.118 184.028 317.118 184.786V185.49C317.118 186.247 316.898 186.626 316.459 186.626H311.847V190.602H316.255C316.694 190.602 316.914 190.981 316.914 191.739V192.443C316.914 193.2 316.694 193.579 316.255 193.579H311.847V198.851C311.847 199.093 311.74 199.282 311.528 199.419C311.316 199.54 310.968 199.6 310.483 199.6H309.688ZM323.575 199.737C322.454 199.737 321.621 199.449 321.075 198.873C320.53 198.283 320.257 197.374 320.257 196.147V188.376C320.257 188.133 320.363 187.952 320.576 187.83C320.803 187.694 321.159 187.626 321.643 187.626H322.28C322.764 187.626 323.113 187.694 323.325 187.83C323.552 187.952 323.666 188.133 323.666 188.376V195.647C323.666 196.056 323.757 196.381 323.938 196.624C324.135 196.851 324.453 196.965 324.893 196.965C325.15 196.965 325.408 196.912 325.665 196.806C325.923 196.684 326.158 196.525 326.37 196.328C326.597 196.132 326.771 195.904 326.892 195.647V188.376C326.892 188.133 326.998 187.952 327.21 187.83C327.438 187.694 327.794 187.626 328.278 187.626H328.915C329.399 187.626 329.748 187.694 329.96 187.83C330.187 187.952 330.301 188.133 330.301 188.376V195.601C330.301 196.268 330.316 196.798 330.346 197.192C330.391 197.586 330.429 197.904 330.46 198.146C330.505 198.373 330.528 198.57 330.528 198.737C330.528 198.919 330.414 199.07 330.187 199.191C329.975 199.297 329.71 199.381 329.392 199.441C329.089 199.487 328.793 199.525 328.506 199.555C328.233 199.57 328.036 199.578 327.915 199.578C327.733 199.578 327.597 199.54 327.506 199.464C327.415 199.373 327.339 199.214 327.279 198.987C327.218 198.76 327.142 198.434 327.051 198.01C326.839 198.298 326.551 198.578 326.188 198.851C325.839 199.108 325.438 199.32 324.984 199.487C324.544 199.653 324.075 199.737 323.575 199.737ZM337.245 199.737C336.518 199.737 335.905 199.608 335.405 199.35C334.92 199.093 334.557 198.714 334.314 198.214C334.072 197.699 333.951 197.071 333.951 196.328V183.172C333.951 182.93 334.057 182.748 334.269 182.627C334.496 182.491 334.852 182.423 335.337 182.423H335.973C336.458 182.423 336.806 182.491 337.018 182.627C337.245 182.748 337.359 182.93 337.359 183.172V196.101C337.359 196.434 337.412 196.677 337.518 196.828C337.639 196.965 337.844 197.033 338.132 197.033C338.389 197.033 338.586 197.003 338.722 196.942C338.874 196.866 339.003 196.828 339.109 196.828C339.199 196.828 339.283 196.904 339.359 197.056C339.434 197.207 339.495 197.396 339.54 197.624C339.601 197.836 339.646 198.048 339.677 198.26C339.707 198.457 339.722 198.608 339.722 198.714C339.722 198.896 339.593 199.07 339.336 199.237C339.078 199.388 338.76 199.51 338.381 199.6C338.003 199.691 337.624 199.737 337.245 199.737ZM344.9 199.737C344.173 199.737 343.559 199.608 343.059 199.35C342.575 199.093 342.211 198.714 341.969 198.214C341.726 197.699 341.605 197.071 341.605 196.328V183.172C341.605 182.93 341.711 182.748 341.923 182.627C342.151 182.491 342.507 182.423 342.991 182.423H343.627C344.112 182.423 344.461 182.491 344.673 182.627C344.9 182.748 345.014 182.93 345.014 183.172V196.101C345.014 196.434 345.067 196.677 345.173 196.828C345.294 196.965 345.498 197.033 345.786 197.033C346.044 197.033 346.241 197.003 346.377 196.942C346.528 196.866 346.657 196.828 346.763 196.828C346.854 196.828 346.937 196.904 347.013 197.056C347.089 197.207 347.149 197.396 347.195 197.624C347.255 197.836 347.301 198.048 347.331 198.26C347.361 198.457 347.377 198.608 347.377 198.714C347.377 198.896 347.248 199.07 346.99 199.237C346.733 199.388 346.415 199.51 346.036 199.6C345.657 199.691 345.279 199.737 344.9 199.737ZM349.305 194.738C348.851 194.738 348.623 194.359 348.623 193.602V193.443C348.623 192.685 348.851 192.307 349.305 192.307H353.622C354.077 192.307 354.304 192.685 354.304 193.443V193.602C354.304 194.359 354.077 194.738 353.622 194.738H349.305ZM361.809 199.737C361.052 199.737 360.37 199.676 359.764 199.555C359.174 199.449 358.666 199.305 358.242 199.123C357.818 198.941 357.469 198.767 357.197 198.601C356.985 198.464 356.811 198.336 356.674 198.214C356.538 198.078 356.47 197.919 356.47 197.737C356.47 197.555 356.492 197.351 356.538 197.124C356.598 196.881 356.674 196.647 356.765 196.419C356.871 196.192 356.977 196.003 357.083 195.851C357.204 195.7 357.326 195.624 357.447 195.624C357.583 195.624 357.848 195.723 358.242 195.919C358.651 196.101 359.128 196.291 359.674 196.488C360.234 196.669 360.817 196.76 361.423 196.76C361.862 196.76 362.218 196.707 362.491 196.601C362.779 196.495 362.991 196.328 363.127 196.101C363.279 195.874 363.355 195.586 363.355 195.238C363.355 194.874 363.248 194.571 363.036 194.329C362.839 194.087 362.574 193.874 362.241 193.693C361.908 193.496 361.529 193.322 361.105 193.17C360.696 193.003 360.279 192.822 359.855 192.625C359.461 192.443 359.083 192.231 358.719 191.989C358.356 191.746 358.022 191.451 357.719 191.102C357.432 190.754 357.204 190.33 357.038 189.83C356.871 189.33 356.788 188.739 356.788 188.058C356.788 187.24 356.939 186.543 357.242 185.967C357.56 185.376 357.977 184.899 358.492 184.536C359.007 184.172 359.583 183.907 360.219 183.74C360.855 183.559 361.506 183.468 362.173 183.468C362.658 183.468 363.127 183.506 363.582 183.581C364.051 183.657 364.475 183.763 364.854 183.899C365.233 184.021 365.536 184.165 365.763 184.331C365.93 184.437 366.066 184.551 366.172 184.672C366.278 184.793 366.331 184.914 366.331 185.036C366.331 185.187 366.301 185.384 366.24 185.626C366.195 185.854 366.127 186.081 366.036 186.308C365.96 186.535 365.862 186.725 365.74 186.876C365.619 187.028 365.49 187.103 365.354 187.103C365.172 187.103 364.93 187.05 364.627 186.944C364.339 186.823 363.991 186.709 363.582 186.603C363.188 186.482 362.741 186.422 362.241 186.422C361.817 186.422 361.461 186.475 361.173 186.581C360.885 186.687 360.666 186.846 360.514 187.058C360.378 187.255 360.31 187.512 360.31 187.83C360.31 188.209 360.423 188.527 360.651 188.785C360.878 189.027 361.181 189.239 361.559 189.421C361.953 189.588 362.37 189.769 362.809 189.966C363.279 190.163 363.756 190.383 364.241 190.625C364.725 190.868 365.172 191.171 365.581 191.534C365.99 191.882 366.316 192.329 366.558 192.875C366.816 193.405 366.945 194.071 366.945 194.874C366.945 195.768 366.793 196.525 366.49 197.146C366.202 197.768 365.808 198.267 365.309 198.646C364.809 199.025 364.256 199.305 363.65 199.487C363.044 199.653 362.43 199.737 361.809 199.737ZM373.375 199.737C372.648 199.737 372.034 199.608 371.534 199.35C371.05 199.093 370.686 198.714 370.444 198.214C370.201 197.699 370.08 197.071 370.08 196.328V190.33H369.353C368.899 190.33 368.671 189.951 368.671 189.194V188.807C368.671 188.05 368.899 187.671 369.353 187.671H370.08L370.444 185.513C370.489 185.27 370.603 185.089 370.785 184.967C370.982 184.846 371.254 184.786 371.603 184.786H372.352C372.746 184.786 373.034 184.846 373.216 184.967C373.398 185.089 373.489 185.27 373.489 185.513V187.671H374.875C375.329 187.671 375.556 188.05 375.556 188.807V189.194C375.556 189.951 375.329 190.33 374.875 190.33H373.489V196.101C373.489 196.434 373.542 196.677 373.648 196.828C373.769 196.965 373.973 197.033 374.261 197.033C374.519 197.033 374.716 197.003 374.852 196.942C375.003 196.866 375.132 196.828 375.238 196.828C375.329 196.828 375.412 196.904 375.488 197.056C375.564 197.207 375.624 197.396 375.67 197.624C375.73 197.836 375.776 198.048 375.806 198.26C375.837 198.457 375.852 198.608 375.852 198.714C375.852 198.896 375.723 199.07 375.465 199.237C375.208 199.388 374.89 199.51 374.511 199.6C374.132 199.691 373.754 199.737 373.375 199.737ZM381.278 199.737C380.051 199.737 379.18 199.419 378.665 198.782C378.165 198.131 377.915 197.343 377.915 196.419C377.915 195.95 377.983 195.473 378.119 194.988C378.271 194.488 378.566 194.026 379.005 193.602C379.445 193.178 380.096 192.837 380.96 192.579C381.838 192.322 382.997 192.193 384.436 192.193V191.511C384.436 191.193 384.375 190.936 384.254 190.739C384.133 190.542 383.944 190.398 383.686 190.307C383.429 190.201 383.088 190.148 382.664 190.148C382.118 190.148 381.626 190.209 381.187 190.33C380.763 190.436 380.399 190.549 380.096 190.671C379.808 190.792 379.589 190.852 379.437 190.852C379.331 190.852 379.225 190.784 379.119 190.648C379.013 190.496 378.915 190.322 378.824 190.125C378.748 189.913 378.687 189.709 378.642 189.512C378.596 189.315 378.574 189.163 378.574 189.057C378.574 188.845 378.702 188.648 378.96 188.467C379.217 188.285 379.558 188.118 379.982 187.967C380.407 187.815 380.876 187.702 381.391 187.626C381.906 187.535 382.414 187.49 382.914 187.49C383.807 187.49 384.565 187.588 385.186 187.785C385.807 187.967 386.307 188.232 386.685 188.58C387.079 188.913 387.36 189.315 387.526 189.784C387.708 190.239 387.799 190.739 387.799 191.284V195.556C387.799 196.344 387.822 196.95 387.867 197.374C387.912 197.783 387.958 198.093 388.003 198.305C388.049 198.502 388.072 198.684 388.072 198.851C388.072 198.987 387.966 199.101 387.753 199.191C387.557 199.282 387.307 199.358 387.004 199.419C386.716 199.479 386.428 199.525 386.14 199.555C385.867 199.57 385.663 199.578 385.527 199.578C385.284 199.578 385.103 199.494 384.981 199.328C384.875 199.146 384.8 198.934 384.754 198.692C384.709 198.434 384.663 198.207 384.618 198.01C384.572 198.101 384.413 198.29 384.141 198.578C383.883 198.851 383.512 199.116 383.027 199.373C382.558 199.616 381.974 199.737 381.278 199.737ZM382.391 197.078C382.679 197.078 382.951 197.018 383.209 196.897C383.482 196.775 383.724 196.609 383.936 196.397C384.148 196.169 384.315 195.919 384.436 195.647V194.397C383.891 194.397 383.421 194.435 383.027 194.511C382.633 194.586 382.3 194.692 382.027 194.829C381.77 194.965 381.573 195.139 381.437 195.351C381.316 195.563 381.255 195.806 381.255 196.079C381.255 196.366 381.346 196.609 381.528 196.806C381.725 196.987 382.012 197.078 382.391 197.078ZM396.818 199.737C394.818 199.737 393.379 199.237 392.501 198.237C391.637 197.237 391.205 195.723 391.205 193.693C391.205 191.663 391.667 190.125 392.591 189.08C393.531 188.02 395.015 187.49 397.045 187.49C397.454 187.49 397.878 187.535 398.317 187.626C398.757 187.702 399.166 187.815 399.544 187.967C399.923 188.118 400.226 188.285 400.453 188.467C400.696 188.648 400.817 188.845 400.817 189.057C400.817 189.194 400.764 189.406 400.658 189.694C400.552 189.966 400.423 190.224 400.272 190.466C400.12 190.693 399.969 190.807 399.817 190.807C399.666 190.807 399.469 190.754 399.226 190.648C398.984 190.527 398.681 190.413 398.317 190.307C397.954 190.201 397.515 190.148 397 190.148C396.166 190.148 395.568 190.421 395.205 190.966C394.841 191.511 394.659 192.39 394.659 193.602C394.659 194.829 394.841 195.715 395.205 196.26C395.568 196.806 396.166 197.078 397 197.078C397.53 197.078 397.992 197.018 398.386 196.897C398.779 196.76 399.113 196.631 399.385 196.51C399.658 196.374 399.87 196.306 400.022 196.306C400.173 196.306 400.309 196.419 400.431 196.647C400.567 196.874 400.673 197.131 400.749 197.419C400.84 197.692 400.885 197.904 400.885 198.055C400.885 198.283 400.749 198.495 400.476 198.692C400.219 198.888 399.878 199.07 399.454 199.237C399.045 199.388 398.605 199.51 398.136 199.6C397.666 199.691 397.227 199.737 396.818 199.737ZM404.892 199.6C404.407 199.6 404.051 199.54 403.824 199.419C403.612 199.282 403.506 199.093 403.506 198.851V183.172C403.506 182.93 403.612 182.748 403.824 182.627C404.051 182.491 404.407 182.423 404.892 182.423H405.528C406.013 182.423 406.361 182.491 406.574 182.627C406.801 182.748 406.914 182.93 406.914 183.172V192.148H407.028L409.664 188.148C409.755 187.997 409.861 187.891 409.982 187.83C410.103 187.755 410.262 187.702 410.459 187.671C410.671 187.641 410.959 187.626 411.322 187.626H412.05C412.459 187.626 412.762 187.649 412.958 187.694C413.171 187.724 413.277 187.823 413.277 187.989C413.277 188.065 413.246 188.164 413.186 188.285C413.125 188.406 413.034 188.55 412.913 188.717L409.664 193.352V192.329L413.436 198.623C413.511 198.745 413.572 198.858 413.617 198.964C413.663 199.055 413.686 199.138 413.686 199.214C413.686 199.381 413.572 199.487 413.345 199.532C413.133 199.578 412.83 199.6 412.436 199.6H411.709C411.148 199.6 410.739 199.555 410.482 199.464C410.224 199.358 410.012 199.161 409.846 198.873L407.028 193.965H406.914V198.851C406.914 199.093 406.801 199.282 406.574 199.419C406.361 199.54 406.013 199.6 405.528 199.6H404.892ZM429.812 199.737C427.267 199.737 425.381 199.078 424.154 197.76C422.942 196.427 422.336 194.359 422.336 191.557C422.336 188.845 422.973 186.823 424.245 185.49C425.517 184.142 427.411 183.468 429.925 183.468C430.289 183.468 430.66 183.49 431.039 183.536C431.433 183.566 431.819 183.619 432.198 183.695C432.576 183.771 432.925 183.862 433.243 183.968C433.576 184.074 433.856 184.195 434.084 184.331C434.265 184.437 434.409 184.551 434.515 184.672C434.621 184.793 434.674 184.922 434.674 185.058C434.674 185.21 434.629 185.407 434.538 185.649C434.462 185.876 434.356 186.104 434.22 186.331C434.099 186.558 433.962 186.747 433.811 186.899C433.659 187.05 433.516 187.126 433.379 187.126C433.197 187.126 433.001 187.096 432.788 187.035C432.576 186.959 432.334 186.884 432.061 186.808C431.789 186.717 431.471 186.641 431.107 186.581C430.759 186.505 430.342 186.467 429.857 186.467C428.524 186.467 427.532 186.891 426.881 187.739C426.245 188.588 425.926 189.868 425.926 191.58C425.926 192.867 426.07 193.89 426.358 194.647C426.646 195.404 427.078 195.95 427.653 196.283C428.229 196.601 428.948 196.76 429.812 196.76C430.221 196.76 430.622 196.73 431.016 196.669C431.41 196.609 431.774 196.525 432.107 196.419C432.455 196.313 432.728 196.2 432.925 196.079L431.811 197.76V193.17H429.471C429.017 193.17 428.789 192.791 428.789 192.034V191.375C428.789 190.618 429.017 190.239 429.471 190.239H434.334C434.894 190.239 435.174 190.542 435.174 191.148V197.919C435.174 198.116 435.114 198.298 434.993 198.464C434.886 198.616 434.712 198.752 434.47 198.873C434.167 199.04 433.758 199.191 433.243 199.328C432.728 199.449 432.167 199.547 431.561 199.623C430.971 199.699 430.387 199.737 429.812 199.737ZM444.374 199.737C442.314 199.737 440.807 199.191 439.852 198.101C438.913 196.995 438.443 195.526 438.443 193.693C438.443 192.193 438.678 190.989 439.148 190.08C439.617 189.171 440.269 188.512 441.102 188.103C441.935 187.694 442.889 187.49 443.965 187.49C445.162 187.49 446.116 187.762 446.828 188.308C447.54 188.838 448.055 189.542 448.373 190.421C448.706 191.284 448.873 192.223 448.873 193.238C448.873 193.435 448.797 193.647 448.646 193.874C448.509 194.102 448.343 194.299 448.146 194.465C447.949 194.617 447.767 194.692 447.6 194.692H441.897C441.927 195.601 442.185 196.23 442.67 196.578C443.17 196.912 443.791 197.078 444.533 197.078C445.048 197.078 445.502 197.01 445.896 196.874C446.305 196.722 446.646 196.578 446.919 196.442C447.207 196.306 447.426 196.238 447.578 196.238C447.729 196.238 447.881 196.351 448.032 196.578C448.184 196.806 448.312 197.063 448.418 197.351C448.524 197.624 448.577 197.836 448.577 197.987C448.577 198.214 448.426 198.434 448.123 198.646C447.835 198.858 447.464 199.048 447.01 199.214C446.555 199.381 446.093 199.51 445.624 199.6C445.154 199.691 444.737 199.737 444.374 199.737ZM441.852 192.443H445.669C445.669 191.686 445.518 191.118 445.215 190.739C444.912 190.345 444.45 190.148 443.829 190.148C443.556 190.148 443.268 190.201 442.965 190.307C442.662 190.413 442.405 190.633 442.193 190.966C441.981 191.284 441.867 191.776 441.852 192.443ZM453.351 199.6C452.866 199.6 452.51 199.54 452.283 199.419C452.071 199.282 451.965 199.093 451.965 198.851V191.625C451.965 190.958 451.942 190.428 451.896 190.034C451.866 189.625 451.828 189.307 451.783 189.08C451.752 188.853 451.737 188.656 451.737 188.489C451.737 188.323 451.843 188.186 452.055 188.08C452.283 187.974 452.548 187.899 452.851 187.853C453.169 187.793 453.464 187.755 453.737 187.739C454.025 187.709 454.229 187.694 454.35 187.694C454.532 187.694 454.668 187.739 454.759 187.83C454.85 187.906 454.926 188.05 454.987 188.262C455.062 188.474 455.138 188.792 455.214 189.216C455.441 188.929 455.721 188.656 456.054 188.398C456.403 188.126 456.789 187.906 457.213 187.739C457.653 187.573 458.115 187.49 458.599 187.49C459.372 187.49 460.008 187.626 460.508 187.899C461.023 188.156 461.402 188.557 461.644 189.103C461.886 189.633 462.008 190.322 462.008 191.171V198.851C462.008 199.093 461.894 199.282 461.667 199.419C461.455 199.54 461.106 199.6 460.622 199.6H459.985C459.501 199.6 459.145 199.54 458.917 199.419C458.705 199.282 458.599 199.093 458.599 198.851V191.67C458.599 191.231 458.501 190.89 458.304 190.648C458.107 190.39 457.766 190.262 457.281 190.262C457.039 190.262 456.789 190.322 456.532 190.443C456.289 190.549 456.062 190.701 455.85 190.898C455.653 191.095 455.494 191.322 455.373 191.58V198.851C455.373 199.093 455.259 199.282 455.032 199.419C454.82 199.54 454.472 199.6 453.987 199.6H453.351ZM465.59 199.6C465.12 199.6 464.772 199.555 464.544 199.464C464.317 199.373 464.204 199.252 464.204 199.101C464.204 199.04 464.211 198.979 464.226 198.919C464.257 198.843 464.279 198.767 464.294 198.692L469.293 184.081C469.354 183.915 469.49 183.793 469.702 183.718C469.914 183.642 470.21 183.604 470.588 183.604H471.77C472.164 183.604 472.459 183.642 472.656 183.718C472.868 183.793 473.005 183.915 473.065 184.081L478.064 198.692C478.094 198.767 478.109 198.843 478.109 198.919C478.125 198.979 478.132 199.04 478.132 199.101C478.132 199.252 478.041 199.373 477.86 199.464C477.678 199.555 477.39 199.6 476.996 199.6H475.996C475.663 199.6 475.383 199.57 475.156 199.51C474.928 199.434 474.784 199.305 474.724 199.123L471.543 189.307C471.467 189.065 471.399 188.823 471.338 188.58C471.293 188.338 471.247 188.095 471.202 187.853H471.111C471.066 188.095 471.013 188.338 470.952 188.58C470.907 188.823 470.846 189.065 470.77 189.307L467.544 199.123C467.483 199.29 467.362 199.411 467.18 199.487C466.998 199.563 466.771 199.6 466.498 199.6H465.59ZM467.294 196.215V193.465H475.065V196.215H467.294ZM481.888 199.6C481.418 199.6 481.07 199.54 480.843 199.419C480.63 199.282 480.524 199.093 480.524 198.851V184.354C480.524 184.112 480.63 183.93 480.843 183.809C481.07 183.672 481.418 183.604 481.888 183.604H482.683C483.168 183.604 483.516 183.672 483.728 183.809C483.94 183.93 484.046 184.112 484.046 184.354V198.851C484.046 199.093 483.94 199.282 483.728 199.419C483.516 199.54 483.168 199.6 482.683 199.6H481.888ZM501.257 199.737C498.712 199.737 496.826 199.078 495.599 197.76C494.387 196.427 493.781 194.359 493.781 191.557C493.781 188.845 494.418 186.823 495.69 185.49C496.962 184.142 498.856 183.468 501.371 183.468C501.855 183.468 502.355 183.506 502.87 183.581C503.4 183.642 503.9 183.74 504.37 183.877C504.839 183.998 505.226 184.149 505.529 184.331C505.71 184.437 505.854 184.551 505.96 184.672C506.066 184.793 506.119 184.922 506.119 185.058C506.119 185.21 506.082 185.407 506.006 185.649C505.945 185.876 505.862 186.104 505.756 186.331C505.65 186.558 505.529 186.747 505.392 186.899C505.256 187.05 505.12 187.126 504.983 187.126C504.802 187.126 504.544 187.073 504.211 186.967C503.878 186.846 503.469 186.732 502.984 186.626C502.514 186.52 501.954 186.467 501.302 186.467C500.409 186.467 499.666 186.656 499.076 187.035C498.5 187.414 498.068 187.982 497.78 188.739C497.508 189.497 497.371 190.443 497.371 191.58C497.371 192.716 497.515 193.67 497.803 194.443C498.091 195.2 498.523 195.776 499.098 196.169C499.674 196.563 500.393 196.76 501.257 196.76C501.802 196.76 502.295 196.715 502.734 196.624C503.173 196.533 503.559 196.427 503.893 196.306C504.226 196.185 504.506 196.079 504.733 195.988C504.961 195.897 505.127 195.851 505.233 195.851C505.415 195.851 505.574 195.935 505.71 196.101C505.847 196.268 505.96 196.465 506.051 196.692C506.142 196.919 506.21 197.146 506.256 197.374C506.301 197.586 506.324 197.737 506.324 197.828C506.324 198.086 506.263 198.275 506.142 198.396C506.021 198.517 505.786 198.676 505.438 198.873C505.074 199.07 504.642 199.237 504.143 199.373C503.658 199.494 503.158 199.585 502.643 199.646C502.143 199.706 501.681 199.737 501.257 199.737ZM514.212 199.737C512.409 199.737 511.038 199.207 510.099 198.146C509.16 197.086 508.69 195.571 508.69 193.602C508.69 191.617 509.16 190.103 510.099 189.057C511.038 188.012 512.409 187.49 514.212 187.49C516.014 187.49 517.378 188.012 518.302 189.057C519.241 190.103 519.71 191.617 519.71 193.602C519.71 195.571 519.241 197.086 518.302 198.146C517.378 199.207 516.014 199.737 514.212 199.737ZM514.212 197.078C514.924 197.078 515.439 196.783 515.757 196.192C516.09 195.601 516.257 194.738 516.257 193.602C516.257 192.466 516.09 191.61 515.757 191.034C515.439 190.443 514.924 190.148 514.212 190.148C513.5 190.148 512.977 190.443 512.644 191.034C512.311 191.61 512.144 192.466 512.144 193.602C512.144 194.738 512.311 195.601 512.644 196.192C512.977 196.783 513.5 197.078 514.212 197.078ZM524.285 199.6C523.8 199.6 523.445 199.54 523.217 199.419C523.005 199.282 522.899 199.093 522.899 198.851V191.625C522.899 190.958 522.876 190.428 522.831 190.034C522.801 189.625 522.763 189.307 522.717 189.08C522.687 188.853 522.672 188.656 522.672 188.489C522.672 188.323 522.778 188.186 522.99 188.08C523.217 187.974 523.482 187.899 523.785 187.853C524.103 187.793 524.399 187.755 524.672 187.739C524.959 187.709 525.164 187.694 525.285 187.694C525.467 187.694 525.603 187.739 525.694 187.83C525.785 187.906 525.861 188.05 525.921 188.262C525.997 188.474 526.073 188.792 526.148 189.216C526.361 188.929 526.633 188.656 526.966 188.398C527.315 188.126 527.701 187.906 528.125 187.739C528.565 187.573 529.027 187.49 529.511 187.49C530.072 187.49 530.564 187.565 530.988 187.717C531.428 187.853 531.784 188.065 532.056 188.353C532.344 188.626 532.549 188.974 532.67 189.398C532.867 189.08 533.132 188.777 533.465 188.489C533.813 188.202 534.215 187.967 534.669 187.785C535.124 187.588 535.608 187.49 536.123 187.49C536.911 187.49 537.555 187.626 538.055 187.899C538.57 188.156 538.949 188.557 539.191 189.103C539.448 189.633 539.577 190.322 539.577 191.171V198.851C539.577 199.093 539.464 199.282 539.236 199.419C539.024 199.54 538.676 199.6 538.191 199.6H537.555C537.07 199.6 536.714 199.54 536.487 199.419C536.275 199.282 536.169 199.093 536.169 198.851V191.67C536.169 191.231 536.063 190.89 535.851 190.648C535.654 190.39 535.305 190.262 534.806 190.262C534.624 190.262 534.434 190.3 534.238 190.375C534.056 190.436 533.874 190.534 533.692 190.671C533.51 190.807 533.329 190.981 533.147 191.193C532.98 191.39 532.829 191.625 532.692 191.898L532.715 190.057C532.791 190.254 532.844 190.443 532.874 190.625C532.92 190.807 532.942 190.996 532.942 191.193V198.851C532.942 199.093 532.829 199.282 532.602 199.419C532.389 199.54 532.041 199.6 531.556 199.6H530.92C530.435 199.6 530.079 199.54 529.852 199.419C529.64 199.282 529.534 199.093 529.534 198.851V191.67C529.534 191.231 529.428 190.89 529.216 190.648C529.019 190.39 528.671 190.262 528.171 190.262C527.928 190.262 527.686 190.322 527.444 190.443C527.201 190.549 526.982 190.701 526.785 190.898C526.588 191.095 526.429 191.322 526.307 191.58V198.851C526.307 199.093 526.194 199.282 525.967 199.419C525.755 199.54 525.406 199.6 524.921 199.6H524.285ZM544.455 204.236C543.97 204.236 543.614 204.168 543.387 204.031C543.175 203.91 543.069 203.728 543.069 203.486V191.625C543.069 190.958 543.046 190.428 543 190.034C542.97 189.625 542.932 189.307 542.887 189.08C542.857 188.853 542.841 188.656 542.841 188.489C542.841 188.323 542.947 188.186 543.159 188.08C543.387 187.974 543.652 187.899 543.955 187.853C544.273 187.793 544.568 187.755 544.841 187.739C545.129 187.709 545.333 187.694 545.454 187.694C545.636 187.694 545.773 187.739 545.863 187.83C545.954 187.906 546.03 188.05 546.091 188.262C546.166 188.474 546.242 188.792 546.318 189.216C546.5 188.883 546.742 188.588 547.045 188.33C547.363 188.073 547.727 187.868 548.136 187.717C548.545 187.565 548.984 187.49 549.453 187.49C550.302 187.49 551.052 187.724 551.703 188.194C552.354 188.664 552.869 189.36 553.248 190.284C553.627 191.193 553.816 192.307 553.816 193.625C553.816 194.852 553.627 195.927 553.248 196.851C552.869 197.76 552.309 198.472 551.567 198.987C550.84 199.487 549.953 199.737 548.908 199.737C548.529 199.737 548.189 199.699 547.886 199.623C547.583 199.563 547.31 199.479 547.068 199.373C546.84 199.252 546.644 199.138 546.477 199.032V203.486C546.477 203.728 546.363 203.91 546.136 204.031C545.924 204.168 545.576 204.236 545.091 204.236H544.455ZM548.181 197.078C548.923 197.078 549.469 196.79 549.817 196.215C550.181 195.624 550.362 194.761 550.362 193.625C550.362 192.519 550.203 191.678 549.885 191.102C549.582 190.527 549.105 190.239 548.454 190.239C547.999 190.239 547.605 190.375 547.272 190.648C546.954 190.921 546.689 191.231 546.477 191.58V196.647C546.674 196.753 546.909 196.851 547.181 196.942C547.469 197.033 547.802 197.078 548.181 197.078ZM560.002 199.737C558.775 199.737 557.904 199.419 557.389 198.782C556.889 198.131 556.639 197.343 556.639 196.419C556.639 195.95 556.707 195.473 556.844 194.988C556.995 194.488 557.291 194.026 557.73 193.602C558.169 193.178 558.821 192.837 559.684 192.579C560.563 192.322 561.721 192.193 563.16 192.193V191.511C563.16 191.193 563.1 190.936 562.979 190.739C562.857 190.542 562.668 190.398 562.411 190.307C562.153 190.201 561.812 190.148 561.388 190.148C560.843 190.148 560.35 190.209 559.911 190.33C559.487 190.436 559.123 190.549 558.821 190.671C558.533 190.792 558.313 190.852 558.162 190.852C558.056 190.852 557.949 190.784 557.843 190.648C557.737 190.496 557.639 190.322 557.548 190.125C557.472 189.913 557.412 189.709 557.366 189.512C557.321 189.315 557.298 189.163 557.298 189.057C557.298 188.845 557.427 188.648 557.684 188.467C557.942 188.285 558.283 188.118 558.707 187.967C559.131 187.815 559.601 187.702 560.116 187.626C560.631 187.535 561.138 187.49 561.638 187.49C562.532 187.49 563.289 187.588 563.91 187.785C564.531 187.967 565.031 188.232 565.41 188.58C565.804 188.913 566.084 189.315 566.251 189.784C566.432 190.239 566.523 190.739 566.523 191.284V195.556C566.523 196.344 566.546 196.95 566.591 197.374C566.637 197.783 566.682 198.093 566.728 198.305C566.773 198.502 566.796 198.684 566.796 198.851C566.796 198.987 566.69 199.101 566.478 199.191C566.281 199.282 566.031 199.358 565.728 199.419C565.44 199.479 565.152 199.525 564.865 199.555C564.592 199.57 564.387 199.578 564.251 199.578C564.009 199.578 563.827 199.494 563.706 199.328C563.6 199.146 563.524 198.934 563.479 198.692C563.433 198.434 563.388 198.207 563.342 198.01C563.297 198.101 563.138 198.29 562.865 198.578C562.608 198.851 562.236 199.116 561.752 199.373C561.282 199.616 560.699 199.737 560.002 199.737ZM561.115 197.078C561.403 197.078 561.676 197.018 561.933 196.897C562.206 196.775 562.448 196.609 562.661 196.397C562.873 196.169 563.039 195.919 563.16 195.647V194.397C562.615 194.397 562.146 194.435 561.752 194.511C561.358 194.586 561.025 194.692 560.752 194.829C560.494 194.965 560.297 195.139 560.161 195.351C560.04 195.563 559.979 195.806 559.979 196.079C559.979 196.366 560.07 196.609 560.252 196.806C560.449 196.987 560.737 197.078 561.115 197.078ZM571.679 199.6C571.195 199.6 570.839 199.54 570.612 199.419C570.399 199.282 570.293 199.093 570.293 198.851V191.625C570.293 190.958 570.271 190.428 570.225 190.034C570.195 189.625 570.157 189.307 570.112 189.08C570.081 188.853 570.066 188.656 570.066 188.489C570.066 188.323 570.172 188.186 570.384 188.08C570.612 187.974 570.877 187.899 571.18 187.853C571.498 187.793 571.793 187.755 572.066 187.739C572.354 187.709 572.558 187.694 572.679 187.694C572.861 187.694 572.997 187.739 573.088 187.83C573.179 187.906 573.255 188.05 573.315 188.262C573.391 188.474 573.467 188.792 573.543 189.216C573.77 188.929 574.05 188.656 574.383 188.398C574.732 188.126 575.118 187.906 575.542 187.739C575.982 187.573 576.444 187.49 576.928 187.49C577.701 187.49 578.337 187.626 578.837 187.899C579.352 188.156 579.731 188.557 579.973 189.103C580.215 189.633 580.337 190.322 580.337 191.171V198.851C580.337 199.093 580.223 199.282 579.996 199.419C579.784 199.54 579.435 199.6 578.951 199.6H578.314C577.83 199.6 577.474 199.54 577.246 199.419C577.034 199.282 576.928 199.093 576.928 198.851V191.67C576.928 191.231 576.83 190.89 576.633 190.648C576.436 190.39 576.095 190.262 575.61 190.262C575.368 190.262 575.118 190.322 574.861 190.443C574.618 190.549 574.391 190.701 574.179 190.898C573.982 191.095 573.823 191.322 573.702 191.58V198.851C573.702 199.093 573.588 199.282 573.361 199.419C573.149 199.54 572.8 199.6 572.316 199.6H571.679ZM586.441 204.236C585.971 204.236 585.623 204.19 585.395 204.099C585.183 204.024 585.077 203.91 585.077 203.759C585.077 203.698 585.085 203.63 585.1 203.554C585.115 203.493 585.138 203.425 585.168 203.35L587.009 198.328L587.054 200.827L582.805 188.535C582.79 188.459 582.767 188.391 582.737 188.33C582.722 188.255 582.714 188.186 582.714 188.126C582.714 187.959 582.828 187.838 583.055 187.762C583.282 187.671 583.631 187.626 584.1 187.626H584.85C585.183 187.626 585.464 187.664 585.691 187.739C585.918 187.8 586.062 187.921 586.123 188.103L588.122 195.283H588.213L590.167 188.103C590.228 187.921 590.372 187.8 590.599 187.739C590.826 187.664 591.106 187.626 591.44 187.626H592.008C592.492 187.626 592.841 187.671 593.053 187.762C593.265 187.838 593.371 187.959 593.371 188.126C593.371 188.186 593.363 188.255 593.348 188.33C593.348 188.391 593.333 188.459 593.303 188.535L588.099 203.759C588.039 203.94 587.895 204.062 587.668 204.122C587.44 204.198 587.16 204.236 586.827 204.236H586.441Z" fill="black"/>
<path d="M329.821 171.35H308.235V170.823V101.682H289.805C286.859 101.682 285.387 99.3817 285.387 94.7805V89.6042C285.387 85.0852 286.859 82.8257 289.805 82.8257H348.251C351.197 82.8257 352.669 85.0852 352.669 89.6042V94.7805C352.669 99.3817 351.197 101.682 348.251 101.682H329.821V170.823V171.35Z" fill="black"/>
<path d="M378.459 171.35C375.429 171.35 357.504 171.35 357.504 171.35V171.085V87.2779C357.504 85.7168 358.177 84.5665 359.523 83.827C360.954 83.0054 363.184 82.5946 366.214 82.5946H369.622C372.652 82.5946 374.84 83.0054 376.186 83.827C377.617 84.5665 378.332 85.7168 378.332 87.2779V118.705C379.763 116.98 381.446 115.501 383.382 114.269C385.401 112.954 387.589 111.927 389.946 111.188C392.386 110.448 394.911 110.078 397.52 110.078C401.559 110.078 404.926 110.777 407.619 112.173C410.312 113.57 412.331 115.665 413.678 118.459C415.108 121.17 415.824 124.539 415.824 128.565V171.085V171.35H394.869V171.085V133.125C394.869 131.071 394.364 129.51 393.354 128.442C392.428 127.374 390.829 126.84 388.557 126.84C387.379 126.84 386.159 127.086 384.897 127.579C383.634 127.99 382.456 128.606 381.362 129.428C380.268 130.167 379.3 131.071 378.459 132.139V171.085V171.35Z" fill="black"/>
<path d="M428.88 171.35V114.762C428.88 113.447 429.553 112.461 430.9 111.804C432.331 111.146 434.561 110.818 437.59 110.818H441.125C444.154 110.818 446.342 111.146 447.689 111.804C449.12 112.461 449.835 113.447 449.835 114.762V171.35H428.88ZM439.358 104.779C435.571 104.779 432.835 104.409 431.152 103.67C429.469 102.848 428.628 101.698 428.628 100.219V91.838C428.628 90.359 429.469 89.2498 431.152 88.5104C432.835 87.6887 435.571 87.2779 439.358 87.2779C443.145 87.2779 445.88 87.6887 447.563 88.5104C449.246 89.2498 450.087 90.359 450.087 91.838V100.219C450.087 101.698 449.246 102.848 447.563 103.67C445.88 104.409 443.145 104.779 439.358 104.779Z" fill="black"/>
<path d="M462.288 171.35V171.085V132.509C462.288 128.647 462.161 125.689 461.909 123.635C461.741 121.581 461.53 120.02 461.278 118.952C461.11 117.884 461.025 116.898 461.025 115.994C461.025 115.008 461.572 114.186 462.666 113.529C463.76 112.872 465.107 112.379 466.706 112.05C468.389 111.722 470.072 111.516 471.755 111.434C473.438 111.27 474.911 111.188 476.173 111.188C477.772 111.188 478.909 111.434 479.582 111.927C480.339 112.338 480.886 113.159 481.223 114.392C481.644 115.542 482.022 117.227 482.359 119.445C483.958 117.637 485.767 116.035 487.787 114.638C489.891 113.159 492.163 112.05 494.604 111.311C497.044 110.489 499.611 110.078 502.304 110.078C506.343 110.078 509.71 110.777 512.403 112.173C515.096 113.57 517.115 115.665 518.462 118.459C519.892 121.17 520.608 124.539 520.608 128.565V171.35H499.653V133.125C499.653 131.071 499.148 129.51 498.138 128.442C497.212 127.374 495.613 126.84 493.341 126.84C492.163 126.84 490.943 127.086 489.681 127.579C488.418 127.99 487.24 128.606 486.146 129.428C485.052 130.167 484.084 131.071 483.243 132.139V171.35H462.288Z" fill="black"/>
<path d="M553.509 171.35H532.555V87.1547C532.555 85.6757 533.228 84.5254 534.574 83.7038C536.005 82.8821 538.235 82.4713 541.265 82.4713H544.799C547.829 82.4713 550.017 82.8821 551.363 83.7038C552.794 84.5254 553.509 85.6757 553.509 87.1547V134.974H554.141L567.521 114.145C568.111 113.242 568.784 112.584 569.541 112.173C570.299 111.68 571.266 111.352 572.445 111.188C573.623 110.941 575.18 110.818 577.115 110.818H582.543C584.815 110.818 586.457 110.982 587.466 111.311C588.56 111.557 589.107 112.132 589.107 113.036C589.107 113.447 588.939 113.981 588.603 114.638C588.35 115.214 587.929 115.953 587.34 116.857L568.658 144.587V134.604L590.37 169.976C590.791 170.715 590.62 170.775 590.873 171.35C587.591 171.35 568.782 171.35 568.782 171.35L568.531 171.208L554.141 146.929H553.509V171.35Z" fill="black"/>
<path d="M605.127 101.741C603.259 101.741 601.896 101.544 601.037 101.149C600.23 100.755 599.826 100.163 599.826 99.3746V91.0925H580.133C579.729 91.0925 579.35 90.6735 578.997 89.8354C578.644 88.9973 578.366 88.036 578.164 86.9515C578.012 85.8669 577.937 85.0042 577.937 84.3633C577.937 84.1661 577.962 83.9689 578.012 83.7717C578.063 83.5252 578.164 83.3034 578.315 83.1062L596.796 51.6047C597.301 50.7666 598.008 50.249 598.917 50.0518C599.826 49.8053 601.517 49.6821 603.991 49.6821H607.248C609.015 49.6821 610.328 49.8793 611.187 50.2737C612.095 50.668 612.55 51.2596 612.55 52.0484V81.7012H614.671C616.185 81.7012 616.943 82.9337 616.943 85.3986V87.3952C616.943 88.6769 616.766 89.6136 616.413 90.2052C616.059 90.7967 615.479 91.0925 614.671 91.0925H612.55V99.3746C612.55 100.163 612.121 100.755 611.262 101.149C610.454 101.544 609.116 101.741 607.248 101.741H605.127ZM587.859 86.0641L584.829 81.7012H599.826V71.0528C599.826 69.919 599.901 68.6865 600.053 67.3555C600.255 66.0244 600.457 64.9645 600.659 64.1757L596.872 63.0665L602.477 60.4784L587.859 86.0641Z" fill="url(#paint2_linear_7916_19050)"/>
<path d="M624.983 101.593C622.963 101.593 621.954 100.114 621.954 97.1562V94.4201C621.954 91.4623 622.963 89.9833 624.983 89.9833H632.179V55.45L638.768 62.1052L624.756 64.1018C623.847 64.2004 623.165 63.8799 622.711 63.1405C622.257 62.3517 621.954 61.3657 621.802 60.1826C621.651 58.9501 621.575 57.767 621.575 56.6331C621.575 55.4007 621.752 54.5133 622.105 53.971C622.509 53.3794 623.241 52.9851 624.302 52.7879L642.555 49.5342C643.161 49.5342 643.817 49.756 644.524 50.1997C645.282 50.5941 645.66 51.2103 645.66 52.0484V89.9833H652.856C654.875 89.9833 655.885 91.4623 655.885 94.4201V97.1562C655.885 100.114 654.875 101.593 652.856 101.593H624.983Z" fill="url(#paint3_linear_7916_19050)"/>
<defs>
<linearGradient id="paint0_linear_7916_19050" x1="137.164" y1="44.4847" x2="137.164" y2="208.589" gradientUnits="userSpaceOnUse">
<stop stop-color="#1D72D1"/>
<stop offset="1" stop-color="#6D3BF5"/>
</linearGradient>
<linearGradient id="paint1_linear_7916_19050" x1="137.164" y1="44.4847" x2="137.164" y2="208.589" gradientUnits="userSpaceOnUse">
<stop stop-color="#1D72D1"/>
<stop offset="1" stop-color="#6D3BF5"/>
</linearGradient>
<linearGradient id="paint2_linear_7916_19050" x1="470.636" y1="49.5342" x2="470.636" y2="171.35" gradientUnits="userSpaceOnUse">
<stop stop-color="#025FC8"/>
<stop offset="1" stop-color="#5A26E9"/>
</linearGradient>
<linearGradient id="paint3_linear_7916_19050" x1="470.636" y1="49.5342" x2="470.636" y2="171.35" gradientUnits="userSpaceOnUse">
<stop stop-color="#025FC8"/>
<stop offset="1" stop-color="#5A26E9"/>
</linearGradient>
</defs>
</svg>
