<svg width="179" height="68" viewBox="0 0 179 68" fill="none" xmlns="http://www.w3.org/2000/svg">
<g filter="url(#filter0_d_8445_1108)">
<rect x="2.98876" y="4.77172" width="63.7905" height="58.2491" rx="5.10091" stroke="#F6F6F6" stroke-width="0.329091" shape-rendering="crispEdges"/>
<path d="M57.7572 55.287H51.9705C51.5091 55.287 51.0829 55.0399 50.8537 54.6394L35.1189 27.1508C34.9708 26.8922 35.2237 26.5886 35.5048 26.6876L44.999 30.0281C45.2882 30.1299 45.5316 30.3316 45.6853 30.5969L58.8706 53.3551C59.3676 54.213 58.7486 55.287 57.7572 55.287Z" fill="url(#paint0_linear_8445_1108)"/>
<path d="M12.0114 55.2872H19.1456L29.0125 37.988C29.2646 37.5461 29.9056 37.5578 30.1415 38.0086L39.1816 55.2872L46.8176 55.2872C47.8052 55.2872 48.4246 54.2207 47.9353 53.3628L33.4272 27.9286C33.1198 27.3896 32.4715 27.1468 31.8856 27.3512L24.7832 29.8288C24.4911 29.9307 24.2455 30.1343 24.0914 30.4025L10.8957 53.3591C10.4026 54.217 11.0219 55.2872 12.0114 55.2872Z" fill="url(#paint1_linear_8445_1108)"/>
<path d="M35.4464 12.8281L43.2016 26.3154C43.4974 26.8298 42.9982 27.4364 42.4365 27.2452L34.9013 24.68C34.7641 24.6333 34.615 24.6343 34.4784 24.6829L27.3666 27.2115C26.8034 27.4117 26.2954 26.8027 26.5933 26.2846L34.3308 12.8281C34.5782 12.3978 35.199 12.3978 35.4464 12.8281Z" fill="#32CCF2"/>
</g>
<path d="M81.8185 46.4981C81.0067 46.4981 80.4144 46.391 80.0414 46.1768C79.6684 45.9626 79.4819 45.6627 79.4819 45.2771V27.2522H74.6772C73.9093 27.2522 73.5254 26.6524 73.5254 25.4529V24.1035C73.5254 22.9254 73.9093 22.3363 74.6772 22.3363H89.9141C90.682 22.3363 91.0659 22.9254 91.0659 24.1035V25.4529C91.0659 26.6524 90.682 27.2522 89.9141 27.2522H85.1094V45.2771C85.1094 45.6627 84.9229 45.9626 84.5499 46.1768C84.1989 46.391 83.6065 46.4981 82.7729 46.4981H81.8185Z" fill="#2C2C31"/>
<path d="M94.597 46.5663C93.8072 46.5663 93.2258 46.4699 92.8528 46.2772C92.5018 46.063 92.3263 45.7524 92.3263 45.3454V23.497C92.3263 23.09 92.5018 22.7901 92.8528 22.5974C93.2258 22.3832 93.8072 22.2761 94.597 22.2761H95.4855C96.2754 22.2761 96.8458 22.3832 97.1968 22.5974C97.5698 22.7901 97.7563 23.09 97.7563 23.497V31.6901C98.1292 31.2403 98.568 30.8548 99.0726 30.5335C99.5992 30.1907 100.17 29.923 100.784 29.7302C101.42 29.5374 102.078 29.441 102.758 29.441C103.812 29.441 104.689 29.6231 105.391 29.9873C106.093 30.3514 106.62 30.8976 106.971 31.6259C107.344 32.3327 107.53 33.211 107.53 34.2605V45.3454C107.53 45.7524 107.344 46.063 106.971 46.2772C106.62 46.4699 106.049 46.5663 105.26 46.5663H104.338C103.548 46.5663 102.967 46.4699 102.594 46.2772C102.243 46.063 102.067 45.7524 102.067 45.3454V35.4494C102.067 34.9139 101.936 34.5069 101.672 34.2284C101.431 33.95 101.014 33.8107 100.422 33.8107C100.115 33.8107 99.7966 33.875 99.4675 34.0035C99.1384 34.1106 98.8313 34.2713 98.5461 34.4855C98.2609 34.6782 98.0086 34.9139 97.7892 35.1923V45.3454C97.7892 45.7524 97.6027 46.063 97.2297 46.2772C96.8787 46.4699 96.3083 46.5663 95.5184 46.5663H94.597Z" fill="#2C2C31"/>
<path d="M113.205 46.5663C112.415 46.5663 111.834 46.4807 111.461 46.3093C111.11 46.1379 110.934 45.8809 110.934 45.5382V30.662C110.934 30.3193 111.11 30.0622 111.461 29.8909C111.834 29.7195 112.415 29.6338 113.205 29.6338H114.126C114.916 29.6338 115.486 29.7195 115.838 29.8909C116.21 30.0622 116.397 30.3193 116.397 30.662V45.5382C116.397 45.8809 116.21 46.1379 115.838 46.3093C115.486 46.4807 114.916 46.5663 114.126 46.5663H113.205ZM113.666 28.0595C112.678 28.0595 111.965 27.9631 111.526 27.7703C111.088 27.5561 110.868 27.2562 110.868 26.8706V24.6858C110.868 24.3002 111.088 24.0111 111.526 23.8183C111.965 23.6041 112.678 23.497 113.666 23.497C114.653 23.497 115.366 23.6041 115.805 23.8183C116.243 24.0111 116.463 24.3002 116.463 24.6858V26.8706C116.463 27.2562 116.243 27.5561 115.805 27.7703C115.366 27.9631 114.653 28.0595 113.666 28.0595Z" fill="#2C2C31"/>
<path d="M121.914 46.5663C121.124 46.5663 120.543 46.4699 120.17 46.2772C119.819 46.063 119.643 45.7524 119.643 45.3454V35.2887C119.643 34.282 119.61 33.5108 119.545 32.9753C119.501 32.4398 119.446 32.0329 119.38 31.7544C119.336 31.4759 119.314 31.2189 119.314 30.9833C119.314 30.7262 119.457 30.512 119.742 30.3407C120.027 30.1693 120.378 30.0408 120.795 29.9551C121.234 29.8694 121.673 29.8159 122.112 29.7945C122.55 29.7516 122.934 29.7302 123.263 29.7302C123.68 29.7302 123.976 29.7945 124.152 29.923C124.349 30.0301 124.492 30.2443 124.58 30.5656C124.689 30.8655 124.788 31.3046 124.876 31.8829C125.293 31.4117 125.764 30.994 126.291 30.6299C126.84 30.2443 127.432 29.9551 128.068 29.7623C128.704 29.5481 129.374 29.441 130.076 29.441C131.129 29.441 132.006 29.6231 132.708 29.9873C133.41 30.3514 133.937 30.8976 134.288 31.6259C134.661 32.3327 134.847 33.211 134.847 34.2605V45.3454C134.847 45.7524 134.672 46.063 134.321 46.2772C133.97 46.4699 133.388 46.5663 132.577 46.5663H131.655C130.865 46.5663 130.284 46.4699 129.911 46.2772C129.56 46.063 129.384 45.7524 129.384 45.3454V35.4494C129.384 34.9139 129.253 34.5069 128.99 34.2284C128.748 33.95 128.331 33.8107 127.739 33.8107C127.432 33.8107 127.114 33.875 126.785 34.0035C126.456 34.1106 126.148 34.2713 125.863 34.4855C125.578 34.6782 125.326 34.9139 125.106 35.1923V45.3454C125.106 45.7524 124.92 46.063 124.547 46.2772C124.196 46.4699 123.625 46.5663 122.836 46.5663H121.914Z" fill="#2C2C31"/>
<path d="M140.233 46.5663C139.443 46.5663 138.861 46.4699 138.488 46.2772C138.137 46.063 137.962 45.7524 137.962 45.3454V23.4649C137.962 23.0793 138.137 22.7794 138.488 22.5652C138.861 22.351 139.443 22.2439 140.233 22.2439H141.154C141.944 22.2439 142.514 22.351 142.865 22.5652C143.238 22.7794 143.425 23.0793 143.425 23.4649V35.9313H143.589L147.078 30.5013C147.231 30.2657 147.407 30.0944 147.604 29.9873C147.802 29.8587 148.054 29.7731 148.361 29.7302C148.668 29.666 149.074 29.6338 149.579 29.6338H150.994C151.586 29.6338 152.014 29.6767 152.277 29.7623C152.563 29.8266 152.705 29.9765 152.705 30.2122C152.705 30.3193 152.661 30.4585 152.574 30.6299C152.508 30.7798 152.398 30.9726 152.244 31.2082L147.374 38.4374V35.8349L153.034 45.0562C153.144 45.249 153.232 45.4204 153.298 45.5703C153.385 45.7202 153.429 45.8488 153.429 45.9559C153.429 46.1915 153.276 46.3521 152.968 46.4378C152.661 46.5235 152.223 46.5663 151.652 46.5663H150.237C149.381 46.5663 148.745 46.4914 148.328 46.3414C147.933 46.1701 147.604 45.8488 147.341 45.3775L143.589 39.0479H143.425V45.3454C143.425 45.7524 143.238 46.063 142.865 46.2772C142.514 46.4699 141.944 46.5663 141.154 46.5663H140.233Z" fill="#2C2C31"/>
<path d="M156.882 27.2675C156.395 27.2675 156.039 27.2161 155.815 27.1133C155.605 27.0105 155.499 26.8562 155.499 26.6506V24.4915H150.366C150.26 24.4915 150.162 24.3822 150.069 24.1637C149.977 23.9453 149.905 23.6946 149.852 23.4119C149.813 23.1292 149.793 22.9042 149.793 22.7372C149.793 22.6858 149.8 22.6343 149.813 22.5829C149.826 22.5187 149.852 22.4608 149.892 22.4094L154.71 14.197C154.841 13.9785 155.026 13.8436 155.262 13.7922C155.499 13.7279 155.94 13.6958 156.585 13.6958H157.434C157.895 13.6958 158.237 13.7472 158.461 13.85C158.698 13.9528 158.817 14.107 158.817 14.3127V22.0432H159.37C159.764 22.0432 159.962 22.3645 159.962 23.0071V23.5276C159.962 23.8617 159.916 24.1059 159.824 24.2601C159.732 24.4144 159.58 24.4915 159.37 24.4915H158.817V26.6506C158.817 26.8562 158.705 27.0105 158.481 27.1133C158.27 27.2161 157.922 27.2675 157.434 27.2675H156.882ZM152.38 23.1806L151.59 22.0432H155.499V19.2671C155.499 18.9715 155.519 18.6502 155.559 18.3032C155.611 17.9562 155.664 17.6799 155.717 17.4743L154.729 17.1851L156.191 16.5104L152.38 23.1806Z" fill="url(#paint2_linear_8445_1108)"/>
<path d="M162.058 27.2289C161.531 27.2289 161.268 26.8434 161.268 26.0723V25.359C161.268 24.5879 161.531 24.2023 162.058 24.2023H163.934V15.1995L165.652 16.9345L161.999 17.455C161.762 17.4807 161.584 17.3972 161.466 17.2044C161.347 16.9987 161.268 16.7417 161.229 16.4333C161.189 16.112 161.169 15.8035 161.169 15.5079C161.169 15.1866 161.216 14.9553 161.308 14.8139C161.413 14.6597 161.604 14.5569 161.88 14.5055L166.639 13.6572C166.797 13.6572 166.968 13.7151 167.152 13.8307C167.35 13.9335 167.449 14.0942 167.449 14.3127V24.2023H169.324C169.851 24.2023 170.114 24.5879 170.114 25.359V26.0723C170.114 26.8434 169.851 27.2289 169.324 27.2289H162.058Z" fill="url(#paint3_linear_8445_1108)"/>
<path d="M79.8596 52.5653C79.7372 52.5653 79.6463 52.5495 79.5871 52.5179C79.5318 52.4824 79.5042 52.433 79.5042 52.3698V48.6439C79.5042 48.4859 79.5772 48.4069 79.7234 48.4069H81.6248C81.7394 48.4069 81.7966 48.5056 81.7966 48.7031V48.8867C81.7966 49.0842 81.7394 49.1829 81.6248 49.1829H80.4223V50.2196H81.5715C81.686 50.2196 81.7433 50.3183 81.7433 50.5157V50.6994C81.7433 50.8968 81.686 50.9956 81.5715 50.9956H80.4223V52.3698C80.4223 52.433 80.3947 52.4824 80.3394 52.5179C80.2841 52.5495 80.1933 52.5653 80.0669 52.5653H79.8596ZM83.4799 52.6009C83.1877 52.6009 82.9705 52.5258 82.8283 52.3758C82.6861 52.2217 82.6151 51.9848 82.6151 51.6649V49.639C82.6151 49.5759 82.6427 49.5285 82.698 49.4969C82.7572 49.4613 82.85 49.4436 82.9764 49.4436H83.1423C83.2686 49.4436 83.3595 49.4613 83.4147 49.4969C83.474 49.5285 83.5036 49.5759 83.5036 49.639V51.5346C83.5036 51.6412 83.5273 51.7261 83.5747 51.7893C83.626 51.8486 83.709 51.8782 83.8235 51.8782C83.8906 51.8782 83.9577 51.8644 84.0249 51.8367C84.092 51.8051 84.1532 51.7636 84.2085 51.7123C84.2678 51.661 84.3132 51.6017 84.3448 51.5346V49.639C84.3448 49.5759 84.3724 49.5285 84.4277 49.4969C84.4869 49.4613 84.5797 49.4436 84.7061 49.4436H84.872C84.9983 49.4436 85.0892 49.4613 85.1445 49.4969C85.2037 49.5285 85.2333 49.5759 85.2333 49.639V51.5228C85.2333 51.6965 85.2373 51.8347 85.2452 51.9374C85.257 52.0401 85.2669 52.123 85.2748 52.1862C85.2866 52.2454 85.2925 52.2968 85.2925 52.3402C85.2925 52.3876 85.2629 52.4271 85.2037 52.4587C85.1484 52.4863 85.0793 52.5081 84.9964 52.5238C84.9174 52.5357 84.8404 52.5456 84.7653 52.5535C84.6943 52.5574 84.6429 52.5594 84.6113 52.5594C84.5639 52.5594 84.5284 52.5495 84.5047 52.5298C84.481 52.5061 84.4613 52.4646 84.4455 52.4054C84.4297 52.3461 84.4099 52.2612 84.3862 52.1507C84.3309 52.2257 84.2559 52.2988 84.1611 52.3698C84.0703 52.437 83.9656 52.4923 83.8472 52.5357C83.7327 52.5791 83.6102 52.6009 83.4799 52.6009ZM87.0438 52.6009C86.8543 52.6009 86.6943 52.5673 86.564 52.5002C86.4376 52.433 86.3428 52.3343 86.2797 52.204C86.2165 52.0697 86.1849 51.9058 86.1849 51.7123V48.2825C86.1849 48.2193 86.2125 48.172 86.2678 48.1404C86.327 48.1048 86.4199 48.087 86.5462 48.087H86.7121C86.8385 48.087 86.9293 48.1048 86.9846 48.1404C87.0438 48.172 87.0734 48.2193 87.0734 48.2825V51.6531C87.0734 51.74 87.0872 51.8031 87.1149 51.8426C87.1465 51.8782 87.1998 51.8959 87.2748 51.8959C87.342 51.8959 87.3933 51.888 87.4288 51.8722C87.4683 51.8525 87.5019 51.8426 87.5295 51.8426C87.5532 51.8426 87.575 51.8624 87.5947 51.9019C87.6145 51.9414 87.6302 51.9907 87.6421 52.05C87.6579 52.1052 87.6697 52.1605 87.6776 52.2158C87.6855 52.2672 87.6895 52.3066 87.6895 52.3343C87.6895 52.3817 87.6559 52.4271 87.5888 52.4705C87.5216 52.51 87.4387 52.5416 87.34 52.5653C87.2413 52.589 87.1425 52.6009 87.0438 52.6009ZM89.0393 52.6009C88.8498 52.6009 88.6898 52.5673 88.5595 52.5002C88.4331 52.433 88.3384 52.3343 88.2752 52.204C88.212 52.0697 88.1804 51.9058 88.1804 51.7123V48.2825C88.1804 48.2193 88.2081 48.172 88.2633 48.1404C88.3226 48.1048 88.4154 48.087 88.5417 48.087H88.7076C88.834 48.087 88.9248 48.1048 88.9801 48.1404C89.0393 48.172 89.069 48.2193 89.069 48.2825V51.6531C89.069 51.74 89.0828 51.8031 89.1104 51.8426C89.142 51.8782 89.1953 51.8959 89.2704 51.8959C89.3375 51.8959 89.3888 51.888 89.4244 51.8722C89.4639 51.8525 89.4974 51.8426 89.5251 51.8426C89.5488 51.8426 89.5705 51.8624 89.5902 51.9019C89.61 51.9414 89.6258 51.9907 89.6376 52.05C89.6534 52.1052 89.6653 52.1605 89.6732 52.2158C89.6811 52.2672 89.685 52.3066 89.685 52.3343C89.685 52.3817 89.6514 52.4271 89.5843 52.4705C89.5172 52.51 89.4342 52.5416 89.3355 52.5653C89.2368 52.589 89.1381 52.6009 89.0393 52.6009ZM90.1878 51.2977C90.0693 51.2977 90.0101 51.1989 90.0101 51.0015V50.96C90.0101 50.7626 90.0693 50.6638 90.1878 50.6638H91.3133C91.4317 50.6638 91.491 50.7626 91.491 50.96V51.0015C91.491 51.1989 91.4317 51.2977 91.3133 51.2977H90.1878ZM93.4476 52.6009C93.2502 52.6009 93.0725 52.5851 92.9145 52.5535C92.7605 52.5258 92.6282 52.4883 92.5176 52.4409C92.407 52.3935 92.3162 52.3481 92.2451 52.3047C92.1898 52.2691 92.1444 52.2356 92.1089 52.204C92.0733 52.1684 92.0556 52.127 92.0556 52.0796C92.0556 52.0322 92.0615 51.9789 92.0733 51.9196C92.0891 51.8565 92.1089 51.7952 92.1326 51.736C92.1602 51.6768 92.1879 51.6274 92.2155 51.5879C92.2471 51.5484 92.2787 51.5287 92.3103 51.5287C92.3458 51.5287 92.4149 51.5543 92.5176 51.6057C92.6242 51.6531 92.7486 51.7024 92.8908 51.7538C93.0369 51.8012 93.189 51.8249 93.3469 51.8249C93.4615 51.8249 93.5543 51.811 93.6253 51.7834C93.7004 51.7558 93.7557 51.7123 93.7912 51.6531C93.8307 51.5938 93.8504 51.5188 93.8504 51.428C93.8504 51.3332 93.8228 51.2542 93.7675 51.191C93.7162 51.1278 93.6471 51.0726 93.5602 51.0252C93.4733 50.9738 93.3746 50.9284 93.264 50.8889C93.1574 50.8455 93.0488 50.7981 92.9382 50.7468C92.8355 50.6994 92.7368 50.6441 92.642 50.5809C92.5472 50.5177 92.4604 50.4407 92.3814 50.3499C92.3063 50.259 92.2471 50.1485 92.2037 50.0182C92.1602 49.8878 92.1385 49.7338 92.1385 49.5561C92.1385 49.3429 92.178 49.1612 92.257 49.0111C92.3399 48.8571 92.4485 48.7327 92.5828 48.6379C92.717 48.5432 92.8671 48.4741 93.033 48.4306C93.1988 48.3832 93.3686 48.3595 93.5424 48.3595C93.6688 48.3595 93.7912 48.3694 93.9097 48.3892C94.0321 48.4089 94.1427 48.4365 94.2414 48.4721C94.3401 48.5037 94.4191 48.5412 94.4783 48.5846C94.5218 48.6123 94.5573 48.6419 94.585 48.6735C94.6126 48.7051 94.6264 48.7367 94.6264 48.7683C94.6264 48.8078 94.6185 48.8591 94.6027 48.9223C94.5909 48.9815 94.5731 49.0408 94.5494 49.1C94.5297 49.1592 94.504 49.2086 94.4724 49.2481C94.4408 49.2876 94.4073 49.3073 94.3717 49.3073C94.3243 49.3073 94.2611 49.2935 94.1822 49.2658C94.1071 49.2343 94.0163 49.2046 93.9097 49.177C93.807 49.1454 93.6905 49.1296 93.5602 49.1296C93.4496 49.1296 93.3568 49.1434 93.2818 49.1711C93.2067 49.1987 93.1495 49.2402 93.11 49.2955C93.0744 49.3468 93.0567 49.4139 93.0567 49.4969C93.0567 49.5956 93.0863 49.6785 93.1455 49.7457C93.2048 49.8088 93.2837 49.8641 93.3825 49.9115C93.4851 49.955 93.5937 50.0024 93.7083 50.0537C93.8307 50.105 93.9551 50.1623 94.0815 50.2255C94.2078 50.2887 94.3243 50.3676 94.431 50.4624C94.5376 50.5533 94.6225 50.6698 94.6857 50.8119C94.7528 50.9501 94.7864 51.1239 94.7864 51.3332C94.7864 51.5662 94.7469 51.7636 94.6679 51.9256C94.5929 52.0875 94.4902 52.2178 94.3599 52.3165C94.2295 52.4152 94.0854 52.4883 93.9274 52.5357C93.7695 52.5791 93.6095 52.6009 93.4476 52.6009ZM96.4628 52.6009C96.2732 52.6009 96.1133 52.5673 95.9829 52.5002C95.8566 52.433 95.7618 52.3343 95.6986 52.204C95.6354 52.0697 95.6038 51.9058 95.6038 51.7123V50.1485H95.4143C95.2958 50.1485 95.2366 50.0497 95.2366 49.8523V49.7516C95.2366 49.5541 95.2958 49.4554 95.4143 49.4554H95.6038L95.6986 48.8927C95.7105 48.8295 95.7401 48.7821 95.7875 48.7505C95.8388 48.7189 95.9099 48.7031 96.0007 48.7031H96.1962C96.2989 48.7031 96.3739 48.7189 96.4213 48.7505C96.4687 48.7821 96.4924 48.8295 96.4924 48.8927V49.4554H96.8537C96.9722 49.4554 97.0314 49.5541 97.0314 49.7516V49.8523C97.0314 50.0497 96.9722 50.1485 96.8537 50.1485H96.4924V51.6531C96.4924 51.74 96.5062 51.8031 96.5338 51.8426C96.5654 51.8782 96.6187 51.8959 96.6938 51.8959C96.7609 51.8959 96.8123 51.888 96.8478 51.8722C96.8873 51.8525 96.9209 51.8426 96.9485 51.8426C96.9722 51.8426 96.9939 51.8624 97.0137 51.9019C97.0334 51.9414 97.0492 51.9907 97.061 52.05C97.0768 52.1052 97.0887 52.1605 97.0966 52.2158C97.1045 52.2672 97.1084 52.3066 97.1084 52.3343C97.1084 52.3817 97.0749 52.4271 97.0077 52.4705C96.9406 52.51 96.8577 52.5416 96.7589 52.5653C96.6602 52.589 96.5615 52.6009 96.4628 52.6009ZM98.523 52.6009C98.2031 52.6009 97.976 52.5179 97.8418 52.3521C97.7114 52.1823 97.6463 51.9769 97.6463 51.736C97.6463 51.6136 97.6641 51.4892 97.6996 51.3628C97.7391 51.2325 97.8161 51.112 97.9306 51.0015C98.0451 50.8909 98.215 50.802 98.4401 50.7349C98.6691 50.6678 98.9712 50.6342 99.3464 50.6342V50.4565C99.3464 50.3736 99.3306 50.3064 99.299 50.2551C99.2674 50.2038 99.218 50.1662 99.1509 50.1425C99.0838 50.1149 98.9949 50.1011 98.8843 50.1011C98.7422 50.1011 98.6138 50.1169 98.4993 50.1485C98.3887 50.1761 98.2939 50.2057 98.215 50.2373C98.1399 50.2689 98.0827 50.2847 98.0432 50.2847C98.0155 50.2847 97.9879 50.2669 97.9602 50.2314C97.9326 50.1919 97.9069 50.1465 97.8832 50.0952C97.8635 50.0399 97.8477 49.9866 97.8358 49.9352C97.824 49.8839 97.8181 49.8444 97.8181 49.8167C97.8181 49.7615 97.8516 49.7101 97.9188 49.6627C97.9859 49.6153 98.0748 49.5719 98.1853 49.5324C98.2959 49.4929 98.4183 49.4633 98.5526 49.4436C98.6869 49.4199 98.8192 49.408 98.9495 49.408C99.1825 49.408 99.3799 49.4337 99.5418 49.485C99.7038 49.5324 99.8341 49.6015 99.9328 49.6924C100.035 49.7792 100.109 49.8839 100.152 50.0063C100.199 50.1248 100.223 50.2551 100.223 50.3973V51.5109C100.223 51.7163 100.229 51.8742 100.241 51.9848C100.253 52.0914 100.265 52.1724 100.276 52.2277C100.288 52.279 100.294 52.3264 100.294 52.3698C100.294 52.4054 100.267 52.435 100.211 52.4587C100.16 52.4824 100.095 52.5021 100.016 52.5179C99.9407 52.5337 99.8657 52.5456 99.7906 52.5535C99.7196 52.5574 99.6662 52.5594 99.6307 52.5594C99.5675 52.5594 99.5201 52.5377 99.4885 52.4942C99.4609 52.4468 99.4411 52.3916 99.4293 52.3284C99.4175 52.2612 99.4056 52.202 99.3938 52.1507C99.3819 52.1744 99.3404 52.2237 99.2694 52.2988C99.2022 52.3698 99.1055 52.4389 98.9791 52.5061C98.8567 52.5693 98.7046 52.6009 98.523 52.6009ZM98.8132 51.9078C98.8883 51.9078 98.9594 51.892 99.0265 51.8604C99.0976 51.8288 99.1608 51.7854 99.216 51.7301C99.2713 51.6708 99.3148 51.6057 99.3464 51.5346V51.2088C99.2042 51.2088 99.0818 51.2187 98.9791 51.2384C98.8764 51.2582 98.7895 51.2858 98.7185 51.3214C98.6513 51.3569 98.6 51.4023 98.5644 51.4576C98.5329 51.5129 98.5171 51.5761 98.5171 51.6472C98.5171 51.7222 98.5408 51.7854 98.5881 51.8367C98.6395 51.8841 98.7145 51.9078 98.8132 51.9078ZM102.574 52.6009C102.053 52.6009 101.678 52.4705 101.449 52.2099C101.224 51.9493 101.111 51.5543 101.111 51.0252C101.111 50.496 101.232 50.0952 101.472 49.8227C101.717 49.5462 102.104 49.408 102.634 49.408C102.74 49.408 102.851 49.4199 102.965 49.4436C103.08 49.4633 103.186 49.4929 103.285 49.5324C103.384 49.5719 103.463 49.6153 103.522 49.6627C103.585 49.7101 103.617 49.7615 103.617 49.8167C103.617 49.8523 103.603 49.9076 103.575 49.9826C103.548 50.0537 103.514 50.1208 103.475 50.184C103.435 50.2432 103.396 50.2729 103.356 50.2729C103.317 50.2729 103.265 50.259 103.202 50.2314C103.139 50.1998 103.06 50.1702 102.965 50.1425C102.87 50.1149 102.756 50.1011 102.622 50.1011C102.404 50.1011 102.248 50.1722 102.154 50.3143C102.059 50.4565 102.012 50.6855 102.012 51.0015C102.012 51.3214 102.059 51.5524 102.154 51.6945C102.248 51.8367 102.404 51.9078 102.622 51.9078C102.76 51.9078 102.88 51.892 102.983 51.8604C103.086 51.8249 103.173 51.7913 103.244 51.7597C103.315 51.7242 103.37 51.7064 103.41 51.7064C103.449 51.7064 103.485 51.736 103.516 51.7952C103.552 51.8545 103.579 51.9216 103.599 51.9966C103.623 52.0677 103.635 52.123 103.635 52.1625C103.635 52.2217 103.599 52.277 103.528 52.3284C103.461 52.3797 103.372 52.4271 103.261 52.4705C103.155 52.51 103.04 52.5416 102.918 52.5653C102.795 52.589 102.681 52.6009 102.574 52.6009ZM104.679 52.5653C104.553 52.5653 104.46 52.5495 104.401 52.5179C104.346 52.4824 104.318 52.433 104.318 52.3698V48.2825C104.318 48.2193 104.346 48.172 104.401 48.1404C104.46 48.1048 104.553 48.087 104.679 48.087H104.845C104.971 48.087 105.062 48.1048 105.118 48.1404C105.177 48.172 105.206 48.2193 105.206 48.2825V50.6224H105.236L105.923 49.5798C105.947 49.5403 105.975 49.5127 106.006 49.4969C106.038 49.4771 106.079 49.4633 106.131 49.4554C106.186 49.4475 106.261 49.4436 106.356 49.4436H106.545C106.652 49.4436 106.731 49.4495 106.782 49.4613C106.837 49.4692 106.865 49.4949 106.865 49.5383C106.865 49.5581 106.857 49.5838 106.841 49.6153C106.826 49.6469 106.802 49.6845 106.77 49.7279L105.923 50.9363V50.6698L106.907 52.3106C106.926 52.3422 106.942 52.3718 106.954 52.3995C106.966 52.4231 106.972 52.4449 106.972 52.4646C106.972 52.5081 106.942 52.5357 106.883 52.5475C106.828 52.5594 106.749 52.5653 106.646 52.5653H106.456C106.31 52.5653 106.204 52.5535 106.136 52.5298C106.069 52.5021 106.014 52.4508 105.971 52.3758L105.236 51.0963H105.206V52.3698C105.206 52.433 105.177 52.4824 105.118 52.5179C105.062 52.5495 104.971 52.5653 104.845 52.5653H104.679ZM111.176 52.6009C110.512 52.6009 110.021 52.4291 109.701 52.0855C109.385 51.738 109.227 51.1989 109.227 50.4683C109.227 49.7615 109.393 49.2343 109.725 48.8867C110.056 48.5353 110.55 48.3595 111.205 48.3595C111.3 48.3595 111.397 48.3655 111.496 48.3773C111.598 48.3852 111.699 48.399 111.798 48.4188C111.897 48.4385 111.987 48.4622 112.07 48.4899C112.157 48.5175 112.23 48.5491 112.289 48.5846C112.337 48.6123 112.374 48.6419 112.402 48.6735C112.43 48.7051 112.443 48.7386 112.443 48.7742C112.443 48.8137 112.432 48.865 112.408 48.9282C112.388 48.9874 112.361 49.0467 112.325 49.1059C112.293 49.1651 112.258 49.2145 112.218 49.254C112.179 49.2935 112.141 49.3132 112.106 49.3132C112.058 49.3132 112.007 49.3053 111.952 49.2895C111.897 49.2698 111.833 49.2501 111.762 49.2303C111.691 49.2066 111.608 49.1869 111.513 49.1711C111.423 49.1513 111.314 49.1415 111.188 49.1415C110.84 49.1415 110.581 49.252 110.412 49.4732C110.246 49.6943 110.163 50.028 110.163 50.4743C110.163 50.8099 110.2 51.0765 110.275 51.274C110.35 51.4714 110.463 51.6136 110.613 51.7005C110.763 51.7834 110.951 51.8249 111.176 51.8249C111.282 51.8249 111.387 51.817 111.49 51.8012C111.592 51.7854 111.687 51.7636 111.774 51.736C111.865 51.7084 111.936 51.6787 111.987 51.6472L111.697 52.0855V50.8889H111.087C110.968 50.8889 110.909 50.7902 110.909 50.5927V50.421C110.909 50.2235 110.968 50.1248 111.087 50.1248H112.355C112.501 50.1248 112.574 50.2038 112.574 50.3617V52.127C112.574 52.1783 112.558 52.2257 112.526 52.2691C112.499 52.3086 112.453 52.3442 112.39 52.3758C112.311 52.4192 112.205 52.4587 112.07 52.4942C111.936 52.5258 111.79 52.5515 111.632 52.5712C111.478 52.591 111.326 52.6009 111.176 52.6009ZM114.972 52.6009C114.435 52.6009 114.042 52.4587 113.793 52.1744C113.548 51.8861 113.426 51.503 113.426 51.0252C113.426 50.6342 113.487 50.3203 113.61 50.0833C113.732 49.8464 113.902 49.6746 114.119 49.568C114.336 49.4613 114.585 49.408 114.866 49.408C115.177 49.408 115.426 49.4791 115.612 49.6213C115.797 49.7595 115.932 49.9431 116.015 50.1722C116.102 50.3973 116.145 50.6421 116.145 50.9067C116.145 50.958 116.125 51.0133 116.086 51.0726C116.05 51.1318 116.007 51.1831 115.955 51.2266C115.904 51.2661 115.857 51.2858 115.813 51.2858H114.326C114.334 51.5228 114.401 51.6866 114.528 51.7775C114.658 51.8644 114.82 51.9078 115.014 51.9078C115.148 51.9078 115.266 51.89 115.369 51.8545C115.476 51.815 115.564 51.7775 115.636 51.7419C115.711 51.7064 115.768 51.6886 115.807 51.6886C115.847 51.6886 115.886 51.7182 115.926 51.7775C115.965 51.8367 115.999 51.9038 116.027 51.9789C116.054 52.05 116.068 52.1052 116.068 52.1447C116.068 52.204 116.029 52.2612 115.95 52.3165C115.874 52.3718 115.778 52.4212 115.659 52.4646C115.541 52.5081 115.42 52.5416 115.298 52.5653C115.176 52.589 115.067 52.6009 114.972 52.6009ZM114.315 50.6994H115.31C115.31 50.5019 115.27 50.3538 115.191 50.2551C115.112 50.1524 114.992 50.1011 114.83 50.1011C114.759 50.1011 114.684 50.1149 114.605 50.1425C114.526 50.1702 114.459 50.2275 114.403 50.3143C114.348 50.3973 114.319 50.5256 114.315 50.6994ZM117.312 52.5653C117.186 52.5653 117.093 52.5495 117.034 52.5179C116.979 52.4824 116.951 52.433 116.951 52.3698V50.4861C116.951 50.3124 116.945 50.1741 116.933 50.0715C116.925 49.9648 116.915 49.8819 116.904 49.8227C116.896 49.7634 116.892 49.7121 116.892 49.6687C116.892 49.6252 116.919 49.5897 116.975 49.562C117.034 49.5344 117.103 49.5146 117.182 49.5028C117.265 49.487 117.342 49.4771 117.413 49.4732C117.488 49.4653 117.541 49.4613 117.573 49.4613C117.62 49.4613 117.656 49.4732 117.68 49.4969C117.703 49.5166 117.723 49.5541 117.739 49.6094C117.759 49.6647 117.778 49.7476 117.798 49.8582C117.857 49.7832 117.93 49.7121 118.017 49.645C118.108 49.5739 118.209 49.5166 118.319 49.4732C118.434 49.4297 118.554 49.408 118.681 49.408C118.882 49.408 119.048 49.4436 119.178 49.5146C119.313 49.5818 119.411 49.6864 119.474 49.8286C119.538 49.9668 119.569 50.1465 119.569 50.3676V52.3698C119.569 52.433 119.54 52.4824 119.48 52.5179C119.425 52.5495 119.334 52.5653 119.208 52.5653H119.042C118.916 52.5653 118.823 52.5495 118.764 52.5179C118.708 52.4824 118.681 52.433 118.681 52.3698V50.498C118.681 50.3834 118.655 50.2946 118.604 50.2314C118.552 50.1643 118.463 50.1307 118.337 50.1307C118.274 50.1307 118.209 50.1465 118.142 50.1781C118.078 50.2057 118.019 50.2452 117.964 50.2966C117.913 50.3479 117.871 50.4071 117.84 50.4743V52.3698C117.84 52.433 117.81 52.4824 117.751 52.5179C117.695 52.5495 117.605 52.5653 117.478 52.5653H117.312ZM120.503 52.5653C120.381 52.5653 120.29 52.5535 120.231 52.5298C120.171 52.5061 120.142 52.4745 120.142 52.435C120.142 52.4192 120.144 52.4034 120.148 52.3876C120.156 52.3679 120.161 52.3481 120.165 52.3284L121.469 48.5195C121.484 48.476 121.52 48.4444 121.575 48.4247C121.631 48.4049 121.708 48.3951 121.806 48.3951H122.114C122.217 48.3951 122.294 48.4049 122.345 48.4247C122.401 48.4444 122.436 48.476 122.452 48.5195L123.755 52.3284C123.763 52.3481 123.767 52.3679 123.767 52.3876C123.771 52.4034 123.773 52.4192 123.773 52.435C123.773 52.4745 123.749 52.5061 123.702 52.5298C123.654 52.5535 123.579 52.5653 123.477 52.5653H123.216C123.129 52.5653 123.056 52.5574 122.997 52.5416C122.938 52.5219 122.9 52.4883 122.884 52.4409L122.055 49.8819C122.035 49.8187 122.018 49.7555 122.002 49.6924C121.99 49.6292 121.978 49.566 121.966 49.5028H121.942C121.931 49.566 121.917 49.6292 121.901 49.6924C121.889 49.7555 121.873 49.8187 121.854 49.8819L121.012 52.4409C120.997 52.4844 120.965 52.516 120.918 52.5357C120.87 52.5554 120.811 52.5653 120.74 52.5653H120.503ZM120.947 51.6827V50.9659H122.973V51.6827H120.947ZM124.752 52.5653C124.63 52.5653 124.539 52.5495 124.479 52.5179C124.424 52.4824 124.397 52.433 124.397 52.3698V48.5906C124.397 48.5274 124.424 48.48 124.479 48.4484C124.539 48.4128 124.63 48.3951 124.752 48.3951H124.959C125.086 48.3951 125.176 48.4128 125.232 48.4484C125.287 48.48 125.315 48.5274 125.315 48.5906V52.3698C125.315 52.433 125.287 52.4824 125.232 52.5179C125.176 52.5495 125.086 52.5653 124.959 52.5653H124.752ZM129.801 52.6009C129.138 52.6009 128.646 52.4291 128.327 52.0855C128.011 51.738 127.853 51.1989 127.853 50.4683C127.853 49.7615 128.018 49.2343 128.35 48.8867C128.682 48.5353 129.176 48.3595 129.831 48.3595C129.957 48.3595 130.088 48.3694 130.222 48.3892C130.36 48.4049 130.491 48.4306 130.613 48.4662C130.735 48.4978 130.836 48.5372 130.915 48.5846C130.963 48.6123 131 48.6419 131.028 48.6735C131.055 48.7051 131.069 48.7386 131.069 48.7742C131.069 48.8137 131.059 48.865 131.04 48.9282C131.024 48.9874 131.002 49.0467 130.974 49.1059C130.947 49.1651 130.915 49.2145 130.88 49.254C130.844 49.2935 130.809 49.3132 130.773 49.3132C130.726 49.3132 130.658 49.2994 130.572 49.2718C130.485 49.2402 130.378 49.2106 130.252 49.1829C130.129 49.1553 129.983 49.1415 129.813 49.1415C129.58 49.1415 129.387 49.1908 129.233 49.2895C129.083 49.3883 128.97 49.5364 128.895 49.7338C128.824 49.9313 128.789 50.1781 128.789 50.4743C128.789 50.7705 128.826 51.0192 128.901 51.2206C128.976 51.4181 129.089 51.5682 129.239 51.6708C129.389 51.7735 129.576 51.8249 129.801 51.8249C129.944 51.8249 130.072 51.813 130.187 51.7893C130.301 51.7656 130.402 51.738 130.489 51.7064C130.576 51.6748 130.649 51.6472 130.708 51.6235C130.767 51.5998 130.81 51.5879 130.838 51.5879C130.886 51.5879 130.927 51.6096 130.963 51.6531C130.998 51.6965 131.028 51.7479 131.051 51.8071C131.075 51.8663 131.093 51.9256 131.105 51.9848C131.117 52.0401 131.122 52.0796 131.122 52.1033C131.122 52.1704 131.107 52.2198 131.075 52.2514C131.043 52.283 130.982 52.3244 130.891 52.3758C130.797 52.4271 130.684 52.4705 130.554 52.5061C130.427 52.5377 130.297 52.5614 130.163 52.5772C130.033 52.593 129.912 52.6009 129.801 52.6009ZM133.179 52.6009C132.709 52.6009 132.351 52.4626 132.107 52.1862C131.862 51.9098 131.739 51.5149 131.739 51.0015C131.739 50.4841 131.862 50.0892 132.107 49.8167C132.351 49.5443 132.709 49.408 133.179 49.408C133.649 49.408 134.004 49.5443 134.245 49.8167C134.49 50.0892 134.612 50.4841 134.612 51.0015C134.612 51.5149 134.49 51.9098 134.245 52.1862C134.004 52.4626 133.649 52.6009 133.179 52.6009ZM133.179 51.9078C133.364 51.9078 133.499 51.8308 133.582 51.6768C133.668 51.5228 133.712 51.2977 133.712 51.0015C133.712 50.7053 133.668 50.4822 133.582 50.3321C133.499 50.1781 133.364 50.1011 133.179 50.1011C132.993 50.1011 132.857 50.1781 132.77 50.3321C132.683 50.4822 132.64 50.7053 132.64 51.0015C132.64 51.2977 132.683 51.5228 132.77 51.6768C132.857 51.8308 132.993 51.9078 133.179 51.9078ZM135.805 52.5653C135.679 52.5653 135.586 52.5495 135.527 52.5179C135.471 52.4824 135.444 52.433 135.444 52.3698V50.4861C135.444 50.3124 135.438 50.1741 135.426 50.0715C135.418 49.9648 135.408 49.8819 135.396 49.8227C135.388 49.7634 135.384 49.7121 135.384 49.6687C135.384 49.6252 135.412 49.5897 135.467 49.562C135.527 49.5344 135.596 49.5146 135.675 49.5028C135.758 49.487 135.835 49.4771 135.906 49.4732C135.981 49.4653 136.034 49.4613 136.066 49.4613C136.113 49.4613 136.149 49.4732 136.172 49.4969C136.196 49.5166 136.216 49.5541 136.231 49.6094C136.251 49.6647 136.271 49.7476 136.291 49.8582C136.346 49.7832 136.417 49.7121 136.504 49.645C136.595 49.5739 136.695 49.5166 136.806 49.4732C136.921 49.4297 137.041 49.408 137.167 49.408C137.314 49.408 137.442 49.4278 137.552 49.4673C137.667 49.5028 137.76 49.5581 137.831 49.6331C137.906 49.7042 137.959 49.795 137.991 49.9056C138.042 49.8227 138.111 49.7437 138.198 49.6687C138.289 49.5936 138.394 49.5324 138.512 49.485C138.631 49.4337 138.757 49.408 138.891 49.408C139.097 49.408 139.264 49.4436 139.395 49.5146C139.529 49.5818 139.628 49.6864 139.691 49.8286C139.758 49.9668 139.792 50.1465 139.792 50.3676V52.3698C139.792 52.433 139.762 52.4824 139.703 52.5179C139.647 52.5495 139.557 52.5653 139.43 52.5653H139.264C139.138 52.5653 139.045 52.5495 138.986 52.5179C138.931 52.4824 138.903 52.433 138.903 52.3698V50.498C138.903 50.3834 138.875 50.2946 138.82 50.2314C138.769 50.1643 138.678 50.1307 138.548 50.1307C138.5 50.1307 138.451 50.1406 138.4 50.1603C138.352 50.1761 138.305 50.2018 138.257 50.2373C138.21 50.2729 138.163 50.3183 138.115 50.3736C138.072 50.4249 138.032 50.4861 137.997 50.5572L138.003 50.0774C138.022 50.1287 138.036 50.1781 138.044 50.2255C138.056 50.2729 138.062 50.3222 138.062 50.3736V52.3698C138.062 52.433 138.032 52.4824 137.973 52.5179C137.918 52.5495 137.827 52.5653 137.701 52.5653H137.535C137.408 52.5653 137.315 52.5495 137.256 52.5179C137.201 52.4824 137.173 52.433 137.173 52.3698V50.498C137.173 50.3834 137.146 50.2946 137.09 50.2314C137.039 50.1643 136.948 50.1307 136.818 50.1307C136.755 50.1307 136.692 50.1465 136.628 50.1781C136.565 50.2057 136.508 50.2452 136.457 50.2966C136.405 50.3479 136.364 50.4071 136.332 50.4743V52.3698C136.332 52.433 136.303 52.4824 136.243 52.5179C136.188 52.5495 136.097 52.5653 135.971 52.5653H135.805ZM141.063 53.7737C140.937 53.7737 140.844 53.756 140.785 53.7204C140.729 53.6888 140.702 53.6414 140.702 53.5783V50.4861C140.702 50.3124 140.696 50.1741 140.684 50.0715C140.676 49.9648 140.666 49.8819 140.654 49.8227C140.646 49.7634 140.643 49.7121 140.643 49.6687C140.643 49.6252 140.67 49.5897 140.725 49.562C140.785 49.5344 140.854 49.5146 140.933 49.5028C141.016 49.487 141.093 49.4771 141.164 49.4732C141.239 49.4653 141.292 49.4613 141.324 49.4613C141.371 49.4613 141.407 49.4732 141.43 49.4969C141.454 49.5166 141.474 49.5541 141.49 49.6094C141.509 49.6647 141.529 49.7476 141.549 49.8582C141.596 49.7713 141.659 49.6943 141.738 49.6272C141.821 49.5601 141.916 49.5067 142.023 49.4673C142.129 49.4278 142.244 49.408 142.366 49.408C142.587 49.408 142.783 49.4692 142.953 49.5916C143.123 49.7141 143.257 49.8957 143.356 50.1366C143.454 50.3736 143.504 50.6638 143.504 51.0074C143.504 51.3273 143.454 51.6077 143.356 51.8486C143.257 52.0855 143.111 52.2711 142.917 52.4054C142.728 52.5357 142.497 52.6009 142.224 52.6009C142.125 52.6009 142.037 52.591 141.958 52.5712C141.879 52.5554 141.808 52.5337 141.744 52.5061C141.685 52.4745 141.634 52.4449 141.59 52.4172V53.5783C141.59 53.6414 141.561 53.6888 141.501 53.7204C141.446 53.756 141.355 53.7737 141.229 53.7737H141.063ZM142.035 51.9078C142.228 51.9078 142.37 51.8328 142.461 51.6827C142.556 51.5287 142.603 51.3036 142.603 51.0074C142.603 50.7191 142.562 50.4999 142.479 50.3499C142.4 50.1998 142.275 50.1248 142.106 50.1248C141.987 50.1248 141.885 50.1603 141.798 50.2314C141.715 50.3025 141.646 50.3834 141.59 50.4743V51.7952C141.642 51.8229 141.703 51.8486 141.774 51.8722C141.849 51.8959 141.936 51.9078 142.035 51.9078ZM145.116 52.6009C144.796 52.6009 144.569 52.5179 144.435 52.3521C144.305 52.1823 144.24 51.9769 144.24 51.736C144.24 51.6136 144.257 51.4892 144.293 51.3628C144.332 51.2325 144.409 51.112 144.524 51.0015C144.638 50.8909 144.808 50.802 145.033 50.7349C145.262 50.6678 145.565 50.6342 145.94 50.6342V50.4565C145.94 50.3736 145.924 50.3064 145.892 50.2551C145.861 50.2038 145.811 50.1662 145.744 50.1425C145.677 50.1149 145.588 50.1011 145.478 50.1011C145.335 50.1011 145.207 50.1169 145.093 50.1485C144.982 50.1761 144.887 50.2057 144.808 50.2373C144.733 50.2689 144.676 50.2847 144.636 50.2847C144.609 50.2847 144.581 50.2669 144.554 50.2314C144.526 50.1919 144.5 50.1465 144.477 50.0952C144.457 50.0399 144.441 49.9866 144.429 49.9352C144.417 49.8839 144.411 49.8444 144.411 49.8167C144.411 49.7615 144.445 49.7101 144.512 49.6627C144.579 49.6153 144.668 49.5719 144.779 49.5324C144.889 49.4929 145.012 49.4633 145.146 49.4436C145.28 49.4199 145.412 49.408 145.543 49.408C145.776 49.408 145.973 49.4337 146.135 49.485C146.297 49.5324 146.427 49.6015 146.526 49.6924C146.629 49.7792 146.702 49.8839 146.745 50.0063C146.793 50.1248 146.816 50.2551 146.816 50.3973V51.5109C146.816 51.7163 146.822 51.8742 146.834 51.9848C146.846 52.0914 146.858 52.1724 146.87 52.2277C146.882 52.279 146.887 52.3264 146.887 52.3698C146.887 52.4054 146.86 52.435 146.805 52.4587C146.753 52.4824 146.688 52.5021 146.609 52.5179C146.534 52.5337 146.459 52.5456 146.384 52.5535C146.313 52.5574 146.26 52.5594 146.224 52.5594C146.161 52.5594 146.113 52.5377 146.082 52.4942C146.054 52.4468 146.034 52.3916 146.023 52.3284C146.011 52.2612 145.999 52.202 145.987 52.1507C145.975 52.1744 145.934 52.2237 145.863 52.2988C145.796 52.3698 145.699 52.4389 145.572 52.5061C145.45 52.5693 145.298 52.6009 145.116 52.6009ZM145.407 51.9078C145.482 51.9078 145.553 51.892 145.62 51.8604C145.691 51.8288 145.754 51.7854 145.809 51.7301C145.865 51.6708 145.908 51.6057 145.94 51.5346V51.2088C145.798 51.2088 145.675 51.2187 145.572 51.2384C145.47 51.2582 145.383 51.2858 145.312 51.3214C145.245 51.3569 145.193 51.4023 145.158 51.4576C145.126 51.5129 145.11 51.5761 145.11 51.6472C145.11 51.7222 145.134 51.7854 145.181 51.8367C145.233 51.8841 145.308 51.9078 145.407 51.9078ZM148.161 52.5653C148.034 52.5653 147.941 52.5495 147.882 52.5179C147.827 52.4824 147.799 52.433 147.799 52.3698V50.4861C147.799 50.3124 147.793 50.1741 147.781 50.0715C147.774 49.9648 147.764 49.8819 147.752 49.8227C147.744 49.7634 147.74 49.7121 147.74 49.6687C147.74 49.6252 147.768 49.5897 147.823 49.562C147.882 49.5344 147.951 49.5146 148.03 49.5028C148.113 49.487 148.19 49.4771 148.261 49.4732C148.336 49.4653 148.39 49.4613 148.421 49.4613C148.469 49.4613 148.504 49.4732 148.528 49.4969C148.552 49.5166 148.571 49.5541 148.587 49.6094C148.607 49.6647 148.627 49.7476 148.646 49.8582C148.706 49.7832 148.779 49.7121 148.866 49.645C148.956 49.5739 149.057 49.5166 149.168 49.4732C149.282 49.4297 149.403 49.408 149.529 49.408C149.73 49.408 149.896 49.4436 150.027 49.5146C150.161 49.5818 150.26 49.6864 150.323 49.8286C150.386 49.9668 150.418 50.1465 150.418 50.3676V52.3698C150.418 52.433 150.388 52.4824 150.329 52.5179C150.273 52.5495 150.183 52.5653 150.056 52.5653H149.89C149.764 52.5653 149.671 52.5495 149.612 52.5179C149.557 52.4824 149.529 52.433 149.529 52.3698V50.498C149.529 50.3834 149.503 50.2946 149.452 50.2314C149.401 50.1643 149.312 50.1307 149.185 50.1307C149.122 50.1307 149.057 50.1465 148.99 50.1781C148.927 50.2057 148.867 50.2452 148.812 50.2966C148.761 50.3479 148.719 50.4071 148.688 50.4743V52.3698C148.688 52.433 148.658 52.4824 148.599 52.5179C148.544 52.5495 148.453 52.5653 148.326 52.5653H148.161ZM152.009 53.7737C151.886 53.7737 151.796 53.7619 151.736 53.7382C151.681 53.7184 151.653 53.6888 151.653 53.6493C151.653 53.6335 151.655 53.6158 151.659 53.596C151.663 53.5802 151.669 53.5625 151.677 53.5427L152.157 52.2336L152.169 52.8852L151.061 49.6805C151.057 49.6608 151.051 49.643 151.043 49.6272C151.039 49.6074 151.037 49.5897 151.037 49.5739C151.037 49.5304 151.067 49.4988 151.126 49.4791C151.185 49.4554 151.276 49.4436 151.399 49.4436H151.594C151.681 49.4436 151.754 49.4534 151.813 49.4732C151.873 49.489 151.91 49.5206 151.926 49.568L152.447 51.4398H152.471L152.98 49.568C152.996 49.5206 153.034 49.489 153.093 49.4732C153.152 49.4534 153.225 49.4436 153.312 49.4436H153.46C153.586 49.4436 153.677 49.4554 153.733 49.4791C153.788 49.4988 153.816 49.5304 153.816 49.5739C153.816 49.5897 153.814 49.6074 153.81 49.6272C153.81 49.643 153.806 49.6608 153.798 49.6805L152.441 53.6493C152.425 53.6967 152.388 53.7283 152.329 53.7441C152.269 53.7639 152.196 53.7737 152.11 53.7737H152.009Z" fill="#2C2C31"/>
<rect x="76.3496" y="45.4146" width="80.2982" height="2.30364" fill="#F4F9FF"/>
<defs>
<filter id="filter0_d_8445_1108" x="-1.75014" y="0.032815" width="73.2679" height="67.7269" filterUnits="userSpaceOnUse" color-interpolation-filters="sRGB">
<feFlood flood-opacity="0" result="BackgroundImageFix"/>
<feColorMatrix in="SourceAlpha" type="matrix" values="0 0 0 0 0 0 0 0 0 0 0 0 0 0 0 0 0 0 127 0" result="hardAlpha"/>
<feOffset/>
<feGaussianBlur stdDeviation="2.28718"/>
<feComposite in2="hardAlpha" operator="out"/>
<feColorMatrix type="matrix" values="0 0 0 0 0 0 0 0 0 0 0 0 0 0 0 0 0 0 0.25 0"/>
<feBlend mode="normal" in2="BackgroundImageFix" result="effect1_dropShadow_8445_1108"/>
<feBlend mode="normal" in="SourceGraphic" in2="effect1_dropShadow_8445_1108" result="shape"/>
</filter>
<linearGradient id="paint0_linear_8445_1108" x1="34.8843" y1="12.5054" x2="34.8843" y2="55.2872" gradientUnits="userSpaceOnUse">
<stop stop-color="#1D72D1"/>
<stop offset="1" stop-color="#6D3BF5"/>
</linearGradient>
<linearGradient id="paint1_linear_8445_1108" x1="34.8843" y1="12.5054" x2="34.8843" y2="55.2872" gradientUnits="userSpaceOnUse">
<stop stop-color="#1D72D1"/>
<stop offset="1" stop-color="#6D3BF5"/>
</linearGradient>
<linearGradient id="paint2_linear_8445_1108" x1="121.82" y1="13.6572" x2="121.82" y2="46.5663" gradientUnits="userSpaceOnUse">
<stop stop-color="#025FC8"/>
<stop offset="1" stop-color="#5A26E9"/>
</linearGradient>
<linearGradient id="paint3_linear_8445_1108" x1="121.82" y1="13.6572" x2="121.82" y2="46.5663" gradientUnits="userSpaceOnUse">
<stop stop-color="#025FC8"/>
<stop offset="1" stop-color="#5A26E9"/>
</linearGradient>
</defs>
</svg>
