<svg width="186" height="165" viewBox="0 0 186 165" fill="none" xmlns="http://www.w3.org/2000/svg">
<path d="M180.901 164.588H158.704C156.934 164.588 155.3 163.64 154.42 162.104L94.0642 56.6623C93.4962 55.6701 94.4663 54.5058 95.5447 54.8852L131.963 67.6989C133.072 68.0893 134.006 68.863 134.595 69.8806L185.172 157.178C187.078 160.468 184.704 164.588 180.901 164.588Z" fill="url(#paint0_linear_7916_19052)"/>
<path d="M5.42761 164.589H32.7936L70.6413 98.232C71.6082 96.5368 74.0671 96.5815 74.9718 98.3107L109.648 164.589L138.939 164.589C142.727 164.589 145.103 160.498 143.226 157.207L87.5753 59.6457C86.396 57.5783 83.9093 56.6469 81.6621 57.4308L54.4182 66.9345C53.2979 67.3253 52.3559 68.1065 51.7646 69.1352L1.14829 157.193C-0.743169 160.484 1.63214 164.589 5.42761 164.589Z" fill="url(#paint1_linear_7916_19052)"/>
<path d="M95.3204 1.72243L125.068 53.4576C126.203 55.431 124.288 57.7576 122.133 57.0241L93.2297 47.1845C92.7032 47.0053 92.1316 47.0092 91.6076 47.1955L64.328 56.8949C62.1676 57.663 60.2188 55.327 61.3617 53.3394L91.0414 1.72243C91.9904 0.0720969 94.3715 0.0720974 95.3204 1.72243Z" fill="#32CCF2"/>
<defs>
<linearGradient id="paint0_linear_7916_19052" x1="93.1644" y1="0.48468" x2="93.1644" y2="164.589" gradientUnits="userSpaceOnUse">
<stop stop-color="#1D72D1"/>
<stop offset="1" stop-color="#6D3BF5"/>
</linearGradient>
<linearGradient id="paint1_linear_7916_19052" x1="93.1644" y1="0.48468" x2="93.1644" y2="164.589" gradientUnits="userSpaceOnUse">
<stop stop-color="#1D72D1"/>
<stop offset="1" stop-color="#6D3BF5"/>
</linearGradient>
</defs>
</svg>
