<svg width="714" height="268" viewBox="0 0 714 268" fill="none" xmlns="http://www.w3.org/2000/svg">
<g clip-path="url(#clip0_7916_19042)">
<rect width="714" height="267.425" fill="white"/>
<g filter="url(#filter0_d_7916_19042)">
<rect x="11.7878" y="18.8236" width="251.638" height="229.778" rx="20.1218" stroke="#F6F6F6" stroke-width="1.29818" shape-rendering="crispEdges"/>
<path d="M227.834 218.094H205.007C203.187 218.094 201.506 217.119 200.602 215.539L138.532 107.104C137.948 106.083 138.945 104.886 140.054 105.276L177.506 118.454C178.647 118.855 179.607 119.651 180.214 120.697L232.227 210.473C234.187 213.857 231.745 218.094 227.834 218.094Z" fill="url(#paint0_linear_7916_19042)"/>
<path d="M47.3785 218.094H75.5215L114.444 149.854C115.438 148.11 117.967 148.156 118.897 149.935L154.559 218.095L184.68 218.094C188.576 218.094 191.02 213.887 189.09 210.503L131.859 110.172C130.646 108.046 128.089 107.088 125.778 107.894L97.7602 117.667C96.6081 118.069 95.6393 118.873 95.0313 119.931L42.9777 210.489C41.0325 213.873 43.4753 218.094 47.3785 218.094Z" fill="url(#paint1_linear_7916_19042)"/>
<path d="M139.824 50.6038L170.416 103.808C171.583 105.837 169.614 108.23 167.398 107.476L137.674 97.3568C137.132 97.1724 136.544 97.1764 136.006 97.368L107.951 107.343C105.73 108.133 103.725 105.73 104.901 103.686L135.423 50.6038C136.399 48.9066 138.848 48.9066 139.824 50.6038Z" fill="#32CCF2"/>
</g>
<path d="M322.753 183.424C319.551 183.424 317.214 183.001 315.743 182.156C314.272 181.311 313.536 180.128 313.536 178.607V107.503H294.583C291.554 107.503 290.039 105.138 290.039 100.406V95.0824C290.039 90.4351 291.554 88.1115 294.583 88.1115H354.689C357.718 88.1115 359.232 90.4351 359.232 95.0824V100.406C359.232 105.138 357.718 107.503 354.689 107.503H335.735V178.607C335.735 180.128 334.999 181.311 333.528 182.156C332.143 183.001 329.807 183.424 326.518 183.424H322.753Z" fill="#2C2C31"/>
<path d="M373.161 183.693C370.046 183.693 367.752 183.313 366.281 182.552C364.896 181.707 364.204 180.482 364.204 178.877V92.6901C364.204 91.0846 364.896 89.9017 366.281 89.1412C367.752 88.2963 370.046 87.8738 373.161 87.8738H376.666C379.782 87.8738 382.032 88.2963 383.417 89.1412C384.888 89.9017 385.624 91.0846 385.624 92.6901V125.01C387.095 123.236 388.826 121.715 390.817 120.447C392.894 119.095 395.144 118.039 397.567 117.279C400.077 116.518 402.673 116.138 405.356 116.138C409.51 116.138 412.972 116.856 415.742 118.293C418.511 119.729 420.588 121.884 421.973 124.757C423.444 127.545 424.18 131.009 424.18 135.15V178.877C424.18 180.482 423.444 181.707 421.973 182.552C420.588 183.313 418.338 183.693 415.222 183.693H411.587C408.472 183.693 406.178 183.313 404.707 182.552C403.322 181.707 402.63 180.482 402.63 178.877V139.839C402.63 137.727 402.111 136.121 401.072 135.023C400.12 133.924 398.476 133.375 396.139 133.375C394.927 133.375 393.673 133.629 392.374 134.136C391.076 134.558 389.865 135.192 388.739 136.037C387.614 136.797 386.619 137.727 385.754 138.825V178.877C385.754 180.482 385.018 181.707 383.547 182.552C382.162 183.313 379.912 183.693 376.796 183.693H373.161Z" fill="#2C2C31"/>
<path d="M446.564 183.693C443.449 183.693 441.155 183.355 439.684 182.679C438.299 182.003 437.607 180.989 437.607 179.637V120.954C437.607 119.602 438.299 118.588 439.684 117.912C441.155 117.236 443.449 116.898 446.564 116.898H450.199C453.315 116.898 455.565 117.236 456.95 117.912C458.421 118.588 459.157 119.602 459.157 120.954V179.637C459.157 180.989 458.421 182.003 456.95 182.679C455.565 183.355 453.315 183.693 450.199 183.693H446.564ZM448.382 110.688C444.487 110.688 441.675 110.308 439.944 109.547C438.213 108.702 437.347 107.519 437.347 105.998V97.3796C437.347 95.8587 438.213 94.718 439.944 93.9575C441.675 93.1126 444.487 92.6901 448.382 92.6901C452.276 92.6901 455.089 93.1126 456.82 93.9575C458.551 94.718 459.416 95.8587 459.416 97.3796V105.998C459.416 107.519 458.551 108.702 456.82 109.547C455.089 110.308 452.276 110.688 448.382 110.688Z" fill="#2C2C31"/>
<path d="M480.921 183.693C477.805 183.693 475.511 183.313 474.04 182.552C472.655 181.707 471.963 180.482 471.963 178.877V139.205C471.963 135.234 471.833 132.192 471.574 130.08C471.401 127.967 471.184 126.362 470.925 125.263C470.751 124.165 470.665 123.151 470.665 122.222C470.665 121.208 471.227 120.363 472.353 119.687C473.478 119.011 474.862 118.504 476.507 118.166C478.238 117.828 479.969 117.617 481.699 117.532C483.43 117.363 484.945 117.279 486.243 117.279C487.887 117.279 489.056 117.532 489.748 118.039C490.527 118.462 491.09 119.306 491.436 120.574C491.869 121.757 492.258 123.489 492.604 125.77C494.249 123.912 496.109 122.264 498.186 120.827C500.35 119.306 502.687 118.166 505.197 117.405C507.706 116.56 510.346 116.138 513.115 116.138C517.27 116.138 520.732 116.856 523.501 118.293C526.27 119.729 528.347 121.884 529.732 124.757C531.203 127.545 531.939 131.009 531.939 135.15V178.877C531.939 180.482 531.247 181.707 529.862 182.552C528.477 183.313 526.184 183.693 522.982 183.693H519.347C516.231 183.693 513.938 183.313 512.466 182.552C511.082 181.707 510.389 180.482 510.389 178.877V139.839C510.389 137.727 509.87 136.121 508.832 135.023C507.88 133.924 506.235 133.375 503.898 133.375C502.687 133.375 501.432 133.629 500.134 134.136C498.836 134.558 497.624 135.192 496.499 136.037C495.374 136.797 494.378 137.727 493.513 138.825V178.877C493.513 180.482 492.777 181.707 491.306 182.552C489.921 183.313 487.671 183.693 484.555 183.693H480.921Z" fill="#2C2C31"/>
<path d="M553.183 183.693C550.067 183.693 547.774 183.313 546.302 182.552C544.918 181.707 544.225 180.482 544.225 178.877V92.5633C544.225 91.0424 544.918 89.8594 546.302 89.0145C547.774 88.1695 550.067 87.747 553.183 87.747H556.818C559.933 87.747 562.183 88.1695 563.568 89.0145C565.039 89.8594 565.775 91.0424 565.775 92.5633V141.74H566.424L580.185 120.32C580.791 119.391 581.483 118.715 582.262 118.293C583.041 117.786 584.036 117.448 585.248 117.279C586.459 117.025 588.061 116.898 590.051 116.898H595.633C597.97 116.898 599.658 117.067 600.696 117.405C601.821 117.659 602.384 118.25 602.384 119.18C602.384 119.602 602.211 120.151 601.865 120.827C601.605 121.419 601.172 122.179 600.566 123.109L581.353 151.626V141.36L603.682 177.736C604.115 178.496 604.461 179.172 604.721 179.764C605.067 180.355 605.24 180.862 605.24 181.285C605.24 182.214 604.634 182.848 603.422 183.186C602.211 183.524 600.48 183.693 598.23 183.693H592.647C589.272 183.693 586.762 183.397 585.118 182.806C583.56 182.13 582.262 180.862 581.223 179.003L566.424 154.035H565.775V178.877C565.775 180.482 565.039 181.707 563.568 182.552C562.183 183.313 559.933 183.693 556.818 183.693H553.183Z" fill="#2C2C31"/>
<path d="M618.859 107.564C616.937 107.564 615.535 107.361 614.653 106.955C613.822 106.55 613.406 105.941 613.406 105.13V96.613H593.155C592.739 96.613 592.35 96.1821 591.986 95.3202C591.623 94.4583 591.337 93.4697 591.129 92.3544C590.974 91.239 590.896 90.3518 590.896 89.6927C590.896 89.4899 590.922 89.2871 590.974 89.0844C591.026 88.8309 591.129 88.6027 591.285 88.3999L610.291 56.0039C610.81 55.1421 611.537 54.6098 612.472 54.407C613.406 54.1535 615.146 54.0267 617.69 54.0267H621.04C622.857 54.0267 624.207 54.2295 625.09 54.6351C626.025 55.0407 626.492 55.6491 626.492 56.4602V86.955H628.673C630.231 86.955 631.01 88.2225 631.01 90.7574V92.8107C631.01 94.1288 630.828 95.0921 630.464 95.7004C630.101 96.3088 629.504 96.613 628.673 96.613H626.492V105.13C626.492 105.941 626.051 106.55 625.168 106.955C624.337 107.361 622.961 107.564 621.04 107.564H618.859ZM601.1 91.4418L597.984 86.955H613.406V76.0043C613.406 74.8382 613.484 73.5708 613.64 72.2019C613.848 70.8331 614.055 69.7431 614.263 68.9319L610.369 67.7912L616.132 65.1296L601.1 91.4418Z" fill="url(#paint2_linear_7916_19042)"/>
<path d="M639.278 107.412C637.201 107.412 636.163 105.891 636.163 102.849V100.035C636.163 96.9932 637.201 95.4723 639.278 95.4723H646.678V59.9584L653.454 66.8026L639.045 68.8559C638.11 68.9573 637.409 68.6277 636.941 67.8673C636.474 67.0561 636.163 66.0421 636.007 64.8254C635.851 63.5579 635.773 62.3412 635.773 61.1751C635.773 59.9077 635.955 58.9951 636.318 58.4374C636.734 57.8291 637.487 57.4235 638.577 57.2207L657.349 53.8746C657.972 53.8746 658.647 54.1028 659.374 54.5591C660.153 54.9646 660.542 55.5984 660.542 56.4602V95.4723H667.942C670.019 95.4723 671.058 96.9932 671.058 100.035V102.849C671.058 105.891 670.019 107.412 667.942 107.412H639.278Z" fill="url(#paint3_linear_7916_19042)"/>
<path d="M315.028 207.634C314.545 207.634 314.187 207.572 313.953 207.447C313.735 207.307 313.626 207.112 313.626 206.863V192.165C313.626 191.542 313.914 191.23 314.491 191.23H321.992C322.444 191.23 322.669 191.62 322.669 192.399V193.123C322.669 193.902 322.444 194.291 321.992 194.291H317.248V198.381H321.781C322.233 198.381 322.459 198.77 322.459 199.549V200.273C322.459 201.052 322.233 201.442 321.781 201.442H317.248V206.863C317.248 207.112 317.139 207.307 316.921 207.447C316.703 207.572 316.345 207.634 315.846 207.634H315.028ZM329.31 207.774C328.157 207.774 327.3 207.478 326.739 206.886C326.178 206.279 325.898 205.344 325.898 204.082V196.091C325.898 195.841 326.007 195.654 326.225 195.53C326.459 195.39 326.825 195.319 327.323 195.319H327.978C328.476 195.319 328.834 195.39 329.053 195.53C329.286 195.654 329.403 195.841 329.403 196.091V203.568C329.403 203.989 329.497 204.324 329.683 204.573C329.886 204.807 330.213 204.923 330.665 204.923C330.93 204.923 331.195 204.869 331.459 204.76C331.724 204.635 331.966 204.472 332.184 204.269C332.417 204.067 332.597 203.833 332.721 203.568V196.091C332.721 195.841 332.83 195.654 333.048 195.53C333.282 195.39 333.648 195.319 334.147 195.319H334.801C335.299 195.319 335.658 195.39 335.876 195.53C336.109 195.654 336.226 195.841 336.226 196.091V203.521C336.226 204.207 336.242 204.752 336.273 205.157C336.32 205.562 336.359 205.889 336.39 206.139C336.437 206.372 336.46 206.575 336.46 206.746C336.46 206.933 336.343 207.089 336.109 207.213C335.891 207.322 335.619 207.408 335.292 207.47C334.98 207.517 334.676 207.556 334.38 207.587C334.1 207.603 333.897 207.611 333.773 207.611C333.586 207.611 333.446 207.572 333.352 207.494C333.259 207.4 333.181 207.237 333.118 207.003C333.056 206.769 332.978 206.434 332.885 205.998C332.667 206.294 332.371 206.582 331.997 206.863C331.639 207.128 331.226 207.346 330.758 207.517C330.307 207.689 329.824 207.774 329.31 207.774ZM343.368 207.774C342.621 207.774 341.99 207.642 341.476 207.377C340.977 207.112 340.603 206.723 340.354 206.209C340.105 205.679 339.98 205.032 339.98 204.269V190.739C339.98 190.49 340.089 190.303 340.307 190.179C340.541 190.038 340.907 189.968 341.405 189.968H342.06C342.558 189.968 342.917 190.038 343.135 190.179C343.368 190.303 343.485 190.49 343.485 190.739V204.035C343.485 204.378 343.54 204.627 343.649 204.783C343.773 204.923 343.984 204.994 344.28 204.994C344.544 204.994 344.747 204.962 344.887 204.9C345.043 204.822 345.175 204.783 345.284 204.783C345.378 204.783 345.464 204.861 345.541 205.017C345.619 205.173 345.682 205.367 345.728 205.601C345.791 205.819 345.837 206.037 345.869 206.255C345.9 206.458 345.915 206.614 345.915 206.723C345.915 206.91 345.783 207.089 345.518 207.26C345.253 207.416 344.926 207.541 344.537 207.634C344.147 207.727 343.758 207.774 343.368 207.774ZM351.24 207.774C350.492 207.774 349.861 207.642 349.347 207.377C348.849 207.112 348.475 206.723 348.226 206.209C347.976 205.679 347.852 205.032 347.852 204.269V190.739C347.852 190.49 347.961 190.303 348.179 190.179C348.413 190.038 348.779 189.968 349.277 189.968H349.932C350.43 189.968 350.788 190.038 351.006 190.179C351.24 190.303 351.357 190.49 351.357 190.739V204.035C351.357 204.378 351.411 204.627 351.521 204.783C351.645 204.923 351.855 204.994 352.151 204.994C352.416 204.994 352.619 204.962 352.759 204.9C352.915 204.822 353.047 204.783 353.156 204.783C353.25 204.783 353.335 204.861 353.413 205.017C353.491 205.173 353.553 205.367 353.6 205.601C353.663 205.819 353.709 206.037 353.74 206.255C353.772 206.458 353.787 206.614 353.787 206.723C353.787 206.91 353.655 207.089 353.39 207.26C353.125 207.416 352.798 207.541 352.408 207.634C352.019 207.727 351.63 207.774 351.24 207.774ZM355.77 202.633C355.303 202.633 355.069 202.244 355.069 201.465V201.301C355.069 200.523 355.303 200.133 355.77 200.133H360.21C360.678 200.133 360.911 200.523 360.911 201.301V201.465C360.911 202.244 360.678 202.633 360.21 202.633H355.77ZM368.63 207.774C367.851 207.774 367.15 207.712 366.527 207.587C365.919 207.478 365.397 207.33 364.961 207.143C364.525 206.956 364.167 206.777 363.886 206.606C363.668 206.466 363.489 206.333 363.349 206.209C363.209 206.068 363.138 205.905 363.138 205.718C363.138 205.531 363.162 205.321 363.209 205.087C363.271 204.838 363.349 204.596 363.442 204.363C363.551 204.129 363.66 203.934 363.769 203.778C363.894 203.623 364.019 203.545 364.143 203.545C364.283 203.545 364.556 203.646 364.961 203.849C365.382 204.035 365.872 204.23 366.433 204.433C367.01 204.62 367.609 204.713 368.233 204.713C368.684 204.713 369.05 204.659 369.331 204.55C369.627 204.44 369.845 204.269 369.985 204.035C370.141 203.802 370.219 203.506 370.219 203.147C370.219 202.774 370.11 202.462 369.892 202.213C369.689 201.964 369.416 201.745 369.074 201.559C368.731 201.356 368.342 201.177 367.905 201.021C367.485 200.85 367.056 200.663 366.62 200.46C366.215 200.273 365.826 200.055 365.452 199.806C365.078 199.557 364.735 199.253 364.424 198.895C364.128 198.536 363.894 198.1 363.723 197.586C363.551 197.072 363.466 196.464 363.466 195.763C363.466 194.922 363.621 194.206 363.933 193.614C364.26 193.006 364.688 192.515 365.218 192.142C365.748 191.768 366.34 191.495 366.994 191.324C367.648 191.137 368.318 191.043 369.004 191.043C369.502 191.043 369.985 191.082 370.452 191.16C370.935 191.238 371.372 191.347 371.761 191.487C372.15 191.612 372.462 191.76 372.696 191.931C372.867 192.04 373.007 192.157 373.116 192.282C373.225 192.406 373.28 192.531 373.28 192.656C373.28 192.811 373.249 193.014 373.186 193.263C373.14 193.497 373.07 193.73 372.976 193.964C372.898 194.198 372.797 194.393 372.672 194.548C372.548 194.704 372.415 194.782 372.275 194.782C372.088 194.782 371.839 194.727 371.527 194.618C371.231 194.494 370.873 194.377 370.452 194.268C370.047 194.143 369.588 194.081 369.074 194.081C368.638 194.081 368.271 194.136 367.975 194.245C367.679 194.354 367.454 194.517 367.298 194.735C367.158 194.938 367.088 195.203 367.088 195.53C367.088 195.919 367.204 196.246 367.438 196.511C367.672 196.76 367.983 196.979 368.373 197.165C368.778 197.337 369.206 197.524 369.658 197.726C370.141 197.929 370.632 198.155 371.13 198.404C371.629 198.653 372.088 198.965 372.509 199.339C372.929 199.697 373.264 200.156 373.514 200.717C373.778 201.263 373.911 201.948 373.911 202.774C373.911 203.693 373.755 204.472 373.443 205.11C373.147 205.749 372.742 206.263 372.228 206.653C371.714 207.042 371.146 207.33 370.523 207.517C369.899 207.689 369.268 207.774 368.63 207.774ZM380.524 207.774C379.776 207.774 379.145 207.642 378.631 207.377C378.132 207.112 377.759 206.723 377.509 206.209C377.26 205.679 377.135 205.032 377.135 204.269V198.1H376.388C375.92 198.1 375.687 197.711 375.687 196.932V196.535C375.687 195.756 375.92 195.366 376.388 195.366H377.135L377.509 193.146C377.556 192.897 377.673 192.71 377.86 192.585C378.062 192.461 378.343 192.399 378.701 192.399H379.472C379.877 192.399 380.173 192.461 380.36 192.585C380.547 192.71 380.641 192.897 380.641 193.146V195.366H382.066C382.533 195.366 382.767 195.756 382.767 196.535V196.932C382.767 197.711 382.533 198.1 382.066 198.1H380.641V204.035C380.641 204.378 380.695 204.627 380.804 204.783C380.929 204.923 381.139 204.994 381.435 204.994C381.7 204.994 381.902 204.962 382.043 204.9C382.198 204.822 382.331 204.783 382.44 204.783C382.533 204.783 382.619 204.861 382.697 205.017C382.775 205.173 382.837 205.367 382.884 205.601C382.946 205.819 382.993 206.037 383.024 206.255C383.055 206.458 383.071 206.614 383.071 206.723C383.071 206.91 382.938 207.089 382.673 207.26C382.409 207.416 382.082 207.541 381.692 207.634C381.303 207.727 380.913 207.774 380.524 207.774ZM388.651 207.774C387.389 207.774 386.493 207.447 385.964 206.793C385.449 206.123 385.192 205.313 385.192 204.363C385.192 203.88 385.263 203.389 385.403 202.89C385.558 202.376 385.862 201.901 386.314 201.465C386.766 201.029 387.436 200.678 388.324 200.414C389.227 200.149 390.419 200.016 391.899 200.016V199.315C391.899 198.988 391.836 198.723 391.712 198.521C391.587 198.318 391.393 198.17 391.128 198.077C390.863 197.968 390.512 197.913 390.076 197.913C389.515 197.913 389.009 197.976 388.557 198.1C388.121 198.209 387.747 198.326 387.436 198.451C387.14 198.575 386.914 198.638 386.758 198.638C386.649 198.638 386.54 198.568 386.431 198.427C386.322 198.272 386.221 198.092 386.127 197.89C386.049 197.672 385.987 197.461 385.94 197.259C385.893 197.056 385.87 196.901 385.87 196.792C385.87 196.574 386.002 196.371 386.267 196.184C386.532 195.997 386.883 195.826 387.319 195.67C387.755 195.514 388.238 195.397 388.768 195.319C389.297 195.226 389.819 195.179 390.333 195.179C391.252 195.179 392.031 195.281 392.67 195.483C393.309 195.67 393.823 195.943 394.212 196.301C394.617 196.644 394.905 197.056 395.077 197.539C395.264 198.007 395.357 198.521 395.357 199.082V203.475C395.357 204.285 395.381 204.908 395.427 205.344C395.474 205.765 395.521 206.084 395.567 206.302C395.614 206.505 395.638 206.692 395.638 206.863C395.638 207.003 395.529 207.12 395.31 207.213C395.108 207.307 394.851 207.385 394.539 207.447C394.243 207.509 393.947 207.556 393.651 207.587C393.371 207.603 393.161 207.611 393.02 207.611C392.771 207.611 392.584 207.525 392.46 207.354C392.351 207.167 392.273 206.949 392.226 206.699C392.179 206.434 392.132 206.201 392.086 205.998C392.039 206.092 391.875 206.287 391.595 206.582C391.33 206.863 390.949 207.136 390.45 207.4C389.967 207.65 389.367 207.774 388.651 207.774ZM389.796 205.04C390.092 205.04 390.372 204.978 390.637 204.853C390.917 204.729 391.167 204.557 391.385 204.339C391.603 204.106 391.774 203.849 391.899 203.568V202.283C391.338 202.283 390.855 202.322 390.45 202.4C390.045 202.478 389.702 202.587 389.422 202.727C389.157 202.867 388.955 203.046 388.814 203.264C388.69 203.482 388.627 203.732 388.627 204.012C388.627 204.308 388.721 204.557 388.908 204.76C389.11 204.947 389.406 205.04 389.796 205.04ZM404.632 207.774C402.576 207.774 401.096 207.26 400.192 206.232C399.304 205.204 398.86 203.646 398.86 201.559C398.86 199.471 399.336 197.89 400.286 196.815C401.252 195.724 402.778 195.179 404.866 195.179C405.286 195.179 405.723 195.226 406.174 195.319C406.626 195.397 407.047 195.514 407.436 195.67C407.826 195.826 408.137 195.997 408.371 196.184C408.62 196.371 408.745 196.574 408.745 196.792C408.745 196.932 408.69 197.15 408.581 197.446C408.472 197.726 408.34 197.991 408.184 198.24C408.028 198.474 407.872 198.591 407.717 198.591C407.561 198.591 407.358 198.536 407.109 198.427C406.86 198.303 406.548 198.186 406.174 198.077C405.801 197.968 405.349 197.913 404.819 197.913C403.962 197.913 403.347 198.194 402.973 198.754C402.599 199.315 402.412 200.219 402.412 201.465C402.412 202.727 402.599 203.638 402.973 204.199C403.347 204.76 403.962 205.04 404.819 205.04C405.364 205.04 405.839 204.978 406.244 204.853C406.65 204.713 406.992 204.581 407.273 204.456C407.553 204.316 407.771 204.246 407.927 204.246C408.083 204.246 408.223 204.363 408.348 204.596C408.488 204.83 408.597 205.095 408.675 205.391C408.768 205.671 408.815 205.889 408.815 206.045C408.815 206.279 408.675 206.497 408.394 206.699C408.129 206.902 407.779 207.089 407.343 207.26C406.922 207.416 406.47 207.541 405.987 207.634C405.505 207.727 405.053 207.774 404.632 207.774ZM412.936 207.634C412.437 207.634 412.071 207.572 411.837 207.447C411.619 207.307 411.51 207.112 411.51 206.863V190.739C411.51 190.49 411.619 190.303 411.837 190.179C412.071 190.038 412.437 189.968 412.936 189.968H413.59C414.089 189.968 414.447 190.038 414.665 190.179C414.899 190.303 415.015 190.49 415.015 190.739V199.97H415.132L417.843 195.857C417.936 195.701 418.045 195.592 418.17 195.53C418.295 195.452 418.458 195.397 418.661 195.366C418.879 195.335 419.175 195.319 419.549 195.319H420.296C420.717 195.319 421.029 195.343 421.231 195.39C421.449 195.421 421.558 195.522 421.558 195.693C421.558 195.771 421.527 195.872 421.465 195.997C421.402 196.122 421.309 196.27 421.184 196.441L417.843 201.208V200.156L421.722 206.629C421.8 206.754 421.862 206.871 421.909 206.98C421.956 207.073 421.979 207.159 421.979 207.237C421.979 207.408 421.862 207.517 421.628 207.564C421.41 207.611 421.099 207.634 420.694 207.634H419.946C419.37 207.634 418.949 207.587 418.684 207.494C418.419 207.385 418.201 207.182 418.03 206.886L415.132 201.839H415.015V206.863C415.015 207.112 414.899 207.307 414.665 207.447C414.447 207.572 414.089 207.634 413.59 207.634H412.936ZM438.563 207.774C435.946 207.774 434.006 207.097 432.745 205.741C431.498 204.37 430.875 202.244 430.875 199.362C430.875 196.574 431.53 194.494 432.838 193.123C434.147 191.736 436.094 191.043 438.68 191.043C439.054 191.043 439.435 191.067 439.825 191.113C440.23 191.145 440.627 191.199 441.017 191.277C441.406 191.355 441.764 191.448 442.092 191.557C442.434 191.666 442.722 191.791 442.956 191.931C443.143 192.04 443.291 192.157 443.4 192.282C443.509 192.406 443.564 192.539 443.564 192.679C443.564 192.835 443.517 193.037 443.423 193.287C443.346 193.52 443.237 193.754 443.096 193.988C442.972 194.221 442.831 194.416 442.676 194.572C442.52 194.727 442.372 194.805 442.232 194.805C442.045 194.805 441.842 194.774 441.624 194.712C441.406 194.634 441.157 194.556 440.876 194.478C440.596 194.385 440.269 194.307 439.895 194.245C439.537 194.167 439.108 194.128 438.61 194.128C437.239 194.128 436.219 194.564 435.549 195.436C434.894 196.309 434.567 197.625 434.567 199.385C434.567 200.71 434.715 201.761 435.011 202.54C435.307 203.319 435.751 203.88 436.343 204.222C436.935 204.55 437.675 204.713 438.563 204.713C438.984 204.713 439.397 204.682 439.802 204.62C440.207 204.557 440.58 204.472 440.923 204.363C441.281 204.254 441.562 204.137 441.764 204.012L440.619 205.741V201.021H438.213C437.745 201.021 437.512 200.632 437.512 199.853V199.175C437.512 198.396 437.745 198.007 438.213 198.007H443.213C443.79 198.007 444.078 198.318 444.078 198.941V205.905C444.078 206.107 444.015 206.294 443.891 206.466C443.782 206.621 443.603 206.762 443.353 206.886C443.042 207.058 442.621 207.213 442.092 207.354C441.562 207.478 440.985 207.579 440.362 207.657C439.755 207.735 439.155 207.774 438.563 207.774ZM453.539 207.774C451.42 207.774 449.87 207.213 448.888 206.092C447.923 204.955 447.44 203.443 447.44 201.559C447.44 200.016 447.681 198.778 448.164 197.843C448.647 196.908 449.317 196.231 450.174 195.81C451.03 195.39 452.012 195.179 453.118 195.179C454.349 195.179 455.33 195.46 456.062 196.02C456.794 196.566 457.324 197.29 457.651 198.194C457.994 199.082 458.165 200.047 458.165 201.091C458.165 201.294 458.087 201.512 457.932 201.745C457.791 201.979 457.62 202.182 457.418 202.353C457.215 202.509 457.028 202.587 456.857 202.587H450.992C451.023 203.521 451.288 204.168 451.786 204.526C452.3 204.869 452.939 205.04 453.702 205.04C454.232 205.04 454.699 204.97 455.104 204.83C455.525 204.674 455.875 204.526 456.156 204.386C456.452 204.246 456.678 204.176 456.833 204.176C456.989 204.176 457.145 204.292 457.301 204.526C457.456 204.76 457.589 205.025 457.698 205.321C457.807 205.601 457.862 205.819 457.862 205.975C457.862 206.209 457.706 206.434 457.394 206.653C457.098 206.871 456.717 207.065 456.249 207.237C455.782 207.408 455.307 207.541 454.824 207.634C454.341 207.727 453.912 207.774 453.539 207.774ZM450.945 200.273H454.871C454.871 199.494 454.715 198.91 454.403 198.521C454.092 198.116 453.616 197.913 452.978 197.913C452.697 197.913 452.401 197.968 452.09 198.077C451.778 198.186 451.513 198.412 451.295 198.754C451.077 199.082 450.96 199.588 450.945 200.273ZM462.77 207.634C462.272 207.634 461.906 207.572 461.672 207.447C461.454 207.307 461.345 207.112 461.345 206.863V199.432C461.345 198.747 461.321 198.201 461.275 197.796C461.243 197.376 461.204 197.049 461.158 196.815C461.127 196.581 461.111 196.379 461.111 196.207C461.111 196.036 461.22 195.896 461.438 195.787C461.672 195.678 461.944 195.6 462.256 195.553C462.583 195.491 462.887 195.452 463.167 195.436C463.463 195.405 463.674 195.39 463.798 195.39C463.985 195.39 464.125 195.436 464.219 195.53C464.312 195.608 464.39 195.756 464.453 195.974C464.53 196.192 464.608 196.519 464.686 196.955C464.92 196.659 465.208 196.379 465.551 196.114C465.909 195.834 466.306 195.608 466.743 195.436C467.194 195.265 467.669 195.179 468.168 195.179C468.962 195.179 469.617 195.319 470.131 195.6C470.66 195.865 471.05 196.278 471.299 196.838C471.548 197.384 471.673 198.092 471.673 198.965V206.863C471.673 207.112 471.556 207.307 471.323 207.447C471.104 207.572 470.746 207.634 470.248 207.634H469.593C469.095 207.634 468.729 207.572 468.495 207.447C468.277 207.307 468.168 207.112 468.168 206.863V199.479C468.168 199.027 468.067 198.677 467.864 198.427C467.662 198.162 467.311 198.03 466.813 198.03C466.563 198.03 466.306 198.092 466.042 198.217C465.792 198.326 465.559 198.482 465.341 198.684C465.138 198.887 464.974 199.121 464.85 199.385V206.863C464.85 207.112 464.733 207.307 464.499 207.447C464.281 207.572 463.923 207.634 463.424 207.634H462.77ZM475.357 207.634C474.874 207.634 474.515 207.587 474.282 207.494C474.048 207.4 473.931 207.276 473.931 207.12C473.931 207.058 473.939 206.995 473.955 206.933C473.986 206.855 474.009 206.777 474.025 206.699L479.166 191.674C479.228 191.503 479.368 191.378 479.586 191.3C479.804 191.222 480.108 191.183 480.497 191.183H481.713C482.118 191.183 482.421 191.222 482.624 191.3C482.842 191.378 482.982 191.503 483.044 191.674L488.185 206.699C488.216 206.777 488.232 206.855 488.232 206.933C488.248 206.995 488.255 207.058 488.255 207.12C488.255 207.276 488.162 207.4 487.975 207.494C487.788 207.587 487.492 207.634 487.087 207.634H486.059C485.716 207.634 485.428 207.603 485.194 207.541C484.961 207.463 484.813 207.33 484.75 207.143L481.479 197.049C481.401 196.799 481.331 196.55 481.269 196.301C481.222 196.052 481.175 195.802 481.128 195.553H481.035C480.988 195.802 480.934 196.052 480.871 196.301C480.825 196.55 480.762 196.799 480.684 197.049L477.366 207.143C477.304 207.315 477.179 207.439 476.992 207.517C476.805 207.595 476.572 207.634 476.291 207.634H475.357ZM477.109 204.152V201.325H485.101V204.152H477.109ZM492.118 207.634C491.635 207.634 491.276 207.572 491.043 207.447C490.825 207.307 490.716 207.112 490.716 206.863V191.955C490.716 191.705 490.825 191.518 491.043 191.394C491.276 191.254 491.635 191.183 492.118 191.183H492.935C493.434 191.183 493.792 191.254 494.01 191.394C494.228 191.518 494.337 191.705 494.337 191.955V206.863C494.337 207.112 494.228 207.307 494.01 207.447C493.792 207.572 493.434 207.634 492.935 207.634H492.118ZM512.037 207.774C509.42 207.774 507.48 207.097 506.218 205.741C504.972 204.37 504.349 202.244 504.349 199.362C504.349 196.574 505.003 194.494 506.312 193.123C507.62 191.736 509.568 191.043 512.154 191.043C512.652 191.043 513.166 191.082 513.696 191.16C514.241 191.222 514.755 191.324 515.238 191.464C515.721 191.588 516.118 191.744 516.43 191.931C516.617 192.04 516.765 192.157 516.874 192.282C516.983 192.406 517.037 192.539 517.037 192.679C517.037 192.835 516.998 193.037 516.92 193.287C516.858 193.52 516.772 193.754 516.663 193.988C516.554 194.221 516.43 194.416 516.29 194.572C516.149 194.727 516.009 194.805 515.869 194.805C515.682 194.805 515.417 194.751 515.074 194.642C514.732 194.517 514.311 194.4 513.813 194.291C513.33 194.182 512.753 194.128 512.083 194.128C511.164 194.128 510.401 194.322 509.793 194.712C509.201 195.101 508.758 195.686 508.462 196.464C508.181 197.243 508.041 198.217 508.041 199.385C508.041 200.554 508.189 201.535 508.485 202.33C508.781 203.109 509.225 203.701 509.817 204.106C510.409 204.511 511.149 204.713 512.037 204.713C512.598 204.713 513.104 204.666 513.556 204.573C514.007 204.479 514.405 204.37 514.747 204.246C515.09 204.121 515.378 204.012 515.612 203.919C515.846 203.825 516.017 203.778 516.126 203.778C516.313 203.778 516.477 203.864 516.617 204.035C516.757 204.207 516.874 204.409 516.967 204.643C517.061 204.877 517.131 205.11 517.178 205.344C517.224 205.562 517.248 205.718 517.248 205.811C517.248 206.076 517.185 206.271 517.061 206.396C516.936 206.52 516.695 206.684 516.336 206.886C515.962 207.089 515.518 207.26 515.004 207.4C514.506 207.525 513.992 207.618 513.462 207.681C512.948 207.743 512.473 207.774 512.037 207.774ZM525.359 207.774C523.506 207.774 522.096 207.229 521.13 206.139C520.164 205.048 519.681 203.49 519.681 201.465C519.681 199.424 520.164 197.866 521.13 196.792C522.096 195.717 523.506 195.179 525.359 195.179C527.213 195.179 528.615 195.717 529.565 196.792C530.531 197.866 531.014 199.424 531.014 201.465C531.014 203.49 530.531 205.048 529.565 206.139C528.615 207.229 527.213 207.774 525.359 207.774ZM525.359 205.04C526.092 205.04 526.621 204.736 526.948 204.129C527.291 203.521 527.462 202.633 527.462 201.465C527.462 200.297 527.291 199.417 526.948 198.825C526.621 198.217 526.092 197.913 525.359 197.913C524.627 197.913 524.09 198.217 523.747 198.825C523.404 199.417 523.233 200.297 523.233 201.465C523.233 202.633 523.404 203.521 523.747 204.129C524.09 204.736 524.627 205.04 525.359 205.04ZM535.719 207.634C535.22 207.634 534.854 207.572 534.621 207.447C534.403 207.307 534.294 207.112 534.294 206.863V199.432C534.294 198.747 534.27 198.201 534.223 197.796C534.192 197.376 534.153 197.049 534.107 196.815C534.075 196.581 534.06 196.379 534.06 196.207C534.06 196.036 534.169 195.896 534.387 195.787C534.621 195.678 534.893 195.6 535.205 195.553C535.532 195.491 535.836 195.452 536.116 195.436C536.412 195.405 536.622 195.39 536.747 195.39C536.934 195.39 537.074 195.436 537.168 195.53C537.261 195.608 537.339 195.756 537.401 195.974C537.479 196.192 537.557 196.519 537.635 196.955C537.853 196.659 538.134 196.379 538.476 196.114C538.835 195.834 539.232 195.608 539.668 195.436C540.12 195.265 540.595 195.179 541.093 195.179C541.67 195.179 542.176 195.257 542.612 195.413C543.064 195.553 543.43 195.771 543.711 196.067C544.007 196.348 544.217 196.706 544.341 197.142C544.544 196.815 544.817 196.503 545.159 196.207C545.518 195.911 545.93 195.67 546.398 195.483C546.865 195.281 547.364 195.179 547.893 195.179C548.703 195.179 549.365 195.319 549.879 195.6C550.409 195.865 550.799 196.278 551.048 196.838C551.313 197.384 551.445 198.092 551.445 198.965V206.863C551.445 207.112 551.328 207.307 551.095 207.447C550.876 207.572 550.518 207.634 550.02 207.634H549.365C548.867 207.634 548.501 207.572 548.267 207.447C548.049 207.307 547.94 207.112 547.94 206.863V199.479C547.94 199.027 547.831 198.677 547.613 198.427C547.41 198.162 547.052 198.03 546.538 198.03C546.351 198.03 546.156 198.069 545.954 198.147C545.767 198.209 545.58 198.31 545.393 198.451C545.206 198.591 545.019 198.77 544.832 198.988C544.661 199.191 544.505 199.432 544.365 199.713L544.388 197.82C544.466 198.022 544.521 198.217 544.552 198.404C544.598 198.591 544.622 198.786 544.622 198.988V206.863C544.622 207.112 544.505 207.307 544.271 207.447C544.053 207.572 543.695 207.634 543.196 207.634H542.542C542.044 207.634 541.678 207.572 541.444 207.447C541.226 207.307 541.117 207.112 541.117 206.863V199.479C541.117 199.027 541.008 198.677 540.79 198.427C540.587 198.162 540.229 198.03 539.715 198.03C539.465 198.03 539.216 198.092 538.967 198.217C538.718 198.326 538.492 198.482 538.289 198.684C538.087 198.887 537.923 199.121 537.799 199.385V206.863C537.799 207.112 537.682 207.307 537.448 207.447C537.23 207.572 536.872 207.634 536.373 207.634H535.719ZM556.461 212.401C555.963 212.401 555.596 212.331 555.363 212.191C555.145 212.066 555.036 211.879 555.036 211.63V199.432C555.036 198.747 555.012 198.201 554.965 197.796C554.934 197.376 554.895 197.049 554.849 196.815C554.818 196.581 554.802 196.379 554.802 196.207C554.802 196.036 554.911 195.896 555.129 195.787C555.363 195.678 555.635 195.6 555.947 195.553C556.274 195.491 556.578 195.452 556.858 195.436C557.154 195.405 557.365 195.39 557.489 195.39C557.676 195.39 557.816 195.436 557.91 195.53C558.003 195.608 558.081 195.756 558.143 195.974C558.221 196.192 558.299 196.519 558.377 196.955C558.564 196.612 558.813 196.309 559.125 196.044C559.452 195.779 559.826 195.569 560.247 195.413C560.667 195.257 561.119 195.179 561.602 195.179C562.474 195.179 563.245 195.421 563.915 195.904C564.585 196.387 565.115 197.103 565.504 198.053C565.894 198.988 566.088 200.133 566.088 201.488C566.088 202.75 565.894 203.856 565.504 204.807C565.115 205.741 564.538 206.473 563.775 207.003C563.027 207.517 562.116 207.774 561.041 207.774C560.652 207.774 560.301 207.735 559.989 207.657C559.678 207.595 559.397 207.509 559.148 207.4C558.915 207.276 558.712 207.159 558.541 207.05V211.63C558.541 211.879 558.424 212.066 558.19 212.191C557.972 212.331 557.614 212.401 557.115 212.401H556.461ZM560.293 205.04C561.057 205.04 561.617 204.744 561.976 204.152C562.35 203.545 562.536 202.657 562.536 201.488C562.536 200.351 562.373 199.487 562.046 198.895C561.734 198.303 561.244 198.007 560.574 198.007C560.106 198.007 559.701 198.147 559.359 198.427C559.031 198.708 558.759 199.027 558.541 199.385V204.596C558.743 204.705 558.985 204.807 559.265 204.9C559.561 204.994 559.904 205.04 560.293 205.04ZM572.45 207.774C571.188 207.774 570.292 207.447 569.763 206.793C569.249 206.123 568.992 205.313 568.992 204.363C568.992 203.88 569.062 203.389 569.202 202.89C569.358 202.376 569.661 201.901 570.113 201.465C570.565 201.029 571.235 200.678 572.123 200.414C573.026 200.149 574.218 200.016 575.698 200.016V199.315C575.698 198.988 575.636 198.723 575.511 198.521C575.386 198.318 575.192 198.17 574.927 198.077C574.662 197.968 574.311 197.913 573.875 197.913C573.314 197.913 572.808 197.976 572.356 198.1C571.92 198.209 571.546 198.326 571.235 198.451C570.939 198.575 570.713 198.638 570.557 198.638C570.448 198.638 570.339 198.568 570.23 198.427C570.121 198.272 570.02 198.092 569.926 197.89C569.848 197.672 569.786 197.461 569.739 197.259C569.693 197.056 569.669 196.901 569.669 196.792C569.669 196.574 569.802 196.371 570.066 196.184C570.331 195.997 570.682 195.826 571.118 195.67C571.554 195.514 572.037 195.397 572.567 195.319C573.096 195.226 573.618 195.179 574.132 195.179C575.051 195.179 575.83 195.281 576.469 195.483C577.108 195.67 577.622 195.943 578.011 196.301C578.416 196.644 578.705 197.056 578.876 197.539C579.063 198.007 579.156 198.521 579.156 199.082V203.475C579.156 204.285 579.18 204.908 579.226 205.344C579.273 205.765 579.32 206.084 579.367 206.302C579.413 206.505 579.437 206.692 579.437 206.863C579.437 207.003 579.328 207.12 579.11 207.213C578.907 207.307 578.65 207.385 578.338 207.447C578.042 207.509 577.746 207.556 577.45 207.587C577.17 207.603 576.96 207.611 576.82 207.611C576.57 207.611 576.383 207.525 576.259 207.354C576.15 207.167 576.072 206.949 576.025 206.699C575.978 206.434 575.932 206.201 575.885 205.998C575.838 206.092 575.675 206.287 575.394 206.582C575.129 206.863 574.748 207.136 574.249 207.4C573.766 207.65 573.166 207.774 572.45 207.774ZM573.595 205.04C573.891 205.04 574.171 204.978 574.436 204.853C574.717 204.729 574.966 204.557 575.184 204.339C575.402 204.106 575.573 203.849 575.698 203.568V202.283C575.137 202.283 574.654 202.322 574.249 202.4C573.844 202.478 573.501 202.587 573.221 202.727C572.956 202.867 572.754 203.046 572.613 203.264C572.489 203.482 572.427 203.732 572.427 204.012C572.427 204.308 572.52 204.557 572.707 204.76C572.909 204.947 573.205 205.04 573.595 205.04ZM584.459 207.634C583.96 207.634 583.594 207.572 583.361 207.447C583.142 207.307 583.033 207.112 583.033 206.863V199.432C583.033 198.747 583.01 198.201 582.963 197.796C582.932 197.376 582.893 197.049 582.846 196.815C582.815 196.581 582.8 196.379 582.8 196.207C582.8 196.036 582.909 195.896 583.127 195.787C583.361 195.678 583.633 195.6 583.945 195.553C584.272 195.491 584.576 195.452 584.856 195.436C585.152 195.405 585.362 195.39 585.487 195.39C585.674 195.39 585.814 195.436 585.908 195.53C586.001 195.608 586.079 195.756 586.141 195.974C586.219 196.192 586.297 196.519 586.375 196.955C586.609 196.659 586.897 196.379 587.24 196.114C587.598 195.834 587.995 195.608 588.431 195.436C588.883 195.265 589.358 195.179 589.857 195.179C590.651 195.179 591.305 195.319 591.82 195.6C592.349 195.865 592.739 196.278 592.988 196.838C593.237 197.384 593.362 198.092 593.362 198.965V206.863C593.362 207.112 593.245 207.307 593.011 207.447C592.793 207.572 592.435 207.634 591.936 207.634H591.282C590.784 207.634 590.417 207.572 590.184 207.447C589.966 207.307 589.857 207.112 589.857 206.863V199.479C589.857 199.027 589.755 198.677 589.553 198.427C589.35 198.162 589 198.03 588.501 198.03C588.252 198.03 587.995 198.092 587.73 198.217C587.481 198.326 587.247 198.482 587.029 198.684C586.827 198.887 586.663 199.121 586.539 199.385V206.863C586.539 207.112 586.422 207.307 586.188 207.447C585.97 207.572 585.612 207.634 585.113 207.634H584.459ZM599.639 212.401C599.156 212.401 598.798 212.354 598.564 212.261C598.346 212.183 598.237 212.066 598.237 211.91C598.237 211.848 598.245 211.778 598.26 211.7C598.276 211.638 598.299 211.568 598.331 211.49L600.223 206.325L600.27 208.896L595.9 196.254C595.885 196.176 595.861 196.106 595.83 196.044C595.815 195.966 595.807 195.896 595.807 195.834C595.807 195.662 595.924 195.538 596.157 195.46C596.391 195.366 596.749 195.319 597.232 195.319H598.003C598.346 195.319 598.634 195.358 598.868 195.436C599.102 195.499 599.25 195.623 599.312 195.81L601.368 203.194H601.462L603.471 195.81C603.534 195.623 603.682 195.499 603.915 195.436C604.149 195.358 604.437 195.319 604.78 195.319H605.364C605.863 195.319 606.221 195.366 606.439 195.46C606.657 195.538 606.766 195.662 606.766 195.834C606.766 195.896 606.758 195.966 606.743 196.044C606.743 196.106 606.727 196.176 606.696 196.254L601.345 211.91C601.283 212.097 601.135 212.222 600.901 212.284C600.667 212.362 600.379 212.401 600.036 212.401H599.639Z" fill="#2C2C31"/>
<rect x="301.178" y="179.149" width="316.757" height="9.08728" fill="white"/>
</g>
<defs>
<filter id="filter0_d_7916_19042" x="-6.90605" y="0.129774" width="289.025" height="267.166" filterUnits="userSpaceOnUse" color-interpolation-filters="sRGB">
<feFlood flood-opacity="0" result="BackgroundImageFix"/>
<feColorMatrix in="SourceAlpha" type="matrix" values="0 0 0 0 0 0 0 0 0 0 0 0 0 0 0 0 0 0 127 0" result="hardAlpha"/>
<feOffset/>
<feGaussianBlur stdDeviation="9.02236"/>
<feComposite in2="hardAlpha" operator="out"/>
<feColorMatrix type="matrix" values="0 0 0 0 0 0 0 0 0 0 0 0 0 0 0 0 0 0 0.25 0"/>
<feBlend mode="normal" in2="BackgroundImageFix" result="effect1_dropShadow_7916_19042"/>
<feBlend mode="normal" in="SourceGraphic" in2="effect1_dropShadow_7916_19042" result="shape"/>
</filter>
<linearGradient id="paint0_linear_7916_19042" x1="137.607" y1="49.3309" x2="137.607" y2="218.095" gradientUnits="userSpaceOnUse">
<stop stop-color="#1D72D1"/>
<stop offset="1" stop-color="#6D3BF5"/>
</linearGradient>
<linearGradient id="paint1_linear_7916_19042" x1="137.607" y1="49.3309" x2="137.607" y2="218.095" gradientUnits="userSpaceOnUse">
<stop stop-color="#1D72D1"/>
<stop offset="1" stop-color="#6D3BF5"/>
</linearGradient>
<linearGradient id="paint2_linear_7916_19042" x1="480.548" y1="53.8746" x2="480.548" y2="183.693" gradientUnits="userSpaceOnUse">
<stop stop-color="#025FC8"/>
<stop offset="1" stop-color="#5A26E9"/>
</linearGradient>
<linearGradient id="paint3_linear_7916_19042" x1="480.548" y1="53.8746" x2="480.548" y2="183.693" gradientUnits="userSpaceOnUse">
<stop stop-color="#025FC8"/>
<stop offset="1" stop-color="#5A26E9"/>
</linearGradient>
<clipPath id="clip0_7916_19042">
<rect width="714" height="267.425" fill="white"/>
</clipPath>
</defs>
</svg>
