<svg width="23" height="23" viewBox="0 0 23 23" fill="none" xmlns="http://www.w3.org/2000/svg">
<path d="M0.788968 4.39196C0.262044 3.90288 0 3.29748 0 2.57717C0 1.85685 0.263446 1.22482 0.788968 0.734329C1.31589 0.245243 1.99417 0 2.8252 0C3.65622 0 4.30788 0.245243 4.83341 0.734329C5.36033 1.22342 5.62237 1.83863 5.62237 2.57717C5.62237 3.3157 5.35893 3.90288 4.83341 4.39196C4.30648 4.88105 3.63801 5.12629 2.8252 5.12629C2.01239 5.12629 1.31589 4.88105 0.788968 4.39196ZM5.17955 7.19756V22.1925H0.441425V7.19756H5.17955Z" fill="black"/>
<path d="M20.9547 8.67838C21.9876 9.79949 22.5033 11.3382 22.5033 13.2974V21.9272H18.0034V13.9056C18.0034 12.9176 17.747 12.1496 17.2355 11.6031C16.724 11.0565 16.0345 10.7819 15.1712 10.7819C14.308 10.7819 13.6184 11.0551 13.1069 11.6031C12.5954 12.1496 12.339 12.9176 12.339 13.9056V21.9272H7.8125V7.15506H12.339V9.11421C12.7972 8.46116 13.4153 7.94546 14.1916 7.56568C14.968 7.1859 15.8411 6.9967 16.8122 6.9967C18.5416 6.9967 19.9233 7.55726 20.9547 8.67697V8.67838Z" fill="black"/>
</svg>
